<svg width="1318" height="492" viewBox="0 0 1318 492" fill="none" xmlns="http://www.w3.org/2000/svg">
<rect width="1318" height="492" rx="16" fill="#5933F2"/>
<path d="M739.707 234.707C740.098 234.317 740.098 233.683 739.707 233.293L733.343 226.929C732.953 226.538 732.319 226.538 731.929 226.929C731.538 227.319 731.538 227.953 731.929 228.343L737.586 234L731.929 239.657C731.538 240.047 731.538 240.681 731.929 241.071C732.319 241.462 732.953 241.462 733.343 241.071L739.707 234.707ZM415 235L739 235L739 233L415 233L415 235Z" fill="#B4A3F9"/>
<path d="M898.293 233.293C897.902 233.683 897.902 234.317 898.293 234.707L904.657 241.071C905.047 241.462 905.681 241.462 906.071 241.071C906.462 240.681 906.462 240.047 906.071 239.657L900.414 234L906.071 228.343C906.462 227.953 906.462 227.319 906.071 226.929C905.681 226.538 905.047 226.538 904.657 226.929L898.293 233.293ZM899 235L947 235L947 233L899 233L899 235Z" fill="#B4A3F9"/>
<mask id="path-4-inside-1_2415_16114" fill="white">
<rect x="759" y="176" width="120" height="115.714" rx="1.71429"/>
</mask>
<rect x="759" y="176" width="120" height="115.714" rx="1.71429" stroke="#DED6FC" stroke-width="5.14286" mask="url(#path-4-inside-1_2415_16114)"/>
<rect x="760.714" y="187.143" width="117.429" height="2.57143" fill="#DED6FC"/>
<rect x="759" y="232.572" width="60.8571" height="2.57143" fill="#DED6FC"/>
<rect x="765.857" y="281.43" width="33.4286" height="2.57143" fill="#DED6FC"/>
<rect x="801.857" y="279.715" width="2.57143" height="6" fill="#DED6FC"/>
<rect x="807" y="281.43" width="72" height="2.57143" fill="#DED6FC"/>
<rect x="760.714" y="273.715" width="117.429" height="2.57143" fill="#DED6FC"/>
<path d="M766.714 217.143H773.143L777.429 208.79L782.571 217.143L787.286 206.001L792 214.572L794.571 208.79L796.286 204.504L801.429 218.429L805.714 208.572L808.286 213.286L813.429 211.143" stroke="#DED6FC" stroke-width="2.57143"/>
<circle cx="767.571" cy="182.857" r="1.71429" fill="#DED6FC"/>
<circle cx="772.714" cy="182.857" r="1.71429" fill="#DED6FC"/>
<circle cx="777.857" cy="182.857" r="1.71429" fill="#DED6FC"/>
<rect x="818.143" y="189.715" width="2.57143" height="84" fill="#DED6FC"/>
<ellipse cx="862.136" cy="223.571" rx="1.96078" ry="2.14286" fill="#DED6FC"/>
<ellipse cx="849.979" cy="211.999" rx="2.35294" ry="2.57143" fill="#DED6FC"/>
<ellipse cx="861.352" cy="215.858" rx="1.96078" ry="2.14286" fill="#DED6FC"/>
<ellipse cx="855.861" cy="214.143" rx="1.96078" ry="2.14286" fill="#DED6FC"/>
<ellipse cx="856.645" cy="222.715" rx="1.96078" ry="2.14286" fill="#DED6FC"/>
<ellipse cx="862.136" cy="231.285" rx="1.96078" ry="2.14286" fill="#DED6FC"/>
<ellipse cx="867.235" cy="231.714" rx="1.56863" ry="1.71429" fill="#DED6FC"/>
<ellipse cx="856.645" cy="231.285" rx="1.96078" ry="2.14286" fill="#DED6FC"/>
<ellipse cx="851.154" cy="239" rx="1.96078" ry="2.14286" fill="#DED6FC"/>
<ellipse cx="844.096" cy="230.428" rx="1.96078" ry="2.14286" fill="#DED6FC"/>
<ellipse cx="838.997" cy="239.429" rx="2.35294" ry="2.57143" fill="#DED6FC"/>
<ellipse cx="851.154" cy="221.858" rx="1.96078" ry="2.14286" fill="#DED6FC"/>
<ellipse cx="837.43" cy="229.999" rx="2.35294" ry="2.57143" fill="#DED6FC"/>
<ellipse cx="838.997" cy="219.714" rx="2.35294" ry="2.57143" fill="#DED6FC"/>
<ellipse cx="832.722" cy="218.857" rx="2.35294" ry="2.57143" fill="#DED6FC"/>
<ellipse cx="831.155" cy="229.144" rx="2.35294" ry="2.57143" fill="#DED6FC"/>
<ellipse cx="832.722" cy="240.286" rx="2.35294" ry="2.57143" fill="#DED6FC"/>
<ellipse cx="850.37" cy="230.428" rx="1.96078" ry="2.14286" fill="#DED6FC"/>
<ellipse cx="844.879" cy="239" rx="1.96078" ry="2.14286" fill="#DED6FC"/>
<ellipse cx="837.43" cy="208.571" rx="2.35294" ry="2.57143" fill="#DED6FC"/>
<ellipse cx="852.328" cy="246.287" rx="1.56863" ry="1.71429" fill="#DED6FC"/>
<ellipse cx="857.82" cy="247.142" rx="1.56863" ry="1.71429" fill="#DED6FC"/>
<ellipse cx="848.411" cy="253.142" rx="1.56863" ry="1.71429" fill="#DED6FC"/>
<ellipse cx="842.92" cy="253.999" rx="1.56863" ry="1.71429" fill="#DED6FC"/>
<ellipse cx="837.429" cy="254.857" rx="1.56863" ry="1.71429" fill="#DED6FC"/>
<ellipse cx="853.902" cy="253.142" rx="1.56863" ry="1.71429" fill="#DED6FC"/>
<ellipse cx="859.393" cy="253.999" rx="1.56863" ry="1.71429" fill="#DED6FC"/>
<ellipse cx="835.471" cy="248.428" rx="1.96078" ry="2.14286" fill="#DED6FC"/>
<ellipse cx="840.962" cy="247.571" rx="1.96078" ry="2.14286" fill="#DED6FC"/>
<ellipse cx="846.446" cy="246.715" rx="1.96078" ry="2.14286" fill="#DED6FC"/>
<ellipse cx="863.311" cy="247.999" rx="1.56863" ry="1.71429" fill="#DED6FC"/>
<ellipse cx="867.235" cy="239.429" rx="1.56863" ry="1.71429" fill="#DED6FC"/>
<ellipse cx="843.704" cy="210.286" rx="2.35294" ry="2.57143" fill="#DED6FC"/>
<ellipse cx="845.271" cy="220.571" rx="2.35294" ry="2.57143" fill="#DED6FC"/>
<ellipse cx="862.136" cy="239" rx="1.96078" ry="2.14286" fill="#DED6FC"/>
<ellipse cx="856.645" cy="239" rx="1.96078" ry="2.14286" fill="#DED6FC"/>
<path d="M776.574 259.446L774.831 257.541L779.103 252.868L774.831 248.196L776.577 246.287L782.596 252.868L776.574 259.446ZM792.859 260.893H782.565V263.593H792.859V260.893Z" fill="#DED6FC"/>
<rect x="941" y="128" width="142" height="28" rx="14" fill="#DED6FC"/>
<path d="M950.358 147V136.948H951.702V145.824H956.714V147H950.358ZM961.175 138.404V136.948H962.547V138.404H961.175ZM958.529 147V145.922H961.231V140.756H958.529V139.678H962.491V145.922H965.193V147H958.529ZM970.605 147H969.359L966.335 139.678H967.665L970.003 145.488L972.313 139.678H973.629L970.605 147ZM978.566 147.154C976.466 147.154 975.038 145.6 975.038 143.346C975.038 141.162 976.466 139.538 978.51 139.538C980.61 139.538 981.716 141.092 981.716 143.122V143.542H976.256C976.34 145.082 977.25 146.062 978.566 146.062C979.602 146.062 980.33 145.53 980.568 144.662L981.66 145.054C981.198 146.356 980.064 147.154 978.566 147.154ZM978.51 140.616C977.376 140.616 976.564 141.33 976.326 142.576H980.442C980.414 141.54 979.826 140.616 978.51 140.616ZM993.255 142.786V147H991.911V136.948H995.439C997.567 136.948 998.911 137.942 998.911 139.86C998.911 141.428 997.987 142.408 996.461 142.702L999.261 147H997.721L995.019 142.786H993.255ZM993.255 141.624H995.355C996.797 141.624 997.595 140.994 997.595 139.86C997.595 138.726 996.797 138.11 995.355 138.11H993.255V141.624ZM1006.97 143.346C1006.97 145.614 1005.57 147.154 1003.57 147.154C1001.57 147.154 1000.17 145.614 1000.17 143.346C1000.17 141.078 1001.57 139.538 1003.57 139.538C1005.57 139.538 1006.97 141.078 1006.97 143.346ZM1001.44 143.346C1001.44 145.012 1002.28 146.076 1003.57 146.076C1004.86 146.076 1005.7 145.012 1005.7 143.346C1005.7 141.666 1004.86 140.602 1003.57 140.602C1002.28 140.602 1001.44 141.666 1001.44 143.346ZM1012.35 147.154C1011.36 147.154 1010.62 146.664 1010.2 145.922V147H1008.94V136.948H1010.2V140.756C1010.62 140.028 1011.36 139.538 1012.35 139.538C1014.31 139.538 1015.42 141.274 1015.42 143.346C1015.42 145.404 1014.31 147.154 1012.35 147.154ZM1010.17 143.108V143.612C1010.17 145.292 1011.16 146.048 1012.1 146.048C1013.42 146.048 1014.15 144.928 1014.15 143.346C1014.15 141.764 1013.42 140.644 1012.1 140.644C1011.16 140.644 1010.17 141.372 1010.17 143.108ZM1023.76 143.346C1023.76 145.614 1022.36 147.154 1020.36 147.154C1018.35 147.154 1016.95 145.614 1016.95 143.346C1016.95 141.078 1018.35 139.538 1020.36 139.538C1022.36 139.538 1023.76 141.078 1023.76 143.346ZM1018.23 143.346C1018.23 145.012 1019.07 146.076 1020.36 146.076C1021.64 146.076 1022.48 145.012 1022.48 143.346C1022.48 141.666 1021.64 140.602 1020.36 140.602C1019.07 140.602 1018.23 141.666 1018.23 143.346ZM1027.25 144.648V140.756H1025.1V139.678H1027.25V137.536H1028.48V139.678H1031.86V140.756H1028.48V144.55C1028.48 145.544 1029.07 145.95 1030.23 145.95C1030.81 145.95 1031.38 145.852 1031.9 145.698V146.832C1031.41 146.972 1030.71 147.084 1030.04 147.084C1028.51 147.084 1027.25 146.44 1027.25 144.648ZM1042.28 147V136.948H1044.42C1047.46 136.948 1049.22 138.908 1049.22 141.974C1049.22 145.04 1047.46 147 1044.42 147H1042.28ZM1043.59 145.838H1044.42C1046.74 145.838 1047.89 144.312 1047.89 141.974C1047.89 139.622 1046.74 138.11 1044.41 138.11H1043.59V145.838ZM1053.01 147.126C1051.65 147.126 1050.55 146.342 1050.55 145.026C1050.55 143.57 1051.74 142.954 1053.36 142.646L1055.32 142.268V141.96C1055.32 141.12 1054.8 140.63 1053.77 140.63C1052.83 140.63 1052.21 141.092 1051.96 141.904L1050.78 141.596C1051.16 140.392 1052.25 139.538 1053.82 139.538C1055.52 139.538 1056.55 140.336 1056.55 141.904V145.432C1056.55 145.992 1056.93 146.104 1057.45 145.992V147C1056.27 147.14 1055.57 146.916 1055.39 146.146C1054.91 146.72 1054.06 147.126 1053.01 147.126ZM1055.32 144.466V143.248L1053.68 143.556C1052.6 143.766 1051.82 144.088 1051.82 144.97C1051.82 145.684 1052.35 146.104 1053.19 146.104C1054.31 146.104 1055.32 145.404 1055.32 144.466ZM1060.83 144.648V140.756H1058.67V139.678H1060.83V137.536H1062.06V139.678H1065.44V140.756H1062.06V144.55C1062.06 145.544 1062.65 145.95 1063.81 145.95C1064.39 145.95 1064.96 145.852 1065.48 145.698V146.832C1064.99 146.972 1064.29 147.084 1063.62 147.084C1062.09 147.084 1060.83 146.44 1060.83 144.648ZM1069.8 147.126C1068.44 147.126 1067.34 146.342 1067.34 145.026C1067.34 143.57 1068.53 142.954 1070.15 142.646L1072.11 142.268V141.96C1072.11 141.12 1071.59 140.63 1070.56 140.63C1069.62 140.63 1069 141.092 1068.75 141.904L1067.57 141.596C1067.95 140.392 1069.04 139.538 1070.61 139.538C1072.31 139.538 1073.34 140.336 1073.34 141.904V145.432C1073.34 145.992 1073.72 146.104 1074.24 145.992V147C1073.06 147.14 1072.36 146.916 1072.18 146.146C1071.7 146.72 1070.85 147.126 1069.8 147.126ZM1072.11 144.466V143.248L1070.47 143.556C1069.39 143.766 1068.61 144.088 1068.61 144.97C1068.61 145.684 1069.14 146.104 1069.98 146.104C1071.1 146.104 1072.11 145.404 1072.11 144.466Z" fill="black"/>
<rect x="230" y="126" width="100" height="28" rx="14" fill="#DED6FC"/>
<path d="M240.282 140.786V145H238.938V134.948H242.466C244.594 134.948 245.938 135.942 245.938 137.86C245.938 139.428 245.014 140.408 243.488 140.702L246.288 145H244.748L242.046 140.786H240.282ZM240.282 139.624H242.382C243.824 139.624 244.622 138.994 244.622 137.86C244.622 136.726 243.824 136.11 242.382 136.11H240.282V139.624ZM253.997 141.346C253.997 143.614 252.597 145.154 250.595 145.154C248.593 145.154 247.193 143.614 247.193 141.346C247.193 139.078 248.593 137.538 250.595 137.538C252.597 137.538 253.997 139.078 253.997 141.346ZM248.467 141.346C248.467 143.012 249.307 144.076 250.595 144.076C251.883 144.076 252.723 143.012 252.723 141.346C252.723 139.666 251.883 138.602 250.595 138.602C249.307 138.602 248.467 139.666 248.467 141.346ZM259.381 145.154C258.387 145.154 257.645 144.664 257.225 143.922V145H255.965V134.948H257.225V138.756C257.645 138.028 258.387 137.538 259.381 137.538C261.341 137.538 262.447 139.274 262.447 141.346C262.447 143.404 261.341 145.154 259.381 145.154ZM257.197 141.108V141.612C257.197 143.292 258.191 144.048 259.129 144.048C260.445 144.048 261.173 142.928 261.173 141.346C261.173 139.764 260.445 138.644 259.129 138.644C258.191 138.644 257.197 139.372 257.197 141.108ZM270.786 141.346C270.786 143.614 269.386 145.154 267.384 145.154C265.382 145.154 263.982 143.614 263.982 141.346C263.982 139.078 265.382 137.538 267.384 137.538C269.386 137.538 270.786 139.078 270.786 141.346ZM265.256 141.346C265.256 143.012 266.096 144.076 267.384 144.076C268.672 144.076 269.512 143.012 269.512 141.346C269.512 139.666 268.672 138.602 267.384 138.602C266.096 138.602 265.256 139.666 265.256 141.346ZM274.28 142.648V138.756H272.124V137.678H274.28V135.536H275.512V137.678H278.886V138.756H275.512V142.55C275.512 143.544 276.1 143.95 277.262 143.95C277.836 143.95 278.41 143.852 278.928 143.698V144.832C278.438 144.972 277.738 145.084 277.066 145.084C275.54 145.084 274.28 144.44 274.28 142.648ZM289.305 145V134.948H291.447C294.485 134.948 296.249 136.908 296.249 139.974C296.249 143.04 294.485 145 291.447 145H289.305ZM290.621 143.838H291.447C293.771 143.838 294.919 142.312 294.919 139.974C294.919 137.622 293.771 136.11 291.433 136.11H290.621V143.838ZM300.038 145.126C298.68 145.126 297.574 144.342 297.574 143.026C297.574 141.57 298.764 140.954 300.388 140.646L302.348 140.268V139.96C302.348 139.12 301.83 138.63 300.794 138.63C299.856 138.63 299.24 139.092 298.988 139.904L297.812 139.596C298.19 138.392 299.282 137.538 300.85 137.538C302.544 137.538 303.58 138.336 303.58 139.904V143.432C303.58 143.992 303.958 144.104 304.476 143.992V145C303.3 145.14 302.6 144.916 302.418 144.146C301.942 144.72 301.088 145.126 300.038 145.126ZM302.348 142.466V141.248L300.71 141.556C299.632 141.766 298.848 142.088 298.848 142.97C298.848 143.684 299.38 144.104 300.22 144.104C301.34 144.104 302.348 143.404 302.348 142.466ZM307.858 142.648V138.756H305.702V137.678H307.858V135.536H309.09V137.678H312.464V138.756H309.09V142.55C309.09 143.544 309.678 143.95 310.84 143.95C311.414 143.95 311.988 143.852 312.506 143.698V144.832C312.016 144.972 311.316 145.084 310.644 145.084C309.118 145.084 307.858 144.44 307.858 142.648ZM316.827 145.126C315.469 145.126 314.363 144.342 314.363 143.026C314.363 141.57 315.553 140.954 317.177 140.646L319.137 140.268V139.96C319.137 139.12 318.619 138.63 317.583 138.63C316.645 138.63 316.029 139.092 315.777 139.904L314.601 139.596C314.979 138.392 316.071 137.538 317.639 137.538C319.333 137.538 320.369 138.336 320.369 139.904V143.432C320.369 143.992 320.747 144.104 321.265 143.992V145C320.089 145.14 319.389 144.916 319.207 144.146C318.731 144.72 317.877 145.126 316.827 145.126ZM319.137 142.466V141.248L317.499 141.556C316.421 141.766 315.637 142.088 315.637 142.97C315.637 143.684 316.169 144.104 317.009 144.104C318.129 144.104 319.137 143.404 319.137 142.466Z" fill="black"/>
<path d="M562 320L562 319L560 319L560 320L562 320ZM560.293 344.707C560.683 345.098 561.317 345.098 561.707 344.707L568.071 338.343C568.462 337.953 568.462 337.319 568.071 336.929C567.681 336.538 567.047 336.538 566.657 336.929L561 342.586L555.343 336.929C554.953 336.538 554.319 336.538 553.929 336.929C553.538 337.319 553.538 337.953 553.929 338.343L560.293 344.707ZM560 320L560 344L562 344L562 320L560 320Z" fill="#B4A3F9"/>
<path d="M593.707 319.293C593.317 318.902 592.683 318.902 592.293 319.293L585.929 325.657C585.538 326.047 585.538 326.681 585.929 327.071C586.319 327.462 586.953 327.462 587.343 327.071L593 321.414L598.657 327.071C599.047 327.462 599.681 327.462 600.071 327.071C600.462 326.681 600.462 326.047 600.071 325.657L593.707 319.293ZM592 344L592 345L594 345L594 344L592 344ZM592 320L592 344L594 344L594 320L592 320Z" fill="#B4A3F9"/>
<rect x="468" y="158" width="220" height="154" rx="19" fill="#382193" stroke="#5933F2" stroke-width="6"/>
<rect x="519" y="261" width="42" height="28" rx="14" fill="#CDC2FB"/>
<path d="M530.416 269.948H531.97L535.12 280H533.762L532.95 277.354H529.408L528.596 280H527.28L530.416 269.948ZM531.172 271.558L529.758 276.178H532.586L531.172 271.558ZM537.677 275.786V280H536.333V269.948H539.973C542.101 269.948 543.445 270.942 543.445 272.86C543.445 274.75 542.101 275.786 539.973 275.786H537.677ZM537.677 274.624H539.889C541.331 274.624 542.129 273.994 542.129 272.86C542.129 271.726 541.331 271.11 539.889 271.11H537.677V274.624ZM551.503 278.824V280H544.475V278.824H547.317V271.124H544.475V269.948H551.503V271.124H548.661V278.824H551.503Z" fill="black"/>
<rect x="569" y="261" width="67" height="28" rx="14" fill="#CDC2FB"/>
<path d="M580.71 269.948H581.732L582.978 277.48L584.07 269.948H585.26L583.664 280H582.53L581.2 272.202L579.87 280H578.736L577.14 269.948H578.358L579.45 277.48L580.71 269.948ZM589.777 280.154C587.677 280.154 586.249 278.6 586.249 276.346C586.249 274.162 587.677 272.538 589.721 272.538C591.821 272.538 592.927 274.092 592.927 276.122V276.542H587.467C587.551 278.082 588.461 279.062 589.777 279.062C590.813 279.062 591.541 278.53 591.779 277.662L592.871 278.054C592.409 279.356 591.275 280.154 589.777 280.154ZM589.721 273.616C588.587 273.616 587.775 274.33 587.537 275.576H591.653C591.625 274.54 591.037 273.616 589.721 273.616ZM598.381 280.154C597.387 280.154 596.645 279.664 596.225 278.922V280H594.965V269.948H596.225V273.756C596.645 273.028 597.387 272.538 598.381 272.538C600.341 272.538 601.447 274.274 601.447 276.346C601.447 278.404 600.341 280.154 598.381 280.154ZM596.197 276.108V276.612C596.197 278.292 597.191 279.048 598.129 279.048C599.445 279.048 600.173 277.928 600.173 276.346C600.173 274.764 599.445 273.644 598.129 273.644C597.191 273.644 596.197 274.372 596.197 276.108ZM614.778 280.14C612.706 280.14 611.404 278.88 611.404 276.192V269.948H612.748V276.136C612.748 278.096 613.49 278.908 614.778 278.908C616.066 278.908 616.808 278.096 616.808 276.136V269.948H618.152V276.192C618.152 278.88 616.85 280.14 614.778 280.14ZM626.687 278.824V280H619.659V278.824H622.501V271.124H619.659V269.948H626.687V271.124H623.845V278.824H626.687Z" fill="black"/>
<rect x="510" y="221" width="134" height="28" rx="14" fill="#CDC2FB"/>
<path d="M522.606 240H521.794L519.96 231.866V240H518.798V229.948H520.604L522.214 237.186L523.838 229.948H525.602V240H524.44V231.866L522.606 240ZM530.777 240.154C528.677 240.154 527.249 238.6 527.249 236.346C527.249 234.162 528.677 232.538 530.721 232.538C532.821 232.538 533.927 234.092 533.927 236.122V236.542H528.467C528.551 238.082 529.461 239.062 530.777 239.062C531.813 239.062 532.541 238.53 532.779 237.662L533.871 238.054C533.409 239.356 532.275 240.154 530.777 240.154ZM530.721 233.616C529.587 233.616 528.775 234.33 528.537 235.576H532.653C532.625 234.54 532.037 233.616 530.721 233.616ZM537.491 237.648V233.756H535.335V232.678H537.491V230.536H538.723V232.678H542.097V233.756H538.723V237.55C538.723 238.544 539.311 238.95 540.473 238.95C541.047 238.95 541.621 238.852 542.139 238.698V239.832C541.649 239.972 540.949 240.084 540.277 240.084C538.751 240.084 537.491 239.44 537.491 237.648ZM546.46 240.126C545.102 240.126 543.996 239.342 543.996 238.026C543.996 236.57 545.186 235.954 546.81 235.646L548.77 235.268V234.96C548.77 234.12 548.252 233.63 547.216 233.63C546.278 233.63 545.662 234.092 545.41 234.904L544.234 234.596C544.612 233.392 545.704 232.538 547.272 232.538C548.966 232.538 550.002 233.336 550.002 234.904V238.432C550.002 238.992 550.38 239.104 550.898 238.992V240C549.722 240.14 549.022 239.916 548.84 239.146C548.364 239.72 547.51 240.126 546.46 240.126ZM548.77 237.466V236.248L547.132 236.556C546.054 236.766 545.27 237.088 545.27 237.97C545.27 238.684 545.802 239.104 546.642 239.104C547.762 239.104 548.77 238.404 548.77 237.466ZM555.386 240.154C553.426 240.154 552.32 238.404 552.32 236.346C552.32 234.274 553.426 232.538 555.386 232.538C556.38 232.538 557.122 233.028 557.542 233.756V229.948H558.802V240H557.542V238.922C557.122 239.664 556.38 240.154 555.386 240.154ZM557.57 236.108C557.57 234.372 556.576 233.644 555.638 233.644C554.322 233.644 553.594 234.764 553.594 236.346C553.594 237.928 554.322 239.048 555.638 239.048C556.576 239.048 557.57 238.292 557.57 236.612V236.108ZM563.249 240.126C561.891 240.126 560.785 239.342 560.785 238.026C560.785 236.57 561.975 235.954 563.599 235.646L565.559 235.268V234.96C565.559 234.12 565.041 233.63 564.005 233.63C563.067 233.63 562.451 234.092 562.199 234.904L561.023 234.596C561.401 233.392 562.493 232.538 564.061 232.538C565.755 232.538 566.791 233.336 566.791 234.904V238.432C566.791 238.992 567.169 239.104 567.687 238.992V240C566.511 240.14 565.811 239.916 565.629 239.146C565.153 239.72 564.299 240.126 563.249 240.126ZM565.559 237.466V236.248L563.921 236.556C562.843 236.766 562.059 237.088 562.059 237.97C562.059 238.684 562.591 239.104 563.431 239.104C564.551 239.104 565.559 238.404 565.559 237.466ZM571.069 237.648V233.756H568.913V232.678H571.069V230.536H572.301V232.678H575.675V233.756H572.301V237.55C572.301 238.544 572.889 238.95 574.051 238.95C574.625 238.95 575.199 238.852 575.717 238.698V239.832C575.227 239.972 574.527 240.084 573.855 240.084C572.329 240.084 571.069 239.44 571.069 237.648ZM580.038 240.126C578.68 240.126 577.574 239.342 577.574 238.026C577.574 236.57 578.764 235.954 580.388 235.646L582.348 235.268V234.96C582.348 234.12 581.83 233.63 580.794 233.63C579.856 233.63 579.24 234.092 578.988 234.904L577.812 234.596C578.19 233.392 579.282 232.538 580.85 232.538C582.544 232.538 583.58 233.336 583.58 234.904V238.432C583.58 238.992 583.958 239.104 584.476 238.992V240C583.3 240.14 582.6 239.916 582.418 239.146C581.942 239.72 581.088 240.126 580.038 240.126ZM582.348 237.466V236.248L580.71 236.556C579.632 236.766 578.848 237.088 578.848 237.97C578.848 238.684 579.38 239.104 580.22 239.104C581.34 239.104 582.348 238.404 582.348 237.466ZM593.691 237.942L594.741 237.088C595.371 238.292 596.519 239.006 597.821 239.006C599.123 239.006 600.117 238.348 600.117 237.2C600.117 235.982 598.969 235.772 597.429 235.394C595.861 235.016 594.279 234.596 594.279 232.706C594.279 230.942 595.819 229.794 597.723 229.794C599.473 229.794 600.719 230.606 601.335 231.754L600.313 232.552C599.809 231.586 598.997 230.928 597.681 230.928C596.477 230.928 595.581 231.6 595.581 232.594C595.581 233.658 596.533 233.882 597.947 234.218C599.599 234.61 601.433 234.96 601.433 237.088C601.433 238.964 599.767 240.154 597.779 240.154C596.043 240.154 594.377 239.3 593.691 237.942ZM604.647 237.648V233.756H602.491V232.678H604.647V230.536H605.879V232.678H609.253V233.756H605.879V237.55C605.879 238.544 606.467 238.95 607.629 238.95C608.203 238.95 608.777 238.852 609.295 238.698V239.832C608.805 239.972 608.105 240.084 607.433 240.084C605.907 240.084 604.647 239.44 604.647 237.648ZM617.942 236.346C617.942 238.614 616.542 240.154 614.54 240.154C612.538 240.154 611.138 238.614 611.138 236.346C611.138 234.078 612.538 232.538 614.54 232.538C616.542 232.538 617.942 234.078 617.942 236.346ZM612.412 236.346C612.412 238.012 613.252 239.076 614.54 239.076C615.828 239.076 616.668 238.012 616.668 236.346C616.668 234.666 615.828 233.602 614.54 233.602C613.252 233.602 612.412 234.666 612.412 236.346ZM619.574 240V238.922H621.632V233.756H619.574V232.678H622.878V234.022C623.326 233.168 624.292 232.538 625.524 232.538C626.014 232.538 626.406 232.608 626.658 232.72V233.966C626.322 233.854 625.93 233.77 625.398 233.77C624.096 233.77 622.878 234.652 622.878 235.996V238.922H625.65V240H619.574ZM631.511 240.154C629.411 240.154 627.983 238.6 627.983 236.346C627.983 234.162 629.411 232.538 631.455 232.538C633.555 232.538 634.661 234.092 634.661 236.122V236.542H629.201C629.285 238.082 630.195 239.062 631.511 239.062C632.547 239.062 633.275 238.53 633.513 237.662L634.605 238.054C634.143 239.356 633.009 240.154 631.511 240.154ZM631.455 233.616C630.321 233.616 629.509 234.33 629.271 235.576H633.387C633.359 234.54 632.771 233.616 631.455 233.616Z" fill="black"/>
<rect x="454" y="356" width="247" height="56" rx="28" fill="#382193"/>
<g clip-path="url(#clip0_2415_16114)">
<path d="M500 388C502.206 388 504 386.206 504 384C504 381.794 502.206 380 500 380C498.142 380 496.589 381.28 496.142 383H492.414L497.981 377.433C498.576 377.785 499.26 378 500 378C502.206 378 504 376.206 504 374C504 371.794 502.206 370 500 370C498.142 370 496.589 371.28 496.142 373H483.858C483.411 371.28 481.858 370 480 370C477.794 370 476 371.794 476 374C476 376.206 477.794 378 480 378C480.74 378 481.424 377.785 482.019 377.433L487.586 383H483.858C483.411 381.28 481.858 380 480 380C477.794 380 476 381.794 476 384C476 386.206 477.794 388 480 388C481.858 388 483.411 386.72 483.858 385H487.586L482.019 390.567C481.424 390.215 480.74 390 480 390C477.794 390 476 391.794 476 394C476 396.206 477.794 398 480 398C481.858 398 483.411 396.72 483.858 395H496.142C496.589 396.72 498.142 398 500 398C502.206 398 504 396.206 504 394C504 391.794 502.206 390 500 390C499.26 390 498.576 390.215 497.981 390.567L492.414 385H496.142C496.589 386.72 498.142 388 500 388ZM500 382C501.103 382 502 382.898 502 384C502 385.102 501.103 386 500 386C498.897 386 498 385.102 498 384C498 382.898 498.897 382 500 382ZM500 372C501.103 372 502 372.898 502 374C502 375.102 501.103 376 500 376C498.897 376 498 375.102 498 374C498 372.898 498.897 372 500 372ZM480 376C478.897 376 478 375.102 478 374C478 372.898 478.897 372 480 372C481.103 372 482 372.898 482 374C482 375.102 481.103 376 480 376ZM480 386C478.897 386 478 385.102 478 384C478 382.898 478.897 382 480 382C481.103 382 482 382.898 482 384C482 385.102 481.103 386 480 386ZM480 396C478.897 396 478 395.103 478 394C478 392.897 478.897 392 480 392C481.103 392 482 392.897 482 394C482 395.103 481.103 396 480 396ZM500 392C501.103 392 502 392.897 502 394C502 395.103 501.103 396 500 396C498.897 396 498 395.103 498 394C498 392.897 498.897 392 500 392ZM496.567 391.981C496.38 392.296 496.236 392.637 496.142 393H483.858C483.764 392.637 483.62 392.296 483.433 391.981L490 385.414L496.567 391.981ZM490 382.586L483.433 376.019C483.62 375.704 483.764 375.361 483.862 375H496.138C496.236 375.361 496.38 375.704 496.567 376.019L490 382.586Z" fill="#DED6FC"/>
</g>
<path d="M527.264 390H526.336L524.24 380.704V390H522.912V378.512H524.976L526.816 386.784L528.672 378.512H530.688V390H529.36V380.704L527.264 390ZM533.466 390V378.512H535.002V388.656H540.73V390H533.466ZM552.813 390V378.512H555.261C558.733 378.512 560.749 380.752 560.749 384.256C560.749 387.76 558.733 390 555.261 390H552.813ZM554.317 388.672H555.261C557.917 388.672 559.229 386.928 559.229 384.256C559.229 381.568 557.917 379.84 555.245 379.84H554.317V388.672ZM565.399 390.144C563.847 390.144 562.583 389.248 562.583 387.744C562.583 386.08 563.943 385.376 565.799 385.024L568.039 384.592V384.24C568.039 383.28 567.447 382.72 566.263 382.72C565.191 382.72 564.487 383.248 564.199 384.176L562.855 383.824C563.287 382.448 564.535 381.472 566.327 381.472C568.263 381.472 569.447 382.384 569.447 384.176V388.208C569.447 388.848 569.879 388.976 570.471 388.848V390C569.127 390.16 568.327 389.904 568.119 389.024C567.575 389.68 566.599 390.144 565.399 390.144ZM568.039 387.104V385.712L566.167 386.064C564.935 386.304 564.039 386.672 564.039 387.68C564.039 388.496 564.647 388.976 565.607 388.976C566.887 388.976 568.039 388.176 568.039 387.104ZM574.657 387.312V382.864H572.193V381.632H574.657V379.184H576.065V381.632H579.921V382.864H576.065V387.2C576.065 388.336 576.737 388.8 578.065 388.8C578.721 388.8 579.377 388.688 579.969 388.512V389.808C579.409 389.968 578.609 390.096 577.841 390.096C576.097 390.096 574.657 389.36 574.657 387.312ZM585.226 390.144C583.674 390.144 582.41 389.248 582.41 387.744C582.41 386.08 583.77 385.376 585.626 385.024L587.866 384.592V384.24C587.866 383.28 587.274 382.72 586.09 382.72C585.018 382.72 584.314 383.248 584.026 384.176L582.682 383.824C583.114 382.448 584.362 381.472 586.154 381.472C588.09 381.472 589.274 382.384 589.274 384.176V388.208C589.274 388.848 589.706 388.976 590.298 388.848V390C588.954 390.16 588.154 389.904 587.946 389.024C587.402 389.68 586.426 390.144 585.226 390.144ZM587.866 387.104V385.712L585.994 386.064C584.762 386.304 583.866 386.672 583.866 387.68C583.866 388.496 584.474 388.976 585.434 388.976C586.714 388.976 587.866 388.176 587.866 387.104ZM605.214 378.512H606.99L610.59 390H609.038L608.11 386.976H604.062L603.134 390H601.63L605.214 378.512ZM606.078 380.352L604.462 385.632H607.694L606.078 380.352ZM612.712 390V381.632H614.152V382.768C614.616 382.08 615.464 381.472 616.648 381.472C618.424 381.472 619.432 382.704 619.432 384.48V390H617.992V384.864C617.992 383.696 617.496 382.816 616.248 382.816C615.208 382.816 614.152 383.616 614.152 385.008V390H612.712ZM624.881 390.144C623.329 390.144 622.065 389.248 622.065 387.744C622.065 386.08 623.425 385.376 625.281 385.024L627.521 384.592V384.24C627.521 383.28 626.929 382.72 625.745 382.72C624.673 382.72 623.969 383.248 623.681 384.176L622.337 383.824C622.769 382.448 624.017 381.472 625.809 381.472C627.745 381.472 628.929 382.384 628.929 384.176V388.208C628.929 388.848 629.361 388.976 629.953 388.848V390C628.609 390.16 627.809 389.904 627.601 389.024C627.057 389.68 626.081 390.144 624.881 390.144ZM627.521 387.104V385.712L625.649 386.064C624.417 386.304 623.521 386.672 623.521 387.68C623.521 388.496 624.129 388.976 625.089 388.976C626.369 388.976 627.521 388.176 627.521 387.104ZM632.347 390V388.768H635.435V379.744H632.347V378.512H636.875V388.768H639.963V390H632.347ZM645.973 390.912C645.461 392.16 644.805 392.976 643.317 392.976C642.949 392.976 642.789 392.96 642.533 392.912V391.664C642.805 391.728 642.965 391.744 643.221 391.744C643.861 391.744 644.245 391.52 644.613 390.688L645.029 389.728L641.589 381.632H643.109L645.781 388.064L648.421 381.632H649.925L645.973 390.912ZM651.711 388.176L652.895 387.392C653.391 388.368 654.559 388.976 655.823 388.976C656.911 388.976 657.871 388.528 657.871 387.68C657.871 386.736 656.975 386.608 655.359 386.32C653.839 386.032 652.239 385.712 652.239 384C652.239 382.512 653.679 381.472 655.647 381.472C657.343 381.472 658.639 382.24 659.183 383.232L658.079 384.016C657.615 383.168 656.735 382.656 655.519 382.656C654.415 382.656 653.663 383.136 653.663 383.888C653.663 384.672 654.591 384.832 655.887 385.088C657.487 385.424 659.327 385.696 659.327 387.52C659.327 389.12 657.727 390.176 655.743 390.176C654.047 390.176 652.415 389.472 651.711 388.176ZM665.112 380.176V378.512H666.68V380.176H665.112ZM662.088 390V388.768H665.176V382.864H662.088V381.632H666.616V388.768H669.704V390H662.088ZM671.538 388.176L672.722 387.392C673.218 388.368 674.386 388.976 675.65 388.976C676.738 388.976 677.698 388.528 677.698 387.68C677.698 386.736 676.802 386.608 675.186 386.32C673.666 386.032 672.066 385.712 672.066 384C672.066 382.512 673.506 381.472 675.474 381.472C677.17 381.472 678.466 382.24 679.01 383.232L677.906 384.016C677.442 383.168 676.562 382.656 675.346 382.656C674.242 382.656 673.49 383.136 673.49 383.888C673.49 384.672 674.418 384.832 675.714 385.088C677.314 385.424 679.154 385.696 679.154 387.52C679.154 389.12 677.554 390.176 675.57 390.176C673.874 390.176 672.242 389.472 671.538 388.176Z" fill="#DED6FC"/>
<g clip-path="url(#clip1_2415_16114)">
<path d="M590.898 101.193L586.424 98.5604C586.298 98.4863 586.143 98.4863 586.017 98.5603L579.992 102.102V95.0202C579.992 94.8721 579.915 94.7353 579.789 94.6613L575.313 92.0281C575.177 91.9483 575.008 92.048 575.008 92.2075V102.102L568.985 98.5603C568.859 98.4862 568.704 98.4862 568.578 98.5603L564.102 101.194C563.966 101.273 563.966 101.473 564.102 101.552L572.515 106.5L564.102 111.447C563.966 111.527 563.966 111.727 564.102 111.806L568.576 114.439C568.702 114.514 568.857 114.514 568.983 114.44L575.008 110.897V117.982C575.008 118.13 575.085 118.267 575.211 118.341L579.687 120.972C579.823 121.052 579.992 120.952 579.992 120.792V110.897L586.015 114.44C586.141 114.514 586.296 114.514 586.422 114.44L590.898 111.806C591.034 111.727 591.034 111.527 590.898 111.447L582.485 106.5L590.898 101.552C591.034 101.473 591.034 101.273 590.898 101.193ZM580.298 108.145L577.5 109.791L574.702 108.145V104.855L577.5 103.209L580.298 104.855V108.145Z" fill="white"/>
</g>
<path d="M504.072 143V131.512H506.52C509.992 131.512 512.008 133.752 512.008 137.256C512.008 140.76 509.992 143 506.52 143H504.072ZM505.576 141.672H506.52C509.176 141.672 510.488 139.928 510.488 137.256C510.488 134.568 509.176 132.84 506.504 132.84H505.576V141.672ZM516.658 143.144C515.106 143.144 513.842 142.248 513.842 140.744C513.842 139.08 515.202 138.376 517.058 138.024L519.298 137.592V137.24C519.298 136.28 518.706 135.72 517.522 135.72C516.45 135.72 515.746 136.248 515.458 137.176L514.114 136.824C514.546 135.448 515.794 134.472 517.586 134.472C519.522 134.472 520.706 135.384 520.706 137.176V141.208C520.706 141.848 521.138 141.976 521.73 141.848V143C520.386 143.16 519.586 142.904 519.378 142.024C518.834 142.68 517.858 143.144 516.658 143.144ZM519.298 140.104V138.712L517.426 139.064C516.194 139.304 515.298 139.672 515.298 140.68C515.298 141.496 515.906 141.976 516.866 141.976C518.146 141.976 519.298 141.176 519.298 140.104ZM525.915 140.312V135.864H523.451V134.632H525.915V132.184H527.323V134.632H531.179V135.864H527.323V140.2C527.323 141.336 527.995 141.8 529.323 141.8C529.979 141.8 530.635 141.688 531.227 141.512V142.808C530.667 142.968 529.867 143.096 529.099 143.096C527.355 143.096 525.915 142.36 525.915 140.312ZM536.485 143.144C534.933 143.144 533.669 142.248 533.669 140.744C533.669 139.08 535.029 138.376 536.885 138.024L539.125 137.592V137.24C539.125 136.28 538.533 135.72 537.349 135.72C536.277 135.72 535.573 136.248 535.285 137.176L533.941 136.824C534.373 135.448 535.621 134.472 537.413 134.472C539.349 134.472 540.533 135.384 540.533 137.176V141.208C540.533 141.848 540.965 141.976 541.557 141.848V143C540.213 143.16 539.413 142.904 539.205 142.024C538.661 142.68 537.685 143.144 536.485 143.144ZM539.125 140.104V138.712L537.253 139.064C536.021 139.304 535.125 139.672 535.125 140.68C535.125 141.496 535.733 141.976 536.693 141.976C537.973 141.976 539.125 141.176 539.125 140.104ZM557.833 143H556.905L554.809 133.704V143H553.481V131.512H555.545L557.385 139.784L559.241 131.512H561.257V143H559.929V133.704L557.833 143ZM566.226 143.144C564.674 143.144 563.41 142.248 563.41 140.744C563.41 139.08 564.77 138.376 566.626 138.024L568.866 137.592V137.24C568.866 136.28 568.274 135.72 567.09 135.72C566.018 135.72 565.314 136.248 565.026 137.176L563.682 136.824C564.114 135.448 565.362 134.472 567.154 134.472C569.09 134.472 570.274 135.384 570.274 137.176V141.208C570.274 141.848 570.706 141.976 571.298 141.848V143C569.954 143.16 569.154 142.904 568.946 142.024C568.402 142.68 567.426 143.144 566.226 143.144ZM568.866 140.104V138.712L566.994 139.064C565.762 139.304 564.866 139.672 564.866 140.68C564.866 141.496 565.474 141.976 566.434 141.976C567.714 141.976 568.866 141.176 568.866 140.104ZM573.884 143V134.632H575.324V135.768C575.788 135.08 576.636 134.472 577.82 134.472C579.596 134.472 580.604 135.704 580.604 137.48V143H579.164V137.864C579.164 136.696 578.668 135.816 577.42 135.816C576.38 135.816 575.324 136.616 575.324 138.008V143H573.884ZM586.054 143.144C584.502 143.144 583.238 142.248 583.238 140.744C583.238 139.08 584.598 138.376 586.454 138.024L588.694 137.592V137.24C588.694 136.28 588.102 135.72 586.918 135.72C585.846 135.72 585.142 136.248 584.854 137.176L583.51 136.824C583.942 135.448 585.19 134.472 586.982 134.472C588.918 134.472 590.102 135.384 590.102 137.176V141.208C590.102 141.848 590.534 141.976 591.126 141.848V143C589.782 143.16 588.982 142.904 588.774 142.024C588.23 142.68 587.254 143.144 586.054 143.144ZM588.694 140.104V138.712L586.822 139.064C585.59 139.304 584.694 139.672 584.694 140.68C584.694 141.496 585.302 141.976 586.262 141.976C587.542 141.976 588.694 141.176 588.694 140.104ZM600.48 142.248C600.48 144.696 598.88 146.056 596.592 146.056C594.768 146.056 593.424 145.208 592.96 143.672L594.304 143.16C594.592 144.232 595.44 144.856 596.592 144.856C598.08 144.856 599.04 144.104 599.04 142.36V141.416C598.592 142.232 597.696 142.808 596.528 142.808C594.288 142.808 592.992 140.92 592.992 138.632C592.992 136.36 594.288 134.472 596.528 134.472C597.696 134.472 598.592 135.048 599.04 135.864V134.632H600.48V142.248ZM599.056 138.504C599.056 136.632 597.952 135.736 596.816 135.736C595.296 135.736 594.448 136.872 594.448 138.632C594.448 140.392 595.296 141.544 596.816 141.544C597.952 141.544 599.056 140.648 599.056 138.808V138.504ZM607.145 143.176C604.745 143.176 603.113 141.4 603.113 138.824C603.113 136.328 604.745 134.472 607.081 134.472C609.481 134.472 610.745 136.248 610.745 138.568V139.048H604.505C604.601 140.808 605.641 141.928 607.145 141.928C608.329 141.928 609.161 141.32 609.433 140.328L610.681 140.776C610.153 142.264 608.857 143.176 607.145 143.176ZM607.081 135.704C605.785 135.704 604.857 136.52 604.585 137.944H609.289C609.257 136.76 608.585 135.704 607.081 135.704ZM614.211 137.368V143H612.899V134.616H614.211V135.528C614.483 134.968 614.995 134.472 615.763 134.472C616.515 134.472 617.027 134.92 617.315 135.624C617.571 135.064 618.211 134.472 619.043 134.472C620.227 134.472 620.867 135.464 620.867 136.856V143H619.539V137.272C619.539 136.424 619.379 135.8 618.643 135.8C618.003 135.8 617.539 136.392 617.539 137.368V143H616.211V137.272C616.211 136.424 616.035 135.8 615.299 135.8C614.643 135.8 614.211 136.392 614.211 137.368ZM626.973 143.176C624.573 143.176 622.941 141.4 622.941 138.824C622.941 136.328 624.573 134.472 626.909 134.472C629.309 134.472 630.573 136.248 630.573 138.568V139.048H624.333C624.429 140.808 625.469 141.928 626.973 141.928C628.157 141.928 628.989 141.32 629.261 140.328L630.509 140.776C629.981 142.264 628.685 143.176 626.973 143.176ZM626.909 135.704C625.613 135.704 624.685 136.52 624.413 137.944H629.117C629.085 136.76 628.413 135.704 626.909 135.704ZM633.367 143V134.632H634.807V135.768C635.271 135.08 636.119 134.472 637.303 134.472C639.079 134.472 640.087 135.704 640.087 137.48V143H638.647V137.864C638.647 136.696 638.151 135.816 636.903 135.816C635.863 135.816 634.807 136.616 634.807 138.008V143H633.367ZM644.88 140.312V135.864H642.416V134.632H644.88V132.184H646.288V134.632H650.144V135.864H646.288V140.2C646.288 141.336 646.96 141.8 648.288 141.8C648.944 141.8 649.6 141.688 650.192 141.512V142.808C649.632 142.968 648.832 143.096 648.064 143.096C646.32 143.096 644.88 142.36 644.88 140.312Z" fill="#DED6FC"/>
<g clip-path="url(#clip2_2415_16114)">
<path d="M831.898 117.193L827.424 114.56C827.298 114.486 827.143 114.486 827.017 114.56L820.992 118.102V111.02C820.992 110.872 820.915 110.735 820.789 110.661L816.313 108.028C816.177 107.948 816.008 108.048 816.008 108.208V118.102L809.985 114.56C809.859 114.486 809.704 114.486 809.578 114.56L805.102 117.194C804.966 117.273 804.966 117.473 805.102 117.552L813.515 122.5L805.102 127.447C804.966 127.527 804.966 127.727 805.102 127.806L809.576 130.439C809.702 130.514 809.857 130.514 809.983 130.44L816.008 126.897V133.982C816.008 134.13 816.085 134.267 816.211 134.341L820.687 136.972C820.823 137.052 820.992 136.952 820.992 136.792V126.897L827.015 130.44C827.141 130.514 827.296 130.514 827.422 130.44L831.898 127.806C832.034 127.727 832.034 127.527 831.898 127.447L823.485 122.5L831.898 117.552C832.034 117.473 832.034 117.273 831.898 117.193ZM821.298 124.145L818.5 125.791L815.702 124.145V120.855L818.5 119.209L821.298 120.855V124.145Z" fill="white"/>
</g>
<path d="M767.904 147.512H769.68L773.28 159H771.728L770.8 155.976H766.752L765.824 159H764.32L767.904 147.512ZM768.768 149.352L767.152 154.632H770.384L768.768 149.352ZM779.162 159.176C778.026 159.176 777.178 158.616 776.698 157.768V161.88H775.258V150.632H776.698V151.864C777.178 151.032 778.026 150.472 779.162 150.472C781.402 150.472 782.666 152.456 782.666 154.824C782.666 157.176 781.402 159.176 779.162 159.176ZM776.666 154.552V155.128C776.666 157.048 777.802 157.912 778.874 157.912C780.378 157.912 781.21 156.632 781.21 154.824C781.21 153.016 780.378 151.736 778.874 151.736C777.802 151.736 776.666 152.568 776.666 154.552ZM789.075 159.176C787.939 159.176 787.091 158.616 786.611 157.768V161.88H785.171V150.632H786.611V151.864C787.091 151.032 787.939 150.472 789.075 150.472C791.315 150.472 792.58 152.456 792.58 154.824C792.58 157.176 791.315 159.176 789.075 159.176ZM786.579 154.552V155.128C786.579 157.048 787.715 157.912 788.787 157.912C790.291 157.912 791.123 156.632 791.123 154.824C791.123 153.016 790.291 151.736 788.787 151.736C787.715 151.736 786.579 152.568 786.579 154.552ZM795.037 159V157.768H798.125V148.744H795.037V147.512H799.565V157.768H802.653V159H795.037ZM807.975 149.176V147.512H809.543V149.176H807.975ZM804.951 159V157.768H808.039V151.864H804.951V150.632H809.479V157.768H812.567V159H804.951ZM816.017 154.824C816.017 156.728 817.121 157.912 818.753 157.912C820.033 157.912 820.801 157.176 821.073 156.136L822.289 156.728C821.873 158.12 820.593 159.176 818.737 159.176C816.337 159.176 814.609 157.4 814.609 154.824C814.609 152.232 816.337 150.472 818.737 150.472C820.577 150.472 821.841 151.48 822.273 152.872L821.073 153.496C820.801 152.472 820.033 151.72 818.753 151.72C817.121 151.72 816.017 152.904 816.017 154.824ZM827.226 159.144C825.674 159.144 824.41 158.248 824.41 156.744C824.41 155.08 825.77 154.376 827.626 154.024L829.866 153.592V153.24C829.866 152.28 829.274 151.72 828.09 151.72C827.018 151.72 826.314 152.248 826.026 153.176L824.682 152.824C825.114 151.448 826.362 150.472 828.154 150.472C830.09 150.472 831.274 151.384 831.274 153.176V157.208C831.274 157.848 831.706 157.976 832.298 157.848V159C830.954 159.16 830.154 158.904 829.946 158.024C829.402 158.68 828.426 159.144 827.226 159.144ZM829.866 156.104V154.712L827.994 155.064C826.762 155.304 825.866 155.672 825.866 156.68C825.866 157.496 826.474 157.976 827.434 157.976C828.714 157.976 829.866 157.176 829.866 156.104ZM836.484 156.312V151.864H834.02V150.632H836.484V148.184H837.892V150.632H841.748V151.864H837.892V156.2C837.892 157.336 838.564 157.8 839.892 157.8C840.548 157.8 841.204 157.688 841.796 157.512V158.808C841.236 158.968 840.436 159.096 839.668 159.096C837.924 159.096 836.484 158.36 836.484 156.312ZM847.63 149.176V147.512H849.198V149.176H847.63ZM844.606 159V157.768H847.694V151.864H844.606V150.632H849.134V157.768H852.222V159H844.606ZM861.912 154.824C861.912 157.416 860.312 159.176 858.024 159.176C855.736 159.176 854.136 157.416 854.136 154.824C854.136 152.232 855.736 150.472 858.024 150.472C860.312 150.472 861.912 152.232 861.912 154.824ZM855.592 154.824C855.592 156.728 856.552 157.944 858.024 157.944C859.496 157.944 860.456 156.728 860.456 154.824C860.456 152.904 859.496 151.688 858.024 151.688C856.552 151.688 855.592 152.904 855.592 154.824ZM864.625 159V150.632H866.065V151.768C866.529 151.08 867.377 150.472 868.561 150.472C870.337 150.472 871.345 151.704 871.345 153.48V159H869.905V153.864C869.905 152.696 869.409 151.816 868.161 151.816C867.121 151.816 866.065 152.616 866.065 154.008V159H864.625Z" fill="#DED6FC"/>
<g clip-path="url(#clip3_2415_16114)">
<path d="M388.398 219.193L383.924 216.56C383.798 216.486 383.643 216.486 383.517 216.56L377.492 220.102V213.02C377.492 212.872 377.415 212.735 377.289 212.661L372.813 210.028C372.677 209.948 372.508 210.048 372.508 210.208V220.102L366.485 216.56C366.359 216.486 366.204 216.486 366.078 216.56L361.602 219.194C361.466 219.273 361.466 219.473 361.602 219.552L370.015 224.5L361.602 229.447C361.466 229.527 361.466 229.727 361.602 229.806L366.076 232.439C366.202 232.514 366.357 232.514 366.483 232.44L372.508 228.897V235.982C372.508 236.13 372.585 236.267 372.711 236.341L377.187 238.972C377.323 239.052 377.492 238.952 377.492 238.792V228.897L383.515 232.44C383.641 232.514 383.796 232.514 383.922 232.44L388.398 229.806C388.534 229.727 388.534 229.527 388.398 229.447L379.985 224.5L388.398 219.552C388.534 219.473 388.534 219.273 388.398 219.193ZM377.798 226.145L375 227.791L372.202 226.145V222.855L375 221.209L377.798 222.855V226.145Z" fill="white"/>
</g>
<path d="M353.904 249.512H355.68L359.28 261H357.728L356.8 257.976H352.752L351.824 261H350.32L353.904 249.512ZM354.768 251.352L353.152 256.632H356.384L354.768 251.352ZM368.17 260.248C368.17 262.696 366.57 264.056 364.282 264.056C362.458 264.056 361.114 263.208 360.65 261.672L361.994 261.16C362.282 262.232 363.13 262.856 364.282 262.856C365.77 262.856 366.73 262.104 366.73 260.36V259.416C366.282 260.232 365.386 260.808 364.218 260.808C361.978 260.808 360.682 258.92 360.682 256.632C360.682 254.36 361.978 252.472 364.218 252.472C365.386 252.472 366.282 253.048 366.73 253.864V252.632H368.17V260.248ZM366.746 256.504C366.746 254.632 365.642 253.736 364.506 253.736C362.986 253.736 362.138 254.872 362.138 256.632C362.138 258.392 362.986 259.544 364.506 259.544C365.642 259.544 366.746 258.648 366.746 256.808V256.504ZM374.835 261.176C372.435 261.176 370.803 259.4 370.803 256.824C370.803 254.328 372.435 252.472 374.771 252.472C377.171 252.472 378.436 254.248 378.436 256.568V257.048H372.195C372.291 258.808 373.331 259.928 374.835 259.928C376.019 259.928 376.851 259.32 377.123 258.328L378.372 258.776C377.844 260.264 376.547 261.176 374.835 261.176ZM374.771 253.704C373.475 253.704 372.547 254.52 372.275 255.944H376.979C376.947 254.76 376.275 253.704 374.771 253.704ZM381.229 261V252.632H382.669V253.768C383.133 253.08 383.981 252.472 385.165 252.472C386.941 252.472 387.949 253.704 387.949 255.48V261H386.509V255.864C386.509 254.696 386.013 253.816 384.765 253.816C383.725 253.816 382.669 254.616 382.669 256.008V261H381.229ZM392.743 258.312V253.864H390.279V252.632H392.743V250.184H394.151V252.632H398.007V253.864H394.151V258.2C394.151 259.336 394.823 259.8 396.151 259.8C396.807 259.8 397.463 259.688 398.055 259.512V260.808C397.495 260.968 396.695 261.096 395.927 261.096C394.183 261.096 392.743 260.36 392.743 258.312Z" fill="#DED6FC"/>
<g clip-path="url(#clip4_2415_16114)">
<path d="M577.002 182.75C577.636 182.75 578.268 182.813 578.89 182.938C580.853 183.314 582.659 184.27 584.074 185.682C585.489 187.095 586.448 188.899 586.827 190.863L587.152 192.55L588.84 192.85C590.544 193.143 592.075 194.068 593.128 195.44C594.181 196.812 594.678 198.53 594.521 200.252C594.363 201.975 593.562 203.574 592.277 204.732C590.993 205.89 589.319 206.521 587.59 206.5H566.377C564.648 206.521 562.974 205.89 561.689 204.732C560.405 203.574 559.604 201.975 559.446 200.252C559.288 198.53 559.785 196.812 560.838 195.44C561.891 194.068 563.423 193.143 565.127 192.85L566.802 192.55L567.127 190.863C567.568 188.57 568.796 186.505 570.6 185.023C572.403 183.541 574.668 182.737 577.002 182.75ZM577.002 180.25C574.093 180.248 571.274 181.26 569.031 183.113C566.788 184.966 565.262 187.543 564.715 190.4C562.412 190.817 560.349 192.079 558.931 193.939C557.512 195.8 556.84 198.123 557.046 200.453C557.253 202.784 558.324 204.953 560.048 206.534C561.772 208.115 564.025 208.995 566.365 209H587.615C589.954 208.995 592.207 208.115 593.931 206.534C595.655 204.953 596.726 202.784 596.933 200.453C597.139 198.123 596.467 195.8 595.049 193.939C593.63 192.079 591.567 190.817 589.265 190.4C588.794 187.942 587.596 185.682 585.827 183.913C584.057 182.143 581.797 180.946 579.34 180.475C578.569 180.329 577.786 180.253 577.002 180.25Z" fill="#CDC2FB"/>
</g>
<g clip-path="url(#clip5_2415_16114)">
<path d="M283.437 204.299C277.876 204.299 277.044 200.831 277.044 198.765V192.749C277.044 192.261 276.947 187.999 273.572 187.999C269.206 187.999 266.731 185.97 266.731 182.437C266.731 181.753 267.285 181.199 267.969 181.199C268.653 181.199 269.206 181.753 269.206 182.437C269.206 183.2 269.206 185.524 273.527 185.524C277.659 185.524 279.519 189.267 279.519 192.749V198.765C279.519 200.353 279.993 201.824 283.437 201.824C284.122 201.824 284.675 202.378 284.675 203.062C284.675 203.746 284.122 204.299 283.437 204.299ZM273.125 201.7C269.371 201.7 266.752 199.078 266.752 195.327V192.749C266.752 192.065 267.305 191.512 267.989 191.512C268.673 191.512 269.227 192.065 269.227 192.749V195.327C269.227 197.211 270.251 199.229 273.128 199.229C273.812 199.229 274.366 199.782 274.366 200.466C274.366 201.15 273.806 201.7 273.125 201.7ZM283.437 193.994C282.753 193.994 282.2 193.44 282.2 192.756V187.62C282.2 185.802 281.172 183.674 278.281 183.674C277.597 183.674 277.044 183.121 277.044 182.437C277.044 181.753 277.597 181.199 278.281 181.199C282.045 181.199 284.675 183.839 284.675 187.62V192.76C284.675 193.44 284.122 193.994 283.437 193.994ZM242.187 275.249C242.187 277.147 240.647 278.687 238.75 278.687C236.852 278.687 235.312 277.147 235.312 275.249C235.312 273.352 236.852 271.812 238.75 271.812C240.647 271.812 242.187 273.352 242.187 275.249ZM254.219 271.812C252.321 271.812 250.781 273.352 250.781 275.249C250.781 277.147 252.321 278.687 254.219 278.687C256.116 278.687 257.656 277.147 257.656 275.249C257.656 273.352 256.116 271.812 254.219 271.812ZM269.687 271.812C267.79 271.812 266.25 273.352 266.25 275.249C266.25 277.147 267.79 278.687 269.687 278.687C271.585 278.687 273.125 277.147 273.125 275.249C273.125 273.352 271.585 271.812 269.687 271.812ZM285.156 271.812C283.259 271.812 281.719 273.352 281.719 275.249C281.719 277.147 283.259 278.687 285.156 278.687C287.054 278.687 288.594 277.147 288.594 275.249C288.594 273.352 287.054 271.812 285.156 271.812ZM300.625 271.812C298.727 271.812 297.187 273.352 297.187 275.249C297.187 277.147 298.727 278.687 300.625 278.687C302.522 278.687 304.062 277.147 304.062 275.249C304.062 273.352 302.522 271.812 300.625 271.812ZM300.625 286.799H238.75C232.38 286.799 227.2 281.615 227.2 275.249C227.2 269.299 231.724 264.383 237.512 263.765V259.299H228.437C227.753 259.299 227.2 258.746 227.2 258.062V209.937C227.2 209.253 227.753 208.699 228.437 208.699H269.687C270.372 208.699 270.925 209.253 270.925 209.937V216.812C270.925 217.496 270.372 218.049 269.687 218.049H264.05V236.199H292.512V204.306L286.875 204.299V201.824L293.75 201.831C294.434 201.831 294.987 202.385 294.987 203.069V236.199C298.789 236.282 301.862 239.413 301.862 243.253V249.946H309.604C309.886 246.58 311.309 243.287 313.88 240.716C314.11 240.486 314.427 240.355 314.757 240.355H323.68C325.186 236.491 327.52 232.851 330.686 229.685L332.439 231.435C327.049 236.825 324.079 243.837 324.079 251.187C324.079 258.536 327.046 265.549 332.439 270.935L330.686 272.688C327.52 269.519 325.182 265.879 323.68 262.018H314.757C314.427 262.018 314.11 261.888 313.88 261.657C311.309 259.086 309.886 255.796 309.604 252.428H301.862V263.768C307.651 264.387 312.175 269.299 312.175 275.253C312.175 281.619 306.995 286.799 300.625 286.799ZM238.75 266.174C233.745 266.174 229.675 270.244 229.675 275.249C229.675 280.254 233.745 284.324 238.75 284.324H300.625C305.63 284.324 309.7 280.254 309.7 275.249C309.7 270.244 305.63 266.174 300.625 266.174H238.75ZM239.987 263.699H299.387V243.256C299.387 240.733 297.346 238.678 294.836 238.678H229.675V256.824H238.75C239.434 256.824 239.987 257.378 239.987 258.062V263.699ZM315.286 259.54H322.842C321.247 254.081 321.247 248.296 322.842 242.837H315.286C313.179 245.12 312.02 248.065 312.02 251.19C312.02 254.315 313.175 257.257 315.286 259.54ZM243.425 236.199H261.575V218.049H243.425V236.199ZM229.675 236.199H240.95V218.049H229.675V236.199ZM229.675 215.574H268.45V211.174H229.675V215.574ZM262.812 245.549H255.937V243.074H262.812V245.549Z" fill="#F2F4F8"/>
</g>
<g clip-path="url(#clip6_2415_16114)">
<path d="M974.188 275.249C974.188 277.147 972.648 278.687 970.75 278.687C968.853 278.687 967.313 277.147 967.313 275.249C967.313 273.352 968.853 271.812 970.75 271.812C972.648 271.812 974.188 273.352 974.188 275.249ZM984.5 271.812C982.603 271.812 981.063 273.352 981.063 275.249C981.063 277.147 982.603 278.687 984.5 278.687C986.398 278.687 987.938 277.147 987.938 275.249C987.938 273.352 986.401 271.812 984.5 271.812ZM998.25 271.812C996.353 271.812 994.813 273.352 994.813 275.249C994.813 277.147 996.353 278.687 998.25 278.687C1000.15 278.687 1001.69 277.147 1001.69 275.249C1001.69 273.352 1000.15 271.812 998.25 271.812ZM1012 271.812C1010.1 271.812 1008.56 273.352 1008.56 275.249C1008.56 277.147 1010.1 278.687 1012 278.687C1013.9 278.687 1015.44 277.147 1015.44 275.249C1015.44 273.352 1013.9 271.812 1012 271.812ZM974.188 183.674C978.636 183.674 979.825 188.39 979.825 191.175V199.624C979.825 200.308 980.379 200.862 981.063 200.862C981.747 200.862 982.3 200.308 982.3 199.624V191.175C982.3 186.369 979.763 181.199 974.188 181.199C973.504 181.199 972.95 181.753 972.95 182.437C972.95 183.121 973.507 183.674 974.188 183.674ZM1003.1 219.95C1003.49 219.95 1003.88 219.768 1004.11 219.424L1019.89 196.898C1020.28 196.338 1020.14 195.568 1019.58 195.176C1019.03 194.784 1018.25 194.918 1017.86 195.479L1002.09 218.005C1001.69 218.565 1001.83 219.335 1002.39 219.727C1002.61 219.878 1002.86 219.95 1003.1 219.95ZM967.265 190.549L967.794 190.566C972.448 190.566 972.95 194.495 972.95 196.187V203.062C972.95 208.637 977.154 211.174 981.063 211.174C981.747 211.174 982.3 210.621 982.3 209.937C982.3 209.253 981.747 208.699 981.063 208.699C978.464 208.699 975.425 207.221 975.425 203.062V196.187C975.425 191.271 972.431 188.095 967.842 188.095L967.313 188.074C964.508 188.074 961.675 186.331 961.675 182.437C961.675 181.753 961.122 181.199 960.438 181.199C959.754 181.199 959.2 181.753 959.2 182.437C959.2 188.009 963.404 190.549 967.265 190.549ZM1012.7 219.727C1012.92 219.878 1013.17 219.95 1013.41 219.95C1013.8 219.95 1014.19 219.768 1014.43 219.424L1030.2 196.898C1030.59 196.338 1030.45 195.568 1029.89 195.176C1029.34 194.784 1028.56 194.918 1028.17 195.479L1012.4 218.005C1012.01 218.565 1012.14 219.335 1012.7 219.727ZM1058.67 257.237C1057.63 255.075 1055.84 253.373 1053.64 252.438C1053.02 252.18 1052.28 252.472 1052.01 253.095C1051.75 253.727 1052.04 254.452 1052.67 254.72C1054.32 255.415 1055.66 256.69 1056.44 258.309C1056.66 258.753 1057.1 259.01 1057.56 259.01C1057.74 259.01 1057.92 258.969 1058.09 258.887C1058.72 258.588 1058.97 257.849 1058.67 257.237ZM1051.05 246.56V203.086C1051.05 203.038 1051.05 202.99 1051.04 202.941C1051.03 202.763 1050.97 202.591 1050.88 202.443C1050.8 202.295 1050.68 202.158 1050.53 202.055C1050.48 202.017 1050.42 201.982 1050.37 201.955L1041.12 196.613C1041.01 196.548 1040.9 196.503 1040.78 196.475C1040.59 196.431 1040.39 196.431 1040.2 196.475C1040.03 196.517 1039.86 196.592 1039.72 196.706C1039.63 196.785 1039.54 196.874 1039.47 196.977L1030.4 209.937C1030.38 209.954 1030.37 209.975 1030.36 209.995L1011.74 236.588C1011.72 236.605 1011.71 236.622 1011.7 236.639L1002.38 249.946H996.05V223.687C996.05 223.003 995.497 222.449 994.813 222.449H992.613V209.937C992.613 209.253 992.059 208.699 991.375 208.699H984.497V211.174H990.141V222.449H960.438C959.754 222.449 959.2 223.003 959.2 223.687V258.062C959.2 258.746 959.754 259.299 960.438 259.299H969.513V263.765C963.724 264.383 959.2 269.295 959.2 275.249C959.2 281.619 964.381 286.799 970.747 286.799H1012C1018.36 286.799 1023.55 281.615 1023.55 275.249C1023.55 269.299 1019.02 264.383 1013.23 263.765V259.299H1018.06C1018.5 259.299 1018.91 259.062 1019.13 258.677L1026.75 245.484C1026.76 245.467 1026.77 245.45 1026.78 245.432C1026.79 245.415 1026.8 245.401 1026.81 245.384L1042.97 217.382C1042.98 217.375 1042.98 217.369 1042.98 217.365C1042.99 217.358 1042.99 217.351 1042.99 217.345L1048.58 207.678V246.56C1040.89 247.192 1034.83 253.648 1034.83 261.499C1034.83 269.763 1041.55 276.487 1049.81 276.487C1058.08 276.487 1064.8 269.763 1064.8 261.499C1064.8 253.651 1058.74 247.192 1051.05 246.56ZM961.675 256.824V224.924H993.575V251.187C993.575 251.871 994.129 252.424 994.813 252.424H1003.01C1003.02 252.424 1003.03 252.424 1003.04 252.424H1010.76V263.696H971.988V258.062C971.988 257.378 971.434 256.824 970.75 256.824H961.675ZM1021.08 275.249C1021.08 280.254 1017.01 284.324 1012 284.324H970.75C965.745 284.324 961.675 280.254 961.675 275.249C961.675 270.244 965.745 266.174 970.75 266.174H1012C1017.01 266.174 1021.08 270.244 1021.08 275.249ZM1017.35 256.824H1013.24V251.187C1013.24 250.503 1012.68 249.949 1012 249.949H1005.4L1013.1 238.966L1024.02 245.274L1017.35 256.824ZM1025.25 243.126L1014.52 236.928L1022.92 224.931L1032.55 230.493L1025.25 243.126ZM1033.78 228.348L1024.34 222.896L1031.75 212.312L1040.22 217.2L1033.78 228.348ZM1041.46 215.059L1033.18 210.28L1040.85 199.318L1048.12 203.515L1041.46 215.059ZM1049.81 274.012C1042.91 274.012 1037.3 268.398 1037.3 261.499C1037.3 254.6 1042.91 248.987 1049.81 248.987C1056.71 248.987 1062.33 254.6 1062.33 261.499C1062.33 268.398 1056.71 274.012 1049.81 274.012ZM962.156 194.949C961.472 194.949 960.919 195.503 960.919 196.187V200.002C960.919 202.316 960.919 207.737 967.313 207.737C967.997 207.737 968.55 207.183 968.55 206.499C968.55 205.815 967.997 205.262 967.313 205.262C964.308 205.262 963.394 204.035 963.394 200.002V196.187C963.394 195.503 962.841 194.949 962.156 194.949ZM989.175 244.312V230.562C989.175 229.878 988.622 229.324 987.938 229.324H967.313C966.629 229.324 966.075 229.878 966.075 230.562V244.312C966.075 244.996 966.629 245.549 967.313 245.549H987.938C988.622 245.549 989.175 244.996 989.175 244.312ZM986.7 243.074H968.55V231.799H986.7V243.074Z" fill="#F2F4F8"/>
</g>
<defs>
<clipPath id="clip0_2415_16114">
<rect width="32" height="32" fill="white" transform="translate(474 368)"/>
</clipPath>
<clipPath id="clip1_2415_16114">
<rect width="27" height="29" fill="white" transform="translate(564 92)"/>
</clipPath>
<clipPath id="clip2_2415_16114">
<rect width="27" height="29" fill="white" transform="translate(805 108)"/>
</clipPath>
<clipPath id="clip3_2415_16114">
<rect width="27" height="29" fill="white" transform="translate(361.5 210)"/>
</clipPath>
<clipPath id="clip4_2415_16114">
<rect width="40" height="40" fill="white" transform="translate(557 174)"/>
</clipPath>
<clipPath id="clip5_2415_16114">
<rect width="110" height="110" fill="white" transform="translate(225 179)"/>
</clipPath>
<clipPath id="clip6_2415_16114">
<rect width="110" height="110" fill="white" transform="translate(957 179)"/>
</clipPath>
</defs>
</svg>
