<svg width="518" height="629" viewBox="0 0 518 629" fill="none" xmlns="http://www.w3.org/2000/svg">
<rect width="518" height="629" rx="16" fill="#5933F2"/>
<path d="M252.707 172.707C253.098 172.317 253.098 171.683 252.707 171.293L246.343 164.929C245.953 164.538 245.319 164.538 244.929 164.929C244.538 165.319 244.538 165.953 244.929 166.343L250.586 172L244.929 177.657C244.538 178.047 244.538 178.681 244.929 179.071C245.319 179.462 245.953 179.462 246.343 179.071L252.707 172.707ZM228 173L252 173L252 171L228 171L228 173Z" fill="#B4A3F9"/>
<path d="M346.707 529.707C347.098 529.317 347.098 528.683 346.707 528.293L340.343 521.929C339.953 521.538 339.319 521.538 338.929 521.929C338.538 522.319 338.538 522.953 338.929 523.343L344.586 529L338.929 534.657C338.538 535.047 338.538 535.681 338.929 536.071C339.319 536.462 339.953 536.462 340.343 536.071L346.707 529.707ZM188 530L346 530L346 528L188 528L188 530Z" fill="#B4A3F9"/>
<g clip-path="url(#clip0_2254_36366)">
<g clip-path="url(#clip1_2254_36366)">
<path d="M43.7525 229.598H156.253C156.999 229.598 157.603 228.995 157.603 228.248C157.603 228.012 157.539 227.753 157.423 227.547L148.779 212.573C148.539 212.157 148.089 211.895 147.609 211.895H101.353V194.498C101.353 193.752 100.749 193.148 100.003 193.148H86.4988L96.1138 176.465C98.1088 173.003 98.1013 168.53 96.095 165.076C95.0863 163.343 93.65 161.903 91.9363 160.913C91.2538 160.523 90.545 160.208 89.8138 159.968L77.1425 138.023C77.4913 137.326 77.7913 136.602 78.035 135.852H103.479C105.44 140.266 109.865 143.352 114.999 143.352C115.775 143.352 116.536 143.281 117.271 143.146L124.04 154.857C123.388 155.907 122.896 157.066 122.593 158.303C121.828 161.397 122.308 164.592 123.943 167.303L129.56 176.96C129.931 177.608 130.753 177.83 131.401 177.451L139.385 172.842L142.419 178.096C141.095 179.18 140.124 180.635 139.625 182.318C138.965 184.538 139.209 186.871 140.304 188.892L142.258 192.492C142.43 192.725 142.79 193.066 143.068 193.148L148.929 194.885L149.694 192.301L144.35 190.715L142.674 187.606C141.924 186.222 141.759 184.617 142.209 183.091C142.663 181.568 143.675 180.312 145.063 179.562C146.45 178.812 148.051 178.651 149.581 179.097C151.108 179.551 152.36 180.567 153.11 181.955L154.798 185.063L153.223 190.385L155.81 191.153L157.546 185.296C157.648 184.951 157.61 184.583 157.438 184.268L155.484 180.668C154.389 178.651 152.566 177.17 150.35 176.517C148.479 175.955 146.525 176.041 144.748 176.746L141.725 171.507L149.821 166.835C150.133 166.655 150.361 166.355 150.451 166.002C150.541 165.65 150.489 165.278 150.298 164.967L144.309 155.03C142.674 152.318 140.071 150.406 136.978 149.641C135.598 149.303 134.195 149.206 132.838 149.352L125.825 137.21C126.954 135.305 127.603 133.1 127.603 130.748C127.603 123.8 121.951 118.148 115.003 118.148C109.869 118.148 105.444 121.235 103.483 125.648H78.0388C75.8938 119.123 69.74 114.398 62.5025 114.398C53.4875 114.398 46.1525 121.733 46.1525 130.748C46.1525 139.707 53.3975 147.005 62.33 147.098L74.555 168.275L60.2188 193.148H51.2525C50.5063 193.148 49.9025 193.752 49.9025 194.498V211.898H43.7525C43.0063 211.898 42.4025 212.502 42.4025 213.248V228.248C42.4025 228.995 43.0063 229.598 43.7525 229.598ZM153.928 226.898H45.1025V214.598H146.829L153.928 226.898ZM98.6525 211.898H52.6025V195.848H98.6525V211.898ZM83.3825 193.148H63.3313L78.725 166.437C79.4825 165.132 80.5663 164.041 81.8713 163.287C84.5713 161.72 87.9125 161.705 90.5863 163.253C91.8913 164.007 92.99 165.106 93.7588 166.43C95.2663 169.025 95.27 172.516 93.7775 175.115L83.3825 193.148ZM147.279 165.166L131.218 174.44L126.264 165.927C124.989 163.816 124.621 161.345 125.21 158.952C125.803 156.56 127.28 154.55 129.373 153.286C131.461 152.026 133.936 151.651 136.329 152.243C138.721 152.836 140.735 154.313 141.999 156.406L147.279 165.166ZM86.2738 159.406C84.29 159.406 82.295 159.92 80.5213 160.951C78.8113 161.945 77.3863 163.373 76.3925 165.091L76.115 165.575L65.3075 146.862C69.4588 146.142 73.0775 143.847 75.53 140.622L86.375 159.406C86.3375 159.406 86.3075 159.406 86.2738 159.406ZM130.085 149.967C129.358 150.23 128.653 150.567 127.978 150.976C127.201 151.445 126.493 151.992 125.855 152.607L119.93 142.347C121.49 141.68 122.889 140.708 124.051 139.508L130.085 149.967ZM62.5025 117.098C70.0288 117.098 76.1525 123.222 76.1525 130.748C76.1525 138.275 70.0288 144.398 62.5025 144.398C54.9763 144.398 48.8525 138.275 48.8525 130.748C48.8525 123.222 54.9763 117.098 62.5025 117.098ZM115.003 120.848C120.463 120.848 124.903 125.292 124.903 130.748C124.903 136.205 120.463 140.648 115.003 140.648C109.543 140.648 105.103 136.208 105.103 130.748C105.103 125.288 109.543 120.848 115.003 120.848ZM102.631 133.148H78.6763C78.7925 132.365 78.8525 131.562 78.8525 130.748C78.8525 129.935 78.7888 129.132 78.6763 128.348H102.631C102.481 129.125 102.403 129.927 102.403 130.748C102.403 131.57 102.481 132.372 102.631 133.148ZM113.128 130.748C113.128 131.783 113.968 132.623 115.003 132.623C116.038 132.623 116.878 131.783 116.878 130.748C116.878 129.713 116.038 128.873 115.003 128.873C113.968 128.873 113.128 129.713 113.128 130.748ZM62.5025 128.873C63.5375 128.873 64.3775 129.713 64.3775 130.748C64.3775 131.783 63.5375 132.623 62.5025 132.623C61.4675 132.623 60.6275 131.783 60.6275 130.748C60.6275 129.713 61.4675 128.873 62.5025 128.873ZM86.8775 170.123C87.9125 170.123 88.7525 170.963 88.7525 171.998C88.7525 173.033 87.9125 173.873 86.8775 173.873C85.8425 173.873 85.0025 173.033 85.0025 171.998C85.0025 170.963 85.8425 170.123 86.8775 170.123Z" fill="#DED6FC"/>
</g>
</g>
<path d="M305 259L305 258L303 258L303 259L305 259ZM303.293 283.707C303.683 284.098 304.317 284.098 304.707 283.707L311.071 277.343C311.462 276.953 311.462 276.319 311.071 275.929C310.681 275.538 310.047 275.538 309.657 275.929L304 281.586L298.343 275.929C297.953 275.538 297.319 275.538 296.929 275.929C296.538 276.319 296.538 276.953 296.929 277.343L303.293 283.707ZM303 259L303 283L305 283L305 259L303 259Z" fill="#B4A3F9"/>
<path d="M336.707 258.293C336.317 257.902 335.683 257.902 335.293 258.293L328.929 264.657C328.538 265.047 328.538 265.681 328.929 266.071C329.319 266.462 329.953 266.462 330.343 266.071L336 260.414L341.657 266.071C342.047 266.462 342.681 266.462 343.071 266.071C343.462 265.681 343.462 265.047 343.071 264.657L336.707 258.293ZM335 283L335 284L337 284L337 283L335 283ZM335 259L335 283L337 283L337 259L335 259Z" fill="#B4A3F9"/>
<path d="M420 259L420 258L418 258L418 259L420 259ZM418.293 387.707C418.683 388.098 419.317 388.098 419.707 387.707L426.071 381.343C426.462 380.953 426.462 380.319 426.071 379.929C425.681 379.538 425.047 379.538 424.657 379.929L419 385.586L413.343 379.929C412.953 379.538 412.319 379.538 411.929 379.929C411.538 380.319 411.538 380.953 411.929 381.343L418.293 387.707ZM418 259L418 387L420 387L420 259L418 259Z" fill="#B4A3F9"/>
<rect x="261" y="96" width="220" height="154" rx="19" fill="#382193" stroke="#5933F2" stroke-width="6"/>
<rect x="312" y="199" width="42" height="28" rx="14" fill="#CDC2FB"/>
<path d="M323.416 207.948H324.97L328.12 218H326.762L325.95 215.354H322.408L321.596 218H320.28L323.416 207.948ZM324.172 209.558L322.758 214.178H325.586L324.172 209.558ZM330.677 213.786V218H329.333V207.948H332.973C335.101 207.948 336.445 208.942 336.445 210.86C336.445 212.75 335.101 213.786 332.973 213.786H330.677ZM330.677 212.624H332.889C334.331 212.624 335.129 211.994 335.129 210.86C335.129 209.726 334.331 209.11 332.889 209.11H330.677V212.624ZM344.503 216.824V218H337.475V216.824H340.317V209.124H337.475V207.948H344.503V209.124H341.661V216.824H344.503Z" fill="black"/>
<rect x="362" y="199" width="67" height="28" rx="14" fill="#CDC2FB"/>
<path d="M373.71 207.948H374.732L375.978 215.48L377.07 207.948H378.26L376.664 218H375.53L374.2 210.202L372.87 218H371.736L370.14 207.948H371.358L372.45 215.48L373.71 207.948ZM382.777 218.154C380.677 218.154 379.249 216.6 379.249 214.346C379.249 212.162 380.677 210.538 382.721 210.538C384.821 210.538 385.927 212.092 385.927 214.122V214.542H380.467C380.551 216.082 381.461 217.062 382.777 217.062C383.813 217.062 384.541 216.53 384.779 215.662L385.871 216.054C385.409 217.356 384.275 218.154 382.777 218.154ZM382.721 211.616C381.587 211.616 380.775 212.33 380.537 213.576H384.653C384.625 212.54 384.037 211.616 382.721 211.616ZM391.381 218.154C390.387 218.154 389.645 217.664 389.225 216.922V218H387.965V207.948H389.225V211.756C389.645 211.028 390.387 210.538 391.381 210.538C393.341 210.538 394.447 212.274 394.447 214.346C394.447 216.404 393.341 218.154 391.381 218.154ZM389.197 214.108V214.612C389.197 216.292 390.191 217.048 391.129 217.048C392.445 217.048 393.173 215.928 393.173 214.346C393.173 212.764 392.445 211.644 391.129 211.644C390.191 211.644 389.197 212.372 389.197 214.108ZM407.778 218.14C405.706 218.14 404.404 216.88 404.404 214.192V207.948H405.748V214.136C405.748 216.096 406.49 216.908 407.778 216.908C409.066 216.908 409.808 216.096 409.808 214.136V207.948H411.152V214.192C411.152 216.88 409.85 218.14 407.778 218.14ZM419.687 216.824V218H412.659V216.824H415.501V209.124H412.659V207.948H419.687V209.124H416.845V216.824H419.687Z" fill="black"/>
<rect x="303" y="159" width="134" height="28" rx="14" fill="#CDC2FB"/>
<path d="M315.606 178H314.794L312.96 169.866V178H311.798V167.948H313.604L315.214 175.186L316.838 167.948H318.602V178H317.44V169.866L315.606 178ZM323.777 178.154C321.677 178.154 320.249 176.6 320.249 174.346C320.249 172.162 321.677 170.538 323.721 170.538C325.821 170.538 326.927 172.092 326.927 174.122V174.542H321.467C321.551 176.082 322.461 177.062 323.777 177.062C324.813 177.062 325.541 176.53 325.779 175.662L326.871 176.054C326.409 177.356 325.275 178.154 323.777 178.154ZM323.721 171.616C322.587 171.616 321.775 172.33 321.537 173.576H325.653C325.625 172.54 325.037 171.616 323.721 171.616ZM330.491 175.648V171.756H328.335V170.678H330.491V168.536H331.723V170.678H335.097V171.756H331.723V175.55C331.723 176.544 332.311 176.95 333.473 176.95C334.047 176.95 334.621 176.852 335.139 176.698V177.832C334.649 177.972 333.949 178.084 333.277 178.084C331.751 178.084 330.491 177.44 330.491 175.648ZM339.46 178.126C338.102 178.126 336.996 177.342 336.996 176.026C336.996 174.57 338.186 173.954 339.81 173.646L341.77 173.268V172.96C341.77 172.12 341.252 171.63 340.216 171.63C339.278 171.63 338.662 172.092 338.41 172.904L337.234 172.596C337.612 171.392 338.704 170.538 340.272 170.538C341.966 170.538 343.002 171.336 343.002 172.904V176.432C343.002 176.992 343.38 177.104 343.898 176.992V178C342.722 178.14 342.022 177.916 341.84 177.146C341.364 177.72 340.51 178.126 339.46 178.126ZM341.77 175.466V174.248L340.132 174.556C339.054 174.766 338.27 175.088 338.27 175.97C338.27 176.684 338.802 177.104 339.642 177.104C340.762 177.104 341.77 176.404 341.77 175.466ZM348.386 178.154C346.426 178.154 345.32 176.404 345.32 174.346C345.32 172.274 346.426 170.538 348.386 170.538C349.38 170.538 350.122 171.028 350.542 171.756V167.948H351.802V178H350.542V176.922C350.122 177.664 349.38 178.154 348.386 178.154ZM350.57 174.108C350.57 172.372 349.576 171.644 348.638 171.644C347.322 171.644 346.594 172.764 346.594 174.346C346.594 175.928 347.322 177.048 348.638 177.048C349.576 177.048 350.57 176.292 350.57 174.612V174.108ZM356.249 178.126C354.891 178.126 353.785 177.342 353.785 176.026C353.785 174.57 354.975 173.954 356.599 173.646L358.559 173.268V172.96C358.559 172.12 358.041 171.63 357.005 171.63C356.067 171.63 355.451 172.092 355.199 172.904L354.023 172.596C354.401 171.392 355.493 170.538 357.061 170.538C358.755 170.538 359.791 171.336 359.791 172.904V176.432C359.791 176.992 360.169 177.104 360.687 176.992V178C359.511 178.14 358.811 177.916 358.629 177.146C358.153 177.72 357.299 178.126 356.249 178.126ZM358.559 175.466V174.248L356.921 174.556C355.843 174.766 355.059 175.088 355.059 175.97C355.059 176.684 355.591 177.104 356.431 177.104C357.551 177.104 358.559 176.404 358.559 175.466ZM364.069 175.648V171.756H361.913V170.678H364.069V168.536H365.301V170.678H368.675V171.756H365.301V175.55C365.301 176.544 365.889 176.95 367.051 176.95C367.625 176.95 368.199 176.852 368.717 176.698V177.832C368.227 177.972 367.527 178.084 366.855 178.084C365.329 178.084 364.069 177.44 364.069 175.648ZM373.038 178.126C371.68 178.126 370.574 177.342 370.574 176.026C370.574 174.57 371.764 173.954 373.388 173.646L375.348 173.268V172.96C375.348 172.12 374.83 171.63 373.794 171.63C372.856 171.63 372.24 172.092 371.988 172.904L370.812 172.596C371.19 171.392 372.282 170.538 373.85 170.538C375.544 170.538 376.58 171.336 376.58 172.904V176.432C376.58 176.992 376.958 177.104 377.476 176.992V178C376.3 178.14 375.6 177.916 375.418 177.146C374.942 177.72 374.088 178.126 373.038 178.126ZM375.348 175.466V174.248L373.71 174.556C372.632 174.766 371.848 175.088 371.848 175.97C371.848 176.684 372.38 177.104 373.22 177.104C374.34 177.104 375.348 176.404 375.348 175.466ZM386.691 175.942L387.741 175.088C388.371 176.292 389.519 177.006 390.821 177.006C392.123 177.006 393.117 176.348 393.117 175.2C393.117 173.982 391.969 173.772 390.429 173.394C388.861 173.016 387.279 172.596 387.279 170.706C387.279 168.942 388.819 167.794 390.723 167.794C392.473 167.794 393.719 168.606 394.335 169.754L393.313 170.552C392.809 169.586 391.997 168.928 390.681 168.928C389.477 168.928 388.581 169.6 388.581 170.594C388.581 171.658 389.533 171.882 390.947 172.218C392.599 172.61 394.433 172.96 394.433 175.088C394.433 176.964 392.767 178.154 390.779 178.154C389.043 178.154 387.377 177.3 386.691 175.942ZM397.647 175.648V171.756H395.491V170.678H397.647V168.536H398.879V170.678H402.253V171.756H398.879V175.55C398.879 176.544 399.467 176.95 400.629 176.95C401.203 176.95 401.777 176.852 402.295 176.698V177.832C401.805 177.972 401.105 178.084 400.433 178.084C398.907 178.084 397.647 177.44 397.647 175.648ZM410.942 174.346C410.942 176.614 409.542 178.154 407.54 178.154C405.538 178.154 404.138 176.614 404.138 174.346C404.138 172.078 405.538 170.538 407.54 170.538C409.542 170.538 410.942 172.078 410.942 174.346ZM405.412 174.346C405.412 176.012 406.252 177.076 407.54 177.076C408.828 177.076 409.668 176.012 409.668 174.346C409.668 172.666 408.828 171.602 407.54 171.602C406.252 171.602 405.412 172.666 405.412 174.346ZM412.574 178V176.922H414.632V171.756H412.574V170.678H415.878V172.022C416.326 171.168 417.292 170.538 418.524 170.538C419.014 170.538 419.406 170.608 419.658 170.72V171.966C419.322 171.854 418.93 171.77 418.398 171.77C417.096 171.77 415.878 172.652 415.878 173.996V176.922H418.65V178H412.574ZM424.511 178.154C422.411 178.154 420.983 176.6 420.983 174.346C420.983 172.162 422.411 170.538 424.455 170.538C426.555 170.538 427.661 172.092 427.661 174.122V174.542H422.201C422.285 176.082 423.195 177.062 424.511 177.062C425.547 177.062 426.275 176.53 426.513 175.662L427.605 176.054C427.143 177.356 426.009 178.154 424.511 178.154ZM424.455 171.616C423.321 171.616 422.509 172.33 422.271 173.576H426.387C426.359 172.54 425.771 171.616 424.455 171.616Z" fill="black"/>
<g clip-path="url(#clip2_2254_36366)">
<path d="M60.7525 586.598H173.253C173.999 586.598 174.603 585.995 174.603 585.248C174.603 585.012 174.539 584.753 174.423 584.547L165.779 569.573C165.539 569.157 165.089 568.895 164.609 568.895H118.353V551.498C118.353 550.752 117.749 550.148 117.003 550.148H103.499L113.114 533.465C115.109 530.003 115.101 525.53 113.095 522.076C112.086 520.343 110.65 518.903 108.936 517.913C108.254 517.523 107.545 517.208 106.814 516.968L94.1425 495.023C94.4913 494.326 94.7913 493.602 95.035 492.852H120.479C122.44 497.266 126.865 500.352 131.999 500.352C132.775 500.352 133.536 500.281 134.271 500.146L141.04 511.857C140.388 512.907 139.896 514.066 139.593 515.303C138.828 518.397 139.308 521.592 140.943 524.303L146.56 533.96C146.931 534.608 147.753 534.83 148.401 534.451L156.385 529.842L159.419 535.096C158.095 536.18 157.124 537.635 156.625 539.318C155.965 541.538 156.209 543.871 157.304 545.892L159.258 549.492C159.43 549.725 159.79 550.066 160.068 550.148L165.929 551.885L166.694 549.301L161.35 547.715L159.674 544.606C158.924 543.222 158.759 541.617 159.209 540.091C159.663 538.568 160.675 537.312 162.063 536.562C163.45 535.812 165.051 535.651 166.581 536.097C168.108 536.551 169.36 537.567 170.11 538.955L171.798 542.063L170.223 547.385L172.81 548.153L174.546 542.296C174.648 541.951 174.61 541.583 174.438 541.268L172.484 537.668C171.389 535.651 169.566 534.17 167.35 533.517C165.479 532.955 163.525 533.041 161.748 533.746L158.725 528.507L166.821 523.835C167.133 523.655 167.361 523.355 167.451 523.002C167.541 522.65 167.489 522.278 167.298 521.967L161.309 512.03C159.674 509.318 157.071 507.406 153.978 506.641C152.598 506.303 151.195 506.206 149.838 506.352L142.825 494.21C143.954 492.305 144.603 490.1 144.603 487.748C144.603 480.8 138.951 475.148 132.003 475.148C126.869 475.148 122.444 478.235 120.483 482.648H95.0388C92.8938 476.123 86.74 471.398 79.5025 471.398C70.4875 471.398 63.1525 478.733 63.1525 487.748C63.1525 496.707 70.3975 504.005 79.33 504.098L91.555 525.275L77.2188 550.148H68.2525C67.5063 550.148 66.9025 550.752 66.9025 551.498V568.898H60.7525C60.0063 568.898 59.4025 569.502 59.4025 570.248V585.248C59.4025 585.995 60.0063 586.598 60.7525 586.598ZM170.928 583.898H62.1025V571.598H163.829L170.928 583.898ZM115.653 568.898H69.6025V552.848H115.653V568.898ZM100.383 550.148H80.3313L95.725 523.437C96.4825 522.132 97.5663 521.041 98.8713 520.287C101.571 518.72 104.913 518.705 107.586 520.253C108.891 521.007 109.99 522.106 110.759 523.43C112.266 526.025 112.27 529.516 110.778 532.115L100.383 550.148ZM164.279 522.166L148.218 531.44L143.264 522.927C141.989 520.816 141.621 518.345 142.21 515.952C142.803 513.56 144.28 511.55 146.373 510.286C148.461 509.026 150.936 508.651 153.329 509.243C155.721 509.836 157.735 511.313 158.999 513.406L164.279 522.166ZM103.274 516.406C101.29 516.406 99.295 516.92 97.5213 517.951C95.8113 518.945 94.3863 520.373 93.3925 522.091L93.115 522.575L82.3075 503.862C86.4588 503.142 90.0775 500.847 92.53 497.622L103.375 516.406C103.338 516.406 103.308 516.406 103.274 516.406ZM147.085 506.967C146.358 507.23 145.653 507.567 144.978 507.976C144.201 508.445 143.493 508.992 142.855 509.607L136.93 499.347C138.49 498.68 139.889 497.708 141.051 496.508L147.085 506.967ZM79.5025 474.098C87.0288 474.098 93.1525 480.222 93.1525 487.748C93.1525 495.275 87.0288 501.398 79.5025 501.398C71.9763 501.398 65.8525 495.275 65.8525 487.748C65.8525 480.222 71.9763 474.098 79.5025 474.098ZM132.003 477.848C137.463 477.848 141.903 482.292 141.903 487.748C141.903 493.205 137.463 497.648 132.003 497.648C126.543 497.648 122.103 493.208 122.103 487.748C122.103 482.288 126.543 477.848 132.003 477.848ZM119.631 490.148H95.6763C95.7925 489.365 95.8525 488.562 95.8525 487.748C95.8525 486.935 95.7888 486.132 95.6763 485.348H119.631C119.481 486.125 119.403 486.927 119.403 487.748C119.403 488.57 119.481 489.372 119.631 490.148ZM130.128 487.748C130.128 488.783 130.968 489.623 132.003 489.623C133.038 489.623 133.878 488.783 133.878 487.748C133.878 486.713 133.038 485.873 132.003 485.873C130.968 485.873 130.128 486.713 130.128 487.748ZM79.5025 485.873C80.5375 485.873 81.3775 486.713 81.3775 487.748C81.3775 488.783 80.5375 489.623 79.5025 489.623C78.4675 489.623 77.6275 488.783 77.6275 487.748C77.6275 486.713 78.4675 485.873 79.5025 485.873ZM103.878 527.123C104.913 527.123 105.753 527.963 105.753 528.998C105.753 530.033 104.913 530.873 103.878 530.873C102.843 530.873 102.003 530.033 102.003 528.998C102.003 527.963 102.843 527.123 103.878 527.123Z" fill="#DED6FC"/>
</g>
<g clip-path="url(#clip3_2254_36366)">
<path d="M385.898 49.1935L381.424 46.5604C381.298 46.4863 381.143 46.4863 381.017 46.5603L374.992 50.1025V43.0202C374.992 42.8721 374.915 42.7353 374.789 42.6613L370.313 40.0281C370.177 39.9483 370.008 40.048 370.008 40.2075V50.1024L363.985 46.5603C363.859 46.4862 363.704 46.4862 363.578 46.5603L359.102 49.1935C358.966 49.2733 358.966 49.4727 359.102 49.5524L367.515 54.5L359.102 59.4475C358.966 59.5272 358.966 59.7266 359.102 59.8064L363.576 62.4395C363.702 62.5136 363.857 62.5136 363.983 62.4396L370.008 58.8974V65.9817C370.008 66.1298 370.085 66.2667 370.211 66.3407L374.687 68.972C374.823 69.0517 374.992 68.952 374.992 68.7925V58.8975L381.015 62.4396C381.141 62.5136 381.296 62.5136 381.422 62.4396L385.898 59.8064C386.034 59.7266 386.034 59.5272 385.898 59.4475L377.485 54.5L385.898 49.5524C386.034 49.4727 386.034 49.2733 385.898 49.1935ZM375.298 56.1454L372.5 57.7908L369.702 56.1454V52.8545L372.5 51.2091L375.298 52.8545V56.1454Z" fill="white"/>
</g>
<path d="M297.072 82V70.512H299.52C302.992 70.512 305.008 72.752 305.008 76.256C305.008 79.76 302.992 82 299.52 82H297.072ZM298.576 80.672H299.52C302.176 80.672 303.488 78.928 303.488 76.256C303.488 73.568 302.176 71.84 299.504 71.84H298.576V80.672ZM309.658 82.144C308.106 82.144 306.842 81.248 306.842 79.744C306.842 78.08 308.202 77.376 310.058 77.024L312.298 76.592V76.24C312.298 75.28 311.706 74.72 310.522 74.72C309.45 74.72 308.746 75.248 308.458 76.176L307.114 75.824C307.546 74.448 308.794 73.472 310.586 73.472C312.522 73.472 313.706 74.384 313.706 76.176V80.208C313.706 80.848 314.138 80.976 314.73 80.848V82C313.386 82.16 312.586 81.904 312.378 81.024C311.834 81.68 310.858 82.144 309.658 82.144ZM312.298 79.104V77.712L310.426 78.064C309.194 78.304 308.298 78.672 308.298 79.68C308.298 80.496 308.906 80.976 309.866 80.976C311.146 80.976 312.298 80.176 312.298 79.104ZM318.915 79.312V74.864H316.451V73.632H318.915V71.184H320.323V73.632H324.179V74.864H320.323V79.2C320.323 80.336 320.995 80.8 322.323 80.8C322.979 80.8 323.635 80.688 324.227 80.512V81.808C323.667 81.968 322.867 82.096 322.099 82.096C320.355 82.096 318.915 81.36 318.915 79.312ZM329.485 82.144C327.933 82.144 326.669 81.248 326.669 79.744C326.669 78.08 328.029 77.376 329.885 77.024L332.125 76.592V76.24C332.125 75.28 331.533 74.72 330.349 74.72C329.277 74.72 328.573 75.248 328.285 76.176L326.941 75.824C327.373 74.448 328.621 73.472 330.413 73.472C332.349 73.472 333.533 74.384 333.533 76.176V80.208C333.533 80.848 333.965 80.976 334.557 80.848V82C333.213 82.16 332.413 81.904 332.205 81.024C331.661 81.68 330.685 82.144 329.485 82.144ZM332.125 79.104V77.712L330.253 78.064C329.021 78.304 328.125 78.672 328.125 79.68C328.125 80.496 328.733 80.976 329.693 80.976C330.973 80.976 332.125 80.176 332.125 79.104ZM350.833 82H349.905L347.809 72.704V82H346.481V70.512H348.545L350.385 78.784L352.241 70.512H354.257V82H352.929V72.704L350.833 82ZM359.226 82.144C357.674 82.144 356.41 81.248 356.41 79.744C356.41 78.08 357.77 77.376 359.626 77.024L361.866 76.592V76.24C361.866 75.28 361.274 74.72 360.09 74.72C359.018 74.72 358.314 75.248 358.026 76.176L356.682 75.824C357.114 74.448 358.362 73.472 360.154 73.472C362.09 73.472 363.274 74.384 363.274 76.176V80.208C363.274 80.848 363.706 80.976 364.298 80.848V82C362.954 82.16 362.154 81.904 361.946 81.024C361.402 81.68 360.426 82.144 359.226 82.144ZM361.866 79.104V77.712L359.994 78.064C358.762 78.304 357.866 78.672 357.866 79.68C357.866 80.496 358.474 80.976 359.434 80.976C360.714 80.976 361.866 80.176 361.866 79.104ZM366.884 82V73.632H368.324V74.768C368.788 74.08 369.636 73.472 370.82 73.472C372.596 73.472 373.604 74.704 373.604 76.48V82H372.164V76.864C372.164 75.696 371.668 74.816 370.42 74.816C369.38 74.816 368.324 75.616 368.324 77.008V82H366.884ZM379.054 82.144C377.502 82.144 376.238 81.248 376.238 79.744C376.238 78.08 377.598 77.376 379.454 77.024L381.694 76.592V76.24C381.694 75.28 381.102 74.72 379.918 74.72C378.846 74.72 378.142 75.248 377.854 76.176L376.51 75.824C376.942 74.448 378.19 73.472 379.982 73.472C381.918 73.472 383.102 74.384 383.102 76.176V80.208C383.102 80.848 383.534 80.976 384.126 80.848V82C382.782 82.16 381.982 81.904 381.774 81.024C381.23 81.68 380.254 82.144 379.054 82.144ZM381.694 79.104V77.712L379.822 78.064C378.59 78.304 377.694 78.672 377.694 79.68C377.694 80.496 378.302 80.976 379.262 80.976C380.542 80.976 381.694 80.176 381.694 79.104ZM393.48 81.248C393.48 83.696 391.88 85.056 389.592 85.056C387.768 85.056 386.424 84.208 385.96 82.672L387.304 82.16C387.592 83.232 388.44 83.856 389.592 83.856C391.08 83.856 392.04 83.104 392.04 81.36V80.416C391.592 81.232 390.696 81.808 389.528 81.808C387.288 81.808 385.992 79.92 385.992 77.632C385.992 75.36 387.288 73.472 389.528 73.472C390.696 73.472 391.592 74.048 392.04 74.864V73.632H393.48V81.248ZM392.056 77.504C392.056 75.632 390.952 74.736 389.816 74.736C388.296 74.736 387.448 75.872 387.448 77.632C387.448 79.392 388.296 80.544 389.816 80.544C390.952 80.544 392.056 79.648 392.056 77.808V77.504ZM400.145 82.176C397.745 82.176 396.113 80.4 396.113 77.824C396.113 75.328 397.745 73.472 400.081 73.472C402.481 73.472 403.745 75.248 403.745 77.568V78.048H397.505C397.601 79.808 398.641 80.928 400.145 80.928C401.329 80.928 402.161 80.32 402.433 79.328L403.681 79.776C403.153 81.264 401.857 82.176 400.145 82.176ZM400.081 74.704C398.785 74.704 397.857 75.52 397.585 76.944H402.289C402.257 75.76 401.585 74.704 400.081 74.704ZM407.211 76.368V82H405.899V73.616H407.211V74.528C407.483 73.968 407.995 73.472 408.763 73.472C409.515 73.472 410.027 73.92 410.315 74.624C410.571 74.064 411.211 73.472 412.043 73.472C413.227 73.472 413.867 74.464 413.867 75.856V82H412.539V76.272C412.539 75.424 412.379 74.8 411.643 74.8C411.003 74.8 410.539 75.392 410.539 76.368V82H409.211V76.272C409.211 75.424 409.035 74.8 408.299 74.8C407.643 74.8 407.211 75.392 407.211 76.368ZM419.973 82.176C417.573 82.176 415.941 80.4 415.941 77.824C415.941 75.328 417.573 73.472 419.909 73.472C422.309 73.472 423.573 75.248 423.573 77.568V78.048H417.333C417.429 79.808 418.469 80.928 419.973 80.928C421.157 80.928 421.989 80.32 422.261 79.328L423.509 79.776C422.981 81.264 421.685 82.176 419.973 82.176ZM419.909 74.704C418.613 74.704 417.685 75.52 417.413 76.944H422.117C422.085 75.76 421.413 74.704 419.909 74.704ZM426.367 82V73.632H427.807V74.768C428.271 74.08 429.119 73.472 430.303 73.472C432.079 73.472 433.087 74.704 433.087 76.48V82H431.647V76.864C431.647 75.696 431.151 74.816 429.903 74.816C428.863 74.816 427.807 75.616 427.807 77.008V82H426.367ZM437.88 79.312V74.864H435.416V73.632H437.88V71.184H439.288V73.632H443.144V74.864H439.288V79.2C439.288 80.336 439.96 80.8 441.288 80.8C441.944 80.8 442.6 80.688 443.192 80.512V81.808C442.632 81.968 441.832 82.096 441.064 82.096C439.32 82.096 437.88 81.36 437.88 79.312Z" fill="#DED6FC"/>
<mask id="path-18-inside-1_2254_36366" fill="white">
<rect x="358" y="470" width="120" height="115.714" rx="1.71429"/>
</mask>
<rect x="358" y="470" width="120" height="115.714" rx="1.71429" stroke="#DED6FC" stroke-width="5.14286" mask="url(#path-18-inside-1_2254_36366)"/>
<rect x="359.714" y="481.143" width="117.429" height="2.57143" fill="#DED6FC"/>
<rect x="358" y="526.572" width="60.8571" height="2.57143" fill="#DED6FC"/>
<rect x="364.857" y="575.43" width="33.4286" height="2.57143" fill="#DED6FC"/>
<rect x="400.857" y="573.715" width="2.57143" height="6" fill="#DED6FC"/>
<rect x="406" y="575.43" width="72" height="2.57143" fill="#DED6FC"/>
<rect x="359.714" y="567.715" width="117.429" height="2.57143" fill="#DED6FC"/>
<path d="M365.714 511.143H372.142L376.428 502.79L381.571 511.143L386.285 500.001L391 508.572L393.571 502.79L395.285 498.504L400.428 512.429L404.714 502.572L407.285 507.286L412.428 505.143" stroke="#DED6FC" stroke-width="2.57143"/>
<circle cx="366.572" cy="476.857" r="1.71429" fill="#DED6FC"/>
<circle cx="371.714" cy="476.857" r="1.71429" fill="#DED6FC"/>
<circle cx="376.858" cy="476.857" r="1.71429" fill="#DED6FC"/>
<rect x="417.143" y="483.715" width="2.57143" height="84" fill="#DED6FC"/>
<ellipse cx="461.137" cy="517.571" rx="1.96078" ry="2.14286" fill="#DED6FC"/>
<ellipse cx="448.979" cy="505.999" rx="2.35294" ry="2.57143" fill="#DED6FC"/>
<ellipse cx="460.352" cy="509.858" rx="1.96078" ry="2.14286" fill="#DED6FC"/>
<ellipse cx="454.861" cy="508.143" rx="1.96078" ry="2.14286" fill="#DED6FC"/>
<ellipse cx="455.645" cy="516.715" rx="1.96078" ry="2.14286" fill="#DED6FC"/>
<ellipse cx="461.137" cy="525.285" rx="1.96078" ry="2.14286" fill="#DED6FC"/>
<ellipse cx="466.236" cy="525.714" rx="1.56863" ry="1.71429" fill="#DED6FC"/>
<ellipse cx="455.645" cy="525.285" rx="1.96078" ry="2.14286" fill="#DED6FC"/>
<ellipse cx="450.154" cy="533" rx="1.96078" ry="2.14286" fill="#DED6FC"/>
<ellipse cx="443.097" cy="524.428" rx="1.96078" ry="2.14286" fill="#DED6FC"/>
<ellipse cx="437.997" cy="533.429" rx="2.35294" ry="2.57143" fill="#DED6FC"/>
<ellipse cx="450.154" cy="515.858" rx="1.96078" ry="2.14286" fill="#DED6FC"/>
<ellipse cx="436.43" cy="523.999" rx="2.35294" ry="2.57143" fill="#DED6FC"/>
<ellipse cx="437.997" cy="513.714" rx="2.35294" ry="2.57143" fill="#DED6FC"/>
<ellipse cx="431.723" cy="512.857" rx="2.35294" ry="2.57143" fill="#DED6FC"/>
<ellipse cx="430.156" cy="523.144" rx="2.35294" ry="2.57143" fill="#DED6FC"/>
<ellipse cx="431.723" cy="534.286" rx="2.35294" ry="2.57143" fill="#DED6FC"/>
<ellipse cx="449.371" cy="524.428" rx="1.96078" ry="2.14286" fill="#DED6FC"/>
<ellipse cx="443.88" cy="533" rx="1.96078" ry="2.14286" fill="#DED6FC"/>
<ellipse cx="436.43" cy="502.571" rx="2.35294" ry="2.57143" fill="#DED6FC"/>
<ellipse cx="451.329" cy="540.287" rx="1.56863" ry="1.71429" fill="#DED6FC"/>
<ellipse cx="456.82" cy="541.142" rx="1.56863" ry="1.71429" fill="#DED6FC"/>
<ellipse cx="447.411" cy="547.142" rx="1.56863" ry="1.71429" fill="#DED6FC"/>
<ellipse cx="441.92" cy="547.999" rx="1.56863" ry="1.71429" fill="#DED6FC"/>
<ellipse cx="436.429" cy="548.857" rx="1.56863" ry="1.71429" fill="#DED6FC"/>
<ellipse cx="452.903" cy="547.142" rx="1.56863" ry="1.71429" fill="#DED6FC"/>
<ellipse cx="458.394" cy="547.999" rx="1.56863" ry="1.71429" fill="#DED6FC"/>
<ellipse cx="434.472" cy="542.428" rx="1.96078" ry="2.14286" fill="#DED6FC"/>
<ellipse cx="439.962" cy="541.571" rx="1.96078" ry="2.14286" fill="#DED6FC"/>
<ellipse cx="445.446" cy="540.715" rx="1.96078" ry="2.14286" fill="#DED6FC"/>
<ellipse cx="462.311" cy="541.999" rx="1.56863" ry="1.71429" fill="#DED6FC"/>
<ellipse cx="466.236" cy="533.429" rx="1.56863" ry="1.71429" fill="#DED6FC"/>
<ellipse cx="442.704" cy="504.286" rx="2.35294" ry="2.57143" fill="#DED6FC"/>
<ellipse cx="444.272" cy="514.571" rx="2.35294" ry="2.57143" fill="#DED6FC"/>
<ellipse cx="461.137" cy="533" rx="1.96078" ry="2.14286" fill="#DED6FC"/>
<ellipse cx="455.645" cy="533" rx="1.96078" ry="2.14286" fill="#DED6FC"/>
<path d="M375.573 553.446L373.83 551.541L378.102 546.868L373.83 542.196L375.577 540.287L381.595 546.868L375.573 553.446ZM391.859 554.893H381.564V557.593H391.859V554.893Z" fill="#DED6FC"/>
<g clip-path="url(#clip4_2254_36366)">
<path d="M432.898 408.193L428.424 405.56C428.298 405.486 428.143 405.486 428.017 405.56L421.992 409.102V402.02C421.992 401.872 421.915 401.735 421.789 401.661L417.313 399.028C417.177 398.948 417.008 399.048 417.008 399.208V409.102L410.985 405.56C410.859 405.486 410.704 405.486 410.578 405.56L406.102 408.194C405.966 408.273 405.966 408.473 406.102 408.552L414.515 413.5L406.102 418.447C405.966 418.527 405.966 418.727 406.102 418.806L410.576 421.439C410.702 421.514 410.857 421.514 410.983 421.44L417.008 417.897V424.982C417.008 425.13 417.085 425.267 417.211 425.341L421.687 427.972C421.823 428.052 421.992 427.952 421.992 427.792V417.897L428.015 421.44C428.141 421.514 428.296 421.514 428.422 421.44L432.898 418.806C433.034 418.727 433.034 418.527 432.898 418.447L424.485 413.5L432.898 408.552C433.034 408.473 433.034 408.273 432.898 408.193ZM422.298 415.145L419.5 416.791L416.702 415.145V411.855L419.5 410.209L422.298 411.855V415.145Z" fill="white"/>
</g>
<path d="M366.904 429.512H368.68L372.28 441H370.728L369.8 437.976H365.752L364.824 441H363.32L366.904 429.512ZM367.768 431.352L366.152 436.632H369.384L367.768 431.352ZM378.162 441.176C377.026 441.176 376.178 440.616 375.698 439.768V443.88H374.258V432.632H375.698V433.864C376.178 433.032 377.026 432.472 378.162 432.472C380.402 432.472 381.666 434.456 381.666 436.824C381.666 439.176 380.402 441.176 378.162 441.176ZM375.666 436.552V437.128C375.666 439.048 376.802 439.912 377.874 439.912C379.378 439.912 380.21 438.632 380.21 436.824C380.21 435.016 379.378 433.736 377.874 433.736C376.802 433.736 375.666 434.568 375.666 436.552ZM388.075 441.176C386.939 441.176 386.091 440.616 385.611 439.768V443.88H384.171V432.632H385.611V433.864C386.091 433.032 386.939 432.472 388.075 432.472C390.315 432.472 391.58 434.456 391.58 436.824C391.58 439.176 390.315 441.176 388.075 441.176ZM385.579 436.552V437.128C385.579 439.048 386.715 439.912 387.787 439.912C389.291 439.912 390.123 438.632 390.123 436.824C390.123 435.016 389.291 433.736 387.787 433.736C386.715 433.736 385.579 434.568 385.579 436.552ZM394.037 441V439.768H397.125V430.744H394.037V429.512H398.565V439.768H401.653V441H394.037ZM406.975 431.176V429.512H408.543V431.176H406.975ZM403.951 441V439.768H407.039V433.864H403.951V432.632H408.479V439.768H411.567V441H403.951ZM415.017 436.824C415.017 438.728 416.121 439.912 417.753 439.912C419.033 439.912 419.801 439.176 420.073 438.136L421.289 438.728C420.873 440.12 419.593 441.176 417.737 441.176C415.337 441.176 413.609 439.4 413.609 436.824C413.609 434.232 415.337 432.472 417.737 432.472C419.577 432.472 420.841 433.48 421.273 434.872L420.073 435.496C419.801 434.472 419.033 433.72 417.753 433.72C416.121 433.72 415.017 434.904 415.017 436.824ZM426.226 441.144C424.674 441.144 423.41 440.248 423.41 438.744C423.41 437.08 424.77 436.376 426.626 436.024L428.866 435.592V435.24C428.866 434.28 428.274 433.72 427.09 433.72C426.018 433.72 425.314 434.248 425.026 435.176L423.682 434.824C424.114 433.448 425.362 432.472 427.154 432.472C429.09 432.472 430.274 433.384 430.274 435.176V439.208C430.274 439.848 430.706 439.976 431.298 439.848V441C429.954 441.16 429.154 440.904 428.946 440.024C428.402 440.68 427.426 441.144 426.226 441.144ZM428.866 438.104V436.712L426.994 437.064C425.762 437.304 424.866 437.672 424.866 438.68C424.866 439.496 425.474 439.976 426.434 439.976C427.714 439.976 428.866 439.176 428.866 438.104ZM435.484 438.312V433.864H433.02V432.632H435.484V430.184H436.892V432.632H440.748V433.864H436.892V438.2C436.892 439.336 437.564 439.8 438.892 439.8C439.548 439.8 440.204 439.688 440.796 439.512V440.808C440.236 440.968 439.436 441.096 438.668 441.096C436.924 441.096 435.484 440.36 435.484 438.312ZM446.63 431.176V429.512H448.198V431.176H446.63ZM443.606 441V439.768H446.694V433.864H443.606V432.632H448.134V439.768H451.222V441H443.606ZM460.912 436.824C460.912 439.416 459.312 441.176 457.024 441.176C454.736 441.176 453.136 439.416 453.136 436.824C453.136 434.232 454.736 432.472 457.024 432.472C459.312 432.472 460.912 434.232 460.912 436.824ZM454.592 436.824C454.592 438.728 455.552 439.944 457.024 439.944C458.496 439.944 459.456 438.728 459.456 436.824C459.456 434.904 458.496 433.688 457.024 433.688C455.552 433.688 454.592 434.904 454.592 436.824ZM463.625 441V432.632H465.065V433.768C465.529 433.08 466.377 432.472 467.561 432.472C469.337 432.472 470.345 433.704 470.345 435.48V441H468.905V435.864C468.905 434.696 468.409 433.816 467.161 433.816C466.121 433.816 465.065 434.616 465.065 436.008V441H463.625Z" fill="#DED6FC"/>
<g clip-path="url(#clip5_2254_36366)">
<path d="M206.898 157.193L202.424 154.56C202.298 154.486 202.143 154.486 202.017 154.56L195.992 158.102V151.02C195.992 150.872 195.915 150.735 195.789 150.661L191.313 148.028C191.177 147.948 191.008 148.048 191.008 148.208V158.102L184.985 154.56C184.859 154.486 184.704 154.486 184.578 154.56L180.102 157.194C179.966 157.273 179.966 157.473 180.102 157.552L188.515 162.5L180.102 167.447C179.966 167.527 179.966 167.727 180.102 167.806L184.576 170.439C184.702 170.514 184.857 170.514 184.983 170.44L191.008 166.897V173.982C191.008 174.13 191.085 174.267 191.211 174.341L195.687 176.972C195.823 177.052 195.992 176.952 195.992 176.792V166.897L202.015 170.44C202.141 170.514 202.296 170.514 202.422 170.44L206.898 167.806C207.034 167.727 207.034 167.527 206.898 167.447L198.485 162.5L206.898 157.552C207.034 157.473 207.034 157.273 206.898 157.193ZM196.298 164.145L193.5 165.791L190.702 164.145V160.855L193.5 159.209L196.298 160.855V164.145Z" fill="white"/>
</g>
<path d="M169.904 178.512H171.68L175.28 190H173.728L172.8 186.976H168.752L167.824 190H166.32L169.904 178.512ZM170.768 180.352L169.152 185.632H172.384L170.768 180.352ZM184.17 189.248C184.17 191.696 182.57 193.056 180.282 193.056C178.458 193.056 177.114 192.208 176.65 190.672L177.994 190.16C178.282 191.232 179.13 191.856 180.282 191.856C181.77 191.856 182.73 191.104 182.73 189.36V188.416C182.282 189.232 181.386 189.808 180.218 189.808C177.978 189.808 176.682 187.92 176.682 185.632C176.682 183.36 177.978 181.472 180.218 181.472C181.386 181.472 182.282 182.048 182.73 182.864V181.632H184.17V189.248ZM182.746 185.504C182.746 183.632 181.642 182.736 180.506 182.736C178.986 182.736 178.138 183.872 178.138 185.632C178.138 187.392 178.986 188.544 180.506 188.544C181.642 188.544 182.746 187.648 182.746 185.808V185.504ZM190.835 190.176C188.435 190.176 186.803 188.4 186.803 185.824C186.803 183.328 188.435 181.472 190.771 181.472C193.171 181.472 194.436 183.248 194.436 185.568V186.048H188.195C188.291 187.808 189.331 188.928 190.835 188.928C192.019 188.928 192.851 188.32 193.123 187.328L194.372 187.776C193.844 189.264 192.547 190.176 190.835 190.176ZM190.771 182.704C189.475 182.704 188.547 183.52 188.275 184.944H192.979C192.947 183.76 192.275 182.704 190.771 182.704ZM197.229 190V181.632H198.669V182.768C199.133 182.08 199.981 181.472 201.165 181.472C202.941 181.472 203.949 182.704 203.949 184.48V190H202.509V184.864C202.509 183.696 202.013 182.816 200.765 182.816C199.725 182.816 198.669 183.616 198.669 185.008V190H197.229ZM208.743 187.312V182.864H206.279V181.632H208.743V179.184H210.151V181.632H214.007V182.864H210.151V187.2C210.151 188.336 210.823 188.8 212.151 188.8C212.807 188.8 213.463 188.688 214.055 188.512V189.808C213.495 189.968 212.695 190.096 211.927 190.096C210.183 190.096 208.743 189.36 208.743 187.312Z" fill="#DED6FC"/>
<g clip-path="url(#clip6_2254_36366)">
<path d="M370.002 120.75C370.636 120.75 371.268 120.813 371.89 120.938C373.853 121.314 375.659 122.27 377.074 123.682C378.489 125.095 379.448 126.899 379.827 128.863L380.152 130.55L381.84 130.85C383.544 131.143 385.075 132.068 386.128 133.44C387.181 134.812 387.678 136.53 387.521 138.252C387.363 139.975 386.562 141.574 385.277 142.732C383.993 143.89 382.319 144.521 380.59 144.5H359.377C357.648 144.521 355.974 143.89 354.689 142.732C353.405 141.574 352.604 139.975 352.446 138.252C352.288 136.53 352.785 134.812 353.838 133.44C354.891 132.068 356.423 131.143 358.127 130.85L359.802 130.55L360.127 128.863C360.568 126.57 361.796 124.505 363.6 123.023C365.403 121.541 367.668 120.737 370.002 120.75ZM370.002 118.25C367.093 118.248 364.274 119.26 362.031 121.113C359.788 122.966 358.262 125.543 357.715 128.4C355.412 128.817 353.349 130.079 351.931 131.939C350.512 133.8 349.84 136.123 350.046 138.453C350.253 140.784 351.324 142.953 353.048 144.534C354.772 146.115 357.025 146.995 359.365 147H380.615C382.954 146.995 385.207 146.115 386.931 144.534C388.655 142.953 389.726 140.784 389.933 138.453C390.139 136.123 389.467 133.8 388.049 131.939C386.63 130.079 384.567 128.817 382.265 128.4C381.794 125.942 380.596 123.682 378.827 121.913C377.057 120.143 374.797 118.946 372.34 118.475C371.569 118.329 370.786 118.253 370.002 118.25Z" fill="#CDC2FB"/>
</g>
<rect x="58" y="62" width="84" height="28" rx="14" fill="#DED6FC"/>
<path d="M69.416 70.948H70.97L74.12 81H72.762L71.95 78.354H68.408L67.596 81H66.28L69.416 70.948ZM70.172 72.558L68.758 77.178H71.586L70.172 72.558ZM75.2345 81V79.922H77.2925V74.756H75.2345V73.678H78.5385V75.022C78.9865 74.168 79.9525 73.538 81.1845 73.538C81.6745 73.538 82.0665 73.608 82.3185 73.72V74.966C81.9825 74.854 81.5905 74.77 81.0585 74.77C79.7565 74.77 78.5385 75.652 78.5385 76.996V79.922H81.3105V81H75.2345ZM84.6791 76.072V81H83.5311V73.664H84.6791V74.462C84.9171 73.972 85.3651 73.538 86.0371 73.538C86.6951 73.538 87.1431 73.93 87.3951 74.546C87.6191 74.056 88.1791 73.538 88.9071 73.538C89.9431 73.538 90.5031 74.406 90.5031 75.624V81H89.3411V75.988C89.3411 75.246 89.2011 74.7 88.5571 74.7C87.9971 74.7 87.5911 75.218 87.5911 76.072V81H86.4291V75.988C86.4291 75.246 86.2751 74.7 85.6311 74.7C85.0571 74.7 84.6791 75.218 84.6791 76.072ZM100.516 81V70.948H102.658C105.696 70.948 107.46 72.908 107.46 75.974C107.46 79.04 105.696 81 102.658 81H100.516ZM101.832 79.838H102.658C104.982 79.838 106.13 78.312 106.13 75.974C106.13 73.622 104.982 72.11 102.644 72.11H101.832V79.838ZM111.249 81.126C109.891 81.126 108.785 80.342 108.785 79.026C108.785 77.57 109.975 76.954 111.599 76.646L113.559 76.268V75.96C113.559 75.12 113.041 74.63 112.005 74.63C111.067 74.63 110.451 75.092 110.199 75.904L109.023 75.596C109.401 74.392 110.493 73.538 112.061 73.538C113.755 73.538 114.791 74.336 114.791 75.904V79.432C114.791 79.992 115.169 80.104 115.687 79.992V81C114.511 81.14 113.811 80.916 113.629 80.146C113.153 80.72 112.299 81.126 111.249 81.126ZM113.559 78.466V77.248L111.921 77.556C110.843 77.766 110.059 78.088 110.059 78.97C110.059 79.684 110.591 80.104 111.431 80.104C112.551 80.104 113.559 79.404 113.559 78.466ZM119.069 78.648V74.756H116.913V73.678H119.069V71.536H120.301V73.678H123.675V74.756H120.301V78.55C120.301 79.544 120.889 79.95 122.051 79.95C122.625 79.95 123.199 79.852 123.717 79.698V80.832C123.227 80.972 122.527 81.084 121.855 81.084C120.329 81.084 119.069 80.44 119.069 78.648ZM128.038 81.126C126.68 81.126 125.574 80.342 125.574 79.026C125.574 77.57 126.764 76.954 128.388 76.646L130.348 76.268V75.96C130.348 75.12 129.83 74.63 128.794 74.63C127.856 74.63 127.24 75.092 126.988 75.904L125.812 75.596C126.19 74.392 127.282 73.538 128.85 73.538C130.544 73.538 131.58 74.336 131.58 75.904V79.432C131.58 79.992 131.958 80.104 132.476 79.992V81C131.3 81.14 130.6 80.916 130.418 80.146C129.942 80.72 129.088 81.126 128.038 81.126ZM130.348 78.466V77.248L128.71 77.556C127.632 77.766 126.848 78.088 126.848 78.97C126.848 79.684 127.38 80.104 128.22 80.104C129.34 80.104 130.348 79.404 130.348 78.466Z" fill="black"/>
<rect x="59" y="423" width="126" height="28" rx="14" fill="#DED6FC"/>
<path d="M68.358 442V431.948H69.702V440.824H74.714V442H68.358ZM79.1745 433.404V431.948H80.5465V433.404H79.1745ZM76.5285 442V440.922H79.2305V435.756H76.5285V434.678H80.4905V440.922H83.1925V442H76.5285ZM88.6051 442H87.3591L84.3351 434.678H85.6651L88.0031 440.488L90.3131 434.678H91.6291L88.6051 442ZM96.5656 442.154C94.4656 442.154 93.0376 440.6 93.0376 438.346C93.0376 436.162 94.4656 434.538 96.5096 434.538C98.6096 434.538 99.7156 436.092 99.7156 438.122V438.542H94.2556C94.3396 440.082 95.2496 441.062 96.5656 441.062C97.6016 441.062 98.3296 440.53 98.5676 439.662L99.6596 440.054C99.1976 441.356 98.0636 442.154 96.5656 442.154ZM96.5096 435.616C95.3756 435.616 94.5636 436.33 94.3256 437.576H98.4416C98.4136 436.54 97.8256 435.616 96.5096 435.616ZM112.389 431.948H113.943L117.093 442H115.735L114.923 439.354H111.381L110.569 442H109.253L112.389 431.948ZM113.145 433.558L111.731 438.178H114.559L113.145 433.558ZM118.207 442V440.922H120.265V435.756H118.207V434.678H121.511V436.022C121.959 435.168 122.925 434.538 124.157 434.538C124.647 434.538 125.039 434.608 125.291 434.72V435.966C124.955 435.854 124.563 435.77 124.031 435.77C122.729 435.77 121.511 436.652 121.511 437.996V440.922H124.283V442H118.207ZM127.652 437.072V442H126.504V434.664H127.652V435.462C127.89 434.972 128.338 434.538 129.01 434.538C129.668 434.538 130.116 434.93 130.368 435.546C130.592 435.056 131.152 434.538 131.88 434.538C132.916 434.538 133.476 435.406 133.476 436.624V442H132.314V436.988C132.314 436.246 132.174 435.7 131.53 435.7C130.97 435.7 130.564 436.218 130.564 437.072V442H129.402V436.988C129.402 436.246 129.248 435.7 128.604 435.7C128.03 435.7 127.652 436.218 127.652 437.072ZM143.489 442V431.948H145.631C148.669 431.948 150.433 433.908 150.433 436.974C150.433 440.04 148.669 442 145.631 442H143.489ZM144.805 440.838H145.631C147.955 440.838 149.103 439.312 149.103 436.974C149.103 434.622 147.955 433.11 145.617 433.11H144.805V440.838ZM154.221 442.126C152.863 442.126 151.757 441.342 151.757 440.026C151.757 438.57 152.947 437.954 154.571 437.646L156.531 437.268V436.96C156.531 436.12 156.013 435.63 154.977 435.63C154.039 435.63 153.423 436.092 153.171 436.904L151.995 436.596C152.373 435.392 153.465 434.538 155.033 434.538C156.727 434.538 157.763 435.336 157.763 436.904V440.432C157.763 440.992 158.141 441.104 158.659 440.992V442C157.483 442.14 156.783 441.916 156.601 441.146C156.125 441.72 155.271 442.126 154.221 442.126ZM156.531 439.466V438.248L154.893 438.556C153.815 438.766 153.031 439.088 153.031 439.97C153.031 440.684 153.563 441.104 154.403 441.104C155.523 441.104 156.531 440.404 156.531 439.466ZM162.042 439.648V435.756H159.886V434.678H162.042V432.536H163.274V434.678H166.648V435.756H163.274V439.55C163.274 440.544 163.862 440.95 165.024 440.95C165.598 440.95 166.172 440.852 166.69 440.698V441.832C166.2 441.972 165.5 442.084 164.828 442.084C163.302 442.084 162.042 441.44 162.042 439.648ZM171.01 442.126C169.652 442.126 168.546 441.342 168.546 440.026C168.546 438.57 169.736 437.954 171.36 437.646L173.32 437.268V436.96C173.32 436.12 172.802 435.63 171.766 435.63C170.828 435.63 170.212 436.092 169.96 436.904L168.784 436.596C169.162 435.392 170.254 434.538 171.822 434.538C173.516 434.538 174.552 435.336 174.552 436.904V440.432C174.552 440.992 174.93 441.104 175.448 440.992V442C174.272 442.14 173.572 441.916 173.39 441.146C172.914 441.72 172.06 442.126 171.01 442.126ZM173.32 439.466V438.248L171.682 438.556C170.604 438.766 169.82 439.088 169.82 439.97C169.82 440.684 170.352 441.104 171.192 441.104C172.312 441.104 173.32 440.404 173.32 439.466Z" fill="black"/>
<rect x="264" y="295" width="111" height="108" rx="16" fill="#382193"/>
<g clip-path="url(#clip7_2254_36366)">
<path d="M329.5 331C331.706 331 333.5 329.206 333.5 327C333.5 324.794 331.706 323 329.5 323C327.642 323 326.089 324.28 325.642 326H321.914L327.481 320.433C328.076 320.785 328.76 321 329.5 321C331.706 321 333.5 319.206 333.5 317C333.5 314.794 331.706 313 329.5 313C327.642 313 326.089 314.28 325.642 316H313.358C312.911 314.28 311.358 313 309.5 313C307.294 313 305.5 314.794 305.5 317C305.5 319.206 307.294 321 309.5 321C310.24 321 310.924 320.785 311.519 320.433L317.086 326H313.358C312.911 324.28 311.358 323 309.5 323C307.294 323 305.5 324.794 305.5 327C305.5 329.206 307.294 331 309.5 331C311.358 331 312.911 329.72 313.358 328H317.086L311.519 333.567C310.924 333.215 310.24 333 309.5 333C307.294 333 305.5 334.794 305.5 337C305.5 339.206 307.294 341 309.5 341C311.358 341 312.911 339.72 313.358 338H325.642C326.089 339.72 327.642 341 329.5 341C331.706 341 333.5 339.206 333.5 337C333.5 334.794 331.706 333 329.5 333C328.76 333 328.076 333.215 327.481 333.567L321.914 328H325.642C326.089 329.72 327.642 331 329.5 331ZM329.5 325C330.603 325 331.5 325.898 331.5 327C331.5 328.102 330.603 329 329.5 329C328.397 329 327.5 328.102 327.5 327C327.5 325.898 328.397 325 329.5 325ZM329.5 315C330.603 315 331.5 315.898 331.5 317C331.5 318.102 330.603 319 329.5 319C328.397 319 327.5 318.102 327.5 317C327.5 315.898 328.397 315 329.5 315ZM309.5 319C308.397 319 307.5 318.102 307.5 317C307.5 315.898 308.397 315 309.5 315C310.603 315 311.5 315.898 311.5 317C311.5 318.102 310.603 319 309.5 319ZM309.5 329C308.397 329 307.5 328.102 307.5 327C307.5 325.898 308.397 325 309.5 325C310.603 325 311.5 325.898 311.5 327C311.5 328.102 310.603 329 309.5 329ZM309.5 339C308.397 339 307.5 338.103 307.5 337C307.5 335.897 308.397 335 309.5 335C310.603 335 311.5 335.897 311.5 337C311.5 338.103 310.603 339 309.5 339ZM329.5 335C330.603 335 331.5 335.897 331.5 337C331.5 338.103 330.603 339 329.5 339C328.397 339 327.5 338.103 327.5 337C327.5 335.897 328.397 335 329.5 335ZM326.067 334.981C325.88 335.296 325.736 335.637 325.642 336H313.358C313.264 335.637 313.12 335.296 312.933 334.981L319.5 328.414L326.067 334.981ZM319.5 325.586L312.933 319.019C313.12 318.704 313.264 318.361 313.362 318H325.638C325.736 318.361 325.88 318.704 326.067 319.019L319.5 325.586Z" fill="#CDC2FB"/>
</g>
<path d="M290.226 363H289.298L287.202 353.704V363H285.874V351.512H287.938L289.778 359.784L291.634 351.512H293.65V363H292.322V353.704L290.226 363ZM296.428 363V351.512H297.964V361.656H303.692V363H296.428ZM315.775 363V351.512H318.223C321.695 351.512 323.711 353.752 323.711 357.256C323.711 360.76 321.695 363 318.223 363H315.775ZM317.279 361.672H318.223C320.879 361.672 322.191 359.928 322.191 357.256C322.191 354.568 320.879 352.84 318.207 352.84H317.279V361.672ZM328.361 363.144C326.809 363.144 325.545 362.248 325.545 360.744C325.545 359.08 326.905 358.376 328.761 358.024L331.001 357.592V357.24C331.001 356.28 330.409 355.72 329.225 355.72C328.153 355.72 327.449 356.248 327.161 357.176L325.817 356.824C326.249 355.448 327.497 354.472 329.289 354.472C331.225 354.472 332.409 355.384 332.409 357.176V361.208C332.409 361.848 332.841 361.976 333.433 361.848V363C332.089 363.16 331.289 362.904 331.081 362.024C330.537 362.68 329.561 363.144 328.361 363.144ZM331.001 360.104V358.712L329.129 359.064C327.897 359.304 327.001 359.672 327.001 360.68C327.001 361.496 327.609 361.976 328.569 361.976C329.849 361.976 331.001 361.176 331.001 360.104ZM337.619 360.312V355.864H335.155V354.632H337.619V352.184H339.027V354.632H342.883V355.864H339.027V360.2C339.027 361.336 339.699 361.8 341.027 361.8C341.683 361.8 342.339 361.688 342.931 361.512V362.808C342.371 362.968 341.571 363.096 340.803 363.096C339.059 363.096 337.619 362.36 337.619 360.312ZM348.188 363.144C346.636 363.144 345.372 362.248 345.372 360.744C345.372 359.08 346.732 358.376 348.588 358.024L350.828 357.592V357.24C350.828 356.28 350.236 355.72 349.052 355.72C347.98 355.72 347.276 356.248 346.988 357.176L345.644 356.824C346.076 355.448 347.324 354.472 349.116 354.472C351.052 354.472 352.236 355.384 352.236 357.176V361.208C352.236 361.848 352.668 361.976 353.26 361.848V363C351.916 363.16 351.116 362.904 350.908 362.024C350.364 362.68 349.388 363.144 348.188 363.144ZM350.828 360.104V358.712L348.956 359.064C347.724 359.304 346.828 359.672 346.828 360.68C346.828 361.496 347.436 361.976 348.396 361.976C349.676 361.976 350.828 361.176 350.828 360.104ZM283.909 371.512H285.685L289.285 383H287.733L286.805 379.976H282.757L281.829 383H280.325L283.909 371.512ZM284.773 373.352L283.157 378.632H286.389L284.773 373.352ZM291.407 383V374.632H292.847V375.768C293.311 375.08 294.159 374.472 295.343 374.472C297.119 374.472 298.127 375.704 298.127 377.48V383H296.687V377.864C296.687 376.696 296.191 375.816 294.943 375.816C293.903 375.816 292.847 376.616 292.847 378.008V383H291.407ZM303.577 383.144C302.025 383.144 300.761 382.248 300.761 380.744C300.761 379.08 302.121 378.376 303.977 378.024L306.217 377.592V377.24C306.217 376.28 305.625 375.72 304.441 375.72C303.369 375.72 302.665 376.248 302.377 377.176L301.033 376.824C301.465 375.448 302.713 374.472 304.505 374.472C306.441 374.472 307.625 375.384 307.625 377.176V381.208C307.625 381.848 308.057 381.976 308.649 381.848V383C307.305 383.16 306.505 382.904 306.297 382.024C305.753 382.68 304.777 383.144 303.577 383.144ZM306.217 380.104V378.712L304.345 379.064C303.113 379.304 302.217 379.672 302.217 380.68C302.217 381.496 302.825 381.976 303.785 381.976C305.065 381.976 306.217 381.176 306.217 380.104ZM311.042 383V381.768H314.13V372.744H311.042V371.512H315.57V381.768H318.658V383H311.042ZM324.668 383.912C324.156 385.16 323.5 385.976 322.012 385.976C321.644 385.976 321.484 385.96 321.228 385.912V384.664C321.5 384.728 321.66 384.744 321.916 384.744C322.556 384.744 322.94 384.52 323.308 383.688L323.724 382.728L320.284 374.632H321.804L324.476 381.064L327.116 374.632H328.62L324.668 383.912ZM330.406 381.176L331.59 380.392C332.086 381.368 333.254 381.976 334.518 381.976C335.606 381.976 336.566 381.528 336.566 380.68C336.566 379.736 335.67 379.608 334.054 379.32C332.534 379.032 330.934 378.712 330.934 377C330.934 375.512 332.374 374.472 334.342 374.472C336.038 374.472 337.334 375.24 337.878 376.232L336.774 377.016C336.31 376.168 335.43 375.656 334.214 375.656C333.11 375.656 332.358 376.136 332.358 376.888C332.358 377.672 333.286 377.832 334.582 378.088C336.182 378.424 338.022 378.696 338.022 380.52C338.022 382.12 336.422 383.176 334.438 383.176C332.742 383.176 331.11 382.472 330.406 381.176ZM343.807 373.176V371.512H345.375V373.176H343.807ZM340.783 383V381.768H343.871V375.864H340.783V374.632H345.311V381.768H348.399V383H340.783ZM350.233 381.176L351.417 380.392C351.913 381.368 353.081 381.976 354.345 381.976C355.433 381.976 356.393 381.528 356.393 380.68C356.393 379.736 355.497 379.608 353.881 379.32C352.361 379.032 350.761 378.712 350.761 377C350.761 375.512 352.201 374.472 354.169 374.472C355.865 374.472 357.161 375.24 357.705 376.232L356.601 377.016C356.137 376.168 355.257 375.656 354.041 375.656C352.937 375.656 352.185 376.136 352.185 376.888C352.185 377.672 353.113 377.832 354.409 378.088C356.009 378.424 357.849 378.696 357.849 380.52C357.849 382.12 356.249 383.176 354.265 383.176C352.569 383.176 350.937 382.472 350.233 381.176Z" fill="#DED6FC"/>
<defs>
<clipPath id="clip0_2254_36366">
<rect width="120" height="120" fill="white" transform="translate(40 112)"/>
</clipPath>
<clipPath id="clip1_2254_36366">
<rect width="120" height="120" fill="white" transform="matrix(-1 0 0 1 160 112)"/>
</clipPath>
<clipPath id="clip2_2254_36366">
<rect width="120" height="120" fill="white" transform="matrix(-1 0 0 1 177 469)"/>
</clipPath>
<clipPath id="clip3_2254_36366">
<rect width="27" height="29" fill="white" transform="translate(359 40)"/>
</clipPath>
<clipPath id="clip4_2254_36366">
<rect width="27" height="29" fill="white" transform="translate(406 399)"/>
</clipPath>
<clipPath id="clip5_2254_36366">
<rect width="27" height="29" fill="white" transform="translate(180 148)"/>
</clipPath>
<clipPath id="clip6_2254_36366">
<rect width="40" height="40" fill="white" transform="translate(350 112)"/>
</clipPath>
<clipPath id="clip7_2254_36366">
<rect width="32" height="32" fill="white" transform="translate(303.5 311)"/>
</clipPath>
</defs>
</svg>
