<svg width="319" height="101" viewBox="0 0 319 101" fill="none" xmlns="http://www.w3.org/2000/svg">
<path d="M44 0C50.6 0 57.2 0 64 0C66.7922 6.16642 69.584 12.333 72.375 18.5C72.7978 19.4343 73.2207 20.3686 73.6563 21.3311C78.4672 31.9623 83.2724 42.596 88.0586 53.2383C88.4615 54.1342 88.8645 55.0301 89.2796 55.9532C91.1991 60.2222 93.1175 64.4917 95.0347 68.7617C95.738 70.3268 96.4412 71.8919 97.1445 73.457C97.447 74.1316 97.7495 74.8062 98.0611 75.5013C100.993 82.0239 104.003 88.5057 107 95C107.33 63.65 107.66 32.3 108 0C113.28 0 118.56 0 124 0C124.33 31.35 124.66 62.7 125 95C140.127 61.6329 140.127 61.6329 154.901 28.1152C159.03 18.603 163.254 9.22432 168 0C174.27 0 180.54 0 187 0C193.109 11.9544 198.657 24.0622 204 36.375C204.763 38.1252 205.526 39.8752 206.289 41.625C206.666 42.488 207.042 43.3509 207.43 44.2401C207.991 45.525 207.991 45.525 208.562 46.8359C208.93 47.6799 209.298 48.5238 209.677 49.3932C212.273 55.3431 214.877 61.289 217.5 67.2266C217.838 67.9971 218.177 68.7677 218.526 69.5616C219.877 73.0252 219.877 73.0252 222 76C224.525 70.6896 227.046 65.3769 229.562 60.0625C229.942 59.261 230.322 58.4595 230.713 57.6337C237.01 44.3279 243.162 30.9616 249.176 17.5256C249.472 16.8679 249.768 16.2102 250.073 15.5326C250.864 13.7738 251.652 12.0133 252.439 10.2527C254.121 6.74761 256.071 3.37569 258 0C263.61 0 269.22 0 275 0C280.159 10.1464 285.027 20.3389 289.586 30.7666C296.137 45.7426 302.939 60.5875 309.929 75.3631C310.768 77.1383 311.603 78.9151 312.439 80.6919C313.459 82.8544 314.491 85.0119 315.534 87.1636C315.993 88.1292 316.452 89.0949 316.926 90.0898C317.328 90.9225 317.731 91.7551 318.146 92.613C319 95 319 95 319 100C313.39 100 307.78 100 302 100C297.01 90.1407 292.199 80.2481 287.669 70.1701C286.071 66.6144 284.462 63.0634 282.855 59.5117C282.534 58.7997 282.212 58.0878 281.88 57.3542C278.644 50.1986 275.359 43.0657 272.062 35.9375C271.548 34.8258 271.034 33.7142 270.505 32.5688C269.337 30.0455 268.169 27.5225 267 25C264.923 27.6262 263.348 30.1272 261.998 33.1882C261.633 34.009 261.268 34.8297 260.892 35.6753C260.311 37.002 260.311 37.002 259.719 38.3555C259.308 39.2823 258.898 40.2091 258.475 41.164C257.145 44.1697 255.823 47.1786 254.5 50.1875C253.593 52.2401 252.686 54.2925 251.778 56.3447C247.927 65.0578 244.094 73.7791 240.27 82.5039C239.756 83.6735 239.243 84.8431 238.715 86.0481C237.802 88.1326 236.892 90.2184 235.984 92.3054C235.594 93.1998 235.203 94.0942 234.801 95.0156C234.472 95.7713 234.144 96.5271 233.806 97.3057C233 99 233 99 232 100C230.584 100.087 229.164 100.107 227.746 100.098C226.892 100.094 226.038 100.091 225.158 100.088C224.26 100.08 223.363 100.071 222.438 100.062C221.536 100.058 220.634 100.053 219.705 100.049C217.47 100.037 215.235 100.021 213 100C203.999 81.4829 195.465 62.7662 187 44C186.49 42.8698 185.98 41.7396 185.455 40.5752C182.964 35.0527 180.479 29.5279 178 24C169.569 41.844 161.361 59.7713 153.42 77.8389C153.096 78.5746 152.771 79.3102 152.437 80.0682C151.839 81.4261 151.242 82.7848 150.648 84.1447C148.27 89.5387 145.647 94.7054 143 100C125.18 100 107.36 100 89 100C83.9389 89.1548 78.8842 78.307 73.8486 67.45C73.0369 65.7004 72.2248 63.951 71.4121 62.2019C65.5152 49.509 59.7168 36.7751 54 24C52.476 26.286 51.3528 28.2517 50.2351 30.72C49.8964 31.4648 49.5577 32.2096 49.2087 32.977C48.8446 33.7851 48.4806 34.5932 48.1055 35.4258C47.7213 36.2736 47.3371 37.1214 46.9413 37.9949C45.6871 40.7661 44.4371 43.5392 43.1875 46.3125C42.7633 47.2514 42.339 48.1903 41.9019 49.1577C35.7196 62.8408 29.6414 76.5647 23.7468 90.3743C23.2606 91.5102 22.7744 92.6461 22.2734 93.8164C21.855 94.8007 21.4365 95.785 21.0054 96.7991C20 99 20 99 19 100C17.5843 100.087 16.1644 100.107 14.7461 100.098C13.8921 100.094 13.0381 100.091 12.1582 100.088C11.2604 100.08 10.3625 100.071 9.4375 100.062C8.5358 100.058 7.6341 100.053 6.70508 100.049C4.46999 100.037 2.23503 100.021 0 100C2.35027 92.1454 5.70268 84.8359 9.15012 77.42C10.9494 73.5479 12.7322 69.6684 14.5156 65.7891C15.0697 64.5848 15.0697 64.5848 15.635 63.3563C19.6449 54.6253 23.5475 45.8474 27.4375 37.0625C28.1096 35.5455 28.7817 34.0285 29.4539 32.5115C30.4177 30.336 31.3815 28.1605 32.3449 25.9848C36.1903 17.3053 40.0927 8.65182 44 0Z" fill="black"/>
</svg>
