<svg width="689" height="215" viewBox="0 0 689 215" fill="none" xmlns="http://www.w3.org/2000/svg">
<path fill-rule="evenodd" clip-rule="evenodd" d="M40.7927 171.935C40.1117 172.549 39.1245 172.587 38.3555 172.173C34.9274 169.318 34.3153 168.001 32.4444 165.281C26.7819 171.064 22.7723 172.802 15.4379 172.802C6.75673 172.802 0 167.426 0 156.677C0 148.28 4.53379 142.566 10.9997 139.769C16.5971 137.301 24.4136 136.856 30.3936 136.185V134.842C30.3936 132.374 30.5887 129.465 29.1387 127.335C27.8838 125.432 25.4734 124.649 23.35 124.649C19.4169 124.649 15.92 126.671 15.0591 130.858C14.8831 131.795 14.202 132.716 13.2685 132.766L3.27124 131.679C2.42569 131.484 1.48832 130.808 1.73318 129.515C3.99817 117.519 14.6765 113.778 24.3868 113.678H25.152C30.122 113.739 36.4693 115.105 40.3335 118.828C45.3494 123.529 44.8673 129.799 44.8673 136.634V152.747C44.8673 157.598 46.876 159.724 48.7583 162.333C49.4164 163.277 49.5657 164.398 48.7278 165.085C46.6197 166.858 42.874 170.12 40.8156 171.954L40.7927 171.935ZM30.3936 146.711C30.3936 150.74 30.4892 154.098 28.4615 157.682C26.8239 160.595 24.2185 162.387 21.3222 162.387C17.37 162.387 15.0515 159.363 15.0515 154.885C15.0515 146.074 22.9329 144.47 30.3936 144.47V146.711ZM176.003 171.935C175.322 172.549 174.339 172.587 173.57 172.173C170.142 169.318 169.529 168.001 167.655 165.281C161.996 171.064 157.986 172.802 150.652 172.802C141.967 172.802 135.214 167.426 135.214 156.677C135.214 148.28 139.748 142.566 146.214 139.769C151.807 137.301 159.624 136.856 165.608 136.185V134.842C165.608 132.374 165.803 129.465 164.353 127.335C163.098 125.432 160.688 124.649 158.564 124.649C154.627 124.649 151.134 126.671 150.273 130.858C150.093 131.795 149.416 132.716 148.483 132.766L138.485 131.679C137.64 131.484 136.702 130.808 136.943 129.515C139.212 117.519 149.894 113.778 159.601 113.678H160.366C165.336 113.739 171.68 115.105 175.544 118.828C180.564 123.529 180.078 129.799 180.078 136.634V152.747C180.078 157.598 182.09 159.724 183.973 162.333C184.631 163.277 184.78 164.398 183.938 165.085C181.834 166.858 178.088 170.12 176.03 171.954L176.003 171.935ZM165.608 146.711C165.608 150.74 165.703 154.098 163.676 157.682C162.038 160.595 159.429 162.387 156.536 162.387C152.58 162.387 150.266 159.363 150.266 154.885C150.266 146.074 158.143 144.47 165.608 144.47V146.711ZM303.037 172.065H292.761C291.731 172 290.913 171.179 290.913 170.158L290.894 117.043C290.982 116.069 291.835 115.309 292.875 115.309H302.444C303.343 115.355 304.086 115.969 304.277 116.794V124.914H304.468C307.361 117.65 311.401 114.188 318.525 114.188C323.147 114.188 327.673 115.861 330.561 120.447C333.255 124.691 333.255 131.841 333.255 136.983V170.396C333.14 171.336 332.298 172.065 331.281 172.065H320.939C319.986 172.004 319.217 171.301 319.106 170.396V141.565C319.106 135.755 319.78 127.263 312.656 127.263C310.15 127.263 307.839 128.936 306.683 131.507C305.237 134.749 305.046 137.984 305.046 141.565V170.154C305.027 171.213 304.139 172.065 303.037 172.065ZM259.689 125.029C252.087 125.029 251.605 135.417 251.605 141.899C251.605 148.38 251.509 162.234 259.597 162.234C267.589 162.234 267.972 151.059 267.972 144.247C267.972 139.777 267.781 134.412 266.43 130.168C265.279 126.48 262.964 125.029 259.689 125.029ZM259.597 114.188C274.905 114.188 283.184 127.374 283.184 144.132C283.184 160.334 274.04 173.186 259.597 173.186C244.576 173.186 236.392 159.996 236.392 143.576C236.392 127.036 244.672 114.188 259.597 114.188ZM68.9634 172.065H58.6486C57.6653 172.004 56.8847 171.263 56.8044 170.315L56.8121 117.22C56.8121 116.157 57.7035 115.309 58.8016 115.309H68.4086C69.4111 115.359 70.2183 116.118 70.2833 117.093V124.02H70.4746C72.9768 117.32 77.6981 114.188 84.0492 114.188C90.4998 114.188 94.5439 117.32 97.4325 124.02C99.9385 117.32 105.616 114.188 111.684 114.188C116.015 114.188 120.733 115.976 123.621 119.998C126.893 124.469 126.223 130.946 126.223 136.649L126.215 170.154C126.215 171.213 125.324 172.065 124.222 172.065H113.923C112.886 172 112.075 171.179 112.075 170.158L112.067 142.01C112.067 139.777 112.262 134.189 111.78 132.067C111.007 128.491 108.7 127.485 105.716 127.485C103.21 127.485 100.612 129.158 99.5521 131.841C98.4923 134.527 98.588 138.99 98.588 142.01V170.154C98.588 171.213 97.7004 172.065 96.5985 172.065H86.2951C85.2621 172 84.4433 171.179 84.4433 170.158L84.4357 142.01C84.4357 136.089 85.396 127.374 78.0807 127.374C70.666 127.374 70.9567 135.862 70.9567 142.01L70.9529 170.154C70.9529 171.213 70.0615 172.065 68.9634 172.065ZM192.635 124.676V117.093C192.642 115.934 193.507 115.167 194.551 115.171L228.457 115.167C229.54 115.167 230.409 115.957 230.409 117.078V123.586C230.401 124.68 229.483 126.104 227.857 128.364L210.295 153.515C216.815 153.361 223.709 154.34 229.636 157.678C230.967 158.434 231.327 159.547 231.43 160.641V168.738C231.43 169.851 230.213 171.144 228.936 170.473C218.498 164.989 204.652 164.39 193.113 170.538C191.934 171.167 190.699 169.893 190.699 168.776V161.082C190.699 159.85 190.725 157.744 191.961 155.867L212.308 126.591L194.594 126.587C193.511 126.587 192.642 125.816 192.635 124.676ZM214.806 183.225C212.331 180.043 198.435 181.716 192.195 182.469C190.301 182.695 190.01 181.037 191.713 179.836C202.796 172.031 220.958 174.283 223.07 176.9C225.194 179.537 222.508 197.799 212.124 206.514C210.529 207.854 209.006 207.14 209.718 205.371C212.055 199.515 217.289 186.406 214.806 183.225ZM206.749 192.45C187.385 206.787 159.314 214.408 135.141 214.408C101.262 214.408 70.754 201.844 47.668 180.937C45.8583 179.295 47.4728 177.054 49.6537 178.324C74.5608 192.861 105.364 201.618 137.177 201.618C158.637 201.618 182.228 197.151 203.933 187.914C207.208 186.521 209.951 190.078 206.749 192.45Z" fill="black"/>
<path d="M668.744 166.106C663.633 166.194 659.367 165.215 654.324 162.234L650.95 168.934C656.111 172.257 661.004 173.301 669.265 173.301C675.719 173.301 681.6 170.845 685.001 167.103C687.576 164.271 688.678 160.676 688.678 156.942C688.678 148.73 684.025 144.754 676.572 141.051L669.357 137.559C665.576 135.671 662.887 133.318 662.887 128.556C662.887 125.355 665.909 122.147 672.383 122.147C676.389 122.04 682.166 122.942 686.925 125.57V117.772C683.076 115.758 678.294 114.726 672.104 114.798C658.758 114.798 654.221 122.968 654.221 129.431C654.221 138.157 658.824 141.803 664.628 145.003L672.314 148.572C676.932 151.243 679.515 153.737 679.515 157.652C679.515 163.465 674.323 166.106 668.744 166.106ZM631.12 114.791C636.985 114.791 642.2 115.858 646.293 118.421V126.537C641.733 123.778 637.387 122.408 631.009 122.408C620.411 122.408 613.268 131.852 613.268 143.902C613.268 156.186 619.799 165.549 630.745 165.549C636.931 165.549 641.002 164.486 645.398 161.336L648.199 167.771C643.263 171.221 636.575 173.286 630.255 173.286C613.401 173.286 604.51 160.173 604.51 144.232C604.51 129.312 613.991 114.791 631.12 114.791ZM590.537 71.4233C592.018 71.4233 595.27 72.0564 595.236 72.0488C600.305 72.8009 605.176 71.8032 608.902 68.0655C611.615 65.3447 613.486 62.0445 613.497 58.4641C613.501 57.6927 613.421 56.9905 613.29 56.3227C612.449 54.1968 611.982 51.8751 611.982 49.4421C611.982 46.8403 612.514 44.369 613.474 42.1202C614.71 37.8337 613.233 34.8711 610.513 31.4481C608.018 28.9461 604.365 27.6644 600.531 28.006C599.207 28.4128 597.803 28.6315 596.349 28.6315C588.464 28.6315 582.074 22.2229 582.074 14.3177C582.074 6.40863 588.464 0 596.349 0C604.227 0 610.616 6.40863 610.616 14.3177C610.616 15.9294 610.352 17.4797 609.862 18.9264C609.143 24.2222 610.471 26.0488 612.464 29.0574C615.127 31.7283 618.586 33.9731 622.507 32.6646C624.933 31.4941 627.653 30.8343 630.53 30.8343C640.776 30.8343 649.079 39.1653 649.079 49.4421C649.079 59.7151 640.776 68.0463 630.53 68.0463C628.453 68.0463 626.452 67.7009 624.585 67.0677C625.446 67.3555 622.19 66.661 621.975 66.638C617.522 66.1544 614.951 67.6395 611.515 71.0894C608.336 74.2783 607.467 77.7129 607.609 82.7439C607.678 85.0771 608.389 86.8154 608.389 89.3251C608.389 99.2143 600.397 107.231 590.537 107.231C580.678 107.231 572.689 99.2143 572.689 89.3251C572.689 79.4359 580.678 71.4233 590.537 71.4233ZM596.33 20.9257C599.98 20.9257 602.941 17.9555 602.941 14.2907C602.941 10.6297 599.98 7.65961 596.33 7.65961C592.676 7.65961 589.715 10.6297 589.715 14.2907C589.715 17.9555 592.676 20.9257 596.33 20.9257ZM630.412 37.4155C623.82 37.4155 618.475 42.7764 618.475 49.3884C618.475 56.0004 623.82 61.3614 630.412 61.3614C637 61.3614 642.345 56.0004 642.345 49.3884C642.345 42.7764 637 37.4155 630.412 37.4155ZM622.121 49.3884C622.121 44.7949 625.832 41.0726 630.412 41.0726C634.991 41.0726 638.699 44.7949 638.699 49.3884C638.699 53.978 634.991 57.7004 630.412 57.7004C625.832 57.7004 622.121 53.978 622.121 49.3884ZM513.551 114.791C529.823 114.791 538.982 127.903 538.982 144.078C538.982 160.254 530.404 173.362 513.551 173.362C496.697 173.362 488.12 160.254 488.12 144.078C488.12 127.903 497.279 114.791 513.551 114.791ZM529.972 143.979C529.972 131.929 524.926 122.258 513.551 122.258C502.176 122.258 497.034 131.929 497.034 143.979C497.034 156.028 502.704 165.703 513.647 165.703C524.593 165.703 529.972 156.028 529.972 143.979ZM403.665 114.791C419.937 114.791 429.1 127.903 429.1 144.078C429.1 160.254 420.518 173.362 403.665 173.362C386.815 173.362 378.233 160.254 378.233 144.078C378.233 127.903 387.393 114.791 403.665 114.791ZM420.086 143.979C420.086 131.929 415.043 122.258 403.665 122.258C392.29 122.258 387.148 131.929 387.148 143.979C387.148 156.028 392.818 165.703 403.764 165.703C414.707 165.703 420.086 156.028 420.086 143.979ZM593.996 116.295V172.107H585.472V116.295C588.284 116.541 591.238 116.544 593.996 116.295ZM436.637 169.813V88.3082H445.387V117.393C467.203 108.455 484.137 122.746 482.327 145.015C481.057 161.19 470.509 172.668 452.725 173.362C447.208 173.362 440.176 172.269 436.637 169.813ZM445.387 125.693V164.294C463.381 170.077 472.77 156.811 473.711 144.762C474.79 125.344 460.645 118.36 445.387 125.693ZM349.791 172.104V116.145H356.861L358.128 122.496C366.87 114.012 374.472 113.24 379.668 116.426L376.03 124.864C370.448 122.773 364.816 124.377 358.43 130.628V172.104H349.791ZM550.866 160.86V123.655H541.951V116.092H550.866V103.934L559.616 100.914V116.092H576.722L573.496 123.655H559.616V159.325C559.616 162.802 561.15 165.549 564.796 165.549C568.829 165.549 571.89 163.607 574.889 161.497L577.751 167.817C572.582 170.972 569.207 173.278 562.566 173.278C553.93 173.278 550.866 167.844 550.866 160.86Z" fill="#F77913"/>
</svg>
