<svg width="176" height="32" viewBox="0 0 176 32" fill="none" xmlns="http://www.w3.org/2000/svg">
<g clip-path="url(#clip0_4149_2827)">
<path d="M13.2297 0.076849C13.1576 0.149006 13.1034 0.67215 13.1034 1.23137C13.1034 3.77493 12.1293 7.54516 10.7403 10.3232C9.5136 12.7585 8.46731 14.1837 6.4469 16.2041C4.89551 17.7555 3.92138 18.4951 1.4139 20.0645L0.65625 20.5335L1.21547 21.67C2.56843 24.3579 5.1661 27.3163 7.56534 28.8858C13.8972 33.0709 22.069 33.0348 28.3106 28.7956C29.6456 27.8936 31.5938 26.0536 32.5679 24.7908C33.4699 23.6183 34.9311 21.1108 34.9311 20.7139C34.9311 20.5696 34.444 20.1727 33.8487 19.848C30.1146 17.7915 26.7773 14.2558 24.811 10.2691C23.422 7.43692 22.7365 4.91141 22.502 1.68236L22.3937 0.0588093L17.8658 0.00469208C15.3764 -0.0133476 13.3019 0.0227299 13.2297 0.076849ZM20.7882 3.59453C21.8165 10.684 25.5506 16.6009 31.5577 20.6959C32.0268 21.0026 32.4056 21.3453 32.4056 21.4175C32.4056 21.6159 31.1248 23.492 30.4393 24.3218L29.9162 24.9532L28.8518 24.2316C21.7443 19.4151 17.036 11.604 16.2423 3.25178L16.116 1.93491L18.3529 1.98903L20.5717 2.04314L20.7882 3.59453ZM14.8352 6.58907C15.214 8.19458 15.6831 9.87224 16.1701 11.1711L16.7113 12.6503L15.8815 14.2017C14.7089 16.4025 13.3019 18.3147 11.065 20.6598C8.90026 22.9328 8.30496 23.961 8.19672 25.5665C8.1426 26.1077 8.03436 26.5767 7.90809 26.6308C7.38495 26.7932 3.36216 22.121 3.36216 21.3453C3.36216 21.219 3.70491 20.8943 4.13785 20.6237C8.53947 17.7194 12.1113 13.0111 13.825 7.85183C14.1497 6.89574 14.4744 6.10201 14.5646 6.10201C14.6548 6.10201 14.7631 6.31848 14.8352 6.58907ZM19.1827 17.0519C19.8862 18.1343 21.0949 19.7037 21.8525 20.5876C22.6102 21.4535 23.1875 22.2292 23.1333 22.3194C22.9529 22.59 20.8243 23.3657 19.6337 23.6002C17.6313 23.9971 14.5646 23.51 12.9591 22.5179L12.3638 22.1571L13.7348 20.5696C14.4925 19.7037 15.7011 18.1343 16.4046 17.0519C17.1082 15.9876 17.7396 15.1217 17.7937 15.1217C17.8478 15.1217 18.4792 15.9876 19.1827 17.0519ZM14.5466 25.2418C15.6109 25.5846 16.3144 25.6567 17.8839 25.6567C20.1568 25.6567 21.8165 25.2418 23.6926 24.2316L24.811 23.6183L26.5428 24.8991C27.4808 25.6026 28.2565 26.252 28.2565 26.3242C28.2565 26.5587 25.6589 28.1642 24.4683 28.6693C20.4455 30.365 16.2784 30.4913 12.2556 29.0481C10.9567 28.5791 10.8124 28.4889 10.4516 27.7493C9.8383 26.5587 9.94654 24.7547 10.6862 23.943C10.9567 23.6363 11.0289 23.6543 12.0752 24.2316C12.6885 24.5563 13.807 25.0253 14.5466 25.2418Z" fill="#697077"/>
<path d="M45.7729 12.6321C44.0592 17.2322 42.1831 22.2652 41.5878 23.8346C41.0105 25.386 40.5234 26.7209 40.5234 26.775C40.5234 26.8111 41.5517 26.8291 42.7964 26.8111L45.0694 26.757L45.376 25.9452C45.5564 25.4942 45.9533 24.4299 46.296 23.546L46.8913 21.9765L51.5094 22.0126L56.1275 22.0667L57.0114 24.4479L57.8954 26.8472H60.2225C61.4852 26.8472 62.5315 26.8111 62.5315 26.775C62.5315 26.6487 54.955 6.40853 54.522 5.38028L54.1071 4.38811L51.5094 4.334L48.8937 4.27988L45.7729 12.6321ZM53.0608 13.7686C53.8906 16.0416 54.5581 17.9177 54.522 17.9537C54.4859 17.9898 53.0969 17.9898 51.4192 17.9718L48.3706 17.9177L49.8859 13.7145C50.7157 11.4054 51.4373 9.54738 51.4553 9.58346C51.4914 9.61954 52.213 11.4956 53.0608 13.7686Z" fill="#697077"/>
<path d="M64.7314 15.5185L64.7855 26.757L66.9863 26.8111L69.2052 26.8652L69.2412 19.1624L69.2954 11.4596L71.8209 15.1757C73.2099 17.2322 75.555 20.6958 77.0523 22.8785L79.7402 26.8652L81.7425 26.8111L83.7269 26.757V15.5726V4.38814L81.5261 4.33402L79.3072 4.27991L79.2711 11.6219L79.217 18.9459L74.3464 11.6219L69.4758 4.31598L67.0765 4.29795H64.6953L64.7314 15.5185Z" fill="#697077"/>
<path d="M87.7015 4.51456C87.6474 4.64083 87.6294 9.69187 87.6474 15.7531L87.7015 26.7571L92.031 26.8113C97.3165 26.8654 98.8679 26.6489 101.141 25.5485C104.821 23.7626 106.733 20.3712 106.733 15.5727C106.733 9.96246 104.045 6.19222 99.0483 4.73103C97.6051 4.31613 87.8458 4.11769 87.7015 4.51456ZM98.2185 8.77186C99.7157 9.34912 100.672 10.2511 101.429 11.7844C102.007 12.975 102.097 13.3358 102.187 14.8511C102.35 17.8818 101.52 20.1547 99.7699 21.4716C98.3989 22.5179 97.6051 22.7344 94.7008 22.8426L92.1212 22.9147V15.5727V8.23067L94.7008 8.30283C96.7392 8.37499 97.4608 8.46519 98.2185 8.77186Z" fill="#697077"/>
<path d="M109.288 12.0912C109.361 18.7116 109.415 20.0646 109.667 20.9485C110.569 24.0333 112.536 25.9815 115.584 26.7753C117.082 27.1721 119.986 27.1721 121.465 26.7933C124.82 25.9094 126.949 23.7086 127.562 20.4254C127.779 19.3611 127.833 17.3948 127.833 11.6763V4.29816H125.596H123.359L123.287 11.8206C123.215 18.3509 123.161 19.4693 122.908 20.1548C122.205 21.9948 120.996 22.8787 118.994 23.0231C117.298 23.1313 116.36 22.8246 115.386 21.8325C114.051 20.4434 114.051 20.5156 113.997 11.9108L113.925 4.29816H111.579H109.234L109.288 12.0912Z" fill="#697077"/>
<path d="M131.438 15.5545V26.8652L133.747 26.8111L136.038 26.757L136.092 22.644L136.128 18.5491L137.715 18.5671H139.285L141.81 22.6621L144.336 26.757L146.915 26.8111C148.395 26.8292 149.477 26.7931 149.477 26.6848C149.477 26.5405 147.637 23.6001 145.22 19.8659C144.678 19.0361 144.227 18.2785 144.209 18.1702C144.173 18.062 144.57 17.8275 145.057 17.6291C146.176 17.2142 147.529 16.0596 148.124 15.0314C148.755 13.9851 149.17 11.8925 149.008 10.6298C148.647 7.59916 147.132 5.75914 144.245 4.80305C143.163 4.44226 142.622 4.40618 137.264 4.33402L131.438 4.26187V15.5545ZM142.911 8.75368C144.011 9.34898 144.336 9.92624 144.336 11.4235C144.336 12.9027 144.029 13.462 142.893 14.0933C142.243 14.4361 141.828 14.4902 139.158 14.5443L136.128 14.6165V11.4235V8.23053L139.158 8.30269C141.846 8.35681 142.243 8.41093 142.911 8.75368Z" fill="#697077"/>
<path d="M152.188 15.5725V26.8472H154.442H156.697V15.5725V4.29792H154.442H152.188V15.5725Z" fill="#697077"/>
<path d="M160.672 15.5725V26.8472L168.122 26.8111L175.554 26.757L175.608 24.8268L175.663 22.8785L170.467 22.8424L165.272 22.7883L165.218 13.5341L165.182 4.29792H162.927H160.672V15.5725Z" fill="#697077"/>
</g>
<defs>
<clipPath id="clip0_4149_2827">
<rect width="175" height="32" fill="white" transform="translate(0.65625)"/>
</clipPath>
</defs>
</svg>
