<svg width="640" height="126" viewBox="0 0 640 126" fill="none" xmlns="http://www.w3.org/2000/svg">
<path d="M121.281 15.9077C127.527 15.9077 133.772 15.9077 140.207 15.9077C140.711 17.3078 141.215 18.7079 141.735 20.1504C142.918 23.4301 144.112 26.7051 145.323 29.9744C146.52 33.2068 147.697 36.4459 148.861 39.6902C148.94 39.908 149.018 40.1258 149.096 40.3435C149.154 40.5043 149.154 40.5043 149.213 40.6683C149.402 41.1968 149.592 41.7254 149.782 42.2539C149.819 42.3561 149.855 42.4583 149.893 42.5636C150.522 44.3151 151.157 46.0644 151.799 47.8113C151.844 47.9336 151.889 48.0559 151.935 48.1819C152.123 48.694 152.311 49.206 152.5 49.718C153.208 51.6456 153.914 53.5743 154.619 55.5031C154.736 55.824 154.854 56.1449 154.971 56.4658C156.15 59.6884 157.32 62.9137 158.488 66.1403C159.683 69.4429 160.894 72.7395 162.113 76.0336C162.178 76.209 162.243 76.3844 162.31 76.5652C162.436 76.9067 162.562 77.2481 162.689 77.5896C163.168 78.8849 163.641 80.1822 164.11 81.4811C164.159 81.615 164.207 81.7489 164.257 81.8868C164.299 82.004 164.342 82.1212 164.385 82.242C164.493 82.5391 164.493 82.5391 164.652 82.8452C164.692 82.7361 164.731 82.6269 164.771 82.5145C166.462 77.7993 168.154 73.0847 169.89 68.3855C170.852 65.7803 171.801 63.1706 172.745 60.559C173.841 57.5293 174.948 54.5043 176.067 51.483C177.371 47.9611 178.649 44.4304 179.917 40.8956C180.105 40.373 180.292 39.8504 180.48 39.3278C180.517 39.2252 180.554 39.1226 180.592 39.0168C181.833 35.5602 183.1 32.1126 184.367 28.6652C184.471 28.6652 184.575 28.6652 184.682 28.6652C185.218 30.1286 185.753 31.592 186.289 33.0555C186.329 33.1665 186.37 33.2775 186.412 33.3918C187.309 35.8458 188.206 38.3001 189.097 40.7566C189.204 41.0523 189.311 41.3479 189.419 41.6435C189.765 42.5983 190.11 43.5536 190.451 44.51C191.067 46.227 191.698 47.9311 192.393 49.6176C192.567 50.0517 192.741 50.4861 192.915 50.9207C193.073 51.3082 193.242 51.69 193.412 52.0727C194.031 53.5594 194.044 54.5372 193.438 56.0318C193.319 56.3115 193.199 56.5907 193.077 56.8694C192.711 57.7404 192.411 58.6361 192.098 59.5272C191.955 59.9299 191.81 60.3321 191.665 60.7343C191.59 60.9434 191.514 61.1525 191.439 61.3616C191.401 61.4672 191.363 61.5727 191.324 61.6814C191.246 61.8998 191.167 62.1183 191.088 62.3367C189.874 65.7131 188.643 69.0827 187.397 72.4472C186.29 75.4344 185.205 78.429 184.13 81.4277C182.989 84.6099 181.835 87.7866 180.66 90.9565C179.068 95.2526 177.516 99.5628 175.97 103.876C175.357 105.583 174.738 107.287 174.115 108.99C172.429 109.005 170.742 109.016 169.056 109.023C168.273 109.026 167.489 109.031 166.706 109.038C165.948 109.045 165.19 109.048 164.433 109.05C164.145 109.051 163.858 109.053 163.571 109.057C160.369 109.094 157.612 108.463 155.207 106.196C153.542 104.552 152.753 102.532 151.981 100.366C151.918 100.19 151.855 100.014 151.789 99.8334C151.617 99.3565 151.446 98.8793 151.275 98.4021C150.98 97.5778 150.682 96.7542 150.385 95.9305C150.308 95.7178 150.231 95.5051 150.154 95.2924C149.42 93.2578 148.672 91.2283 147.921 89.2001C146.632 85.722 145.366 82.2363 144.114 78.7447C143.011 75.6694 141.894 72.5999 140.759 69.5365C139.545 66.261 138.354 62.9779 137.175 59.6897C135.897 56.1244 134.598 52.567 133.281 49.0156C132.423 46.6992 131.578 44.3783 130.744 42.0527C129.868 44.2488 129.062 46.4681 128.264 48.6934C127.88 49.7623 127.495 50.8307 127.11 51.8989C127.071 52.008 127.031 52.1171 126.991 52.2295C126.18 54.4755 125.354 56.7155 124.524 58.9544C123.307 62.2406 122.113 65.5346 120.93 68.8333C119.827 71.9086 118.71 74.9781 117.575 78.0415C115.983 82.3376 114.431 86.6478 112.885 90.9606C112.272 92.6675 111.653 94.372 111.03 96.0752C110.874 96.0752 110.718 96.0752 110.557 96.0752C110.498 95.9115 110.498 95.9115 110.438 95.7445C108.05 89.0809 108.05 89.0809 105.622 82.432C105.451 81.9702 105.281 81.5083 105.111 81.0464C104.645 79.7787 104.178 78.5111 103.706 77.2452C103.384 76.3807 103.065 75.5154 102.746 74.6496C102.625 74.322 102.503 73.9946 102.381 73.6676C102.212 73.2176 102.046 72.7667 101.881 72.3155C101.83 72.183 101.78 72.0505 101.728 71.9139C101.683 71.7904 101.639 71.6668 101.593 71.5396C101.553 71.4334 101.514 71.3273 101.473 71.218C101.329 70.4447 101.623 69.7135 101.883 68.9926C101.949 68.8099 102.014 68.6273 102.082 68.4391C102.154 68.2405 102.226 68.0419 102.298 67.8433C102.374 67.6352 102.449 67.427 102.524 67.2189C102.724 66.6626 102.926 66.1068 103.127 65.551C103.296 65.0873 103.463 64.6235 103.631 64.1596C104.6 61.4752 105.578 58.7937 106.571 56.1178C107.389 53.9112 108.189 51.6979 108.99 49.4847C110.098 46.419 111.219 43.3578 112.351 40.3005C113.571 37.0058 114.768 33.7034 115.954 30.3963C117.126 27.1263 118.313 23.8619 119.517 20.6032C119.625 20.3117 119.625 20.3117 119.734 20.0144C119.935 19.47 120.137 18.9258 120.338 18.3816C120.397 18.2213 120.457 18.061 120.518 17.8959C120.573 17.7483 120.627 17.6008 120.684 17.4488C120.731 17.3214 120.778 17.1941 120.827 17.0629C120.973 16.6759 121.127 16.2919 121.281 15.9077Z" fill="#FF524A"/>
<path d="M53.4647 15.9077C59.7102 15.9077 65.9556 15.9077 72.3903 15.9077C74.1836 20.8078 75.9761 25.7081 77.7526 30.6143C78.6846 33.1884 79.6187 35.7617 80.5618 38.3318C80.6091 38.4607 80.6564 38.5895 80.7051 38.7223C80.7521 38.8505 80.7992 38.9786 80.8476 39.1106C81.5334 40.9797 82.2168 42.8496 82.8979 44.7204C82.9748 44.9314 82.9748 44.9314 83.0532 45.1467C83.7088 46.9473 84.3624 48.7485 85.0148 50.5503C85.2948 51.3239 85.5749 52.0974 85.8551 52.871C85.9255 53.0654 85.9958 53.2597 86.0684 53.46C87.0783 56.2482 88.0968 59.0331 89.1232 61.8153C90.1617 64.631 91.1852 67.452 92.2059 70.2742C93.2319 73.1104 94.2705 75.9416 95.3179 78.7699C96.5381 82.0654 97.7355 85.3686 98.9216 88.6765C100.054 91.8344 101.201 94.9863 102.366 98.1326C104.214 103.129 104.214 103.129 105.098 105.575C105.194 105.84 105.291 106.106 105.387 106.372C105.517 106.729 105.646 107.086 105.774 107.444C105.812 107.547 105.85 107.65 105.889 107.757C106.044 108.193 106.141 108.523 106.141 108.99C104.475 109.005 102.809 109.016 101.143 109.023C100.369 109.026 99.5957 109.031 98.8219 109.038C98.0734 109.045 97.3249 109.048 96.5763 109.05C96.2926 109.051 96.0088 109.053 95.7251 109.057C92.386 109.096 89.6023 108.354 87.1396 105.963C85.9473 104.649 85.2679 103.268 84.6661 101.618C84.6052 101.453 84.5443 101.289 84.4816 101.119C84.2875 100.593 84.0952 100.067 83.9034 99.5402C83.8418 99.3715 83.7803 99.2029 83.7168 99.0291C83.3327 97.9752 82.9512 96.9204 82.5706 95.8653C82.2093 94.8643 81.8472 93.8636 81.4847 92.8631C81.4475 92.7605 81.4103 92.6579 81.372 92.5522C80.5761 90.3564 79.7663 88.1658 78.9551 85.9755C77.7346 82.6794 76.5371 79.3757 75.3508 76.0672C74.2481 72.9919 73.1314 69.9224 71.996 66.859C70.8115 63.6628 69.6477 60.4598 68.4968 57.2515C67.384 54.1499 66.2647 51.0511 65.1256 47.959C65.039 47.7238 65.039 47.7238 64.9507 47.4839C64.2828 45.6711 63.6092 43.8604 62.9275 42.0527C61.5746 45.6974 60.2425 49.3494 58.9202 53.0053C57.882 55.8752 56.8312 58.7403 55.7713 61.6024C54.551 64.8979 53.3537 68.201 52.1677 71.5088C50.9075 75.0231 49.6283 78.5298 48.3295 82.03C47.2382 84.9736 46.1736 87.925 45.1059 90.8777C49.9461 90.9297 54.7864 90.9817 59.7733 91.0352C59.4184 92.6298 59.4184 92.6298 59.2115 93.1846C59.1647 93.3114 59.118 93.4381 59.0698 93.5687C59.0194 93.7027 58.9689 93.8367 58.9169 93.9748C58.8629 94.1208 58.8088 94.2667 58.7531 94.4171C58.5748 94.8979 58.3953 95.3783 58.2158 95.8587C57.9598 96.548 57.7043 97.2375 57.4488 97.9271C57.3822 98.1066 57.3156 98.2861 57.2469 98.4711C56.7374 99.8455 56.2347 101.222 55.7349 102.6C55.662 102.801 55.589 103.002 55.5161 103.203C55.2313 103.988 54.9468 104.773 54.6629 105.559C54.4657 106.104 54.2681 106.649 54.0703 107.194C53.9816 107.44 53.9816 107.44 53.891 107.691C53.8369 107.84 53.7828 107.989 53.7271 108.142C53.68 108.272 53.6329 108.403 53.5843 108.537C53.4647 108.833 53.4647 108.833 53.307 108.99C52.8743 109.006 52.4455 109.011 52.0127 109.009C51.8754 109.009 51.7381 109.009 51.5966 109.01C51.1329 109.01 50.6691 109.009 50.2054 109.008C49.8744 109.008 49.5434 109.008 49.2124 109.008C48.3108 109.008 47.4092 109.007 46.5076 109.006C45.5665 109.005 44.6255 109.005 43.6844 109.005C41.9009 109.004 40.1174 109.003 38.334 109.002C36.3041 109 34.2743 108.999 32.2445 108.998C28.0677 108.996 23.8909 108.994 19.7141 108.99C19.7635 108.763 19.8132 108.537 19.863 108.31C19.8906 108.184 19.9183 108.057 19.9467 107.927C20.0437 107.512 20.1707 107.116 20.3168 106.716C20.3725 106.562 20.4283 106.407 20.4857 106.249C20.546 106.085 20.6063 105.921 20.6684 105.752C20.7325 105.575 20.7965 105.399 20.8625 105.217C21.0371 104.737 21.2125 104.258 21.3883 103.778C21.5365 103.373 21.684 102.968 21.8315 102.563C23.0399 99.2454 24.2634 95.9331 25.4884 92.6213C26.2986 90.4298 27.0985 88.235 27.884 86.0346C28.7893 83.4999 29.7235 80.976 30.6575 78.4517C31.8676 75.182 31.8676 75.182 33.0409 71.899C33.8172 69.6879 34.6322 67.4914 35.446 65.2938C36.66 62.0156 37.8543 58.7309 39.034 55.4402C40.2586 52.0245 41.5003 48.6159 42.7606 45.2131C43.7128 42.6416 44.6528 40.0662 45.5791 37.4852C46.7016 34.3578 47.8447 31.2383 49.0001 28.1229C50.5057 24.0573 51.9813 19.9817 53.4647 15.9077Z" fill="#FF524A"/>
<path d="M290.665 15.9077C294.308 15.9077 297.952 15.9077 301.705 15.9077C301.757 25.4711 301.809 35.0345 301.863 44.8877C302.956 43.7962 302.956 43.7962 304.071 42.6827C307.583 40.001 312.048 38.2693 316.502 38.2407C316.617 38.2396 316.733 38.2385 316.852 38.2374C317.224 38.2346 317.597 38.2336 317.969 38.2333C318.097 38.2332 318.224 38.2331 318.356 38.233C320.36 38.2357 322.291 38.3362 324.258 38.7452C324.391 38.7714 324.525 38.7976 324.662 38.8246C330.95 40.0827 336.83 43.3796 340.477 48.7466C342.673 52.0756 344.024 55.7483 344.603 59.6927C344.629 59.863 344.656 60.0333 344.683 60.2087C345.002 62.6068 344.968 65.0152 344.966 67.4295C344.966 67.9377 344.967 68.446 344.968 68.9543C344.969 70.1563 344.969 71.3583 344.968 72.5603C344.967 73.7891 344.969 75.0178 344.973 76.2465C344.976 77.3114 344.976 78.3764 344.976 79.4413C344.976 80.0729 344.976 80.7045 344.978 81.3361C345 88.15 344.198 95.3205 339.714 100.8C339.645 100.886 339.575 100.972 339.503 101.06C334.992 106.595 328.47 109.479 321.436 110.222C320.463 110.304 319.487 110.303 318.512 110.3C318.129 110.299 317.745 110.303 317.361 110.307C315.128 110.316 312.992 110.015 310.853 109.354C310.722 109.315 310.592 109.275 310.457 109.233C307.599 108.324 305.226 106.828 302.972 104.869C302.895 104.802 302.818 104.735 302.738 104.666C302.418 104.348 302.145 103.987 301.863 103.635C301.811 105.402 301.759 107.17 301.705 108.99C298.062 108.99 294.419 108.99 290.665 108.99C290.665 78.273 290.665 47.5558 290.665 15.9077ZM305.607 53.6954C302.862 56.9718 301.686 60.6343 301.677 64.8857C301.676 65.1089 301.675 65.332 301.674 65.5552C301.671 66.2857 301.669 67.0162 301.668 67.7467C301.667 67.9998 301.666 68.2528 301.666 68.5058C301.663 69.6963 301.66 70.8867 301.659 72.0772C301.658 73.4432 301.653 74.8091 301.647 76.1751C301.642 77.2359 301.64 78.2966 301.639 79.3574C301.639 79.9885 301.638 80.6195 301.634 81.2506C301.601 86.6401 302.259 91.3386 306.21 95.3868C309.676 98.6821 314.055 99.7806 318.717 99.7316C322.906 99.6277 326.681 97.9078 329.729 95.0908C332.712 91.9267 333.9 87.9137 333.904 83.6442C333.905 83.4218 333.906 83.1994 333.906 82.9771C333.909 82.375 333.91 81.7729 333.91 81.1707C333.911 80.7933 333.911 80.4159 333.912 80.0384C333.914 78.854 333.916 77.6695 333.916 76.485C333.917 75.1245 333.92 73.7641 333.924 72.4036C333.928 71.3478 333.929 70.292 333.93 69.2362C333.93 68.6077 333.931 67.9792 333.934 67.3507C333.983 63.004 333.983 63.004 332.982 58.7969C332.941 58.6875 332.901 58.578 332.86 58.4652C331.491 54.8958 328.879 52.13 325.448 50.4482C318.943 47.5496 310.663 48.3331 305.607 53.6954Z" fill="#FF524A"/>
<path d="M386.043 38.2332C386.248 38.2331 386.248 38.2331 386.458 38.2329C388.573 38.2355 390.63 38.3117 392.706 38.7451C392.837 38.7721 392.969 38.7992 393.104 38.827C399.557 40.1988 405.44 43.5669 409.108 49.1401C411.155 52.3106 412.332 55.7895 412.942 59.4957C412.968 59.6482 412.993 59.8007 413.019 59.9578C413.439 62.735 413.392 65.5461 413.393 68.3471C413.393 68.6738 413.393 69.0004 413.394 69.327C413.395 70.4743 413.396 71.6216 413.396 72.7689C413.395 73.8257 413.397 74.8825 413.4 75.9394C413.402 76.8571 413.403 77.7748 413.402 78.6925C413.402 79.2359 413.403 79.7794 413.404 80.3229C413.413 83.6784 413.415 87.1005 412.696 90.3953C412.662 90.5575 412.627 90.7198 412.592 90.887C411.59 95.4501 409.541 99.5013 406.269 102.848C406.157 102.97 406.044 103.092 405.928 103.218C402.969 106.35 398.79 108.251 394.687 109.354C394.554 109.391 394.421 109.427 394.284 109.464C391.628 110.135 388.94 110.338 386.21 110.319C386.063 110.319 385.917 110.318 385.765 110.318C383.353 110.306 381.028 110.164 378.669 109.62C378.454 109.571 378.454 109.571 378.233 109.52C373.729 108.447 369.736 106.337 366.368 103.163C366.242 103.049 366.116 102.935 365.986 102.817C362.506 99.547 360.581 94.9447 359.616 90.3559C359.585 90.2126 359.554 90.0693 359.522 89.9217C358.9 86.7105 358.907 83.4097 358.913 80.1525C358.914 79.5962 358.913 79.0399 358.912 78.4836C358.912 77.5507 358.913 76.6178 358.914 75.6849C358.916 74.6178 358.915 73.5506 358.914 72.4835C358.912 71.5549 358.912 70.6264 358.913 69.6979C358.913 69.1487 358.913 68.5995 358.912 68.0503C358.908 64.7409 358.923 61.3871 359.626 58.1373C359.66 57.9743 359.694 57.8113 359.73 57.6434C360.747 52.9879 362.856 48.9096 366.21 45.5176C366.296 45.4282 366.383 45.3387 366.472 45.2466C370.39 41.2363 376.042 39.1796 381.508 38.4301C381.616 38.415 381.723 38.4 381.834 38.3844C383.23 38.2167 384.638 38.2342 386.043 38.2332ZM373.465 54.3376C370.808 57.5408 369.943 61.6105 369.952 65.6741C369.951 65.8801 369.95 66.0861 369.949 66.2983C369.947 66.8558 369.947 67.4132 369.948 67.9707C369.948 68.4399 369.947 68.9091 369.946 69.3782C369.945 70.4873 369.944 71.5963 369.945 72.7054C369.946 73.8408 369.944 74.9761 369.941 76.1116C369.938 77.0942 369.937 78.0769 369.938 79.0596C369.938 79.643 369.938 80.2264 369.936 80.8099C369.918 85.756 370.279 90.8701 373.904 94.6322C374.124 94.8527 374.346 95.0702 374.569 95.2876C374.77 95.4938 374.77 95.4938 374.976 95.7041C378.092 98.7412 382.407 99.7845 386.642 99.7641C391.049 99.6625 394.971 98.0977 398.068 94.9726C398.198 94.8463 398.328 94.72 398.462 94.5899C401.513 91.4532 402.351 87.0117 402.349 82.7995C402.35 82.5956 402.35 82.3918 402.351 82.1818C402.352 81.6269 402.353 81.0721 402.353 80.5172C402.353 80.1692 402.353 79.8212 402.354 79.4731C402.355 78.2552 402.356 77.0372 402.356 75.8192C402.356 74.6902 402.357 73.5612 402.36 72.4321C402.362 71.4576 402.363 70.4831 402.362 69.5086C402.362 68.9289 402.363 68.3492 402.365 67.7695C402.366 67.1214 402.366 66.4733 402.365 65.8251C402.366 65.6373 402.366 65.4494 402.367 65.2559C402.351 60.6964 400.999 56.4881 397.792 53.1859C396.836 52.2416 395.76 51.5387 394.598 50.8726C394.464 50.7953 394.33 50.7179 394.191 50.6382C387.344 46.9753 378.604 48.6762 373.465 54.3376Z" fill="#FF524A"/>
<path d="M592.962 38.2135C593.104 38.2136 593.245 38.2136 593.391 38.2136C595.832 38.2193 598.177 38.3961 600.572 38.9026C600.779 38.9456 600.779 38.9456 600.991 38.9894C604.474 39.7382 607.98 41.2604 610.666 43.6276C610.798 43.7411 610.931 43.8546 611.067 43.9715C614.736 47.1743 616.835 51.5161 617.812 56.2374C617.835 56.3484 617.858 56.4594 617.882 56.5738C618.156 58.0232 618.246 59.4801 618.394 60.9526C614.646 60.9526 610.899 60.9526 607.038 60.9526C606.778 59.8611 606.518 58.7696 606.25 57.6451C605.625 56.0207 604.981 54.7375 603.884 53.3926C603.808 53.2915 603.733 53.1904 603.655 53.0862C601.712 50.6001 598.397 49.5267 595.395 49.0429C591.515 48.6163 587.14 48.9993 583.913 51.3845C582.683 52.39 581.768 53.4884 581.173 54.9676C581.123 55.0929 581.072 55.2181 581.02 55.3472C580.275 57.5765 580.548 60.0757 581.534 62.1707C582.742 64.3889 585.026 65.5301 587.345 66.291C587.466 66.3311 587.588 66.3712 587.713 66.4126C589.09 66.8557 590.489 67.2016 591.894 67.5415C592.378 67.6585 592.86 67.7771 593.343 67.8961C594.713 68.2335 596.084 68.5681 597.455 68.9019C598.3 69.1079 599.145 69.3155 599.99 69.5241C600.307 69.602 600.624 69.6792 600.941 69.7557C606.835 71.1773 612.72 73.2876 616.501 78.2776C616.608 78.4181 616.716 78.5586 616.826 78.7033C619.332 82.2021 620.006 86.5129 620.01 90.7201C620.01 90.828 620.01 90.936 620.01 91.0472C620.008 92.7603 619.921 94.4087 619.497 96.0751C619.471 96.1805 619.445 96.286 619.418 96.3946C618.636 99.4238 617.098 102.022 614.924 104.265C614.811 104.382 614.699 104.498 614.583 104.618C610.297 108.751 603.541 110.256 597.751 110.282C597.59 110.283 597.43 110.284 597.264 110.285C596.925 110.286 596.586 110.287 596.246 110.288C595.741 110.289 595.235 110.294 594.729 110.299C591.799 110.314 588.919 110.057 586.072 109.335C585.826 109.274 585.826 109.274 585.575 109.211C581.898 108.272 578.387 106.581 575.496 104.108C575.299 103.943 575.299 103.943 575.098 103.774C574.111 102.922 573.288 101.993 572.499 100.958C572.405 100.835 572.312 100.712 572.215 100.586C569.932 97.4621 568.64 93.8914 567.975 90.0999C567.956 89.995 567.937 89.89 567.917 89.7818C567.787 88.979 567.731 88.175 567.683 87.3636C567.676 87.247 567.669 87.1303 567.661 87.0101C567.644 86.7243 567.627 86.4384 567.61 86.1526C569.067 86.1489 570.524 86.1461 571.982 86.1444C572.658 86.1436 573.335 86.1425 574.011 86.1407C574.664 86.139 575.316 86.1381 575.969 86.1376C576.218 86.1373 576.468 86.1368 576.717 86.1359C577.065 86.1348 577.413 86.1346 577.762 86.1347C577.96 86.1344 578.159 86.134 578.363 86.1336C578.807 86.1526 578.807 86.1526 578.965 86.3101C579.015 86.6291 579.063 86.9482 579.107 87.268C579.595 90.8023 580.939 93.8736 583.697 96.2326C587.16 98.7323 591.247 99.6124 595.466 99.5893C595.576 99.589 595.685 99.5887 595.798 99.5884C599.661 99.5715 603.606 99.0551 606.53 96.288C608.149 94.5769 608.756 92.4809 608.779 90.1553C608.693 88.2775 608.198 86.6953 607.038 85.2076C606.919 85.0529 606.8 84.8982 606.678 84.7388C606.26 84.2436 605.774 83.8923 605.224 83.5538C605.127 83.4933 605.03 83.4327 604.93 83.3703C601.484 81.2647 597.366 80.572 593.486 79.6311C587.419 78.1594 587.419 78.1594 585.331 77.5971C585.201 77.5626 585.072 77.5281 584.938 77.4925C581.116 76.4422 577.573 74.5623 574.707 71.8201C574.587 71.7104 574.467 71.6008 574.344 71.4879C570.986 68.3135 569.484 63.742 569.305 59.2201C569.201 54.4018 570.567 49.6606 573.761 45.9901C573.92 45.7991 573.92 45.7991 574.083 45.6043C577.158 42.0355 581.519 39.9101 586.062 38.8731C586.169 38.8486 586.275 38.8242 586.385 38.7991C588.575 38.3278 590.731 38.2086 592.962 38.2135Z" fill="#FF524A"/>
<path d="M189.098 15.9077C195.292 15.9077 201.485 15.9077 207.866 15.9077C208.576 17.5022 208.576 17.5022 208.825 18.1947C208.882 18.3514 208.938 18.5081 208.997 18.6695C209.086 18.9192 209.086 18.9192 209.178 19.174C209.242 19.3524 209.306 19.5307 209.373 19.7145C209.548 20.1984 209.722 20.6825 209.896 21.1666C210.081 21.6799 210.266 22.193 210.452 22.706C210.489 22.8095 210.526 22.913 210.565 23.0196C210.641 23.2299 210.717 23.4401 210.793 23.6503C210.908 23.9686 211.023 24.2868 211.138 24.6051C211.856 26.5935 212.58 28.5797 213.307 30.5651C213.398 30.814 213.398 30.814 213.491 31.0681C214.191 32.9809 214.894 34.8926 215.601 36.8029C215.875 37.5422 216.148 38.2815 216.422 39.0208C216.524 39.298 216.524 39.298 216.629 39.5808C217.786 42.7102 218.92 45.8475 220.046 48.9881C221.149 52.0634 222.265 55.133 223.401 58.1965C224.576 61.3663 225.729 64.5431 226.87 67.7252C228.095 71.1409 229.337 74.5496 230.597 77.9523C231.609 80.6845 232.605 83.4217 233.589 86.1639C234.525 88.7711 235.48 91.371 236.442 93.9687C237.657 97.2522 238.857 100.541 240.044 103.835C240.167 104.176 240.29 104.516 240.414 104.857C240.606 105.39 240.798 105.924 240.99 106.457C241.095 106.749 241.2 107.04 241.306 107.332C241.368 107.505 241.43 107.678 241.494 107.857C241.576 108.084 241.576 108.084 241.659 108.315C241.774 108.675 241.774 108.675 241.774 108.99C240.1 109.001 238.426 109.01 236.752 109.015C235.975 109.017 235.197 109.02 234.42 109.026C233.668 109.031 232.916 109.034 232.165 109.035C231.879 109.036 231.594 109.038 231.308 109.04C229.236 109.058 227.387 108.914 225.51 107.947C225.404 107.893 225.297 107.838 225.187 107.783C224.222 107.271 223.446 106.629 222.691 105.84C222.562 105.718 222.562 105.718 222.43 105.594C220.589 103.716 219.833 100.568 218.965 98.1719C218.82 97.7759 218.676 97.3799 218.531 96.9839C218.075 95.7369 217.623 94.4887 217.171 93.2402C217.116 93.0886 217.116 93.0886 217.06 92.9339C216.409 91.1322 215.758 89.3301 215.109 87.5275C214.105 84.7378 213.085 81.9539 212.055 79.1735C210.838 75.8873 209.644 72.5934 208.461 69.2946C207.358 66.2194 206.241 63.1499 205.106 60.0865C203.892 56.8101 202.701 53.5261 201.521 50.237C200.419 47.1618 199.302 44.0923 198.167 41.029C196.914 37.649 195.686 34.2607 194.47 30.8675C193.634 28.5356 192.793 26.2059 191.935 23.8824C191.896 23.7783 191.858 23.6742 191.818 23.567C191.415 22.4777 191.011 21.3889 190.606 20.3005C190.54 20.122 190.473 19.9435 190.405 19.7595C190.283 19.4304 190.16 19.1014 190.037 18.7726C189.983 18.6251 189.928 18.4776 189.871 18.3257C189.825 18.2001 189.778 18.0745 189.73 17.9451C189.499 17.2724 189.303 16.5886 189.098 15.9077Z" fill="#FF524A"/>
<path d="M528.124 38.2404C528.249 38.2393 528.375 38.2382 528.503 38.2371C533.808 38.2006 533.808 38.2006 536.383 38.7449C536.535 38.777 536.688 38.8092 536.846 38.8423C541.375 39.8265 545.429 41.5855 549 44.5724C549.112 44.6648 549.224 44.7572 549.339 44.8524C550.092 45.4883 550.745 46.1706 551.365 46.9349C551.476 47.0707 551.586 47.2066 551.7 47.3465C555.021 51.5946 556.885 57.1502 557.043 62.5274C556.885 62.6849 556.885 62.6849 556.453 62.7039C556.26 62.7035 556.067 62.7032 555.869 62.7028C555.762 62.7028 555.656 62.7028 555.547 62.7029C555.194 62.7028 554.842 62.7015 554.49 62.7003C554.246 62.7 554.002 62.6998 553.758 62.6996C553.115 62.699 552.473 62.6975 551.83 62.6957C551.175 62.6941 550.519 62.6934 549.864 62.6926C548.577 62.6909 547.29 62.6882 546.003 62.6849C545.735 62.0388 545.559 61.396 545.402 60.7162C544.483 56.9245 542.523 53.6216 539.202 51.4827C534.949 48.9861 530.01 48.2789 525.214 49.5181C521.325 50.5836 518.059 52.8235 516.008 56.3259C514.534 59.0661 513.966 61.7995 513.959 64.8854C513.959 65.1086 513.957 65.3317 513.956 65.5549C513.953 66.2854 513.951 67.0159 513.95 67.7465C513.949 67.9995 513.949 68.2525 513.948 68.5055C513.945 69.696 513.943 70.8864 513.941 72.0769C513.94 73.4429 513.936 74.8088 513.929 76.1748C513.924 77.2356 513.922 78.2963 513.922 79.3571C513.921 79.9882 513.92 80.6192 513.916 81.2503C513.884 86.6145 514.527 91.3156 518.457 95.3514C521.884 98.591 526.344 99.6374 530.934 99.5836C535.006 99.4644 538.998 97.8689 541.828 94.9127C543.767 92.7818 544.912 90.2009 545.53 87.4124C545.634 86.9446 545.738 86.4769 545.845 85.9949C549.541 85.9949 553.236 85.9949 557.043 85.9949C556.671 89.3381 556.671 89.3381 556.383 90.6215C556.349 90.7725 556.315 90.9236 556.281 91.0793C555.702 93.5652 554.808 95.8904 553.573 98.1224C553.519 98.2229 553.464 98.3233 553.407 98.4268C552.57 99.9432 551.597 101.263 550.419 102.532C550.34 102.618 550.261 102.704 550.18 102.792C545.671 107.636 539.149 110.044 532.601 110.285C531.762 110.307 530.923 110.311 530.084 110.309C529.936 110.309 529.787 110.309 529.634 110.309C527.206 110.302 524.879 110.16 522.504 109.62C522.278 109.569 522.278 109.569 522.047 109.518C515.881 108.09 510.25 104.767 506.798 99.3683C503.3 93.7647 502.71 87.5394 502.726 81.0753C502.727 80.4311 502.726 79.787 502.726 79.1428C502.725 78.0625 502.726 76.9823 502.728 75.902C502.731 74.6643 502.73 73.4265 502.727 72.1887C502.725 71.1137 502.725 70.0387 502.726 68.9637C502.727 68.327 502.727 67.6903 502.725 67.0537C502.711 60.2705 503.529 53.1765 507.994 47.7224C508.065 47.6358 508.135 47.5492 508.207 47.4599C512.757 41.8916 519.33 39.066 526.39 38.3052C526.968 38.2543 527.544 38.2439 528.124 38.2404Z" fill="#FF524A"/>
<path d="M433.238 24.7275C436.881 24.7275 440.525 24.7275 444.278 24.7275C444.278 29.7691 444.278 34.8107 444.278 40.005C449.795 40.005 455.312 40.005 460.996 40.005C460.996 43.5393 460.996 47.0736 460.996 50.715C455.479 50.715 449.962 50.715 444.278 50.715C444.288 56.2836 444.299 61.8521 444.314 67.4206C444.316 68.0785 444.318 68.7363 444.319 69.3941C444.32 69.5906 444.32 69.5906 444.321 69.791C444.326 71.9098 444.33 74.0286 444.333 76.1474C444.337 78.3224 444.342 80.4975 444.349 82.6726C444.353 84.014 444.356 85.3555 444.357 86.6969C444.358 87.6176 444.36 88.5383 444.364 89.4589C444.366 89.9896 444.368 90.5202 444.367 91.0509C444.367 91.6277 444.37 92.2043 444.373 92.781C444.372 92.9469 444.371 93.1128 444.371 93.2838C444.384 94.6862 444.534 96.2094 445.55 97.2667C446.759 98.1607 448.332 98.3007 449.788 98.3124C449.909 98.3139 450.031 98.3155 450.156 98.3171C450.556 98.322 450.955 98.326 451.354 98.3299C451.632 98.3331 451.91 98.3364 452.188 98.3398C452.918 98.3485 453.647 98.3563 454.377 98.3639C455.254 98.3732 456.13 98.3836 457.007 98.3938C458.336 98.4092 459.666 98.4233 460.996 98.4375C460.996 101.92 460.996 105.402 460.996 108.99C457.638 109.009 457.638 109.009 456.183 109.013C455.199 109.016 454.214 109.019 453.23 109.026C440.847 109.105 440.847 109.105 437.055 105.419C435.391 103.663 434.472 101.832 433.899 99.5007C433.868 99.3773 433.837 99.2539 433.805 99.1267C433.159 96.265 433.194 93.3428 433.202 90.4271C433.203 89.9922 433.202 89.5572 433.202 89.1223C433.202 88.192 433.203 87.2618 433.205 86.3315C433.207 84.9865 433.208 83.6416 433.209 82.2966C433.209 80.1137 433.211 77.9307 433.214 75.7477C433.217 73.6292 433.22 71.5107 433.221 69.3922C433.221 69.1958 433.221 69.1958 433.221 68.9954C433.222 68.3384 433.222 67.6814 433.222 67.0244C433.226 61.588 433.231 56.1515 433.238 50.715C430.063 50.715 426.889 50.715 423.618 50.715C423.618 47.1807 423.618 43.6464 423.618 40.005C426.792 40.005 429.967 40.005 433.238 40.005C433.238 34.9635 433.238 29.9219 433.238 24.7275Z" fill="#FF524A"/>
<path d="M256.599 15.9077C262.949 15.9077 269.298 15.9077 275.84 15.9077C275.721 16.5031 275.588 17.0027 275.384 17.5675C275.322 17.7406 275.26 17.9137 275.196 18.0921C275.128 18.28 275.06 18.4679 274.99 18.6615C274.918 18.8616 274.846 19.0616 274.774 19.2617C274.58 19.8028 274.384 20.3435 274.189 20.8842C274.065 21.225 273.942 21.566 273.82 21.9069C272.627 25.2141 271.418 28.5149 270.196 31.8115C269.05 34.9049 267.929 38.0064 266.815 41.1117C265.615 44.459 264.396 47.7988 263.162 51.1336C262.307 53.4414 261.46 55.7514 260.631 58.0685C260.331 58.9059 260.03 59.7431 259.73 60.5803C259.638 60.8368 259.546 61.0932 259.454 61.3497C259.159 62.1699 258.864 62.9894 258.566 63.8082C258.472 64.0646 258.38 64.3211 258.288 64.5779C257.041 68.0597 255.433 70.8432 252.055 72.6569C250.102 73.553 248.265 73.8035 246.137 73.7717C245.9 73.7706 245.663 73.7697 245.425 73.769C244.81 73.7667 244.195 73.7605 243.58 73.7535C242.948 73.747 242.317 73.7441 241.686 73.741C240.454 73.7343 239.221 73.7236 237.989 73.7102C237.951 73.6032 237.912 73.4961 237.873 73.3858C237.414 72.1086 236.955 70.8315 236.496 69.5545C236.373 69.2131 236.25 68.8718 236.128 68.5304C235.23 66.0327 234.33 63.5361 233.419 61.0432C233.344 60.84 233.27 60.6368 233.196 60.4337C232.847 59.4771 232.496 58.5209 232.145 57.5649C232.02 57.2229 231.895 56.881 231.77 56.539C231.713 56.3832 231.655 56.2273 231.596 56.0667C231.544 55.9255 231.493 55.7842 231.44 55.6387C231.394 55.5159 231.349 55.3931 231.303 55.2666C231.208 54.9677 231.208 54.9677 231.208 54.6527C231.319 54.6518 231.43 54.6509 231.545 54.6499C232.601 54.6408 233.656 54.6294 234.712 54.6156C235.255 54.6086 235.797 54.6024 236.34 54.5982C236.965 54.5932 237.59 54.5846 238.215 54.5758C238.504 54.5743 238.504 54.5743 238.799 54.5728C240.256 54.548 241.537 54.3946 242.635 53.367C243.524 52.3102 243.934 50.8437 244.386 49.5629C244.453 49.3764 244.52 49.19 244.589 48.9979C244.733 48.5961 244.876 48.1942 245.02 47.7921C245.366 46.8173 245.716 45.8436 246.066 44.8699C246.146 44.6464 246.226 44.423 246.307 44.1995C247.117 41.9396 247.948 39.6872 248.783 37.436C250.121 33.8231 251.433 30.2011 252.733 26.5741C254.009 23.014 255.305 19.4617 256.599 15.9077Z" fill="#FF524A"/>
<path d="M475.032 40.0049C478.623 40.0049 482.214 40.0049 485.914 40.0049C485.914 62.7699 485.914 85.535 485.914 108.99C482.323 108.99 478.732 108.99 475.032 108.99C475.032 86.2248 475.032 63.4598 475.032 40.0049Z" fill="#FF524A"/>
<path d="M475.032 15.9077C478.623 15.9077 482.214 15.9077 485.914 15.9077C485.914 20.4815 485.914 25.0553 485.914 29.7677C482.323 29.7677 478.732 29.7677 475.032 29.7677C475.032 25.1939 475.032 20.6201 475.032 15.9077Z" fill="#FF524A"/>
</svg>
