<svg width="1201" height="160" viewBox="0 0 1201 160" fill="none" xmlns="http://www.w3.org/2000/svg">
<path d="M657.383 4.98167C679.68 4.97261 679.68 4.97261 702.428 4.96336C707.121 4.96069 711.814 4.95802 716.649 4.95527C722.381 4.95395 722.381 4.95395 725.065 4.9537C726.939 4.95343 728.813 4.95236 730.686 4.95074C732.849 4.94887 735.012 4.94802 737.175 4.94843C738.281 4.94861 739.386 4.94833 740.492 4.94674C741.679 4.94504 742.866 4.94563 744.053 4.94643C744.564 4.94515 744.564 4.94515 745.085 4.94385C748.362 4.94975 751.634 5.06716 754.84 5.78753C755.074 5.83919 755.309 5.89085 755.55 5.94407C760.481 7.06332 764.727 8.90477 769.097 11.4286C769.097 11.622 769.097 11.8154 769.097 12.0146C769.268 12.0921 769.438 12.1695 769.614 12.2493C771.493 13.2552 773.298 15.081 774.668 16.7033C774.668 16.8967 774.668 17.0901 774.668 17.2894C774.959 17.3861 775.249 17.4828 775.548 17.5824C775.921 18.0265 775.921 18.0265 776.288 18.5977C776.423 18.8064 776.558 19.0151 776.698 19.2301C776.839 19.454 776.979 19.6778 777.124 19.9084C777.269 20.1374 777.414 20.3663 777.564 20.6022C781.839 27.4186 783.214 34.7776 783.221 42.7518C783.222 43.1336 783.223 43.5154 783.224 43.9087C783.226 44.7126 783.226 45.5164 783.226 46.3202C783.226 47.3371 783.23 48.3539 783.235 49.3707C783.239 50.3574 783.239 51.344 783.239 52.3306C783.241 52.6888 783.243 53.047 783.246 53.416C783.239 55.9806 782.966 58.4216 782.585 60.9524C782.512 61.5201 782.439 62.0879 782.365 62.6557C781.416 68.0924 779.013 73.3737 775.548 77.6557C775.376 77.8687 775.204 78.0818 775.027 78.3013C774.003 79.5177 772.893 80.5756 771.677 81.5991C771.157 82.0284 771.157 82.0284 770.762 82.4691C770.029 83.1567 769.191 83.675 768.346 84.2124C768.162 84.3294 767.979 84.4464 767.79 84.5669C759.394 89.8491 749.969 90.2905 740.33 90.3058C739.266 90.308 738.202 90.3126 737.138 90.3179C734.117 90.3332 731.096 90.3474 728.075 90.3519C726.218 90.3549 724.36 90.3635 722.503 90.3757C721.798 90.3793 721.094 90.3808 720.39 90.3802C719.407 90.3795 718.424 90.386 717.441 90.3941C717.153 90.3922 716.865 90.3902 716.569 90.3883C714.797 90.4122 713.383 90.6709 711.921 91.7216C710.811 93.115 710.327 94.2704 710.383 96.0691C710.606 98.0347 711.552 99.0572 713.016 100.242C714.766 101.605 716.573 102.896 718.397 104.159C718.582 104.309 718.767 104.46 718.958 104.615C718.958 104.809 718.958 105.002 718.958 105.201C719.345 105.298 719.732 105.395 720.131 105.494C720.131 105.688 720.131 105.881 720.131 106.081C720.385 106.207 720.385 106.207 720.644 106.337C720.862 106.446 721.079 106.555 721.304 106.667C721.497 106.751 721.691 106.836 721.89 106.923C722.477 107.253 722.477 107.253 722.958 107.756C724.048 108.81 725.302 109.638 726.541 110.508C727.053 110.875 727.552 111.26 728.048 111.648C728.048 111.842 728.048 112.035 728.048 112.234C728.271 112.319 728.495 112.404 728.726 112.491C729.514 112.82 729.514 112.82 730.393 113.407C730.393 113.6 730.393 113.793 730.393 113.993C730.565 114.074 730.736 114.155 730.912 114.239C731.962 114.784 732.886 115.494 733.839 116.19C734.043 116.337 734.248 116.483 734.458 116.633C734.651 116.774 734.844 116.915 735.043 117.06C735.309 117.253 735.309 117.253 735.579 117.449C735.706 117.566 735.833 117.682 735.964 117.802C735.964 117.996 735.964 118.189 735.964 118.388C736.188 118.473 736.412 118.557 736.642 118.645C737.43 118.974 737.43 118.974 738.31 119.56C738.31 119.754 738.31 119.947 738.31 120.147C738.567 120.268 738.567 120.268 738.83 120.391C739.458 120.72 739.988 121.079 740.552 121.508C740.75 121.658 740.949 121.808 741.153 121.963C741.358 122.119 741.563 122.275 741.774 122.436C742.179 122.743 742.584 123.05 742.989 123.357C743.185 123.507 743.382 123.656 743.584 123.81C744.164 124.241 744.755 124.65 745.351 125.058C745.64 125.275 745.929 125.491 746.227 125.714C746.227 125.908 746.227 126.101 746.227 126.3C746.614 126.397 747.001 126.494 747.4 126.593C747.4 126.787 747.4 126.98 747.4 127.179C747.569 127.264 747.738 127.349 747.913 127.436C748.13 127.545 748.348 127.653 748.573 127.766C748.766 127.85 748.96 127.935 749.159 128.022C749.745 128.352 749.745 128.352 750.226 128.855C751.317 129.909 752.571 130.737 753.81 131.607C754.322 131.974 754.821 132.359 755.316 132.747C755.316 132.941 755.316 133.134 755.316 133.333C755.54 133.418 755.764 133.503 755.994 133.59C756.782 133.919 756.782 133.919 757.662 134.505C757.662 134.699 757.662 134.892 757.662 135.092C757.833 135.173 758.005 135.254 758.181 135.338C759.231 135.883 760.154 136.593 761.107 137.289C761.312 137.436 761.516 137.582 761.727 137.732C761.92 137.873 762.113 138.014 762.312 138.159C762.577 138.352 762.577 138.352 762.848 138.548C762.975 138.664 763.102 138.781 763.233 138.901C763.233 139.094 763.233 139.288 763.233 139.487C763.457 139.572 763.681 139.656 763.911 139.744C764.699 140.073 764.699 140.073 765.579 140.659C765.579 140.853 765.579 141.046 765.579 141.245C765.836 141.366 765.836 141.366 766.098 141.49C766.727 141.819 767.257 142.178 767.82 142.606C768.019 142.757 768.218 142.907 768.422 143.061C768.627 143.218 768.832 143.374 769.042 143.535C769.447 143.842 769.852 144.149 770.258 144.456C770.454 144.606 770.65 144.755 770.853 144.909C771.432 145.34 772.024 145.749 772.619 146.157C772.909 146.374 773.198 146.59 773.496 146.813C773.496 147.007 773.496 147.2 773.496 147.399C773.883 147.496 774.27 147.593 774.668 147.692C774.668 147.886 774.668 148.079 774.668 148.278C774.838 148.363 775.007 148.448 775.182 148.535C775.399 148.644 775.617 148.752 775.841 148.864C776.035 148.949 776.228 149.034 776.428 149.121C777.014 149.451 777.014 149.451 777.528 149.976C778.538 150.967 779.691 151.751 780.834 152.581C781.685 153.244 782.417 153.957 783.172 154.725C778.609 154.746 774.047 154.761 769.485 154.771C767.366 154.775 765.248 154.782 763.13 154.792C761.283 154.8 759.437 154.806 757.59 154.808C756.612 154.809 755.635 154.812 754.657 154.818C753.566 154.825 752.474 154.825 751.382 154.825C750.897 154.83 750.897 154.83 750.401 154.835C747.603 154.823 747.603 154.823 746.52 153.846C746.52 153.653 746.52 153.459 746.52 153.26C746.349 153.179 746.177 153.097 746.001 153.013C744.951 152.468 744.028 151.759 743.075 151.062C742.87 150.916 742.666 150.77 742.455 150.619C742.262 150.478 742.069 150.337 741.87 150.192C741.605 150 741.605 150 741.334 149.804C741.207 149.687 741.08 149.571 740.949 149.451C740.949 149.257 740.949 149.064 740.949 148.864C740.725 148.78 740.501 148.695 740.271 148.608C739.483 148.278 739.483 148.278 738.603 147.692C738.603 147.499 738.603 147.305 738.603 147.106C738.432 147.025 738.261 146.943 738.084 146.86C737.034 146.315 736.111 145.605 735.158 144.908C734.954 144.762 734.749 144.616 734.538 144.465C734.345 144.325 734.152 144.184 733.953 144.038C733.688 143.846 733.688 143.846 733.417 143.65C733.29 143.533 733.163 143.417 733.032 143.297C733.032 143.103 733.032 142.91 733.032 142.711C732.808 142.626 732.585 142.541 732.354 142.454C731.566 142.125 731.566 142.125 730.687 141.538C730.687 141.345 730.687 141.152 730.687 140.952C730.515 140.871 730.344 140.79 730.167 140.706C729.118 140.161 728.194 139.451 727.241 138.755C727.037 138.608 726.832 138.462 726.622 138.312C726.332 138.1 726.332 138.1 726.036 137.885C725.771 137.692 725.771 137.692 725.501 137.496C725.374 137.379 725.246 137.263 725.115 137.143C725.115 136.949 725.115 136.756 725.115 136.557C724.892 136.472 724.668 136.388 724.437 136.3C723.649 135.971 723.649 135.971 722.77 135.385C722.77 135.191 722.77 134.998 722.77 134.799C722.598 134.717 722.427 134.636 722.251 134.552C721.201 134.007 720.277 133.297 719.325 132.601C719.12 132.455 718.916 132.308 718.705 132.158C718.415 131.946 718.415 131.946 718.12 131.731C717.854 131.538 717.854 131.538 717.584 131.342C717.457 131.226 717.33 131.109 717.199 130.989C717.199 130.796 717.199 130.602 717.199 130.403C716.975 130.318 716.751 130.234 716.521 130.147C715.733 129.817 715.733 129.817 714.853 129.231C714.853 129.037 714.853 128.844 714.853 128.645C714.682 128.563 714.51 128.482 714.334 128.398C713.284 127.853 712.361 127.144 711.408 126.447C711.203 126.301 710.999 126.154 710.788 126.004C710.498 125.793 710.498 125.793 710.203 125.577C709.938 125.385 709.938 125.385 709.667 125.188C709.54 125.072 709.413 124.955 709.282 124.835C709.282 124.642 709.282 124.448 709.282 124.249C709.058 124.164 708.834 124.08 708.604 123.993C707.816 123.663 707.816 123.663 706.936 123.077C706.936 122.884 706.936 122.69 706.936 122.491C706.696 122.383 706.696 122.383 706.452 122.273C705.61 121.822 704.891 121.276 704.132 120.696C702.644 119.564 701.134 118.472 699.601 117.4C699.313 117.164 699.313 117.164 699.02 116.923C699.02 116.73 699.02 116.536 699.02 116.337C698.856 116.264 698.693 116.192 698.525 116.117C696.935 115.258 695.67 113.989 694.621 112.527C694.621 112.334 694.621 112.141 694.621 111.941C694.428 111.941 694.234 111.941 694.035 111.941C693.532 111.249 693.073 110.562 692.624 109.835C692.426 109.515 692.426 109.515 692.224 109.189C691.113 107.347 690.264 105.505 689.637 103.443C689.544 103.153 689.451 102.862 689.355 102.563C687.449 95.4403 688.897 88.1568 692.276 81.7582C692.469 81.7582 692.663 81.7582 692.862 81.7582C692.959 81.3714 693.056 80.9846 693.155 80.5861C693.349 80.5861 693.542 80.5861 693.742 80.5861C693.839 80.275 693.839 80.275 693.938 79.9576C694.416 78.9329 695.088 78.2329 695.886 77.4542C696.025 77.312 696.164 77.1698 696.307 77.0232C697.149 76.1879 697.884 75.6647 699.02 75.3113C699.02 75.1179 699.02 74.9245 699.02 74.7253C699.407 74.6286 699.794 74.5319 700.192 74.4322C700.192 74.2388 700.192 74.0454 700.192 73.8461C705.345 71.1699 709.981 69.7077 715.822 69.6927C716.143 69.6907 716.465 69.6888 716.796 69.6868C717.49 69.6827 718.185 69.6792 718.879 69.6762C719.985 69.6714 721.091 69.6646 722.196 69.6572C725.339 69.6366 728.482 69.619 731.624 69.6038C733.551 69.5945 735.479 69.5823 737.406 69.5686C738.133 69.564 738.861 69.5604 739.589 69.5578C743.135 69.5452 746.671 69.4925 750.209 69.2238C750.475 69.2062 750.742 69.1885 751.016 69.1703C753.916 68.9169 756.689 67.9002 758.688 65.7211C763.933 59.2729 761.967 44.4765 761.177 36.7805C760.941 34.8819 760.504 33.1054 759.715 31.3553C759.631 31.1562 759.547 30.9572 759.46 30.752C758.537 28.8543 756.841 27.7132 754.895 27.033C754.451 26.9042 754.005 26.782 753.557 26.6667C753.349 26.61 753.141 26.5533 752.927 26.495C748.957 25.5065 744.762 25.7381 740.702 25.7274C740.014 25.7245 739.327 25.7215 738.64 25.7185C736.806 25.7106 734.973 25.7043 733.14 25.6985C731.417 25.6927 729.694 25.6854 727.971 25.6783C722.938 25.6582 717.906 25.6406 712.874 25.6227C701.625 25.5804 690.377 25.5381 678.788 25.4945C678.788 68.1406 678.788 110.787 678.788 154.725C671.724 154.725 664.661 154.725 657.383 154.725C657.383 105.31 657.383 55.8945 657.383 4.98167Z" fill="black"/>
<path d="M275.327 4.98145C348.675 4.98145 348.675 4.98145 352.351 5.67742C352.56 5.71618 352.77 5.75495 352.986 5.79489C358.389 6.82036 363.561 8.99151 367.982 12.3075C367.982 12.5009 367.982 12.6943 367.982 12.8935C368.153 12.971 368.323 13.0484 368.498 13.1282C370.35 14.1184 372.063 15.8643 373.26 17.5822C373.26 17.7756 373.26 17.969 373.26 18.1683C373.454 18.1683 373.647 18.1683 373.847 18.1683C373.943 18.5551 374.04 18.9419 374.14 19.3404C374.333 19.3404 374.527 19.3404 374.726 19.3404C380.007 26.7666 381.046 35.9376 380.998 44.7635C380.994 45.8094 380.998 46.855 381.004 47.901C381.007 51.3715 380.951 54.6652 380.004 58.0217C379.908 58.364 379.908 58.364 379.81 58.7132C378.429 63.1431 376.108 67.7641 372.967 71.2085C372.774 71.2085 372.58 71.2085 372.381 71.2085C372.311 71.3732 372.242 71.5379 372.17 71.7076C371.709 72.5328 371.145 73.1073 370.475 73.7727C370.125 74.124 370.125 74.124 369.769 74.4824C369.155 75.0181 369.155 75.0181 368.569 75.0181C368.569 75.2115 368.569 75.4049 368.569 75.6042C366.982 76.7763 366.982 76.7763 366.223 76.7763C366.223 76.9697 366.223 77.1631 366.223 77.3624C365.633 77.7836 365.633 77.7836 364.849 78.2415C364.594 78.3926 364.338 78.5437 364.076 78.6994C363.339 79.0949 362.607 79.4137 361.825 79.7067C361.825 79.9001 361.825 80.0935 361.825 80.2928C362.087 80.4171 362.35 80.5414 362.62 80.6694C367.023 82.7905 367.023 82.7905 368.862 84.3954C368.862 84.5888 368.862 84.7822 368.862 84.9814C369.033 85.06 369.204 85.1386 369.38 85.2195C374.498 87.9379 377.71 94.691 379.326 99.9631C380.658 104.694 381.029 109.354 380.998 114.255C380.994 115.164 380.998 116.072 381.004 116.98C381.009 122.123 380.436 126.97 378.831 131.868C378.744 132.14 378.657 132.412 378.568 132.692C377.636 135.43 376.35 138.259 374.726 140.659C374.533 140.659 374.339 140.659 374.14 140.659C374.043 141.046 373.946 141.433 373.847 141.831C373.653 141.831 373.46 141.831 373.26 141.831C373.183 142.001 373.105 142.171 373.025 142.346C372.035 144.198 370.288 145.909 368.569 147.106C368.375 147.106 368.182 147.106 367.982 147.106C367.886 147.396 367.789 147.686 367.689 147.985C344.762 168.644 306.196 154.725 275.327 154.725C275.327 105.31 275.327 55.8943 275.327 4.98145ZM296.732 25.4943C296.732 40.0965 296.732 54.6987 296.732 69.7433C305.01 69.7604 305.01 69.7604 313.287 69.772C316.668 69.7754 320.048 69.7795 323.429 69.7876C325.892 69.7934 328.355 69.7972 330.818 69.7985C332.12 69.7992 333.421 69.801 334.722 69.8053C341.432 69.8432 341.432 69.8432 348.13 69.5017C348.516 69.4712 348.516 69.4712 348.91 69.4401C352.1 69.1273 354.678 68.0862 356.84 65.6408C361.692 57.8229 360.743 42.8276 358.768 34.161C358.379 32.6337 357.872 31.284 357.134 29.8899C356.94 29.8899 356.747 29.8899 356.547 29.8899C356.493 29.7267 356.438 29.5635 356.382 29.3954C355.239 27.5576 353.249 26.9224 351.269 26.3734C350.906 26.2646 350.544 26.1558 350.17 26.0437C346.952 25.2827 343.526 25.4529 340.238 25.461C339.761 25.4611 339.284 25.461 338.806 25.4609C337.523 25.4608 336.239 25.4625 334.956 25.4646C333.61 25.4664 332.264 25.4666 330.919 25.4669C328.376 25.4678 325.833 25.4702 323.29 25.4732C319.849 25.4771 316.409 25.4786 312.969 25.4803C307.557 25.4831 302.144 25.4889 296.732 25.4943ZM296.732 90.2562C296.732 104.858 296.732 119.461 296.732 134.505C304.593 134.514 304.593 134.514 312.454 134.52C315.664 134.521 318.875 134.523 322.086 134.527C324.425 134.53 326.764 134.532 329.104 134.533C330.34 134.533 331.575 134.534 332.811 134.536C339.284 134.552 339.284 134.552 345.754 134.388C346.014 134.378 346.273 134.368 346.541 134.358C349.848 134.201 353.485 133.659 355.961 131.282C361.238 125.293 360.043 113.678 359.622 106.22C359.368 99.3625 359.368 99.3625 356.254 93.4796C352.058 89.9109 346.119 90.1642 340.904 90.1896C340.418 90.1898 339.932 90.1897 339.446 90.1894C338.143 90.1892 336.841 90.1926 335.539 90.1967C334.172 90.2004 332.805 90.2008 331.437 90.2014C328.856 90.2033 326.274 90.2081 323.693 90.214C320.199 90.2218 316.706 90.2249 313.212 90.2283C307.718 90.2338 302.225 90.2455 296.732 90.2562Z" fill="black"/>
<path d="M523.678 4.98174C536.221 4.97569 548.763 4.96965 561.686 4.96342C565.644 4.96076 569.602 4.95809 573.68 4.95534C578.519 4.95402 578.519 4.95402 580.786 4.95377C582.366 4.9535 583.947 4.95242 585.527 4.9508C587.546 4.94873 589.564 4.94819 591.583 4.9486C592.322 4.94852 593.061 4.94794 593.801 4.9468C602.755 4.93369 602.755 4.93369 606.914 5.64108C607.244 5.69696 607.244 5.69696 607.58 5.75397C612.57 6.65483 618.025 8.50941 622.198 11.4286C622.198 11.622 622.198 11.8154 622.198 12.0147C622.422 12.0993 622.645 12.1839 622.876 12.2711C623.664 12.6008 623.664 12.6008 624.543 13.1869C624.543 13.3803 624.543 13.5737 624.543 13.7729C624.779 13.8727 624.779 13.8727 625.02 13.9744C625.958 14.4926 626.681 15.1024 627.476 15.8242C627.476 16.0176 627.476 16.211 627.476 16.4103C627.669 16.4103 627.863 16.4103 628.062 16.4103C629.235 17.7204 629.235 17.7204 629.235 18.4616C629.428 18.4616 629.622 18.4616 629.821 18.4616C630.32 19.1731 630.781 19.8815 631.232 20.6228C631.431 20.9475 631.431 20.9475 631.634 21.2788C635.665 27.9204 637.202 35.0101 637.191 42.7476C637.191 43.0795 637.192 43.4115 637.193 43.7535C637.195 44.8561 637.194 45.9586 637.194 47.0612C637.195 47.8558 637.196 48.6503 637.197 49.4449C637.2 51.3736 637.2 53.3023 637.201 55.231C637.201 56.8006 637.201 58.3702 637.202 59.9398C637.205 64.4003 637.206 68.8609 637.206 73.3215C637.206 73.6815 637.206 73.6815 637.206 74.0487C637.206 74.2889 637.206 74.5292 637.206 74.7767C637.206 78.6671 637.209 82.5574 637.213 86.4478C637.217 90.4527 637.219 94.4576 637.219 98.4626C637.219 100.707 637.219 102.951 637.223 105.195C637.225 107.107 637.226 109.018 637.224 110.929C637.223 111.902 637.223 112.875 637.225 113.848C637.248 124.122 637.248 124.122 635.924 128.828C635.861 129.057 635.799 129.285 635.734 129.521C634.289 134.563 631.767 139.825 628.062 143.59C627.868 143.59 627.675 143.59 627.476 143.59C627.379 143.88 627.282 144.17 627.182 144.469C626.989 144.469 626.795 144.469 626.596 144.469C626.499 144.759 626.402 145.049 626.303 145.348C626.109 145.348 625.916 145.348 625.716 145.348C625.716 145.541 625.716 145.735 625.716 145.934C625.096 146.44 625.096 146.44 624.287 146.996C623.889 147.274 623.889 147.274 623.483 147.557C622.784 147.985 622.784 147.985 622.198 147.985C622.198 148.179 622.198 148.372 622.198 148.571C614.991 154.287 604.189 154.864 595.479 154.825C594.679 154.824 593.88 154.825 593.081 154.825C591.171 154.826 589.261 154.822 587.35 154.816C585.136 154.81 582.922 154.809 580.708 154.809C574.874 154.804 569.041 154.792 563.207 154.78C550.162 154.762 537.118 154.744 523.678 154.725C523.678 105.31 523.678 55.8946 523.678 4.98174ZM544.79 25.4946C544.79 61.4682 544.79 97.4418 544.79 134.506C571.205 134.506 571.205 134.506 612.529 131.019C614.102 129.234 614.719 127.137 615.161 124.835C615.21 124.592 615.259 124.348 615.31 124.097C615.951 120.372 615.832 116.613 615.828 112.845C615.829 112.048 615.83 111.25 615.832 110.453C615.836 108.519 615.836 106.585 615.836 104.652C615.835 103.078 615.836 101.504 615.837 99.9308C615.837 99.5936 615.837 99.5936 615.837 99.2495C615.838 98.7926 615.838 98.3358 615.839 97.8789C615.842 93.6033 615.841 89.3278 615.839 85.0523C615.838 81.1516 615.841 77.2509 615.847 73.3501C615.852 69.3333 615.855 65.3164 615.854 61.2995C615.853 59.049 615.854 56.7985 615.858 54.548C615.862 52.6319 615.862 50.7158 615.858 48.7996C615.857 47.8244 615.857 46.8493 615.86 45.8741C616.039 36.9695 616.039 36.9695 612.522 29.011C608.896 25.3877 603.16 25.4672 598.373 25.4579C597.599 25.4581 596.825 25.4597 596.052 25.4613C595.482 25.4614 594.912 25.4613 594.342 25.4612C592.824 25.4611 591.307 25.4628 589.79 25.4649C588.363 25.4666 586.935 25.4666 585.508 25.4668C581.343 25.4684 577.177 25.4725 573.011 25.4762C559.042 25.4853 559.042 25.4853 544.79 25.4946Z" fill="black"/>
<path d="M843.539 4.94381C844.021 4.94341 844.503 4.94289 844.985 4.94226C846.282 4.94093 847.579 4.94143 848.876 4.94237C850.241 4.94312 851.606 4.94242 852.971 4.94196C855.262 4.94143 857.553 4.94213 859.844 4.94353C862.484 4.94512 865.123 4.9446 867.762 4.94299C870.038 4.94166 872.315 4.94148 874.591 4.94224C875.946 4.94269 877.301 4.94277 878.656 4.94179C879.931 4.94094 881.205 4.94154 882.48 4.94322C882.945 4.94361 883.409 4.94351 883.874 4.94285C887.53 4.93819 891.191 4.99537 894.794 5.6777C895.004 5.71647 895.214 5.75523 895.43 5.79517C900.677 6.79113 906.318 8.78378 910.426 12.3077C910.426 12.5011 910.426 12.6946 910.426 12.8938C910.596 12.9713 910.766 13.0487 910.941 13.1285C912.794 14.1187 914.507 15.8646 915.704 17.5825C915.704 17.7759 915.704 17.9693 915.704 18.1685C915.897 18.1685 916.091 18.1685 916.29 18.1685C916.387 18.5554 916.484 18.9422 916.583 19.3407C916.777 19.3407 916.971 19.3407 917.17 19.3407C921.156 26.0719 923.378 32.8867 923.367 40.745C923.367 41.0928 923.368 41.4406 923.369 41.7989C923.37 42.7579 923.37 43.7168 923.37 44.6758C923.37 45.7126 923.372 46.7493 923.373 47.7861C923.375 49.8149 923.376 51.8438 923.376 53.8726C923.377 55.5227 923.377 57.1727 923.378 58.8228C923.381 63.5068 923.382 68.1908 923.382 72.8748C923.382 73.2532 923.382 73.2532 923.382 73.6391C923.382 73.8917 923.382 74.1442 923.382 74.4044C923.382 78.4957 923.384 82.587 923.388 86.6783C923.393 90.8849 923.395 95.0914 923.394 99.298C923.394 101.657 923.395 104.017 923.398 106.376C923.401 108.385 923.402 110.394 923.4 112.403C923.399 113.427 923.399 114.45 923.401 115.474C923.404 116.587 923.402 117.7 923.4 118.813C923.401 119.132 923.403 119.451 923.404 119.78C923.372 127.151 921.198 136.068 916.29 141.832C916.097 141.832 915.903 141.832 915.704 141.832C915.639 142.039 915.574 142.246 915.507 142.46C915.031 143.482 914.373 144.185 913.578 144.963C913.346 145.192 913.346 145.192 913.11 145.425C908.166 150.167 901.867 152.886 895.179 154.139C894.956 154.187 894.733 154.234 894.504 154.283C891.727 154.822 888.998 154.81 886.181 154.806C885.635 154.807 885.089 154.809 884.543 154.81C883.068 154.814 881.594 154.814 880.119 154.814C878.883 154.813 877.646 154.815 876.41 154.816C873.49 154.819 870.569 154.82 867.648 154.818C864.649 154.816 861.649 154.82 858.649 154.826C856.063 154.831 853.477 154.833 850.89 154.832C849.35 154.831 847.811 154.832 846.271 154.836C844.82 154.84 843.37 154.839 841.919 154.835C841.392 154.835 840.864 154.836 840.336 154.838C835.681 154.858 831.117 154.377 826.64 153.04C826.385 152.965 826.129 152.89 825.866 152.813C820.088 151.052 814.006 147.756 810.147 143.004C810.147 142.81 810.147 142.617 810.147 142.418C809.954 142.418 809.76 142.418 809.561 142.418C808.388 140.832 808.388 140.832 808.388 140.073C808.194 140.073 808.001 140.073 807.801 140.073C801.955 132.434 801.554 121.759 801.563 112.59C801.562 111.803 801.561 111.017 801.559 110.23C801.555 108.325 801.555 106.42 801.555 104.515C801.556 102.963 801.555 101.412 801.554 99.8609C801.554 99.6391 801.554 99.4172 801.554 99.1886C801.553 98.7376 801.553 98.2866 801.553 97.8356C801.549 93.6175 801.55 89.3994 801.552 85.1813C801.553 81.3375 801.55 77.4937 801.544 73.6499C801.539 69.6876 801.536 65.7254 801.537 61.7631C801.538 59.5448 801.537 57.3265 801.533 55.1083C801.53 53.219 801.529 51.3297 801.533 49.4405C801.534 48.4799 801.534 47.5194 801.531 46.5589C801.513 40.5069 801.728 34.4936 803.697 28.718C803.798 28.3897 803.9 28.0615 804.005 27.7233C804.923 24.9119 806.291 22.4586 807.801 19.9268C807.995 19.9268 808.189 19.9268 808.388 19.9268C808.454 19.7213 808.521 19.5158 808.59 19.3041C809.074 18.2444 809.646 17.5568 810.44 16.7033C810.634 16.7033 810.827 16.7033 811.027 16.7033C811.099 16.533 811.172 16.3626 811.247 16.1871C813.986 11.2859 822.019 8.21405 827.154 6.73997C828.515 6.39538 829.878 6.11387 831.259 5.86085C831.531 5.80419 831.804 5.74753 832.085 5.68915C835.861 4.93006 839.703 4.93842 843.539 4.94381ZM827.154 28.1319C827.057 28.422 826.96 28.7121 826.86 29.011C826.57 29.1077 826.28 29.2044 825.981 29.3041C821.698 34.3019 823.004 43.8148 823.006 49.8839C823.005 50.6109 823.004 51.338 823.003 52.0651C823.001 53.8218 823 55.5786 823 57.3353C822.999 58.7667 822.999 60.198 822.998 61.6293C822.995 65.7077 822.994 69.786 822.994 73.8644C822.994 74.0832 822.994 74.3021 822.994 74.5276C822.994 74.7467 822.994 74.9658 822.994 75.1916C822.994 78.737 822.992 82.2825 822.987 85.8279C822.983 89.4882 822.981 93.1485 822.981 96.8088C822.982 98.8558 822.981 100.903 822.978 102.95C822.975 104.878 822.975 106.806 822.977 108.734C822.977 109.435 822.977 110.136 822.975 110.836C822.966 114.488 823.044 118.119 823.291 121.763C823.322 122.248 823.322 122.248 823.353 122.742C823.544 125.264 823.931 127.741 825.413 129.854C825.561 130.072 825.71 130.29 825.863 130.515C825.998 130.672 826.134 130.828 826.274 130.989C826.467 130.989 826.661 130.989 826.86 130.989C827.005 131.424 827.005 131.424 827.154 131.868C829.849 134.111 833.748 134.243 837.096 134.379C837.385 134.391 837.674 134.403 837.971 134.416C842.032 134.566 846.096 134.548 850.159 134.545C851.336 134.544 852.513 134.545 853.69 134.545C855.665 134.546 857.639 134.545 859.613 134.544C861.876 134.542 864.139 134.543 866.402 134.544C868.367 134.546 870.331 134.546 872.295 134.545C873.459 134.545 874.623 134.544 875.786 134.545C879.912 134.548 884.036 134.551 888.159 134.387C888.421 134.378 888.683 134.368 888.953 134.358C892.243 134.204 895.947 133.678 898.404 131.282C898.763 130.67 898.763 130.67 898.991 130.11C899.184 130.11 899.378 130.11 899.577 130.11C902.669 124.04 902.304 116.684 902.297 110.054C902.298 109.328 902.299 108.601 902.301 107.874C902.305 106.121 902.305 104.367 902.305 102.613C902.304 101.184 902.305 99.7555 902.306 98.3266C902.306 98.0191 902.306 98.0191 902.306 97.7053C902.307 97.2886 902.307 96.8718 902.308 96.4551C902.311 92.5639 902.31 88.6728 902.308 84.7816C902.307 81.2421 902.31 77.7026 902.316 74.163C902.321 70.507 902.324 66.851 902.323 63.195C902.322 61.1511 902.323 59.1073 902.327 57.0634C902.331 55.1384 902.33 53.2134 902.326 51.2884C902.326 50.5892 902.326 49.89 902.329 49.1907C902.341 45.4903 902.218 41.8286 901.861 38.1439C901.817 37.6494 901.817 37.6494 901.773 37.1449C901.492 34.5547 900.744 32.2222 899.577 29.8902C899.384 29.8902 899.19 29.8902 898.991 29.8902C898.936 29.727 898.882 29.5638 898.826 29.3956C897.544 27.3345 895.012 26.603 892.778 26.044C889.434 25.3745 885.991 25.4507 882.594 25.452C882.108 25.4511 881.621 25.4501 881.134 25.449C879.822 25.4464 878.51 25.4457 877.199 25.4455C876.377 25.4453 875.554 25.4447 874.732 25.4439C871.856 25.4412 868.98 25.44 866.104 25.4402C863.435 25.4404 860.766 25.4373 858.098 25.4327C855.796 25.4289 853.494 25.4273 851.192 25.4275C849.821 25.4276 848.451 25.4268 847.081 25.4236C845.791 25.4208 844.502 25.4208 843.212 25.4229C842.742 25.4232 842.273 25.4225 841.803 25.4207C836.852 25.4031 831.521 25.5455 827.154 28.1319Z" fill="black"/>
<path d="M399.649 4.98145C433.903 4.98145 468.156 4.98145 503.447 4.98145C503.447 11.7507 503.447 18.5199 503.447 25.4943C476.257 25.4943 449.068 25.4943 421.054 25.4943C421.054 40.0965 421.054 54.6987 421.054 69.7434C448.244 69.7434 475.433 69.7434 503.447 69.7434C503.447 76.5126 503.447 83.2818 503.447 90.2562C476.257 90.2562 449.068 90.2562 421.054 90.2562C421.054 104.858 421.054 119.461 421.054 134.505C448.244 134.505 475.433 134.505 503.447 134.505C503.447 141.178 503.447 147.85 503.447 154.725C469.194 154.725 434.941 154.725 399.649 154.725C399.649 105.31 399.649 55.8943 399.649 4.98145Z" fill="black"/>
<path d="M1074.62 4.98152C1081.69 4.98152 1088.75 4.98152 1096.03 4.98152C1096.03 26.353 1096.03 47.7244 1096.03 69.7434C1105.55 69.7797 1105.55 69.7797 1115.25 69.8167C1118.26 69.8418 1118.26 69.8418 1121.32 69.8673C1123.12 69.8654 1123.12 69.8654 1124.91 69.8589C1125.71 69.8582 1126.51 69.8631 1127.31 69.8762C1128.52 69.8956 1129.74 69.887 1130.95 69.8765C1131.3 69.8864 1131.66 69.8963 1132.02 69.9065C1133.04 69.8838 1133.79 69.8322 1134.73 69.4504C1135.87 68.1431 1136.53 66.6876 1137.08 65.0548C1137.27 65.0548 1137.47 65.0548 1137.67 65.0548C1137.69 64.9041 1137.71 64.7533 1137.74 64.5981C1138.05 63.5847 1138.59 62.7189 1139.13 61.813C1139.97 60.4085 1139.97 60.4085 1140.6 58.9009C1140.79 58.9009 1140.98 58.9009 1141.18 58.9009C1141.21 58.7502 1141.23 58.5995 1141.26 58.4442C1141.57 57.4309 1142.11 56.5651 1142.65 55.6592C1143.49 54.2546 1143.49 54.2546 1144.12 52.7471C1144.31 52.7471 1144.5 52.7471 1144.7 52.7471C1144.73 52.5964 1144.75 52.4456 1144.78 52.2904C1145.09 51.2771 1145.63 50.4112 1146.17 49.5053C1147.01 48.1008 1147.01 48.1008 1147.64 46.5932C1147.83 46.5932 1148.02 46.5932 1148.22 46.5932C1148.25 46.4425 1148.27 46.2918 1148.29 46.1365C1148.61 45.1232 1149.15 44.2574 1149.69 43.3515C1150.53 41.9469 1150.53 41.9469 1151.15 40.4394C1151.35 40.4394 1151.54 40.4394 1151.74 40.4394C1151.76 40.2887 1151.79 40.138 1151.81 39.9827C1152.12 38.9694 1152.67 38.1035 1153.21 37.1976C1154.04 35.7931 1154.04 35.7931 1154.67 34.2856C1154.87 34.2856 1155.06 34.2856 1155.26 34.2856C1155.28 34.1348 1155.31 33.9841 1155.33 33.8288C1155.64 32.8155 1156.19 31.9497 1156.72 31.0438C1157.56 29.6392 1157.56 29.6392 1158.19 28.1317C1158.38 28.1317 1158.58 28.1317 1158.78 28.1317C1158.8 27.981 1158.83 27.8303 1158.85 27.675C1159.16 26.6617 1159.7 25.7958 1160.24 24.8899C1161.08 23.4854 1161.08 23.4854 1161.71 21.9779C1161.9 21.9779 1162.1 21.9779 1162.3 21.9779C1162.32 21.8271 1162.34 21.6764 1162.37 21.5211C1162.68 20.5078 1163.22 19.642 1163.76 18.7361C1164.6 17.3315 1164.6 17.3315 1165.23 15.824C1165.42 15.824 1165.61 15.824 1165.81 15.824C1165.84 15.6733 1165.86 15.5226 1165.89 15.3673C1166.2 14.354 1166.74 13.4882 1167.28 12.5823C1168.12 11.1777 1168.12 11.1777 1168.75 9.67017C1168.94 9.67017 1169.13 9.67017 1169.33 9.67017C1169.37 9.51409 1169.4 9.35802 1169.44 9.19721C1169.89 7.53824 1170.42 6.19433 1171.68 4.98152C1173.43 4.3355 1175.44 4.57396 1177.27 4.63812C1177.82 4.64468 1178.37 4.64968 1178.91 4.65319C1180.36 4.66658 1181.8 4.70108 1183.24 4.74006C1184.71 4.77613 1186.18 4.79212 1187.65 4.80982C1190.54 4.84746 1193.42 4.90742 1196.31 4.98152C1195.91 6.22009 1195.48 7.19937 1194.75 8.27823C1194.08 9.30629 1193.47 10.32 1192.94 11.4284C1192.42 12.5078 1191.83 13.5017 1191.18 14.5053C1190.53 15.4975 1189.95 16.4786 1189.44 17.5456C1188.7 19.0683 1187.82 20.4774 1186.92 21.9092C1186.24 23.0235 1185.62 24.1631 1185 25.3146C1184.58 26.0712 1184.15 26.8087 1183.7 27.5456C1183.09 28.5575 1182.5 29.5804 1181.94 30.6225C1181.24 31.9136 1180.5 33.1696 1179.74 34.4229C1179.28 35.1978 1178.85 35.9836 1178.42 36.7764C1177.73 38.0674 1176.99 39.3234 1176.22 40.5768C1175.76 41.3517 1175.33 42.1374 1174.9 42.9302C1174.21 44.2213 1173.47 45.4773 1172.7 46.7306C1172.25 47.5055 1171.81 48.2913 1171.39 49.0841C1170.69 50.3751 1169.95 51.6311 1169.19 52.8845C1168.73 53.6594 1168.29 54.4451 1167.87 55.2379C1167.17 56.529 1166.43 57.785 1165.67 59.0383C1165.21 59.8132 1164.78 60.599 1164.35 61.3918C1163.65 62.6828 1162.91 63.9388 1162.15 65.1921C1161.69 65.9671 1161.26 66.7528 1160.83 67.5456C1160.13 68.8367 1159.39 70.0927 1158.63 71.346C1158.17 72.1209 1157.74 72.9067 1157.31 73.6995C1156.75 74.7416 1156.17 75.7645 1155.55 76.7764C1155.41 77.0132 1155.27 77.2501 1155.12 77.4941C1154.8 78.0279 1154.48 78.5596 1154.15 79.0898C1153.98 79.372 1153.82 79.6542 1153.65 79.9449C1153.49 80.2006 1153.34 80.4564 1153.18 80.7199C1152.83 81.7063 1153.06 81.9933 1153.5 82.9302C1153.81 83.5069 1154.14 84.0776 1154.47 84.6438C1154.57 84.8079 1154.66 84.972 1154.76 85.1411C1155.08 85.6807 1155.4 86.2194 1155.72 86.7581C1155.94 87.1401 1156.17 87.5221 1156.39 87.9041C1158.09 90.7807 1159.82 93.637 1161.56 96.4874C1163.14 99.0872 1164.7 101.702 1166.25 104.322C1168 107.263 1169.75 110.195 1171.53 113.113C1173.43 116.229 1175.3 119.362 1177.16 122.503C1178.79 125.244 1180.43 127.975 1182.09 130.696C1183.99 133.809 1185.86 136.939 1187.72 140.078C1188.99 142.229 1190.27 144.377 1191.57 146.511C1191.74 146.792 1191.74 146.792 1191.92 147.079C1192.46 147.965 1193 148.85 1193.54 149.734C1193.74 150.049 1193.93 150.363 1194.13 150.687C1194.29 150.958 1194.46 151.23 1194.63 151.51C1195.03 152.202 1195.4 152.892 1195.75 153.607C1195.86 153.817 1195.96 154.027 1196.07 154.243C1196.15 154.402 1196.23 154.561 1196.31 154.725C1193.15 154.923 1189.99 155.074 1186.82 155.165C1185.35 155.21 1183.88 155.269 1182.41 155.366C1173.18 155.96 1173.18 155.96 1170.86 154.362C1168.97 152.639 1167.96 150.261 1167.08 147.914C1166.28 145.791 1165.09 143.96 1163.87 142.051C1163.46 141.381 1163.05 140.707 1162.64 140.034C1162.44 139.704 1162.24 139.374 1162.03 139.035C1160.99 137.319 1159.94 135.602 1158.91 133.883C1158.71 133.57 1158.52 133.257 1158.33 132.935C1158.16 132.648 1157.98 132.362 1157.8 132.067C1157.65 131.816 1157.5 131.564 1157.34 131.305C1157.02 130.696 1157.02 130.696 1157.02 130.11C1156.82 130.11 1156.63 130.11 1156.43 130.11C1156.36 129.954 1156.28 129.798 1156.21 129.638C1155.77 128.734 1155.35 127.892 1154.75 127.088C1154.38 126.593 1154.38 126.593 1154.38 125.714C1154.19 125.714 1153.99 125.714 1153.79 125.714C1153.72 125.558 1153.64 125.403 1153.57 125.243C1153.13 124.339 1152.72 123.496 1152.11 122.692C1151.74 122.198 1151.74 122.198 1151.74 121.319C1151.55 121.319 1151.35 121.319 1151.15 121.319C1151 120.986 1150.84 120.654 1150.68 120.311C1150.08 119.1 1149.35 118.015 1148.57 116.917C1148.22 116.337 1148.22 116.337 1148.22 115.458C1148.03 115.458 1147.83 115.458 1147.64 115.458C1147.49 115.187 1147.49 115.187 1147.33 114.912C1147.14 114.556 1147.14 114.556 1146.94 114.194C1146.81 113.959 1146.68 113.725 1146.55 113.483C1146.25 112.957 1145.92 112.446 1145.58 111.941C1145.58 111.651 1145.58 111.361 1145.58 111.062C1145.39 111.062 1145.2 111.062 1145 111.062C1144.85 110.792 1144.85 110.792 1144.7 110.516C1144.5 110.161 1144.5 110.161 1144.3 109.798C1144.17 109.564 1144.04 109.329 1143.91 109.088C1143.61 108.561 1143.28 108.05 1142.94 107.546C1142.94 107.256 1142.94 106.965 1142.94 106.667C1142.75 106.667 1142.56 106.667 1142.36 106.667C1142.24 106.449 1142.24 106.449 1142.12 106.228C1140.98 104.144 1139.75 102.118 1138.51 100.091C1138.2 99.591 1137.9 99.0906 1137.6 98.5893C1137.38 98.241 1137.17 97.8948 1136.94 97.5516C1136.31 96.5514 1135.79 95.5799 1135.36 94.474C1134.71 92.946 1134 91.596 1132.68 90.5493C1130.42 89.7046 1127.9 89.8699 1125.52 89.9379C1124.4 89.9686 1123.29 89.9731 1122.18 89.9687C1119.5 89.9748 1116.83 90.0267 1114.15 90.0731C1108.17 90.1335 1102.19 90.194 1096.03 90.2563C1096.03 111.531 1096.03 132.806 1096.03 154.725C1088.97 154.725 1081.9 154.725 1074.62 154.725C1074.62 105.31 1074.62 55.8943 1074.62 4.98152Z" fill="black"/>
<path d="M987.409 4.94851C988.163 4.94859 988.918 4.94854 989.672 4.94838C991.29 4.94823 992.907 4.94914 994.524 4.95079C996.863 4.95319 999.201 4.95394 1001.54 4.95431C1005.33 4.95494 1009.13 4.95689 1012.92 4.95967C1016.61 4.96236 1020.29 4.96443 1023.98 4.96568C1024.2 4.96576 1024.43 4.96583 1024.66 4.96591C1025.81 4.96629 1026.95 4.96666 1028.09 4.96703C1037.54 4.97006 1046.99 4.97546 1056.45 4.98178C1056.45 11.751 1056.45 18.5202 1056.45 25.4946C1054.1 25.5019 1051.76 25.5093 1049.34 25.5168C1041.83 25.5406 1034.33 25.5657 1026.82 25.5916C1025.65 25.5957 1024.48 25.5997 1023.32 25.6037C1022.97 25.6049 1022.97 25.6049 1022.61 25.6061C1018.86 25.619 1015.1 25.6309 1011.34 25.6425C1007.48 25.6544 1003.62 25.6673 999.766 25.6812C997.387 25.6898 995.008 25.6975 992.629 25.7042C990.802 25.7094 988.975 25.7161 987.148 25.7233C986.401 25.726 985.653 25.7283 984.906 25.73C983.882 25.7325 982.859 25.7367 981.836 25.7413C981.396 25.7417 981.396 25.7417 980.947 25.7421C973.979 25.7632 973.979 25.7632 967.996 28.9103C967.659 29.3265 967.336 29.7539 967.016 30.1832C966.823 30.1832 966.629 30.1832 966.43 30.1832C965.018 34.1633 964.625 37.9526 964.631 42.1656C964.63 42.6694 964.63 42.6694 964.629 43.1835C964.628 44.3012 964.628 45.4189 964.628 46.5365C964.627 47.3412 964.626 48.1458 964.625 48.9504C964.623 50.9045 964.622 52.8586 964.622 54.8127C964.621 56.4024 964.621 57.9921 964.62 59.5818C964.617 64.0973 964.616 68.6127 964.616 73.1281C964.616 73.4926 964.616 73.4926 964.616 73.8644C964.616 74.2293 964.616 74.2293 964.616 74.6016C964.616 78.5428 964.614 82.484 964.609 86.4251C964.605 90.4801 964.603 94.535 964.603 98.5899C964.604 100.863 964.603 103.136 964.6 105.41C964.597 107.345 964.596 109.281 964.598 111.216C964.599 112.202 964.599 113.188 964.597 114.174C964.32 123.094 964.32 123.094 967.896 130.989C968.108 131.147 968.32 131.304 968.538 131.466C968.801 131.665 968.801 131.665 969.069 131.868C969.069 132.062 969.069 132.255 969.069 132.454C969.269 132.491 969.469 132.527 969.676 132.564C970.535 132.747 970.535 132.747 971.467 133.022C973.754 133.679 975.912 134.021 978.29 134.099C978.728 134.115 978.728 134.115 979.175 134.132C982.64 134.252 986.106 134.264 989.572 134.273C990.307 134.276 991.042 134.278 991.777 134.281C993.343 134.288 994.909 134.293 996.476 134.298C998.74 134.305 1001.01 134.313 1003.27 134.321C1006.95 134.335 1010.62 134.348 1014.3 134.36C1017.86 134.371 1021.43 134.384 1025 134.396C1025.33 134.398 1025.33 134.398 1025.67 134.399C1026.77 134.403 1027.88 134.407 1028.99 134.411C1038.14 134.444 1047.29 134.475 1056.45 134.506C1056.45 141.178 1056.45 147.851 1056.45 154.725C1046.39 154.745 1036.33 154.761 1026.27 154.77C1025.07 154.771 1023.88 154.772 1022.69 154.774C1022.34 154.774 1022.34 154.774 1021.98 154.774C1018.15 154.778 1014.32 154.785 1010.5 154.793C1006.57 154.801 1002.63 154.806 998.701 154.808C996.278 154.809 993.856 154.813 991.434 154.82C989.768 154.825 988.102 154.826 986.436 154.825C985.478 154.825 984.52 154.826 983.562 154.83C976.937 154.858 970.537 154.424 964.377 151.795C964.086 151.68 963.795 151.565 963.495 151.446C961.893 150.806 960.418 150.133 958.988 149.162C958.471 148.812 958.471 148.812 957.633 148.572C957.633 148.378 957.633 148.185 957.633 147.985C957.246 147.889 956.859 147.792 956.461 147.692C956.461 147.499 956.461 147.306 956.461 147.106C956.152 147.007 956.152 147.007 955.838 146.905C954.209 146.162 953.141 144.981 952.062 143.59C951.839 143.378 951.615 143.167 951.384 142.949C947.821 139.222 945.626 134.149 944.256 129.249C944.165 128.938 944.165 128.938 944.072 128.62C942.698 123.463 942.888 117.999 942.897 112.711C942.896 111.916 942.895 111.122 942.894 110.328C942.891 108.407 942.892 106.487 942.894 104.566C942.895 103.003 942.895 101.44 942.894 99.8772C942.894 99.6534 942.894 99.4297 942.894 99.1992C942.894 98.7445 942.894 98.2897 942.894 97.835C942.892 93.5862 942.894 89.3373 942.897 85.0885C942.9 81.4548 942.899 77.8211 942.896 74.1874C942.893 69.9521 942.892 65.7169 942.894 61.4817C942.894 61.0288 942.894 60.5759 942.894 60.123C942.894 59.9002 942.895 59.6775 942.895 59.448C942.895 57.8897 942.894 56.3313 942.893 54.773C942.891 52.87 942.892 50.967 942.895 49.064C942.896 48.0959 942.897 47.1278 942.895 46.1597C942.879 35.5169 942.879 35.5169 944.182 30.8975C944.244 30.6726 944.305 30.4477 944.369 30.2159C945.525 26.2017 947.405 22.513 949.717 19.0477C949.91 19.0477 950.104 19.0477 950.303 19.0477C950.37 18.8422 950.436 18.6367 950.505 18.425C952.417 14.2393 957.822 11.408 961.738 9.37738C961.977 9.24743 962.215 9.11749 962.46 8.98361C970.067 4.94865 979.032 4.9356 987.409 4.94851Z" fill="black"/>
<path d="M91.7754 70.3295C94.8975 70.2274 98.0193 70.1494 101.143 70.1018C102.594 70.0789 104.043 70.0479 105.493 69.9979C106.894 69.9499 108.295 69.9238 109.697 69.9125C110.23 69.9044 110.762 69.8886 111.295 69.8648C115.351 69.6905 115.351 69.6905 116.617 70.7536C117.52 71.794 118.162 72.9459 118.765 74.1781C119.181 74.9931 119.696 75.7324 120.217 76.4833C123.649 81.6276 123.649 81.6276 123.988 82.139C124.213 82.4738 124.44 82.8067 124.67 83.1377C125.495 84.3342 125.495 84.3342 125.495 84.9815C125.688 84.9815 125.882 84.9815 126.081 84.9815C127.254 86.9595 127.254 86.9595 127.254 87.6189C127.448 87.6189 127.641 87.6189 127.841 87.6189C129.013 89.5969 129.013 89.5969 129.013 90.2562C129.207 90.2562 129.4 90.2562 129.6 90.2562C130.773 92.2343 130.773 92.2343 130.773 92.8936C130.966 92.8936 131.16 92.8936 131.359 92.8936C132.532 94.8716 132.532 94.8716 132.532 95.531C132.726 95.531 132.919 95.531 133.118 95.531C133.625 96.2155 133.625 96.2155 134.181 97.1061C134.459 97.5446 134.459 97.5446 134.743 97.992C135.171 98.7544 135.171 98.7544 135.171 99.3405C135.364 99.3405 135.558 99.3405 135.757 99.3405C136.93 101.319 136.93 101.319 136.93 101.978C137.124 101.978 137.317 101.978 137.517 101.978C138.689 103.956 138.689 103.956 138.689 104.615C138.883 104.615 139.076 104.615 139.276 104.615C139.373 105.002 139.469 105.389 139.569 105.787C160.469 105.787 181.37 105.787 202.903 105.787C202.903 121.937 202.903 138.086 202.903 154.725C192.646 154.725 182.39 154.725 171.823 154.725C170.65 152.674 170.65 152.674 170.65 152.088C170.456 152.088 170.263 152.088 170.063 152.088C168.89 150.11 168.89 150.11 168.89 149.45C168.697 149.45 168.503 149.45 168.304 149.45C167.886 148.866 167.506 148.285 167.131 147.674C166.894 147.295 166.656 146.917 166.418 146.539C166.232 146.244 166.232 146.244 166.043 145.943C165.438 144.99 164.81 144.051 164.181 143.113C164.071 142.949 163.961 142.785 163.848 142.617C163.613 142.266 163.378 141.915 163.142 141.564C162.85 141.128 162.559 140.691 162.268 140.254C160.066 136.944 157.835 133.652 155.609 130.357C153.38 127.058 151.157 123.755 148.952 120.439C148.561 119.853 148.17 119.267 147.779 118.681C144.348 113.537 144.348 113.537 144.008 113.026C143.784 112.691 143.556 112.358 143.326 112.027C142.501 110.83 142.501 110.83 142.501 110.183C142.308 110.183 142.114 110.183 141.915 110.183C141.419 109.509 141.419 109.509 140.87 108.626C140.688 108.337 140.507 108.048 140.319 107.751C139.862 106.96 139.862 106.96 139.569 106.08C116.056 106.08 92.5436 106.08 68.3184 106.08C68.1248 106.564 67.9313 107.047 67.7319 107.546C67.6352 107.739 67.5384 107.932 67.4387 108.132C67.2452 108.132 67.0517 108.132 66.8523 108.132C66.7676 108.349 66.683 108.567 66.5957 108.791C66.3178 109.47 66.0171 110.118 65.6794 110.769C65.4859 110.769 65.2924 110.769 65.093 110.769C65.0084 110.987 64.9237 111.204 64.8365 111.428C64.5585 112.107 64.2578 112.756 63.9202 113.406C63.7266 113.406 63.5331 113.406 63.3337 113.406C63.237 113.793 63.1402 114.18 63.0405 114.579C62.847 114.579 62.6535 114.579 62.4541 114.579C62.3694 114.796 62.2848 115.014 62.1975 115.238C61.9196 115.917 61.6189 116.565 61.2812 117.216C61.0877 117.216 60.8942 117.216 60.6948 117.216C60.6102 117.434 60.5255 117.651 60.4383 117.875C60.1603 118.554 59.8596 119.203 59.522 119.853C59.3285 119.853 59.1349 119.853 58.9355 119.853C58.8509 120.071 58.7662 120.288 58.679 120.513C58.401 121.192 58.1003 121.84 57.7627 122.491C57.5692 122.491 57.3757 122.491 57.1763 122.491C57.0916 122.708 57.0069 122.926 56.9197 123.15C56.6417 123.829 56.3411 124.477 56.0034 125.128C55.8099 125.128 55.6164 125.128 55.417 125.128C55.3482 125.327 55.2794 125.526 55.2085 125.731C54.7439 126.791 54.1256 127.712 53.4745 128.663C53.208 129.057 52.9415 129.451 52.675 129.845C52.543 130.04 52.411 130.234 52.275 130.434C51.7539 131.202 51.2396 131.974 50.7256 132.747C50.1281 133.643 49.5304 134.539 48.9327 135.434C47.6957 137.288 46.4594 139.143 45.2243 140.998C44.5681 141.983 43.9116 142.969 43.255 143.954C42.9192 144.459 42.5835 144.963 42.248 145.467C38.8154 150.625 38.8154 150.625 37.3474 152.673C36.9093 153.26 36.9093 153.26 36.6641 154.019C36.0649 154.725 36.0649 154.725 35.4888 154.858C34.6931 154.907 33.9092 154.906 33.112 154.891C32.6497 154.892 32.6497 154.892 32.1781 154.892C31.1786 154.891 30.1796 154.88 29.1802 154.868C28.5639 154.866 27.9476 154.865 27.3314 154.864C25.0441 154.856 22.7569 154.836 20.4697 154.817C15.3595 154.786 10.2494 154.756 4.98438 154.725C4.98438 138.576 4.98438 122.426 4.98438 105.787C25.8846 105.787 46.7848 105.787 68.3184 105.787C68.6086 105.207 68.6086 105.207 68.9048 104.615C69.2883 103.927 69.6837 103.246 70.0776 102.564C70.2712 102.564 70.4647 102.564 70.6641 102.564C70.7329 102.365 70.8016 102.166 70.8725 101.961C71.3371 100.901 71.9553 99.9797 72.6066 99.0291C72.8487 98.6716 73.0908 98.3141 73.3328 97.9566C73.4644 97.7629 73.596 97.5693 73.7316 97.3698C75.008 95.4831 76.265 93.5831 77.5259 91.686C80.3041 87.5085 83.11 83.35 85.9237 79.1963C87.3606 77.0746 88.7953 74.9515 90.22 72.8215C90.3437 72.637 90.4674 72.4525 90.5949 72.2624C91.2259 71.3201 91.2259 71.3201 91.7754 70.3295Z" fill="black"/>
<path d="M91.7754 4.98169C113.485 2.85775 113.485 2.85775 118.052 6.14755C120.953 8.80172 122.57 12.4415 123.974 16.0472C124.845 18.2417 126.169 20.0777 127.547 21.978C127.832 22.3988 128.114 22.8209 128.393 23.2452C128.504 23.4115 128.615 23.5777 128.729 23.749C128.956 24.0899 129.183 24.4309 129.41 24.7721C129.991 25.6441 130.574 26.5143 131.164 27.3798C131.374 27.6884 131.583 27.9971 131.799 28.315C131.983 28.5847 132.168 28.8544 132.358 29.1323C132.805 29.8573 133.123 30.5559 133.412 31.3553C133.605 31.3553 133.799 31.3553 133.998 31.3553C135.171 33.3333 135.171 33.3333 135.171 33.9927C135.364 33.9927 135.558 33.9927 135.757 33.9927C136.93 35.9707 136.93 35.9707 136.93 36.63C137.124 36.63 137.317 36.63 137.517 36.63C138.689 38.6081 138.689 38.6081 138.689 39.2674C138.883 39.2674 139.076 39.2674 139.276 39.2674C139.373 39.6542 139.469 40.041 139.569 40.4396C160.469 40.4396 181.37 40.4396 202.903 40.4396C202.903 56.589 202.903 72.7385 202.903 89.3773C197.872 89.4438 192.84 89.5103 187.656 89.5788C186.07 89.6081 184.484 89.6375 182.85 89.6677C180.906 89.6823 180.906 89.6822 179.995 89.685C179.362 89.6899 178.728 89.7012 178.095 89.7176C172.745 89.8493 172.745 89.8493 171.196 88.6883C170.584 87.8615 170.174 87.0964 169.77 86.1539C169.474 85.6745 169.171 85.199 168.859 84.7299C168.609 84.3307 168.609 84.3307 168.354 83.9234C166.803 81.4787 165.144 79.1006 163.521 76.7033C162.777 75.603 162.033 74.5026 161.289 73.402C161.109 73.1367 160.93 72.8713 160.745 72.598C159.248 70.3828 157.762 68.1603 156.282 65.9341C156.001 65.5116 155.719 65.0892 155.437 64.6669C155.097 64.1581 154.758 63.6492 154.419 63.14C153.839 62.268 153.256 61.3978 152.665 60.5323C152.456 60.2237 152.246 59.915 152.031 59.5971C151.846 59.3274 151.662 59.0577 151.472 58.7798C151.025 58.0548 150.707 57.3562 150.418 56.5568C150.224 56.5568 150.031 56.5568 149.832 56.5568C148.659 54.5788 148.659 54.5788 148.659 53.9194C148.465 53.9194 148.272 53.9194 148.072 53.9194C146.899 51.9414 146.899 51.9414 146.899 51.2821C146.706 51.2821 146.512 51.2821 146.313 51.2821C145.14 49.304 145.14 49.304 145.14 48.6447C144.947 48.6447 144.753 48.6447 144.554 48.6447C143.381 46.6667 143.381 46.6667 143.381 46.0073C143.187 46.0073 142.994 46.0073 142.794 46.0073C142.329 45.364 142.329 45.364 141.805 44.5055C141.451 43.9312 141.097 43.3573 140.742 42.7839C140.596 42.4803 140.45 42.1767 140.299 41.8639C139.509 40.957 139.43 40.9 138.312 40.8047C137.782 40.7952 137.253 40.7954 136.723 40.8031C136.431 40.8004 136.139 40.7977 135.838 40.7949C134.857 40.788 133.877 40.7936 132.895 40.7991C132.193 40.7967 131.491 40.7936 130.789 40.7897C129.078 40.7822 127.368 40.7828 125.658 40.7869C123.667 40.7912 121.677 40.7857 119.687 40.7795C116.138 40.7687 112.588 40.7658 109.039 40.7678C105.591 40.7697 102.143 40.768 98.6955 40.7612C98.483 40.7608 98.2705 40.7604 98.0515 40.76C96.9854 40.7579 95.9193 40.7557 94.8531 40.7535C86.0082 40.7353 77.1633 40.7299 68.3184 40.7326C68.2317 40.9596 68.145 41.1867 68.0556 41.4206C67.6952 42.286 67.2386 42.9192 66.669 43.663C65.5038 45.2208 64.5089 46.8341 63.5285 48.5108C63.2869 48.8672 63.2869 48.8672 63.0405 49.2308C62.847 49.2308 62.6535 49.2308 62.4541 49.2308C62.3694 49.4484 62.2848 49.6659 62.1975 49.8901C61.9196 50.5692 61.6189 51.2173 61.2812 51.8681C61.0877 51.8681 60.8942 51.8681 60.6948 51.8681C60.6102 52.0857 60.5255 52.3033 60.4383 52.5275C60.1603 53.2066 59.8596 53.8547 59.522 54.5055C59.3285 54.5055 59.1349 54.5055 58.9355 54.5055C58.8509 54.7231 58.7662 54.9407 58.679 55.1648C58.401 55.8439 58.1003 56.4921 57.7627 57.1429C57.5692 57.1429 57.3757 57.1429 57.1763 57.1429C57.0916 57.3604 57.0069 57.578 56.9197 57.8022C56.6417 58.4813 56.3411 59.1294 56.0034 59.7802C55.8099 59.7802 55.6164 59.7802 55.417 59.7802C55.3202 60.167 55.2235 60.5539 55.1238 60.9524C54.9303 60.9524 54.7367 60.9524 54.5374 60.9524C54.4527 61.17 54.368 61.3876 54.2808 61.6117C54.0028 62.2908 53.7021 62.939 53.3645 63.5898C53.171 63.5898 52.9775 63.5898 52.7781 63.5898C52.6934 63.8073 52.6087 64.0249 52.5215 64.2491C52.2435 64.9282 51.9429 65.5763 51.6052 66.2271C51.4117 66.2271 51.2182 66.2271 51.0188 66.2271C50.9341 66.4447 50.8495 66.6623 50.7622 66.8865C50.4843 67.5655 50.1836 68.2137 49.8459 68.8645C49.6524 68.8645 49.4589 68.8645 49.2595 68.8645C49.1749 69.0821 49.0902 69.2996 49.003 69.5238C48.725 70.2029 48.4243 70.851 48.0867 71.5018C47.8931 71.5018 47.6996 71.5018 47.5002 71.5018C47.4315 71.7009 47.3627 71.9 47.2918 72.1051C46.8271 73.1647 46.2088 74.0859 45.5577 75.0366C45.2912 75.4308 45.0247 75.8249 44.7582 76.2191C44.6262 76.4133 44.4942 76.6075 44.3582 76.8076C43.8372 77.5757 43.3229 78.3482 42.8088 79.1209C42.6206 79.4027 42.4324 79.6845 42.2384 79.9748C41.8049 80.6257 41.3727 81.2773 40.9419 81.93C40.8198 82.1143 40.6977 82.2986 40.5719 82.4886C40.3423 82.8354 40.1131 83.1826 39.8847 83.5302C39.6548 83.8769 39.417 84.2186 39.173 84.5556C38.664 85.3007 38.664 85.3007 38.2267 86.279C37.4827 87.7155 36.6867 89.07 35.0854 89.6078C32.9902 89.9664 30.866 89.8481 28.7507 89.7779C28.1423 89.7719 27.534 89.7677 26.9256 89.7654C24.6817 89.744 22.4382 89.6867 20.1948 89.6337C12.6656 89.5068 12.6656 89.5068 4.98438 89.3773C4.98438 73.2279 4.98438 57.0784 4.98438 40.4396C25.8846 40.4396 46.7848 40.4396 68.3184 40.4396C68.6086 39.8593 68.6086 39.8593 68.9048 39.2674C70.4175 36.77 72.0693 34.3543 73.691 31.9267C74.105 31.3068 74.5184 30.6863 74.9317 30.0658C76.4437 27.7986 77.9705 25.5424 79.5206 23.3011C80.7798 21.4796 82.0072 19.6375 83.2314 17.7925C83.7324 17.0378 84.2354 16.2845 84.7383 15.5311C85.0178 15.1118 85.0178 15.1118 85.3029 14.6841C85.7535 14.009 86.2048 13.3344 86.6568 12.6603C86.9153 12.2741 87.1737 11.888 87.4322 11.5018C87.5575 11.315 87.6828 11.1282 87.8119 10.9357C88.4726 9.94684 89.1106 8.95032 89.7229 7.93041C89.9164 7.63425 90.1099 7.3381 90.3093 7.03297C90.5028 7.03297 90.6964 7.03297 90.8958 7.03297C90.9865 6.8033 91.0772 6.57363 91.1706 6.337C91.4822 5.56777 91.4822 5.56777 91.7754 4.98169Z" fill="black"/>
</svg>
