<svg width="1932" height="354" viewBox="0 0 1932 354" fill="none" xmlns="http://www.w3.org/2000/svg">
<g clip-path="url(#clip0_4631_16989)">
<path d="M796.999 0C823.069 0 849.139 0 875.999 0C875.999 114.18 875.999 228.36 875.999 346C851.249 346 826.499 346 800.999 346C800.669 337.42 800.339 328.84 799.999 320C797.689 322.97 795.379 325.94 792.999 329C784.039 339.24 771.947 346.104 758.999 350C758.382 350.195 757.764 350.389 757.128 350.59C725.921 360.045 688.233 354.827 659.697 339.857C628.659 322.765 608.468 294.326 598.347 260.842C594.125 246.176 592.603 231.483 592.687 216.25C592.689 215.554 592.69 214.859 592.692 214.142C592.742 202.872 593.428 192.001 595.999 181C596.166 180.262 596.332 179.524 596.503 178.764C603.984 146.479 623.427 115.676 651.749 97.8125C667.937 87.9252 685.085 81.3106 703.999 79C704.886 78.8891 705.773 78.7783 706.687 78.6641C736.101 75.5003 764.581 81.4129 787.999 100C790.639 102.31 793.279 104.62 795.999 107C796.329 71.69 796.659 36.38 796.999 0ZM689.32 169.523C675.719 184.04 672.364 201.886 672.691 220.992C673.394 239.698 681.926 254.509 695.304 267.184C708.89 278.965 725.293 282.057 742.702 281.187C759.881 279.792 775.381 271.596 786.999 259C800.485 242.771 803.321 224.474 801.999 204C799.96 187.1 790.055 173.074 777.062 162.625C749.586 143.655 713.548 146.814 689.32 169.523Z" fill="black"/>
<path d="M0 0C25.74 0 51.48 0 78 0C78.33 34.32 78.66 68.64 79 104C82.96 100.7 86.92 97.4 91 94C116.599 76.5509 147.732 74.1855 177.462 79.4995C209.427 85.8027 238.318 104.34 256.652 131.398C265.456 144.761 271.792 158.542 275.75 174.062C275.949 174.841 276.148 175.619 276.352 176.42C279.403 189.084 280.38 201.647 280.312 214.625C280.31 215.369 280.308 216.114 280.306 216.881C280.148 250.999 270.79 285.781 248 312C247.313 312.82 246.626 313.64 245.918 314.484C228.297 334.932 205.019 347.04 179 353C178.313 353.174 177.625 353.347 176.917 353.526C169.745 354.691 162.317 354.349 155.068 354.405C153.008 354.426 150.947 354.46 148.887 354.508C124.114 355.07 102.212 349.174 83.7422 331.887C80.8314 329.033 78.267 326.4 76 323C75.67 330.59 75.34 338.18 75 346C50.25 346 25.5 346 0 346C0 231.82 0 117.64 0 0ZM93.2852 168.582C89.6598 172.418 86.7335 176.493 84 181C83.5385 181.757 83.077 182.513 82.6016 183.293C74.0275 198.804 72.8729 216.683 77.0273 233.688C79.8379 243.259 83.9008 251.125 90 259C90.437 259.614 90.874 260.227 91.3242 260.859C100.014 272.237 114.232 278.614 128 281C146.694 282.845 163.101 278.622 178.188 267.25C191.701 255.918 199.876 239.816 201.707 222.347C203.248 203.662 197.487 186.253 185.5 171.84C174.357 159.182 159.815 151.766 143 150.125C124.461 149.281 106.768 155.825 93.2852 168.582Z" fill="black"/>
<path d="M1306.44 116.562C1311.51 121.276 1315.79 126.515 1320 132C1320.67 132.852 1321.34 133.704 1322.02 134.582C1343.98 163.525 1352.76 199.947 1348.18 235.889C1343.88 264.941 1331.35 290.795 1311 312C1310.18 312.882 1309.36 313.763 1308.52 314.672C1287.1 337.073 1255.72 352.594 1224.51 354.177C1182.29 354.881 1145.23 345.193 1114.1 315.129C1096.05 297.167 1083.25 274.708 1077 250C1076.52 248.194 1076.52 248.194 1076.04 246.352C1068.15 210.533 1076.06 172.971 1095 142C1098.04 137.415 1101.43 133.187 1105 129C1105.73 128.132 1106.46 127.265 1107.21 126.371C1131.37 98.5558 1165.07 82.068 1201.76 79.2539C1241.53 76.9267 1276.6 90.8268 1306.44 116.562Z" fill="#19FF9C"/>
<path d="M530.707 113.84C531.842 114.909 531.842 114.909 533 116C533.664 116.6 534.328 117.199 535.012 117.817C558.74 140.101 572.815 175.432 574.152 207.673C574.251 211.721 574.301 215.764 574.312 219.813C574.318 221.119 574.324 222.425 574.329 223.77C574.283 229.912 573.983 234.052 572 240C507.98 240 443.96 240 378 240C383.365 257.169 389.087 270.27 404.993 278.817C421.617 287.347 440.095 289.678 458.074 284.035C465.371 281.261 474.063 277.069 478.131 270.048C479.864 267.363 481.336 265.799 484 264C490.06 262.851 496.038 263.068 502.184 263.219C503.967 263.234 505.751 263.245 507.534 263.253C512.212 263.284 516.888 263.362 521.566 263.451C526.345 263.533 531.125 263.569 535.904 263.609C545.27 263.695 554.635 263.832 564 264C560.585 283.557 543.432 302.252 530 316C529.412 316.65 528.824 317.299 528.219 317.969C508.836 338.934 477.522 352.514 449.318 354.223C432.959 354.861 416.822 354.652 401 350C399.902 349.679 399.902 349.679 398.783 349.351C376.729 342.651 357.437 331.066 341 315C340.138 314.2 339.275 313.399 338.387 312.574C314.899 290.256 300.631 256.473 299.797 224.199C299.308 183.617 311.902 147.774 340 118C340.673 117.263 341.346 116.525 342.039 115.766C391.999 62.9988 479.071 65.9805 530.707 113.84ZM389 163C384.259 169.272 378 177.849 378 186C416.28 186 454.56 186 494 186C491.738 172.425 483.079 161.304 472.188 153.188C446.195 136.101 410.024 139.621 389 163Z" fill="black"/>
<path d="M1690 0C1715.74 0 1741.48 0 1768 0C1768.33 59.07 1768.66 118.14 1769 179C1771.97 175.04 1774.94 171.08 1778 167C1779.56 164.954 1781.12 162.911 1782.69 160.875C1783.09 160.353 1783.49 159.83 1783.91 159.292C1788.12 153.825 1792.37 148.382 1796.62 142.935C1801.14 137.116 1805.63 131.265 1810.1 125.4C1812.89 121.738 1815.7 118.09 1818.54 114.461C1819.14 113.695 1819.74 112.928 1820.35 112.139C1821.47 110.709 1822.59 109.28 1823.72 107.854C1824.25 107.177 1824.78 106.501 1825.32 105.805C1825.87 105.129 1826.42 104.453 1826.99 103.756C1828.56 101.605 1829.77 99.6293 1831.02 97.301C1836.76 87.2555 1836.76 87.2555 1842.17 85.1584C1848.46 83.882 1854.83 84.2779 1861.2 84.5352C1863.25 84.5632 1865.29 84.5845 1867.34 84.5995C1872.7 84.6564 1878.05 84.8034 1883.4 84.97C1888.88 85.1242 1894.36 85.1921 1899.83 85.2676C1910.56 85.4279 1921.28 85.6835 1932 86C1931.3 89.0732 1930.59 90.8169 1928.48 93.1797C1927.96 93.7714 1927.44 94.3632 1926.9 94.9729C1926.33 95.6006 1925.77 96.2283 1925.19 96.875C1923.99 98.2249 1922.8 99.5751 1921.61 100.926C1921 101.607 1920.4 102.289 1919.78 102.991C1917.13 105.986 1914.53 109.022 1911.94 112.062C1910.95 113.22 1909.96 114.378 1908.96 115.535C1908.23 116.392 1908.23 116.392 1907.48 117.266C1904.99 120.179 1902.5 123.089 1900 126C1899 127.167 1898 128.333 1897 129.5C1867 164.5 1867 164.5 1865.5 166.251C1864.5 167.414 1863.51 168.578 1862.51 169.741C1859.96 172.712 1857.42 175.679 1854.86 178.641C1849.1 185.323 1843.44 192.054 1838 199C1839.62 203.709 1842.17 207.572 1844.89 211.695C1845.38 212.44 1845.86 213.184 1846.37 213.951C1847.91 216.304 1849.45 218.652 1851 221C1851.96 222.46 1852.92 223.921 1853.87 225.382C1856.31 229.097 1858.75 232.808 1861.2 236.518C1863.37 239.813 1865.54 243.109 1867.71 246.404C1868.83 248.109 1869.95 249.813 1871.07 251.517C1877.02 260.55 1882.96 269.588 1888.9 278.628C1894.51 287.172 1900.13 295.713 1905.75 304.25C1906.89 305.977 1908.02 307.704 1909.16 309.432C1910.81 311.933 1912.46 314.434 1914.1 316.934C1917.41 321.951 1920.71 326.972 1924 332C1924.39 332.589 1924.77 333.179 1925.17 333.786C1926.19 335.344 1927.21 336.906 1928.22 338.469C1928.76 339.309 1929.31 340.148 1929.87 341.014C1931 343 1931 343 1931 345C1919.57 345.503 1908.14 345.917 1896.71 346.22C1891.39 346.364 1886.09 346.537 1880.78 346.78C1875.65 347.013 1870.53 347.167 1865.39 347.266C1863.44 347.317 1861.49 347.397 1859.54 347.507C1844.68 348.312 1844.68 348.312 1840.21 344.457C1837.06 340.65 1834.89 336.454 1832.89 331.952C1831.64 329.217 1830.1 326.693 1828.52 324.137C1827.47 322.322 1826.42 320.505 1825.38 318.688C1824.17 316.614 1822.97 314.541 1821.77 312.469C1821.15 311.409 1820.53 310.35 1819.9 309.258C1816.67 303.718 1813.4 298.203 1810.12 292.688C1809.46 291.567 1808.79 290.446 1808.11 289.291C1806.76 287.009 1805.4 284.727 1804.05 282.445C1795.6 268.222 1787.17 253.988 1778.75 239.75C1778.23 238.863 1777.7 237.977 1777.16 237.063C1776.67 236.233 1776.18 235.402 1775.67 234.547C1775.25 233.834 1774.83 233.121 1774.39 232.386C1772.57 229.27 1770.79 226.133 1769 223C1768.67 263.59 1768.34 304.18 1768 346C1742.26 346 1716.52 346 1690 346C1690 231.82 1690 117.64 1690 0Z" fill="black"/>
<path d="M1615.98 112.759C1637.11 132.213 1650.85 156.149 1658 184C1658 184.99 1658 185.98 1658 187C1631.6 187 1605.2 187 1578 187C1576.35 183.7 1574.7 180.4 1573 177C1564.27 163.657 1551.41 154.854 1535.84 151.47C1518.75 148.233 1502.21 150.348 1487.54 160.121C1472.31 171.402 1465.41 186.856 1462.5 205.227C1460.25 222.09 1463.99 240.785 1473.81 254.812C1484.05 267.981 1496.2 276.419 1513 279C1531.44 280.352 1548.46 277.869 1562.94 265.488C1568.38 260.503 1568.38 260.503 1572.15 254.316C1573.76 250.873 1575.21 248.6 1578 246C1584.06 244.42 1589.97 244.716 1596.18 244.926C1597.97 244.946 1599.75 244.962 1601.53 244.973C1606.21 245.015 1610.89 245.123 1615.57 245.245C1620.34 245.357 1625.12 245.407 1629.9 245.463C1639.27 245.581 1648.64 245.768 1658 246C1657.37 248.564 1656.75 251.127 1656.11 253.689C1655.85 254.771 1655.85 254.771 1655.58 255.875C1654.27 261.169 1652.64 266.12 1650.31 271.062C1649.97 271.805 1649.63 272.548 1649.28 273.313C1643.63 285.34 1636.79 296.004 1628 306C1627.28 306.852 1626.56 307.704 1625.82 308.582C1607.59 329.701 1581.73 343.103 1555 350C1554.32 350.178 1553.64 350.356 1552.93 350.539C1532.71 355.509 1507.12 355.396 1487 350C1486.2 349.785 1485.39 349.57 1484.57 349.348C1465.26 343.953 1447.19 335.154 1432 322C1431.25 321.359 1431.25 321.359 1430.48 320.705C1403.58 297.729 1387.46 266.002 1383 231C1382.76 225.878 1382.75 220.752 1382.75 215.625C1382.75 214.907 1382.75 214.188 1382.75 213.448C1382.76 202.656 1383.28 192.495 1386 182C1386.16 181.342 1386.31 180.683 1386.47 180.005C1390.7 162.251 1398.81 145.402 1410 131C1410.74 130.038 1411.48 129.077 1412.25 128.086C1434.64 99.9079 1466.94 82.4143 1502.52 77.664C1543.36 73.1396 1585.16 85.3532 1615.98 112.759Z" fill="black"/>
<path d="M1054 76C1054 102.07 1054 128.14 1054 155C1042.61 155.99 1042.61 155.99 1031 157C1018.46 159.831 1006.34 163.77 999 175C992.852 186.445 992.7 199.352 992.681 212.04C992.672 213.51 992.662 214.98 992.651 216.449C992.624 220.401 992.608 224.352 992.595 228.304C992.58 232.448 992.553 236.592 992.527 240.736C992.481 248.566 992.444 256.396 992.411 264.226C992.365 274.819 992.304 285.412 992.244 296.005C992.15 312.67 992.077 329.335 992 346C966.59 346 941.18 346 915 346C915 260.2 915 174.4 915 86C939.09 86 963.18 86 988 86C988.495 98.375 988.495 98.375 989 111C990.011 109.35 991.021 107.7 992.062 106C997.854 96.9647 1003.86 90.6921 1013 85C1013.62 84.6094 1014.25 84.2188 1014.89 83.8164C1026.69 77.2247 1040.82 76 1054 76Z" fill="black"/>
<path d="M1319 0C1323.29 0.462886 1325.57 3.18638 1328.42 6.12891C1328.93 6.638 1329.43 7.14709 1329.95 7.67162C1331.56 9.29499 1333.15 10.9285 1334.75 12.5625C1335.84 13.6667 1336.93 14.7702 1338.02 15.873C1340.69 18.5743 1343.35 21.2846 1346 24C1351.15 19.742 1355.75 15.2412 1360.25 10.3125C1361.46 8.99572 1362.68 7.6793 1363.89 6.36328C1364.42 5.78876 1364.94 5.21424 1365.49 4.62231C1366.96 3.04572 1368.47 1.51571 1370 0C1373.04 1.35842 1375.12 2.88463 1377.45 5.25781C1378.07 5.88301 1378.69 6.5082 1379.33 7.15234C1379.96 7.80332 1380.6 8.4543 1381.25 9.125C1382.22 10.1131 1382.22 10.1131 1383.22 11.1211C1384.82 12.743 1386.41 14.3693 1388 16C1384.26 20.532 1380.39 24.6646 1376 28.5625C1371.88 32.2714 1367.86 36.0287 1364 40C1365.58 43.8633 1368.06 46.2888 1371.01 49.2031C1371.49 49.6858 1371.98 50.1684 1372.48 50.6657C1374.02 52.1986 1375.57 53.7243 1377.12 55.25C1378.18 56.2912 1379.23 57.3329 1380.28 58.375C1382.85 60.922 1385.42 63.4627 1388 66C1386.64 69.0433 1385.12 71.1231 1382.74 73.4531C1382.12 74.0719 1381.49 74.6906 1380.85 75.3281C1380.2 75.9623 1379.55 76.5966 1378.88 77.25C1378.22 77.8997 1377.56 78.5494 1376.88 79.2188C1375.26 80.8171 1373.63 82.4106 1372 84C1364.21 77.4291 1357.05 70.4527 1350.51 62.6289C1348.9 60.7642 1348.9 60.7642 1346 59C1345.29 59.7323 1344.59 60.4645 1343.86 61.219C1341.24 63.9282 1338.61 66.6209 1335.97 69.3088C1334.82 70.4753 1333.69 71.6462 1332.56 72.8215C1330.93 74.5088 1329.29 76.1794 1327.64 77.8477C1327.14 78.3778 1326.63 78.9079 1326.11 79.4541C1322.57 82.9948 1322.57 82.9948 1319.85 83.0195C1317.73 81.8517 1316.39 80.6381 1314.77 78.8398C1314.19 78.2114 1313.62 77.583 1313.03 76.9355C1312.44 76.2762 1311.85 75.6168 1311.25 74.9375C1310.65 74.2743 1310.05 73.6111 1309.43 72.9277C1307.94 71.2918 1306.47 69.6492 1305 68C1306.53 64.7837 1308.1 62.7123 1310.69 60.25C1314.09 56.9386 1317.23 53.4974 1320.32 49.8984C1322.76 47.136 1325.36 44.5726 1328 42C1326.44 38.234 1324.09 35.8636 1321.21 33.0156C1320.52 32.3249 1320.52 32.3249 1319.81 31.6203C1318.33 30.1587 1316.85 28.7043 1315.38 27.25C1314.37 26.257 1313.37 25.2635 1312.37 24.2695C1309.92 21.841 1307.46 19.4189 1305 17C1306.45 13.9632 1307.86 11.9423 1310.31 9.625C1313.46 6.57698 1316.25 3.41148 1319 0Z" fill="#19FF9C"/>
</g>
<defs>
<clipPath id="clip0_4631_16989">
<rect width="1932" height="354" fill="white"/>
</clipPath>
</defs>
</svg>
