<?xml version="1.0" encoding="UTF-8"?> <svg xmlns="http://www.w3.org/2000/svg" width="168" height="39" viewBox="0 0 168 39" fill="none"><g clip-path="url(#clip0_11_30)"><path d="M156.812 12.935H140.913V15.1017H156.812C158.209 15.106 159.339 16.1583 159.339 17.4561V20.28H145.563C142.986 20.28 140.898 22.2199 140.898 24.6133V32.175H156.976C159.552 32.175 161.64 30.2351 161.64 27.8417V17.4272C161.64 14.9493 159.48 12.9393 156.812 12.935ZM159.339 27.8706C159.339 29.0673 158.295 30.0372 157.007 30.0372H143.23V24.5556C143.23 23.3588 144.274 22.3889 145.563 22.3889H159.339V27.8706Z" fill="black"></path><path d="M163.397 12.5306H165.73V30.0444C165.73 31.2412 164.686 32.2111 163.397 32.2111V12.5306Z" fill="black"></path><path d="M164.416 6.11723C163.854 6.11723 163.397 6.54117 163.397 7.06334V10.3928H166.982C167.544 10.3928 168 9.96884 168 9.44667V6.11723H164.416Z" fill="black"></path><path d="M71.6186 13.195H58.9616V6.76722C57.6733 6.76722 56.6292 7.73716 56.6292 8.93389V13.195V26.9172C56.6339 29.8516 59.1925 32.2284 62.3513 32.2328H77.3407V18.5106C77.336 15.5762 74.7774 13.1993 71.6186 13.195ZM75.0394 30.0589H62.3513C60.4621 30.043 58.9445 28.6072 58.9616 26.8522V15.2967H71.6186C73.5063 15.301 75.0355 16.7209 75.0394 18.4744V30.0589Z" fill="black"></path><path d="M78.4836 18.4961V32.1389H93.4729C96.6271 32.1346 99.1826 29.7606 99.1872 26.8306V13.195H84.1901C81.0406 13.1993 78.4882 15.5704 78.4836 18.4961ZM96.886 26.8306C96.8813 28.5798 95.3559 29.9968 93.4729 30.0011H80.7848V18.4961C80.8058 16.7621 82.3234 15.3653 84.1901 15.3617H96.886V26.8306Z" fill="black"></path><path d="M135.549 20.4172C135.348 20.3883 135.145 20.3739 134.943 20.3739H126.321C124.927 20.3703 123.798 19.3216 123.794 18.0267V17.4128C123.798 16.1178 124.927 15.0692 126.321 15.0656H139.763V12.8989H126.321C123.656 12.9032 121.497 14.9088 121.492 17.3839V17.9978C121.497 20.4728 123.656 22.4784 126.321 22.4828H135.137C135.243 22.4756 135.35 22.4756 135.456 22.4828C136.673 22.7117 137.532 23.7272 137.485 24.8806V30.2033H123.389C122.101 30.2033 121.057 29.2334 121.057 28.0367V21.4861V19.5217C121.045 16.0297 117.998 13.2029 114.239 13.195H100.353V32.1894H102.686V15.3617H114.239C116.734 15.3617 118.759 17.2394 118.764 19.5578V27.0978V28.0367C118.764 30.4301 120.852 32.37 123.428 32.37H139.809V24.7506C139.819 22.4965 137.966 20.6122 135.549 20.4172Z" fill="black"></path><path d="M21.7688 5.25778V18.7778H36.4083C39.5096 18.7539 42.0045 16.4009 41.9827 13.52V0H27.351C24.2481 0.0238333 21.7517 2.37539 21.7688 5.25778ZM39.7359 13.52C39.7491 15.2403 38.2602 16.6458 36.4083 16.6617H24.0157V5.25778C24.0024 3.53456 25.4959 2.12839 27.351 2.11611H39.7359V13.52Z" fill="black"></path><path d="M36.3228 20.2222H21.7688V33.8217C21.7983 36.7041 24.3336 39.0202 27.4365 39H41.9827V25.4006C41.957 22.5196 39.4241 20.202 36.3228 20.2222ZM27.4365 36.9128C25.5846 36.9251 24.0716 35.542 24.0545 33.8217V22.3094H36.3228C38.1747 22.2972 39.6876 23.6802 39.7047 25.4006V36.9128H27.4365Z" fill="black"></path><path d="M14.6396 0H8.73679e-05V13.52C-0.0170167 16.4024 2.4794 18.7539 5.58223 18.7778H20.214V5.25778C20.2357 2.37683 17.7409 0.0238333 14.6396 0ZM2.24694 2.11611H14.6396C16.4915 2.132 17.9803 3.53744 17.9671 5.25778V16.6617H5.58223C3.72722 16.6494 2.23372 15.2432 2.24694 13.52V2.11611Z" fill="black"></path><path d="M0 25.4006V39H14.554C17.6553 39.0202 20.1882 36.7026 20.2139 33.8217V20.2222H5.66766C2.56483 20.202 0.0303208 22.5182 0 25.4006Z" fill="black"></path></g><defs><clipPath id="clip0_11_30"><rect width="168" height="39" fill="white"></rect></clipPath></defs></svg> 