<svg width="804" height="236" viewBox="0 0 804 236" fill="none" xmlns="http://www.w3.org/2000/svg">
<g clip-path="url(#clip0_2193_25948)">
<path d="M64.6416 0C308.63 0 552.618 0 804 0C804 13.7935 804 27.5869 804 41.7984C679.3 41.7984 554.599 41.7984 426.12 41.7984C426.12 84.5581 426.12 127.318 426.12 171.373C411.899 171.373 397.678 171.373 383.026 171.373C383.026 128.614 383.026 85.8538 383.026 41.7984C277.959 41.7984 172.892 41.7984 64.6416 41.7984C64.6416 28.0049 64.6416 14.2114 64.6416 0Z" fill="black"/>
<path d="M0 194.201C265.32 194.201 530.64 194.201 804 194.201C804 207.995 804 221.788 804 236C538.68 236 273.36 236 0 236C0 222.206 0 208.413 0 194.201Z" fill="black"/>
<path d="M0 0C13.7966 0 27.5933 0 41.808 0C41.808 21.3268 41.808 42.6536 41.808 64.6267C84.5776 64.6267 127.347 64.6267 171.413 64.6267C171.413 99.8531 171.413 135.079 171.413 171.373C114.847 171.373 58.2804 171.373 0 171.373C0 114.82 0 58.2669 0 0ZM41.808 106.425C41.808 114.065 41.808 121.704 41.808 129.575C70.5687 129.575 99.3294 129.575 128.962 129.575C128.962 121.935 128.962 114.296 128.962 106.425C100.201 106.425 71.4402 106.425 41.808 106.425ZM129.283 106.425C129.283 114.065 129.283 121.704 129.283 129.575C129.389 129.575 129.495 129.575 129.605 129.575C129.605 121.935 129.605 114.296 129.605 106.425C129.499 106.425 129.393 106.425 129.283 106.425Z" fill="black"/>
<path d="M194.246 64.627C249.221 64.627 304.195 64.627 360.835 64.627C360.835 99.8533 360.835 135.08 360.835 171.374C305.861 171.374 250.887 171.374 194.246 171.374C194.246 136.147 194.246 100.921 194.246 64.627ZM236.054 106.425C236.054 114.065 236.054 121.704 236.054 129.575C236.16 129.575 236.267 129.575 236.376 129.575C236.376 121.936 236.376 114.296 236.376 106.425C236.27 106.425 236.164 106.425 236.054 106.425ZM236.698 106.425C236.698 106.531 236.698 106.638 236.698 106.747C263.548 106.747 290.398 106.747 318.062 106.747C318.062 106.641 318.062 106.535 318.062 106.425C291.212 106.425 264.362 106.425 236.698 106.425ZM318.384 106.425C318.384 114.065 318.384 121.704 318.384 129.575C318.49 129.575 318.596 129.575 318.706 129.575C318.706 121.936 318.706 114.296 318.706 106.425C318.599 106.425 318.493 106.425 318.384 106.425ZM236.698 107.068C236.698 114.283 236.698 121.498 236.698 128.932C263.548 128.932 290.398 128.932 318.062 128.932C318.062 121.717 318.062 114.502 318.062 107.068C291.212 107.068 264.362 107.068 236.698 107.068ZM236.698 129.254C236.698 129.36 236.698 129.466 236.698 129.575C263.548 129.575 290.398 129.575 318.062 129.575C318.062 129.469 318.062 129.363 318.062 129.254C291.212 129.254 264.362 129.254 236.698 129.254Z" fill="black"/>
<path d="M637.733 64.627C692.601 64.627 747.469 64.627 804 64.627C804 99.8533 804 135.08 804 171.374C749.132 171.374 694.264 171.374 637.733 171.374C637.733 136.147 637.733 100.921 637.733 64.627ZM679.541 106.425C679.541 114.065 679.541 121.704 679.541 129.575C679.647 129.575 679.753 129.575 679.863 129.575C679.863 121.936 679.863 114.296 679.863 106.425C679.756 106.425 679.65 106.425 679.541 106.425ZM680.184 106.425C680.184 114.065 680.184 121.704 680.184 129.575C707.247 129.575 734.309 129.575 762.192 129.575C762.192 121.936 762.192 114.296 762.192 106.425C735.129 106.425 708.067 106.425 680.184 106.425Z" fill="black"/>
<path d="M448.632 64.627C503.5 64.627 558.368 64.627 614.899 64.627C614.899 78.6326 614.899 92.6383 614.899 107.068C574.04 107.068 533.181 107.068 491.083 107.068C491.083 114.283 491.083 121.498 491.083 128.932C531.942 128.932 572.802 128.932 614.899 128.932C614.899 142.938 614.899 156.943 614.899 171.374C560.031 171.374 505.163 171.374 448.632 171.374C448.632 136.147 448.632 100.921 448.632 64.627ZM490.44 106.425C490.44 114.065 490.44 121.704 490.44 129.575C490.546 129.575 490.652 129.575 490.762 129.575C490.762 121.936 490.762 114.296 490.762 106.425C490.655 106.425 490.549 106.425 490.44 106.425Z" fill="black"/>
<path d="M0 171.694C56.5662 171.694 113.132 171.694 171.413 171.694C171.413 171.8 171.413 171.907 171.413 172.016C114.847 172.016 58.2804 172.016 0 172.016C0 171.91 0 171.804 0 171.694Z" fill="black"/>
<path d="M637.733 171.694C692.601 171.694 747.469 171.694 804 171.694C804 171.8 804 171.907 804 172.016C749.132 172.016 694.264 172.016 637.733 172.016C637.733 171.91 637.733 171.804 637.733 171.694Z" fill="black"/>
<path d="M448.632 171.694C503.5 171.694 558.368 171.694 614.899 171.694C614.899 171.8 614.899 171.907 614.899 172.016C560.031 172.016 505.163 172.016 448.632 172.016C448.632 171.91 448.632 171.804 448.632 171.694Z" fill="black"/>
<path d="M194.246 171.694C249.115 171.694 303.983 171.694 360.514 171.694C360.514 171.8 360.514 171.907 360.514 172.016C305.645 172.016 250.777 172.016 194.246 172.016C194.246 171.91 194.246 171.804 194.246 171.694Z" fill="black"/>
<path d="M637.733 63.9834C692.601 63.9834 747.469 63.9834 804 63.9834C804 64.0895 804 64.1956 804 64.3049C749.132 64.3049 694.264 64.3049 637.733 64.3049C637.733 64.1988 637.733 64.0927 637.733 63.9834Z" fill="black"/>
<path d="M448.632 63.9834C503.5 63.9834 558.368 63.9834 614.899 63.9834C614.899 64.0895 614.899 64.1956 614.899 64.3049C560.031 64.3049 505.163 64.3049 448.632 64.3049C448.632 64.1988 448.632 64.0927 448.632 63.9834Z" fill="black"/>
<path d="M194.246 63.9834C249.115 63.9834 303.983 63.9834 360.514 63.9834C360.514 64.0895 360.514 64.1956 360.514 64.3049C305.645 64.3049 250.777 64.3049 194.246 64.3049C194.246 64.1988 194.246 64.0927 194.246 63.9834Z" fill="black"/>
<path d="M42.1296 63.9834C84.7931 63.9834 127.457 63.9834 171.413 63.9834C171.413 64.0895 171.413 64.1956 171.413 64.3049C128.749 64.3049 86.0859 64.3049 42.1296 64.3049C42.1296 64.1988 42.1296 64.0927 42.1296 63.9834Z" fill="black"/>
<path d="M447.989 64.627C448.095 64.627 448.201 64.627 448.31 64.627C448.31 99.8533 448.31 135.08 448.31 171.374C448.204 171.374 448.098 171.374 447.989 171.374C447.989 136.147 447.989 100.921 447.989 64.627Z" fill="black"/>
<path d="M171.734 64.627C171.841 64.627 171.947 64.627 172.056 64.627C172.056 99.8533 172.056 135.08 172.056 171.374C171.95 171.374 171.844 171.374 171.734 171.374C171.734 136.147 171.734 100.921 171.734 64.627Z" fill="black"/>
<path d="M637.09 64.9482C637.196 64.9482 637.302 64.9482 637.411 64.9482C637.411 99.9624 637.411 134.977 637.411 171.052C637.305 171.052 637.199 171.052 637.09 171.052C637.09 136.038 637.09 101.023 637.09 64.9482Z" fill="black"/>
<path d="M193.603 64.9482C193.709 64.9482 193.815 64.9482 193.925 64.9482C193.925 99.9624 193.925 134.977 193.925 171.052C193.819 171.052 193.712 171.052 193.603 171.052C193.603 136.038 193.603 101.023 193.603 64.9482Z" fill="black"/>
<path d="M383.669 171.694C397.465 171.694 411.262 171.694 425.477 171.694C425.477 171.8 425.477 171.907 425.477 172.016C411.68 172.016 397.884 172.016 383.669 172.016C383.669 171.91 383.669 171.804 383.669 171.694Z" fill="black"/>
<path d="M615.221 129.575C615.327 129.575 615.433 129.575 615.542 129.575C615.542 143.369 615.542 157.162 615.542 171.374C615.436 171.374 615.33 171.374 615.221 171.374C615.221 157.58 615.221 143.787 615.221 129.575Z" fill="black"/>
<path d="M615.221 64.627C615.327 64.627 615.433 64.627 615.542 64.627C615.542 78.4204 615.542 92.2139 615.542 106.425C615.436 106.425 615.33 106.425 615.221 106.425C615.221 92.6319 615.221 78.8384 615.221 64.627Z" fill="black"/>
<path d="M63.9984 0.642578C64.1045 0.642578 64.2107 0.642578 64.32 0.642578C64.32 14.3299 64.32 28.0173 64.32 42.1194C64.2139 42.1194 64.1078 42.1194 63.9984 42.1194C63.9984 28.4321 63.9984 14.7447 63.9984 0.642578Z" fill="black"/>
</g>
<defs>
<clipPath id="clip0_2193_25948">
<rect width="804" height="236" fill="white"/>
</clipPath>
</defs>
</svg>
