<svg width="1437" height="110" viewBox="0 0 1437 110" fill="none" xmlns="http://www.w3.org/2000/svg">
<g clip-path="url(#clip0_4626_16710)">
<path d="M0 8.5543e-05C15.8082 -0.0522702 31.6163 -0.104626 47.9035 -0.158568C52.8681 -0.181678 57.8327 -0.204789 62.9478 -0.228599C69.0786 -0.240064 69.0786 -0.240064 71.9619 -0.242195C73.9468 -0.246056 75.9316 -0.254905 77.9164 -0.267914C113.774 -0.490889 113.774 -0.490889 123.89 9.21192C128.702 15.1673 130.349 21.545 130.289 29.0866C130.284 29.7931 130.279 30.4995 130.274 31.2274C130.086 37.7038 128.665 42.4038 124.195 47.2327C121.144 50.0313 117.187 53.3078 112.889 53.3078C112.889 53.8662 112.889 54.4247 112.889 55.0001C113.729 55.0786 113.729 55.0786 114.587 55.1587C120.75 56.8227 125.468 60.7889 129.016 66.0001C132.928 73.0205 132.6 82.2152 130.975 89.9469C128.611 97.0768 125.134 101.471 118.565 105.135C104.97 111.188 90.0757 110.343 75.5124 110.248C73.572 110.244 71.6316 110.242 69.6912 110.24C62.57 110.227 55.449 110.192 48.3279 110.159C32.3797 110.106 16.4315 110.054 0 110C0 73.7001 0 37.4001 0 8.5543e-05ZM21.2197 19.4616C21.2197 28.1178 21.2197 36.7739 21.2197 45.6924C30.7159 45.7499 40.212 45.7964 49.7084 45.8239C54.1184 45.8371 58.5283 45.8551 62.9383 45.8839C67.198 45.9116 71.4575 45.9267 75.7173 45.9332C77.3386 45.9379 78.9598 45.947 80.581 45.9608C82.8603 45.9793 85.1391 45.9817 87.4184 45.9806C88.0815 45.9897 88.7445 45.9988 89.4276 46.0082C94.4656 45.9804 100.184 45.3879 104.089 41.9253C107.354 38.0918 108.058 35.6034 107.972 30.7294C107.711 27.8187 106.964 26.0623 105.25 23.6924C99.9628 19.7203 95.0721 19.3372 88.6711 19.3656C87.9421 19.3654 87.2131 19.3653 86.462 19.3652C84.0554 19.3658 81.6489 19.3724 79.2424 19.379C77.5726 19.3806 75.9028 19.3818 74.233 19.3826C69.8404 19.3858 65.4477 19.3942 61.055 19.4035C56.5717 19.4122 52.0884 19.416 47.6051 19.4203C38.81 19.4294 30.0149 19.4443 21.2197 19.4616ZM21.2197 64.3078C21.2197 72.9639 21.2197 81.6201 21.2197 90.5385C30.9373 90.596 40.6547 90.6425 50.3724 90.6701C54.8852 90.6833 59.3978 90.7012 63.9105 90.73C68.2693 90.7577 72.628 90.7728 76.9868 90.7794C78.6459 90.7841 80.3051 90.7932 81.9642 90.8069C84.2963 90.8255 86.628 90.8279 88.9602 90.8267C89.6391 90.8359 90.318 90.845 91.0175 90.8544C96.0996 90.8269 101.807 90.245 105.786 86.8014C109.227 82.8313 109.843 79.6036 109.494 74.4616C108.016 70.5059 106.276 68.2663 102.703 66.0001C98.0628 64.3718 93.9993 64.0726 89.1529 64.1157C88.4152 64.1154 87.6776 64.1152 86.9175 64.1149C84.4972 64.1161 82.0771 64.1292 79.6569 64.1425C77.9717 64.1457 76.2865 64.1481 74.6013 64.1498C70.1793 64.1562 65.7574 64.1728 61.3355 64.1916C56.8178 64.2089 52.3002 64.2166 47.7825 64.2251C38.9282 64.2433 30.074 64.273 21.2197 64.3078Z" fill="#F05028"/>
<path d="M513.043 -0.165311C514.831 -0.162146 516.618 -0.159741 518.405 -0.158055C523.059 -0.151662 527.712 -0.135097 532.366 -0.116248C537.134 -0.0987879 541.903 -0.0911758 546.672 -0.082679C555.991 -0.0646503 565.311 -0.0349386 574.63 -4.67988e-05C574.63 6.42226 574.63 12.8446 574.63 19.4615C572.182 19.4738 569.733 19.4862 567.21 19.4989C559.073 19.5417 550.935 19.5981 542.798 19.6609C537.869 19.6986 532.941 19.7319 528.012 19.7546C523.246 19.7768 518.48 19.8111 513.714 19.8534C511.906 19.8674 510.098 19.8772 508.29 19.8826C485.691 19.7674 485.691 19.7674 465.856 29.46C457.956 37.7022 457.163 47.9771 457.315 58.7812C457.588 66.9352 460.003 74.0902 465.614 80.1168C476.394 90.0925 492.452 90.0696 506.329 90.1253C507.699 90.1396 509.069 90.1549 510.439 90.1713C513.994 90.211 517.549 90.2365 521.105 90.2588C525.397 90.2888 529.69 90.3369 533.982 90.3818C540.458 90.4477 546.934 90.4909 553.411 90.5384C553.411 81.8823 553.411 73.2261 553.411 64.3076C533.804 64.3076 514.197 64.3076 493.995 64.3076C493.995 58.1646 493.995 52.0215 493.995 45.6923C520.605 45.6923 547.215 45.6923 574.63 45.6923C574.63 66.9138 574.63 88.1353 574.63 110C555.085 110.068 555.085 110.068 546.672 110.083C540.959 110.093 535.247 110.104 529.535 110.128C524.923 110.146 520.311 110.156 515.699 110.161C513.951 110.164 512.203 110.17 510.454 110.179C489.233 110.286 464.788 109.532 448.479 94.0288C436.761 81.1321 434.813 65.4535 435.31 48.6678C435.972 36.8532 439.526 26.6638 447.312 17.7692C447.717 17.2565 448.122 16.7439 448.539 16.2157C458.705 4.48879 477.324 1.48553 491.878 0.151977C498.917 -0.35336 505.992 -0.202525 513.043 -0.165311Z" fill="#F05028"/>
<path d="M157.026 -0.000110024C178.9 -0.0524658 178.9 -0.0524658 201.216 -0.105879C205.798 -0.121286 210.379 -0.136693 215.099 -0.152566C220.753 -0.16021 220.753 -0.16021 223.411 -0.16163C225.242 -0.164206 227.074 -0.170108 228.905 -0.178776C265.727 -0.344136 265.727 -0.344136 279.036 11.4692C285.789 18.4866 287.186 28.4957 287.07 37.8322C286.448 47.5009 283.642 55.2171 276.6 61.9807C270.16 67.0854 261.647 69.18 253.788 71.0768C254.21 71.4869 254.631 71.897 255.065 72.3196C257.965 75.1723 260.795 78.0371 263.443 81.1249C265.77 83.8257 268.224 86.344 270.764 88.846C273.782 91.8184 276.614 94.8622 279.361 98.081C282.025 101.041 284.917 103.772 287.79 106.529C289.437 108.308 289.437 108.308 289.437 110C265.404 112.347 265.405 112.347 258.563 107.223C255.652 104.501 253.19 101.502 250.867 98.2727C247.476 93.6298 243.48 89.4617 239.359 85.4614C236.232 82.3823 233.269 79.231 230.423 75.8926C230.011 75.4203 229.598 74.948 229.173 74.4614C228.827 74.0206 228.48 73.5798 228.123 73.1256C226.013 71.4288 224.51 71.5862 221.819 71.5571C220.833 71.5404 219.848 71.5236 218.833 71.5064C217.769 71.5009 216.705 71.4955 215.609 71.49C214.52 71.4748 213.431 71.4596 212.309 71.4439C209.416 71.4037 206.524 71.3785 203.631 71.3564C200.678 71.3312 197.725 71.292 194.773 71.2536C188.981 71.1795 183.19 71.1288 177.397 71.0768C177.397 83.9214 177.397 96.766 177.397 110C170.675 110 163.952 110 157.026 110C157.026 73.6999 157.026 37.3999 157.026 -0.000110024ZM177.397 19.4614C177.397 30.0722 177.397 40.683 177.397 51.6153C190.013 51.6892 190.013 51.6892 202.629 51.7392C207.779 51.7544 212.929 51.7722 218.08 51.8068C222.235 51.8345 226.39 51.8496 230.545 51.8561C232.125 51.8608 233.705 51.8699 235.286 51.8837C248.764 52.2911 248.764 52.2911 260.95 47.2258C264.137 43.7383 265.574 40.6821 265.751 35.9383C265.471 31.2962 264.585 28.1119 261.427 24.5384C255.651 19.8269 249.322 19.2022 242.151 19.2693C241.446 19.2691 240.741 19.2688 240.015 19.2686C237.71 19.2697 235.405 19.2829 233.099 19.2962C231.491 19.2993 229.883 19.3017 228.276 19.3034C224.061 19.3099 219.848 19.3265 215.633 19.3452C210.568 19.3657 205.502 19.3734 200.436 19.3832C192.757 19.3996 185.077 19.432 177.397 19.4614Z" fill="#F05028"/>
<path d="M893.775 0.000166326C908.428 -0.0521894 923.081 -0.104545 938.178 -0.158488C942.772 -0.181598 947.367 -0.204708 952.101 -0.228518C957.793 -0.239984 957.793 -0.239984 960.473 -0.242114C962.311 -0.245964 964.149 -0.254791 965.986 -0.267833C1004.16 -0.52478 1004.16 -0.52478 1016.21 10.8613C1024.44 20.9892 1024.5 32.4432 1023.64 44.8463C1022.17 52.6029 1018.06 59.0433 1011.65 63.6732C998.588 71.6604 982.92 71.3329 968.127 71.2424C966.585 71.2392 965.043 71.2368 963.501 71.2351C959.486 71.2287 955.472 71.2121 951.457 71.1933C946.617 71.1727 941.776 71.1651 936.935 71.1553C929.622 71.139 922.309 71.1065 914.995 71.0771C914.995 83.9217 914.995 96.7663 914.995 110C907.993 110 900.99 110 893.775 110C893.775 73.7002 893.775 37.4002 893.775 0.000166326ZM914.995 19.4617C914.995 30.0725 914.995 40.6832 914.995 51.6156C927.611 51.6895 927.611 51.6895 940.227 51.7395C945.377 51.7546 950.527 51.7725 955.677 51.8071C959.832 51.8348 963.987 51.8498 968.143 51.8564C969.723 51.8611 971.303 51.8702 972.883 51.8839C986.446 52.3226 986.446 52.3226 998.601 47.0675C1002.7 42.7741 1002.74 38.6004 1002.63 32.8977C1002.28 28.7926 1000.91 26.4806 998.123 23.5338C989.64 18.3155 980.129 19.1302 970.531 19.2138C968.926 19.2185 967.32 19.2222 965.715 19.2247C961.515 19.2343 957.315 19.2592 953.115 19.2874C948.062 19.3181 943.009 19.3296 937.956 19.3444C930.302 19.3689 922.649 19.4176 914.995 19.4617Z" fill="#F05028"/>
<path d="M603.489 0C610.492 0 617.494 0 624.709 0C624.709 14.7992 624.709 29.5985 624.709 44.8462C651.879 44.8462 679.048 44.8462 707.042 44.8462C707.042 30.0469 707.042 15.2477 707.042 0C714.044 0 721.047 0 728.261 0C728.261 36.3 728.261 72.6 728.261 110C721.259 110 714.256 110 707.042 110C707.042 94.9215 707.042 79.8431 707.042 64.3077C679.872 64.3077 652.702 64.3077 624.709 64.3077C624.709 79.3862 624.709 94.4646 624.709 110C617.706 110 610.704 110 603.489 110C603.489 73.7 603.489 37.4 603.489 0Z" fill="#F05028"/>
<path d="M305.564 0C343.378 0 381.192 0 420.151 0C420.151 6.42231 420.151 12.8446 420.151 19.4615C404.745 19.4615 389.34 19.4615 373.468 19.4615C373.468 42.9169 373.468 66.3723 373.468 90.5385C388.873 90.5385 404.279 90.5385 420.151 90.5385C420.151 96.9608 420.151 103.383 420.151 110C382.337 110 344.524 110 305.564 110C305.564 103.578 305.564 97.1554 305.564 90.5385C320.97 90.5385 336.375 90.5385 352.248 90.5385C352.248 67.0831 352.248 43.6277 352.248 19.4615C336.842 19.4615 321.437 19.4615 305.564 19.4615C305.564 13.0392 305.564 6.61692 305.564 0Z" fill="#F05028"/>
<path d="M1308.83 -3.75559e-05C1315.56 -3.75559e-05 1322.28 -3.75559e-05 1329.2 -3.75559e-05C1329.2 14.7992 1329.2 29.5984 1329.2 44.8461C1335.68 44.9683 1342.16 45.0904 1348.83 45.2163C1350.85 45.2877 1352.87 45.3591 1354.95 45.4326C1365.07 45.6645 1365.07 45.6645 1373.81 41.2107C1376.44 38.5977 1378.69 35.7827 1380.82 32.7513C1382.03 31.0282 1383.38 29.4748 1384.8 27.923C1385.23 27.4235 1385.66 26.9239 1386.11 26.4092C1388.55 23.6574 1391.08 20.982 1393.61 18.298C1401.66 10.4718 1401.66 10.4718 1408.27 1.60447C1409.84 -3.75559e-05 1409.84 -3.75559e-05 1412.62 -0.384277C1413.76 -0.383743 1414.89 -0.364711 1416.03 -0.330566C1416.93 -0.323383 1416.93 -0.323383 1417.85 -0.316054C1419.76 -0.297126 1421.67 -0.254655 1423.58 -0.211576C1424.88 -0.194598 1426.17 -0.179155 1427.47 -0.165302C1430.65 -0.128008 1433.82 -0.0696005 1437 -3.75559e-05C1433.41 5.02597 1429.46 9.51995 1425.17 13.9615C1421.27 18.0211 1417.44 22.1114 1413.75 26.3588C1411.82 28.5753 1409.82 30.7336 1407.82 32.8942C1401.35 39.9126 1394.97 47.017 1388.62 54.1538C1392.65 59.8877 1397.31 64.872 1402.11 69.9597C1404.52 72.5203 1406.85 75.1398 1409.16 77.7998C1411.19 80.1047 1413.27 82.359 1415.36 84.6153C1418.43 87.9391 1421.45 91.2909 1424.42 94.7097C1427.07 97.7125 1429.82 100.63 1432.56 103.558C1434.33 105.621 1435.64 107.663 1437 110C1412.26 111.612 1412.26 111.612 1407.07 108.166C1404.78 105.802 1403.06 103.499 1401.35 100.692C1400.44 99.6141 1399.5 98.5542 1398.54 97.5192C1397.86 96.7273 1397.86 96.7273 1397.17 95.9194C1394.67 93.0796 1392.06 90.3337 1389.47 87.5769C1383.16 80.8754 1383.16 80.8754 1380.34 77.6346C1379.92 77.1768 1379.51 76.719 1379.07 76.2474C1377.58 74.4615 1377.58 74.4615 1376.18 72.1509C1373.63 68.4962 1371.4 65.7377 1367.01 64.6257C1360.9 63.8249 1354.77 64.0246 1348.62 64.149C1342.21 64.2014 1335.81 64.2537 1329.2 64.3077C1329.2 79.3861 1329.2 94.4646 1329.2 110C1322.48 110 1315.76 110 1308.83 110C1308.83 73.7 1308.83 37.4 1308.83 -3.75559e-05Z" fill="#F05028"/>
<path d="M1247.77 -0.174314C1251.79 -0.147969 1255.82 -0.136673 1259.84 -0.12396C1267.68 -0.0970398 1275.53 -0.0525348 1283.37 -1.18205e-05C1283.37 6.4223 1283.37 12.8446 1283.37 19.4615C1280.23 19.48 1280.23 19.48 1277.03 19.4989C1270.06 19.5418 1263.1 19.5981 1256.14 19.661C1251.92 19.6986 1247.71 19.7319 1243.49 19.7547C1239.42 19.7769 1235.34 19.8112 1231.26 19.8535C1229.71 19.8674 1228.17 19.8773 1226.62 19.8826C1212.63 19.9357 1196.3 20.2356 1185.55 30.4318C1178.72 38.3373 1177.39 49.127 1178.12 59.2308C1178.91 67.5823 1180.86 75.0536 1187.03 81.0721C1198.74 90.3735 1214.49 89.9523 1228.66 90.0427C1230.25 90.0585 1231.83 90.0751 1233.41 90.0923C1237.55 90.1354 1241.69 90.1691 1245.82 90.2007C1250.06 90.2348 1254.29 90.278 1258.52 90.3203C1266.8 90.4018 1275.09 90.4725 1283.37 90.5385C1283.37 96.9608 1283.37 103.383 1283.37 110C1274.78 110.038 1266.19 110.069 1257.6 110.088C1253.61 110.096 1249.62 110.108 1245.63 110.128C1241.77 110.146 1237.9 110.156 1234.04 110.161C1232.58 110.164 1231.12 110.17 1229.66 110.179C1208.46 110.308 1185.05 109.033 1168.94 93.4504C1158.75 82.091 1155.57 67.4676 1155.89 52.5144C1156.77 38.241 1160.3 24.2012 1171.17 14.1202C1193.02 -2.65933 1221.7 -0.363501 1247.77 -0.174314Z" fill="#F05028"/>
<path d="M1036.37 0C1058.78 0 1081.19 0 1104.27 0C1104.27 29.8777 1104.27 59.7554 1104.27 90.5385C1119.68 90.5385 1135.09 90.5385 1150.96 90.5385C1150.96 96.9608 1150.96 103.383 1150.96 110C1113.14 110 1075.33 110 1036.37 110C1036.37 103.578 1036.37 97.1554 1036.37 90.5385C1051.78 90.5385 1067.18 90.5385 1083.05 90.5385C1083.05 67.0831 1083.05 43.6277 1083.05 19.4615C1067.65 19.4615 1052.24 19.4615 1036.37 19.4615C1036.37 13.0392 1036.37 6.61692 1036.37 0Z" fill="#F05028"/>
<path d="M744.388 0C788.363 0 832.339 0 877.648 0C877.648 6.42231 877.648 12.8446 877.648 19.4615C859.161 19.4615 840.674 19.4615 821.628 19.4615C821.628 49.3392 821.628 79.2169 821.628 110C814.625 110 807.622 110 800.408 110C800.408 80.1223 800.408 50.2446 800.408 19.4615C781.921 19.4615 763.435 19.4615 744.388 19.4615C744.388 13.0392 744.388 6.61692 744.388 0Z" fill="#F05028"/>
</g>
<defs>
<clipPath id="clip0_4626_16710">
<rect width="1437" height="110" fill="white"/>
</clipPath>
</defs>
</svg>
