<svg width="605" height="134" viewBox="0 0 605 134" fill="none" xmlns="http://www.w3.org/2000/svg">
<g clip-path="url(#clip0_4630_16736)">
<path d="M537.313 -0.43753C538.317 -0.429231 539.321 -0.420933 540.355 -0.412383C558.945 0.00826152 575.477 8.07823 588.372 21.4609C603.225 38.5441 606.329 57.0425 605 79C603.137 95.9522 592.108 110.799 579.188 121.312C566.474 130.119 553.142 134.588 537.688 134.437C536.043 134.426 536.043 134.426 534.365 134.415C525.976 134.244 518.787 133.32 511 130C510.057 129.599 509.113 129.198 508.141 128.785C492.027 120.933 480.209 106.034 473.75 89.625C468.066 72.8107 469.015 55.2208 476 39C484.369 22.3002 497.359 9.43116 515 2.99997C522.514 0.522363 529.411 -0.522649 537.313 -0.43753ZM498.582 35.082C496.788 36.8427 496.788 36.8427 497 39C507.746 43.3754 519.817 46.2049 531.125 42.3125C538.125 39.4086 538.125 39.4086 543 34C543.407 28.0079 542.679 24.358 540 19C544.894 21.7913 548.749 24.2589 552 29C553.233 27.9916 553.233 27.9916 553.098 25.9336C553.087 25.1099 553.075 24.2861 553.063 23.4375C553.054 22.6112 553.045 21.7849 553.036 20.9336C553.024 20.2955 553.012 19.6574 553 19C532.295 12.3744 513.208 20.2006 498.582 35.082ZM556 21C556.073 21.7708 556.145 22.5417 556.219 23.3359C556.312 24.3388 556.405 25.3417 556.5 26.375C556.593 27.3727 556.686 28.3704 556.782 29.3984C557 32 557 32 557 34C559.97 34 562.94 34 566 34C566 34.66 566 35.32 566 36C564.02 36.99 564.02 36.99 562 38C563.238 38.6497 563.238 38.6497 564.5 39.3125C565.325 39.8693 566.15 40.4262 567 41C567 41.99 567 42.98 567 44C566.34 44.33 565.68 44.66 565 45C565.33 45.33 565.66 45.66 566 46C566.262 48.3279 566.461 50.6632 566.625 53C566.769 54.9181 566.769 54.9181 566.915 56.875C566.943 57.9062 566.971 58.9375 567 60C566.67 60.33 566.34 60.66 566 61C565.62 64.119 565.279 67.2344 565.014 70.3652C564.651 73.6552 564.159 75.7795 562.211 78.4843C559.594 80.2786 558.538 80.3939 555.438 79.9375C554.674 79.8434 553.909 79.7493 553.122 79.6523C550.572 78.8682 549.549 78.1723 548 76C547.6 73.4373 547.562 70.9661 547.504 68.375C547.208 65.8248 547.208 65.8248 544.965 64.1875C543.993 63.5997 543.993 63.5997 543 63C539.455 65.6504 536.377 68.07 535.5 72.5625C535.5 75.4104 535.706 78.168 536 81C536.025 81.8159 536.049 82.6319 536.075 83.4726C536.446 91.357 538.669 100.038 543.817 106.16C546.969 109.08 546.969 109.08 551 110C551.66 111.32 552.32 112.64 553 114C562.358 113.593 569.85 107.976 576.118 101.328C586.796 88.1236 589.572 74.5577 588 58C585.375 44.5457 577.475 32.9566 566.305 25.1054C561.502 21.9419 561.502 21.9419 556 21ZM489 79C491.999 92.1629 499.35 102.948 510.75 110.187C519.95 115.385 528.45 117.632 539 118C537.314 111.086 533.141 106.65 527.75 102.25C525 100 525 100 523 97C521.423 96.2575 521.423 96.2575 519.813 95.5C515.995 93.5329 514.976 91.1753 513.125 87.375C510.878 83.4799 510.878 83.4799 507.08 81.3164C502.092 80.314 497.071 80.1998 492 80C491.01 79.67 490.02 79.34 489 79Z" fill="#A71C22"/>
<path d="M0 3.99997C8.78923 3.93186 17.5783 3.87696 26.3677 3.84453C30.4502 3.82896 34.5324 3.80787 38.6147 3.77365C42.5635 3.74076 46.512 3.72306 50.4609 3.71534C51.9582 3.70985 53.4555 3.69913 54.9527 3.68278C69.2143 3.53343 83.2949 5.15423 94.3281 15.0234C102.304 24.4531 103.918 35.092 103 47C101.054 55.0204 95.7239 60.5173 89 65C89.5801 65.3287 90.1602 65.6574 90.7578 65.9961C98.5532 70.7427 103.622 77.0664 106.531 85.7773C108.418 94.7239 107.377 104.27 102.711 112.187C95.7202 122.057 86.9103 127.354 75.0948 129.603C68.5233 130.446 61.8869 130.241 55.2734 130.195C53.8539 130.192 52.4344 130.19 51.0149 130.189C45.8016 130.179 40.5883 130.151 35.375 130.125C23.7013 130.084 12.0275 130.042 0 130C0 104.92 0 79.84 0 54C32.9375 53.6875 32.9375 53.6875 43.2888 53.612C46.0142 53.5797 48.7395 53.5464 51.4648 53.5117C52.5105 53.5073 52.5105 53.5073 53.5773 53.5029C61.566 53.4651 68.5363 53.1047 76 50C78.0229 43.0665 78.0229 43.0665 76.9375 36.125C74.2901 31.855 71.7679 29.5893 67 28C64.8385 27.8822 62.6736 27.8231 60.509 27.7946C59.8551 27.7847 59.2012 27.7748 58.5274 27.7647C56.3686 27.7331 54.2097 27.7083 52.0508 27.6836C50.5529 27.663 49.055 27.642 47.5572 27.6206C43.6166 27.5654 39.676 27.516 35.7354 27.4677C31.7135 27.4175 27.6917 27.3618 23.6699 27.3066C15.78 27.1991 7.89003 27.0981 0 27C0 19.41 0 11.82 0 3.99997ZM24 76C24 86.23 24 96.46 24 107C29.9595 107.069 35.9176 107.129 41.8772 107.165C43.9013 107.18 45.9254 107.2 47.9495 107.226C50.8713 107.263 53.7928 107.28 56.7148 107.293C58.056 107.316 58.056 107.316 59.4243 107.34C66.7996 107.342 73.2773 106.326 79 101.437C82.0427 97.7291 82.5259 95.1717 82.4727 90.4531C81.5803 85.8216 78.5387 82.9316 75 80C68.4341 75.9883 61.4259 75.8559 53.9805 75.9023C53.1219 75.9037 52.2633 75.9051 51.3787 75.9066C48.6483 75.9122 45.9179 75.9247 43.1875 75.9375C41.3314 75.9425 39.4753 75.947 37.6191 75.9511C33.0794 75.9613 28.5398 75.9809 24 76Z" fill="#030606"/>
<path d="M235 3.99999C243.806 3.93192 252.613 3.87701 261.42 3.84455C265.51 3.82897 269.6 3.80787 273.69 3.77367C277.645 3.74082 281.6 3.72308 285.556 3.71536C287.057 3.70986 288.558 3.69913 290.058 3.6828C306.054 3.51587 318.767 6.27581 330.664 17.3672C338.958 26.7151 341.45 38.12 341.246 50.2812C340.573 60.4576 336.337 70.3157 328.75 77.3125C324.564 80.6031 319.809 82.7766 315 85C313.665 85.6639 312.332 86.3302 311 87C311.387 87.4125 311.775 87.825 312.174 88.25C325.343 102.282 325.343 102.282 330.359 108.109C332.396 110.456 334.479 112.758 336.562 115.062C337.315 115.9 338.068 116.738 338.844 117.602C340.192 119.101 341.546 120.597 342.906 122.086C347 126.662 347 126.662 347 130C320.885 132.076 320.885 132.076 315.008 127.715C312.116 124.834 310.097 121.485 308 118C306.529 116.144 305.029 114.309 303.5 112.5C302.785 111.611 302.069 110.721 301.332 109.805C297.866 105.636 294.18 101.688 290.48 97.7266C288 95 288 95 286.441 92.1992C282.286 88.4556 277.134 89.2171 271.75 89.1875C265.934 89.0947 265.934 89.0947 260 89C260 102.53 260 116.06 260 130C251.75 130 243.5 130 235 130C235 108.88 235 87.76 235 66C242.025 65.9439 242.025 65.9439 249.191 65.8867C252.167 65.8564 255.143 65.8253 258.119 65.791C262.837 65.7368 267.555 65.6857 272.274 65.6536C276.08 65.6274 279.886 65.587 283.692 65.5368C285.14 65.5202 286.589 65.5086 288.037 65.5024C300.328 65.5078 300.328 65.5078 310.812 59.625C314.954 54.6555 315.453 50.0862 315.309 43.7891C314.842 39.5679 313.686 36.3109 311 33C305.918 29.0266 300.922 27.879 294.601 27.7947C293.957 27.7848 293.312 27.7749 292.649 27.7647C290.522 27.7331 288.396 27.7083 286.27 27.6836C284.794 27.663 283.319 27.642 281.843 27.6206C277.962 27.5654 274.08 27.516 270.199 27.4678C266.237 27.4175 262.276 27.3618 258.314 27.3066C250.543 27.1991 242.772 27.0982 235 27C235 19.41 235 11.82 235 3.99999Z" fill="#030606"/>
<path d="M356 4C364.772 3.90914 373.544 3.83596 382.316 3.79276C386.391 3.772 390.465 3.74392 394.539 3.69825C398.482 3.65434 402.424 3.63077 406.366 3.6205C407.86 3.61318 409.353 3.59891 410.847 3.57708C425.237 3.37545 439.002 5.82983 449.996 15.8125C458.049 24.4019 461.351 34.2082 462.312 45.75C461.898 57.776 458.38 66.7706 450.625 75.75C444.949 80.6155 439.052 83.6072 432 86C436.741 92.7734 442.239 98.6615 447.887 104.672C450.768 107.739 453.564 110.868 456.305 114.063C457.638 115.586 459.004 117.08 460.383 118.563C461.205 119.449 462.028 120.336 462.875 121.25C463.636 122.06 464.396 122.869 465.18 123.703C466.985 125.98 467.425 127.235 468 130C463.48 130.204 458.961 130.328 454.438 130.438C452.522 130.525 452.522 130.525 450.568 130.615C441.29 130.784 441.29 130.784 437.685 128.593C435.896 126.829 434.446 125.051 433 123C432.252 122.12 431.505 121.239 430.734 120.332C430.08 119.501 429.425 118.669 428.75 117.813C425.013 113.165 421.128 108.725 416.988 104.436C414.748 102.081 412.947 99.9047 411.367 97.0547C409.462 93.6942 408.309 92.072 405 90C397.061 88.466 389.058 88.9124 381 89C381 102.53 381 116.06 381 130C372.75 130 364.5 130 356 130C356 108.88 356 87.76 356 66C360.648 65.9858 365.297 65.9716 370.086 65.957C373.048 65.937 376.01 65.9154 378.973 65.8887C383.664 65.8465 388.356 65.8094 393.047 65.8044C396.834 65.8001 400.62 65.7715 404.407 65.7266C405.845 65.7137 407.282 65.7093 408.72 65.7139C417.371 65.735 424.738 65.1868 432 60C435.756 55.3333 436.358 50.2272 436.281 44.3789C435.664 39.1588 433.291 35.2915 429.625 31.625C424.673 28.5597 420.12 27.7485 414.352 27.6812C412.401 27.6514 412.401 27.6514 410.41 27.6209C409.005 27.6091 407.6 27.5974 406.195 27.5859C404.747 27.5672 403.298 27.5476 401.849 27.5273C398.052 27.4761 394.254 27.4364 390.456 27.3991C386.575 27.359 382.694 27.3079 378.812 27.2578C371.208 27.1612 363.604 27.0778 356 27C356 19.41 356 11.82 356 4Z" fill="#030606"/>
<path d="M116 4C123.92 4 131.84 4 140 4C140.015 6.30001 140.029 8.60002 140.044 10.9697C140.095 18.6093 140.162 26.2487 140.236 33.8881C140.28 38.5152 140.32 43.1423 140.347 47.7695C140.373 52.2436 140.413 56.7174 140.463 61.1913C140.48 62.8895 140.491 64.5877 140.498 66.286C140.419 85.4042 140.419 85.4042 149.531 101.582C156.816 108.386 163.943 109.503 173.636 109.417C181.735 109.135 188.005 107.396 193.875 101.562C201.92 90.9018 201.603 77.9424 201.61 65.2305C201.625 63.4554 201.641 61.6804 201.66 59.9053C201.703 55.2777 201.723 50.6502 201.738 46.0224C201.758 41.2824 201.8 36.5426 201.84 31.8027C201.915 22.5352 201.963 13.2678 202 4C209.92 4 217.84 4 226 4C226.068 14.8754 226.123 25.7506 226.156 36.6261C226.171 41.6771 226.192 46.7279 226.226 51.7788C226.259 56.6612 226.277 61.5435 226.285 66.426C226.29 68.2806 226.301 70.1351 226.317 71.9896C226.466 89.5884 224.371 105.115 212.063 118.812C199.522 130.451 184.013 133.635 167.473 133.246C151.933 132.584 138.577 126.389 128 115C119.855 104.836 115.651 93.2707 115.773 80.2891C115.773 79.4588 115.772 78.6286 115.772 77.7732C115.774 75.057 115.789 72.3411 115.805 69.625C115.809 67.7307 115.811 65.8364 115.813 63.9421C115.821 58.9773 115.841 54.0127 115.863 49.0479C115.883 43.9734 115.892 38.8988 115.902 33.8242C115.924 23.8828 115.959 13.9414 116 4Z" fill="#030706"/>
<path d="M562 65C563.881 66.8806 563.124 69.4989 563.133 71.9922C563 74 563 74 562 77C559.125 77.625 559.125 77.625 556 78C555.34 77.34 554.68 76.68 554 76C554 75.01 554 74.02 554 73C553.34 73 552.68 73 552 73C552.66 74.65 553.32 76.3 554 78C551.525 77.01 551.525 77.01 549 76C549.481 68.6643 549.481 68.6643 551.562 66C555.185 64.5137 558.095 64.7439 562 65Z" fill="#FBEFED"/>
<path d="M549 64C550.98 64 552.96 64 555 64C554.041 64.8044 554.041 64.8044 553.062 65.625C550.596 68.465 550.4 70.3204 550 74C549.67 74.66 549.34 75.32 549 76C549.99 76 550.98 76 552 76C552 75.01 552 74.02 552 73C552.66 73 553.32 73 554 73C557 77.3846 557 77.3846 557 80C553.339 80.3328 551.605 80.4617 548.625 78.1875C547 76 547 76 547 73C547.66 73 548.32 73 549 73C549 70.03 549 67.06 549 64Z" fill="#961E20"/>
<path d="M553 53C553.66 53 554.32 53 555 53C558.12 56.3035 559 57.3241 559 62C554.125 61.125 554.125 61.125 553 60C552.959 57.667 552.958 55.3329 553 53Z" fill="#DEA29A"/>
<path d="M552 66C553.245 68.4909 552.777 69.4108 552 72C552.66 72.33 553.32 72.66 554 73C553.34 73 552.68 73 552 73C552.66 74.65 553.32 76.3 554 78C551.525 77.01 551.525 77.01 549 76C549.75 68.25 549.75 68.25 552 66Z" fill="#EBBAB3"/>
</g>
<defs>
<clipPath id="clip0_4630_16736">
<rect width="605" height="134" fill="white"/>
</clipPath>
</defs>
</svg>
