<svg width="800" height="131" viewBox="0 0 800 131" fill="none" xmlns="http://www.w3.org/2000/svg">
<g clip-path="url(#clip0_4631_16998)">
<path d="M326.855 53.6433L334.128 53.4761C341.252 53.4761 343.562 49.4338 343.562 39.3271C343.562 29.2204 341.491 24.6012 335.188 24.6012H326.859V130.85H299.297L299.292 2.56735H340.673C363.763 2.56735 370.888 14.8838 370.888 34.7079C370.888 48.7611 367.328 59.7302 354.239 63.1935C365.496 65.2157 370.743 73.8058 370.743 88.5541V119.684C370.743 125.363 372.237 129.79 373.197 130.85H345.337C344.571 129.741 343.415 125.554 343.415 119.877V85.7614C343.415 79.6521 340.284 75.0819 333.643 75.0819H326.853V53.6433M61.7738 109.037C66.7008 104.931 67.5447 99.8371 67.5447 95.2811V76.1032H40.7674V102.126C40.7674 105.844 37.7484 108.861 34.0323 108.861C30.3161 108.861 27.5499 105.842 27.5499 102.126V28.4009C27.5499 24.6786 30.3161 21.6658 34.0323 21.6658C37.7484 21.6658 40.7674 24.6786 40.7674 28.4009V54.581H67.5121V27.4224C67.5121 12.4132 57.703 0.0600327 33.8101 0.0314941C9.27504 0.0314941 0 12.4376 0 27.4489V104.422C0 119.3 11.8109 130.557 26.916 130.557H35.2126L61.7738 109.037ZM753.617 53.4048V24.5339H761.987C768.29 24.5339 770.361 29.1531 770.361 39.2598C770.361 49.3605 768.051 53.4048 760.927 53.4048H753.617L753.71 75.0105H760.446C767.083 75.0105 770.214 79.5808 770.214 85.6901V119.808C770.214 125.487 771.37 129.674 772.136 130.781H800C799.034 129.721 797.546 125.296 797.546 119.618V88.4828C797.546 73.7345 792.299 65.1443 781.042 63.1222C794.125 59.6609 797.69 48.6898 797.69 34.6407C797.69 14.8165 790.566 2.50008 767.472 2.50008H726.091L726.095 130.779H753.71V75.0105L753.617 53.4048ZM685.852 108.089L683.047 84.628L675.886 24.7724L668.731 84.6342L683.047 84.628L685.852 108.089L665.92 108.103L663.208 130.779H635.3L657.317 2.25954H694.367L716.474 130.779H688.565L685.852 108.089ZM509.669 130.769V2.54085H537.916V106.425H567.364V130.769H509.669ZM466.461 130.769H494.708V2.54085H466.461V130.769Z" fill="black"/>
<path d="M509.669 130.769V2.54105H537.916V106.426H567.364V130.769H509.669ZM574.15 130.769V2.54105H602.393V106.426H631.838V130.769H574.15ZM456.99 41.2312C456.99 63.7482 452.71 79.9173 427.353 79.9173H411.91L411.812 57.1089L420.235 57.2088C427.353 57.2088 428.558 53.3601 428.558 41.2333C428.558 29.4937 427.353 24.5851 420.184 24.5851H411.81V57.1089L411.91 79.9173V130.828H384.295L384.29 2.54921H427.353C452.71 2.54921 456.99 18.7102 456.99 41.2312ZM251.59 26.9884V52.3939H280.848V77.5099H251.59V105.995L286.322 105.983L286.334 130.728L223.325 130.751V2.52271H223.298H285.18V26.9884H251.59ZM167.336 112.06V27.4716H148.861V2.54513H215.742V27.4716H197.167V130.404H189.25L167.336 112.06Z" fill="black"/>
<path d="M179.318 130.585L114.189 76.0217L46.6953 130.585H179.318Z" fill="#F6C00D"/>
<path d="M106.989 61.2957L114.204 24.4402L121.373 61.2957H106.989L114.204 67.5518L156.41 102.915L132.778 2.6897H95.4659L73.7256 100.216L114.204 67.5518L106.989 61.2957Z" fill="black"/>
</g>
<defs>
<clipPath id="clip0_4631_16998">
<rect width="800" height="130.88" fill="white"/>
</clipPath>
</defs>
</svg>
