<svg width="75" height="24" viewBox="0 0 75 24" fill="none" xmlns="http://www.w3.org/2000/svg">
<path d="M10.5671 23.1042C8.69629 23.1042 7.0194 22.6517 5.53643 21.7467C4.07629 20.819 2.91273 19.4953 2.04576 17.7758C1.20162 16.0562 0.779541 13.9859 0.779541 11.5648C0.779541 9.1665 1.21302 7.10744 2.07999 5.38788C2.94695 3.66832 4.13332 2.34465 5.6391 1.41697C7.14488 0.489286 8.84458 0.0254517 10.7382 0.0254517C12.1071 0.0254517 13.3163 0.308283 14.3658 0.873936C15.4152 1.41697 16.2594 2.0505 16.8982 2.77454L15.3582 4.60727C14.765 3.97377 14.092 3.46465 13.3391 3.08C12.5862 2.69535 11.7307 2.50303 10.7724 2.50303C9.35791 2.50303 8.11451 2.87636 7.04221 3.62303C5.99273 4.3471 5.1714 5.37653 4.57821 6.71151C4.00784 8.0465 3.72265 9.64165 3.72265 11.497C3.72265 13.3523 4.00784 14.9701 4.57821 16.3503C5.14857 17.7079 5.9471 18.76 6.97376 19.5067C8.02324 20.2533 9.25524 20.6267 10.6698 20.6267C11.7421 20.6267 12.7003 20.4004 13.5444 19.9479C14.3885 19.4953 15.1643 18.8844 15.8715 18.1151L17.4458 19.88C16.556 20.8982 15.5521 21.6901 14.4342 22.2558C13.3163 22.8214 12.0272 23.1042 10.5671 23.1042ZM21.6308 22.697V0.432724H24.4713V9.76606H34.909V0.432724H37.7837V22.697H34.909V12.2097H24.4713V22.697H21.6308ZM43.9555 22.697V0.432724H56.8915V2.80848H46.7959V9.8H55.3173V12.2097H46.7959V20.2873H57.2337V22.697H43.9555ZM62.0024 22.697V0.432724H74.9384V2.80848H64.8428V10.343H73.3984V12.7188H64.8428V22.697H62.0024Z" fill="#121619"/>
</svg>
