<svg width="650" height="186" viewBox="0 0 650 186" fill="none" xmlns="http://www.w3.org/2000/svg">
<mask id="mask0_2018_19862" style="mask-type:luminance" maskUnits="userSpaceOnUse" x="0" y="0" width="645" height="186">
<path d="M644.434 0H0V186H644.434V0Z" fill="white"/>
</mask>
<g mask="url(#mask0_2018_19862)">
<path d="M196.331 185.928C161.351 185.928 132.887 157.42 132.887 122.387C132.887 87.3537 161.351 58.8457 196.331 58.8457C231.311 58.8457 259.774 87.3537 259.774 122.387C259.774 157.42 231.311 185.928 196.331 185.928ZM196.331 82.8885C174.588 82.8885 156.893 100.611 156.893 122.387C156.893 144.163 174.588 161.886 196.331 161.886C218.073 161.886 235.769 144.163 235.769 122.387C235.769 100.611 218.073 82.8885 196.331 82.8885Z" fill="#121619"/>
<path d="M492.976 185.928C457.996 185.928 429.532 157.42 429.532 122.387C429.532 87.3537 457.996 58.8457 492.976 58.8457C527.956 58.8457 556.42 87.3537 556.42 122.387C556.42 157.42 527.956 185.928 492.976 185.928ZM492.976 82.8885C471.234 82.8885 453.538 100.611 453.538 122.387C453.538 144.163 471.234 161.886 492.976 161.886C514.718 161.886 532.414 144.163 532.414 122.387C532.414 100.611 514.718 82.8885 492.976 82.8885Z" fill="#121619"/>
<path d="M644.754 185.802H625.416C599.851 185.802 579.122 165.04 579.122 139.434V64.5674C592.376 64.5674 603.125 75.335 603.125 88.6102V139.434C603.125 151.765 613.107 161.759 625.416 161.759H644.754V185.802Z" fill="#121619"/>
<path d="M644.754 64.5589H617.599C596.799 64.5589 579.875 47.609 579.875 26.7777V0H603.879V26.7777C603.879 34.3512 610.037 40.5164 617.599 40.5164H644.754V64.5589Z" fill="#121619"/>
<path d="M345.195 185.931C310.267 185.588 282.377 156.565 282.377 121.583V84.9607C295.632 84.9607 306.383 95.7284 306.383 109.004V121.729C306.383 143.359 323.47 161.476 345.058 161.88C367.152 162.301 385.259 144.423 385.259 122.39C385.259 100.357 367.563 82.8915 345.821 82.8915L320.126 82.9601C299.292 82.9601 282.369 66.0102 282.369 45.1789V0H306.375V45.1789C306.375 52.7523 312.53 58.9178 320.092 58.9178L345.787 58.8487C380.801 58.8487 409.264 87.3566 409.264 122.39C409.264 157.423 380.466 186.275 345.195 185.931Z" fill="#121619"/>
<path d="M63.4435 185.996C28.464 185.996 0 157.488 0 122.455C0 87.4216 28.464 58.9136 63.4435 58.9136C83.8059 58.9136 103.07 68.8059 114.971 85.3779L95.4827 99.4168C88.0756 89.1043 76.0982 82.9564 63.4354 82.9564C41.6928 82.9564 23.9971 100.679 23.9971 122.455C23.9971 144.231 41.6928 161.954 63.4354 161.954C76.0895 161.954 88.0756 155.797 95.4827 145.493L114.971 159.532C103.062 176.105 83.8059 185.996 63.4435 185.996Z" fill="#121619"/>
</g>
</svg>
