<svg width="445" height="100" viewBox="0 0 445 100" fill="none" xmlns="http://www.w3.org/2000/svg">
<g clip-path="url(#clip0_710_26949)">
<path d="M58.3481 0.000244141C70.7221 0.000244141 85.6527 3.14912 100.78 14.6278C98.0284 18.5188 87.6194 31.6662 84.868 35.5538C78.0981 29.8788 69.369 26.7195 60.3096 26.6655C44.7922 26.6655 33.9873 36.2944 33.9873 49.9979C33.9873 63.7017 44.7922 73.5164 60.3096 73.5164C65.4202 73.5164 75.8323 72.2214 84.868 64.6268C87.6194 68.5158 98.0284 81.6644 100.78 85.553C85.6527 97.0353 70.7221 99.9975 58.3481 99.9975C23.5718 99.9975 0 78.1466 0 49.9971C0 21.8476 23.5707 0.000244141 58.3481 0.000244141Z" fill="url(#paint0_linear_710_26949)"/>
<path d="M162.389 100C130.759 100 105.021 77.7779 105.021 49.9991C105.021 22.2204 130.759 0 162.389 0C194.215 0 219.751 22.4069 219.751 49.9991C219.751 77.5914 194.215 100 162.389 100ZM162.389 73.7041C176.925 73.7041 187.141 63.8894 187.141 49.9982C187.141 36.1074 176.925 26.109 162.389 26.109C147.853 26.109 137.636 36.1098 137.636 49.9982C137.636 63.8867 147.851 73.7045 162.389 73.7045V73.7041Z" fill="url(#paint1_linear_710_26949)"/>
<path d="M286.503 0C298.882 0 313.811 3.14888 328.939 14.6276C326.187 18.5185 315.775 31.666 313.024 35.5536C306.255 29.8789 297.527 26.7196 288.469 26.6653C272.95 26.6653 262.145 36.2941 262.145 49.9978C262.145 63.7015 272.95 73.5163 288.469 73.5163C293.576 73.5163 303.987 72.2213 313.024 64.6266C315.775 68.5157 326.187 81.6643 328.939 85.5528C313.811 97.0352 298.882 99.9974 286.503 99.9974C251.732 99.9974 228.158 78.1465 228.158 49.9969C228.158 21.8473 251.732 0 286.503 0Z" fill="url(#paint2_linear_710_26949)"/>
<path d="M386.922 100C355.293 100 329.559 77.7779 329.559 49.9991C329.559 22.2204 355.294 0 386.922 0C418.748 0 444.284 22.4069 444.284 49.9991C444.284 77.5914 418.749 100 386.922 100ZM386.922 73.7041C401.46 73.7041 411.675 63.8894 411.675 49.9982C411.675 36.1074 401.46 26.109 386.922 26.109C372.385 26.109 362.169 36.1098 362.169 49.9982C362.169 63.8867 372.384 73.7045 386.922 73.7045V73.7041Z" fill="url(#paint3_linear_710_26949)"/>
</g>
<defs>
<linearGradient id="paint0_linear_710_26949" x1="72.9647" y1="-135.396" x2="48.752" y2="135.531" gradientUnits="userSpaceOnUse">
<stop stop-color="#FEBA03"/>
<stop offset="0.356" stop-color="#FE840A"/>
<stop offset="0.431" stop-color="#FF562E"/>
<stop offset="1" stop-color="#D56EE1"/>
</linearGradient>
<linearGradient id="paint1_linear_710_26949" x1="188.085" y1="-135.4" x2="166.777" y2="136.024" gradientUnits="userSpaceOnUse">
<stop stop-color="#FEBA03"/>
<stop offset="0.356" stop-color="#FE840A"/>
<stop offset="0.431" stop-color="#FF562E"/>
<stop offset="1" stop-color="#D56EE1"/>
</linearGradient>
<linearGradient id="paint2_linear_710_26949" x1="301.124" y1="-135.397" x2="276.911" y2="135.53" gradientUnits="userSpaceOnUse">
<stop stop-color="#FEBA03"/>
<stop offset="0.356" stop-color="#FE840A"/>
<stop offset="0.431" stop-color="#FF562E"/>
<stop offset="1" stop-color="#D56EE1"/>
</linearGradient>
<linearGradient id="paint3_linear_710_26949" x1="412.62" y1="-135.4" x2="391.311" y2="136.024" gradientUnits="userSpaceOnUse">
<stop stop-color="#FEBA03"/>
<stop offset="0.356" stop-color="#FE840A"/>
<stop offset="0.431" stop-color="#FF562E"/>
<stop offset="1" stop-color="#D56EE1"/>
</linearGradient>
<clipPath id="clip0_710_26949">
<rect width="444.284" height="100" fill="white"/>
</clipPath>
</defs>
</svg>
