<?xml version="1.0" encoding="UTF-8"?>
<svg version="1.1" xmlns="http://www.w3.org/2000/svg" width="3399" height="259">
<path d="M0 0 C4.16851413 0.13851967 8.33745696 0.15052476 12.50791717 0.17655897 C20.38725527 0.24466798 28.25979493 0.42476554 36.13615173 0.64624774 C45.10992358 0.89305293 54.08403887 1.01332602 63.06036508 1.12354732 C81.50825557 1.35287757 99.94983707 1.73924788 118.39251494 2.23066664 C118.97466262 3.27386312 118.97466262 3.27386312 119.56857085 4.33813429 C121.36556186 7.55683043 123.16418725 10.77461056 124.96282744 13.99238539 C125.57295684 15.08579237 126.18308623 16.17919935 126.8117044 17.30573988 C130.88880239 24.59628094 135.04186741 31.83775566 139.26751494 39.04316664 C139.910596 40.14120619 140.55367705 41.23924574 141.21624541 42.37055922 C141.72558623 43.23833998 142.23492705 44.10612074 142.75970244 45.00019789 C146.68729044 51.71527938 150.54201201 58.47125385 154.39251494 65.23066664 C159.36949973 73.96487321 164.38144447 82.67705809 169.45501494 91.35566664 C170.01132598 92.31053968 170.56763701 93.26541273 171.14080596 94.24922132 C173.92489725 99.0251535 176.72262975 103.79212212 179.55164886 108.54154921 C180.97444137 110.93499335 182.38725682 113.33423807 183.79849029 115.73451185 C184.810086 117.44693112 185.83470076 119.15163814 186.85955596 120.85615492 C187.46726836 121.89240004 188.07498076 122.92864515 188.70110869 123.99629164 C189.5179312 125.3696266 189.5179312 125.3696266 190.35125518 126.7707057 C191.39251494 129.23066664 191.39251494 129.23066664 191.22747588 131.24433851 C190.20359285 133.68010235 189.02207396 135.94306835 187.72454619 138.24629164 C187.16839629 139.23750013 186.61224639 140.22870863 186.03924346 141.24995375 C185.13130034 142.84915663 185.13130034 142.84915663 184.20501494 144.48066664 C183.57716094 145.59385267 182.94930694 146.70703871 182.30242705 147.85395765 C176.93949098 157.33327335 171.46257064 166.74495122 165.95501494 176.14082289 C162.26038157 182.44637128 158.60404255 188.77364198 154.95501494 195.10566664 C154.33320342 196.18437025 153.7113919 197.26307386 153.0707376 198.37446547 C151.17751595 201.65958915 149.28490511 204.94506392 147.39251494 208.23066664 C146.12956838 210.42341775 144.86654763 212.61612614 143.60345244 214.80879164 C142.97914336 215.89257093 142.35483428 216.97635023 141.71160674 218.09297132 C139.85186692 221.31777514 137.98756582 224.53991085 136.12298369 227.76191664 C133.87433596 231.65031461 131.64193626 235.54708557 129.43049407 239.45677137 C127.84207491 242.26071898 126.240632 245.0572381 124.64251494 247.85566664 C124.05784453 248.8999684 123.47317412 249.94427015 122.87078643 251.02021742 C122.32623809 251.96880629 121.78168975 252.91739515 121.22063994 253.89472914 C120.74529815 254.73471449 120.26995635 255.57469984 119.78021026 256.44013929 C119.3222708 257.03101332 118.86433135 257.62188734 118.39251494 258.23066664 C117.40251494 258.23066664 116.41251494 258.23066664 115.39251494 258.23066664 C115.04172881 257.59902601 114.69094268 256.96738539 114.32952666 256.31660414 C106.68266356 242.56364529 98.91161456 228.89697612 90.95501494 215.32051039 C87.26038157 209.01496199 83.60404255 202.68769129 79.95501494 196.35566664 C79.33320342 195.27696302 78.7113919 194.19825941 78.0707376 193.08686781 C75.54540243 188.70489891 73.0212332 184.32225887 70.49700713 179.93965101 C61.51130729 164.34095805 52.4801798 148.77017096 43.39251494 133.23066664 C37.98690725 141.89655931 32.80067964 150.65442215 27.76751494 159.54316664 C26.36161175 162.01676301 24.95353929 164.48911982 23.54485869 166.96113539 C23.1941783 167.5767433 22.84349792 168.19235121 22.48219085 168.8266139 C19.13689303 174.69230965 15.74052056 180.52766139 12.33001494 186.35566664 C5.61481199 197.83434453 -1.03478213 209.3500688 -7.67242646 220.87373304 C-9.68353259 224.36259367 -11.69779501 227.84961492 -13.71295381 231.33613539 C-14.39274291 232.51271875 -15.072512 233.68931369 -15.75226045 234.86592054 C-17.03346672 237.08335041 -18.31517173 239.30049223 -19.59747529 241.51728773 C-22.99005512 247.3916374 -26.33811921 253.28679092 -29.60748506 259.23066664 C-30.26748506 259.23066664 -30.92748506 259.23066664 -31.60748506 259.23066664 C-32.01885713 258.50814711 -32.4302292 257.78562757 -32.85406709 257.04121351 C-40.05158363 244.40614981 -47.25921997 231.77888101 -54.60748506 219.23066664 C-59.66382563 210.59570355 -64.65327397 201.92444489 -69.60748506 193.23066664 C-74.63176764 184.41658522 -79.6841922 175.61999251 -84.79498506 166.85566664 C-85.35645234 165.8883058 -85.91791963 164.92094496 -86.49640107 163.92427015 C-89.40027187 158.93787198 -92.35840681 153.995008 -95.40436006 149.09394789 C-96.01513398 148.0986305 -96.62590791 147.10331312 -97.25519013 146.07783461 C-98.41606944 144.19059419 -99.59216559 142.31259758 -100.78595185 140.44599867 C-103.04937968 136.74541226 -104.54560591 134.15570742 -104.83795381 129.78535414 C-103.03651705 124.5812035 -100.34364346 120.10717024 -97.48248506 115.41816664 C-96.19648099 113.26372457 -94.91135411 111.10875869 -93.62701631 108.95332289 C-92.96137666 107.84360121 -92.29573701 106.73387953 -91.60992646 105.59052992 C-88.40472893 100.21258205 -85.28854264 94.7841603 -82.16998506 89.35566664 C-80.91109469 87.17064161 -79.6519789 84.98574644 -78.39264131 82.80097914 C-77.76760713 81.71591078 -77.14257295 80.63084242 -76.49859834 79.5128932 C-72.74802106 73.00337075 -68.99246516 66.49671884 -65.23712373 59.98994398 C-62.08363344 54.52532001 -58.93281465 49.05918762 -55.78717256 43.59004164 C-55.14973115 42.48273695 -54.51228974 41.37543226 -53.85553193 40.23457289 C-52.67612726 38.1856801 -51.49761425 36.13627353 -50.32037568 34.08613539 C-49.18170676 32.10893225 -48.00798572 30.15155709 -46.8024466 28.21440077 C-45.01190579 25.1807409 -43.78843079 22.11941646 -42.56901765 18.81773329 C-34.0632567 -1.85010339 -19.59809814 -0.76196139 0 0 Z " fill="#121212" transform="translate(104.60748505592346,-0.2306666374206543)"/>
<path d="M0 0 C140.2264574 0 140.2264574 0 171 15 C172.47533203 15.70769531 172.47533203 15.70769531 173.98046875 16.4296875 C200.91847181 30.19022586 218.82996044 54.96728206 228.05224609 83.27026367 C235.298791 106.75180755 236.23632274 132.84470017 232 157 C231.88172852 157.67514648 231.76345703 158.35029297 231.64160156 159.04589844 C227.04414449 183.85812862 215.88975095 205.30881055 198 223 C197.29746094 223.72445312 196.59492187 224.44890625 195.87109375 225.1953125 C147.24543911 272.20328392 52.38211915 257 0 257 C0 172.19 0 87.38 0 0 Z M22 20 C22 91.61 22 163.22 22 237 C109.50194585 241.98999239 109.50194585 241.98999239 183.6875 205.75 C194.85788308 193.88666511 202.13092619 179.86155497 206.8125 164.375 C207.00755127 163.73135498 207.20260254 163.08770996 207.40356445 162.42456055 C210.57213093 151.18292837 211.36403106 139.88332275 211.3125 128.25 C211.30758545 126.93249756 211.3026709 125.61499512 211.29760742 124.25756836 C210.95543361 95.76238641 201.64992601 70.29417247 181.875 49.375 C139.95034611 9.01816557 73.95188694 20 22 20 Z " fill="#121212" transform="translate(479,0)"/>
<path d="M0 0 C157.91843972 0 157.91843972 0 181 23 C181.84691406 23.81210937 181.84691406 23.81210937 182.7109375 24.640625 C193.43540029 35.87577649 198.45787967 53.84321904 199 69 C199.0515625 70.08152344 199.103125 71.16304688 199.15625 72.27734375 C199.65537503 91.76401664 196.22569865 110.37510009 184 126 C182.88625 127.546875 182.88625 127.546875 181.75 129.125 C169.28836269 142.15307537 153.18836827 147.61281849 136 151 C137.58575821 155.7756071 140.26036529 159.41440813 143.1875 163.4375 C148.07222239 170.25117319 152.85195427 177.12724642 157.5625 184.0625 C158.8398364 185.94141125 160.11718004 187.82031757 161.39453125 189.69921875 C162.00635254 190.59946777 162.61817383 191.4997168 163.24853516 192.42724609 C165.73801927 196.08408797 168.24168842 199.73105524 170.75 203.375 C171.18836182 204.01187744 171.62672363 204.64875488 172.07836914 205.30493164 C172.94861209 206.56892917 173.81897217 207.83284606 174.68945312 209.09667969 C177.41861997 213.06027594 180.14384929 217.02658191 182.86938477 220.99267578 C185.19550676 224.37710654 187.52362784 227.76013147 189.85546875 231.140625 C192.57782442 235.08862392 195.29147697 239.04250103 198 243 C198.41507813 243.60489258 198.83015625 244.20978516 199.2578125 244.83300781 C200.40617306 246.51016989 201.54705657 248.19244438 202.6875 249.875 C203.65236328 251.29425781 203.65236328 251.29425781 204.63671875 252.7421875 C206 255 206 255 206 257 C197.36597267 259.58653501 187.32893287 261.41131493 179 257 C169.74418363 249.34913956 163.98182138 236.86232123 158.0821228 226.63282776 C152.39976328 216.8007904 146.04967411 207.4680968 139.62493896 198.11074829 C136.65980765 193.7842859 133.72820426 189.43534367 130.796875 185.0859375 C129.97079239 183.86046959 129.97079239 183.86046959 129.12802124 182.61024475 C128.00732711 180.94735741 126.88693812 179.28426438 125.7668457 177.62097168 C124.52676793 175.78141731 123.28491303 173.94306027 122.04174805 172.10559082 C120.07030658 169.19052175 118.10492043 166.27145014 116.140625 163.3515625 C115.52596375 162.44538177 114.91130249 161.53920105 114.27801514 160.6055603 C113.71737366 159.76973419 113.15673218 158.93390808 112.57910156 158.07275391 C112.08009338 157.33312408 111.58108521 156.59349426 111.06695557 155.83145142 C110 154 110 154 110 152 C80.96 152 51.92 152 22 152 C22 186.65 22 221.3 22 257 C14.74 257 7.48 257 0 257 C0 172.19 0 87.38 0 0 Z M22 20 C22 56.96 22 93.92 22 132 C46.5025 132.0928125 46.5025 132.0928125 71.5 132.1875 C76.62724609 132.21481201 81.75449219 132.24212402 87.03710938 132.27026367 C91.69781195 132.28030685 91.69781195 132.28030685 96.35852051 132.28633118 C98.40867068 132.29088963 100.45881364 132.3013385 102.50891113 132.31672668 C123.75481363 132.46800482 145.7763586 131.39908248 162.15625 115.96875 C173.27282939 104.18849422 176.52439832 90.08588371 176.42163086 74.24072266 C176.05345278 62.07747972 173.27281887 50.94524575 166 41 C165.2575 39.948125 164.515 38.89625 163.75 37.8125 C151.05038539 24.82425779 132.92625995 20.10610366 115.19725037 19.87974548 C113.45889374 19.87687861 111.72052238 19.87941281 109.98217773 19.88647461 C108.52345922 19.88629381 108.52345922 19.88629381 107.03527164 19.88610935 C103.91802161 19.88684988 100.80083295 19.89443859 97.68359375 19.90234375 C95.74678577 19.90381584 93.8099774 19.9048349 91.87316895 19.90539551 C84.72793986 19.91061749 77.58271931 19.92457876 70.4375 19.9375 C54.453125 19.958125 38.46875 19.97875 22 20 Z " fill="#121212" transform="translate(1320,0)"/>
<path d="M0 0 C7.59 0 15.18 0 23 0 C23 38.28 23 76.56 23 116 C81.08 116 139.16 116 199 116 C199 77.72 199 39.44 199 0 C206.26 0 213.52 0 221 0 C221 84.81 221 169.62 221 257 C213.74 257 206.48 257 199 257 C199 217.07 199 177.14 199 136 C140.92 136 82.84 136 23 136 C23 175.93 23 215.86 23 257 C15.41 257 7.82 257 0 257 C0 172.19 0 87.38 0 0 Z " fill="#121212" transform="translate(2117,0)"/>
<path d="M0 0 C61.05 0 122.1 0 185 0 C185 6.6 185 13.2 185 20 C131.21 20 77.42 20 22 20 C22 51.68 22 83.36 22 116 C66.55 116 111.1 116 157 116 C157 122.93 157 129.86 157 137 C112.45 137 67.9 137 22 137 C22 170 22 203 22 237 C75.79 237 129.58 237 185 237 C185 243.6 185 250.2 185 257 C123.95 257 62.9 257 0 257 C0 172.19 0 87.38 0 0 Z " fill="#121212" transform="translate(3214,0)"/>
<path d="M0 0 C7.26 0 14.52 0 22 0 C22 39.27 22 78.54 22 119 C30.43549905 112.15872289 30.43549905 112.15872289 38.5 105 C42.94727112 100.90648909 47.54717463 97.07557501 52.25 93.28125 C55.08099578 90.93281032 57.79383598 88.49090098 60.5 86 C64.94727112 81.90648909 69.54717463 78.07557501 74.25 74.28125 C77.08099578 71.93281032 79.79383598 69.49090098 82.5 67 C86.9698512 62.88621091 91.59044893 59.02912703 96.31640625 55.21484375 C98.94708557 53.04367173 101.47942424 50.79758643 104 48.5 C107.39598682 45.40444804 110.86171531 42.44848793 114.4375 39.5625 C119.211403 35.70174863 123.73388428 31.62562925 128.25 27.46875 C130.93737634 25.05621896 133.68965444 22.7674379 136.5 20.5 C141.2643612 16.65447989 145.80251403 12.61362582 150.296875 8.45703125 C151.18890625 7.64621094 152.0809375 6.83539062 153 6 C153.42547119 5.4647168 153.85094238 4.92943359 154.28930664 4.37792969 C157.19624894 1.12721737 159.26727787 0.09559589 163.65087891 -0.47631836 C168.08458782 -0.66475734 172.50467252 -0.52396324 176.9375 -0.375 C178.4953913 -0.34486921 180.05333858 -0.31749887 181.61132812 -0.29296875 C185.40894501 -0.22719955 189.20385182 -0.12385993 193 0 C185.38875832 7.64137579 177.40663223 14.7467897 169.015625 21.51953125 C165.45329778 24.44968382 161.97529204 27.46762878 158.5 30.5 C154.21797219 34.23418958 149.91667953 37.92459276 145.5 41.5 C139.17126255 46.62862131 133.05294166 51.99274671 126.90966797 57.34033203 C119.86727609 63.4607846 112.80997199 69.56030337 105.5625 75.4375 C99.21723119 80.59186792 93.07490552 85.97362765 86.90966797 91.34033203 C78.99571643 98.21824594 71.02809288 105.01307259 62.88671875 111.62109375 C57.18104601 116.32306222 51.59770426 121.17044785 46 126 C47.22832337 129.68497012 48.58616317 130.49950808 51.625 132.875 C56.3513511 136.64380464 60.94970285 140.52065707 65.5 144.5 C69.78155697 148.23470146 74.08334825 151.92461525 78.5 155.5 C83.53428272 159.57821716 88.42510708 163.80617058 93.31030273 168.06030273 C97.89116089 172.04716333 102.50750287 175.9881908 107.15136719 179.90136719 C111.16384184 183.28481948 115.14710388 186.70100184 119.125 190.125 C123.18620876 193.61823856 127.27518971 197.06448707 131.4375 200.4375 C136.48854068 204.53915271 141.40128396 208.78591011 146.30786133 213.05786133 C151.96399021 217.98000517 157.67759591 222.83064755 163.41162109 227.66162109 C168.28201159 231.76544536 173.14360236 235.87963059 178 240 C178.91676514 240.77706299 178.91676514 240.77706299 179.85205078 241.56982422 C181.73681027 243.16908741 183.61875121 244.7716094 185.5 246.375 C186.07548584 246.86282959 186.65097168 247.35065918 187.24389648 247.85327148 C188.06676147 248.55625366 188.06676147 248.55625366 188.90625 249.2734375 C189.38384766 249.67997559 189.86144531 250.08651367 190.35351562 250.50537109 C192.65016661 252.59020166 194.81799406 254.79628486 197 257 C192.37807747 257.27529779 187.76106975 257.47298044 183.1328125 257.60424805 C181.5649088 257.65902829 179.99755262 257.73369596 178.43164062 257.82983398 C170.55060774 258.30098269 163.98897985 258.63790903 157.76727295 253.23860168 C155.40265251 250.92436311 153.21241709 248.45890171 151 246 C149.1744734 244.44490493 147.32400767 242.91802588 145.4375 241.4375 C141.67161811 238.40642433 138.05670244 235.27418423 134.5 232 C130.0301488 227.88621091 125.40955107 224.02912703 120.68359375 220.21484375 C117.19449084 217.33519113 113.87003079 214.29306124 110.52734375 211.24609375 C107.93037607 208.93812402 105.26595987 206.74444137 102.5625 204.5625 C97.788597 200.70174863 93.26611572 196.62562925 88.75 192.46875 C86.06262366 190.05621896 83.31034556 187.7674379 80.5 185.5 C75.74404581 181.66280969 71.24495199 177.60614899 66.75 173.46875 C64.06262366 171.05621896 61.31034556 168.7674379 58.5 166.5 C54.71539666 163.44651321 51.07792463 160.29331699 47.5 157 C43.0665167 152.9206894 38.50254353 149.06657841 33.80078125 145.30078125 C30.12952745 142.28492561 26.57560978 139.12865856 23 136 C22.67 175.93 22.34 215.86 22 257 C14.74 257 7.48 257 0 257 C0 172.19 0 87.38 0 0 Z " fill="#121212" transform="translate(1727,0)"/>
<path d="M0 0 C8.25 0 16.5 0 25 0 C33.91921197 19.98719776 42.7700428 40.00178903 51.49975586 60.07250977 C56.64147749 71.89273868 61.8127503 83.69968444 67 95.5 C73.2083144 109.62490873 79.38986099 123.761171 85.54821777 137.90792847 C91.09014859 150.63730286 96.66284567 163.35291559 102.25 176.0625 C109.5567856 192.6839365 116.8055272 209.32964412 124 226 C128.97202933 216.36023302 133.47232559 206.5825301 137.76293945 196.62353516 C139.22814828 193.22277831 140.70214179 189.82584885 142.17550659 186.42861938 C142.94979588 184.64313856 143.7236571 182.85747203 144.49710083 181.07162476 C148.26004133 172.38648823 152.0647698 163.71992502 155.87582397 155.05581665 C162.11019731 140.88195525 168.31916179 126.69728499 174.5 112.5 C180.68066492 98.30311307 186.8915949 84.11980332 193.12316895 69.94519043 C197.33194674 60.37119572 201.53087333 50.7931025 205.703125 41.203125 C206.08714478 40.32068115 206.47116455 39.4382373 206.86682129 38.52905273 C208.69456281 34.3282187 210.5205363 30.12662921 212.34375 25.92382812 C216.12107809 17.22877731 219.99069022 8.59137809 224 0 C231.92 0 239.84 0 248 0 C246.20709342 5.37871975 244.60541485 10.16383878 242.27734375 15.21875 C241.74858643 16.37600586 241.2198291 17.53326172 240.67504883 18.72558594 C240.39351959 19.33688354 240.11199036 19.94818115 239.82192993 20.57800293 C238.24732251 23.99985778 236.69028915 27.42969681 235.1328125 30.859375 C234.79947403 31.59295227 234.46613556 32.32652954 234.12269592 33.08233643 C230.10795059 41.93719518 226.21064939 50.84336031 222.3125 59.75 C220.77626118 63.25790866 219.2397304 66.7656894 217.703125 70.2734375 C217.31681915 71.1554483 216.93051331 72.03745911 216.53250122 72.94619751 C212.23008749 82.76504199 207.8977391 92.57061459 203.5625 102.375 C202.76806609 104.17203762 201.97363249 105.96907538 201.17919922 107.76611328 C198.387484 114.08044399 195.59480184 120.39434694 192.80212402 126.70825195 C190.01331109 133.01356726 187.22501077 139.3191089 184.4375 145.625 C184.04410431 146.51491638 183.65070862 147.40483276 183.24539185 148.32171631 C177.47710837 161.372478 171.73142881 174.43301574 166 187.5 C159.95758655 201.27389287 153.90621878 215.04380306 147.83422852 228.8046875 C146.99419281 230.70891894 146.15466484 232.61337445 145.31567383 234.51806641 C144.15070079 237.16242616 142.98381303 239.80593269 141.81640625 242.44921875 C141.30201744 243.61821968 141.30201744 243.61821968 140.77723694 244.81083679 C140.29304543 245.90546989 140.29304543 245.90546989 139.79907227 247.0222168 C139.38420311 247.96257027 139.38420311 247.96257027 138.96095276 248.92192078 C137.70222311 251.64394837 136.34118116 254.31763768 135 257 C127.74 257 120.48 257 113 257 C105.70674617 240.82856262 98.4960633 224.62301915 91.375 208.375 C85.12524877 194.11562231 78.85822325 179.86414647 72.5625 165.625 C72.16939636 164.735849 71.77629272 163.846698 71.37127686 162.93060303 C69.3781819 158.42268131 67.38473702 153.91491445 65.39111328 149.40722656 C61.02930183 139.54436607 56.67195316 129.67953278 52.31378174 119.81506348 C51.12718431 117.1293009 49.94055716 114.44355145 48.75390625 111.7578125 C48.36223267 110.87134033 47.97055908 109.98486816 47.5670166 109.0715332 C44.7842174 102.77369448 41.99977804 96.47658231 39.21484375 90.1796875 C34.47200159 79.45513707 29.73388805 68.72850579 25 58 C24.59444885 57.08105957 24.18889771 56.16211914 23.77105713 55.21533203 C21.31611751 49.6519128 18.8638158 44.087342 16.41482544 38.52130127 C15.65483411 36.7947198 14.89418356 35.0684283 14.13278198 33.34246826 C9.25846771 22.29098589 4.56004524 11.18524185 0 0 Z " fill="#121212" transform="translate(2772,0)"/>
<path d="M0 0 C7.26 0 14.52 0 22 0 C27.42477856 11.50971536 32.6249337 23.10422549 37.75 34.75 C38.58381433 36.64135101 39.41780252 38.53262539 40.25195312 40.42382812 C41.97918393 44.34020061 43.70567792 48.25689663 45.43164062 52.17382812 C49.05666359 60.39897449 52.69086092 68.62006398 56.32485962 76.84124756 C57.90284861 80.41144407 59.48025795 83.98189657 61.05769348 87.55233765 C64.23328864 94.7400457 67.40979433 101.92734949 70.58816528 109.11383057 C78.74882878 127.56567267 86.89611806 146.0231403 95 164.5 C101.27214 178.8003204 107.56405686 193.09175986 113.875 207.375 C114.27361237 208.27757538 114.67222473 209.18015076 115.08291626 210.1100769 C118.99180136 218.96034691 122.90705432 227.80749451 126.86328125 236.63671875 C127.43832835 237.92203125 128.01336147 239.20735001 128.58837891 240.49267578 C129.62246877 242.80114326 130.6596925 245.10821058 131.70068359 247.41357422 C132.1436377 248.40244629 132.5865918 249.39131836 133.04296875 250.41015625 C133.42477295 251.25715088 133.80657715 252.10414551 134.19995117 252.97680664 C135 255 135 255 135 257 C126.75 257 118.5 257 110 257 C109.27039062 255.31003906 108.54078125 253.62007812 107.7890625 251.87890625 C100.94398192 236.04378923 94.04068219 220.23506688 87.09820557 204.44241333 C81.54302141 191.80465432 76.01005373 179.15749883 70.5 166.5 C64.3163837 152.29603012 58.10134921 138.10615039 51.86776733 123.92404175 C45.62194827 109.71278471 39.40933579 95.48733381 33.22094727 81.25097656 C29.71351111 73.18783739 26.18067676 65.13707395 22.6015625 57.10546875 C21.89410868 55.51489955 21.18667024 53.9243235 20.47924805 52.33374023 C19.14835455 49.34215653 17.81024602 46.35394384 16.46801758 43.36743164 C15.87295471 42.03152629 15.27813254 40.69551368 14.68359375 39.359375 C13.90326782 37.61865723 13.90326782 37.61865723 13.10717773 35.84277344 C12 33 12 33 12 30 C11.34 30 10.68 30 10 30 C9.65195312 31.15242188 9.30390625 32.30484375 8.9453125 33.4921875 C6.72726311 40.1308429 3.78361249 46.45758011 0.90948486 52.83041382 C-0.89804443 56.83968634 -2.69044905 60.85572065 -4.484375 64.87109375 C-4.85787079 65.70629044 -5.23136658 66.54148712 -5.61618042 67.4019928 C-9.5930414 76.30561146 -13.48824254 85.2442678 -17.375 94.1875 C-18.79911494 97.46239809 -20.22363301 100.7371206 -21.6484375 104.01171875 C-22.0045108 104.83013245 -22.36058411 105.64854614 -22.72744751 106.49176025 C-26.79607806 115.83759579 -30.89810673 125.16872856 -35 134.5 C-41.20698359 148.62188094 -47.3875624 162.75496054 -53.54418945 176.89886475 C-59.55127168 190.6979406 -65.59722739 204.47969028 -71.65719604 218.25561523 C-76.37776782 228.98832081 -81.08030969 239.72660919 -85.62890625 250.53369141 C-87.89802137 255.89802137 -87.89802137 255.89802137 -89 257 C-90.78071246 257.08726223 -92.5648314 257.10699041 -94.34765625 257.09765625 C-95.42724609 257.09443359 -96.50683594 257.09121094 -97.61914062 257.08789062 C-99.32360352 257.07532227 -99.32360352 257.07532227 -101.0625 257.0625 C-102.20267578 257.05798828 -103.34285156 257.05347656 -104.51757812 257.04882812 C-107.34510351 257.03699747 -110.1725264 257.0205141 -113 257 C-111.44179361 252.00019853 -109.4464232 247.29312384 -107.31640625 242.51953125 C-106.94946152 241.69116257 -106.58251678 240.86279388 -106.20445251 240.00932312 C-104.99297763 237.27592807 -103.77770895 234.54423675 -102.5625 231.8125 C-101.70543922 229.88033692 -100.84867337 227.948043 -99.9921875 226.015625 C-98.21224387 222.00030527 -96.43103102 217.9855522 -94.64892578 213.97119141 C-90.97905003 205.70189406 -87.32457698 197.42580186 -83.67010498 189.14968872 C-81.69868968 184.68544237 -79.72629444 180.22162907 -77.75390625 175.7578125 C-77.3621521 174.87116409 -76.97039795 173.98451569 -76.56677246 173.07099915 C-74.18275932 167.6756284 -71.79768971 162.28072595 -69.41183472 156.88616943 C-61.25117107 138.434327 -53.10397012 119.97682123 -45 101.5 C-32.69573037 73.44791163 -20.31071036 45.43155813 -7.875 17.4375 C-7.35543732 16.2674794 -7.35543732 16.2674794 -6.82537842 15.07382202 C-5.86069004 12.90183789 -4.89532729 10.73015503 -3.9296875 8.55859375 C-3.50302795 7.59786957 -3.50302795 7.59786957 -3.06774902 6.61773682 C-2.07786784 4.39345983 -1.0889453 2.1778906 0 0 Z " fill="#121212" transform="translate(991,0)"/>
<path d="M0 0 C7.26 0 14.52 0 22 0 C22 84.81 22 169.62 22 257 C14.74 257 7.48 257 0 257 C0 172.19 0 87.38 0 0 Z " fill="#121212" transform="translate(2556,0)"/>
</svg>
