<svg width="581" height="100" viewBox="0 0 581 100" fill="none" xmlns="http://www.w3.org/2000/svg">
<g clip-path="url(#clip0_2193_19026)">
<path d="M0 0C47.2349 0 47.2349 0 53.1517 1.78125C53.521 1.8911 53.521 1.8911 53.8978 2.00317C59.7124 3.7935 65.5674 6.40244 70.4927 10C70.8885 10.2881 70.8885 10.2881 71.2923 10.582C73.2311 12.0194 75.0152 13.5908 76.7642 15.25C76.9541 15.4231 77.1439 15.5961 77.3395 15.7744C85.5187 23.4801 89.7413 35.4512 90.0912 46.4828C90.3087 56.8375 89.0962 66.7856 84.0393 76C83.9547 76.1558 83.8701 76.3116 83.7829 76.4722C77.7014 87.529 66.6826 94.6782 54.8188 98.2533C37.5102 103.088 15.0118 100 0 100C0 67 0 34 0 0ZM21.8251 20.25C21.8251 40.05 21.8251 59.85 21.8251 80.25C33.8109 80.6772 33.8109 80.6772 45.7512 79.2188C45.9697 79.166 46.1882 79.1132 46.4132 79.0589C54.0457 77.1084 61.049 72.4671 65.2245 65.75C69.6099 58.3075 70.3754 49.2631 68.227 40.9688C67.1731 37.1964 65.5013 33.7489 62.9668 30.75C62.7889 30.535 62.611 30.3201 62.4278 30.0986C57.3989 24.2638 50.8367 21.7323 43.3994 20.25C36.2799 20.25 29.1604 20.25 21.8251 20.25Z" fill="#0B1A48"/>
<path d="M403.138 0C462.489 0 462.489 0 471.373 8.5C471.701 8.77206 472.03 9.04294 472.36 9.3125C478.36 14.5558 481.93 22.7398 482.912 30.5C483.111 34.5022 483.145 38.5961 482.16 42.5C482.085 42.8002 482.085 42.8002 482.009 43.1064C481.24 46.0952 480.173 48.8165 478.648 51.5C478.511 51.7427 478.375 51.9853 478.235 52.2354C474.412 58.6043 468.571 61.8319 461.84 64.5C461.587 64.6009 461.335 64.7017 461.074 64.8057C460.832 64.9019 460.832 64.9019 460.585 65C460.95 66.0431 461.467 66.8309 462.122 67.7188C462.349 68.0297 462.576 68.3409 462.802 68.6523C462.991 68.9117 462.991 68.9117 463.183 69.1763C463.981 70.2858 464.759 71.4094 465.54 72.5312C466.812 74.3566 468.086 76.1803 469.366 78C470.624 79.789 471.877 81.5811 473.129 83.375C474.962 86.0041 476.804 88.628 478.648 91.25C479.687 92.7285 480.727 94.2073 481.765 95.687C482.02 96.0514 482.276 96.4157 482.532 96.7798C482.858 97.2434 483.183 97.7076 483.508 98.1719C483.686 98.4255 483.864 98.6791 484.047 98.9404C484.417 99.5 484.417 99.5 484.417 99.75C481.535 99.8664 478.653 99.9549 475.768 100.009C474.428 100.035 473.09 100.07 471.751 100.127C463.12 100.485 463.12 100.485 461.027 99.2834C459.829 98.1765 459.182 96.9225 458.613 95.4151C458.111 94.245 457.331 93.2653 456.572 92.25C456.278 91.8324 455.985 91.4147 455.692 90.9971C455.113 90.1733 454.534 89.3498 453.955 88.5264C452.227 86.0687 450.505 83.6074 448.786 81.1434C447.269 78.9691 445.746 76.7992 444.221 74.6305C443.748 73.9581 443.276 73.2852 442.805 72.6123C442.645 72.3844 442.485 72.1564 442.32 71.9216C442.014 71.4849 441.708 71.048 441.402 70.6111C441.195 70.3164 441.195 70.3164 440.984 70.0156C440.863 69.8432 440.742 69.6708 440.618 69.4932C440.369 69.1448 440.11 68.8035 439.844 68.4678C439.513 68 439.513 68 439.513 67.5C434.297 67.5 429.082 67.5 423.709 67.5C423.709 78.225 423.709 88.95 423.709 100C416.92 100 410.132 100 403.138 100C403.138 67 403.138 34 403.138 0ZM423.709 19.5C423.709 29.235 423.709 38.97 423.709 49C430.585 49.0232 430.585 49.0232 437.6 49.0469C439.766 49.0571 439.766 49.0571 441.976 49.0676C443.278 49.0701 443.278 49.0701 444.579 49.0716C445.156 49.0727 445.733 49.0754 446.31 49.0792C447.187 49.0847 448.064 49.0854 448.941 49.0851C449.323 49.0892 449.323 49.0892 449.712 49.0933C453.604 49.0765 456.413 47.2987 459.187 44.6797C462.056 41.6598 463.428 37.8985 463.345 33.75C463.033 29.3875 460.706 25.7112 457.575 22.75C454.347 20.2865 450.875 19.4121 446.862 19.4432C446.606 19.4432 446.349 19.4431 446.085 19.4431C445.265 19.4434 444.446 19.4472 443.626 19.4512C443.115 19.4519 442.605 19.4524 442.095 19.4527C440.215 19.4553 438.335 19.4623 436.456 19.4688C432.249 19.4791 428.042 19.4894 423.709 19.5Z" fill="#0B1A48"/>
<path d="M103.607 0C127.532 0 151.456 0 176.106 0C176.106 6.435 176.106 12.87 176.106 19.5C158.97 19.5 141.833 19.5 124.178 19.5C124.178 26.595 124.178 33.69 124.178 41C139.327 41 154.477 41 170.086 41C170.086 47.105 170.086 53.21 170.086 59.5C154.936 59.5 139.786 59.5 124.178 59.5C124.178 66.6775 124.178 73.855 124.178 81.25C141.314 81.25 158.45 81.25 176.106 81.25C176.106 87.4375 176.106 93.625 176.106 100C167.71 100.01 167.71 100.01 163.926 100.012C161.408 100.014 158.889 100.015 156.371 100.019C138.781 100.042 121.197 99.8808 103.607 99.75C103.607 66.8325 103.607 33.915 103.607 0Z" fill="#0B1A48"/>
<path d="M336.376 -0.0596581C336.689 -0.0633308 336.689 -0.0633308 337.008 -0.0670777C341.661 -0.110433 346.155 -0.0765666 350.707 0.999912C350.936 1.05349 351.164 1.10707 351.399 1.16227C364.067 4.24324 375.161 12.3885 382.097 23.3437C382.425 23.8933 382.749 24.4455 383.069 24.9999C383.157 25.151 383.246 25.3021 383.337 25.4578C386.043 30.1222 387.834 35.2139 388.839 40.4999C388.879 40.7089 388.92 40.9178 388.962 41.1331C391.302 53.6624 388.502 66.9703 381.548 77.6249C381.224 78.0868 380.894 78.5452 380.56 78.9999C380.37 79.26 380.18 79.52 379.985 79.788C378.573 81.6849 377.026 83.4339 375.388 85.1388C375.08 85.4594 374.776 85.7832 374.472 86.1073C367.222 93.6402 356.909 98.1455 346.693 99.7499C346.437 99.7929 346.18 99.8359 345.916 99.8802C344.76 100.022 343.628 100.045 342.464 100.051C342.227 100.052 341.991 100.054 341.747 100.055C341.246 100.057 340.745 100.059 340.244 100.06C339.494 100.062 338.744 100.07 337.995 100.078C333.938 100.101 330.05 99.6832 326.138 98.578C325.911 98.5147 325.683 98.4513 325.448 98.386C317.02 95.9582 309.848 91.5043 303.545 85.4999C303.29 85.2616 303.29 85.2616 303.03 85.0185C295.594 77.8801 291.319 67.9616 289.497 57.9999C289.463 57.8199 289.43 57.6399 289.396 57.4544C287.27 45.3087 290.505 31.891 297.492 21.7998C302.485 14.8093 308.644 9.14536 316.339 5.24991C316.513 5.16044 316.687 5.07097 316.866 4.97879C322.824 1.93605 329.657 0.00571082 336.376 -0.0596581ZM316.206 28.8222C310.102 35.5018 307.604 43.7271 308.003 52.6753C308.483 59.6105 311.63 67.0304 316.841 71.7499C317.032 71.9458 317.224 72.1418 317.421 72.3437C317.643 72.5602 317.866 72.7768 318.095 72.9999C318.252 73.1585 318.409 73.317 318.571 73.4804C324.544 79.2094 332.795 81.4486 340.884 81.3105C348.904 81.064 356.757 77.2994 362.247 71.4999C365.521 67.8254 368.062 63.5418 369.475 58.828C369.548 58.5836 369.548 58.5836 369.623 58.3341C371.129 52.9894 371.173 46.8136 369.522 41.4999C369.461 41.304 369.401 41.108 369.339 40.9062C366.703 32.6597 361.056 26.0179 353.355 22.0187C340.708 15.7636 325.903 18.883 316.206 28.8222Z" fill="#0B1A48"/>
<path d="M189.151 0.249959C192.256 0.191965 195.362 0.147579 198.467 0.120428C199.909 0.107395 201.351 0.0897269 202.793 0.06136C204.186 0.0341417 205.578 0.019237 206.97 0.0127655C207.501 0.00815563 208.031 -0.000847283 208.562 -0.0143665C212.715 -0.116005 212.715 -0.116005 213.989 0.782986C214.508 1.41885 214.875 2.01852 215.241 2.74996C215.504 3.13425 215.771 3.51572 216.044 3.89254C216.3 4.27158 216.555 4.65115 216.809 5.03121C217.838 6.5514 218.891 8.04231 220.007 9.49996C221.25 11.1231 222.409 12.7922 223.556 14.4834C224.43 15.7663 225.335 17.0169 226.279 18.25C227.372 19.6782 228.406 21.1368 229.415 22.625C230.546 24.2928 231.718 25.918 232.94 27.521C234.233 29.2224 235.463 30.9668 236.691 32.7158C237.311 33.5982 237.933 34.479 238.556 35.3593C238.679 35.534 238.803 35.7086 238.93 35.8886C239.982 37.3729 241.05 38.8457 242.12 40.3173C243.163 41.7539 244.191 43.2007 245.214 44.6513C246.126 45.9414 247.05 47.2223 247.979 48.5C249.16 50.1251 250.327 51.7596 251.486 53.4013C252.397 54.6914 253.321 55.9723 254.25 57.25C255.432 58.8751 256.599 60.5096 257.757 62.1513C258.669 63.4414 259.593 64.7223 260.522 66C261.704 67.6257 262.871 69.2606 264.03 70.903C264.93 72.1772 265.844 73.4417 266.762 74.7031C268.069 76.4993 269.35 78.3127 270.623 80.1329C271.734 81.719 272.865 83.2898 274.005 84.8554C274.914 86.1052 275.812 87.3622 276.703 88.625C277.737 90.0912 278.783 91.5485 279.838 93C280.954 94.5359 282.063 96.0767 283.162 97.625C283.291 97.8061 283.42 97.9872 283.553 98.1738C284.449 99.4396 284.449 99.4396 284.73 100C281.381 100.099 278.032 100.174 274.681 100.22C273.125 100.242 271.57 100.272 270.014 100.321C268.511 100.367 267.009 100.392 265.505 100.403C264.934 100.411 264.362 100.426 263.79 100.449C259.432 100.618 259.432 100.618 258.108 99.584C257.177 98.5811 256.509 97.4631 255.891 96.2495C255.549 95.5949 255.131 95.0096 254.691 94.417C254.429 94.0437 254.167 93.6703 253.905 93.2968C253.607 92.8724 253.309 92.4479 253.012 92.0234C252.863 91.8123 252.715 91.6012 252.563 91.3838C252.127 90.7634 251.692 90.1434 251.256 89.5234C249.528 87.0668 247.807 84.6064 246.089 82.1434C244.855 80.3751 243.618 78.6088 242.377 76.8457C241.62 75.7701 240.866 74.6927 240.116 73.6123C239.957 73.3843 239.798 73.1564 239.635 72.9215C239.331 72.4853 239.028 72.0485 238.726 71.6111C238.065 70.6633 237.432 69.776 236.564 69C234.703 71.5733 232.883 74.1746 231.067 76.7802C230.132 78.1212 229.194 79.4597 228.254 80.7968C228.111 81.0006 227.968 81.2044 227.82 81.4143C227.247 82.2295 226.674 83.0445 226.101 83.8596C224.231 86.5186 222.367 89.181 220.507 91.8472C219.202 93.7173 217.893 95.584 216.581 97.4487C216.444 97.6422 216.308 97.8357 216.168 98.0351C216.049 98.2041 215.93 98.373 215.807 98.5471C215.53 98.9448 215.26 99.3471 214.99 99.75C214.525 99.8423 214.525 99.8423 213.949 99.8402C213.622 99.8417 213.622 99.8417 213.288 99.8433C213.048 99.8406 212.808 99.8379 212.561 99.8351C212.309 99.8352 212.057 99.8353 211.797 99.8355C210.961 99.8349 210.125 99.8291 209.289 99.8232C208.71 99.8218 208.132 99.8207 207.553 99.82C206.028 99.8171 204.503 99.8098 202.978 99.8015C201.422 99.7938 199.867 99.7904 198.312 99.7866C195.258 99.7785 192.205 99.7657 189.151 99.75C189.457 98.9682 189.755 98.2892 190.246 97.6064C190.422 97.3596 190.422 97.3596 190.601 97.1079C190.728 96.9331 190.855 96.7582 190.986 96.5781C191.118 96.3926 191.251 96.2072 191.388 96.0161C191.812 95.4262 192.237 94.8379 192.663 94.25C192.799 94.0622 192.935 93.8745 193.075 93.681C193.618 92.9314 194.161 92.1821 194.706 91.4334C195.623 90.1704 196.53 88.9004 197.43 87.625C198.599 85.9677 199.785 84.3232 200.978 82.6826C201.895 81.4198 202.802 80.1501 203.701 78.875C204.871 77.2177 206.057 75.5731 207.25 73.9326C208.293 72.4957 209.321 71.0487 210.345 69.5975C211.249 68.3169 212.169 67.0479 213.093 65.7812C214.219 64.2371 215.312 62.6741 216.385 61.0937C217.4 59.6011 218.443 58.1388 219.537 56.7031C220.029 56.053 220.521 55.4019 221.011 54.75C221.212 54.4822 221.212 54.4822 221.418 54.2089C221.821 53.6689 222.216 53.1244 222.61 52.5781C222.734 52.4132 222.858 52.2483 222.986 52.0784C223.631 51.193 223.631 51.193 223.685 50.1406C223.08 49.2101 222.442 48.3118 221.779 47.4218C221.48 47.0152 221.182 46.6083 220.883 46.2011C220.735 45.998 220.586 45.7949 220.432 45.5857C219.833 44.7591 219.251 43.9207 218.675 43.0781C217.554 41.4424 216.423 39.8133 215.288 38.1875C215.116 37.9417 214.945 37.6959 214.768 37.4427C213.531 35.673 212.291 33.9059 211.049 32.1399C209.763 30.3101 208.483 28.476 207.203 26.6416C206.123 25.0923 205.039 23.5452 203.952 22C202.523 19.9671 201.099 17.9299 199.678 15.8916C198.597 14.3423 197.513 12.7952 196.426 11.25C195.128 9.40268 193.831 7.55378 192.538 5.70308C192.29 5.34899 192.29 5.34899 192.037 4.98775C191.575 4.32634 191.115 3.66362 190.656 2.99996C190.507 2.78513 190.358 2.5703 190.205 2.34896C189.997 2.04617 189.997 2.04617 189.786 1.73726C189.663 1.55863 189.541 1.37999 189.414 1.19594C189.151 0.749959 189.151 0.749959 189.151 0.249959Z" fill="#0B1A48"/>
<path d="M485.421 0.249895C488.55 0.174436 491.679 0.116769 494.809 0.0815054C496.263 0.064576 497.716 0.0416357 499.169 0.00471672C500.573 -0.0307212 501.976 -0.0500532 503.38 -0.0584561C503.914 -0.0644399 504.449 -0.0761265 504.983 -0.0937277C509.055 -0.222522 509.055 -0.222522 510.221 0.564808C511.119 1.42246 511.684 2.41334 512.263 3.49989C512.542 3.90874 512.825 4.31495 513.116 4.71572C513.365 5.08598 513.614 5.45675 513.863 5.82802C514.881 7.33253 515.925 8.80697 517.03 10.2499C518.272 11.8731 519.431 13.5422 520.578 15.2333C521.452 16.5162 522.358 17.7668 523.301 18.9999C524.543 20.6231 525.703 22.2922 526.85 23.9833C527.724 25.2662 528.629 26.5168 529.573 27.7499C530.815 29.3731 531.974 31.0422 533.121 32.7333C534.109 34.183 535.145 35.5863 536.211 36.9792C537.368 38.5005 538.447 40.0714 539.516 41.6547C539.645 41.8443 539.773 42.034 539.905 42.2294C540.018 42.3964 540.13 42.5634 540.245 42.7354C540.607 43.2747 540.607 43.2747 541.128 43.766C541.8 44.7798 541.751 45.5677 541.735 46.7572C541.736 46.9849 541.737 47.2126 541.738 47.4472C541.739 48.2104 541.734 48.9734 541.728 49.7365C541.728 50.2835 541.728 50.8305 541.729 51.3775C541.729 52.8629 541.723 54.3483 541.716 55.8337C541.71 57.3859 541.709 58.938 541.708 60.4902C541.705 63.2625 541.698 66.0348 541.688 68.8072C541.68 71.3236 541.673 73.84 541.669 76.3564C541.669 76.5218 541.669 76.6873 541.669 76.8578C541.667 77.6878 541.666 78.5178 541.665 79.3478C541.654 86.2319 541.636 93.1159 541.614 99.9999C534.909 99.9999 528.203 99.9999 521.294 99.9999C521.301 98.5516 521.308 97.1034 521.315 95.6112C521.336 90.8196 521.341 86.028 521.339 81.2363C521.338 78.3318 521.342 75.4275 521.359 72.5231C521.373 69.9901 521.378 67.4573 521.371 64.9243C521.367 63.5844 521.369 62.2448 521.382 60.9048C521.394 59.6406 521.393 58.377 521.382 57.1128C521.381 56.6517 521.384 56.1905 521.392 55.7294C521.447 52.4259 520.723 50.4588 518.611 47.9016C518.165 47.3534 517.767 46.7756 517.37 46.1913C517.105 45.8149 516.84 45.4386 516.575 45.0624C516.275 44.6356 515.975 44.2089 515.674 43.7821C515.525 43.5695 515.375 43.3568 515.221 43.1377C513.055 40.0601 510.895 36.9785 508.742 33.8917C507.661 32.3424 506.577 30.7952 505.49 29.2499C504.232 27.4608 502.978 25.6688 501.727 23.8749C499.893 21.2458 498.052 18.6219 496.208 15.9999C493.058 11.5204 489.91 7.03911 486.801 2.53114C486.661 2.3289 486.521 2.12666 486.376 1.91829C486.25 1.73446 486.123 1.55063 485.993 1.36122C485.882 1.20013 485.771 1.03904 485.657 0.873064C485.421 0.499895 485.421 0.499895 485.421 0.249895Z" fill="#0B1A48"/>
<path d="M260.146 0C268.259 0 276.371 0 284.73 0C283.623 1.73316 282.516 3.43544 281.328 5.10938C281.019 5.54752 280.709 5.98567 280.4 6.42383C280.244 6.64434 280.088 6.86485 279.927 7.09204C279.195 8.12761 278.466 9.16532 277.737 10.2031C277.594 10.4073 277.451 10.6114 277.303 10.8217C276.008 12.6645 274.72 14.5112 273.432 16.3582C272.21 18.1099 270.983 19.8585 269.754 21.6054C268.961 22.7329 268.171 23.8621 267.383 24.9932C267.207 25.2466 267.03 25.5001 266.848 25.7612C266.51 26.2467 266.173 26.7324 265.835 27.2183C262.737 31.6673 262.737 31.6673 262.152 32.25C261.389 32.2738 260.631 32.2814 259.867 32.2784C259.627 32.2784 259.388 32.2785 259.14 32.2785C258.344 32.2783 257.547 32.2764 256.75 32.2744C256.199 32.2739 255.648 32.2736 255.098 32.2733C253.645 32.2724 252.192 32.2699 250.739 32.2672C249.257 32.2646 247.776 32.2635 246.295 32.2622C243.386 32.2595 240.477 32.2553 237.568 32.25C237.747 31.4669 237.969 30.9656 238.451 30.3174C238.647 30.0505 238.647 30.0505 238.847 29.7783C238.989 29.5885 239.131 29.3987 239.277 29.2031C239.577 28.7961 239.876 28.3888 240.175 27.9814C240.327 27.7754 240.479 27.5693 240.636 27.3571C241.297 26.4541 241.941 25.5401 242.585 24.625C243.754 22.9675 244.941 21.3232 246.133 19.6826C247.051 18.4198 247.957 17.1501 248.857 15.875C250.026 14.2177 251.212 12.5732 252.405 10.9326C253.446 9.49877 254.473 8.055 255.494 6.60687C256.603 5.03636 257.732 3.48012 258.866 1.92773C259.062 1.65848 259.062 1.65848 259.263 1.38379C259.437 1.1455 259.437 1.1455 259.615 0.902405C259.911 0.496448 259.911 0.496448 260.146 0Z" fill="#0B1A48"/>
<path d="M558.242 -0.0308848C558.582 -0.0295366 558.582 -0.0295366 558.929 -0.0281612C559.166 -0.0281977 559.403 -0.0282342 559.648 -0.0282718C560.437 -0.0280969 561.225 -0.0261483 562.014 -0.0241939C562.559 -0.0237279 563.104 -0.0233719 563.65 -0.0231219C565.088 -0.0221654 566.526 -0.0197075 567.964 -0.0169459C569.43 -0.014393 570.896 -0.0132477 572.363 -0.0119868C575.242 -0.00930201 578.121 -0.00503256 581 0.000220194C580.697 0.775803 580.404 1.45034 579.914 2.1262C579.798 2.28807 579.682 2.44995 579.563 2.61674C579.437 2.78969 579.311 2.96265 579.181 3.14085C578.908 3.52227 578.634 3.90378 578.36 4.28538C578.146 4.58388 578.146 4.58388 577.926 4.8884C577.198 5.90499 576.481 6.9293 575.763 7.95335C575.466 8.37784 575.168 8.80232 574.87 9.22678C574.722 9.43787 574.574 9.64895 574.421 9.86643C573.986 10.4868 573.55 11.1068 573.114 11.7268C571.557 13.9401 570.005 16.1561 568.457 18.3752C566.77 20.7936 565.077 23.2078 563.381 25.6197C562.909 26.2921 562.437 26.965 561.965 27.6379C561.805 27.8659 561.645 28.0938 561.481 28.3286C561.174 28.7654 560.868 29.2022 560.562 29.6391C560.355 29.9339 560.355 29.9339 560.144 30.2346C559.963 30.4932 559.963 30.4932 559.778 30.7571C559.662 30.9198 559.546 31.0825 559.426 31.2502C559.343 31.423 559.261 31.5959 559.175 31.7739C558.348 32.5585 557.406 32.3809 556.308 32.3637C556.066 32.3639 555.823 32.364 555.574 32.3642C554.771 32.3635 553.969 32.3557 553.167 32.3479C552.611 32.346 552.056 32.3446 551.5 32.3436C550.036 32.3398 548.573 32.3299 547.109 32.3189C545.616 32.3087 544.123 32.3041 542.629 32.299C539.699 32.2883 536.768 32.2712 533.838 32.2502C534.398 31.1145 535.095 30.1048 535.813 29.0627C535.959 28.851 536.104 28.6393 536.254 28.4211C537.291 26.9228 538.37 25.4627 539.477 24.0156C540.441 22.7466 541.347 21.4441 542.242 20.1252C543.366 18.4676 544.532 16.8555 545.749 15.2649C546.713 13.9961 547.619 12.6939 548.513 11.3752C549.636 9.72041 550.799 8.11067 552.015 6.52311C553.463 4.61794 554.798 2.63459 556.136 0.65116C556.722 -0.189051 557.242 -0.0292098 558.242 -0.0308848Z" fill="#0B1A48"/>
</g>
<defs>
<clipPath id="clip0_2193_19026">
<rect width="581" height="100" fill="white"/>
</clipPath>
</defs>
</svg>
