<svg width="600" height="165" viewBox="0 0 600 165" fill="none" xmlns="http://www.w3.org/2000/svg">
<path d="M162.7 0H0V164.1H162.7V0Z" fill="black"/>
<path d="M107.9 130.1H90.8002V108.3C90.8002 106.7 90.2002 105.2 89.2002 104L56.7002 65.7C55.4002 64.2 54.7002 62.3 54.7002 60.4V34.1H71.7002V54.7C71.7002 56.3 72.3002 57.8 73.3002 59L105.8 97.3C107.1 98.8 107.8 100.7 107.8 102.6L107.9 130.1Z" fill="white"/>
<path d="M317.5 34.1H305.8C305.7 34.1 305.6 34.1 305.5 34.2C305.4 34.2 305.3 34.3 305.2 34.4C305.1 34.5 305.1 34.6 305 34.7C305 34.8 304.9 34.9 304.9 35V48.1C304.9 48.2 304.9 48.3 305 48.4C305 48.5 305.1 48.6 305.2 48.7C305.3 48.8 305.4 48.8 305.5 48.9C305.6 48.9 305.7 49 305.8 49H317.5C317.7 49 317.9 48.9 318.1 48.8C318.2 48.6 318.3 48.4 318.3 48.2V34.9C318.3 34.7 318.2 34.5 318.1 34.3C317.9 34.2 317.7 34.1 317.5 34.1Z" fill="black"/>
<path d="M317.5 58.3H305.8C305.6 58.3 305.4 58.4 305.2 58.5C305.1 58.6 305 58.9001 305 59.1001V127.1C305 127.2 305 127.3 305.1 127.4C305.1 127.5 305.2 127.6 305.3 127.7C305.4 127.8 305.5 127.8 305.6 127.9C305.7 127.9 305.8 128 305.9 128H317.5C317.7 128 317.9 127.9 318.1 127.8C318.2 127.6 318.3 127.4 318.3 127.2V59.2001C318.3 59.1001 318.3 59.0001 318.2 58.9001C318.2 58.8001 318.1 58.7001 318 58.6001C317.9 58.5001 317.8 58.5001 317.7 58.4001C317.7 58.3001 317.6 58.3 317.5 58.3Z" fill="black"/>
<path d="M363.6 57C354.4 57 348 60.3 343.8 65.6C343.7 65.7 343.7 65.7 343.6 65.7C343.5 65.7 343.4 65.7 343.3 65.7L342.1 65.1C342 65.1 342 65 341.9 65C341.9 64.9 341.8 64.9 341.8 64.8V59.1C341.8 58.9 341.7 58.7 341.6 58.5C341.5 58.4 341.3 58.3 341 58.3H329.3C329.2 58.3 329.1 58.3 329 58.4C328.9 58.4 328.8 58.5 328.7 58.6C328.6 58.7 328.6 58.8 328.5 58.9C328.5 59 328.4 59.1 328.4 59.2V127.2C328.4 127.4 328.5 127.6 328.6 127.8C328.7 128 328.9 128 329.2 128H340.9C341 128 341.1 128 341.2 127.9C341.3 127.9 341.4 127.8 341.5 127.7C341.6 127.6 341.6 127.5 341.7 127.4C341.7 127.3 341.8 127.2 341.8 127.1V90.5C341.8 76.5 347.3 68.3 359 68.3C371.7 68.3 373.2 77.7 373.2 87.7V127.1C373.2 127.2 373.2 127.3 373.3 127.4C373.3 127.5 373.4 127.6 373.5 127.7C373.6 127.8 373.7 127.8 373.8 127.9C373.9 127.9 374 128 374.1 128H385.8C385.9 128 386 128 386.1 127.9C386.2 127.9 386.3 127.8 386.4 127.7C386.5 127.6 386.5 127.5 386.6 127.4C386.6 127.3 386.7 127.2 386.7 127.1V84.1C386.7 67.8 380.3 57 363.6 57Z" fill="black"/>
<path d="M452 34.1H440.3C440.1 34.1 439.9 34.2 439.7 34.3C439.6 34.5 439.5 34.7 439.5 34.9V48.1C439.5 48.3 439.6 48.5 439.7 48.7C439.8 48.9 440.1 48.9 440.3 48.9H452C452.2 48.9 452.4 48.8 452.6 48.7C452.7 48.5 452.8 48.3 452.8 48.1V34.8C452.8 34.6 452.7 34.4 452.6 34.2C452.4 34.2 452.2 34.1 452 34.1Z" fill="black"/>
<path d="M452 58.3H440.3C440.2 58.3 440.1 58.3001 440 58.4001C439.9 58.4001 439.8 58.5001 439.7 58.6001C439.6 58.7001 439.6 58.8001 439.5 58.9001C439.5 59.0001 439.4 59.1001 439.4 59.2001V127.2C439.4 127.4 439.5 127.6 439.6 127.8C439.7 128 440 128 440.2 128H451.9C452.1 128 452.3 127.9 452.5 127.8C452.6 127.6 452.7 127.4 452.7 127.2V59.2001C452.7 59.1001 452.7 59.0001 452.6 58.9001C452.6 58.8001 452.5 58.7001 452.4 58.6001C452.3 58.5001 452.2 58.5001 452.1 58.4001C452.2 58.3001 452.1 58.3 452 58.3Z" fill="black"/>
<path d="M524.7 34.1H513C512.9 34.1 512.8 34.1 512.7 34.2C512.6 34.2 512.5 34.3 512.4 34.4C512.3 34.5 512.3 34.6 512.2 34.7C512.2 34.8 512.1 34.9 512.1 35V65C512.1 65.1 512.1 65.2 512 65.2C512 65.3 511.9 65.3 511.8 65.3L510.5 65.7C510.4 65.7 510.3 65.7 510.3 65.7C510.2 65.7 510.2 65.6 510.1 65.6C505.8 60.1 499.3 57 490.6 57C474.6 57 460.9 70.5 460.9 93.2C460.9 116 474.6 129.5 490.6 129.5C499.5 129.5 506 126.3 510.3 120.7C510.4 120.6 510.4 120.6 510.5 120.6C510.6 120.6 510.7 120.6 510.8 120.6L511.9 121.1C512 121.1 512 121.2 512.1 121.2C512.1 121.3 512.2 121.3 512.2 121.4V126.9C512.2 127 512.2 127.1 512.3 127.2C512.3 127.3 512.4 127.4 512.5 127.5C512.6 127.6 512.7 127.6 512.8 127.7C512.9 127.7 513 127.8 513.1 127.8H524.8C524.9 127.8 525 127.8 525.1 127.7C525.2 127.7 525.3 127.6 525.4 127.5C525.5 127.4 525.5 127.3 525.6 127.2C525.6 127.1 525.7 127 525.7 126.9V34.8C525.7 34.7 525.7 34.6 525.6 34.5C525.6 34.4 525.5 34.3 525.4 34.2C525.3 34.1 525.2 34.1 525.1 34C524.9 34.1 524.8 34.1 524.7 34.1ZM493.7 118.3C482.5 118.3 475.1 108.9 475.1 93.2C475.1 77.6 482.5 68.2 493.7 68.2C504 68.2 512.7 76 512.7 93.2C512.7 110.4 504 118.3 493.7 118.3Z" fill="black"/>
<path d="M567.6 57C548 57 533.6 71.4 533.6 92.9C533.6 113.1 545.8 129.5 568 129.5C584.9 129.5 595.3 119.5 598.7 108.4C598.7 108.3 598.7 108.2 598.7 108C598.7 107.9 598.6 107.8 598.6 107.7C598.5 107.6 598.4 107.5 598.3 107.5C598.2 107.4 598.1 107.4 597.9 107.4H586C585.9 107.4 585.7 107.4 585.6 107.5C585.5 107.6 585.4 107.7 585.3 107.8C582.3 114.1 577 117.9 567.4 117.9C556.8 117.9 549.1 110.4 547.4 98C547.4 97.9 547.4 97.8 547.4 97.7C547.4 97.6 547.5 97.5 547.6 97.4C547.7 97.3 547.8 97.2 547.9 97.2C548 97.2 548.1 97.1 548.2 97.1H599.1C599.3 97.1 599.5 97 599.6 96.9C599.7 96.8 599.8 96.6 599.9 96.4C601 74.2 588.6 57 567.6 57ZM585.2 86.6H548.5C548.4 86.6 548.3 86.6 548.2 86.5C548.1 86.5 548 86.4 547.9 86.3C547.8 86.2 547.8 86.1 547.7 86C547.7 85.9 547.7 85.8 547.7 85.7C549.8 73.1 557.3 68 567.4 68C578 68 585.2 75.9 585.9 85.8C585.9 85.9 585.9 86 585.9 86.1C585.9 86.2 585.8 86.3 585.7 86.4C585.6 86.5 585.5 86.5 585.4 86.6C585.4 86.6 585.3 86.6 585.2 86.6Z" fill="black"/>
<path d="M430.8 58.3H403.7C402.9 58.3 402.1 58.6001 401.5 59.2001L396.6 64.2001C396.3 64.5001 396.1 64.8001 395.9 65.2001C395.7 65.6001 395.7 66 395.7 66.4V127C395.7 127.1 395.7 127.2 395.8 127.3C395.8 127.4 395.9 127.5 396 127.6C396.1 127.7 396.2 127.7 396.3 127.8C396.4 127.8 396.5 127.9 396.6 127.9H408.4C408.5 127.9 408.6 127.9 408.7 127.8C408.8 127.8 408.9 127.7 409 127.6C409.1 127.5 409.1 127.4 409.2 127.3C409.2 127.2 409.3 127.1 409.3 127V71.5C409.3 71.3 409.4 71.1 409.5 70.9C409.6 70.8 409.8 70.7001 410.1 70.7001H431.1C431.3 70.7001 431.5 70.6 431.7 70.5C431.8 70.3 431.9 70.1 431.9 69.9V59.1001C431.9 58.9001 431.8 58.7 431.7 58.5C431.2 58.3 431 58.3 430.8 58.3Z" fill="black"/>
<path d="M263.7 56.5C243.9 56.5 229.4 71 229.4 92.7C229.4 113 241.7 129.6 264 129.6C281.1 129.6 291.5 119.5 295 108.3C295 108.2 295 108.1 295 107.9C295 107.8 294.9 107.7 294.9 107.6C294.8 107.5 294.7 107.4 294.6 107.4C294.5 107.3 294.4 107.3 294.2 107.3H282.2C282.1 107.3 281.9 107.3 281.8 107.4C281.7 107.5 281.6 107.6 281.5 107.7C278.5 114.1 273.1 117.9 263.5 117.9C252.8 117.9 245 110.3 243.3 97.8C243.3 97.7 243.3 97.6 243.3 97.5C243.3 97.4 243.4 97.3 243.5 97.2C243.6 97.1 243.7 97 243.8 97C243.9 97 244 96.9 244.1 96.9H295.5C295.7 96.9 295.9 96.8 296 96.7C296.1 96.6 296.2 96.4 296.2 96.2C297.4 73.8 284.9 56.5 263.7 56.5ZM281.4 86.3H244.4C244.3 86.3 244.2 86.3 244.1 86.2C244 86.2 243.9 86.1 243.8 86C243.7 85.9 243.7 85.8 243.6 85.7C243.6 85.6 243.6 85.5 243.6 85.4C245.8 72.7 253.3 67.6 263.5 67.6C274.2 67.6 281.4 75.6 282.2 85.5C282.2 85.6 282.2 85.7 282.2 85.8C282.2 85.9 282.1 86 282 86.1C281.9 86.2 281.8 86.2 281.7 86.3C281.6 86.3 281.5 86.3 281.4 86.3Z" fill="black"/>
</svg>
