<svg xmlns="http://www.w3.org/2000/svg" class="Header-logoSvg SvgIcon logo-icon" viewBox="0 0 95 57"><path d="M31.952 44.715c-.896 0-1.717.374-2.314.971a3.27 3.27 0 0 0-2.313-.97h-2.687v1.792h3.21c.522 0 .895.373.895.896v8.44h1.79v-8.44c0-.523.374-.896.896-.896h3.21v-1.793zM53.667 55.92h1.866V43.97h-1.866zm7.09.224c2.015 0 3.582-.971 3.582-2.764 0-1.867-1.717-2.315-3.134-2.614-1.045-.224-1.866-.448-1.866-1.12 0-.598.672-.897 1.567-.897.896 0 1.642.374 2.239.822l.97-1.344c-.746-.598-1.866-1.12-3.283-1.12-1.866 0-3.433.896-3.433 2.688 0 1.867 1.716 2.316 3.134 2.689 1.045.224 1.866.448 1.866 1.12 0 .598-.747.971-1.717.971-1.044 0-1.94-.373-2.537-1.045l-.97 1.344a5.57 5.57 0 0 0 3.582 1.27m-13.433 0c2.463 0 4.478-2.017 4.478-4.482a4.493 4.493 0 0 0-4.478-4.481c-.224 0-1.417 0-2.537.747-.373.224-.522.373-.746.523l-.448.298c-.373.225-.895.374-1.492.374s-1.12-.15-1.493-.373l-.373-.374c-.224-.15-.373-.224-.746-.523-1.12-.747-2.314-.747-2.537-.747-2.463 0-4.478 2.017-4.478 4.482a4.493 4.493 0 0 0 4.478 4.481c.223 0 1.417 0 2.537-.747.373-.224.522-.373.746-.523l.448-.298c.373-.224.895-.374 1.492-.374s1.12.15 1.493.374l.447.298c.224.15.374.3.747.523.97.747 2.164.822 2.462.822m-10.298-7.245s.821 0 1.493.448c.373.224.522.373.746.523l.448.299c.671.448 1.567.672 2.462.672q1.455 0 2.463-.672l.448-.3c.224-.149.373-.223.746-.522.672-.448 1.492-.448 1.492-.448a2.676 2.676 0 0 1 2.687 2.689 2.676 2.676 0 0 1-2.687 2.689s-.82 0-1.492-.449c-.373-.224-.523-.373-.746-.522l-.448-.3c-.672-.447-1.567-.671-2.463-.671q-1.454 0-2.462.672l-.448.299c-.224.149-.373.224-.746.523-.672.448-1.493.448-1.493.448a2.676 2.676 0 0 1-2.686-2.69c-.075-1.418 1.119-2.688 2.686-2.688m-8.283-7.096c-.597 0-1.194-.15-1.791-.373-1.418-.598-2.388-1.867-2.687-3.361-.074-.299-.149-1.046.075-1.867.373-1.42 1.343-2.54 2.761-3.063 1.343-.523 2.836-.298 4.104.448.523.3 1.269.523 1.269.523s-1.12 1.42-1.269 1.643c-1.417-1.195-2.611-1.27-3.432-.896-.821.299-1.418.971-1.642 1.867-.15.523-.075.971-.075 1.12.15.972.746 1.719 1.642 2.092.82.373 1.791.224 2.612-.224.597-.299.895-.896.895-.896l1.12 1.643-.299.075c-.224.149-.448.298-.746.522-.746.449-1.642.747-2.537.747m37.014-4.556a4.49 4.49 0 0 0-4.478-4.481c-1.567 0-2.462.821-3.209 1.419V32.84h-1.865s.149 8.29-.15 8.738h2.09c-.224-.373-.224-3.137-.224-5.452.15-.075.373-.224.597-.299l.448-.299c.224-.149.373-.224.746-.523.672-.448 1.493-.448 1.493-.448a2.676 2.676 0 0 1 2.686 2.69s.15 4.107 0 4.331h1.94c-.149-.821-.074-4.332-.074-4.332Zm-42.76 0a4.49 4.49 0 0 0-4.478-4.481c-1.567 0-2.462.821-3.209 1.419V32.84h-1.865s.223 8.29-.075 8.738h2.015c-.15 0-.15-2.987-.15-5.452.15-.075.374-.224.523-.299l.448-.299c.224-.149.373-.224.746-.523.672-.448 1.492-.448 1.492-.448a2.676 2.676 0 0 1 2.687 2.69s0 4.331-.224 4.331h2.239c-.075 0-.15-4.332-.15-4.332Zm20.298 0a4.49 4.49 0 0 0-4.478-4.481c-1.492 0-2.388.747-3.209 1.419-.074-3.212.224-4.033.224-4.033h-2.239c.299.448.373 10.606-.074 11.427h2.313c-.15-.373-.15-2.913-.224-5.452.15-.075.299-.15.448-.299l.448-.299c.224-.149.373-.224.746-.523.672-.448 1.492-.448 1.492-.448a2.676 2.676 0 0 1 2.687 2.69s0 2.912-.15 4.331h2.24c-.224 0-.224-4.332-.224-4.332m11.119 4.332h-1.717c.075-.074.075-.597.075-1.344l-.448.299c-.224.149-.373.224-.746.522a4.9 4.9 0 0 1-2.463.747h-.074c-2.463 0-4.478-2.016-4.478-4.481s2.015-4.481 4.478-4.481c.224 0 1.418 0 2.537.746.373.224.522.374.746.523l.448.299v-1.42h1.642c0-.074-.224 8.067 0 8.59m-1.642-3.062V36.05c-.895-.075-2.239-1.494-3.657-1.494a2.676 2.676 0 0 0-2.686 2.69 2.677 2.677 0 0 0 2.686 2.688c1.344.075 2.612-1.27 3.657-1.42Zm19.253-3.884v-1.718h-2.388s-.074-1.419.075-2.017h-2.015c.15.523.075 2.017.075 2.017h-1.418v1.718c.746-.15 1.418-.15 1.418-.15v4.557c0 1.643.895 2.689 2.686 2.689.597 0 1.045-.15 1.567-.374v-1.942c-.298.374-.671.523-1.12.523-.745 0-1.193-.373-1.193-1.195v-4.257c-.075 0 .074-.075 2.313.149m10.672 2.689c0-2.614-1.94-4.556-4.553-4.556-2.611 0-4.552 1.942-4.552 4.481 0 2.614 2.015 4.556 4.776 4.556 1.642 0 3.06-.672 3.88-1.792l-1.417-1.345c-.299.897-1.343 1.42-2.463 1.42-1.418 0-2.462-.822-2.76-2.017h6.939c.075-.299.15-.523.15-.747m-4.553-2.838c1.27 0 2.24.821 2.538 2.016h-5.075c.299-1.195 1.269-2.016 2.537-2.016M92.1 41.578c.075-.15.15-.597.15-1.344l-.448.299c-.224.149-.373.224-.746.522a4.9 4.9 0 0 1-2.463.747h-.075c-2.462 0-4.477-2.016-4.477-4.481s2.015-4.481 4.477-4.481c.224 0 1.418 0 2.538.746.373.224.522.374.746.523l.448.299h.074c0-2.24.075-3.062-.074-4.183h1.865c-.224 1.12-.15 10.457.15 11.428-.224-.075-1.94-.075-2.165-.075m.15-3.062V36.05c-.896 0-2.24-1.494-3.732-1.494a2.676 2.676 0 0 0-2.686 2.69 2.677 2.677 0 0 0 2.686 2.688c1.418.075 2.761-1.344 3.732-1.42ZM4.34 39.562c-1.194 0-1.641-.747-1.641-1.644s.746-1.643 1.641-1.643l2.985.075c.747 0 1.344-.672 1.493-1.42.074-.223.074-.671.074-.671H7.475c-2.24 0-2.612-.971-2.762-1.868-.074-.522.224-1.643 1.717-1.568 1.343 0 2.612.373 3.955.299.597 0 1.12-.3 1.269-.822l.298-1.27c-1.866.374-3.283 0-5.298 0-2.09 0-3.732 1.12-3.955 3.212-.075.822.298 1.569.895 2.166a3.54 3.54 0 0 0-2.91 3.51 3.664 3.664 0 0 0 3.656 3.66h7.463v-2.24c.074 0-.597.224-7.463.224M51.727 4.98c0 2.39-1.94 4.332-4.328 4.332a4.333 4.333 0 0 1 0-8.664 4.333 4.333 0 0 1 4.328 4.332M47.4 17.528a4.333 4.333 0 0 0 0 8.664 4.333 4.333 0 0 0 4.328-4.332c0-2.39-1.94-4.332-4.328-4.332m6.567-8.664s-1.418-.075-2.537.747c-.747.523-.821.523-1.493 1.045-.671.449-1.642.673-2.462.673-.896 0-1.791-.224-2.463-.673-.746-.522-.82-.522-1.492-1.045-1.12-.747-2.538-.747-2.538-.747a4.525 4.525 0 0 0-4.552 4.556 4.525 4.525 0 0 0 4.552 4.556s1.418.075 2.538-.747c.746-.523.82-.523 1.492-1.046.672-.448 1.642-.672 2.463-.672.895 0 1.79.224 2.462.672.746.523.821.523 1.493 1.046 1.12.747 2.537.747 2.537.747a4.525 4.525 0 0 0 4.552-4.556 4.525 4.525 0 0 0-4.552-4.556"/></svg>