<svg width="478" height="169" viewBox="0 0 478 169" fill="none" xmlns="http://www.w3.org/2000/svg">
<g clip-path="url(#clip0_2207_26014)">
<mask id="mask0_2207_26014" style="mask-type:luminance" maskUnits="userSpaceOnUse" x="0" y="0" width="478" height="169">
<path d="M0 0H478V169H0V0Z" fill="white"/>
</mask>
<g mask="url(#mask0_2207_26014)">
<path d="M30.3313 121.064C34.2277 135.304 44.7908 142.423 62.0205 142.423C66.8191 142.729 71.6194 141.854 76.0043 139.874C80.3892 137.894 84.2258 134.869 87.1807 131.062L110.538 144.691C105.151 152.63 97.8138 159.039 89.2362 163.297C80.6585 167.556 71.1308 169.52 61.5751 169C53.3547 169.378 45.1442 168.062 37.45 165.133C29.7559 162.204 22.7412 157.724 16.8386 151.969C11.2732 146.336 6.90979 139.623 4.01473 132.241C1.11966 124.859 -0.246362 116.962 1.2525e-05 109.032C-0.240518 101.139 1.10854 93.2774 3.96642 85.9193C6.8243 78.5612 11.1322 71.8576 16.6322 66.2098C22.1716 60.5323 28.829 56.0755 36.1798 53.1235C43.5306 50.1715 51.4137 48.7891 59.3263 49.0645C66.9582 48.8488 74.5475 50.2779 81.5825 53.2552C88.6175 56.2326 94.9348 60.6891 100.108 66.3243C110.846 77.8893 116.618 93.2307 116.176 109.032C116.156 113.07 115.778 117.099 115.046 121.069L30.3313 121.064ZM29.875 98.3526H87.1807C86.0657 91.5078 82.4117 85.3398 76.9526 81.0873C71.8431 77.3251 65.652 75.3348 59.3155 75.4176C52.3758 75.1428 45.5527 77.2695 39.9891 81.4416C34.743 85.7047 31.165 91.6898 29.8859 98.3416L29.875 98.3526ZM338.462 52.2483H367.446V165.816H338.462V152.427C334.107 157.91 328.513 162.273 322.144 165.155C315.774 168.036 308.813 169.355 301.835 169C294.53 169.131 287.285 167.642 280.619 164.64C273.953 161.637 268.029 157.196 263.269 151.631C252.585 140.079 246.828 124.789 247.229 109.032C246.834 93.2744 252.601 77.9875 263.297 66.4443C268.098 60.937 274.026 56.5336 280.677 53.5344C287.327 50.5351 294.544 49.0105 301.835 49.0645C308.814 48.7112 315.776 50.031 322.145 52.9149C328.514 55.7988 334.108 60.1637 338.462 65.6483V52.2483ZM284.986 132.098C287.875 135.061 291.347 137.389 295.181 138.934C299.015 140.479 303.127 141.207 307.256 141.071C311.398 141.196 315.52 140.463 319.368 138.919C323.215 137.375 326.704 135.054 329.619 132.098C332.577 129.057 334.887 125.444 336.409 121.479C337.931 117.513 338.633 113.279 338.473 109.032C338.629 104.786 337.922 100.552 336.395 96.5881C334.868 92.6246 332.553 89.0144 329.592 85.9774C326.676 83.0232 323.186 80.7019 319.339 79.1574C315.493 77.6128 311.371 76.878 307.229 76.9986C303.1 76.8635 298.987 77.592 295.153 79.1378C291.319 80.6835 287.847 83.0127 284.959 85.9774C282.037 89.0357 279.758 92.6531 278.258 96.6139C276.759 100.575 276.069 104.798 276.23 109.032C276.07 113.27 276.763 117.497 278.267 121.46C279.772 125.423 282.057 129.041 284.986 132.098ZM393.736 165.816V52.2483H422.726V165.816H393.736ZM449.016 165.816V0H478V165.816H449.016ZM408.125 38.6192C405.789 38.6385 403.474 38.1745 401.325 37.2562C399.175 36.338 397.237 34.9852 395.632 33.2821C393.946 31.6514 392.609 29.6925 391.703 27.5252C390.797 25.358 390.341 23.0281 390.363 20.678C390.347 18.311 390.806 15.965 391.711 13.7792C392.616 11.5934 393.949 9.61245 395.632 7.9539C397.221 6.2219 399.153 4.84227 401.305 3.90347C403.456 2.96467 405.779 2.48741 408.125 2.50229C410.5 2.48901 412.851 2.96613 415.034 3.90399C417.217 4.84185 419.184 6.2204 420.814 7.9539C422.497 9.61218 423.832 11.593 424.738 13.7787C425.644 15.9645 426.103 18.3107 426.088 20.678C426.107 23.0281 425.649 25.3574 424.742 27.5242C423.835 29.691 422.499 31.6501 420.814 33.2821C419.177 34.9985 417.206 36.3582 415.023 37.2765C412.84 38.1947 410.492 38.6518 408.125 38.6192Z" fill="black"/>
<path d="M155.279 52.1719H117.979L163.536 109.032L118.039 165.822H155.35L200.836 109.032L155.279 52.1719Z" fill="#00FFDA"/>
<path d="M182.183 132.311L209.016 165.816H246.317L200.836 109.032L182.183 132.321V132.311ZM209.076 52.1719L182.189 85.7538L200.836 109.032L246.376 52.1719H209.076Z" fill="black"/>
</g>
</g>
<defs>
<clipPath id="clip0_2207_26014">
<rect width="478" height="169" fill="white"/>
</clipPath>
</defs>
</svg>
