<svg width="159" height="40" viewBox="0 0 159 40" fill="none" xmlns="http://www.w3.org/2000/svg">
<g clip-path="url(#clip0_4149_2858)">
<path d="M45.1012 17.0581H36.5751C34.4256 17.0581 32.3444 17.7879 30.6622 19.1288L17.9341 29.2845C15.9249 30.8879 13.4339 31.7579 10.8638 31.7579H0.421875V22.9215H8.94797C11.0975 22.9215 13.1787 22.1917 14.8609 20.8508L27.589 10.695C29.5982 9.09163 32.0892 8.22168 34.6592 8.22168H45.1012V17.0581Z" fill="#697077"/>
<path d="M28.7895 6.05393L13.1211 18.5715C11.971 19.4883 10.5439 19.9915 9.07378 19.9915H0.421875V11.1552H6.50732C7.97747 11.1552 9.40807 10.6555 10.5583 9.73518L22.74 0L28.7931 6.05393H28.7895Z" fill="#697077"/>
<path d="M16.738 33.925L32.4063 21.4073C33.5566 20.4907 34.9836 19.9873 36.4536 19.9873H45.1056V28.8238H39.0201C37.55 28.8238 36.1194 29.3235 34.9692 30.2438L22.7875 39.9789L16.7344 33.925H16.738Z" fill="#697077"/>
<path d="M105.057 15.5911C103.706 13.9014 101.736 12.7798 98.9249 12.7798C93.2604 12.7798 89.0078 17.4101 89.0078 23.5647C89.0078 29.7192 93.2567 34.3496 98.9249 34.3496C101.736 34.3496 103.702 33.228 105.057 31.5599V34.0548H110.449V13.3299H105.057V15.5911ZM99.9385 29.2088C96.704 29.2088 94.6549 26.6923 94.6549 23.5647C94.6549 20.4371 96.7067 17.9206 99.9385 17.9206C103.17 17.9206 105.222 20.3292 105.222 23.5647C105.222 26.8001 103.088 29.2088 99.9385 29.2088Z" fill="#697077"/>
<path d="M119.581 6.06445H114.062V25.8655C114.062 31.1933 116.643 34.0476 121.737 34.0476H125.68V28.9105H122.646C120.953 28.9105 119.581 27.9578 119.581 25.4234V18.2334H125.68V13.3263H119.581V6.06445Z" fill="#697077"/>
<path d="M150.298 22.968L158.375 13.3263H151.61L145.838 20.6241H143.893V6.06445H138.375V34.0513H143.893V25.5276H145.755L151.819 34.0513H158.605L150.298 22.968Z" fill="#697077"/>
<path d="M134.791 13.3267H129.273V34.0516H134.791V13.3267Z" fill="#697077"/>
<path d="M134.791 6.06445H129.273V11.1621H134.791V6.06445Z" fill="#697077"/>
<path d="M70.5856 17.5365V22.965H80.8766C80.3805 25.068 79.3453 26.7252 77.7673 27.9368C76.1893 29.1482 74.2951 29.7558 72.0737 29.7558C69.3311 29.7558 67.0234 28.8211 65.1543 26.9517C63.2852 25.0823 62.3506 22.7636 62.3506 19.9883C62.3506 17.213 63.2564 14.9373 65.0645 13.068C66.8761 11.1986 69.0939 10.2639 71.7214 10.2639C75.7796 10.2639 78.6983 11.9715 80.4776 15.3867L85.819 13.503C84.7981 10.6414 83.0009 8.45203 80.4344 6.93496C77.8644 5.41789 74.96 4.65576 71.7214 4.65576C67.4009 4.65576 63.7525 6.13689 60.7727 9.10277C57.7964 12.065 56.3047 15.6923 56.3047 19.9847C56.3047 24.277 57.8072 27.9403 60.8158 30.8918C63.8208 33.8397 67.5159 35.3136 71.894 35.3136C76.2721 35.3136 79.7767 33.8684 82.5768 30.978C85.3804 28.0878 86.7823 24.4532 86.7823 20.0746C86.7823 19.4023 86.7391 18.5575 86.6493 17.533H70.5784L70.5856 17.5365Z" fill="#697077"/>
</g>
<defs>
<clipPath id="clip0_4149_2858">
<rect width="158.182" height="40" fill="white" transform="translate(0.421875)"/>
</clipPath>
</defs>
</svg>
