<svg width="1174" height="145" viewBox="0 0 1174 145" fill="none" xmlns="http://www.w3.org/2000/svg">
<path d="M110.376 19.5674C166.939 19.5674 166.939 19.5674 175.085 27.4559C182.803 36.1425 183.762 46.0333 183.124 57.1971C182.167 65.1764 177.846 71.942 171.647 76.9214C170.069 78.0241 168.447 78.8264 166.689 79.6084C166.196 79.8291 165.702 80.0497 165.193 80.2771C164.819 80.4425 164.445 80.608 164.059 80.7785C169.824 91.7621 169.824 91.7621 175.849 102.604C178.373 107.014 180.803 111.471 183.194 115.956C183.584 116.688 183.976 117.421 184.368 118.153C184.915 119.176 185.46 120.2 186.003 121.225C186.252 121.689 186.252 121.689 186.505 122.162C187.639 124.314 187.639 124.314 187.639 125.432C180.686 125.432 173.732 125.432 166.568 125.432C165.865 124.058 165.163 122.684 164.439 121.268C163.74 119.901 163.041 118.534 162.342 117.167C161.865 116.235 161.388 115.302 160.912 114.369C158.023 108.716 155.106 103.079 152.141 97.4645C151.168 95.622 150.203 93.7755 149.243 91.9263C148.992 91.4431 148.741 90.96 148.482 90.4622C147.98 89.4943 147.479 88.5261 146.977 87.5577C146.732 87.0849 146.486 86.6121 146.233 86.125C146.018 85.7101 145.803 85.2952 145.581 84.8678C144.964 83.6943 144.964 83.6943 143.991 82.2836C138.693 82.1181 133.395 81.9525 127.936 81.7819C127.936 96.1866 127.936 110.591 127.936 125.432C122.141 125.432 116.346 125.432 110.376 125.432C110.376 90.497 110.376 55.5615 110.376 19.5674ZM127.936 36.6262C127.936 46.0637 127.936 55.5013 127.936 65.2248C134.129 65.2559 134.129 65.2559 140.447 65.2875C142.389 65.3012 142.389 65.3012 144.371 65.3152C145.409 65.3182 146.447 65.3207 147.485 65.3228C148.279 65.3305 148.279 65.3305 149.089 65.3384C153.569 65.3394 157.579 65.0674 161.153 62.1713C164.671 58.4156 165.248 53.8957 165.202 48.9754C164.886 44.8671 163.153 41.3471 160.045 38.6331C156.534 36.4052 153.107 36.3575 149.053 36.4302C148.515 36.4322 147.977 36.4343 147.423 36.4363C145.432 36.4468 143.441 36.4748 141.451 36.5008C134.761 36.5629 134.761 36.5629 127.936 36.6262Z" fill="black"/>
<path d="M81.1045 28.2713C86.7053 33.5939 90.6535 40.5899 92.3146 48.1661C92.3146 48.8284 92.3146 49.4907 92.3146 50.173C86.1887 50.173 80.0628 50.173 73.7513 50.173C72.5924 48.0206 71.4334 45.8682 70.2394 43.6505C66.8711 40.1164 62.6269 37.3942 57.6633 37.0085C52.4039 36.8968 47.8172 37.7312 43.6488 41.1419C39.0883 45.5518 37.1644 50.7534 36.9976 57.0704C36.9675 59.0027 36.9597 60.9346 36.958 62.8672C36.9548 63.7125 36.9514 64.5577 36.9479 65.403C36.9419 67.1696 36.94 68.9361 36.9406 70.7027C36.9407 72.9513 36.927 75.1996 36.9097 77.4481C36.8985 79.1928 36.8965 80.9374 36.8971 82.6821C36.8959 83.5103 36.8915 84.3386 36.8837 85.1668C36.8275 91.7228 37.3714 97.9047 42.1436 102.855C46.3363 106.897 51.5487 108.185 57.2596 108.109C62.0552 107.897 66.2943 106.23 69.7377 102.855C74.4061 97.5036 74.7942 91.2244 75.2565 84.2906C69.2961 84.2906 63.3358 84.2906 57.1949 84.2906C57.1949 78.6612 57.1949 73.0318 57.1949 67.2318C69.1155 67.2318 81.0362 67.2318 93.318 67.2318C93.349 71.2987 93.3801 75.3655 93.4121 79.5556C93.4326 81.4566 93.4326 81.4566 93.4536 83.3961C93.5318 95.7352 91.4105 107.003 82.7821 116.401C75.2661 123.773 65.4145 126.576 55.0786 126.56C44.7885 126.398 35.8247 122.913 28.2839 115.868C19.868 107.178 18.4017 96.1173 18.4124 84.518C18.4104 83.6234 18.4083 82.7288 18.4059 81.8343C18.4022 79.967 18.4023 78.0998 18.4049 76.2326C18.4078 73.8622 18.3993 71.4921 18.3877 69.1217C18.3802 67.2758 18.3799 65.43 18.3814 63.5841C18.3812 62.7113 18.3786 61.8385 18.3735 60.9657C18.3126 49.1178 20.6057 37.4875 29.0992 28.5986C43.558 14.9712 66.4863 15.3509 81.1045 28.2713Z" fill="black"/>
<path d="M475.119 29.6021C474.142 32.7883 472.577 35.4356 470.886 38.2883C470.445 39.0513 470.445 39.0513 469.995 39.8297C469.71 40.3125 469.425 40.7953 469.132 41.2928C468.873 41.7334 468.614 42.1741 468.347 42.6281C467.593 43.6505 467.593 43.6505 466.088 44.1522C464.809 43.5024 463.61 42.8258 462.388 42.0826C455.967 38.3275 449.588 35.917 442.1 35.9678C441.661 35.9706 441.222 35.9734 440.77 35.9763C434.983 36.0844 429.359 37.2238 425.118 41.475C422.944 44.2512 422.295 47.1949 422.471 50.6747C422.887 53.7243 424.008 56.021 426.416 57.9855C429.111 59.8186 431.616 60.9263 434.763 61.7441C435.213 61.8677 435.663 61.9912 436.126 62.1185C439.595 63.0452 443.095 63.7723 446.615 64.4723C456.795 66.5014 467.302 69.3421 473.52 78.3326C476.632 83.6599 477.299 88.5751 477.345 94.6388C477.35 95.1589 477.355 95.679 477.361 96.2148C477.278 103.497 475.059 110.675 469.99 116.094C459.913 125.241 446.577 127.028 433.477 126.436C421.226 125.585 409.15 121.608 399.862 113.391C400.964 110.362 402.79 107.884 404.597 105.238C404.939 104.727 405.281 104.216 405.633 103.69C406.128 102.962 406.128 102.962 406.634 102.22C406.935 101.776 407.236 101.332 407.546 100.875C408.391 99.8443 408.391 99.8443 409.897 99.3425C411.038 99.9942 412.083 100.664 413.158 101.412C422.956 107.945 434.351 110.277 446.026 108.644C450.267 107.774 454.887 106.166 457.59 102.604C459.671 99.1437 460.084 95.6796 459.368 91.7284C458.477 88.7684 456.595 86.96 454.047 85.2941C448.705 82.5875 442.23 81.7978 436.391 80.6845C415.266 76.6394 415.266 76.6394 408.768 67.6395C404.162 60.2975 403.735 50.0202 405.413 41.6749C407.721 33.3312 412.437 27.3369 419.931 23.0796C436.743 14.9942 460.782 17.2314 475.119 29.6021Z" fill="black"/>
<path d="M230.991 19.5107C231.775 19.5147 231.775 19.5147 232.576 19.5187C233.14 19.5203 233.704 19.5219 234.286 19.5236C234.88 19.5278 235.474 19.532 236.086 19.5363C236.682 19.5386 237.278 19.5409 237.892 19.5432C239.37 19.5491 240.848 19.5574 242.326 19.5677C243.765 22.7061 245.046 25.8783 246.243 29.1163C246.423 29.5996 246.603 30.0829 246.788 30.5808C247.382 32.1774 247.974 33.7748 248.566 35.3722C248.989 36.511 249.412 37.6499 249.835 38.7886C253.382 48.3432 256.905 57.9068 260.424 67.4718C263.274 75.2153 266.132 82.9554 269 90.6922C269.629 92.3903 270.258 94.0885 270.887 95.7867C272.622 100.471 274.357 105.155 276.096 109.837C276.768 111.648 277.438 113.459 278.109 115.27C278.416 116.1 278.724 116.929 279.032 117.758C279.448 118.876 279.862 119.994 280.275 121.113C280.397 121.439 280.519 121.765 280.644 122.1C281.459 124.315 281.459 124.315 281.459 125.433C275.168 125.433 268.876 125.433 262.394 125.433C261.464 122.736 260.534 120.04 259.607 117.342C259.292 116.424 258.975 115.506 258.658 114.588C258.204 113.271 257.751 111.954 257.298 110.636C257.084 110.018 257.084 110.018 256.866 109.388C255.872 106.481 255.872 106.481 255.872 105.364C242.792 105.364 229.713 105.364 216.237 105.364C215.906 106.854 215.574 108.344 215.233 109.879C214.819 111.174 214.393 112.447 213.928 113.722C213.596 114.653 213.596 114.653 213.257 115.602C212.978 116.373 212.699 117.144 212.411 117.938C211.076 121.648 211.076 121.648 209.714 125.433C203.423 125.433 197.132 125.433 190.65 125.433C194.102 115.074 194.102 115.074 195.669 110.928C195.936 110.212 195.936 110.212 196.209 109.482C196.591 108.462 196.974 107.442 197.358 106.422C198.414 103.612 199.464 100.799 200.515 97.9865C200.735 97.3995 200.954 96.8124 201.18 96.2076C203.618 89.6825 206.025 83.1457 208.429 76.6081C212.378 65.8723 216.344 55.1424 220.321 44.4171C222.09 39.6481 223.856 34.8785 225.599 30.1001C225.733 29.732 225.867 29.3639 226.006 28.9846C226.601 27.3521 227.195 25.719 227.786 24.0849C227.981 23.5482 228.177 23.0115 228.378 22.4585C228.542 22.003 228.707 21.5475 228.877 21.0782C229.476 19.5821 229.476 19.5821 230.991 19.5107ZM235.803 48.1663C231.099 61.49 226.566 74.8469 222.257 88.3047C231.363 88.3047 240.469 88.3047 249.851 88.3047C248.578 83.6342 248.578 83.6342 247.132 79.0352C247.021 78.7024 246.91 78.3697 246.795 78.0268C246.435 76.951 246.073 75.876 245.71 74.8011C245.456 74.0453 245.202 73.2895 244.948 72.5336C244.419 70.9621 243.889 69.3911 243.358 67.8203C242.676 65.8042 242 63.7866 241.325 61.7685C240.804 60.213 240.279 58.6586 239.753 57.1046C239.502 56.3604 239.253 55.6158 239.004 54.8708C238.658 53.8358 238.308 52.8024 237.956 51.7693C237.659 50.8868 237.659 50.8868 237.355 49.9865C236.948 48.6019 236.948 48.6019 235.803 48.1663Z" fill="black"/>
<path d="M272.428 19.5674C278.554 19.5674 284.68 19.5674 290.991 19.5674C294.548 30.5121 297.938 41.5002 301.28 52.5117C302.346 56.0201 303.413 59.5279 304.48 63.0357C304.743 63.9023 305.007 64.7689 305.27 65.6355C308.18 75.2059 311.122 84.7665 314.07 94.3252C317.644 83.3869 321.017 72.3916 324.359 61.3808C325.424 57.8725 326.491 54.3647 327.558 50.8568C327.822 49.9902 328.085 49.1237 328.349 48.2571C331.259 38.6867 334.203 29.1267 337.149 19.5674C343.275 19.5674 349.4 19.5674 355.712 19.5674C354.583 24.6467 354.583 24.6467 353.939 26.5925C353.794 27.0345 353.649 27.4766 353.499 27.932C353.344 28.3997 353.188 28.8673 353.027 29.3492C352.861 29.8531 352.695 30.357 352.524 30.8762C352.166 31.9631 351.808 33.0497 351.448 34.136C350.473 37.0812 349.505 40.0288 348.537 42.9762C348.239 43.883 348.239 43.883 347.935 44.8082C346.01 50.6729 344.132 56.5521 342.26 62.4339C338.807 73.272 335.274 84.0825 331.722 94.8881C331.304 96.1599 330.886 97.4317 330.468 98.7035C330.266 99.3189 330.063 99.9343 329.855 100.568C327.807 106.805 325.782 113.049 323.772 119.298C323.659 119.647 323.546 119.996 323.43 120.356C323.135 121.269 322.842 122.183 322.548 123.097C322.097 124.429 322.097 124.429 321.596 125.432C316.629 125.432 311.662 125.432 306.544 125.432C295.841 92.9464 295.841 92.9464 291.43 79.0851C288.428 69.6506 285.364 60.2374 282.274 50.8314C282.057 50.1691 281.839 49.5068 281.622 48.8444C281.197 47.552 280.773 46.2597 280.348 44.9673C280.144 44.3464 279.941 43.7256 279.73 43.086C279.531 42.4774 279.331 41.8688 279.125 41.2418C277.619 36.6573 276.116 32.0722 274.629 27.4817C274.321 26.5313 274.011 25.5813 273.701 24.6314C273.527 24.0914 273.353 23.5515 273.173 22.9952C273.027 22.5437 272.88 22.0921 272.73 21.6269C272.428 20.5708 272.428 20.5708 272.428 19.5674Z" fill="black"/>
<path d="M709.417 19.5674C760.877 19.5674 760.877 19.5674 768.971 27.4206C774.818 33.6952 775.481 41.9007 775.284 50.073C775.154 53.1013 774.72 55.8619 773.636 58.7023C773.471 59.1363 773.306 59.5703 773.136 60.0174C770.81 65.3047 766.852 68.5597 761.595 70.7439C762.453 71.316 763.323 71.8732 764.221 72.3804C770.508 75.944 773.78 80.2877 775.752 87.2225C776.261 89.2772 776.568 91.2082 776.646 93.3217C776.666 93.8469 776.686 94.372 776.707 94.9131C776.863 103.205 775.788 110.813 770.234 117.279C764.976 122.612 758.798 124.226 751.561 125.432C737.653 125.432 723.746 125.432 709.417 125.432C709.417 90.497 709.417 55.5615 709.417 19.5674ZM719.953 30.1037C719.953 41.8593 719.953 53.6148 719.953 65.7266C725.044 65.7679 730.135 65.8093 735.38 65.852C737.773 65.8794 737.773 65.8794 740.215 65.9073C741.496 65.9132 742.777 65.9183 744.058 65.9225C745.036 65.9379 745.036 65.9379 746.033 65.9537C751.572 65.9557 756.668 65.1547 760.781 61.1777C764.102 57.2166 764.217 53.0654 764.26 48.1033C764.275 47.5561 764.289 47.009 764.304 46.4452C764.338 42.1487 763.49 38.8661 761.218 35.2151C756.197 30.3328 750.032 29.8751 743.324 29.9567C742.727 29.9582 742.131 29.9598 741.517 29.9613C739.315 29.9691 737.112 29.9901 734.91 30.0096C729.974 30.0407 725.038 30.0717 719.953 30.1037ZM740.58 75.8219C740.053 75.8323 739.526 75.8426 738.983 75.8533C737.04 75.8924 735.097 75.9368 733.154 75.9807C726.62 76.1204 726.62 76.1204 719.953 76.2629C719.953 89.0118 719.953 101.761 719.953 114.896C727.357 114.943 727.357 114.943 734.91 114.99C736.458 115.004 738.005 115.018 739.6 115.032C740.841 115.036 742.082 115.04 743.324 115.043C743.956 115.051 744.589 115.058 745.24 115.066C750.739 115.068 756.758 114.326 761.046 110.539C765.028 106.346 765.959 101.796 765.859 96.1439C765.853 95.5897 765.846 95.0354 765.839 94.4643C765.692 88.7009 764.819 84.465 760.666 80.1964C759.091 78.8473 757.505 77.9979 755.574 77.2663C755.109 77.0697 754.643 76.8731 754.163 76.6705C749.735 75.5417 745.115 75.7128 740.58 75.8219Z" fill="black"/>
<path d="M530.307 19.5674C580.781 19.5674 580.781 19.5674 590.01 28.0968C596.34 35.0578 597.489 44.5244 597.106 53.5498C596.588 61.7437 593.766 69.1873 587.502 74.7577C584.922 76.6928 582.666 78.1981 579.474 78.7715C583.448 87.2227 587.424 95.6727 591.411 104.118C591.773 104.885 592.135 105.651 592.496 106.418C594.216 110.062 595.937 113.705 597.683 117.336C597.922 117.834 598.161 118.332 598.407 118.845C598.836 119.735 599.266 120.625 599.698 121.514C601.048 124.319 601.048 124.319 601.048 125.432C596.743 125.432 592.439 125.432 588.003 125.432C587.291 123.826 587.291 123.826 586.565 122.187C582.771 113.632 578.958 105.085 575.116 96.5516C574.925 96.1272 574.734 95.7027 574.537 95.2654C573.986 94.0419 573.435 92.8185 572.884 91.595C572.713 91.2158 572.542 90.8365 572.366 90.4458C571.209 87.876 570.034 85.3148 568.839 82.762C568.437 81.7819 568.437 81.7819 568.437 80.7785C559.331 80.7785 550.225 80.7785 540.843 80.7785C540.843 95.5143 540.843 110.25 540.843 125.432C537.366 125.432 533.889 125.432 530.307 125.432C530.307 90.497 530.307 55.5615 530.307 19.5674ZM540.843 30.1037C540.843 43.515 540.843 56.9262 540.843 70.7439C545.675 70.7852 550.508 70.8266 555.486 70.8693C556.999 70.8876 558.511 70.9058 560.069 70.9247C561.287 70.9305 562.505 70.9356 563.723 70.9398C564.648 70.9552 564.648 70.9552 565.592 70.971C571.433 70.9733 577.18 69.9558 581.481 65.7266C585.949 61.0548 586.542 54.328 586.498 48.166C586.159 42.1276 583.902 37.0309 579.39 32.973C574.753 30.1589 570.326 29.8241 564.997 29.9077C564.382 29.9097 563.766 29.9118 563.131 29.9139C560.855 29.9243 558.578 29.9523 556.302 29.9783C551.2 30.0197 546.099 30.0611 540.843 30.1037Z" fill="black"/>
<path d="M853.66 25.5138C860.765 31.6294 863.846 40.0477 864.947 49.1696C865.019 50.688 865.026 52.2042 865.028 53.7242C865.03 54.1669 865.033 54.6097 865.035 55.0658C865.043 56.523 865.046 57.9802 865.049 59.4374C865.051 60.1897 865.051 60.1897 865.053 60.9572C865.061 63.6146 865.065 66.2719 865.067 68.9292C865.07 71.6534 865.082 74.3775 865.097 77.1016C865.106 79.2139 865.108 81.3262 865.109 83.4385C865.111 84.4416 865.115 85.4446 865.121 86.4476C865.192 97.9682 863.856 109.291 855.411 117.934C854.442 118.819 853.453 119.627 852.404 120.415C852.108 120.64 851.812 120.865 851.507 121.097C843.266 126.778 832.01 127.588 822.396 125.84C813.972 123.891 807.085 120.266 802.233 112.889C798.16 106.164 796.645 98.6574 796.634 90.8633C796.631 90.4359 796.629 90.0086 796.626 89.5684C796.619 88.1652 796.615 86.762 796.613 85.3588C796.611 84.8749 796.61 84.3911 796.608 83.8926C796.601 81.329 796.596 78.7654 796.594 76.2019C796.591 73.5773 796.579 70.9528 796.565 68.3283C796.555 66.29 796.553 64.2517 796.552 62.2134C796.551 61.2472 796.547 60.281 796.54 59.3148C796.465 47.5594 797.837 35.9078 806.286 26.9974C807.241 26.1268 808.213 25.3454 809.257 24.5848C809.553 24.361 809.848 24.1372 810.153 23.9067C822.217 15.556 842.226 16.5851 853.66 25.5138ZM815.278 34.1176C814.964 34.3634 814.65 34.6092 814.327 34.8624C810.184 38.5091 808.11 44.41 807.655 49.8241C807.613 51.0418 807.599 52.2561 807.598 53.4746C807.594 53.9321 807.59 54.3897 807.586 54.8611C807.574 56.3617 807.569 57.8622 807.566 59.3629C807.561 60.4171 807.557 61.4713 807.552 62.5255C807.544 64.7325 807.54 66.9393 807.539 69.1463C807.536 71.9538 807.517 74.7609 807.494 77.5683C807.479 79.746 807.475 81.9237 807.475 84.1015C807.473 85.1353 807.467 86.1692 807.456 87.203C807.384 94.9214 807.63 102.942 813.271 108.875C813.528 109.182 813.784 109.489 814.049 109.804C817.397 113.561 822.422 115.493 827.377 116.011C834.793 116.408 841.479 115.263 847.199 110.224C852.014 104.775 853.976 99.4345 853.998 92.1851C854.001 91.7205 854.005 91.2559 854.008 90.7773C854.018 89.2422 854.024 87.7072 854.029 86.1721C854.031 85.6457 854.033 85.1192 854.035 84.5767C854.045 81.7878 854.053 78.9988 854.057 76.2098C854.063 73.3426 854.08 70.4755 854.1 67.6083C854.113 65.3923 854.117 63.1764 854.119 60.9604C854.122 59.9043 854.127 58.8482 854.137 57.7921C854.185 52.0506 854.13 47.0218 851.902 41.6436C851.752 41.2553 851.601 40.8671 851.446 40.4671C849.516 35.7354 845.356 32.8423 840.91 30.7016C832.41 27.4238 822.456 28.307 815.278 34.1176Z" fill="black"/>
<path d="M674.221 24.7299C681.205 30.2814 684.97 37.9201 686.338 46.661C686.418 48.2945 686.422 49.9269 686.427 51.5623C686.431 52.0538 686.434 52.5453 686.437 53.0517C686.447 54.6772 686.453 56.3028 686.458 57.9283C686.46 58.4861 686.462 59.044 686.464 59.6187C686.475 62.5753 686.482 65.5319 686.487 68.4885C686.492 71.5244 686.509 74.56 686.529 77.5958C686.542 79.9448 686.547 82.2938 686.548 84.6429C686.551 85.7608 686.557 86.8786 686.566 87.9965C686.652 98.9405 685.411 109.117 677.394 117.35C677.034 117.699 676.675 118.049 676.304 118.408C676.027 118.696 675.751 118.983 675.465 119.279C669.029 125.46 659.107 126.667 650.601 126.542C642.213 126.268 634.337 123.735 628.14 117.907C627.672 117.478 627.672 117.478 627.194 117.04C620.824 110.541 618.538 100.885 618.527 92.0871C618.524 91.624 618.522 91.1609 618.519 90.6838C618.512 89.159 618.509 87.6343 618.506 86.1095C618.504 85.323 618.504 85.323 618.501 84.5206C618.494 81.7435 618.489 78.9664 618.487 76.1893C618.484 73.3391 618.472 70.489 618.458 67.6388C618.449 65.4314 618.446 63.224 618.445 61.0166C618.444 59.9669 618.44 58.9172 618.433 57.8676C618.39 50.4748 618.546 43.2687 621.743 36.4382C621.896 36.1038 622.048 35.7695 622.205 35.4249C623.505 32.6733 625.029 30.3072 627.137 28.0969C627.459 27.7542 627.782 27.4114 628.115 27.0582C639.689 15.8044 661.352 15.5609 674.221 24.7299ZM634.756 35.9678C629.046 43.0765 628.911 51.9947 628.944 60.6624C628.943 61.6141 628.941 62.5659 628.939 63.5177C628.937 65.5013 628.94 67.4848 628.947 69.4684C628.956 71.9918 628.951 74.515 628.942 77.0384C628.936 79.0004 628.938 80.9625 628.942 82.9245C628.943 83.8542 628.942 84.7838 628.938 85.7134C628.912 94.759 629.669 103.63 636.254 110.543C641.461 115.316 648.097 116.344 654.931 116.092C661.135 115.685 666.114 113.237 670.409 108.813C674.595 103.86 675.955 97.4862 675.948 91.154C675.952 90.7103 675.955 90.2666 675.959 89.8095C675.968 88.3553 675.97 86.9013 675.971 85.447C675.974 84.4254 675.978 83.4037 675.981 82.382C675.987 80.2439 675.989 78.1058 675.988 75.9676C675.988 73.2467 676.002 70.5261 676.019 67.8052C676.031 65.6951 676.033 63.585 676.032 61.4749C676.033 60.4728 676.038 59.4707 676.045 58.4687C676.108 49.639 675.374 41.636 669.218 34.7449C663.979 29.8312 657.346 28.7909 650.492 28.9436C644.597 29.2387 638.844 31.6688 634.756 35.9678Z" fill="black"/>
<path d="M1145.82 25.5902C1151.84 31.1453 1151.84 31.1453 1153.43 33.6159C1153.43 34.1126 1153.43 34.6093 1153.43 35.1211C1152.69 35.8447 1152.69 35.8447 1151.67 36.5851C1151.31 36.8519 1150.95 37.1187 1150.58 37.3936C1150.19 37.6681 1149.81 37.9427 1149.42 38.2256C1148.84 38.6461 1148.84 38.6461 1148.26 39.0752C1147.31 39.7685 1146.36 40.4571 1145.4 41.1419C1144.2 39.9448 1143 38.7458 1141.84 37.5063C1136.66 32.0575 1131.06 29.516 1123.57 29.1023C1116.49 29.0944 1109.37 30.4939 1104.16 35.5679C1100.59 39.7409 1099.96 44.9099 1100.09 50.2259C1100.35 53.4647 1101.33 55.5546 1103.35 58.0439C1106.67 60.7698 1109.92 62.6657 1114.01 63.9392C1114.46 64.0837 1114.91 64.2282 1115.37 64.3771C1119.6 65.7175 1123.88 66.8287 1128.17 67.9547C1137.87 70.5333 1147.41 73.7439 1152.8 82.8619C1154.77 87.328 1155.18 91.3768 1155.15 96.2381C1155.16 96.8309 1155.17 97.4236 1155.18 98.0343C1155.18 105.82 1152.6 112.543 1147.25 118.197C1138.6 126.003 1126.39 126.823 1115.3 126.436C1105.09 125.792 1095.79 121.839 1088.71 114.394C1087.45 112.775 1086.29 111.113 1085.2 109.377C1086.97 107.526 1088.8 105.979 1090.87 104.454C1091.15 104.25 1091.42 104.046 1091.71 103.836C1092.38 103.339 1093.05 102.846 1093.73 102.353C1095.64 104.733 1095.64 104.733 1096.41 105.751C1101.57 112.241 1109.36 114.772 1117.31 115.9C1119.01 116.06 1120.62 116.04 1122.32 115.9C1122.91 115.853 1123.49 115.807 1124.09 115.759C1130.34 115.1 1136.63 113.344 1140.76 108.305C1144.29 103.305 1144.52 97.7491 1143.9 91.8166C1142.88 87.804 1140.21 85.0944 1136.87 82.7855C1131.49 79.9902 1125.71 78.5307 1119.88 77.0156C1114.96 75.7324 1110.07 74.4539 1105.3 72.6744C1104.97 72.5544 1104.65 72.4344 1104.32 72.3107C1101.69 71.292 1099.46 69.966 1097.24 68.2353C1096.72 67.8731 1096.2 67.5109 1095.67 67.1377C1091.62 63.6065 1089.58 58.4239 1089.06 53.1819C1088.99 51.6215 1088.98 50.0729 1088.99 48.511C1088.99 47.9616 1089 47.4122 1089 46.8461C1089.16 38.8889 1091.54 32.5646 1097.02 26.7367C1101.6 22.4353 1108.15 20.0571 1114.3 19.0657C1114.63 19.0101 1114.95 18.9545 1115.29 18.8972C1125.63 17.4571 1137.58 18.658 1145.82 25.5902Z" fill="black"/>
<path d="M1056.8 25.4822C1063.35 31.0609 1067.1 38.2589 1068.64 46.6607C1068.64 47.4885 1068.64 48.3164 1068.64 49.1693C1065.16 49.1693 1061.69 49.1693 1058.11 49.1693C1057.75 48.1966 1057.4 47.2239 1057.04 46.2216C1054.14 38.7424 1050.41 34.2763 1043.19 30.7797C1038.07 28.6694 1031.97 29.0191 1026.86 30.9757C1021.16 33.6181 1017.87 37.4054 1015.46 43.1485C1013.96 47.3215 1013.38 51.3524 1013.37 55.788C1013.37 56.1834 1013.37 56.5788 1013.36 56.9862C1013.36 58.2853 1013.35 59.5844 1013.35 60.8835C1013.35 61.331 1013.35 61.7784 1013.35 62.2394C1013.34 64.6093 1013.33 66.9792 1013.33 69.3491C1013.33 71.7787 1013.32 74.2081 1013.3 76.6377C1013.29 78.5218 1013.29 80.4059 1013.29 82.2901C1013.29 83.1848 1013.29 84.0794 1013.28 84.974C1013.22 93.9856 1014.02 102.996 1020.48 109.879C1025.29 114.373 1031.05 115.656 1037.44 115.535C1042.94 115.283 1047.82 112.782 1051.58 108.824C1054.83 104.866 1056.49 100.667 1058.11 95.8302C1061.58 95.8302 1065.06 95.8302 1068.64 95.8302C1067.7 105.258 1064.07 112.98 1057.1 119.412C1049.05 125.775 1039.15 127.317 1029.19 126.238C1020.99 124.788 1014.09 120.545 1008.9 114.1C1007.12 111.522 1005.89 108.773 1004.77 105.865C1004.58 105.392 1004.58 105.392 1004.4 104.91C1002.13 98.6252 1002.25 92.2568 1002.25 85.6663C1002.24 84.6259 1002.24 83.5856 1002.24 82.5453C1002.23 80.3701 1002.23 78.1949 1002.23 76.0197C1002.23 73.2551 1002.22 70.4907 1002.2 67.7261C1002.19 65.5781 1002.19 63.4301 1002.19 61.282C1002.18 60.264 1002.18 59.246 1002.17 58.228C1002.09 46.7742 1003.98 36.059 1012.07 27.397C1024.19 16.1554 1043.72 15.365 1056.8 25.4822Z" fill="black"/>
<path d="M368.255 19.5674C374.049 19.5674 379.844 19.5674 385.814 19.5674C385.814 54.5028 385.814 89.4383 385.814 125.432C380.02 125.432 374.225 125.432 368.255 125.432C368.255 90.497 368.255 55.5615 368.255 19.5674Z" fill="black"/>
<path d="M878.995 19.5674C901.512 19.5674 924.028 19.5674 947.227 19.5674C947.227 23.0444 947.227 26.5214 947.227 30.1037C937.79 30.1037 928.353 30.1037 918.63 30.1037C918.63 61.5622 918.63 93.0207 918.63 125.432C914.988 125.432 911.345 125.432 907.592 125.432C907.592 93.974 907.592 62.5155 907.592 30.1037C898.155 30.1037 888.718 30.1037 878.995 30.1037C878.995 26.6267 878.995 23.1497 878.995 19.5674Z" fill="black"/>
<path d="M966.794 19.5674C970.271 19.5674 973.748 19.5674 977.33 19.5674C977.33 54.5028 977.33 89.4383 977.33 125.432C973.853 125.432 970.376 125.432 966.794 125.432C966.794 90.497 966.794 55.5615 966.794 19.5674Z" fill="black"/>
</svg>
