<svg width="425" height="272" viewBox="0 0 425 272" fill="none" xmlns="http://www.w3.org/2000/svg">
<g clip-path="url(#clip0_2207_26039)">
<path d="M157.324 86.8496V97.833L184.182 113.359L123.829 148.245C120.446 150.194 116.612 151.219 112.709 151.219C108.806 151.219 104.972 150.194 101.589 148.245L81.104 136.403V147.386L96.8576 156.487C101.686 159.268 107.158 160.732 112.728 160.732C118.298 160.732 123.77 159.268 128.598 156.487L196.057 117.471V109.235L157.324 86.8496Z" fill="black"/>
<path d="M101.584 179.455L63.4708 157.417V131.702L85.7105 118.842L112.704 134.45L144.444 116.1V66.5421C144.435 60.9641 142.964 55.4863 140.179 50.6559C137.393 45.8256 133.391 41.8118 128.571 39.0157L61.1077 0L51.6067 5.4944L123.856 47.2464C127.233 49.2064 130.037 52.0194 131.988 55.4045C133.94 58.7895 134.97 62.6281 134.976 66.5366V110.601L112.714 123.488L90.4747 110.628V79.424L58.7338 61.0749L15.8731 85.8541C11.0578 88.6483 7.05814 92.6579 4.27298 97.483C1.48783 102.308 0.0145241 107.78 0 113.353L0 191.374L9.50106 196.868V113.353C9.50884 109.442 10.5421 105.602 12.4974 102.217C14.4526 98.8316 17.2614 96.0199 20.6427 94.063L58.7501 72.0256L80.9682 84.864V110.579L53.9806 126.208V162.912L96.8413 187.691C101.669 190.472 107.142 191.936 112.712 191.936C118.282 191.936 123.754 190.472 128.582 187.691L196.056 148.681V137.697L123.856 179.455C120.469 181.409 116.629 182.438 112.72 182.438C108.811 182.438 104.971 181.409 101.584 179.455Z" fill="black"/>
<path d="M36.4887 27.9615L96.8413 62.8536C100.216 64.8139 103.019 67.6263 104.969 71.0103C106.919 74.3943 107.949 78.2313 107.956 82.1384V105.824L117.462 100.341V82.1384C117.453 76.5605 115.982 71.0827 113.197 66.2523C110.411 61.4219 106.409 57.4081 101.589 54.612L34.1148 15.6018L27.0148 19.7199V64.5074L36.5158 59.013V27.9615H36.4887Z" fill="black"/>
<path d="M36.4941 198.745V128.961C36.4997 125.052 37.5296 121.213 39.481 117.828C41.4323 114.443 44.2368 111.63 47.614 109.67L68.0991 97.8274L58.5981 92.333L42.8444 101.434C38.0248 104.23 34.0222 108.244 31.2368 113.074C28.4514 117.905 26.9805 123.383 26.9713 128.961V206.981L34.0985 211.099L72.8306 188.703L63.3296 183.208L36.4941 198.745Z" fill="black"/>
<path d="M24.8581 238.354C24.9514 238.343 25.0458 238.354 25.1345 238.385C25.2231 238.416 25.3037 238.467 25.3703 238.533C25.437 238.599 25.488 238.679 25.5197 238.768C25.5513 238.857 25.5629 238.951 25.5534 239.045V242.853C25.5581 242.943 25.5429 243.034 25.5089 243.118C25.4749 243.202 25.4229 243.277 25.3566 243.339C25.2903 243.4 25.2114 243.447 25.1252 243.475C25.0391 243.503 24.9479 243.511 24.8581 243.5H15.5743V270.754C15.5743 271.217 15.3462 271.451 14.9279 271.451H10.6744C10.2561 271.451 10.028 271.222 10.028 270.754V243.5H0.689873C0.599522 243.51 0.507947 243.501 0.421661 243.472C0.335375 243.443 0.256497 243.396 0.190634 243.333C0.124772 243.27 0.0735429 243.193 0.0405901 243.109C0.00763728 243.024 -0.0062302 242.933 -2.63466e-05 242.842V239.034C-0.00934661 238.941 0.00209449 238.847 0.0334696 238.759C0.0648448 238.671 0.11537 238.591 0.181391 238.524C0.247413 238.458 0.327281 238.408 0.41522 238.376C0.503159 238.345 0.596971 238.333 0.689873 238.343L24.8581 238.354Z" fill="black"/>
<path d="M44.8271 266.353H59.6627C60.1244 266.353 60.3526 266.582 60.3526 267.001V270.749C60.366 270.843 60.3575 270.939 60.3277 271.029C60.2979 271.12 60.2475 271.202 60.1807 271.269C60.1138 271.337 60.0322 271.388 59.9424 271.418C59.8525 271.449 59.7567 271.458 59.6627 271.445H39.8837C39.4655 271.445 39.2373 271.217 39.2373 270.749V239.066C39.2373 238.604 39.4655 238.376 39.8837 238.376H59.0162C59.1102 238.362 59.206 238.371 59.2961 238.401C59.3863 238.43 59.4682 238.481 59.5356 238.548C59.603 238.615 59.654 238.696 59.6845 238.786C59.715 238.876 59.7243 238.972 59.7116 239.066V242.815C59.7116 243.228 59.4834 243.462 59.0162 243.462H44.8271V252.122H57.8103C57.9048 252.109 58.0011 252.117 58.0917 252.148C58.1823 252.178 58.2646 252.229 58.3321 252.296C58.3996 252.364 58.4505 252.446 58.4806 252.537C58.5107 252.628 58.5193 252.724 58.5056 252.819V256.518C58.5193 256.613 58.5107 256.709 58.4806 256.8C58.4505 256.89 58.3996 256.973 58.3321 257.041C58.2646 257.108 58.1823 257.159 58.0917 257.189C58.0011 257.219 57.9048 257.228 57.8103 257.214H44.8271V266.353Z" fill="black"/>
<path d="M87.3456 272C85.7064 272.197 84.044 272.035 82.4734 271.525C80.9027 271.015 79.4613 270.171 78.2485 269.049C77.0358 267.927 76.0807 266.555 75.4491 265.027C74.8176 263.499 74.5247 261.853 74.5907 260.201V249.647C74.5285 248.002 74.8204 246.363 75.4464 244.841C76.0725 243.319 77.0181 241.95 78.2191 240.826C79.4202 239.702 80.8485 238.85 82.4073 238.328C83.966 237.806 85.6187 237.625 87.2533 237.799C90.7854 237.812 94.2312 238.893 97.14 240.9C97.2148 240.947 97.2786 241.01 97.3271 241.084C97.3755 241.158 97.4075 241.242 97.4209 241.33C97.4343 241.417 97.4288 241.507 97.4047 241.592C97.3806 241.678 97.3385 241.757 97.2813 241.824L95.1084 244.969C94.8802 245.388 94.5651 245.388 94.136 245.154C92.1015 243.785 89.704 243.06 87.2533 243.07C86.3368 242.953 85.4058 243.04 84.5268 243.325C83.6477 243.61 82.8422 244.085 82.1678 244.717C81.4933 245.35 80.9665 246.123 80.6248 246.983C80.2832 247.843 80.1352 248.767 80.1913 249.691V260.054C80.132 260.985 80.2794 261.917 80.6228 262.785C80.9663 263.652 81.4973 264.432 82.1777 265.069C82.8581 265.706 83.671 266.185 84.558 266.47C85.445 266.755 86.384 266.839 87.3076 266.718C90.0478 266.708 92.7199 265.862 94.9671 264.292C95.0301 264.22 95.1108 264.166 95.2013 264.135C95.2917 264.104 95.3886 264.098 95.4823 264.117C95.5759 264.135 95.663 264.179 95.7347 264.242C95.8064 264.305 95.8602 264.386 95.8906 264.477L98.0635 267.621C98.1243 267.69 98.1703 267.77 98.1987 267.857C98.2271 267.944 98.2372 268.037 98.2286 268.128C98.2199 268.219 98.1926 268.308 98.1483 268.388C98.104 268.468 98.0437 268.539 97.9712 268.595C94.8971 270.864 91.1643 272.06 87.3456 272Z" fill="black"/>
<path d="M130.288 239.066C130.288 238.604 130.516 238.375 130.934 238.375H135.188C135.606 238.375 135.834 238.604 135.834 239.066V270.765C135.834 271.228 135.606 271.461 135.188 271.461H130.934C130.516 271.461 130.288 271.233 130.288 270.765V257.301H117.25V270.765C117.25 271.228 117.022 271.461 116.604 271.461H112.35C111.932 271.461 111.704 271.233 111.704 270.765V239.066C111.704 238.604 111.932 238.375 112.35 238.375H116.604C117.022 238.375 117.25 238.604 117.25 239.066V252.122H130.288V239.066Z" fill="black"/>
<path d="M152.587 271.44C152.175 271.44 151.941 271.211 151.941 270.744V239.066C151.941 238.604 152.169 238.376 152.587 238.376H157.254C157.42 238.375 157.584 238.417 157.73 238.498C157.875 238.579 157.997 238.696 158.085 238.838L167.097 254.57C168.667 257.35 170.422 260.446 171.72 262.948L171.861 262.904C171.584 258.971 171.448 254.249 171.448 250.365V239.066C171.436 238.972 171.445 238.876 171.475 238.786C171.506 238.696 171.557 238.615 171.624 238.548C171.692 238.481 171.774 238.43 171.864 238.401C171.954 238.371 172.05 238.362 172.144 238.376H176.299C176.393 238.362 176.489 238.371 176.579 238.401C176.669 238.43 176.751 238.481 176.819 238.548C176.886 238.615 176.937 238.696 176.968 238.786C176.998 238.876 177.007 238.972 176.995 239.066V270.765C177.008 270.86 177 270.956 176.97 271.047C176.939 271.138 176.889 271.22 176.821 271.288C176.754 271.356 176.671 271.406 176.581 271.437C176.49 271.467 176.394 271.475 176.299 271.462H171.633C171.472 271.467 171.312 271.426 171.173 271.344C171.033 271.262 170.92 271.143 170.845 270.999L162.105 256.474C160.394 253.695 158.454 250.088 157.161 247.357L157.02 247.401C157.248 251.383 157.433 256.197 157.433 260.125V270.722C157.433 271.184 157.205 271.418 156.787 271.418H152.582L152.587 271.44Z" fill="black"/>
<path d="M204.373 272C202.636 272.179 200.881 271.97 199.234 271.388C197.587 270.807 196.09 269.867 194.848 268.637C193.607 267.407 192.653 265.917 192.055 264.274C191.457 262.631 191.23 260.876 191.39 259.135V250.621C191.46 247.218 192.858 243.978 195.286 241.596C197.714 239.214 200.977 237.88 204.376 237.88C207.775 237.88 211.038 239.214 213.466 241.596C215.894 243.978 217.292 247.218 217.362 250.621V259.135C217.522 260.876 217.295 262.632 216.696 264.276C216.098 265.919 215.144 267.409 213.902 268.639C212.66 269.87 211.162 270.809 209.514 271.39C207.867 271.971 206.111 272.179 204.373 272ZM204.373 266.723C205.386 266.835 206.411 266.712 207.368 266.364C208.326 266.016 209.191 265.452 209.897 264.716C210.602 263.98 211.13 263.091 211.438 262.119C211.746 261.146 211.827 260.116 211.674 259.107V250.692C211.712 249.708 211.551 248.726 211.202 247.806C210.852 246.886 210.32 246.046 209.638 245.336C208.957 244.627 208.139 244.063 207.234 243.677C206.33 243.291 205.357 243.093 204.373 243.093C203.39 243.093 202.417 243.291 201.512 243.677C200.608 244.063 199.79 244.627 199.108 245.336C198.427 246.046 197.895 246.886 197.545 247.806C197.195 248.726 197.034 249.708 197.072 250.692V259.162C196.929 260.166 197.017 261.191 197.329 262.156C197.641 263.121 198.17 264.003 198.874 264.732C199.579 265.462 200.441 266.021 201.394 266.366C202.347 266.711 203.366 266.833 204.373 266.723Z" fill="black"/>
<path d="M232.79 271.44C232.371 271.44 232.143 271.211 232.143 270.743V239.066C232.143 238.604 232.371 238.375 232.79 238.375H237.086C237.505 238.375 237.733 238.604 237.733 239.066V266.321H251.314C251.775 266.321 252.009 266.549 252.009 266.968V270.776C252.023 270.871 252.014 270.967 251.984 271.058C251.954 271.149 251.903 271.231 251.835 271.299C251.768 271.366 251.686 271.417 251.595 271.447C251.504 271.478 251.408 271.486 251.314 271.472L232.79 271.44Z" fill="black"/>
<path d="M275.721 272C273.984 272.179 272.229 271.97 270.582 271.388C268.935 270.807 267.437 269.867 266.196 268.637C264.955 267.407 264.001 265.917 263.403 264.274C262.805 262.631 262.578 260.876 262.738 259.135V250.621C262.807 247.218 264.206 243.978 266.634 241.596C269.061 239.214 272.325 237.88 275.724 237.88C279.122 237.88 282.386 239.214 284.813 241.596C287.241 243.978 288.64 247.218 288.709 250.621V259.135C288.869 260.876 288.642 262.632 288.044 264.276C287.446 265.919 286.491 267.409 285.25 268.639C284.008 269.87 282.509 270.809 280.862 271.39C279.214 271.971 277.458 272.179 275.721 272ZM275.721 266.723C276.734 266.835 277.758 266.712 278.716 266.364C279.674 266.016 280.539 265.452 281.244 264.716C281.95 263.98 282.477 263.091 282.785 262.119C283.094 261.146 283.174 260.116 283.022 259.107V250.692C283.06 249.708 282.899 248.726 282.549 247.806C282.199 246.886 281.668 246.046 280.986 245.336C280.304 244.627 279.486 244.063 278.582 243.677C277.677 243.291 276.704 243.093 275.721 243.093C274.738 243.093 273.765 243.291 272.86 243.677C271.955 244.063 271.137 244.627 270.456 245.336C269.774 246.046 269.242 246.886 268.893 247.806C268.543 248.726 268.382 249.708 268.42 250.692V259.162C268.276 260.166 268.364 261.191 268.677 262.156C268.989 263.121 269.518 264.003 270.222 264.732C270.926 265.462 271.788 266.021 272.741 266.366C273.694 266.711 274.713 266.833 275.721 266.723Z" fill="black"/>
<path d="M315.529 272C313.882 272.178 312.217 272.001 310.644 271.484C309.071 270.966 307.626 270.118 306.407 268.996C305.187 267.875 304.219 266.506 303.57 264.981C302.92 263.456 302.602 261.81 302.638 260.152V249.604C302.576 247.969 302.865 246.34 303.485 244.827C304.106 243.314 305.044 241.952 306.236 240.833C307.428 239.714 308.846 238.865 310.393 238.342C311.941 237.82 313.583 237.636 315.208 237.804C319.118 237.809 322.953 238.881 326.301 240.905C326.387 240.946 326.463 241.006 326.523 241.08C326.583 241.154 326.626 241.241 326.648 241.334C326.67 241.427 326.67 241.524 326.65 241.617C326.629 241.711 326.588 241.798 326.529 241.873L324.22 245.067C323.992 245.437 323.677 245.437 323.297 245.252C320.831 243.792 318.012 243.039 315.148 243.076C314.237 242.972 313.314 243.07 312.444 243.364C311.575 243.658 310.781 244.141 310.119 244.777C309.458 245.413 308.944 246.188 308.615 247.046C308.286 247.903 308.15 248.823 308.217 249.74V260.103C308.189 261.04 308.364 261.973 308.731 262.836C309.097 263.699 309.647 264.471 310.341 265.101C311.035 265.731 311.858 266.202 312.752 266.482C313.645 266.762 314.589 266.844 315.518 266.723C317.826 266.781 320.092 266.1 321.988 264.781V257.764H315.795C315.377 257.764 315.148 257.535 315.148 257.067V253.412C315.148 252.949 315.377 252.721 315.795 252.721H326.795C327.214 252.721 327.442 252.949 327.442 253.412V266.413C327.442 266.783 327.393 267.017 327.214 267.153C325.706 268.726 323.889 269.968 321.878 270.802C319.867 271.637 317.705 272.044 315.529 272Z" fill="black"/>
<path d="M348.981 270.743C348.981 271.206 348.752 271.44 348.334 271.44H344.081C343.662 271.44 343.434 271.211 343.434 270.743V239.066C343.434 238.604 343.662 238.375 344.081 238.375H348.334C348.752 238.375 348.981 238.604 348.981 239.066V270.743Z" fill="black"/>
<path d="M372.725 266.353H387.555C388.017 266.353 388.251 266.582 388.251 267.001V270.749C388.264 270.844 388.256 270.94 388.226 271.031C388.195 271.122 388.145 271.204 388.077 271.272C388.01 271.339 387.927 271.39 387.837 271.42C387.746 271.45 387.65 271.459 387.555 271.445H367.782C367.363 271.445 367.135 271.217 367.135 270.749V239.066C367.135 238.604 367.363 238.376 367.782 238.376H386.914C387.008 238.362 387.104 238.371 387.194 238.401C387.284 238.43 387.366 238.481 387.434 238.548C387.501 238.615 387.552 238.696 387.582 238.786C387.613 238.876 387.622 238.972 387.61 239.066V242.815C387.61 243.228 387.381 243.462 386.914 243.462H372.725V252.122H385.708C385.802 252.11 385.898 252.119 385.988 252.15C386.078 252.18 386.159 252.231 386.226 252.299C386.293 252.366 386.343 252.448 386.373 252.538C386.403 252.629 386.412 252.725 386.398 252.819V256.518C386.412 256.612 386.403 256.708 386.373 256.798C386.343 256.889 386.293 256.971 386.226 257.038C386.159 257.106 386.078 257.157 385.988 257.187C385.898 257.218 385.802 257.227 385.708 257.214H372.725V266.353Z" fill="black"/>
<path d="M412.337 272C407.999 272.011 403.808 270.43 400.555 267.556C400.48 267.502 400.417 267.435 400.369 267.356C400.321 267.278 400.289 267.19 400.276 267.099C400.263 267.008 400.268 266.915 400.292 266.826C400.315 266.738 400.357 266.654 400.413 266.582L402.722 263.318C402.77 263.243 402.832 263.179 402.906 263.131C402.981 263.082 403.064 263.05 403.152 263.037C403.239 263.023 403.329 263.029 403.414 263.053C403.499 263.077 403.578 263.119 403.646 263.177C406.182 265.249 409.299 266.48 412.565 266.696C415.939 266.696 419.269 265.26 419.269 262.116C419.269 258.786 415.803 257.949 411.783 257.116C406.932 256.099 400.555 253.852 400.555 246.982C400.555 240.546 406.237 237.772 412.891 237.772C416.813 237.777 420.627 239.06 423.756 241.427C423.836 241.469 423.906 241.528 423.961 241.601C424.015 241.673 424.053 241.757 424.07 241.845C424.088 241.934 424.086 242.026 424.063 242.114C424.041 242.201 423.999 242.283 423.941 242.352L421.724 245.545C421.496 245.915 421.127 245.915 420.757 245.687C418.301 244.042 415.437 243.113 412.484 243.005C408.508 243.005 406.199 244.577 406.199 247.08C406.199 250.039 409.154 250.828 413.223 251.753C418.655 252.955 425.005 254.712 425.005 262.029C425 268.986 419.1 272 412.337 272Z" fill="black"/>
<path d="M227.716 116.459C227.716 116.459 227.716 156.906 227.716 174.123C227.694 176.74 227.138 179.325 226.082 181.718C225.026 184.112 223.493 186.264 221.577 188.043C219.661 189.822 217.401 191.19 214.938 192.063C212.475 192.936 209.859 193.296 207.252 193.12C203.444 193.095 199.684 192.27 196.214 190.699L187.979 201.302C193.891 204.538 200.514 206.251 207.252 206.285C211.592 206.483 215.928 205.797 219.996 204.27C224.064 202.743 227.781 200.406 230.922 197.4C234.062 194.394 236.562 190.781 238.27 186.781C239.977 182.78 240.857 178.474 240.856 174.123C240.856 159.207 240.856 124.075 240.856 124.075L227.716 116.459Z" fill="black"/>
<path d="M390.815 120.681H376.957L343.217 205.11H356.379L364.376 185.096H403.184L411.18 205.11H424.37L390.815 120.681ZM398.42 173.161H369.129L383.796 135.967L398.42 173.161Z" fill="black"/>
<path d="M333.222 195.775C321.944 208.357 292.61 211.425 275.791 195.611C267.238 187.075 262.365 175.523 262.215 163.431C262.066 151.339 266.653 139.67 274.993 130.924C291.724 114.479 320.928 117.014 333.461 130.233L324.427 139.182C306.337 124.706 278.442 132.681 275.808 159.033C274.798 165.003 275.612 171.14 278.144 176.639C280.675 182.138 284.807 186.743 289.997 189.85C295.414 192.797 301.585 194.06 307.722 193.479C313.859 192.897 319.684 190.498 324.454 186.586L333.222 195.775Z" fill="black"/>
</g>
<defs>
<clipPath id="clip0_2207_26039">
<rect width="425" height="272" fill="white"/>
</clipPath>
</defs>
</svg>
