<svg width="641" height="144" viewBox="0 0 641 144" fill="none" xmlns="http://www.w3.org/2000/svg">
<path d="M242.728 0C251.232 0 259.736 0 268.498 0C268.498 15.941 268.498 31.882 268.498 48.3061C271.241 46.9318 273.984 45.5576 276.81 44.1417C287.558 40.0201 302.849 40.8298 313.371 45.3475C317.556 47.3181 321.422 49.5686 325.023 52.4704C325.981 53.2289 325.981 53.2289 326.959 54.0027C335.807 61.4147 342.301 72.4633 343.938 83.9955C345.23 100.563 342.423 113.425 331.492 126.611C323.038 136.029 311.659 141.303 299.254 143.252C295.414 143.252 291.573 143.252 287.617 143.252C287.617 134.732 287.617 126.212 287.617 117.434C291.457 117.159 295.297 116.884 299.254 116.601C303.458 115.06 306.588 113.554 310.061 110.771C310.609 110.771 311.158 110.771 311.723 110.771C312.067 110.056 312.067 110.056 312.418 109.326C313.386 107.439 313.386 107.439 314.457 105.761C318.288 99.3414 318.435 93.0069 317.542 85.7849C315.562 78.7884 311.028 74.0336 304.781 70.5298C297.709 67.3019 290.659 67.301 283.412 70.0158C281.213 71.0749 279.466 72.5182 277.641 74.1248C277.093 74.1248 276.544 74.1248 275.979 74.1248C275.756 74.6058 275.533 75.0868 275.303 75.5823C274.316 77.4563 274.316 77.4563 273.121 78.9138C268.27 85.914 269.005 92.6754 270.16 100.776C261.382 100.776 252.604 100.776 243.56 100.776C242.542 98.7374 242.626 97.4275 242.628 95.1478C242.627 94.3115 242.626 93.4753 242.625 92.6138C242.628 91.693 242.631 90.7722 242.634 89.8235C242.634 88.8566 242.634 87.8897 242.634 86.8935C242.634 83.6848 242.641 80.4762 242.647 77.2676C242.649 75.0479 242.65 72.8282 242.651 70.6084C242.653 65.3551 242.66 60.1019 242.669 54.8486C242.678 48.8685 242.682 42.8885 242.687 36.9085C242.695 24.6057 242.711 12.3028 242.728 0Z" fill="#04B19C"/>
<path d="M590.247 42.2154C591.716 42.1792 591.716 42.1792 593.214 42.1422C606.584 42.0459 617.915 48.1956 627.554 57.3208C633.949 64.0934 637.448 71.1013 640.071 79.9545C640.222 80.4356 640.373 80.9166 640.528 81.4122C641.048 84.0167 641.001 86.5131 640.997 89.1689C640.997 89.7543 640.997 90.3396 640.997 90.9427C640.997 92.8715 640.99 94.8002 640.984 96.7289C640.982 98.0686 640.981 99.4083 640.98 100.748C640.977 104.27 640.969 107.791 640.96 111.313C640.951 114.908 640.947 118.503 640.943 122.099C640.934 129.15 640.92 136.201 640.902 143.252C632.399 143.252 623.895 143.252 615.133 143.252C615.133 141.328 615.133 139.404 615.133 137.422C614.649 137.634 614.165 137.845 613.666 138.063C603.548 142.319 595.767 143.252 584.377 143.252C584.377 134.732 584.377 126.212 584.377 117.433C589.726 117.021 589.726 117.021 595.183 116.601C603.238 113.91 608.688 110.978 612.64 103.275C615.647 97.0587 615.305 88.5636 613.107 82.0888C610.313 76.1849 605.339 72.2403 599.495 69.5438C593.454 67.4383 587.158 67.2157 581.207 69.6999C574.471 73.1848 570.052 76.8385 567.128 84.0668C565.591 89.5808 565.591 89.5808 566.089 100.776C557.585 100.776 549.081 100.776 540.32 100.776C540.32 82.7622 541.195 70.0572 553.981 56.8574C564.532 46.502 575.711 42.3323 590.247 42.2154Z" fill="#03B09B"/>
<path d="M408.773 41.435C409.361 41.4413 409.949 41.4475 410.555 41.4539C424.545 41.7405 437.163 47.5751 447.375 57.1033C456.814 67.042 461.904 79.6906 461.687 93.4227C461.468 98.6216 460.514 103.356 458.856 108.272C458.574 109.112 458.291 109.951 457.999 110.816C455.673 117.006 452.474 121.718 448.05 126.595C447.222 127.512 447.222 127.512 446.378 128.446C440.932 134.181 435.357 137.323 428.048 140.129C427.209 140.452 427.209 140.452 426.353 140.782C418.727 143.583 412.415 143.253 403.993 143.253C403.993 134.732 403.993 126.212 403.993 117.434C407.834 117.159 411.674 116.884 415.631 116.601C424.648 113.657 428.677 109.967 433.087 101.609C435.599 96.1197 435.48 90.1089 433.763 84.3795C430.643 76.2353 425.526 72.6392 417.745 69.0074C411.643 66.9509 405.027 67.8782 399.269 70.5267C393.555 73.7899 388.326 78.4448 386.537 84.9521C386.066 90.2398 386.351 95.4701 386.537 100.777C377.759 100.777 368.98 100.777 359.936 100.777C359.936 83.082 361.419 69.6189 373.779 56.662C380.7 49.8342 388.081 45.9345 397.343 43.309C398.13 43.0105 398.916 42.712 399.726 42.4045C402.781 41.5116 405.621 41.3909 408.773 41.435Z" fill="#03B09C"/>
<path d="M99.4968 0.738281C100.864 0.738414 102.232 0.743158 103.599 0.751498C104.677 0.753266 104.677 0.753266 105.776 0.755069C108.08 0.759747 110.384 0.770203 112.688 0.780778C114.246 0.784953 115.804 0.788754 117.362 0.792165C121.19 0.801369 125.018 0.815757 128.846 0.832832C127.349 4.04884 125.287 6.39598 122.871 8.95325C122.035 9.85286 121.199 10.753 120.364 11.6535C119.961 12.087 119.557 12.5205 119.142 12.9671C115.966 16.3997 112.945 19.97 109.912 23.5283C109.053 24.5347 108.195 25.5411 107.337 26.5475C106.909 27.049 106.482 27.5505 106.042 28.0672C102.806 31.8546 99.4979 35.5643 96.131 39.2356C94.7159 40.7333 94.7159 40.7333 93.9327 42.476C93.384 42.476 92.8354 42.476 92.2701 42.476C92.0826 42.9301 91.8951 43.3843 91.7019 43.8522C90.2822 46.3888 88.3877 48.3503 86.3994 50.4402C82.6793 54.4223 79.1839 58.5271 75.7683 62.777C73.0577 66.0953 70.2056 69.2821 67.3323 72.4591C68.5792 75.3306 70.2451 77.3093 72.3718 79.5904C75.0722 82.5381 77.6605 85.5313 80.1649 88.6478C83.3771 92.6274 86.7684 96.3974 90.2277 100.162C92.1818 102.344 94.0262 104.579 95.855 106.867C98.8104 110.541 101.929 114.001 105.155 117.434C109.025 121.552 112.677 125.77 116.201 130.193C118.929 133.506 121.857 136.618 124.796 139.742C126.352 141.587 126.352 141.587 126.352 143.252C121.842 143.418 117.333 143.538 112.821 143.618C111.288 143.652 109.755 143.697 108.223 143.755C95.4943 144.223 95.4943 144.223 91.7262 141.881C90.2541 140.191 89.1868 138.552 88.1138 136.59C86.9048 135.251 85.693 133.914 84.4771 132.581C81.8916 129.715 79.4149 126.792 76.9957 123.784C73.935 119.991 70.7164 116.403 67.4023 112.835C64.9326 110.161 62.5945 107.418 60.3185 104.576C57.1271 100.601 53.7335 96.8763 50.2539 93.157C46.8991 89.5499 43.7827 85.7891 40.7189 81.9296C39.2535 80.1752 37.7483 78.6721 36.0561 77.1439C34.0818 74.9576 34.0818 74.9576 34.0364 73.1097C35.3495 69.6404 37.7393 67.4678 40.3163 64.8592C41.3889 63.7432 42.4594 62.6251 43.5277 61.505C44.3099 60.6855 44.3099 60.6855 45.1078 59.8494C47.6259 57.1462 49.8963 54.2549 52.1975 51.3674C54.2481 48.8766 56.4092 46.504 58.604 44.1417C61.4733 41.053 64.2277 37.9077 66.8647 34.6158C70.4913 30.1016 74.3829 25.8806 78.3238 21.6446C83.2579 16.3409 87.9059 10.7927 92.5675 5.24928C96.2791 0.83737 96.2791 0.83737 99.4968 0.738281Z" fill="#03B09B"/>
<path d="M480.469 0C488.973 0 497.477 0 506.238 0C506.238 13.4674 506.238 26.9348 506.238 40.8103C515.016 40.8103 523.795 40.8103 532.839 40.8103C532.839 49.0556 532.839 57.301 532.839 65.7962C524.061 65.7962 515.282 65.7962 506.238 65.7962C506.238 91.3567 506.238 116.917 506.238 143.252C497.735 143.252 489.231 143.252 480.469 143.252C480.469 95.9791 480.469 48.7058 480.469 0Z" fill="#03B19C"/>
<path d="M195.347 43.3091C203.85 43.3091 212.354 43.3091 221.116 43.3091C221.216 56.6266 221.216 56.6266 221.237 62.3608C221.252 66.2536 221.27 70.1462 221.304 74.0388C221.331 77.1818 221.346 80.3246 221.352 83.4676C221.357 84.6589 221.366 85.8501 221.379 87.0413C221.561 103.626 216.56 115.994 205.322 128.261C204.831 128.799 204.34 129.337 203.834 129.891C193.228 140.261 178.763 143.253 164.59 143.253C164.59 134.732 164.59 126.212 164.59 117.434C169.116 117.022 169.116 117.022 173.734 116.601C182.447 114.247 187.535 109.322 192.021 101.609C194.956 95.4715 194.908 89.7303 194.941 83.0002C194.955 81.852 194.97 80.7038 194.986 79.5556C195.025 76.5544 195.05 73.5533 195.072 70.5519C195.097 67.4809 195.135 64.4101 195.173 61.3393C195.245 55.3292 195.295 49.3195 195.347 43.3091Z" fill="#03B09B"/>
<path d="M0 0C8.5038 0 17.0076 0 25.7691 0C25.7691 34.0808 25.7691 68.1615 25.7691 103.275C17.2653 103.275 8.7615 103.275 0 103.275C0 69.1943 0 35.1135 0 0Z" fill="#04B19C"/>
<path d="M119.702 43.3091C128.205 43.3091 136.709 43.3091 145.471 43.3091C145.745 62.2734 146.019 81.2377 146.302 100.777C137.798 100.777 129.294 100.777 120.533 100.777C119.603 97.9828 119.602 95.8926 119.607 92.9484C119.607 92.4119 119.607 91.8754 119.607 91.3226C119.607 89.5516 119.614 87.7806 119.62 86.0096C119.622 84.7807 119.623 83.5519 119.624 82.323C119.627 79.0903 119.635 75.8577 119.644 72.625C119.654 68.7454 119.658 64.8658 119.663 60.9862C119.671 55.0938 119.687 49.2015 119.702 43.3091Z" fill="#04B19C"/>
</svg>
