<svg width="488" height="180" viewBox="0 0 488 180" fill="none" xmlns="http://www.w3.org/2000/svg">
<g clip-path="url(#clip0_1992_11117)">
<path d="M0.0600586 84.3896V180C46.6672 180 84.4497 142.218 84.4497 95.6104V0C37.8425 0 0.0600586 37.7825 0.0600586 84.3896Z" fill="black"/>
<path d="M95.6704 0V95.6104C95.6704 142.218 133.453 180 180.06 180V84.3896C180.06 37.7825 142.278 0 95.6704 0Z" fill="black"/>
<path d="M208.229 180C200.865 180 197.359 176.698 197.213 172.081H203.057C203.407 174.098 204.752 175.237 208.258 175.237C210.771 175.237 212.466 174.653 212.466 173.133C212.466 171.351 210.391 170.854 208.054 170.27L204.576 169.598C200.661 168.692 197.972 166.617 197.972 162.964C197.972 158.435 201.946 155.864 207.878 155.864C214.19 155.864 217.58 158.815 217.813 162.994H211.94C211.648 161.445 210.391 160.627 207.849 160.627C205.307 160.627 203.875 161.357 203.875 162.672C203.875 164.046 205.336 164.63 207.732 165.156L211.093 165.77C214.92 166.529 218.398 168.516 218.398 173.075C218.368 177.955 213.343 180 208.229 180Z" fill="black"/>
<path d="M283.443 163.987C283.443 168.662 280.375 171.789 274.969 171.789H267.401V179.649H261.937V156.214H275.027C280.287 156.214 283.443 159.341 283.443 163.987ZM277.628 163.987C277.628 162.38 276.635 161.094 274.501 161.094H267.372V166.88H274.443C276.664 166.909 277.628 165.653 277.628 163.987Z" fill="black"/>
<path d="M346.151 174.682H335.193L333.06 179.679H326.982L335.953 159.312C336.771 157.442 338.641 156.244 340.686 156.244C342.732 156.244 344.573 157.442 345.42 159.341L354.362 179.708H348.342L346.151 174.682ZM344.164 170.094L340.803 162.263H340.453L337.092 170.094H344.164Z" fill="black"/>
<path d="M411.343 180C402.664 180 397.872 174.916 397.872 168.02C397.872 161.124 403.19 155.893 411.343 155.893C417.8 155.893 422.856 158.757 423.674 164.396H417.45C416.69 162.351 414.586 161.094 411.343 161.094C406.609 161.094 403.628 163.87 403.628 168.02C403.628 172.403 406.989 174.828 411.343 174.828C414.849 174.828 417.128 173.513 417.8 171.614H424.024C423.323 177.107 418.151 180 411.343 180Z" fill="black"/>
<path d="M487.141 174.77V179.649H467.592V156.214H486.82V161.094H473.086V165.36H484.803V170.182H473.086V174.77H487.141Z" fill="black"/>
<path d="M354.829 55.5488H313.511V139.851H354.829C380.135 139.851 396.732 123.838 396.732 97.4514C396.732 71.0651 380.135 55.5488 354.829 55.5488ZM354.245 124.451H330.751V70.9774H354.245C370.638 70.9774 379.17 81.0878 379.17 97.2177C379.17 113.348 370.959 124.451 354.245 124.451Z" fill="black"/>
<path d="M425.836 65.0164L393.343 139.88H411.635L419.934 120.244H460.521L468.82 139.88H487.141L454.648 65.0164C449.184 52.4223 431.33 52.4223 425.836 65.0164ZM425.982 106.13L439.716 73.9872H440.797L454.531 106.13H425.982Z" fill="black"/>
<path d="M289.872 55.5488C285.079 55.5488 280.667 58.1495 278.329 62.3573L250.131 113.377L221.904 62.3573C219.596 58.1495 215.154 55.5488 210.362 55.5488C203.086 55.5488 197.183 61.4514 197.183 68.7274V139.851H213.956V83.5716H214.95L237.333 122.786C243.002 132.692 257.261 132.692 262.93 122.786L285.342 83.5716H286.336V139.88H303.079V68.7274C303.079 61.4514 297.177 55.5488 289.872 55.5488Z" fill="black"/>
</g>
<defs>
<clipPath id="clip0_1992_11117">
<rect width="487.081" height="180" fill="white" transform="translate(0.0600586)"/>
</clipPath>
</defs>
</svg>
