<svg xmlns="http://www.w3.org/2000/svg" width="58" height="16" fill="none" viewBox="0 0 58 16"><path fill="currentColor" d="M18.906 14.033h-5.012V8.137l5.012-6.214zm-6.302-6.345-5.012 6.214V8.137l5.012-6.214zm-6.302 0L1.29 13.902V1.78H6.3zM19.517.5h-.79a.68.68 0 0 0-.53.253l-4.303 5.335V1.174A.676.676 0 0 0 13.215.5h-.79a.68.68 0 0 0-.53.253L7.592 6.088V1.174A.676.676 0 0 0 6.913.5H.68A.676.676 0 0 0 0 1.174V14.63c0 .372.304.673.68.673h.806a.68.68 0 0 0 .53-.252l4.286-5.314v4.893c0 .372.304.673.68.673h.806a.68.68 0 0 0 .53-.252l4.286-5.314v4.903c0 .372.304.673.68.673h6.233c.375 0 .68-.301.68-.673V1.174a.676.676 0 0 0-.68-.674m36.997 10.578q0 .924-.377 1.612-.375.688-1.099 1.06-.722.374-1.694.374-.95 0-1.466-.462-.515-.46-.515-1.208 0-.786.604-1.278.605-.49 1.872-.491h2.675zm1.02-4.068a3.1 3.1 0 0 0-1.337-1.287q-.873-.443-2.06-.443-1.19 0-2.07.423-.881.423-1.358 1.12a3 3 0 0 0-.535 1.504h1.486q.079-.707.743-1.19.663-.48 1.733-.48 1.11 0 1.744.628.634.63.634 1.73v.294h-2.675q-1.346 0-2.228.393-.882.394-1.308 1.091-.426.698-.426 1.66 0 .886.436 1.573.435.688 1.219 1.08.781.394 1.812.394 1.09 0 1.912-.423.822-.422 1.16-.953h.098l.198 1.18H58v-6.29q0-1.158-.465-2.004M47.467 5.477h1.684v1.376h-1.486q-1.03 0-1.605.56-.574.56-.574 1.601v6.29h-1.486V5.476h1.288l.198.983h.099q.337-.511.733-.747t1.149-.236m-7.776 6.859q-.435.845-1.16 1.317a2.83 2.83 0 0 1-1.574.471 2.83 2.83 0 0 1-1.575-.471q-.724-.473-1.16-1.317-.435-.845-.435-1.946t.436-1.945q.435-.846 1.159-1.317a2.83 2.83 0 0 1 1.575-.472q.852 0 1.575.472.723.471 1.159 1.317.435.845.436 1.945 0 1.101-.436 1.946m.436-5.483h-.1q-.613-.767-1.386-1.17t-1.783-.403a4.3 4.3 0 0 0-2.328.649q-1.04.648-1.635 1.808-.594 1.16-.594 2.653t.594 2.653 1.635 1.808a4.3 4.3 0 0 0 2.328.649q1.01 0 1.783-.403a4.4 4.4 0 0 0 1.387-1.17h.099l.198 1.376h1.288V1.78h-1.486zm-16.884 2.85q.099-.885.535-1.573.435-.688 1.15-1.08a3.23 3.23 0 0 1 1.584-.394 2.99 2.99 0 0 1 2.615 1.484q.417.698.456 1.562zM28.83 5.89a4.54 4.54 0 0 0-2.318-.61q-1.327 0-2.417.649a4.6 4.6 0 0 0-1.713 1.808q-.625 1.16-.625 2.653t.625 2.653a4.6 4.6 0 0 0 1.713 1.808 4.64 4.64 0 0 0 2.417.649q1.03 0 1.863-.344a4 4 0 0 0 1.436-1.002q.604-.66.96-1.602h-1.584a2.75 2.75 0 0 1-1.08 1.16q-.703.412-1.595.412-.832 0-1.545-.373a3.1 3.1 0 0 1-1.169-1.071 3.6 3.6 0 0 1-.555-1.602h7.727a1.7 1.7 0 0 0 .07-.393q.03-.295.029-.688 0-1.356-.594-2.427a4.34 4.34 0 0 0-1.645-1.68"/></svg>