<svg xmlns="http://www.w3.org/2000/svg" width="147" height="37" fill="none"><path fill="#023246" d="M18.175 0C8.137 0 0 8.137 0 18.175c0 .707.024 1.413.122 2.12L27.312 2.46A18.175 18.175 0 0 0 18.174 0Zm17.347 13.449c-1.048-4.264-2.388-10.062.828-12.84 0 0-2.631-1.803-6.797.828-.804.512-1.56 1.121-2.242 1.828L3.484 28.895l24.12-9.94S16.324 36.277 16.494 36.3c9.94.804 18.662-6.7 19.442-16.737.195-2.095.073-4.19-.414-6.115Zm30.82 5.676c-.366.341-.975.073-.975-.414v-6.773h-2.534l-13.4 12.498h2.023L59.3 17.25c.366-.34.975-.073.975.415v6.772h2.51l7.844-7.187c.366-.34.975-.073.975.415v6.772h5.092V11.938h-2.51l-7.845 7.187Zm74.722-7.211v6.773c0 .511-.609.755-.975.414l-7.845-7.187h-2.509v12.498h5.092V17.64c0-.511.609-.755.975-.414l7.845 7.187h2.509V11.914h-5.092ZM77.817 24.412H91.29v-1.486h-7.797a.593.593 0 0 1-.584-.585v-2.875c0-.316.268-.584.584-.584h7.797v-1.438h-7.797a.593.593 0 0 1-.584-.584v-2.875c0-.317.268-.585.584-.585h7.797v-1.486H77.817v12.498Zm36.204-2.046V11.938h-5.092v12.498h13.448V22.95h-7.796c-.292 0-.56-.268-.56-.584Zm14.593-10.452h-5.092v12.498h5.092V11.914Zm-25.191 8.43 2.217-2.29a4.84 4.84 0 0 0 1.145-4.946 1.736 1.736 0 0 0-1.657-1.17H92.41v12.498h5.117v-9.915c0-.61.17-1.121.901-1.121h2.753c.487 0 .902.365.975.828.122 1.048-.22 2.12-1.024 2.948l-.511.536-1.145 1.072 6.139 5.628h2.193l-3.801-3.557-.584-.512Z"/></svg>