<svg width="175" height="32" viewBox="0 0 175 32" fill="none" xmlns="http://www.w3.org/2000/svg">
<path d="M172.188 25.6659V25.18H172.483C172.639 25.18 172.882 25.1974 172.882 25.3883C172.882 25.5965 172.76 25.6486 172.57 25.6486H172.188M172.188 25.9957H172.396L172.882 26.8286H173.403L172.865 25.961C173.125 25.9436 173.368 25.8221 173.368 25.4403C173.368 24.9718 173.055 24.833 172.518 24.833H171.754V26.8286H172.205L172.188 25.9957ZM174.426 25.8395C174.426 24.6594 173.524 23.9826 172.5 23.9826C171.494 23.9826 170.574 24.6594 170.574 25.8395C170.574 27.0195 171.476 27.6963 172.5 27.6963C173.524 27.6963 174.426 27.0195 174.426 25.8395ZM173.871 25.8395C173.871 26.6898 173.246 27.2625 172.5 27.2625C171.737 27.2625 171.129 26.6898 171.129 25.8395C171.129 24.9892 171.754 24.4165 172.5 24.4165C173.246 24.4338 173.871 25.0065 173.871 25.8395ZM103.832 6.0564V27.0716H109.767V6.0564H103.832ZM57.1856 6.02169V27.0542H63.1726V10.7245L67.8407 10.7419C69.3678 10.7419 70.4438 11.1236 71.1726 11.9046C72.1097 12.8937 72.4915 14.5249 72.4915 17.4577V27.0542H78.2876V15.4447C78.2876 7.14967 72.9947 6.02169 67.8407 6.02169H57.1856ZM113.394 6.0564V27.0716H123.008C128.127 27.0716 129.81 26.2213 131.615 24.3124C132.899 22.9761 133.715 20.026 133.715 16.7983C133.715 13.8482 133.021 11.2104 131.789 9.56182C129.619 6.62907 126.444 6.0564 121.706 6.0564H113.394ZM119.277 10.6204H121.828C125.524 10.6204 127.919 12.269 127.919 16.59C127.919 20.8937 125.541 22.5597 121.828 22.5597H119.277V10.6204ZM95.2941 6.0564L90.3483 22.6985L85.6108 6.0564H79.2073L85.9752 27.0716H94.5132L101.333 6.0564H95.2941ZM136.492 27.0542H142.426V6.0564H136.492V27.0542ZM153.116 6.0564L144.839 27.0542H150.687L152.006 23.3579H161.81L163.06 27.0542H169.411L161.047 6.0564H153.116ZM156.969 9.89154L160.561 19.7137H153.255L156.969 9.89154ZM18.921 9.54447V6.66377C19.1987 6.64642 19.4937 6.62907 19.7713 6.62907C27.6846 6.38612 32.8559 13.4143 32.8559 13.4143C32.8559 13.4143 27.2681 21.1887 21.2637 21.1887C20.396 21.1887 19.6325 21.0499 18.9383 20.8069V12.0434C22.0099 12.4252 22.6347 13.7787 24.4915 16.8503L28.6043 13.3796C28.6043 13.3796 25.6021 9.44035 20.5349 9.44035C19.9796 9.4577 19.4416 9.49241 18.921 9.54447ZM18.921 0V4.30369C19.1987 4.28633 19.4937 4.26898 19.7713 4.25163C30.7561 3.86985 37.9232 13.2581 37.9232 13.2581C37.9232 13.2581 29.6976 23.2712 21.1423 23.2712C20.3613 23.2712 19.6325 23.2017 18.9383 23.0803V25.7527C19.5284 25.8221 20.1531 25.8742 20.7778 25.8742C28.7605 25.8742 34.5219 21.7961 40.1097 16.9892C41.0295 17.7354 44.8299 19.5401 45.6108 20.321C40.3006 24.7636 27.9275 28.3557 20.9167 28.3557C20.2399 28.3557 19.5978 28.321 18.9557 28.2516V32H49.2724V0L18.921 0ZM18.921 20.8243V23.0976C11.5457 21.7787 9.498 14.1085 9.498 14.1085C9.498 14.1085 13.0381 10.1866 18.921 9.54447V12.0434H18.9036C15.8321 11.6616 13.4026 14.5597 13.4026 14.5597C13.4026 14.5597 14.7735 19.4013 18.921 20.8243ZM5.81904 13.7787C5.81904 13.7787 10.1921 7.34056 18.921 6.66377V4.32104C9.25505 5.10195 0.890625 13.2928 0.890625 13.2928C0.890625 13.2928 5.62815 27.0022 18.921 28.269V25.7701C9.16828 24.538 5.81904 13.7787 5.81904 13.7787Z" fill="#697077"/>
</svg>
