<svg width="888" height="192" viewBox="0 0 888 192" fill="none" xmlns="http://www.w3.org/2000/svg">
<path d="M292.546 96.8989C292.546 131.448 281.357 144.725 252.231 144.725C223.105 144.725 211.916 131.448 211.916 96.8989C211.916 62.35 223.105 49.0923 252.231 49.0923C281.357 49.0923 292.546 62.35 292.546 96.8989ZM252.231 63.2997C235.162 63.2997 229.755 69.3349 229.755 96.8791C229.755 124.423 235.162 130.478 252.231 130.478C269.301 130.478 274.708 124.443 274.708 96.8791C274.708 69.3152 269.301 63.2997 252.231 63.2997Z" fill="#121619"/>
<path d="M324.201 143.519L299.12 76.8945H315.773L333.83 127.491L351.867 76.8945H368.481L343.44 143.519H324.201Z" fill="#121619"/>
<path d="M434.884 124.047C432.634 138.511 421.919 144.705 403.488 144.705C379.967 144.705 370.732 134.633 370.732 110.196C370.732 85.7582 379.967 75.7261 403.488 75.7261C427.011 75.7261 436.247 85.778 436.247 110.196C436.247 111.759 436.205 113.105 436.108 114.51H386.971C387.484 130.102 391.847 133.881 403.488 133.881C412.368 133.881 417.873 131.527 418.742 124.047H434.884ZM419.769 104.259C419.155 90.2499 414.735 86.5298 403.488 86.5298C392.241 86.5298 387.84 90.2499 387.207 104.2L387.168 104.873H419.808L419.769 104.259Z" fill="#121619"/>
<path d="M462.509 87.7574C467.66 76.7357 473.423 75.6475 480.863 75.6475C482.62 75.6475 486.308 76.0036 489.013 76.4586V88.4697C486.644 88.3311 484.138 88.2719 481.415 88.2719C472.397 88.2719 468.292 89.1623 462.509 102.301V143.439H446.192V76.8148H462.509V87.7771V87.7574Z" fill="#121619"/>
<path d="M513.558 47.7666H497.241V143.518H513.558V47.7666Z" fill="#121619"/>
<path d="M527.097 96.6215C527.097 81.781 539.391 75.7261 557.328 75.7261C575.266 75.7261 588.528 82.0184 588.528 97.6308V143.518H573.568L572.857 135.722C568.478 142.429 560.289 145.378 548.981 145.378C533.963 145.378 523.287 139.6 523.287 124.403C523.287 109.206 534.082 102.479 548.271 102.479H572.208V96.6413C572.208 88.944 566.247 86.1737 556.992 86.1737C547.738 86.1737 542.41 88.944 542.41 96.6215H527.097ZM555.316 110.849C546.101 110.849 540.318 113.896 540.318 122.424C540.318 130.953 545.962 133.921 555.907 133.921C564.965 133.921 569.938 131.863 572.227 125.907V110.868H555.336L555.316 110.849Z" fill="#121619"/>
<path d="M617.418 84.8882C622.963 77.4678 630.105 75.6475 639.773 75.6475C660.317 75.6475 666.1 84.5518 666.1 104.419V143.538H649.78V104.419C649.78 91.7743 646.661 87.5595 633.696 87.5595C625.607 87.5595 621.858 88.9247 617.99 97.9083V143.459H601.67V76.9138H616.627L617.418 84.908V84.8882Z" fill="#121619"/>
<path d="M726.029 143.518V135.722C721.569 141.876 713.991 144.726 703.906 144.726C683.918 144.726 676.123 134.654 676.123 110.216C676.123 85.7788 683.937 75.7467 703.906 75.7467C713.971 75.7467 721.569 78.5763 726.029 84.7103V47.6484H742.348V143.538H726.029V143.518ZM726.029 95.9298C723.601 89.4791 718.647 87.1442 710.183 87.1442C697.158 87.1442 692.443 92.6649 692.443 110.315C692.443 127.966 697.138 133.249 710.183 133.249C718.669 133.249 723.62 130.934 726.029 124.463V95.9298Z" fill="#121619"/>
<path d="M840.364 143.517L832.886 123.453H795.412L787.934 143.517H769.402L805.08 50.2393H823.176L858.854 143.517H840.345H840.364ZM828.523 110.195L814.177 71.7088L799.833 110.195H828.543H828.523Z" fill="#121619"/>
<path d="M888 47.6484H868.977V143.538H888V47.6484Z" fill="#121619"/>
<path d="M147.601 93.4565L68.2747 173L86.0655 190.84L165.392 111.296L147.601 93.4565Z" fill="#121619"/>
<path d="M171.581 0H0V119.516C0 123.454 1.79573 127.154 4.87412 129.588L67.054 67.2379L84.8337 85.0663L18.7072 151.394L36.4671 169.202H36.4868L165.681 39.6344C169.47 35.835 171.581 30.71 171.581 25.3477V0Z" fill="#121619"/>
</svg>
