<?xml version="1.0" encoding="UTF-8"?>
<svg version="1.1" xmlns="http://www.w3.org/2000/svg" width="4000" height="1695">
<path d="M0 0 C1175.13 0 2350.26 0 3561 0 C3561 196.02 3561 392.04 3561 594 C3365.31 594 3169.62 594 2968 594 C2968 789.69 2968 985.38 2968 1187 C1988.56 1187 1009.12 1187 0 1187 C0 795.29 0 403.58 0 0 Z M1463 166 C1462.30616211 166.1556543 1461.61232422 166.31130859 1460.89746094 166.47167969 C1437.89554357 171.84916947 1417.95820179 183.7942099 1401 200 C1400.26523438 200.66 1399.53046875 201.32 1398.7734375 202 C1375.97337824 223.26931324 1363.59173035 256.64384627 1361.87353516 287.25292969 C1360.55624621 326.13392957 1373.07933939 360.73899432 1399.49462891 389.44433594 C1403.32158738 393.39914933 1407.59999725 396.71593998 1412 400 C1412.84820313 400.67417969 1413.69640625 401.34835937 1414.5703125 402.04296875 C1442.72768384 423.7703732 1479.94296471 430.16984302 1514.60131836 426.18017578 C1547.40783785 421.83138445 1574.02399309 406.48943724 1597 383 C1595.71445732 380.17534145 1594.37549535 378.12884079 1592.17431641 375.94726562 C1591.60677643 375.37987671 1591.03923645 374.81248779 1590.45449829 374.22790527 C1589.84302948 373.62675903 1589.23156067 373.02561279 1588.6015625 372.40625 C1587.97019379 371.77771118 1587.33882507 371.14917236 1586.68832397 370.50158691 C1584.67187063 368.49630583 1582.64858293 366.49808367 1580.625 364.5 C1579.27037393 363.15541059 1577.91620209 361.8103634 1576.5625 360.46484375 C1574.07262996 357.99128852 1571.58019653 355.52038294 1569.08447266 353.05273438 C1566.71502734 350.70970678 1564.35301697 348.35954709 1562 346 C1561.39414063 346.56847656 1560.78828125 347.13695312 1560.1640625 347.72265625 C1548.01445245 358.91898921 1533.34513103 369.0759884 1517 373 C1516.16210938 373.20238281 1515.32421875 373.40476562 1514.4609375 373.61328125 C1494.08706691 377.7385691 1472.50852158 375.15773672 1454.76953125 363.9609375 C1436.16766173 350.61663059 1426.08106678 332.15716444 1421.625 310.0625 C1418.45694537 286.44906189 1422.55619266 262.35706967 1437 243 C1448.44803413 228.68995734 1462.88943521 218.75232532 1481.0703125 215.43359375 C1507.94216464 212.46860808 1530.78743657 219.21942544 1552.17578125 235.8515625 C1555.04939961 238.03757923 1557.97806077 240.02703524 1561 242 C1567.50137691 235.08059885 1573.82041344 228.11684784 1579.765625 220.70703125 C1582.98276623 216.80934091 1586.39919159 213.11420461 1589.8359375 209.41015625 C1591.69220978 207.34279164 1593.3791142 205.25355413 1595 203 C1589.19379006 189.29857336 1566.98533328 178.40475999 1554 173 C1525.58460692 161.8262215 1492.80202228 159.11836691 1463 166 Z M202 167 C202 251.48 202 335.96 202 423 C220.48 423 238.96 423 258 423 C258 397.59 258 372.18 258 346 C281.875 346.125 281.875 346.125 289.28857422 346.18017578 C321.18709841 346.31927766 353.1610467 342.0552775 378 320 C378.68578125 319.40832031 379.3715625 318.81664062 380.078125 318.20703125 C395.48195253 303.98578103 403.44518498 283.03150127 404.38671875 262.43359375 C405.05639123 236.05294998 398.98668565 212.94333724 380.6875 193.1875 C334.94119926 150.66276973 252.97438611 167 202 167 Z M864 167 C864 251.48 864 335.96 864 423 C882.48 423 900.96 423 920 423 C920 338.52 920 254.04 920 167 C901.52 167 883.04 167 864 167 Z M1975 167 C1975 251.48 1975 335.96 1975 423 C1993.15 423 2011.3 423 2030 423 C2029.979375 417.39 2029.95875 411.78 2029.9375 406 C2029.94223095 402.43606982 2029.94931595 398.87245335 2029.96484375 395.30859375 C2029.98924302 389.65740581 2030.00514245 384.00712555 2029.96923828 378.35595703 C2029.94082166 373.79721524 2029.95151541 369.24005766 2029.98880005 364.68139648 C2029.99622003 362.94637371 2029.98978406 361.21123207 2029.96896362 359.47631836 C2029.81927447 345.88040245 2029.81927447 345.88040245 2032.73779297 341.23242188 C2034.72200704 339.2432029 2036.733013 337.64859327 2039 336 C2040.07429583 334.82058177 2041.12142935 333.61515517 2042.125 332.375 C2047.686952 325.88822694 2053.92451618 319.9996456 2060 314 C2063.76431772 317.45504279 2066.49518727 321.38086068 2069.375 325.5625 C2073.80756011 331.92196095 2078.32295449 338.20882626 2082.9375 344.4375 C2087.49794436 350.59716689 2092.02378563 356.77883226 2096.5 363 C2100.96008395 369.19663374 2105.46261539 375.35974857 2110 381.5 C2114.61540155 387.74794306 2119.20320397 394.01442607 2123.75 400.3125 C2124.23210938 400.98023438 2124.71421875 401.64796875 2125.2109375 402.3359375 C2125.69304688 403.00496094 2126.17515625 403.67398438 2126.671875 404.36328125 C2127.48422607 405.40452148 2127.48422607 405.40452148 2128.31298828 406.46679688 C2130 409 2130 409 2131.43310547 412.62695312 C2133.44166778 417.15974708 2135.56375066 420.56530152 2140 423 C2150.15193664 425.28212968 2160.9574272 424.38174342 2171.28173828 423.96130371 C2175.19588848 423.81714325 2179.11129486 423.75395255 2183.02734375 423.68359375 C2190.68835064 423.53418228 2198.34309894 423.29583416 2206 423 C2204.66537532 420.27889879 2203.26690454 417.8314274 2201.48828125 415.375 C2200.98562744 414.67898682 2200.48297363 413.98297363 2199.96508789 413.26586914 C2199.41973389 412.51813232 2198.87437988 411.77039551 2198.3125 411 C2197.73943115 410.21036865 2197.1663623 409.4207373 2196.57592773 408.60717773 C2191.66909112 401.86863192 2186.67482951 395.19694954 2181.66162109 388.53735352 C2175.62770543 380.52024655 2169.67486502 372.44498554 2163.73388672 364.35888672 C2160.82628379 360.40320388 2157.91289158 356.45178908 2155 352.5 C2151.47427063 347.71652547 2147.94961073 342.93228047 2144.4296875 338.14453125 C2138.50564231 330.08990841 2132.55705758 322.05593874 2126.54516602 314.06665039 C2121.99773268 308.0157337 2117.50282422 301.92654268 2113.03295898 295.81811523 C2110.42765182 292.26315877 2107.81033998 288.72825844 2105.078125 285.26953125 C2104.64781982 284.71942383 2104.21751465 284.16931641 2103.77416992 283.60253906 C2102.6521916 282.17649851 2101.51613585 280.76156425 2100.37890625 279.34765625 C2099 277 2099 277 2099.1496582 275.13354492 C2100.29995415 272.24740185 2102.00102514 270.67882365 2104.2265625 268.515625 C2105.09410156 267.66226563 2105.96164063 266.80890625 2106.85546875 265.9296875 C2108.22638672 264.60324219 2108.22638672 264.60324219 2109.625 263.25 C2115.04234695 257.96593076 2120.35527971 252.7049914 2125.27490234 246.95214844 C2129.17875382 242.53448691 2133.47957708 238.48427939 2137.68359375 234.35546875 C2141.07918561 230.99671876 2144.38417769 227.62147576 2147.5 224 C2151.94435252 218.83439256 2156.82507088 214.12707707 2161.68359375 209.35546875 C2165.0688171 206.00697477 2168.36445258 202.64339331 2171.46875 199.03125 C2176.11946199 193.62579389 2181.24689496 188.706912 2186.328125 183.7109375 C2194.58356248 176.07284397 2194.58356248 176.07284397 2201 167 C2192.51573661 166.83744564 2184.03212908 166.71325046 2175.54669094 166.6373148 C2171.60600526 166.60085933 2167.66638873 166.55145607 2163.72631836 166.47192383 C2159.9201573 166.39557987 2156.11502105 166.35395194 2152.30815315 166.3358593 C2150.85961848 166.32297514 2149.41113678 166.29781338 2147.96304131 166.2598896 C2139.97174911 165.86373472 2139.97174911 165.86373472 2132.63035583 168.4669342 C2130.8558599 170.21381991 2129.4234409 171.96190137 2128 174 C2127.35828857 174.70809814 2126.71657715 175.41619629 2126.05541992 176.14575195 C2125.55631104 176.73316162 2125.05720215 177.32057129 2124.54296875 177.92578125 C2120.91586353 182.12691706 2117.13233136 186.16184868 2113.3125 190.1875 C2108.47257543 195.30851722 2103.64528055 200.43899457 2098.875 205.625 C2094.60310688 210.2686778 2090.30897268 214.89070142 2086 219.5 C2081.65119779 224.15256575 2077.31493017 228.81600129 2073 233.5 C2068.72451507 238.14020474 2064.43137844 242.76344982 2060.125 247.375 C2059.54484131 247.99640869 2058.96468262 248.61781738 2058.36694336 249.25805664 C2055.32987334 252.50969542 2052.28959904 255.7582901 2049.24609375 259.00390625 C2048.01800782 260.31489685 2046.79013914 261.626091 2045.5625 262.9375 C2044.97581543 263.56398438 2044.38913086 264.19046875 2043.78466797 264.8359375 C2040.17303259 268.70547286 2036.63924465 272.6254355 2033.234375 276.6796875 C2032 278 2032 278 2030 279 C2030 242.04 2030 205.08 2030 167 C2011.85 167 1993.7 167 1975 167 Z M2586 167 C2586 251.48 2586 335.96 2586 423 C2646.39 423 2706.78 423 2769 423 C2769 406.17 2769 389.34 2769 372 C2726.76 372 2684.52 372 2641 372 C2641 304.35 2641 236.7 2641 167 C2622.85 167 2604.7 167 2586 167 Z M3166 167 C3166 251.48 3166 335.96 3166 423 C3230.02 423 3294.04 423 3360 423 C3360 406.5 3360 390 3360 373 C3314.13 373 3268.26 373 3221 373 C3221 355.18 3221 337.36 3221 319 C3260.93 319 3300.86 319 3342 319 C3342 302.5 3342 286 3342 269 C3302.07 269 3262.14 269 3221 269 C3221 251.51 3221 234.02 3221 216 C3266.21 216 3311.42 216 3358 216 C3358 199.83 3358 183.66 3358 167 C3294.64 167 3231.28 167 3166 167 Z M859 759 C858.35385742 759.15033691 857.70771484 759.30067383 857.04199219 759.45556641 C823.58278735 767.24976434 794.14891174 788.70301371 775.93310547 817.69824219 C757.82276824 847.09313605 751.37478225 882.97996535 759.03515625 916.77734375 C763.95638919 937.04244578 772.09614392 956.24050356 786 972 C786.69738281 972.81726562 787.39476562 973.63453125 788.11328125 974.4765625 C812.6122338 1002.58726116 847.11078022 1017.4188301 884 1020 C919.18870807 1021.75213484 955.0628248 1011.01183817 982 988 C982.96421875 987.18660156 983.9284375 986.37320313 984.921875 985.53515625 C1009.64763398 963.91719294 1025.3141153 931.65339457 1028 899 C1030.15253524 862.68878048 1020.16277438 827.76653018 995.89331055 800.22631836 C972.96848589 774.907382 942.75651812 760.29596548 909 756 C903.71124553 755.76022957 898.41864313 755.75430389 893.125 755.75 C892.01185425 755.74898788 892.01185425 755.74898788 890.8762207 755.74795532 C879.9422971 755.76377374 869.62986471 756.2235428 859 759 Z M2047 759 C2046.35385742 759.15033691 2045.70771484 759.30067383 2045.04199219 759.45556641 C2011.76376121 767.20760715 1982.78059756 788.33908327 1964.453125 816.984375 C1946.02484198 846.65996691 1939.33529199 882.6253562 1947.03515625 916.8515625 C1951.94593477 937.07769137 1960.12471776 956.27646587 1974 972 C1974.70898438 972.82886719 1975.41796875 973.65773438 1976.1484375 974.51171875 C2000.80675533 1002.76063373 2035.00138827 1017.41117586 2072 1020 C2107.18870807 1021.75213484 2143.0628248 1011.01183817 2170 988 C2170.96421875 987.18660156 2171.9284375 986.37320313 2172.921875 985.53515625 C2197.64763398 963.91719294 2213.3141153 931.65339457 2216 899 C2218.15096483 862.71527184 2208.17754861 827.81318709 2183.94384766 800.27685547 C2160.9637875 774.8761315 2130.85865514 760.30896377 2097 756 C2091.71124553 755.76022957 2086.41864313 755.75430389 2081.125 755.75 C2080.01185425 755.74898788 2080.01185425 755.74898788 2078.8762207 755.74795532 C2067.9422971 755.76377374 2057.62986471 756.2235428 2047 759 Z M202 760 C202 844.15 202 928.3 202 1015 C220.48 1015 238.96 1015 258 1015 C258 987.94 258 960.88 258 933 C296.07084676 928.97438176 296.07084676 928.97438176 305.48571777 935.80285645 C315.85504325 945.61376161 322.4949065 959.03382969 329.04418945 971.54077148 C333.04749364 979.10355031 337.84100332 986.10770598 342.70779419 993.13375854 C344.48582857 995.70164784 346.23139964 998.2912328 347.98046875 1000.87890625 C349.04837407 1002.44086029 350.11732173 1004.0021024 351.1875 1005.5625 C352.0237793 1006.78743164 352.0237793 1006.78743164 352.87695312 1008.03710938 C353.40611328 1008.80990234 353.93527344 1009.58269531 354.48046875 1010.37890625 C354.94348389 1011.0551001 355.40649902 1011.73129395 355.88354492 1012.42797852 C356.90924573 1013.96493569 356.90924573 1013.96493569 358 1015 C359.9943173 1015.09405142 361.99199543 1015.11743249 363.98852539 1015.11352539 C365.91040428 1015.11341209 365.91040428 1015.11341209 367.87110901 1015.11329651 C369.27995848 1015.10818909 370.68880756 1015.10297309 372.09765625 1015.09765625 C373.53112234 1015.09579202 374.96458907 1015.09436814 376.39805603 1015.09336853 C380.17759957 1015.08954372 383.9571049 1015.07971377 387.7366333 1015.06866455 C391.59069298 1015.05844963 395.44475882 1015.05387074 399.29882812 1015.04882812 C406.86590287 1015.03809146 414.43294609 1015.02101549 422 1015 C417.14107714 1007.34134204 412.21993125 999.73340689 407.1875 992.1875 C406.48101318 991.12781006 405.77452637 990.06812012 405.04663086 988.97631836 C400.72606648 982.51896656 396.30860703 976.16227947 391.75 969.87109375 C385.65652398 961.37538199 379.89390622 952.63938942 374.02832031 943.98583984 C369.71533082 937.63679537 365.35911783 931.31742563 361 925 C363.22392569 923.51738287 365.25166422 922.32405621 367.625 921.15234375 C387.52763458 911.12900659 403.621059 897.05493483 410.875 875.3125 C414.1426686 865.04105219 415.36460049 855.51592444 415.3125 844.75 C415.30758545 843.55358887 415.3026709 842.35717773 415.29760742 841.12451172 C415.1856552 832.69307375 414.62489964 825.0644507 412 817 C411.64808594 815.90042969 411.29617188 814.80085938 410.93359375 813.66796875 C404.35765501 795.02529094 391.22594054 779.90929677 373.47216797 771.08764648 C350.90371955 760.44971893 328.24390303 759.54288791 303.73290253 759.69615936 C300.49557002 759.71353259 297.25824742 759.71406408 294.02087402 759.71618652 C284.61804082 759.73178834 275.21526598 759.77367163 265.8125 759.8125 C234.2253125 759.9053125 234.2253125 759.9053125 202 760 Z M1382 760 C1382 844.15 1382 928.3 1382 1015 C1404.543125 1015.061875 1427.08625 1015.12375 1450.3125 1015.1875 C1457.39630127 1015.21481201 1464.48010254 1015.24212402 1471.77856445 1015.27026367 C1478.20088742 1015.28030501 1478.20088742 1015.28030501 1484.62321472 1015.28633118 C1487.45495344 1015.28909461 1490.2865186 1015.30020849 1493.11820984 1015.31672668 C1524.52364491 1015.49166621 1556.78038924 1013.39492702 1581.44140625 991.578125 C1585.26063532 987.72974151 1588.24795147 983.65910188 1591 979 C1591.38542969 978.37996094 1591.77085937 977.75992188 1592.16796875 977.12109375 C1600.52531882 962.29560302 1601.15867226 943.2343732 1597.875 926.875 C1592.9650701 909.55510966 1582.19511813 897.66479433 1566.8125 888.97412109 C1561.99672877 886.38590353 1557.03326747 884.1320319 1552 882 C1552.75023437 881.46632813 1553.50046875 880.93265625 1554.2734375 880.3828125 C1570.26693327 868.74019215 1580.61315545 856.93422274 1584.5859375 837.0703125 C1586.74539474 821.05773335 1584.37413815 804.46618954 1575 791 C1560.15623157 771.93957567 1540.23909023 763.71612384 1516.82000351 760.43153763 C1510.99788555 759.77382541 1505.23855621 759.73715835 1499.38525391 759.77294922 C1498.0850701 759.77270815 1496.78488628 759.77246708 1495.44530296 759.7722187 C1491.97569916 759.77177314 1488.50623754 759.78323729 1485.03666687 759.79743958 C1481.76297427 759.80895718 1478.48928658 759.80937268 1475.21557617 759.81079102 C1465.68536579 759.82122319 1456.15518102 759.84914567 1446.625 759.875 C1414.635625 759.936875 1414.635625 759.936875 1382 760 Z M2565 760 C2565 776.83 2565 793.66 2565 811 C2590.74 811 2616.48 811 2643 811 C2643 878.32 2643 945.64 2643 1015 C2661.48 1015 2679.96 1015 2699 1015 C2699 947.68 2699 880.36 2699 811 C2724.74 811 2750.48 811 2777 811 C2777 794.17 2777 777.34 2777 760 C2707.04 760 2637.08 760 2565 760 Z " fill="#000000" transform="translate(183,213)"/>
<path d="M0 0 C196.02 0 392.04 0 594 0 C594 195.69 594 391.38 594 593 C397.98 593 201.96 593 0 593 C0 397.31 0 201.62 0 0 Z M66 66 C66 218.13 66 370.26 66 527 C218.46 527 370.92 527 528 527 C528 374.87 528 222.74 528 66 C375.54 66 223.08 66 66 66 Z " fill="#000000" transform="translate(3224,880)"/>
<path d="M0 0 C17.79439317 14.85071103 28.51671488 33.53923574 31.25 56.6875 C32.23149615 73.58366196 30.76547528 89.29046612 23.25 104.6875 C22.83105469 105.59886719 22.41210938 106.51023437 21.98046875 107.44921875 C18.02239551 115.44521109 12.48781046 121.43171314 6.25 127.6875 C5.60289062 128.3578125 4.95578125 129.028125 4.2890625 129.71875 C-7.40603691 140.95421668 -24.73855707 147.01914576 -40.75 147.6875 C-41.57371094 147.72746094 -42.39742187 147.76742188 -43.24609375 147.80859375 C-64.3528538 148.32937012 -84.06080151 141.61093946 -99.4453125 126.98828125 C-100.20585937 126.22902344 -100.96640625 125.46976563 -101.75 124.6875 C-102.79800781 123.65689453 -102.79800781 123.65689453 -103.8671875 122.60546875 C-118.31896486 107.45078393 -124.48322111 86.86035807 -125 66.25 C-124.4129963 42.66626305 -116.40690425 20.81602056 -99.2578125 4.28515625 C-71.69642184 -19.63682229 -29.56167707 -21.98973873 0 0 Z " fill="#000000" transform="translate(2309.75,1034.3125)"/>
<path d="M0 0 C17.79286027 14.84943172 28.51965176 33.53994586 31.25 56.6875 C32.54684011 79.17776771 28.70143647 102.92510392 13.31201172 120.36987305 C11.01794794 122.87245265 8.64735109 125.28324012 6.25 127.6875 C5.60289062 128.3578125 4.95578125 129.028125 4.2890625 129.71875 C-7.40603691 140.95421668 -24.73855707 147.01914576 -40.75 147.6875 C-41.57371094 147.72746094 -42.39742187 147.76742188 -43.24609375 147.80859375 C-64.3528538 148.32937012 -84.06080151 141.61093946 -99.4453125 126.98828125 C-100.20585938 126.22902344 -100.96640625 125.46976563 -101.75 124.6875 C-102.79800781 123.65689453 -102.79800781 123.65689453 -103.8671875 122.60546875 C-119.03469187 106.7002453 -125.42110194 84.3893805 -124.93359375 62.73828125 C-123.58939481 40.40169879 -115.52510673 19.96601198 -99.2578125 4.28515625 C-71.69642184 -19.63682229 -29.56167707 -21.98973873 0 0 Z " fill="#000000" transform="translate(1121.75,1034.3125)"/>
<path d="M0 0 C10.8075 -0.061875 21.615 -0.12375 32.75 -0.1875 C36.13862305 -0.21481201 39.52724609 -0.24212402 43.01855469 -0.27026367 C45.73632451 -0.27903424 48.45409831 -0.28667682 51.171875 -0.29296875 C52.20577362 -0.30472893 52.20577362 -0.30472893 53.26055908 -0.31672668 C66.67079626 -0.46138494 80.65999654 0.84318042 91.2578125 9.9375 C99.6003268 18.55707197 101.62275762 27.71070099 101.46875 39.36474609 C101.07005598 49.2261935 98.32287846 56.79166757 91.40625 63.9921875 C79.96957359 73.53512853 67.30226814 74.29805493 53.125 74.1953125 C51.7630225 74.1923667 50.40104273 74.19032957 49.0390625 74.18920898 C44.02600682 74.1787839 39.01299982 74.15086144 34 74.125 C22.78 74.08375 11.56 74.0425 0 74 C0 49.58 0 25.16 0 0 Z " fill="#000000" transform="translate(441,1023)"/>
<path d="M0 0 C8.29125 -0.061875 16.5825 -0.12375 25.125 -0.1875 C27.71230957 -0.21481201 30.29961914 -0.24212402 32.96533203 -0.27026367 C50.36239053 -0.37824968 67.24628597 -0.15495427 81 12 C82.94921875 14.515625 82.94921875 14.515625 84.6875 17.25 C85.26886719 18.14203125 85.85023438 19.0340625 86.44921875 19.953125 C89.61114413 26.16547209 90.39088955 32.40610555 90.375 39.3125 C90.37338867 40.05089111 90.37177734 40.78928223 90.37011719 41.55004883 C90.12448563 52.59263206 85.90642148 61.3982572 78 69.0625 C70.5626197 75.50082921 61.12385966 79.13522978 51.31347656 79.11352539 C49.57831787 79.11334412 49.57831787 79.11334412 47.80810547 79.11315918 C46.59783691 79.10804321 45.38756836 79.10292725 44.140625 79.09765625 C43.02413574 79.09664917 41.90764648 79.09564209 40.75732422 79.09460449 C36.58820569 79.08937401 32.41910181 79.07541274 28.25 79.0625 C18.9275 79.041875 9.605 79.02125 0 79 C0 52.93 0 26.86 0 0 Z " fill="#000000" transform="translate(441,430)"/>
<path d="M0 0 C15.99895839 -0.08021762 15.99895839 -0.08021762 22.9375 -0.09765625 C27.63058116 -0.10950825 32.32358266 -0.1233655 37.01660156 -0.15087891 C90.55016601 -0.45620359 90.55016601 -0.45620359 102.33984375 11.04296875 C108.04649251 17.77010058 108.71079673 24.66330216 108.44140625 33.3359375 C107.56317939 40.62599761 104.87707048 45.84927257 99.125 50.4375 C86.80979062 58.57883953 73.29888514 58.28732928 59.08203125 58.1953125 C57.37139553 58.19157473 55.66075765 58.18873138 53.95011902 58.18673706 C49.48348916 58.17916066 45.01699276 58.15956483 40.55041504 58.1373291 C35.17210396 58.11311004 29.79374784 58.10406111 24.41539764 58.09242249 C16.2768394 58.07313601 8.13857307 58.03477197 0 58 C0 38.86 0 19.72 0 0 Z " fill="#000000" transform="translate(1619,1122)"/>
<path d="M0 0 C11.0011797 8.25546097 17.76136858 18.2079117 20.34765625 31.76171875 C21.97588818 47.57099379 19.29796071 61.01767497 9.34765625 73.76171875 C0.01546278 84.17828681 -12.43179088 90.16624162 -26.33984375 90.9765625 C-42.00465655 91.48868138 -56.07540089 87.73663474 -67.80859375 76.796875 C-77.11414315 66.5252834 -82.07080446 53.46435586 -81.86328125 39.6640625 C-80.86238553 25.89247877 -76.0425635 13.15670673 -65.65234375 3.76171875 C-46.32047974 -10.75204993 -20.80039406 -13.42724625 0 0 Z M-51.65234375 20.76171875 C-57.14272462 28.9052725 -60.05255651 37.38412715 -58.1875 47.2109375 C-56.05400043 55.45457784 -51.76945186 61.95767077 -44.65234375 66.76171875 C-37.98509307 70.51204726 -31.61801342 71.99385801 -24.0390625 70.11328125 C-15.73804092 67.42664356 -9.28765175 63.42460286 -5.21484375 55.51171875 C-1.67035306 47.56443022 -1.10819774 38.62577869 -3.74609375 30.31640625 C-7.76374389 21.78958493 -12.89699393 16.37805889 -21.65234375 12.76171875 C-32.29913252 9.67975358 -44.07431031 12.64239721 -51.65234375 20.76171875 Z " fill="#000000" transform="translate(3603.65234375,1135.23828125)"/>
<path d="M0 0 C7.72200705 -0.04213281 15.44358904 -0.08218104 23.16561127 -0.10350037 C26.76288354 -0.11398896 30.36005899 -0.12796539 33.95727539 -0.15087891 C37.43269093 -0.17287387 40.90801357 -0.18462371 44.38349342 -0.18975449 C46.33127028 -0.19515866 48.27901062 -0.210727 50.22673035 -0.22659302 C63.58366975 -0.22824651 77.02139073 0.60114603 87.75390625 9.4453125 C93.18599469 15.38007181 94.53377865 22.46013437 94.28515625 30.25390625 C93.54461074 37.38546097 91.60614071 42.32821608 86 47 C85.2575 47.70125 84.515 48.4025 83.75 49.125 C72.58810389 56.73538371 56.91340888 56.3071996 43.9453125 56.1953125 C42.67775116 56.1924826 41.41018982 56.18965271 40.10421753 56.18673706 C36.78675327 56.17754003 33.46949612 56.15967593 30.15209961 56.1373291 C26.74595677 56.11661247 23.33978233 56.10757023 19.93359375 56.09765625 C13.28890152 56.07748414 6.64471055 56.03831031 0 56 C0 37.52 0 19.04 0 0 Z " fill="#000000" transform="translate(1619,1021)"/>
<path d="M0 0 C1.35988802 1.30623892 2.70097193 2.63322217 4 4 C2.51299286 8.82829428 -0.21283256 11.7487769 -3.625 15.3125 C-4.3984375 16.13717773 -4.3984375 16.13717773 -5.1875 16.97851562 C-6.45200618 18.32498054 -7.72514922 19.66332535 -9 21 C-10.03447266 20.29423828 -10.03447266 20.29423828 -11.08984375 19.57421875 C-19.52345234 13.98651923 -27.59147308 9.41344062 -38 11 C-45.7144767 13.24861429 -51.51223841 16.2148049 -55.6875 23.25 C-59.87972818 31.29169557 -61.19438293 39.07310616 -58.8125 47.9375 C-56.3050975 55.57579096 -53.19545882 61.04962238 -46.04296875 65.03515625 C-38.05444609 68.80793846 -30.90584162 68.72720997 -22.62890625 66.13671875 C-18.71901974 64.44611403 -15.53764829 61.98130775 -12.2265625 59.328125 C-10 58 -10 58 -8.07421875 57.96484375 C-4.93842378 59.52978851 -2.63128691 61.85600159 -0.1875 64.3125 C0.5849707 65.04243164 0.5849707 65.04243164 1.37304688 65.78710938 C4.96938702 69.36419201 4.96938702 69.36419201 5.1015625 72.109375 C0.58245639 79.8655713 -10.01639332 85.04971181 -18.2890625 87.74609375 C-32.39564467 91.16658608 -47.61832138 89.74988784 -60.3125 82.75 C-72.08987095 75.39490132 -79.64897244 64.54301292 -83 51 C-85.45086865 34.47005379 -82.68002089 20.78439715 -72.9609375 7.13671875 C-55.11611904 -14.24461828 -21.97441798 -16.18741656 0 0 Z " fill="#000000" transform="translate(3503,1137)"/>
</svg>
