<?xml version="1.0" encoding="UTF-8"?>
<svg version="1.1" xmlns="http://www.w3.org/2000/svg" width="6105" height="1084">
<path d="M0 0 C34.65 0 69.3 0 105 0 C105 198.99 105 397.98 105 603 C72.33 603 39.66 603 6 603 C5.67 588.15 5.34 573.3 5 558 C0.05 562.95 -4.9 567.9 -10 573 C-15.59557729 577.22776951 -21.10025447 581.25441513 -27 585 C-27.6398584 585.40943848 -28.2797168 585.81887695 -28.93896484 586.24072266 C-74.91186607 615.13899546 -134.89352751 618.52753959 -186.7265625 606.75390625 C-219.89690518 598.5921466 -249.53809737 582.57689126 -275 560 C-275.90621094 559.20464844 -276.81242187 558.40929687 -277.74609375 557.58984375 C-319.89315232 520.18994246 -345.62172777 464.96708757 -350 409 C-350.14592953 405.58939403 -350.18608516 402.18299625 -350.203125 398.76953125 C-350.21018463 397.82459808 -350.21724426 396.87966492 -350.22451782 395.90609741 C-350.45198065 356.53725141 -350.45198065 356.53725141 -347 340 C-346.80132324 339.01451172 -346.60264648 338.02902344 -346.39794922 337.01367188 C-334.27089572 278.33145043 -300.30977741 226.81682192 -250.12353516 193.76416016 C-222.69898104 176.27802755 -192.27954187 165.13986359 -160 161 C-158.94679565 160.85860596 -158.94679565 160.85860596 -157.87231445 160.71435547 C-149.54840845 159.7307251 -141.18248103 159.75638088 -132.8125 159.75 C-132.01553711 159.74932526 -131.21857422 159.74865051 -130.39746094 159.74795532 C-82.10461213 159.81267645 -35.61983471 175.38016529 -1 210 C-0.67 140.7 -0.34 71.4 0 0 Z M-208.24755859 293.88330078 C-223.45028821 309.67057782 -232.89386369 329.8928864 -238 351 C-238.17644043 351.68191406 -238.35288086 352.36382813 -238.53466797 353.06640625 C-243.82368244 374.15956209 -243.29185091 400.98256785 -238 422 C-237.83902832 422.6801416 -237.67805664 423.3602832 -237.51220703 424.06103516 C-230.24399859 454.29985433 -211.9367358 481.63837935 -185.49609375 498.2421875 C-173.09460901 505.73330782 -160.11361919 510.82290823 -146 514 C-144.55367187 514.3403125 -144.55367187 514.3403125 -143.078125 514.6875 C-113.13347858 520.51456633 -79.82398448 514.70280045 -54.31835938 497.89160156 C-26.61953034 478.81785274 -8.35842631 449.35956842 -2.1875 416.4375 C4.19030369 379.91007889 -0.15088334 339.68246733 -21.29296875 308.375 C-40.0281996 282.30859186 -64.46290572 264.07933751 -96.4375 257.8125 C-139.0910832 251.56639481 -177.78520521 263.22675099 -208.24755859 293.88330078 Z " fill="#191C23" transform="translate(4012,236)"/>
<path d="M0 0 C305.88327526 0 305.88327526 0 357 37 C357.81041748 37.57572754 357.81041748 37.57572754 358.63720703 38.16308594 C374.78704217 49.7436307 389.22139247 64.28994403 400 81 C400.42716309 81.65790527 400.85432617 82.31581055 401.29443359 82.99365234 C418.71400069 110.22267398 428.02027733 142.70288181 428.203125 175.0390625 C428.21013931 175.87447571 428.21715363 176.70988892 428.22438049 177.57061768 C428.2417978 180.25546719 428.24823366 182.94009604 428.25 185.625 C428.25067474 186.54251038 428.25134949 187.46002075 428.25204468 188.40533447 C428.19547117 236.81851155 413.61588171 278.94139328 381 315 C380.21238281 315.87269531 379.42476562 316.74539063 378.61328125 317.64453125 C367.80691647 329.0013051 354.59443371 338.28602607 341 346 C339.86691406 346.65355469 338.73382812 347.30710937 337.56640625 347.98046875 C317.53476073 359.26755681 295.78118208 365.82163469 273.3125 370.25 C272.55525635 370.40114258 271.7980127 370.55228516 271.01782227 370.70800781 C252.32885865 374.16019623 233.65416414 374.27845917 214.71971893 374.20256042 C211.35624116 374.19098722 207.9927677 374.19062441 204.62927246 374.18920898 C194.85699708 374.17880352 185.08474665 374.15088129 175.3125 374.125 C153.429375 374.08375 131.54625 374.0425 109 374 C109 446.27 109 518.54 109 593 C73.03 593 37.06 593 0 593 C0 397.31 0 201.62 0 0 Z M109 96 C109 156.06 109 216.12 109 278 C129.233125 278.061875 149.46625 278.12375 170.3125 278.1875 C179.84185425 278.22846802 179.84185425 278.22846802 189.5637207 278.27026367 C195.33406588 278.28030631 195.33406588 278.28030631 201.10441589 278.28633118 C203.64443038 278.29089229 206.18443899 278.30134692 208.72441101 278.31672668 C238.98504988 278.49055599 269.13287683 276.04222898 292.04663086 254.01049805 C293.37834887 252.68753982 294.68987102 251.34434126 296 250 C296.66386719 249.34515625 297.32773438 248.6903125 298.01171875 248.015625 C315.41626866 229.71151409 319.78646479 204.45794459 319.28125 180.1953125 C318.46658712 157.63593958 309.7621657 138.04922501 294 122 C293.26265625 121.23816406 292.5253125 120.47632813 291.765625 119.69140625 C272.52638236 101.06549517 246.38745872 95.80367171 220.48193359 95.88647461 C219.25161722 95.88635407 218.02130085 95.88623354 216.75370216 95.88610935 C212.80192838 95.8868511 208.85020276 95.89444552 204.8984375 95.90234375 C202.44637067 95.90381546 199.99430353 95.90483476 197.54223633 95.90539551 C188.48648607 95.91062188 179.43074255 95.92458315 170.375 95.9375 C139.994375 95.9684375 139.994375 95.9684375 109 96 Z " fill="#191C23" transform="translate(1228,246)"/>
<path d="M0 0 C0.98355469 0.84046875 1.96710937 1.6809375 2.98046875 2.546875 C8.10274139 7.04145614 12.64504566 11.76845957 17 17 C17.73605469 17.83660156 18.47210937 18.67320312 19.23046875 19.53515625 C53.78604789 59.4745935 69.17742717 110.42501886 69.3125 162.5625 C69.31814972 163.76934952 69.31814972 163.76934952 69.32391357 165.00057983 C69.35873196 179.65369093 67.88985682 192.73719167 64 207 C-38.96 207 -141.92 207 -248 207 C-240.85484347 239.86772002 -231.18873393 270.81946047 -201.73828125 290.28515625 C-200.83464844 290.85105469 -199.93101562 291.41695312 -199 292 C-197.96230469 292.65871094 -196.92460937 293.31742188 -195.85546875 293.99609375 C-168.04152353 310.81161034 -132.40058037 314.59724758 -101 307 C-83.97052877 302.65112461 -68.99271991 294.91163126 -56 283 C-55.07574219 282.15695312 -54.15148438 281.31390625 -53.19921875 280.4453125 C-47.19754606 274.71757508 -42.46917551 268.76473167 -37.97265625 261.84765625 C-36.16117391 259.23266491 -34.27205466 257.20584674 -32 255 C-31.09942116 255.45195488 -31.09942116 255.45195488 -30.1806488 255.91304016 C-24.4054407 258.81083802 -18.62916623 261.70649891 -12.85180569 264.60000324 C-9.8846187 266.08616049 -6.91791262 267.57325811 -3.9519043 269.06176758 C9.11441979 275.61853509 22.19321412 282.1318088 35.42689514 288.34577942 C41.08248295 291.01669718 46.5727523 293.89074737 52 297 C37.78818758 336.49086956 3.03707441 364.98689625 -33.68701172 382.92529297 C-60.89138661 395.56553556 -91.42072295 403.06200249 -121.44921875 403.203125 C-122.42373489 403.20882507 -123.39825104 403.21452515 -124.40229797 403.22039795 C-126.4586989 403.22978908 -128.51511448 403.2363583 -130.5715332 403.24023438 C-133.63456509 403.2498341 -136.6968936 403.2808705 -139.75976562 403.3125 C-158.00451392 403.41130988 -176.02200845 401.7359902 -193.75 397.25 C-194.78672852 396.99250977 -195.82345703 396.73501953 -196.89160156 396.46972656 C-233.30396005 387.12833616 -265.10342877 368.01230039 -292 342 C-292.79664062 341.25492188 -293.59328125 340.50984375 -294.4140625 339.7421875 C-301.02309323 333.41339835 -306.51203796 326.29305764 -312 319 C-312.64437012 318.15477783 -312.64437012 318.15477783 -313.30175781 317.29248047 C-320.55447342 307.73665078 -326.45585816 297.62666239 -332 287 C-332.52158691 286.02184326 -332.52158691 286.02184326 -333.05371094 285.02392578 C-344.66047225 263.05034497 -351.29725242 238.44495151 -355 214 C-355.12842285 213.22382324 -355.2568457 212.44764648 -355.38916016 211.64794922 C-359.54698644 186.02061995 -358.45157381 157.45840473 -354 132 C-353.83902832 131.0630127 -353.67805664 130.12602539 -353.51220703 129.16064453 C-343.27785883 71.89351845 -311.43532092 20.771682 -263.6640625 -12.5234375 C-192.35055897 -61.27275392 -84.38015429 -64.58132692 0 0 Z M-213 64 C-213.70640625 64.62390625 -214.4128125 65.2478125 -215.140625 65.890625 C-232.23663905 81.90972478 -241.03618473 104.66283127 -246 127 C-179.01 127 -112.02 127 -43 127 C-45.73304733 105.13562133 -51.84199904 85.432973 -67 69 C-67.78246094 68.14921875 -68.56492187 67.2984375 -69.37109375 66.421875 C-86.41813895 48.65677954 -110.11590495 38.37776401 -134.734375 37.69921875 C-137.07283905 37.67977001 -139.41148214 37.67624785 -141.75 37.6875 C-142.98137695 37.69313965 -144.21275391 37.6987793 -145.48144531 37.70458984 C-171.18708381 38.04665433 -193.82714681 46.78106815 -213 64 Z " fill="#191C23" transform="translate(3532,446)"/>
<path d="M0 0 C0.7682309 -0.00067474 1.53646179 -0.00134949 2.32797241 -0.00204468 C49.02289706 0.06266408 95.40212266 12.37518967 131.375 43.25 C132.80585938 44.46236328 132.80585938 44.46236328 134.265625 45.69921875 C158.72162552 66.92860501 175.04216994 98.23614778 179.375 130.25 C179.63685993 134.65452794 179.63718073 139.04418729 179.61550903 143.45549011 C179.61807231 145.38681596 179.61807231 145.38681596 179.62068737 147.35715848 C179.62512571 150.90104426 179.61720609 154.44480744 179.60713124 157.98867762 C179.59844791 161.82151234 179.60142034 165.65434083 179.60293579 169.48718262 C179.60398157 176.11792306 179.59773718 182.74862397 179.58646011 189.37935448 C179.57016629 198.96612585 179.56499314 208.55287822 179.56248413 218.13966195 C179.55811311 233.69573923 179.54482012 249.25179546 179.52587891 264.80786133 C179.50750474 279.91398005 179.49335576 295.02009305 179.48486328 310.1262207 C179.48433783 311.05826036 179.48381239 311.99030002 179.48327102 312.9505833 C179.48066083 317.62662059 179.47813344 322.30265792 179.47564721 326.97869527 C179.45493317 365.73581554 179.41807339 404.49289686 179.375 443.25 C147.035 443.25 114.695 443.25 81.375 443.25 C81.045 429.06 80.715 414.87 80.375 400.25 C78.065 402.56 75.755 404.87 73.375 407.25 C62.24421213 417.01356681 50.36869533 425.20929857 37.375 432.25 C35.94414062 433.03697266 35.94414062 433.03697266 34.484375 433.83984375 C22.03828451 440.39316235 8.81052293 444.92529106 -4.875 448.0625 C-5.72433105 448.257229 -6.57366211 448.45195801 -7.44873047 448.65258789 C-21.75646312 451.74302548 -35.66867275 452.5978683 -50.25634766 452.56567383 C-53.22466265 452.56252686 -56.19196446 452.58601568 -59.16015625 452.61132812 C-100.95199006 452.75055701 -141.1816028 440.76303871 -171.625 411.25 C-185.49796853 397.42908764 -194.81044671 379.10700037 -199.625 360.25 C-199.9240625 359.18007813 -200.223125 358.11015625 -200.53125 357.0078125 C-205.09943611 337.67761757 -204.71090092 313.46495168 -199.625 294.25 C-199.43695801 293.53312012 -199.24891602 292.81624023 -199.05517578 292.07763672 C-190.01095197 259.10255499 -168.13880364 233.28480971 -138.6640625 216.46484375 C-126.94961138 209.97115021 -115.00253033 204.80354405 -102.3125 200.5 C-101.28350586 200.14744141 -100.25451172 199.79488281 -99.19433594 199.43164062 C-81.03676666 193.49240501 -62.13100765 190.30431154 -43.31640625 187.25390625 C-41.13190661 186.89481089 -38.94749604 186.53517329 -36.76316833 186.17503357 C-32.20987444 185.42568738 -27.65590781 184.68063937 -23.10131836 183.93920898 C-17.3908674 183.00959132 -11.68166602 182.07257109 -5.97289467 181.13269997 C21.11825728 176.67350121 48.22739496 172.3518817 75.375 168.25 C74.66397017 144.85909475 71.75222436 127.01877813 54.375 110.25 C44.68426213 101.3695798 32.99694077 96.47526251 20.375 93.25 C19.49070312 93.023125 18.60640625 92.79625 17.6953125 92.5625 C-9.09888474 86.97066753 -37.62032499 92.87901095 -60.625 107.25 C-79.00232722 119.57213655 -90.32267 135.50472734 -99.625 155.25 C-103.25278279 154.6532065 -106.18719579 153.66091947 -109.47753906 152.03198242 C-110.41752747 151.57027145 -111.35751587 151.10856049 -112.32598877 150.63285828 C-113.33731873 150.12881973 -114.34864868 149.62478119 -115.390625 149.10546875 C-116.45625671 148.58044266 -117.52188843 148.05541656 -118.61981201 147.51448059 C-122.04095553 145.8276525 -125.45810502 144.13291512 -128.875 142.4375 C-133.3166256 140.24129454 -137.75981385 138.04826161 -142.203125 135.85546875 C-143.30394409 135.3114743 -144.40476318 134.76747986 -145.53894043 134.20700073 C-155.49284507 129.29568992 -165.49549516 124.48904451 -175.51074219 119.7043457 C-179.23516307 117.92323057 -182.9420719 116.11531316 -186.625 114.25 C-180.0413779 95.22697133 -170.37846902 79.26329725 -156.66796875 64.50390625 C-155.24824156 62.93759155 -153.88657259 61.31747167 -152.57421875 59.66015625 C-124.0993002 24.45168983 -70.88301595 6.34643971 -27.625 1.25 C-26.41215332 1.10643066 -26.41215332 1.10643066 -25.17480469 0.95996094 C-16.79674081 0.08219908 -8.41476823 0.00668567 0 0 Z M67.02217102 249.90643311 C66.15775391 250.05210724 65.29333679 250.19778137 64.40272522 250.34786987 C63.46198654 250.50989899 62.52124786 250.6719281 61.55200195 250.83886719 C60.0558989 251.09257584 60.0558989 251.09257584 58.52957153 251.35140991 C55.22353933 251.91309201 51.91838408 252.47975154 48.61328125 253.046875 C46.30562156 253.44099523 43.99793788 253.83497506 41.69023132 254.2288208 C36.8418384 255.05715407 31.99390249 255.88810491 27.14624023 256.72070312 C20.97678983 257.77997926 14.80604252 258.83147105 8.63488483 259.88074875 C3.8597028 260.69382799 -0.91462315 261.51184986 -5.68873024 262.3312149 C-7.96029149 262.7203463 -10.23213515 263.1078333 -12.50427818 263.49355316 C-36.3861515 266.98570097 -36.3861515 266.98570097 -59.125 274.625 C-60.11222046 275.07770264 -60.11222046 275.07770264 -61.11938477 275.53955078 C-74.04168521 281.60918863 -85.46914859 290.69632471 -90.8125 304.265625 C-95.23022391 317.70286855 -95.63469822 332.21713374 -89.625 345.25 C-87.61109321 348.61520694 -85.32871061 351.41677032 -82.625 354.25 C-81.98949219 354.93707031 -81.35398437 355.62414062 -80.69921875 356.33203125 C-67.36018515 369.47010012 -49.02167429 372.73619198 -31.01489258 372.60400391 C-0.35647588 371.86360196 26.77173146 360.55888578 48.26953125 338.70532227 C72.12341222 313.66434299 76.05852111 282.27984312 75.375 249.25 C72.36536385 249.25 69.94050093 249.4091814 67.02217102 249.90643311 Z " fill="#191C23" transform="translate(2121.625,396.75)"/>
<path d="M0 0 C2.98403179 2.66919642 5.87292865 5.42714058 8.75390625 8.20703125 C9.470625 8.8721875 10.18734375 9.53734375 10.92578125 10.22265625 C40.04108867 37.94042891 53.28435657 79.96760341 54.75390625 119.20703125 C54.92482791 127.80697159 54.88343494 136.41004408 54.86997187 145.01124501 C54.86561229 148.51069072 54.86711766 152.01013485 54.86787415 155.50958252 C54.86839592 161.55748821 54.86528551 167.60538303 54.85963631 173.65328598 C54.85147409 182.39730232 54.84890127 191.14131346 54.84764832 199.8853332 C54.84546518 214.0754139 54.8388252 228.26548883 54.8293457 242.45556641 C54.82015243 256.23160778 54.81308098 270.00764758 54.80883789 283.78369141 C54.80844381 285.05959532 54.80844381 285.05959532 54.80804176 286.36127506 C54.80673663 290.62893055 54.80547294 294.89658605 54.80422986 299.16424155 C54.79388026 334.51184326 54.77545441 369.85943425 54.75390625 405.20703125 C20.10390625 405.20703125 -14.54609375 405.20703125 -50.24609375 405.20703125 C-50.2711499 397.62669922 -50.29620605 390.04636719 -50.32202148 382.23632812 C-50.40301459 357.93485781 -50.48866227 333.63340602 -50.57721069 309.33196214 C-50.59097896 305.55220015 -50.60470625 301.77243801 -50.6184082 297.99267578 C-50.62113651 297.24024721 -50.62386481 296.48781864 -50.62667579 295.7125892 C-50.67065571 283.55663687 -50.71132191 271.40067563 -50.75074636 259.24470776 C-50.79132528 246.75571989 -50.83550498 234.26674843 -50.8829723 221.77778482 C-50.91210998 214.08204613 -50.93849601 206.38630838 -50.96127272 198.69054818 C-50.97909033 192.77245519 -51.00193694 186.85438803 -51.02658463 180.93631935 C-51.03587516 178.5209847 -51.04357837 176.10564331 -51.04951286 173.69029808 C-50.70625719 150.25769007 -50.70625719 150.25769007 -53.93359375 127.14453125 C-54.19414551 126.02957275 -54.19414551 126.02957275 -54.45996094 124.89208984 C-59.85409755 102.96497127 -72.06695414 84.47620736 -91.24609375 72.20703125 C-111.81477179 60.23916599 -137.53818797 57.14079802 -160.59716797 62.78222656 C-182.592146 68.8432265 -199.71027176 81.40479356 -211.93359375 100.76953125 C-225.14749115 124.37016661 -224.38703691 151.04569508 -224.45141602 177.24804688 C-224.46101275 179.74298763 -224.47102383 182.23792681 -224.48141479 184.73286438 C-224.50273415 190.07299775 -224.52121478 195.41312897 -224.53701973 200.75328064 C-224.55987519 208.47394049 -224.58799486 216.19457438 -224.61733901 223.91521198 C-224.66482468 236.4459045 -224.70813945 248.97660775 -224.7487793 261.50732422 C-224.78823169 273.66911653 -224.82968072 285.83089939 -224.8737793 297.99267578 C-224.87650357 298.74418209 -224.87922784 299.49568839 -224.88203467 300.26996762 C-224.89571575 304.04060761 -224.9094357 307.81124746 -224.92317498 311.58188725 C-225.03684033 342.79024987 -225.142937 373.99863168 -225.24609375 405.20703125 C-259.89609375 405.20703125 -294.54609375 405.20703125 -330.24609375 405.20703125 C-330.24609375 262.31703125 -330.24609375 119.42703125 -330.24609375 -27.79296875 C-297.57609375 -27.79296875 -264.90609375 -27.79296875 -231.24609375 -27.79296875 C-230.91609375 -11.29296875 -230.58609375 5.20703125 -230.24609375 22.20703125 C-227.27609375 17.91703125 -224.30609375 13.62703125 -221.24609375 9.20703125 C-198.71361423 -17.83194417 -164.92628354 -32.54889577 -130.30859375 -36.32421875 C-84.32948734 -40.38119873 -35.58407912 -31.07296737 0 0 Z " fill="#191C23" transform="translate(2726.24609375,433.79296875)"/>
<path d="M0 0 C2.9166783 1.72933047 5.19410894 3.82591027 7.67901707 6.13454151 C8.4607387 6.86076638 8.4607387 6.86076638 9.25825268 7.60166246 C15.61944379 13.55000039 21.7796476 19.70190449 27.939744 25.85687733 C29.26324757 27.17573894 30.58694306 28.49440798 31.91081333 29.8129015 C35.46859764 33.35770707 39.0231676 36.90571763 42.57670379 40.45478129 C44.80156464 42.67669251 47.02700334 44.89802341 49.25261211 47.11918545 C56.23073414 54.08368152 63.20688781 61.05014021 70.18014044 68.01951188 C78.20507693 76.03995559 86.23653715 84.0537909 94.27365583 92.06202668 C100.50853044 98.27527609 106.73761985 104.49428685 112.96235949 110.71768981 C116.67160603 114.42589053 120.38322099 118.13164269 124.10089016 121.83140087 C127.59188542 125.3058972 131.0756252 128.78750868 134.55399418 132.2746439 C135.8280365 133.54945515 137.10462814 134.82172472 138.38399792 136.09118938 C154.60338797 152.19237306 154.60338797 152.19237306 155.26420689 160.34247303 C155.34670689 161.10559803 155.42920689 161.86872303 155.51420689 162.65497303 C154.63577551 172.09811037 149.14475554 177.1697823 142.6806345 183.54750538 C141.67480697 184.55766548 140.67007463 185.56891704 139.6663416 186.58115834 C136.91387113 189.35058711 134.14608638 192.10424673 131.37547481 194.85551035 C128.38681205 197.82872654 125.41261332 200.81635174 122.43655491 203.80217457 C116.6079695 209.64527859 110.7661029 215.47492732 104.91955944 221.30005679 C98.11139573 228.08419875 91.31612621 234.88119509 84.52126554 241.6786566 C72.39768914 253.80592235 60.26189984 265.92089323 48.1194315 278.02924061 C36.33659586 289.77897813 24.56327288 301.53814228 12.80009556 313.30756092 C-0.0104122 326.12483225 -12.82551288 338.93747461 -25.64923209 351.74152917 C-26.3272852 352.41854279 -27.00533831 353.09555641 -27.70393848 353.7930856 C-29.06576952 355.15282575 -30.42761059 356.51255585 -31.78946183 357.87227577 C-36.53050555 362.60642361 -41.26843027 367.34367935 -46.00530338 372.08199978 C-51.77709152 377.8552274 -57.55440776 383.62285678 -63.3387535 389.38350353 C-66.29003214 392.32292022 -69.23889179 395.26465809 -72.1813345 398.2129221 C-74.87487137 400.91163027 -77.57523361 403.60330644 -80.28121837 406.28953137 C-81.72213903 407.72346632 -83.15573166 409.16475339 -84.58905154 410.60628587 C-85.44909626 411.45727395 -86.30914097 412.30826202 -87.19524765 413.18503761 C-87.93255719 413.92077596 -88.66986674 414.6565143 -89.429519 415.41454774 C-93.69739497 418.98227022 -97.67449835 420.76541523 -103.23579311 420.71747303 C-104.13298061 420.72520741 -105.03016811 420.73294178 -105.95454311 420.74091053 C-118.73951027 418.90935625 -129.61404618 403.61342597 -138.38374233 394.83978748 C-139.72826687 393.49826114 -141.07299412 392.15693793 -142.41790676 390.81580067 C-146.04178543 387.20069216 -149.66247549 383.58240689 -153.28229189 379.96323133 C-155.54688465 377.69935226 -157.81218918 375.43618792 -160.07774639 373.17327404 C-167.98874517 365.27150068 -175.89718324 357.367175 -183.80317593 349.46039295 C-191.16389162 342.099075 -198.5301842 334.74337038 -205.89907539 327.39023715 C-212.23916377 321.0632226 -218.57539255 314.73236039 -224.90862763 308.39848584 C-228.68566262 304.62119612 -232.46422805 300.84546939 -236.24668407 297.07360744 C-239.79865854 293.53131296 -243.34580156 289.98425076 -246.88929844 286.43347645 C-248.18882405 285.13290536 -249.49005453 283.83403517 -250.79312229 282.53701305 C-252.57375979 280.76410255 -254.3480956 278.98511022 -256.1210165 277.2044878 C-256.89289753 276.44032212 -256.89289753 276.44032212 -257.68037212 275.66071874 C-263.47515682 269.81030192 -266.85006171 264.82439211 -267.04829311 256.52997303 C-267.08567593 255.51290272 -267.12305874 254.49583241 -267.16157436 253.44794178 C-266.06518348 245.45132936 -258.45514554 239.77640951 -253.03196621 234.37122059 C-252.0259191 233.36143438 -251.02030444 232.35121717 -250.01508415 231.34060788 C-247.25821726 228.57152846 -244.49515395 225.80870608 -241.73099542 223.0469079 C-238.74849315 220.06481422 -235.7717265 217.07700424 -232.79417324 214.08997059 C-226.96308142 208.24227915 -221.12645459 202.40014293 -215.28761543 196.56018803 C-210.54281914 191.8144411 -205.79960637 187.0671173 -201.05750561 182.31867695 C-187.6137538 168.85731831 -174.1658228 155.40015481 -160.71251453 141.94834682 C-159.98752557 141.22343777 -159.2625366 140.49852871 -158.51557827 139.75165272 C-157.78970413 139.02586034 -157.06383 138.30006797 -156.31595968 137.55228189 C-144.54301465 125.78015038 -132.78008631 113.99806605 -121.0216483 102.21144602 C-108.94920893 90.11030034 -96.86934967 78.01660574 -84.7816838 65.93066907 C-77.9949564 59.14460617 -71.21135449 52.3554848 -64.43571758 45.55834675 C-58.66916403 39.77361144 -52.89576923 33.99581481 -47.11331953 28.22696754 C-44.16272041 25.28291222 -41.21546082 22.33570447 -38.27679348 19.37973499 C-35.58726257 16.67453176 -32.88869097 13.97870561 -30.18258058 11.29009035 C-29.2046764 10.31526887 -28.23014753 9.33704732 -27.25935437 8.35514399 C-25.94000134 7.02169558 -24.60708126 5.70171175 -23.27354527 4.38244724 C-22.53677779 3.64524503 -21.80001032 2.90804283 -21.04091656 2.14850116 C-14.91319372 -2.65247374 -7.08674869 -2.92365079 0 0 Z " fill="#FFC900" transform="translate(644.7357931137085,663.6575269699097)"/>
<path d="M0 0 C2.23719402 1.7385442 4.15699282 3.374863 6.1496582 5.347229 C6.97685726 6.13838808 6.97685726 6.13838808 7.8207674 6.94553018 C9.56039612 8.6173241 11.28149595 10.30652134 13 12 C14.09268983 13.06582899 15.18549244 14.13154237 16.27841187 15.19713593 C19.74292477 18.5907583 23.17479304 22.0165674 26.60546875 25.44433594 C27.90941655 26.74363997 29.21355546 28.04275222 30.51786804 29.34169006 C34.01773405 32.82859671 37.51440291 36.318691 41.01003265 39.80984402 C43.19922061 41.9960798 45.3889853 44.18173634 47.57891846 46.36722565 C54.44704293 53.22173081 61.31320424 60.0781933 68.17646408 66.93756938 C76.07178056 74.8283913 83.9736247 82.71259957 91.88111591 90.59122062 C98.01834708 96.70682635 104.14979261 102.82819349 110.27688885 108.95395303 C113.92687583 112.60289443 117.57922824 116.24938895 121.23764038 119.88988495 C124.6720162 123.30776087 128.09913418 126.73275197 131.52088356 130.16326714 C132.77396358 131.41711596 134.02959207 132.66842408 135.28800011 133.91692543 C152.02925057 150.53411376 152.02925057 150.53411376 152.3125 161.3125 C152.34988281 162.23675781 152.38726562 163.16101563 152.42578125 164.11328125 C151.26878885 171.95747744 143.61826141 177.66681918 138.2961731 182.97125244 C137.29012599 183.98103865 136.28451133 184.99125586 135.27929103 186.00186515 C132.52242414 188.77094457 129.75936084 191.53376695 126.9952023 194.29556513 C124.01270003 197.27765881 121.03593339 200.26546879 118.05838013 203.25250244 C112.22728831 209.10019388 106.39066148 214.9423301 100.55182232 220.782285 C95.80702602 225.52803193 91.06381326 230.27535573 86.32171249 235.02379608 C72.87796068 248.48515472 59.43002969 261.94231822 45.97672142 275.39412621 C45.25173245 276.11903526 44.52674349 276.84394432 43.77978516 277.59082031 C43.05391102 278.31661269 42.32803688 279.04240506 41.58016656 279.79019114 C29.80722153 291.56232265 18.0442932 303.34440698 6.28585519 315.13102701 C-5.78658418 327.23217269 -17.86644344 339.32586729 -29.95410931 351.41180396 C-36.74083672 358.19786686 -43.52443862 364.98698823 -50.30007553 371.78412628 C-56.06662909 377.56886159 -61.84002389 383.34665822 -67.62247358 389.11550549 C-70.57307271 392.05956081 -73.5203323 395.00676856 -76.45899963 397.96273804 C-79.14853055 400.66794127 -81.84710214 403.36376742 -84.55321254 406.05238268 C-85.53111672 407.02720416 -86.50564559 408.00542571 -87.47643875 408.98732904 C-88.79579177 410.32077745 -90.12871185 411.64076128 -91.46224785 412.96002579 C-92.19901532 413.697228 -92.93578279 414.4344302 -93.69487655 415.19397187 C-97.78481847 418.39837732 -101.89320271 419.37719393 -107 418.8125 C-108.2065625 418.69841797 -108.2065625 418.69841797 -109.4375 418.58203125 C-122.30817623 415.65866119 -132.48783909 401.67020393 -141.5402832 392.63671875 C-142.8733514 391.30992992 -144.20660352 389.98332585 -145.5400238 388.65689087 C-149.88046771 384.33729133 -154.2157545 380.01253486 -158.55078125 375.6875 C-160.05076664 374.19156767 -161.550784 372.69566738 -163.05083275 371.19979858 C-170.09224958 364.17737969 -177.13128972 357.15258921 -184.16739494 350.12484837 C-192.26830427 342.03373163 -200.37744684 333.95098406 -208.49359256 325.87515163 C-214.78536325 319.61355694 -221.06942287 313.34429018 -227.34777898 307.06924534 C-231.09043194 303.32893835 -234.83629109 299.59198374 -238.59035683 295.86312866 C-242.11799126 292.35880995 -245.63593869 288.84504644 -249.14679909 285.32392502 C-250.43286334 284.03736639 -251.72232647 282.75419452 -253.01549911 281.47478104 C-267.81713366 266.82181703 -267.81713366 266.82181703 -269.69921875 257.55859375 C-269.69535156 256.52863281 -269.69148438 255.49867188 -269.6875 254.4375 C-269.71199219 253.40496094 -269.73648437 252.37242187 -269.76171875 251.30859375 C-267.76562969 242.63840178 -259.28761967 235.99955902 -253.21424866 229.94682312 C-252.223689 228.952521 -251.2335608 227.95778891 -250.24382395 226.96266776 C-247.53899149 224.24566473 -244.82800775 221.53487496 -242.11590207 218.82513463 C-239.1859038 215.89554601 -236.26164726 212.96023514 -233.33659363 210.02571106 C-227.61237711 204.28491889 -221.88264918 198.54965872 -216.15069778 192.81659045 C-211.49224748 188.15718855 -206.83538269 183.4962079 -202.17962456 178.83411598 C-188.97410083 165.61099335 -175.76440649 152.39205755 -162.54932971 139.17848208 C-161.83768225 138.46691454 -161.1260348 137.75534699 -160.39282227 137.0222168 C-159.6803039 136.3097802 -158.96778554 135.59734359 -158.23367571 134.863318 C-146.67492843 123.30538443 -135.12620171 111.73749532 -123.5819586 100.1650764 C-111.72302777 88.2774305 -99.85666835 76.39724493 -87.98250669 64.52481204 C-81.31817917 57.86114864 -74.65696918 51.19443598 -68.00374031 44.51968956 C-62.3423049 38.84006108 -56.6740131 33.16738827 -50.99668057 27.50364866 C-48.10062832 24.61413395 -45.20789991 21.72148599 -42.32378769 18.82004929 C-39.68302459 16.16358683 -37.03318276 13.51654535 -34.3758406 10.87667046 C-32.96292374 9.46828641 -31.55983997 8.05005878 -30.15714413 6.6314947 C-20.92368928 -2.50160525 -12.1897531 -5.93716773 0 0 Z " fill="#00E7FB" transform="translate(269,287)"/>
<path d="M0 0 C11.03536678 6.65203548 20.27481048 17.74648118 29.35498047 26.81884766 C30.63745347 28.09667809 31.92011812 29.37431621 33.20295715 30.65177917 C36.64923941 34.0850877 40.09231172 37.5215965 43.53434896 40.95916033 C45.69020419 43.1120648 47.84663677 45.26438938 50.00323868 47.41654587 C56.76725411 54.16693601 63.52930144 60.91928832 70.28844821 67.67455351 C78.06264223 75.44425637 85.84335582 83.20735217 93.62973678 90.96484149 C99.67270384 96.98616882 105.7098712 103.01327125 111.74269593 109.04476011 C115.33627932 112.63729863 118.93222006 116.22739701 122.53423691 119.81148148 C125.91772684 123.17844743 129.29392798 126.55255741 132.66478539 129.93216896 C133.89809446 131.16624564 135.13394296 132.39779084 136.3725872 133.62651253 C154.10555323 151.22577977 154.10555323 151.22577977 154.375 162.5 C154.41238281 163.51707031 154.44976563 164.53414062 154.48828125 165.58203125 C153.39393315 173.56374443 145.81050159 179.22495861 140.39663696 184.62078857 C139.39471467 185.62645 138.39322482 186.63254242 137.3921293 187.63902688 C134.64666375 190.39670456 131.89500234 193.1481255 129.14224529 195.89852214 C126.17201305 198.86834578 123.20751653 201.84388574 120.24223328 204.81864929 C114.43520481 210.64227715 108.62264159 216.46034998 102.80786587 222.27624145 C98.08261573 227.00244224 93.35894914 231.7302199 88.6363945 236.45911407 C75.24798018 249.86513516 61.85538677 263.26696114 48.45741601 276.66343161 C47.73541404 277.38535367 47.01341207 278.10727573 46.26953125 278.85107422 C45.54664773 279.57387598 44.82376421 280.29667774 44.07897513 281.04138258 C32.35452899 292.76501519 20.64009969 304.49860051 8.9301606 316.23672161 C-3.09255817 328.28814682 -15.1226969 340.33212075 -27.16064227 352.36833692 C-33.91942405 359.1264542 -40.67508031 365.88762969 -47.42277145 372.6568222 C-53.16553641 378.4177691 -58.91514266 384.17177685 -64.67380379 389.9168357 C-67.61225141 392.84873961 -70.54735937 395.78379529 -73.47387505 398.72761345 C-76.15230345 401.42171459 -78.83977247 404.10643733 -81.53478034 406.78395048 C-82.97040843 408.21503434 -84.3961814 409.65598356 -85.82159364 411.09724307 C-86.67753826 411.9439901 -87.53348288 412.79073713 -88.41536522 413.66314316 C-89.14909493 414.3973076 -89.88282464 415.13147205 -90.63878858 415.8878839 C-94.84532327 419.18109743 -99.49900176 420.17970867 -104.80859375 419.98828125 C-118.95568991 417.9895172 -129.67025591 403.11128554 -139.27832031 393.52368164 C-140.59006201 392.2182197 -141.90198744 390.91294235 -143.21408081 389.60783386 C-147.4847858 385.357971 -151.75033625 381.10295381 -156.015625 376.84765625 C-157.49206176 375.37527281 -158.96853036 373.90292129 -160.44503021 372.43060112 C-167.3769925 365.51763733 -174.30657735 358.60230129 -181.23322797 351.68401533 C-189.20451473 343.72251734 -197.18403041 335.76938656 -205.17056203 327.82318217 C-211.36384463 321.66009407 -217.54939824 315.48931663 -223.72925639 309.31276792 C-227.41213709 305.63223135 -231.09821136 301.95503704 -234.79251862 298.28596687 C-238.26518081 294.83665256 -241.7281155 291.37785677 -245.18399429 287.91172981 C-246.44867571 286.64655478 -247.71674448 285.38475467 -248.98854446 284.12673569 C-266.64302585 266.65281712 -266.64302585 266.65281712 -267.09765625 254.99609375 C-266.32645767 243.87954836 -254.53041753 235.13284645 -247.17662048 227.78617859 C-246.20119608 226.80816503 -245.2259847 225.82993898 -244.25096613 224.85152084 C-241.58982996 222.18237726 -238.92562116 219.51631984 -236.26084936 216.85080659 C-233.38040644 213.96850235 -230.50281238 211.08335608 -227.62480164 208.19862366 C-221.34265587 201.90294308 -215.0567765 195.61099932 -208.77006602 189.31987739 C-204.84352267 185.39056586 -200.91771492 181.46051996 -196.99203682 177.53034401 C-186.11704199 166.64316756 -175.24110911 155.75693014 -164.36171627 144.87414837 C-163.66661523 144.17882777 -162.9715142 143.48350716 -162.25534949 142.76711624 C-161.55863122 142.07017969 -160.86191295 141.37324314 -160.14408201 140.65518731 C-158.73236497 139.24302681 -157.32064949 137.83086476 -155.90893555 136.41870117 C-155.20868283 135.71822703 -154.50843012 135.01775289 -153.78695763 134.29605225 C-142.42429036 122.92943145 -131.06840024 111.55606544 -119.71539193 100.17979803 C-108.05225964 88.49296448 -96.38352168 76.81175265 -84.70911604 65.13618022 C-78.15711079 58.58325803 -71.60754702 52.0279361 -65.0641613 45.46640587 C-59.49702979 39.88389062 -53.92480752 34.30652081 -48.34584516 28.73582783 C-45.49978504 25.89367903 -42.65621487 23.04915049 -39.81912231 20.19804764 C-37.22196291 17.58817997 -34.61797615 14.98533302 -32.00838322 12.38789926 C-30.61930494 11.00171253 -29.23761722 9.608132 -27.85620826 8.21430224 C-19.86650637 0.28805727 -11.35333936 -4.83524265 0 0 Z " fill="#FF6633" transform="translate(455.9375,475.3125)"/>
<path d="M0 0 C0.98484375 -0.02835937 1.9696875 -0.05671875 2.984375 -0.0859375 C10.37397778 0.95709256 15.62831374 5.16143347 20.72784424 10.34490967 C21.32805602 10.93888149 21.9282678 11.5328533 22.54666781 12.14482427 C24.53970976 14.12201134 26.51826389 16.11306589 28.49707031 18.10449219 C29.92933959 19.53133705 31.36245748 20.95733049 32.7963562 22.38253784 C36.67731509 26.2452988 40.54555922 30.12056076 44.41107273 33.99877071 C48.46310236 38.06094615 52.52490385 42.11333175 56.58514404 46.16729736 C63.40121521 52.97609677 70.20882167 59.79327407 77.01171875 66.61523438 C84.87046392 74.49574721 92.74351513 82.36174673 100.62415242 90.22036242 C107.39688579 96.97492851 114.16177361 103.73727785 120.92019725 110.50616193 C124.95367638 114.54586861 128.98978906 118.58284441 133.03299713 122.61281586 C136.8342005 126.40244222 140.62544267 130.20176321 144.40930557 134.00870132 C145.79739913 135.40207198 147.18888578 136.79207208 148.58403397 138.17837906 C150.49214516 140.0755124 152.38743645 141.98461863 154.28009033 143.89715576 C154.83106046 144.439203 155.38203059 144.98125024 155.94969678 145.53972316 C160.36646535 150.0465439 163.64626764 155.03227599 164.78125 161.31640625 C164.7709375 162.18136719 164.760625 163.04632812 164.75 163.9375 C164.76546875 165.23880859 164.76546875 165.23880859 164.78125 166.56640625 C163.17854319 175.03954005 156.42935291 180.61626839 150.57067871 186.42854309 C149.56711388 187.43485082 148.56420534 188.44181341 147.56189489 189.44937056 C144.81478313 192.20704381 142.05842852 194.95531123 139.3004272 197.70208776 C136.32429626 200.6693628 133.35683443 203.64528595 130.38825989 206.62011719 C124.5757273 212.44213081 118.75519206 218.2560797 112.93184245 224.06727169 C106.15199019 230.83349637 99.37978211 237.60735048 92.60779852 244.38144895 C80.52718729 256.46524889 68.43916594 268.54160922 56.34716797 280.61401367 C44.60962896 292.33253848 32.8780791 304.05701789 21.15283203 315.7878418 C8.38538711 328.56134128 -4.38516104 341.33172233 -17.16131926 354.09650725 C-18.52288598 355.45686668 -19.88445205 356.81722676 -21.24601746 358.17758751 C-21.91595345 358.84691997 -22.58588945 359.51625242 -23.27612653 360.20586768 C-28.00133939 364.92719817 -32.72440923 369.65066604 -37.44673157 374.37488747 C-43.19826763 380.12854315 -48.95345057 385.87852167 -54.71330655 391.62384889 C-57.65297437 394.55626196 -60.59102123 397.49025183 -63.524786 400.4285717 C-66.20859706 403.11644845 -68.89695735 405.79968461 -71.58907813 408.47923776 C-73.02680008 409.91262867 -74.45960863 411.35094256 -75.89225626 412.78940517 C-76.74421878 413.6355355 -77.59618131 414.48166583 -78.47396088 415.35343647 C-79.20845003 416.08705884 -79.94293918 416.82068122 -80.69968557 417.57653457 C-84.73819637 421.11897761 -87.79266825 421.66885548 -93.125 421.6875 C-94.22585938 421.70425781 -95.32671875 421.72101563 -96.4609375 421.73828125 C-103.32343986 420.9803089 -107.46271711 417.10086961 -112.10795593 412.41145325 C-112.71941509 411.8060852 -113.33087424 411.20071715 -113.96086246 410.57700461 C-116.00151054 408.55296402 -118.03132272 406.51840155 -120.0612793 404.48364258 C-121.52465327 403.02761017 -122.98864825 401.57220168 -124.45321655 400.11737061 C-128.42505695 396.16774469 -132.38720421 392.20852965 -136.3470037 388.24683595 C-139.65462782 384.93909213 -142.96658264 381.63570105 -146.27843028 378.33218688 C-154.0918545 370.53799628 -161.89707731 362.73565776 -169.69750977 354.9284668 C-177.74245468 346.87687991 -185.80204223 338.84016473 -193.86882657 330.81046373 C-200.79682643 323.91315812 -207.71512385 317.00622378 -214.62584621 310.09160727 C-218.75225295 305.9631329 -222.88234556 301.83852267 -227.0220089 297.72333717 C-230.91472623 293.85287951 -234.79519497 289.97054588 -238.66662216 286.07879639 C-240.08811226 284.65389504 -241.51386802 283.23323431 -242.9441967 281.81720543 C-244.89893564 279.88066443 -246.83756305 277.92927521 -248.772995 275.97346497 C-249.62337508 275.14186166 -249.62337508 275.14186166 -250.49093455 274.29345828 C-255.20373175 269.47393504 -257.3403787 264.65197042 -258.1875 257.875 C-256.99607498 248.34359987 -250.55573903 242.61449549 -244.03271484 236.16323853 C-243.02481161 235.15215528 -242.01778494 234.14019762 -241.01155663 233.12744749 C-238.25525913 230.35836814 -235.48669022 227.60185498 -232.71588421 224.84730363 C-229.72566505 221.87027375 -226.74702642 218.88169535 -223.76690674 215.89456177 C-217.9323346 210.04991968 -212.08715888 204.21599466 -206.23829889 198.38565452 C-199.42851112 191.59665436 -192.6292096 184.79719236 -185.83029532 177.9973058 C-173.70172062 165.86773041 -161.5635173 153.74783641 -149.41992188 141.63330078 C-137.6327088 129.87428012 -125.85254101 118.10826062 -114.08007812 106.33447266 C-113.35456371 105.60887833 -112.6290493 104.883284 -111.8815496 104.13570197 C-111.15729608 103.41136774 -110.43304256 102.68703351 -109.68684196 101.94074976 C-96.2858573 88.53838614 -82.87830663 75.14260827 -69.46767938 61.74989361 C-64.7231 57.01135054 -59.98047898 52.27085273 -55.23846436 47.52974319 C-49.46323899 41.75588083 -43.68425573 35.98580965 -37.90052366 30.22046812 C-34.94871926 27.27790858 -31.99851921 24.33378734 -29.05258942 21.38534546 C-26.35767997 18.6882494 -23.65821839 15.99579987 -20.95498967 13.30704276 C-19.97618767 12.33187342 -18.99907276 11.35500727 -18.02379489 10.3763134 C-16.70101029 9.04940828 -15.3715061 7.72921194 -14.04165649 6.40938759 C-13.30412958 5.67326953 -12.56660267 4.93715146 -11.80672646 4.17872679 C-7.9889844 0.83060842 -5.04184066 0.06530882 0 0 Z " fill="#FFC900" transform="translate(918.75,379.625)"/>
<path d="M0 0 C0.88300781 0.12503906 1.76601563 0.25007812 2.67578125 0.37890625 C12.5659099 3.85520309 20.32175385 13.78208817 27.56738281 21.04272461 C28.96066524 22.43165487 30.3543634 23.82016821 31.7484436 25.20829773 C35.51735347 28.96386441 39.27988205 32.72576202 43.04085636 36.48927379 C46.18533796 39.63482772 49.3327969 42.77739423 52.48020625 45.92001826 C59.90484409 53.33357829 67.32416222 60.7524327 74.74023438 68.17456055 C82.38531891 75.82569167 90.03955046 83.46758396 97.69828916 91.10504526 C104.28222081 97.67135875 110.8603283 104.24346717 117.43382907 110.82022291 C121.35630073 114.74450635 125.28095807 118.66653851 129.21128082 122.58296013 C132.9050394 126.26414071 136.59146544 129.95251048 140.27241135 133.64650154 C141.62266671 134.99912181 142.97547492 136.34919932 144.33103561 137.69650269 C146.18421146 139.53920317 148.02785165 141.39095886 149.8694458 143.245224 C150.40485214 143.77325605 150.94025847 144.3012881 151.49188924 144.84532112 C157.76244603 151.20667861 160.65329821 157.29271584 161.015625 166.2421875 C160.23006086 171.49798566 157.16276461 175.33735334 153.50606728 178.99645615 C152.64974571 179.86060096 151.79342414 180.72474576 150.91115344 181.61507678 C149.96065058 182.55909433 149.01000589 183.50296909 148.05923462 184.44671631 C147.04899698 185.46041207 146.03941403 186.47476062 145.03042924 187.48970342 C142.26020125 190.27244951 139.48070047 193.04576806 136.69956589 195.81760812 C133.70024136 198.81014596 130.70956124 201.81130157 127.71775818 204.81135559 C121.85738985 210.68506698 115.98893582 216.55063511 110.11754729 222.41332856 C105.34670367 227.17739895 100.57879393 231.94438709 95.81296921 236.71347809 C95.13485579 237.39205121 94.45674237 238.07062433 93.75808006 238.76976027 C92.3805616 240.14823789 91.00304988 241.52672225 89.62554483 242.90521327 C76.70732068 255.83199282 63.7799156 268.74955954 50.84935729 281.66399971 C39.75079943 292.74915123 28.66013506 303.84214917 17.57519531 314.94091797 C4.70562485 327.82653635 -8.16878983 340.70728254 -21.05099452 353.58027101 C-22.4241152 354.95243603 -23.79722961 356.32460733 -25.17033768 357.69678497 C-26.18376541 358.70951847 -26.18376541 358.70951847 -27.21766644 359.74271123 C-31.98206538 364.50451814 -36.74297062 369.26980104 -41.5025444 374.03643036 C-47.30090791 379.84320016 -53.10457076 385.64460975 -58.91513155 391.43917528 C-61.88050011 394.3966499 -64.84340149 397.35649012 -67.79987144 400.32286263 C-70.50508468 403.03699972 -73.21709775 405.74414099 -75.93475635 408.44581488 C-76.91784935 409.42555034 -77.89840904 410.40783559 -78.87618832 411.39287421 C-80.20367171 412.72945643 -81.54128292 414.05595706 -82.87938499 415.38190842 C-83.62011202 416.12214839 -84.36083905 416.86238836 -85.12401235 417.62505984 C-88.80889355 420.67676848 -92.39290934 421.73605265 -97.125 421.8125 C-97.91519531 421.84085937 -98.70539063 421.86921875 -99.51953125 421.8984375 C-106.66687689 420.71887556 -111.87924114 416.46012718 -116.82830811 411.43635559 C-117.43260344 410.83900579 -118.03689877 410.24165598 -118.65950608 409.62620467 C-120.66635865 407.63753558 -122.65874257 405.63499741 -124.65136719 403.63208008 C-126.09349691 402.19701313 -127.53646665 400.76278991 -128.98020935 399.3293457 C-132.88812225 395.44389534 -136.78325165 391.54586486 -140.67550182 387.64473176 C-143.92966123 384.3854551 -147.19001324 381.132409 -150.45037103 377.87933463 C-158.14312865 370.20356594 -165.82556918 362.51757946 -173.50146484 354.82495117 C-181.41319295 346.89629944 -189.34116658 338.98416875 -197.27749324 331.08014566 C-204.09866908 324.28568173 -210.91007397 317.48153253 -217.71366429 310.66945952 C-221.77381444 306.60438535 -225.83743508 302.54294744 -229.91030121 298.49061012 C-233.73996258 294.67933076 -237.55722723 290.85605049 -241.36540413 287.0233078 C-242.76229674 285.62141561 -244.16343382 284.2237376 -245.56915855 282.83070183 C-247.49281464 280.92303759 -249.40029137 279.00048776 -251.30462646 277.07356262 C-252.13691808 276.2590246 -252.13691808 276.2590246 -252.98602366 275.42803127 C-257.80668909 270.49110942 -261.4088039 264.40118043 -261.8125 257.375 C-260.57111474 247.59909111 -254.39678899 241.95271494 -247.6778717 235.30839539 C-246.67893079 234.30627438 -245.68086645 233.30327896 -244.68360037 232.29949123 C-241.95203565 229.55514566 -239.20820225 226.82336626 -236.46212924 224.09354866 C-233.49847554 221.14308521 -230.54640361 218.18107228 -227.59284973 215.22050476 C-221.81007932 209.42766444 -216.01670575 203.6455418 -210.21964771 197.86700334 C-203.46908131 191.13722725 -196.729004 184.39698668 -189.98931234 177.65632281 C-177.96503981 165.63104958 -165.93113898 153.61545789 -153.8918457 141.60522461 C-142.20847679 129.95004199 -130.53214712 118.28786698 -118.86352539 106.61791992 C-118.14455037 105.89886499 -117.42557535 105.17981006 -116.68481321 104.43896558 C-115.96708277 103.72115444 -115.24935234 103.00334329 -114.5098725 102.2637803 C-101.22460847 88.97713681 -87.93277619 75.69708148 -74.63787119 62.42008543 C-69.93584206 57.7240897 -65.23576857 53.02614199 -60.53630257 48.32758141 C-54.81124427 42.60388701 -49.08242245 36.8839897 -43.34886462 31.16880908 C-40.42326887 28.25244995 -37.49926785 25.33453901 -34.57954407 22.41230011 C-31.90740585 19.73797168 -29.23070114 17.06830473 -26.55025297 14.40230606 C-25.12123842 12.97863661 -23.69710874 11.55006914 -22.27315193 10.12134093 C-20.99744667 8.855309 -20.99744667 8.855309 -19.69596958 7.56370068 C-18.96489791 6.83403786 -18.23382625 6.10437504 -17.48060089 5.35260123 C-12.0237737 0.5325412 -7.18811238 -1.15467507 0 0 Z " fill="#00E7FB" transform="translate(544.3125,0.5625)"/>
<path d="M0 0 C0.84433594 0.12246094 1.68867187 0.24492187 2.55859375 0.37109375 C12.74018416 4.40930581 20.74483771 14.44114317 28.35644531 22.05004883 C29.72856687 23.41453741 31.10108559 24.7786267 32.47396851 26.14234924 C36.18107884 29.82762904 39.88170178 33.5193549 43.58046055 37.21301484 C45.89503127 39.52393056 48.21089203 41.83354558 50.52718353 44.14273643 C58.61725032 52.20835542 66.70162222 60.27963735 74.78125 68.35571289 C82.29883211 75.86965607 89.82945957 83.37035019 97.36610723 90.86516553 C103.85079123 97.31512118 110.32578524 103.77469931 116.79347682 110.24169368 C120.65025939 114.09768479 124.51088245 117.94962722 128.38150787 121.79172707 C132.02058665 125.40457968 135.64742901 129.02928841 139.26539993 132.66327477 C140.59090894 133.99059417 141.92065883 135.31369483 143.25503922 136.63209534 C159.31931326 152.51572847 159.31931326 152.51572847 160.125 163.6875 C160.139708 172.1887254 154.40272056 178.18707224 148.79726189 183.85804963 C147.87986051 184.76584601 146.96245912 185.67364239 146.01725769 186.60894775 C145.02799361 187.60210894 144.03960423 188.59614204 143.05201131 189.59096503 C140.34711467 192.31057516 137.62994916 195.01762492 134.91053331 197.72270632 C131.97548662 200.64662386 129.0520088 203.58207005 126.12702942 206.51605225 C120.39982617 212.25717642 114.66194952 217.98751696 108.92025825 223.71414784 C102.23249614 230.38503592 95.55479769 237.0659603 88.87734 243.74716017 C76.96204538 255.66833121 65.03675836 267.57945701 53.10620117 279.48535156 C41.53221798 291.03541196 29.96669143 302.59385839 18.40991211 314.16113281 C5.82127388 326.76118273 -6.77209154 339.35647281 -19.37365264 351.94359946 C-20.71758175 353.28600275 -22.06150813 354.62840878 -23.40543175 355.97081757 C-24.06665328 356.63128128 -24.7278748 357.29174499 -25.40913335 357.97222276 C-30.06623172 362.62458047 -34.72002861 367.28022508 -39.37262917 371.93708038 C-45.043084 377.61246404 -50.71896804 383.28235175 -56.40179304 388.94534996 C-59.30055795 391.83424979 -62.19689973 394.72547118 -65.08679581 397.62324524 C-67.73346329 400.2769798 -70.3869815 402.92365889 -73.04608484 405.56493065 C-74.45938012 406.97227868 -75.86535276 408.38696858 -77.27103168 409.80192399 C-87.42941961 419.85914654 -87.42941961 419.85914654 -94.46484375 421.09375 C-95.42519531 421.0834375 -96.38554688 421.073125 -97.375 421.0625 C-98.81166016 421.07796875 -98.81166016 421.07796875 -100.27734375 421.09375 C-107.59472198 419.8636345 -112.82739238 415.76462366 -117.91534424 410.59931946 C-118.51555602 410.00605321 -119.1157678 409.41278695 -119.73416781 408.80154294 C-121.72720066 406.8266918 -123.70576473 404.83797576 -125.68457031 402.84887695 C-127.116848 401.42366213 -128.54996567 399.99929101 -129.9838562 398.57569885 C-133.86491016 394.71710642 -137.73318104 390.84593571 -141.59857273 386.97166085 C-144.83036414 383.734752 -148.06834829 380.50407412 -151.30633807 377.27336758 C-158.94635794 369.65033633 -166.57606085 362.01708811 -174.19921875 354.37719727 C-182.05641566 346.50307677 -189.9298571 338.64547825 -197.81165242 330.79598647 C-204.58611987 324.0482315 -211.35081544 317.29079091 -218.10769725 310.52542657 C-222.13990202 306.48829793 -226.17557609 302.45480554 -230.22049713 298.4304142 C-234.02389461 294.64539963 -237.81489255 290.84838409 -241.59680557 287.04190636 C-242.98402297 285.64968966 -244.3754843 284.26168638 -245.77153397 282.87832642 C-247.68205525 280.98379874 -249.57639031 279.07438723 -251.46759033 277.16059875 C-252.01856046 276.62146436 -252.56953059 276.08232996 -253.13719678 275.52685815 C-258.86835152 269.65654834 -261.88660799 263.03884006 -261.87109375 254.80078125 C-260.85292153 249.54481113 -257.96901198 245.71870556 -254.26444721 242.00354385 C-252.98274001 240.70732664 -252.98274001 240.70732664 -251.67513973 239.38492322 C-250.72670677 238.44090309 -249.778129 237.49702842 -248.829422 236.55328369 C-247.8213274 235.53958166 -246.81388239 234.52523329 -245.80703086 233.51029658 C-243.04261388 230.72754525 -240.26890823 227.95421837 -237.49354303 225.18239188 C-234.50033912 222.18980048 -231.51574377 219.18864395 -228.52996826 216.18864441 C-222.68090122 210.31466818 -216.82352962 204.44904177 -210.96283243 198.58667144 C-206.19967582 193.82208911 -201.43889652 189.05514439 -196.67978477 184.28652191 C-183.18720893 170.76753123 -169.68836541 157.25484397 -156.18145064 143.7501792 C-155.45343472 143.02228315 -154.7254188 142.2943871 -153.9753418 141.54443359 C-153.24643617 140.8156506 -152.51753053 140.08686762 -151.76653685 139.33600029 C-139.94874968 127.519433 -128.14600517 115.68796631 -116.34999088 103.84966758 C-104.23841235 91.69501638 -92.11570194 79.55156697 -79.98127097 67.41972899 C-73.16861121 60.60806567 -66.36065686 53.79184722 -59.56464577 46.96356964 C-53.77958787 41.15122142 -47.98427941 35.34934219 -42.17537258 29.56082472 C-39.2118398 26.60709954 -36.25336256 23.6487381 -33.30774498 20.67713737 C-30.61059648 17.95644302 -27.89995506 15.24999451 -25.17794033 12.55418512 C-24.19620762 11.57706836 -23.21950553 10.59486525 -22.24846122 9.60712579 C-15.48898769 2.739204 -10.12977599 -1.7422598 0 0 Z " fill="#FF6633" transform="translate(734.4375,190.4375)"/>
<path d="M0 0 C0.87785156 0.66515625 1.75570312 1.3303125 2.66015625 2.015625 C9.44305553 7.30435154 15.75436566 13.09699782 22 19 C23.28583984 20.20462891 23.28583984 20.20462891 24.59765625 21.43359375 C35.79526499 32.24079458 44.7243311 44.87977855 53 58 C53.68835937 59.08410156 54.37671875 60.16820312 55.0859375 61.28515625 C59.42118679 68.47344508 62.79607257 75.87592221 66 83.625 C66.39840088 84.58607666 66.79680176 85.54715332 67.20727539 86.53735352 C67.57199951 87.44541748 67.93672363 88.35348145 68.3125 89.2890625 C68.63863281 90.10068848 68.96476562 90.91231445 69.30078125 91.74853516 C70 94 70 94 70 98 C63.79372466 100.49273138 57.58632615 102.9826501 51.37817383 105.47070312 C49.27049803 106.31577323 47.16307123 107.16146464 45.0559082 108.0078125 C42.01059681 109.23084071 38.9643688 110.45156142 35.91796875 111.671875 C34.52664986 112.23149933 34.52664986 112.23149933 33.10722351 112.8024292 C26.78335217 115.33219 20.41365358 117.70767086 14 120 C13.505 118.865625 13.01 117.73125 12.5 116.5625 C11.66846083 114.70752801 10.83478795 112.85351222 10 111 C9.5973291 110.09072754 9.5973291 110.09072754 9.18652344 109.16308594 C-3.27786599 81.12856222 -21.62768046 55.45926887 -48 39 C-48.91120605 38.42693115 -48.91120605 38.42693115 -49.84082031 37.84228516 C-70.5150109 25.05340859 -93.07559182 18.39641686 -117 15 C-117.93972656 14.8659375 -118.87945312 14.731875 -119.84765625 14.59375 C-155.64973844 10.50856788 -193.35690572 17.34934255 -222 40 C-238.98466975 54.90929578 -249.5510092 75.55091769 -252 98 C-253.63182174 130.33948285 -246.87412777 157.33424404 -225 182 C-224.38640625 182.69738281 -223.7728125 183.39476562 -223.140625 184.11328125 C-199.94459391 208.84580157 -165.25454373 217.83154132 -133.8891716 226.97132874 C-129.7433613 228.18238417 -125.60140379 229.40646361 -121.45922852 230.62988281 C-110.71694053 233.80075391 -99.97015323 236.95622801 -89.22216797 240.10772705 C-61.6158117 248.20507809 -34.45250383 256.28452262 -9 270 C-8.34773438 270.34353516 -7.69546875 270.68707031 -7.0234375 271.04101562 C10.48589411 280.28580751 25.0868419 291.95412497 39 306 C39.76699219 306.76957031 40.53398437 307.53914063 41.32421875 308.33203125 C57.87144315 325.69977917 67.67536941 347.82360422 73 371 C73.19650146 371.83942139 73.39300293 372.67884277 73.59545898 373.54370117 C75.46765208 382.87802805 75.33718521 392.29011719 75.31567383 401.77026367 C75.31252525 404.66428745 75.3360013 407.55727457 75.36132812 410.45117188 C75.49075194 448.41332742 61.54366368 483.69288378 34.9921875 511.01171875 C33.9981948 512.01120848 33.00083299 513.00735982 32 514 C31.51563477 514.48162598 31.03126953 514.96325195 30.53222656 515.45947266 C18.51912182 527.25189578 4.88749964 536.23801965 -10 544 C-10.65274902 544.34272949 -11.30549805 544.68545898 -11.97802734 545.03857422 C-66.67332115 573.34139036 -136.18992439 574.5952032 -194.16699219 556.20092773 C-253.74120777 536.61805088 -302.5942017 494.84182216 -331 439 C-343 414.31573987 -343 414.31573987 -343 407 C-335.75250311 404.25613407 -328.50302266 401.5175832 -321.25095654 398.78582001 C-317.88367604 397.51721633 -314.51710896 396.24678499 -311.15209961 394.97216797 C-307.90529117 393.74240061 -304.65670488 392.51744614 -301.40682411 391.29582214 C-299.56261277 390.60114946 -297.72028167 389.90149179 -295.87797546 389.20178223 C-294.19657219 388.57112854 -294.19657219 388.57112854 -292.48120117 387.92773438 C-290.99894295 387.36814026 -290.99894295 387.36814026 -289.48674011 386.79724121 C-287 386 -287 386 -284 386 C-283.79955078 386.52207031 -283.59910156 387.04414062 -283.39257812 387.58203125 C-273.06826034 414.3175662 -260.41460356 438.89753792 -240.32519531 459.62353516 C-239.20531544 460.78674126 -238.11129731 461.97476283 -237.0234375 463.16796875 C-210.47358891 491.53069247 -167.46950035 506.80598113 -129.35620117 508.1262207 C-125.13341507 508.21996347 -120.91123441 508.2465856 -116.6875 508.25 C-115.55874954 508.25101212 -115.55874954 508.25101212 -114.40719604 508.25204468 C-102.06045538 508.23451577 -90.11166739 507.57921905 -78 505 C-77.20674316 504.83371094 -76.41348633 504.66742187 -75.59619141 504.49609375 C-48.43614925 498.57863449 -20.89740479 485.629247 -4.83984375 462.03515625 C9.9448809 437.64506908 14.09809864 410.01792314 7.54785156 382.08496094 C0.74062572 356.17867363 -15.09282126 338.97558796 -37.62962341 325.50785828 C-54.04322499 315.97369349 -72.28882335 310.40829929 -90.375 305 C-92.49384377 304.35903089 -94.61249125 303.7174126 -96.73095703 303.07519531 C-111.60723133 298.57598893 -126.51278331 294.17477606 -141.41766357 289.77148438 C-208.27393425 270.01852214 -208.27393425 270.01852214 -224 262 C-224.7120459 261.64728027 -225.4240918 261.29456055 -226.15771484 260.93115234 C-239.94958819 254.08204459 -252.13654055 245.84772121 -264 236 C-264.63550781 235.48824219 -265.27101562 234.97648437 -265.92578125 234.44921875 C-269.77243261 231.28490022 -273.04874221 227.83953907 -276.265625 224.0390625 C-277.35322237 222.76040073 -278.46479801 221.50135748 -279.609375 220.2734375 C-308.49148153 189.05325567 -319.07531227 147.91939034 -318.140625 106.36669922 C-316.55156936 68.32316229 -301.18073425 34.33364732 -275 7 C-274.30777344 6.25621094 -273.61554688 5.51242187 -272.90234375 4.74609375 C-210.38136196 -60.498125 -96.95510052 -57.91551392 0 0 Z " fill="#191C23" transform="translate(4592,281)"/>
<path d="M0 0 C34.65 0 69.3 0 105 0 C105 32.34 105 64.68 105 98 C137.67 98 170.34 98 204 98 C204 129.02 204 160.04 204 192 C171.33 192 138.66 192 105 192 C105.09064891 226.46978743 105.09064891 226.46978743 105.20898438 260.93945312 C105.26340818 275.00234793 105.31482395 289.06520676 105.34643555 303.12817383 C105.36947533 313.37157712 105.40293986 323.61488547 105.44870156 333.85821337 C105.47255328 339.27737245 105.49133469 344.69643797 105.49761391 350.11564827 C105.50370134 355.22677548 105.52383202 360.33766353 105.55427551 365.44870186 C105.56299748 367.31456333 105.56679059 369.18045613 105.56500816 371.04633713 C105.55204999 390.88805851 107.99947964 410.26835323 121.59765625 425.828125 C130.57303765 434.58651915 143.82325454 439.90414481 156 442 C157.50046875 442.27650391 157.50046875 442.27650391 159.03125 442.55859375 C164.67180028 443.18593842 170.26678744 443.14395503 175.9375 443.125 C177.05962891 443.12886719 178.18175781 443.13273437 179.33789062 443.13671875 C188.2972629 443.12654343 197.0147422 442.56157861 206 442 C206 471.7 206 501.4 206 532 C181.18158284 535.54548817 181.18158284 535.54548817 173.4375 536.1875 C172.4882666 536.26645508 171.5390332 536.34541016 170.56103516 536.42675781 C127.54238542 539.73643578 81.09135462 532.53128927 47.36328125 503.75 C44.86702862 501.54105896 42.42703057 499.28451064 40 497 C39.11248047 496.20916016 39.11248047 496.20916016 38.20703125 495.40234375 C13.16778705 472.14736874 1.2920012 434.08843647 -0.09203637 400.78539932 C-0.1245382 398.49214736 -0.12866005 396.20079964 -0.12025452 393.90733337 C-0.12110894 393.038014 -0.12196337 392.16869463 -0.12284368 391.27303225 C-0.12447955 388.38504358 -0.11900836 385.4971141 -0.11352539 382.60913086 C-0.11324308 380.52901206 -0.1134021 378.44889316 -0.1139679 376.36877441 C-0.11425417 370.73931284 -0.10838485 365.10987267 -0.10139394 359.48041606 C-0.09513216 353.59075069 -0.09455437 347.70108481 -0.09336853 341.81141663 C-0.09026354 330.66630672 -0.08206137 319.52120665 -0.07201904 308.37610108 C-0.06083206 295.68447856 -0.05534094 282.99285558 -0.05032361 270.30122936 C-0.03987806 244.20081287 -0.02154292 218.10040985 0 192 C-24.75 192 -49.5 192 -75 192 C-75 160.98 -75 129.96 -75 98 C-67.74 97.67 -60.48 97.34 -53 97 C-37.09469515 93.95927996 -22.35025345 88.71078659 -12.375 75.375 C2.40924855 53.06603302 -0.62794074 25.74557028 0 0 Z " fill="#191C23" transform="translate(2912,307)"/>
<path d="M0 0 C25.0947909 24.48887387 39.01005978 58.06714592 39.72818375 92.99902344 C39.8133802 100.13019126 39.8033214 107.26102004 39.78242421 114.392488 C39.77369633 118.13593591 39.7767164 121.87937802 39.77822876 125.62283325 C39.77927177 132.09087798 39.77305667 138.55888201 39.76175308 145.0269165 C39.74542123 154.37832429 39.74028226 163.72971262 39.7377771 173.08113313 C39.73341198 188.25730625 39.72013518 203.43345774 39.70117188 218.60961914 C39.68278232 233.34203992 39.66864091 248.07445481 39.66015625 262.80688477 C39.6596308 263.71670184 39.65910536 264.62651891 39.65856399 265.56390619 C39.6559537 270.12870181 39.65342633 274.69349747 39.65094018 279.25829315 C39.63024457 317.06064239 39.59339484 354.86295157 39.55029297 392.6652832 C19.42029297 392.6652832 -0.70970703 392.6652832 -21.44970703 392.6652832 C-21.77970703 373.8552832 -22.10970703 355.0452832 -22.44970703 335.6652832 C-26.07970703 339.9552832 -29.70970703 344.2452832 -33.44970703 348.6652832 C-62.76670163 380.38531014 -109.89237484 400.14670246 -152.7878418 401.95239258 C-157.28800689 402.07516291 -161.78484691 402.08789548 -166.28637695 402.05639648 C-169.01515474 402.04026578 -171.74245684 402.05638984 -174.47119141 402.07543945 C-189.80377255 402.0943726 -204.931016 400.4564857 -219.69970703 396.1652832 C-220.55048828 395.91883057 -221.40126953 395.67237793 -222.27783203 395.41845703 C-238.06153462 390.55917577 -253.50908357 382.96011733 -266.44970703 372.6652832 C-267.0251123 372.21040527 -267.60051758 371.75552734 -268.19335938 371.28686523 C-276.30079346 364.81432584 -283.25172645 358.04126901 -289.44970703 349.6652832 C-290.05041016 348.89055664 -290.65111328 348.11583008 -291.27001953 347.31762695 C-310.26960137 321.80025134 -314.53056939 289.58921717 -310.13720703 258.7199707 C-305.17311284 227.73870428 -288.38904268 199.46726971 -263.29370117 180.58935547 C-240.01932946 163.84674892 -212.88976414 153.55878246 -184.81787109 148.31689453 C-183.70913258 148.10701558 -182.60039406 147.89713663 -181.4580574 147.68089771 C-167.31604438 145.03552494 -153.12472964 142.67399893 -138.93326473 140.3120153 C-135.79085594 139.78864359 -132.6487756 139.26331372 -129.50668263 138.73804981 C-122.10309188 137.50046278 -114.69894805 136.2662272 -107.29443359 135.03417969 C-99.68034202 133.76719456 -92.06727551 132.49417735 -84.45465922 131.2183606 C-77.86954145 130.11497136 -71.28380292 129.01534446 -64.69755483 127.91872245 C-60.78386953 127.2670439 -56.870435 126.61394608 -52.95760345 125.95715904 C-49.29729257 125.34291745 -45.63622851 124.73338236 -41.97453308 124.12745094 C-39.99775926 123.79915136 -38.02178352 123.46605757 -36.0458374 123.1328125 C-34.27236938 122.84074165 -34.27236938 122.84074165 -32.46307373 122.54277039 C-31.44046825 122.37228023 -30.41786278 122.20179007 -29.36426926 122.02613354 C-26.36266751 121.65450689 -23.47103777 121.6021398 -20.44970703 121.6652832 C-20.6398112 116.81183115 -20.85255988 111.96003282 -21.08447266 107.10839844 C-21.16004846 105.46510509 -21.22990925 103.8215368 -21.29345703 102.17773438 C-21.84094041 88.17841324 -23.52778878 74.93871692 -30.19970703 62.3527832 C-30.54187256 61.68964111 -30.88403809 61.02649902 -31.23657227 60.34326172 C-34.32257332 54.54987111 -38.02400303 49.51723329 -42.44970703 44.6652832 C-43.20767578 43.7700293 -43.20767578 43.7700293 -43.98095703 42.85668945 C-58.7618261 26.52986214 -83.82781031 17.16270027 -105.44970703 15.6652832 C-121.21074347 15.05581429 -137.09168602 14.67702225 -152.44970703 18.6652832 C-153.10503418 18.83157227 -153.76036133 18.99786133 -154.43554688 19.16918945 C-185.73887097 27.31756015 -210.95666936 48.19815471 -227.44970703 75.6652832 C-229.17084545 78.63815865 -230.84947013 81.62563723 -232.44970703 84.6652832 C-245.0590462 78.52750193 -257.40151908 71.92699822 -269.69335938 65.17797852 C-271.41840999 64.2312634 -273.14504957 63.2874314 -274.87402344 62.34790039 C-276.88386526 61.25488358 -278.8867691 60.1503899 -280.88720703 59.0402832 C-282.49402344 58.15469727 -282.49402344 58.15469727 -284.13330078 57.2512207 C-286.44970703 55.6652832 -286.44970703 55.6652832 -287.44970703 52.6652832 C-286.7722168 50.83105469 -286.7722168 50.83105469 -285.64111328 48.78637695 C-285.22788818 48.03485352 -284.81466309 47.28333008 -284.38891602 46.5090332 C-283.93460205 45.7149707 -283.48028809 44.9209082 -283.01220703 44.1027832 C-282.55209229 43.28938477 -282.09197754 42.47598633 -281.61791992 41.63793945 C-278.07303496 35.49191769 -274.19020891 29.95635519 -269.44970703 24.6652832 C-268.75361328 23.86219727 -268.05751953 23.05911133 -267.34033203 22.23168945 C-265.08474109 19.66815436 -262.7808671 17.16023393 -260.44970703 14.6652832 C-259.64017578 13.79000977 -258.83064453 12.91473633 -257.99658203 12.01293945 C-242.12995369 -4.54250958 -222.11719642 -16.70233336 -201.44970703 -26.3347168 C-200.31146484 -26.86838867 -199.17322266 -27.40206055 -198.00048828 -27.9519043 C-133.98133256 -56.65271046 -52.06570129 -48.89326335 0 0 Z M-31.14868164 177.50480652 C-32.28635986 177.69110626 -33.42403809 177.87740601 -34.59619141 178.0693512 C-35.835625 178.27656296 -37.07505859 178.48377472 -38.35205078 178.69726562 C-39.67825036 178.9160767 -41.00450513 179.13455355 -42.33081055 179.35272217 C-45.93164222 179.94621521 -49.5315861 180.54493451 -53.13132858 181.1449945 C-56.15151058 181.64806057 -59.17207176 182.14882967 -62.19262028 182.6496895 C-69.34016006 183.83502376 -76.48694059 185.02486159 -83.63330078 186.21728516 C-90.95328142 187.43858062 -98.27460928 188.65153533 -105.59665585 189.86037749 C-111.91554245 190.90396641 -118.23344795 191.95335998 -124.5506525 193.00708276 C-128.30827932 193.63377872 -132.06622367 194.2583583 -135.82516479 194.87712669 C-182.26572602 201.80557166 -182.26572602 201.80557166 -222.44970703 224.6652832 C-223.19865234 225.32012695 -223.94759766 225.9749707 -224.71923828 226.6496582 C-237.75479021 238.81913428 -245.79217651 256.19913863 -246.70361328 273.98168945 C-247.32804578 292.53490363 -242.77720577 307.88313868 -230.19970703 321.9152832 C-214.43228998 338.75172355 -193.2360726 346.74626537 -170.44970703 347.6652832 C-132.66200154 348.24293792 -97.55234301 338.28703714 -68.44970703 313.6652832 C-67.23154297 312.65014648 -67.23154297 312.65014648 -65.98876953 311.61450195 C-39.48113899 288.74435384 -23.58339064 254.72675032 -20.96435547 219.99951172 C-20.0271948 205.59312408 -20.36026709 191.09400903 -20.44970703 176.6652832 C-24.12330708 176.57537123 -27.52549307 176.90527906 -31.14868164 177.50480652 Z " fill="#191C23" transform="translate(5744.44970703125,447.334716796875)"/>
<path d="M0 0 C1.6773288 1.55104872 3.34302004 3.11473128 5 4.6875 C5.52029785 5.17524902 6.0405957 5.66299805 6.57666016 6.16552734 C20.77870893 19.55649863 32.2840975 34.78023998 42 51.6875 C42.66878174 52.84644775 42.66878174 52.84644775 43.35107422 54.02880859 C53.46073628 71.79591157 60.46177409 90.48440331 65.375 110.3125 C65.6016333 111.21516602 65.8282666 112.11783203 66.06176758 113.04785156 C70.11550738 130.55561685 71.50696353 148.31266212 71.39111328 166.23974609 C71.37499921 169.18764459 71.3911063 172.13417296 71.41015625 175.08203125 C71.43100084 193.05500168 69.68455846 210.92050467 65.25 228.375 C64.99323486 229.4077002 64.73646973 230.44040039 64.47192383 231.50439453 C52.29528764 279.07567395 23.75354696 322.60211221 -16 351.6875 C-16.99902344 352.43128906 -17.99804688 353.17507813 -19.02734375 353.94140625 C-51.60764073 377.38077049 -91.62165828 392.57649266 -132.02734375 392.92578125 C-132.9654892 392.93562042 -133.90363464 392.94545959 -134.87020874 392.95559692 C-174.56874017 393.28620976 -174.56874017 393.28620976 -194 388.6875 C-195.57249512 388.3174585 -195.57249512 388.3174585 -197.17675781 387.93994141 C-245.79090411 376.10957924 -290.56453667 347.46130168 -320 306.6875 C-320.70672852 305.71466064 -320.70672852 305.71466064 -321.42773438 304.72216797 C-344.60559295 272.42324956 -357.47307017 235.97448164 -362 196.6875 C-362.13277344 195.53894531 -362.26554687 194.39039063 -362.40234375 193.20703125 C-362.72036425 189.70009288 -362.89866634 186.20589887 -363 182.6875 C-363.02723145 181.77887207 -363.05446289 180.87024414 -363.08251953 179.93408203 C-364.65240511 117.52372532 -346.20594098 58.8241309 -303.17382812 12.73144531 C-238.8688525 -54.77906536 -135.20569623 -71.6523486 0 0 Z M-179 10.6875 C-179.78310547 10.88085938 -180.56621094 11.07421875 -181.37304688 11.2734375 C-200.26839082 16.08262166 -217.31187006 24.12807537 -233 35.6875 C-233.91523438 36.35910156 -234.83046875 37.03070313 -235.7734375 37.72265625 C-266.07725311 61.33779184 -287.1613647 95.08939461 -295 132.6875 C-295.16371094 133.4722168 -295.32742188 134.25693359 -295.49609375 135.06542969 C-304.04957692 178.41603759 -295.80367405 225.41116661 -272 262.6875 C-249.22792 296.57903135 -215.7521559 321.9425218 -175.33081055 330.18188477 C-137.22679294 337.36758253 -97.73292067 330.73863534 -65 309.6875 C-57.13830027 304.27230707 -49.92733898 298.2450909 -43 291.6875 C-42.12730469 290.87925781 -41.25460937 290.07101562 -40.35546875 289.23828125 C-8.68716564 258.92913278 6.29576545 215.19093563 7.35131836 172.04199219 C7.51308841 152.5428645 4.89676815 133.28045708 -1 114.6875 C-1.32242676 113.66849609 -1.32242676 113.66849609 -1.65136719 112.62890625 C-13.61609238 75.92992854 -40.78470698 42.29355289 -75.12768555 24.3125 C-78.38089576 22.68370779 -81.67422891 21.16170716 -85 19.6875 C-85.62616211 19.40680664 -86.25232422 19.12611328 -86.89746094 18.83691406 C-105.54045201 10.59750781 -124.89602051 7.28606806 -145.25 7.375 C-146.26497055 7.37823273 -146.26497055 7.37823273 -147.30044556 7.38153076 C-158.13006261 7.43667089 -168.48301187 8.02692372 -179 10.6875 Z " fill="#191C23" transform="translate(5093,456.3125)"/>
<path d="M0 0 C34.65 0 69.3 0 105 0 C105 198.99 105 397.98 105 603 C70.35 603 35.7 603 0 603 C0 404.01 0 205.02 0 0 Z " fill="#191C23" transform="translate(1735,236)"/>
<path d="M0 0 C19.8 0 39.6 0 60 0 C60 198.99 60 397.98 60 603 C40.2 603 20.4 603 0 603 C0 404.01 0 205.02 0 0 Z " fill="#191C23" transform="translate(5269,236)"/>
<path d="M0 0 C5.48625 0.020625 10.9725 0.04125 16.625 0.0625 C16.625 20.1925 16.625 40.3225 16.625 61.0625 C-6.75 61.375 -6.75 61.375 -14.00537109 61.45043945 C-42.8113149 61.8702986 -69.47966689 67.12469667 -91.375 87.0625 C-92.02984375 87.64773438 -92.6846875 88.23296875 -93.359375 88.8359375 C-113.2928931 107.6228373 -120.74102926 136.89779905 -121.65915489 163.36048317 C-121.8165034 170.47023105 -121.81221433 177.57953405 -121.80737305 184.69067383 C-121.81477031 187.40310944 -121.82661367 190.11552162 -121.83825684 192.82794189 C-121.86084711 198.62253727 -121.87289364 204.41707334 -121.87738609 210.21170998 C-121.88389694 218.58934362 -121.90691958 226.96687093 -121.93372939 235.34446128 C-121.97680891 248.94276055 -122.00688259 262.54105529 -122.02856445 276.1394043 C-122.04963103 289.33408835 -122.07695516 302.52873547 -122.11254883 315.72338867 C-122.11474765 316.53929526 -122.11694648 317.35520185 -122.11921193 318.19583289 C-122.130283 322.28976944 -122.14147554 326.38370565 -122.15272844 330.4776417 C-122.24564631 364.33923863 -122.31493274 398.20082491 -122.375 432.0625 C-142.505 432.0625 -162.635 432.0625 -183.375 432.0625 C-183.375 291.4825 -183.375 150.9025 -183.375 6.0625 C-163.245 6.0625 -143.115 6.0625 -122.375 6.0625 C-122.045 20.2525 -121.715 34.4425 -121.375 49.0625 C-118.405 45.4325 -115.435 41.8025 -112.375 38.0625 C-104.64670207 29.94327649 -96.07568923 23.61160138 -86.375 18.0625 C-85.76172852 17.71058594 -85.14845703 17.35867188 -84.51660156 16.99609375 C-58.39933062 2.31951433 -29.38978237 -0.15741044 0 0 Z " fill="#191C23" transform="translate(6088.375,406.9375)"/>
</svg>
