<svg width="460" height="180" viewBox="0 0 460 180" fill="none" xmlns="http://www.w3.org/2000/svg">
<g clip-path="url(#clip0_2207_26081)">
<path d="M152.975 0.38501C124.656 0.38501 104.654 18.5106 104.654 47.1557V101.239C104.655 102.014 104.963 102.757 105.51 103.306C106.057 103.854 106.799 104.163 107.573 104.165H127.136C127.91 104.163 128.652 103.854 129.199 103.306C129.746 102.757 130.053 102.014 130.055 101.239V47.1557C130.055 32.9483 139.685 24.8608 153.941 25.2459C159.869 25.4214 165.494 27.9045 169.622 32.1673C173.749 36.43 176.052 42.1362 176.042 48.0725V101.239C176.043 102.014 176.351 102.757 176.898 103.306C177.445 103.854 178.187 104.163 178.961 104.165H198.523C199.298 104.163 200.039 103.854 200.586 103.306C201.133 102.757 201.441 102.014 201.442 101.239V47.1557C201.442 18.5106 181.299 0.38501 152.975 0.38501ZM152.975 52.8487C145.385 52.8487 139.982 57.9641 139.982 65.1264V76.8306C139.984 77.6048 140.293 78.3467 140.84 78.8942C141.386 79.4417 142.128 79.7502 142.901 79.7525H163.195C163.969 79.7502 164.71 79.4417 165.257 78.8942C165.804 78.3467 166.112 77.6048 166.114 76.8306V65.1264C166.114 57.9683 160.711 52.8487 152.975 52.8487ZM90.6409 39.1185C90.6409 17.3385 74.4363 1.98827 50.9303 1.98827L2.75997 1.85013C1.98651 1.85234 1.24535 2.16088 0.698431 2.70836C0.151507 3.25584 -0.156729 3.99774 -0.158936 4.77199V101.244C-0.157833 102.019 0.149916 102.762 0.696959 103.31C1.244 103.858 1.98579 104.167 2.75997 104.17H22.3225C23.0967 104.167 23.8385 103.858 24.3855 103.31C24.9326 102.762 25.2403 102.019 25.2414 101.244V26.8408H50.9345C59.11 26.8408 65.0983 32.6887 65.0983 40.5794C65.0983 48.9097 59.11 54.7701 50.9345 54.7701H38.962C38.1885 54.7723 37.4474 55.0809 36.9004 55.6284C36.3535 56.1758 36.0453 56.9177 36.0431 57.692V74.6287C36.0453 75.403 36.3535 76.1449 36.9004 76.6924C37.4474 77.2398 38.1885 77.5484 38.962 77.5506H50.0438C51.2469 77.547 52.4198 77.9279 53.3916 78.6379C54.3634 79.3479 55.0834 80.3499 55.4467 81.498L61.1423 102.119C61.2786 102.71 61.6141 103.236 62.0923 103.609C62.5706 103.982 63.1625 104.178 63.7685 104.165H84.6567C85.193 104.187 85.7263 104.076 86.2098 103.843C86.6932 103.61 87.112 103.261 87.4293 102.828C87.7465 102.395 87.9525 101.89 88.029 101.358C88.1056 100.826 88.0504 100.284 87.8683 99.7785L77.1754 68.2576C85.6394 61.9157 90.6409 51.9404 90.6409 39.1185ZM267.866 1.84594H220.888C220.106 1.84594 219.356 2.15687 218.803 2.71032C218.25 3.26377 217.94 4.01441 217.94 4.7971V101.244C217.942 102.018 218.25 102.76 218.797 103.307C219.344 103.855 220.085 104.163 220.858 104.165H240.421C241.195 104.163 241.937 103.854 242.484 103.306C243.031 102.757 243.339 102.014 243.34 101.239V26.8408H267.866C277.209 26.8408 282.611 32.3957 282.611 40.7259C282.611 49.2027 277.209 54.9041 267.866 54.9041H257.065C256.29 54.9063 255.549 55.2154 255.002 55.7638C254.455 56.3122 254.147 57.0552 254.146 57.8301V76.6841C254.148 77.4583 254.456 78.2002 255.003 78.7477C255.55 79.2952 256.291 79.6037 257.065 79.6059H267.866C291.954 79.6059 308.158 63.2385 308.158 40.7259C308.158 17.9245 291.954 1.84594 267.866 1.84594ZM407.167 1.84594H367.72C366.946 1.84815 366.205 2.1567 365.658 2.70417C365.111 3.25165 364.803 3.99355 364.801 4.7678V23.7725C364.803 24.5467 365.111 25.2886 365.658 25.8361C366.205 26.3836 366.946 26.6921 367.72 26.6943H407.167C423.371 26.6943 434.177 37.0757 434.177 52.7106C434.177 68.6427 423.371 79.3129 407.167 79.3129H390.205V40.4371C390.203 39.6629 389.895 38.921 389.348 38.3735C388.801 37.826 388.06 37.5175 387.287 37.5152H367.724C366.95 37.5175 366.209 37.826 365.662 38.3735C365.116 38.921 364.807 39.6629 364.805 40.4371V101.244C364.806 102.019 365.114 102.762 365.661 103.31C366.208 103.858 366.95 104.167 367.724 104.17H407.171C437.974 104.17 459.728 82.825 459.728 52.7148C459.728 22.8976 437.974 1.85013 407.171 1.85013L407.167 1.84594ZM343.486 1.84594H323.924C323.15 1.84815 322.409 2.1567 321.862 2.70417C321.315 3.25165 321.007 3.99355 321.005 4.7678V101.239C321.006 102.014 321.314 102.757 321.861 103.306C322.408 103.854 323.149 104.163 323.924 104.165H343.486C344.26 104.163 345.002 103.854 345.549 103.306C346.096 102.757 346.404 102.014 346.405 101.239V4.77199C346.403 3.99774 346.095 3.25584 345.548 2.70836C345.001 2.16088 344.26 1.84815 343.486 1.84594Z" fill="black"/>
<path d="M129.302 146.754C126.505 145.209 123.363 144.399 120.169 144.399C116.974 144.399 113.832 145.209 111.036 146.754C108.312 148.268 106.029 150.465 104.412 153.13C102.807 155.795 101.96 158.848 101.96 161.96C101.96 165.072 102.807 168.125 104.412 170.791C106.025 173.465 108.309 175.671 111.036 177.191C113.833 178.737 116.976 179.548 120.171 179.548C123.366 179.548 126.509 178.737 129.306 177.191C132.04 175.675 134.329 173.466 135.942 170.786C137.546 168.121 138.393 165.069 138.393 161.958C138.393 158.847 137.546 155.795 135.942 153.13C134.321 150.462 132.032 148.265 129.302 146.754ZM129.218 167.337C128.322 168.902 127.014 170.19 125.438 171.063C123.826 171.939 122.021 172.396 120.187 172.393C118.354 172.39 116.55 171.927 114.941 171.046C113.368 170.169 112.062 168.881 111.161 167.32C110.224 165.7 109.743 163.855 109.768 161.983C109.74 160.104 110.217 158.252 111.148 156.621C112.044 155.06 113.346 153.772 114.916 152.895C116.53 152.013 118.339 151.551 120.177 151.551C122.015 151.551 123.824 152.013 125.438 152.895C127.01 153.774 128.315 155.059 129.218 156.621C130.13 158.259 130.609 160.103 130.609 161.979C130.609 163.854 130.13 165.699 129.218 167.337ZM81.2527 164.068C82.2061 163.105 82.9547 161.958 83.4565 160.702C83.9834 159.375 84.2468 157.96 84.2301 156.533C84.271 154.463 83.7353 152.422 82.6828 150.639C81.6542 148.934 80.1675 147.553 78.3923 146.654C76.4523 145.681 74.3056 145.194 72.1363 145.235H57.4288V178.782H65.2405V167.559H70.2168L76.0797 178.778H85.0205L77.8779 166.324C79.1408 165.805 80.2867 165.039 81.2527 164.068ZM75.8163 158.852C75.419 159.522 74.8461 160.074 74.1561 160.443C73.4372 160.831 72.6312 161.03 71.8143 161.02H65.2405V152.192H71.8185C72.6139 152.186 73.3977 152.383 74.0958 152.764C74.7939 153.146 75.3832 153.7 75.8079 154.373C76.2129 155.02 76.4261 155.769 76.4227 156.533C76.4382 157.347 76.2299 158.149 75.8205 158.852H75.8163ZM335.608 152.824C337.131 151.971 338.851 151.532 340.596 151.552C341.943 151.535 343.285 151.773 344.548 152.255C345.74 152.724 346.794 153.49 347.601 154.486C348.508 155.633 349.14 156.977 349.441 158.408H357.395C357.037 155.561 355.918 152.864 354.154 150.601C352.546 148.558 350.455 146.946 348.069 145.913C345.496 144.792 342.698 144.281 339.895 144.419C337.092 144.557 334.358 145.341 331.907 146.708C329.187 148.239 326.913 150.452 325.308 153.13C323.735 155.806 322.906 158.854 322.906 161.958C322.906 165.062 323.735 168.111 325.308 170.786C326.906 173.473 329.178 175.695 331.899 177.231C334.62 178.767 337.694 179.564 340.818 179.544C343.327 179.544 345.807 179.025 348.107 178.028C350.49 177.003 352.578 175.395 354.179 173.352C355.931 171.092 357.039 168.4 357.395 165.562H349.412C349.111 166.985 348.483 168.317 347.58 169.455C346.769 170.447 345.723 171.213 344.536 171.691C343.281 172.172 341.943 172.411 340.596 172.394C338.846 172.417 337.119 171.992 335.578 171.159C334.073 170.331 332.838 169.085 332.024 167.572C331.116 165.852 330.665 163.928 330.715 161.983C330.673 160.058 331.129 158.157 332.036 156.458C332.86 154.934 334.098 153.678 335.608 152.824ZM296.528 178.778H304.336V145.235H296.533V178.782L296.528 178.778ZM400.597 163.967C399.528 162.487 398.101 161.303 396.449 160.526C394.462 159.595 392.364 158.924 390.205 158.53C388.741 158.286 387.296 157.936 385.881 157.483C384.997 157.222 384.181 156.771 383.489 156.16C383.242 155.927 383.046 155.644 382.912 155.331C382.779 155.017 382.712 154.68 382.716 154.339C382.704 153.787 382.849 153.243 383.134 152.77C383.511 152.243 384.045 151.85 384.66 151.648C385.652 151.313 386.697 151.162 387.742 151.204C388.817 151.166 389.889 151.343 390.895 151.723C391.601 151.99 392.207 152.468 392.631 153.092C392.98 153.65 393.163 154.296 393.158 154.955H400.969C401.022 152.984 400.515 151.039 399.506 149.345C398.445 147.703 396.904 146.427 395.094 145.691C392.79 144.764 390.32 144.324 387.838 144.398C385.395 144.327 382.962 144.747 380.683 145.632C378.93 146.279 377.426 147.465 376.388 149.021C375.35 150.576 374.83 152.42 374.904 154.289C374.825 156.265 375.484 158.199 376.752 159.714C377.983 161.129 379.521 162.243 381.248 162.971C383.272 163.808 385.359 164.478 387.496 164.968C388.775 165.248 390.038 165.608 391.276 166.039C392.096 166.307 392.844 166.751 393.467 167.35C393.712 167.598 393.904 167.892 394.034 168.215C394.163 168.539 394.226 168.885 394.22 169.233C394.249 169.994 394.029 170.744 393.593 171.368C393.088 171.992 392.396 172.437 391.619 172.637C390.475 172.948 389.291 173.089 388.106 173.055C387.058 173.077 386.013 172.915 385.02 172.578C384.219 172.308 383.495 171.847 382.912 171.234C382.561 170.853 382.289 170.406 382.112 169.919C381.935 169.432 381.856 168.914 381.879 168.396H374.064C374.058 170.312 374.555 172.196 375.506 173.859C376.594 175.676 378.195 177.124 380.111 178.016C382.222 179.083 384.894 179.619 388.131 179.619C390.631 179.668 393.118 179.258 395.47 178.409C397.411 177.723 399.108 176.496 400.376 174.872C401.563 173.244 402.174 171.272 402.124 169.259C402.185 167.378 401.651 165.526 400.597 163.967ZM250.591 152.192H259.975V178.782H267.737V152.192H277.096V145.239H250.591V152.192ZM180.362 162.737C179.479 161.985 178.469 161.396 177.38 160.999C178.145 160.673 178.831 160.183 179.387 159.568C180.015 158.89 180.516 158.111 180.88 157.261C181.252 156.407 181.445 155.491 181.445 154.561C181.493 152.795 181.036 151.053 180.128 149.538C179.228 148.116 177.918 146.999 176.372 146.336C174.558 145.566 172.601 145.19 170.631 145.235H155.702V178.782H172.036C173.926 178.794 175.799 178.439 177.556 177.735C179.334 177.04 180.848 175.802 181.883 174.196C182.918 172.59 183.42 170.698 183.318 168.79C183.322 167.628 183.047 166.482 182.515 165.449C181.985 164.41 181.253 163.488 180.362 162.737ZM163.609 151.92H170.258C170.858 151.909 171.45 152.058 171.973 152.351C172.469 152.634 172.879 153.048 173.156 153.548C173.449 154.076 173.596 154.67 173.587 155.277C173.597 155.896 173.448 156.507 173.156 157.052C172.88 157.566 172.466 157.992 171.96 158.283C171.436 158.582 170.841 158.736 170.238 158.726H163.609V151.92ZM174.817 170.246C174.484 170.827 173.994 171.302 173.403 171.615C172.76 171.947 172.044 172.112 171.321 172.097H163.609V164.499H171.321C172.036 164.486 172.742 164.658 173.378 164.993C173.961 165.306 174.454 165.765 174.808 166.324C175.159 166.877 175.342 167.52 175.335 168.174C175.353 168.899 175.171 169.614 174.817 170.246ZM225.709 146.754C222.913 145.209 219.771 144.399 216.576 144.399C213.382 144.399 210.24 145.209 207.443 146.754C204.718 148.267 202.434 150.465 200.815 153.13C199.211 155.795 198.364 158.848 198.364 161.96C198.364 165.072 199.211 168.125 200.815 170.791C202.429 173.466 204.714 175.673 207.443 177.191C210.24 178.736 213.382 179.546 216.576 179.546C219.771 179.546 222.913 178.736 225.709 177.191C228.443 175.674 230.732 173.466 232.346 170.786C233.949 168.121 234.796 165.069 234.796 161.958C234.796 158.847 233.949 155.795 232.346 153.13C230.726 150.463 228.438 148.265 225.709 146.754ZM225.626 167.337C224.728 168.902 223.419 170.191 221.841 171.063C220.23 171.939 218.425 172.396 216.591 172.393C214.757 172.39 212.953 171.927 211.345 171.046C209.771 170.169 208.465 168.881 207.564 167.32C206.628 165.7 206.146 163.855 206.172 161.983C206.147 160.103 206.623 158.251 207.552 156.617C208.447 155.055 209.752 153.77 211.324 152.891C212.937 152.009 214.745 151.547 216.583 151.547C218.42 151.547 220.228 152.009 221.841 152.891C223.414 153.77 224.722 155.059 225.622 156.617C226.534 158.255 227.013 160.099 227.013 161.975C227.013 163.85 226.534 165.695 225.622 167.333L225.626 167.337Z" fill="black"/>
</g>
<defs>
<clipPath id="clip0_2207_26081">
<rect width="460" height="180" fill="white"/>
</clipPath>
</defs>
</svg>
