<?xml version="1.0" encoding="UTF-8"?>
<svg version="1.1" xmlns="http://www.w3.org/2000/svg" width="2849" height="997">
<path d="M0 0 C52.14 0 104.28 0 158 0 C170.2441032 63.60573092 170.2441032 63.60573092 174.28515625 84.68359375 C174.42998986 85.43897958 174.57482348 86.1943654 174.72404599 86.97264171 C180.07120965 114.86329261 185.38466632 142.76030396 190.68359375 170.66015625 C190.87140419 171.64901007 191.05921463 172.63786388 191.2527163 173.65668297 C194.58974014 191.22740286 197.9247297 208.79850888 201.2595253 226.36965179 C204.10451299 241.35986686 206.95008339 256.34997115 209.796875 271.33984375 C210.00170431 272.41838434 210.20653362 273.49692493 210.41756988 274.60814857 C217.28076595 310.74459324 224.17098087 346.8758371 231.078125 383.00390625 C231.30531495 384.19224634 231.5325049 385.38058644 231.76657939 386.60493684 C236.41261984 410.90571906 241.06197935 435.20586577 245.71368217 459.50556469 C247.13877971 466.95011727 248.56347719 474.3947464 249.98808992 481.83939177 C251.11650352 487.7358567 252.24561723 493.63218699 253.37531096 499.5284068 C254.06105693 503.10823893 254.7462291 506.68818071 255.43124759 510.26815212 C255.74553562 511.90997206 256.06007139 513.5517446 256.3748771 515.19346535 C256.80219359 517.42207515 257.22863372 519.65085094 257.65486145 521.87966919 C257.89218396 523.11874086 258.12950647 524.35781254 258.37402058 525.63443184 C258.95370081 528.75107317 259.49065429 531.8711769 260 535 C261.51876228 532.18478473 262.4639186 529.57560373 263.1842804 526.46278381 C263.39747295 525.55281363 263.61066551 524.64284346 263.83031845 523.70529842 C264.05816151 522.70950551 264.28600456 521.7137126 264.52075195 520.68774414 C264.76771442 519.62695176 265.0146769 518.56615938 265.26912308 517.47322178 C266.09700211 513.91163428 266.91760532 510.34840984 267.73828125 506.78515625 C268.32767552 504.24301013 268.91752485 501.70096947 269.50779724 499.1590271 C270.77935263 493.68008716 272.04722438 488.20030542 273.31262207 482.71994019 C275.16082528 474.7156117 277.01480417 466.71262952 278.87025237 458.70997775 C281.68219362 446.58154108 284.49090504 434.45235984 287.29696679 422.32256162 C291.21482642 405.38683513 295.14042347 388.45291511 299.07109261 371.52015734 C299.5271742 369.55541791 299.98323357 367.59067333 300.43928528 365.62592697 C300.58942715 364.97909096 300.73956902 364.33225496 300.89426064 363.66581786 C301.04416318 363.02001245 301.19406571 362.37420705 301.34851074 361.70883179 C302.25127239 357.81960123 303.15404215 353.93037255 304.0568428 350.04115105 C307.06510482 337.08120374 310.07099454 324.12070674 313.07670593 311.16016769 C319.8419061 281.98896494 326.6117591 252.81884383 333.38382721 223.64923477 C334.44872109 219.06231803 335.5135604 214.47538863 336.57839966 209.88845921 C341.49816539 188.69600896 346.41842088 167.50367254 351.3399477 146.3116312 C353.67415117 136.26056323 356.0081329 126.20944379 358.34198284 116.15829372 C359.97858521 109.11006056 361.61548642 102.06189691 363.25266171 95.01379681 C364.27105322 90.62920519 365.28910071 86.24453372 366.30711174 81.85985374 C367.04657488 78.67555977 367.78653467 75.49138146 368.52650452 72.3072052 C371.16458034 60.94904929 373.78503892 49.58702948 376.38769531 38.22070312 C377.2206807 34.58882652 378.05389394 30.95700224 378.88714981 27.32518768 C379.68167431 23.8564172 380.4722135 20.38675377 381.26266479 16.91705322 C381.74278748 14.8232385 382.22309336 12.72946578 382.70361328 10.63574219 C382.92240269 9.66952187 383.14119209 8.70330154 383.36661148 7.70780182 C383.56814709 6.83330132 383.76968269 5.95880081 383.97732544 5.05780029 C384.23890536 3.91186464 384.23890536 3.91186464 384.50576973 2.74277878 C385 1 385 1 386 0 C387.73359598 -0.09627113 389.47114646 -0.12187568 391.20741272 -0.12025452 C392.33628403 -0.12162918 393.46515533 -0.12300385 394.62823486 -0.12442017 C396.50234039 -0.11902725 396.50234039 -0.11902725 398.41430664 -0.11352539 C399.72143112 -0.11367142 401.0285556 -0.11381744 402.37528992 -0.1139679 C405.97017099 -0.11425586 409.56501897 -0.10835928 413.15989232 -0.10139394 C416.91286252 -0.09516026 420.6658334 -0.09455659 424.41880798 -0.09336853 C431.53030826 -0.09025526 438.64179325 -0.08204192 445.75328678 -0.07201904 C453.84747066 -0.06085778 461.94165526 -0.05534742 470.03584492 -0.05032361 C486.69057225 -0.03985931 503.34528418 -0.02225994 520 0 C522.81044262 10.29099673 525.3768309 20.61985208 527.7734375 31.01489258 C528.13296741 32.56583325 528.4927134 34.11672385 528.85265446 35.66756916 C529.82584537 39.86355821 530.79594182 44.06025705 531.76542783 48.25710344 C532.80301556 52.74642049 533.84341142 57.23508684 534.88340759 61.72384644 C536.89424535 70.40509515 538.90227056 79.08699206 540.90922385 87.76913953 C542.54413298 94.84157202 544.18018311 101.91373975 545.81692505 108.98574829 C557.70313774 160.34486488 569.55140959 211.71245795 581.32235432 263.09812355 C592.55704768 312.1403058 603.8707025 361.16420902 615.1875 410.1875 C615.65486094 412.21210589 616.12222112 414.23671196 616.58958054 416.26131821 C620.29604922 432.3176769 624.00266587 448.37400148 627.71033442 464.43008316 C628.09649027 466.10235874 628.48262544 467.77463909 628.86873949 469.44692433 C629.80085078 473.48383756 630.73330357 477.52067123 631.66653633 481.55732536 C633.41434088 489.11927132 635.15777088 496.68217104 636.88974708 504.24776024 C637.72541404 507.89729635 638.5629038 511.54641313 639.40051329 515.19550383 C639.80083325 516.94197976 640.20023106 518.68866734 640.5986675 520.43557394 C641.1477962 522.84297897 641.70000368 525.24965846 642.25288391 527.65620422 C642.41572125 528.37395023 642.57855858 529.09169625 642.74633038 529.83119214 C643.5833039 533.51420854 643.5833039 533.51420854 645 537 C660.21929912 457.10953799 675.41650253 377.21503624 690.48127317 297.29527283 C691.24345184 293.25193254 692.00571283 289.20860778 692.76797485 285.1652832 C692.91936301 284.36226127 693.07075116 283.55923934 693.22672683 282.73188341 C694.76914644 274.55032213 696.311607 266.36876857 697.85416532 258.18723345 C698.16471516 256.54011368 698.47526125 254.89299321 698.78580356 253.24587202 C706.06484471 214.63802959 713.35971409 176.03318466 720.66483456 137.43026853 C720.84143311 136.49705738 721.01803167 135.56384623 721.19998169 134.60235596 C721.46369392 133.20881303 721.46369392 133.20881303 721.73273367 131.78711772 C722.94339408 125.38918696 724.15327564 118.99110926 725.36276245 112.59295654 C726.83678971 104.79544315 728.31187802 96.99813135 729.78823423 89.20105857 C730.66041365 84.59469018 731.53185603 79.98818434 732.40175128 75.38138402 C737.15710967 50.2315107 742.0851434 25.12037816 747 0 C799.14 0 851.28 0 905 0 C903.69272782 7.84363311 902.30729545 15.55132528 900.57501221 23.29495239 C900.21975554 24.90098475 900.21975554 24.90098475 899.85732198 26.53946221 C899.07094321 30.0909401 898.28010573 33.6414094 897.48925781 37.19189453 C896.92265641 39.74655052 896.35633636 42.30126893 895.79027557 44.85604477 C894.57265842 50.3494288 893.35276579 55.84230343 892.13130951 61.33483505 C890.33726793 69.40218961 888.54684815 77.47034483 886.75727156 85.53869088 C883.85738576 98.61258569 880.95496234 111.68591562 878.05102539 124.75891113 C874.42915479 141.06418562 870.81198206 157.37049869 867.19695714 173.67729215 C865.87108738 179.65801415 864.54508248 185.63870619 863.21908569 191.61940002 C863.00053392 192.60515309 863.00053392 192.60515309 862.77756695 193.61082036 C859.30130831 209.28995586 855.82290854 224.96861621 852.34423828 240.6472168 C852.03389589 242.04595721 851.7235535 243.44469762 851.41321111 244.84343803 C850.15685375 250.5059382 848.90048853 256.16843663 847.64411151 261.83093244 C844.32833098 276.77522 841.01300944 291.71960937 837.69769311 306.66399992 C825.19714566 363.01244239 812.69521701 419.36057839 800.19237381 475.70851152 C796.21884695 493.61644306 792.24537039 511.52438576 788.27209473 529.43237305 C787.99540193 530.67945674 787.99540193 530.67945674 787.71311939 531.95173404 C785.86669823 540.27375414 784.0202878 548.59577662 782.17389375 556.91780274 C778.22777041 574.70366073 774.28140074 592.48946401 770.33452593 610.27515525 C767.46428004 623.20928327 764.59436021 636.14348359 761.72476017 649.07775491 C760.17399228 656.06754924 758.62307921 663.05731126 757.07172775 670.04697609 C755.37689664 677.68314074 753.68270201 685.31944649 751.98876953 692.95581055 C751.72627655 694.13885903 751.46378356 695.3219075 751.19333625 696.54080594 C748.52776234 708.55630821 745.86967822 720.57334932 743.23919678 732.59658813 C743.02493557 733.57546354 742.81067437 734.55433894 742.5899204 735.56287724 C741.60114478 740.08172 740.6143276 744.60097457 739.63113594 749.12103558 C739.29195872 750.67447378 738.95274733 752.22790452 738.61349487 753.78132629 C738.46276166 754.47785974 738.31202844 755.17439318 738.15672755 755.8920337 C737.55190288 758.65581078 736.89570242 761.31289273 736 764 C683.2 764 630.4 764 576 764 C571.40364912 746.7636842 571.40364912 746.7636842 569.69189453 739.74511719 C569.49206467 738.93118752 569.2922348 738.11725784 569.08634949 737.27866364 C568.43366662 734.61843344 567.78318626 731.95767058 567.1328125 729.296875 C566.6613058 727.37243193 566.1896944 725.44801451 565.71798706 723.52362061 C564.44961657 718.34694709 563.18341459 713.16974551 561.91778564 707.99240112 C561.11786317 704.72081119 560.31732118 701.44937343 559.51660156 698.17797852 C551.50276583 665.43441496 543.55498535 632.67525194 535.65045166 599.90515137 C528.4977775 570.25425245 521.26866447 540.62266648 514 511 C506.02616812 478.50330586 498.11147775 445.99309224 490.26581573 413.46521759 C481.96227437 379.03950205 473.57191694 344.63549757 465.1350069 310.24222755 C464.19363722 306.40441492 463.25276885 302.56647944 462.31190681 298.72854233 C461.67469188 296.13048216 461.03654079 293.53265332 460.39830017 290.93484497 C460.00417554 289.3281766 459.6101749 287.72147781 459.21630859 286.11474609 C459.02957234 285.35408655 458.84283609 284.59342701 458.65044117 283.80971718 C457.69554947 279.90445698 456.76224738 275.99530931 455.85821533 272.07794189 C455.67529245 271.28735697 455.49236958 270.49677204 455.30390358 269.68223 C454.95701958 268.17667868 454.61332746 266.67038731 454.27329063 265.16327477 C453.71712888 261.79928354 453.71712888 261.79928354 452 259 C451.72169846 260.14412857 451.44339691 261.28825714 451.15666199 262.46705627 C441.84616089 300.74356079 432.53565979 339.02006531 423.22515869 377.29656982 C422.79716602 379.05609529 422.79716602 379.05609529 422.36052704 380.85116673 C421.79292558 383.18463931 421.22532406 385.51811188 420.65772247 387.85158443 C419.26426544 393.58023988 417.87080953 399.30889559 416.47735596 405.03755188 C413.9765209 415.31878276 411.47567736 425.60001159 408.97479248 435.88123035 C407.56522061 441.6760272 406.15565543 447.47082567 404.74609375 453.265625 C404.46738182 454.41142721 404.18866989 455.55722942 403.90151215 456.73775291 C400.25518403 471.72808932 396.60914166 486.7184952 392.96337891 501.70896912 C390.7225881 510.92254411 388.48169366 520.13609389 386.24078369 529.34963989 C385.12514778 533.9366064 384.00955034 538.52358226 382.89398193 543.11056519 C376.75998188 568.33202667 370.62291015 593.55273573 364.47868919 618.77170944 C363.53612261 622.64056473 362.59364589 626.50944189 361.65119934 630.37832642 C361.02780224 632.93743914 360.40440442 635.49655169 359.78100586 638.05566406 C359.4744082 639.31428694 359.16781054 640.57290981 358.85192204 641.86967278 C357.36884842 647.95761407 355.88548271 654.04548388 354.40139771 660.13317871 C352.7486324 666.91282513 351.09665552 673.69266326 349.4453125 680.47265625 C349.18149969 681.55562359 348.91768688 682.63859093 348.64587975 683.75437546 C345.52110296 696.58555782 342.41327031 709.42069311 339.32714844 722.26123047 C339.02529821 723.51692431 338.72344799 724.77261816 338.41245079 726.06636333 C336.95343148 732.13763256 335.49633554 738.20935522 334.04202271 744.28175354 C333.52136239 746.45143109 333.00068271 748.621104 332.47998047 750.79077148 C332.24249462 751.7850585 332.00500877 752.77934551 331.76032639 753.80376244 C331.54195744 754.71277117 331.32358849 755.6217799 331.09860229 756.55833435 C330.81489934 757.74326807 330.81489934 757.74326807 330.52546501 758.95213985 C330.08858648 760.65475777 329.55585705 762.33242885 329 764 C276.2 764 223.4 764 169 764 C160.95315644 729.51352761 160.95315644 729.51352761 157.61523438 714.44677734 C157.22251083 712.67990821 156.8296477 710.91307009 156.43666172 709.14625931 C155.37704834 704.38050431 154.31939125 699.61431718 153.26212049 694.84804201 C152.10343192 689.6262509 150.94286887 684.40487632 149.78257751 679.18344116 C147.49197606 668.87406775 145.20313168 658.56430499 142.91488487 648.25440872 C141.01854789 639.71051649 139.12146273 631.16679067 137.22390747 622.62316895 C136.81209399 620.76899864 136.81209399 620.76899864 136.39196104 618.87737036 C135.8319224 616.35582978 135.27188333 613.8342893 134.71184385 611.31274891 C127.45647447 578.64518324 120.20576088 545.9765846 112.95597553 513.30777931 C111.9978529 508.99031394 111.03971002 504.67285305 110.08156586 500.35539246 C97.70094434 444.5673536 85.32171232 388.77900629 72.95073031 332.98882899 C72.1216538 329.24990105 71.29256397 325.51097608 70.46347523 321.77205086 C70.13240667 320.27903506 69.80133813 318.78601925 69.47026962 317.29300344 C68.80929312 314.31220712 68.14831558 311.33141104 67.48733717 308.35061514 C67.32401168 307.61407045 67.16068618 306.87752576 66.99241142 306.11866153 C66.66281709 304.63229911 66.3332225 303.14593675 66.00362764 301.65957444 C65.18207572 297.95464521 64.3605322 294.24971412 63.53900552 290.5447793 C54.79115505 251.09364463 46.03497537 211.64437367 37.26731827 172.19763604 C35.03820059 162.16852571 32.80984672 152.13924598 30.58222961 142.10980225 C30.29659906 140.82381252 30.01096851 139.53782279 29.71668249 138.21286368 C28.30339113 131.84967795 26.89020638 125.48646854 25.47710133 119.12324142 C22.50208826 105.72745768 19.52446174 92.33226007 16.54344678 78.93781066 C14.54941614 69.97714117 12.55835269 61.01581584 10.5697248 52.05394578 C9.43455449 46.93872606 8.29797602 41.82382971 7.15765762 36.70975494 C6.12256838 32.06755702 5.09129921 27.42452835 4.06317437 22.78078318 C3.69126216 21.10425956 3.31790272 19.42805623 2.94298351 17.75220251 C2.43686418 15.48896369 1.93591264 13.22464234 1.43629456 10.95996094 C1.15677728 9.70278259 0.87726 8.44560425 0.5892725 7.15032959 C0 4 0 4 0 0 Z " fill="#000000" transform="translate(1942,121)"/>
<path d="M0 0 C411.13768686 0 411.13768686 0 482 51 C482.55880859 51.40186523 483.11761719 51.80373047 483.69335938 52.21777344 C491.84525354 58.14772693 499.32351651 64.70037703 506.60302734 71.66601562 C507.79431246 72.80358673 508.99929764 73.92678224 510.20703125 75.046875 C516.53491965 81.078345 521.75075799 88.03676187 527 95 C527.64066406 95.845625 528.28132813 96.69125 528.94140625 97.5625 C554.53042748 132.71029714 565.81379173 177.0197202 567 220 C567.02191406 220.78568359 567.04382812 221.57136719 567.06640625 222.38085938 C568.51215592 285.07820358 553.2359106 345.76951528 509.24609375 391.97265625 C501.05052284 400.43060515 492.53202102 408.08565298 483 415 C482.46310547 415.3923584 481.92621094 415.7847168 481.37304688 416.18896484 C469.42409291 424.86030477 456.77882716 432.15873452 443.75 439.0625 C442.8321875 439.55218262 441.914375 440.04186523 440.96875 440.54638672 C440.10765625 440.99643066 439.2465625 441.44647461 438.359375 441.91015625 C437.20646973 442.51549194 437.20646973 442.51549194 436.03027344 443.13305664 C434 444 434 444 431 444 C443.01903913 467.53800309 443.01903913 467.53800309 455.54003906 490.81103516 C459.66312717 498.30462867 463.59142143 505.89330668 467.5 513.5 C471.89755482 522.05795807 476.35251664 530.57407489 481 539 C485.98873432 548.04461589 490.74782597 557.19811419 495.46826172 566.38427734 C499.54496422 574.31291727 503.69380697 582.19283702 508 590 C512.98873432 599.04461589 517.74782597 608.19811419 522.46826172 617.38427734 C526.54496422 625.31291727 530.69380697 633.19283702 535 641 C539.98873432 650.04461589 544.74782597 659.19811419 549.46826172 668.38427734 C553.54496422 676.31291727 557.69380697 684.19283702 562 692 C566.9837936 701.03565832 571.73889176 710.17975694 576.4541626 719.35708618 C582.13470942 730.40661409 588.00807243 741.34224555 594.02294922 752.21362305 C596.62887831 756.97813658 596 756.87747556 596 764 C539.57 764 483.14 764 425 764 C405.65990085 726.4574546 405.65990085 726.4574546 398.03289795 711.51135254 C395.61319545 706.7698641 393.19131209 702.02948965 390.76953125 697.2890625 C390.28282959 696.33632446 389.79612793 695.38358643 389.29467773 694.40197754 C384.49752845 685.0131562 379.68792596 675.63074145 374.875 666.25 C373.23566868 663.05469181 371.59634073 659.85938189 369.95703125 656.6640625 C369.34867432 655.47828613 369.34867432 655.47828613 368.72802734 654.26855469 C364.00208055 645.05613901 359.28211478 635.84066081 354.5625 626.625 C353.9098819 625.35070129 353.9098819 625.35070129 353.24407959 624.05065918 C351.04303292 619.75287796 348.84205445 615.45506182 346.64111328 611.15722656 C344.00965637 606.01876943 341.37791894 600.88045601 338.74609375 595.7421875 C338.0966404 594.47421829 338.0966404 594.47421829 337.43406677 593.18063354 C335.24928533 588.91516717 333.06447177 584.64971726 330.87963867 580.38427734 C326.92311851 572.65990376 322.96677064 564.93544226 319.01148987 557.21043396 C317.6805309 554.61102218 316.3494259 552.01168522 315.01831055 549.41235352 C313.27175782 546.00170128 311.52590448 542.59069233 309.78051758 539.17944336 C305.35581184 530.5342362 300.91691318 521.89664858 296.45703125 513.26953125 C295.12754797 510.69417453 293.79837068 508.11866014 292.46929932 505.54309082 C291.62016947 503.89981978 290.76956129 502.25731173 289.91741943 500.61560059 C288.74738622 498.36143371 287.58218428 496.10483181 286.41796875 493.84765625 C286.0691011 493.17893997 285.72023346 492.51022369 285.36079407 491.82124329 C283 487.227568 283 487.227568 283 485 C241.75 485 200.5 485 158 485 C158 577.07 158 669.14 158 764 C105.86 764 53.72 764 0 764 C0 511.88 0 259.76 0 0 Z M158 128 C158 203.24 158 278.48 158 356 C181.595 356.0825 205.19 356.165 229.5 356.25 C236.90373047 356.28641602 244.30746094 356.32283203 251.93554688 356.36035156 C258.6704675 356.37374315 258.6704675 356.37374315 265.40539551 356.3817749 C268.36613375 356.38544723 271.32657445 356.40021365 274.28723145 356.42230225 C309.54247193 356.67344528 345.47979309 353.47332686 373 329 C374.11375 328.09894531 374.11375 328.09894531 375.25 327.1796875 C394.28290123 311.38502294 405.16541951 286.20179452 407.77294922 261.96142578 C409.11174913 244.49944419 409.36101421 226.04057718 405 209 C404.75056641 207.99791504 404.75056641 207.99791504 404.49609375 206.97558594 C397.81883374 181.07029014 382.30553795 158.65629225 359.5 144.375 C330.49608165 128.24507896 297.50661717 127.66969972 265.21316528 127.79743958 C261.80144928 127.80902149 258.38976325 127.80937604 254.97802734 127.81079102 C245.06866724 127.82119233 235.15933175 127.84911451 225.25 127.875 C191.96125 127.936875 191.96125 127.936875 158 128 Z " fill="#000000" transform="translate(683,121)"/>
<path d="M0 0 C48.51 0 97.02 0 147 0 C151.50011137 10.12525058 151.50011137 10.12525058 153.41235352 15.21313477 C153.84653091 16.3643985 154.28070831 17.51566223 154.7280426 18.70181274 C155.19032761 19.9358786 155.65261261 21.16994446 156.12890625 22.44140625 C156.63132014 23.77672685 157.13396655 25.11195999 157.63682556 26.44711304 C158.99696886 30.06058763 160.35373442 33.67532177 161.70980835 37.29032516 C163.15630837 41.14482631 164.60571278 44.99823527 166.0546875 48.85180664 C168.79584312 56.14348691 171.53397047 63.43630061 174.27096748 70.72954273 C176.32749404 76.20922888 178.38556936 81.68833077 180.44482422 87.16699219 C192.98943769 120.54286389 205.47742986 153.93895785 217.87195969 187.37086487 C226.20084019 209.83560099 234.60041642 232.2726063 243.0625 254.6875 C251.566127 277.21243649 260.03037637 299.75135753 268.4375 322.3125 C270.51146698 327.87769802 272.58560588 333.44283192 274.66015625 339.0078125 C274.91855726 339.70098824 275.17695827 340.39416397 275.44318962 341.10834503 C281.45067245 357.22195303 287.48631604 373.32497884 293.52671051 389.42627335 C294.37518714 391.68799885 295.22358344 393.94975446 296.07196045 396.21151733 C301.46167704 410.58015473 306.85358755 424.94796756 312.24874783 439.31456184 C315.35429976 447.58434469 318.45880135 455.85452144 321.5625 464.125 C321.84151279 464.86843658 322.12052559 465.61187317 322.40799332 466.37783813 C331.28161964 490.02311569 340.09309882 513.69094071 348.87216187 537.37147141 C357.73408042 561.27416316 366.68371852 585.14258458 375.68762207 608.99212646 C384.55855364 632.48988234 393.36824533 656.00985975 402.13466644 679.54680061 C403.40727125 682.96357208 404.68012116 686.38025218 405.953125 689.796875 C406.2025737 690.46642086 406.4520224 691.13596672 406.70903015 691.82580185 C410.2780322 701.40347363 413.86508747 710.9742233 417.46685219 720.53962135 C418.22447424 722.55182905 418.98170672 724.56418292 419.73881531 726.57658386 C420.22975623 727.88138217 420.72070766 729.18617652 421.21166992 730.4909668 C421.4505553 731.12583354 421.68944067 731.76070028 421.93556499 732.41480541 C423.55560027 736.71899164 425.18040299 741.02136221 426.8059082 745.32348633 C427.63247169 747.51898745 428.45889621 749.7145409 429.28515625 751.91015625 C429.665047 752.91181824 430.04493774 753.91348022 430.43634033 754.94549561 C430.77711609 755.85301575 431.11789185 756.76053589 431.46899414 757.69555664 C431.76665176 758.48386368 432.06430939 759.27217072 432.37098694 760.08436584 C433 762 433 762 433 764 C377.23 764 321.46 764 264 764 C255.42 738.26 246.84 712.52 238 686 C232.51279037 669.88039298 232.51279037 669.88039298 227 653.76953125 C223.94538026 644.86123381 220.93178011 635.93946639 217.94378662 627.00860596 C217.40467567 625.39802456 216.86454092 623.78778543 216.32330322 622.17791748 C215.59009596 619.99591725 214.86082702 617.81264358 214.1328125 615.62890625 C213.51237061 613.7737439 213.51237061 613.7737439 212.87939453 611.88110352 C212 609 212 609 212 607 C75.875 607.495 75.875 607.495 -63 608 C-80.16 659.48 -97.32 710.96 -115 764 C-170.77 764 -226.54 764 -284 764 C-282.22467127 758.08223756 -280.51542039 752.46432104 -278.33984375 746.734375 C-278.08255493 746.0529393 -277.82526611 745.3715036 -277.56018066 744.66941833 C-276.99225164 743.16575953 -276.42288871 741.6626417 -275.8522644 740.16000366 C-274.18493843 735.76732979 -272.53059298 731.36976278 -270.875 726.97265625 C-270.50177109 725.98199661 -270.12854218 724.99133698 -269.7440033 723.97065735 C-264.54181038 710.14745035 -259.41401039 696.29650053 -254.27662277 682.44911575 C-251.7387335 675.60896011 -249.19949575 668.76930487 -246.66015625 661.9296875 C-246.37996202 661.17496469 -246.0997678 660.42024189 -245.81108284 659.6426487 C-240.01343569 644.02723103 -234.19744251 628.41868695 -228.375 612.8125 C-227.92130035 611.59638031 -227.46760071 610.38026062 -227.00015259 609.12728882 C-226.10043005 606.71564163 -225.20070575 604.30399509 -224.30097961 601.89234924 C-223.86650009 600.72775681 -223.43202057 599.56316437 -222.984375 598.36328125 C-222.3445594 596.64835732 -222.3445594 596.64835732 -221.69181824 594.89878845 C-217.66384792 584.10131135 -213.64295828 573.30120624 -209.625 562.5 C-209.30373138 561.63637848 -208.98246277 560.77275696 -208.65145874 559.88296509 C-207.06420408 555.61604193 -205.4771129 551.34905799 -203.89013672 547.08203125 C-200.65658816 538.38777393 -197.42216312 529.6938427 -194.1875 521 C-193.86179016 520.12456543 -193.53608032 519.24913086 -193.20050049 518.34716797 C-187.23357477 502.30992967 -181.26005903 486.27514962 -175.2855835 470.24072266 C-167.83510064 450.24468486 -160.39178024 430.24598927 -152.95166016 410.24609375 C-149.30041176 400.43125957 -145.64818615 390.61678896 -141.99615479 380.80224609 C-140.99352448 378.10774955 -139.99090037 375.4132507 -138.98828125 372.71875 C-138.49237488 371.38602051 -138.49237488 371.38602051 -137.9864502 370.02636719 C-136.01643147 364.73192683 -134.04662382 359.437408 -132.07699585 354.14282227 C-124.152171 332.84001681 -116.22152987 311.53938761 -108.2855835 290.24072266 C-102.79135875 275.49500378 -97.29966141 260.7483488 -91.8125 246 C-91.48682037 245.124646 -91.16114075 244.24929199 -90.82559204 243.34741211 C-88.55024232 237.23166476 -86.27509549 231.11584193 -84 225 C-81.39597743 217.99994639 -78.791857 210.9999292 -76.1875 204 C-75.86206207 203.12529053 -75.53662415 202.25058105 -75.20132446 201.34936523 C-69.23412219 185.31139522 -63.26033214 169.27588261 -57.2855835 153.24072266 C-52.12030513 139.37784916 -46.95690939 125.51427879 -41.79812622 111.64898682 C-40.81401388 109.00406873 -39.82974737 106.35920805 -38.84545898 103.71435547 C-35.57587248 94.92801384 -32.30921561 86.14059736 -29.046875 77.3515625 C-19.4560679 51.53160535 -9.73434355 25.76737998 0 0 Z M73 196 C70.11062 204.64433977 67.22314778 213.28931425 64.33773613 221.93497944 C62.99601288 225.95506108 61.65377109 229.97496755 60.31005859 233.99438477 C53.11997542 255.48672383 53.11997542 255.48672383 46.06884766 277.02490234 C45.82195946 277.78791625 45.57507126 278.55093016 45.3207016 279.3370657 C44.94209866 280.50732091 44.94209866 280.50732091 44.55584717 281.70121765 C37.34316176 303.99447597 29.94361148 326.22373208 22.51745462 348.44658113 C21.60321087 351.18256706 20.68917563 353.91862257 19.7752037 356.65469933 C14.09747818 373.65124268 8.41700059 390.6468643 2.72949219 407.64013672 C-0.1078451 416.11769221 -2.94199481 424.59630628 -5.77257216 433.07612133 C-7.55028048 438.40117461 -9.33190732 443.72489497 -11.11648345 449.04765034 C-12.21519347 452.3278324 -13.31015845 455.60925507 -14.40402794 458.89105415 C-14.91202407 460.41261429 -15.4215739 461.93365668 -15.93276787 463.45414543 C-16.62805507 465.52292441 -17.3178181 467.59346411 -18.00619507 469.66455078 C-18.39360052 470.82270294 -18.78100597 471.9808551 -19.18015099 473.17410278 C-20.13931533 475.98979549 -20.13931533 475.98979549 -20 479 C42.37 479 104.74 479 169 479 C166.62585597 470.20548671 166.62585597 470.20548671 163.90063477 461.56665039 C163.31417427 459.83752663 163.31417427 459.83752663 162.71586609 458.07347107 C162.08500847 456.22919273 162.08500847 456.22919273 161.44140625 454.34765625 C160.98413812 453.00227843 160.52722474 451.65677999 160.07063293 450.31117249 C159.08761549 447.4156456 158.10283553 444.5207271 157.11663818 441.62628174 C154.41662003 433.70045468 151.72961416 425.77021179 149.04296875 417.83984375 C148.61916805 416.58928444 148.61916805 416.58928444 148.18680573 415.3134613 C143.64582015 401.91016181 139.14742821 388.49298965 134.67578125 375.06640625 C134.37083048 374.15081247 134.06587971 373.2352187 133.751688 372.29187965 C130.76715438 363.32927031 127.78662543 354.36533405 124.8095789 345.40023518 C123.42364184 341.22739155 122.03646171 337.05496231 120.6484375 332.8828125 C120.37582533 332.06333822 120.10321316 331.24386395 119.82234001 330.39955711 C115.3229575 316.88372669 110.73164873 303.40057464 106.11226273 289.92535782 C101.74594263 277.18251374 97.45927156 264.41540354 93.234375 251.625 C92.6895948 249.97775645 92.14476485 248.33052936 91.59988403 246.68331909 C89.41619264 240.07933007 87.23392397 233.47489423 85.06298828 226.86669922 C83.69811408 222.71301437 82.32608098 218.56175628 80.94916534 214.41204834 C80.43450315 212.85635721 79.92255651 211.29976484 79.41344452 209.74224854 C78.71570025 207.60839669 78.0089038 205.47775666 77.29980469 203.34765625 C76.90235046 202.14117432 76.50489624 200.93469238 76.09539795 199.69165039 C75.29272378 196.87141299 75.29272378 196.87141299 73 196 Z " fill="#000000" transform="translate(1577,121)"/>
<path d="M0 0 C1.11391677 0.94854574 2.22694328 1.898137 3.33959866 2.84816206 C3.95951166 3.37685214 4.57942466 3.90554222 5.2181229 4.45025321 C7.56465273 6.49109378 9.78013743 8.64163192 11.98657227 10.83267212 C12.91478287 11.75228226 13.84299347 12.6718924 14.79933167 13.61936951 C15.80508818 14.62069279 16.81077749 15.62208357 17.81640625 16.62353516 C18.89276775 17.69198086 19.96930563 18.76024891 21.04600525 19.82835388 C24.55520327 23.3115444 28.05914 26.80000165 31.5625 30.2890625 C32.77196637 31.49316402 33.98143906 32.69725919 35.19091797 33.90134811 C40.21687494 38.90572481 45.24141205 43.91151988 50.26223755 48.9210453 C57.44994363 56.09246243 64.64604736 63.25521365 71.8539381 70.40634501 C76.92940822 75.44320217 81.99533954 80.48952601 87.05418873 85.54307592 C90.07444357 88.559671 93.0987706 91.57190632 96.1333313 94.57411575 C98.98095406 97.39180335 101.81663203 100.22097176 104.64340401 103.05957222 C105.68438934 104.10077937 106.72969313 105.1376888 107.77949333 106.17000771 C109.20754952 107.5755592 110.61894027 108.99798433 112.02929688 110.42129517 C112.82493042 111.21361856 113.62056396 112.00594196 114.44030762 112.82227516 C116 115 116 115 115.85002327 117.16218758 C114.70345951 119.64114221 113.1788017 121.17260357 111.23388672 123.09082031 C110.43570526 123.88554749 109.6375238 124.68027466 108.81515503 125.49908447 C107.94545074 126.35016785 107.07574646 127.20125122 106.1796875 128.078125 C105.28766632 128.96352966 104.39564514 129.84893433 103.47659302 130.76116943 C101.10067864 133.11761484 98.71878587 135.46764733 96.33331299 137.81439209 C92.9944878 141.10123373 89.66537722 144.39788432 86.337677 147.69598389 C84.56786756 149.44897771 82.79497476 151.19886592 81.01852417 152.94512939 C79.79288254 154.15613312 79.79288254 154.15613312 78.54248047 155.39160156 C77.4777803 156.43939789 77.4777803 156.43939789 76.39157104 157.50836182 C74.45311277 159.52792827 72.62457428 161.57748373 70.80065101 163.69791269 C67.27976438 167.73128306 63.59056586 171.54822206 59.79801273 175.3250351 C59.10445611 176.01974557 58.41089948 176.71445604 57.69632599 177.43021834 C55.38154123 179.74764105 53.06321997 182.06149221 50.74488831 184.37536621 C49.06396454 186.05672625 47.38326063 187.73830612 45.7027573 189.42008638 C42.05370851 193.07090298 38.40311655 196.72016903 34.75114441 200.36806107 C29.32085429 205.7923012 23.8934495 211.21942156 18.46662188 216.64712558 C9.3365211 225.77853853 0.20409951 234.90762704 -8.92965508 244.03538513 C-17.97093344 253.07074295 -27.01117383 262.10713723 -36.05003548 271.14491272 C-36.8935989 271.98837303 -36.8935989 271.98837303 -37.75420401 272.84887295 C-40.61031422 275.70464482 -43.46640596 278.56043518 -46.32249058 281.41623265 C-66.54299026 301.63463289 -86.76580656 321.85071455 -106.98999023 342.06542969 C-126.6353714 361.70162393 -146.27970004 381.33887017 -165.92260742 400.97753906 C-166.52827344 401.58307355 -167.13393946 402.18860804 -167.75795899 402.81249207 C-173.84040148 408.89361601 -179.9228226 414.97476133 -186.00522808 421.0559223 C-198.39537515 433.44353327 -210.78566479 445.83100166 -223.17604065 458.21838379 C-224.03054186 459.07267906 -224.03054186 459.07267906 -224.90230572 459.94423283 C-262.93248202 497.96521117 -300.96599164 535.98285508 -339 574 C-342.59902148 572.30574965 -344.94307725 570.3152126 -347.77766418 567.49649048 C-348.47601121 566.80599847 -348.47601121 566.80599847 -349.18846625 566.10155714 C-350.74476811 564.56023858 -352.29385634 563.01187182 -353.84301758 561.46337891 C-354.95812518 560.35589355 -356.07363415 559.24881219 -357.18951416 558.1421051 C-360.21684096 555.13671522 -363.23757654 552.12478479 -366.25649476 549.11095095 C-368.14165867 547.22942953 -370.02811434 545.34921316 -371.91501427 543.46943283 C-378.49390611 536.91502621 -385.06706588 530.35492701 -391.63549805 523.79003906 C-397.76539147 517.66378706 -403.90831003 511.55080967 -410.05725557 505.44368613 C-415.33236461 500.20320665 -420.59787384 494.95321038 -425.8560459 489.69573724 C-428.99843125 486.55414678 -432.14471031 483.41670453 -435.30085182 480.28892899 C-438.2659179 477.34992002 -441.2189205 474.39931547 -444.16291809 471.43920708 C-445.24744109 470.3528601 -446.33628163 469.27080448 -447.42961693 468.19332695 C-448.91728513 466.72593606 -450.38885182 465.24410957 -451.85725403 463.75747681 C-453.10079509 462.51695273 -453.10079509 462.51695273 -454.3694582 461.25136757 C-456 459 -456 459 -455.79201335 457.07268123 C-454.86743629 454.65308374 -453.78801714 453.41391325 -451.95832819 451.5857327 C-451.30387607 450.9245387 -450.64942395 450.2633447 -449.97513995 449.58211452 C-449.24778978 448.8626454 -448.52043962 448.14317628 -447.77104855 447.40190506 C-447.00168467 446.62907966 -446.2323208 445.85625425 -445.43964288 445.0600099 C-442.83558759 442.44795486 -440.22088516 439.84681958 -437.60618591 437.24542236 C-435.72789404 435.3658234 -433.85020648 433.48563818 -431.97324425 431.6047132 C-427.87874539 427.50398455 -423.77868701 423.40888065 -419.67498207 419.31736565 C-413.5729164 413.23337583 -407.47944216 407.14083588 -401.38772699 401.0464846 C-391.14116826 390.79598031 -380.88762989 380.55248462 -370.63012505 370.31293488 C-360.47074332 360.17129103 -350.31445792 350.02656292 -340.16230965 339.87767792 C-339.5315906 339.24716509 -338.90087156 338.61665227 -338.25103981 337.96703299 C-335.04808429 334.76509244 -331.84518417 331.56309648 -328.64230538 328.36107919 C-305.94339431 305.66847299 -283.23753245 282.98283336 -260.52758789 260.30126953 C-238.46222155 238.26344662 -216.40000124 216.22248199 -194.34204102 194.17724609 C-193.32254515 193.15834209 -193.32254515 193.15834209 -192.2824534 192.11885417 C-185.45712776 185.29748401 -178.63186611 178.47604982 -171.80665136 171.65456871 C-157.90231997 157.75784641 -143.99756139 143.86155158 -130.09254456 129.96551514 C-129.45318439 129.32656684 -128.81382422 128.68761854 -128.15508949 128.02930817 C-85.44388054 85.34571133 -42.72271365 42.67208121 0 0 Z " fill="#030303" transform="translate(456,282)"/>
<path d="M0 0 C2.92544025 1.29558542 4.76435225 3.34110075 7.01479846 5.60072631 C7.51132419 6.09520766 8.00784992 6.58968901 8.51942188 7.09915465 C10.15958991 8.7363146 11.78875627 10.38397284 13.41787463 12.03212279 C14.56065642 13.17796482 15.70403221 14.32321471 16.84797412 15.46789855 C19.24737518 17.87190434 21.64178338 20.28073552 24.03237659 22.69349974 C27.07841518 25.76766091 30.13291199 28.83323124 33.1907981 31.89560336 C36.12380911 34.83380767 39.05213797 37.77666176 41.98037463 40.71962279 C42.531452 41.27258088 43.08252937 41.82553897 43.65030605 42.39525336 C53.48727424 52.2755656 53.48727424 52.2755656 57.36001331 56.81996459 C61.82370884 62.02920906 66.77726898 66.7640049 71.66959888 71.56487578 C74.08152153 73.93427618 76.48374532 76.31341287 78.88667804 78.69192427 C83.34547106 83.10514594 87.80827152 87.51414103 92.28701526 91.90712279 C95.41808218 94.9789686 98.53694333 98.06274457 101.64796191 101.15488738 C102.83326368 102.32842861 104.02309237 103.49741555 105.21745044 104.66173857 C106.87856691 106.28205924 108.52369659 107.91710418 110.16592151 109.55653685 C111.57653857 110.94597502 111.57653857 110.94597502 113.01565295 112.36348265 C114.89834338 114.84071654 114.89834338 114.84071654 114.74527347 116.74321026 C113.67294083 119.3989483 112.2581919 120.85336364 110.23015243 122.87805098 C109.43743058 123.67674597 108.64470874 124.47544096 107.82796502 125.29833883 C106.9476326 126.16993273 106.06730018 127.04152663 105.16029102 127.93953246 C104.23247021 128.86991654 103.30464939 129.80030063 102.3487128 130.75887817 C99.76952967 133.34478266 97.18106293 135.92121761 94.59101909 138.4962377 C91.80099896 141.27332553 89.0196301 144.0590538 86.23721057 146.84375304 C81.41408016 151.66845796 76.58547898 156.48763134 71.75313884 161.30311126 C64.76636303 168.26552575 57.78786709 175.23619067 50.81137664 182.20890948 C39.49278979 193.52092735 28.16751698 204.82622685 16.83804065 216.12733763 C5.83127568 227.10657361 -5.17234003 238.08895006 -16.17172498 249.07557982 C-17.18840288 250.09107548 -17.18840288 250.09107548 -18.22561974 251.12708619 C-21.62578483 254.52333622 -25.02588799 257.91964825 -28.42596036 261.3159911 C-56.64159691 289.50051782 -84.86808443 317.67415737 -113.10165662 345.84071654 C-116.70067809 344.14646619 -119.04473387 342.15592914 -121.8793208 339.33720702 C-122.57766782 338.64671501 -122.57766782 338.64671501 -123.29012287 337.94227368 C-124.84642472 336.40095512 -126.39551296 334.85258836 -127.94467419 333.30409545 C-129.0597818 332.19661009 -130.17529077 331.08952873 -131.29117078 329.98282164 C-134.31849758 326.97743176 -137.33923316 323.96550133 -140.35815138 320.95166749 C-142.24331529 319.07014607 -144.12977095 317.18992971 -146.01667088 315.31014937 C-152.59556273 308.75574275 -159.16872249 302.19564355 -165.73715466 295.6307556 C-171.86704808 289.5045036 -178.00996665 283.39152621 -184.15891218 277.28440267 C-189.43402123 272.04392319 -194.69953045 266.79392693 -199.95770252 261.53645378 C-203.10008787 258.39486332 -206.24636693 255.25742107 -209.40250844 252.12964553 C-212.36757451 249.19063656 -215.32057711 246.24003201 -218.26457471 243.27992362 C-219.34909771 242.19357664 -220.43793825 241.11152102 -221.53127354 240.03404349 C-223.01894175 238.5666526 -224.49050844 237.08482611 -225.95891064 235.59819335 C-227.20245171 234.35766927 -227.20245171 234.35766927 -228.47111481 233.09208411 C-230.10165662 230.84071654 -230.10165662 230.84071654 -229.93212909 228.95251405 C-228.88047774 226.2782837 -227.47512696 224.8357205 -225.44463891 222.80058879 C-224.25925633 221.60162125 -224.25925633 221.60162125 -223.04992664 220.37843215 C-222.1723227 219.50615614 -221.29471875 218.63388012 -220.39052075 217.7351715 C-219.4655222 216.80408185 -218.54052366 215.87299219 -217.58749485 214.91368771 C-215.016081 212.32583056 -212.43533639 209.74745655 -209.85296851 207.17053634 C-207.07111139 204.39134394 -204.297865 201.60358193 -201.52347058 198.81694335 C-196.08580711 193.35820174 -190.63988887 187.90776808 -185.19078662 182.46044727 C-180.76395317 178.03491997 -176.33967868 173.60685035 -171.91721791 169.17695349 C-170.64473557 167.90237204 -169.37225248 166.62779135 -168.09976864 165.3532114 C-167.46648668 164.71888592 -166.83320473 164.08456043 -166.18073241 163.43101297 C-154.19769875 151.42906815 -142.2046938 139.4371252 -130.20879314 127.44804303 C-119.22375672 116.46858573 -108.25198976 105.47597548 -97.28630468 94.47719409 C-86.03627045 83.19346819 -74.77702809 71.91900632 -63.50782108 60.65442753 C-57.177248 54.32610333 -50.85050763 47.99405418 -44.53348607 41.65219992 C-39.15702664 36.254786 -33.77202777 30.86607838 -28.37560632 25.48861977 C-25.62043874 22.7426453 -22.86952415 19.99272947 -20.12923878 17.23189658 C-17.16410157 14.24477167 -14.18013825 11.27721548 -11.19374341 8.31134337 C-10.32283163 7.42791375 -9.45191985 6.54448412 -8.55461681 5.6342839 C-7.75653852 4.84801095 -6.95846023 4.061738 -6.13619775 3.25163859 C-5.44868658 2.56385504 -4.76117541 1.87607149 -4.05283058 1.16744602 C-2.10165662 -0.15928346 -2.10165662 -0.15928346 0 0 Z " fill="#030303" transform="translate(315.1016566157341,141.15928345918655)"/>
<path d="M0 0 C3.64464658 1.53920093 5.98516303 3.72663762 8.77766418 6.50350952 C9.24322887 6.96383752 9.70879355 7.42416553 10.18846625 7.89844286 C11.74476811 9.43976142 13.29385634 10.98812818 14.84301758 12.53662109 C15.95812518 13.64410645 17.07363415 14.75118781 18.18951416 15.8578949 C21.21684096 18.86328478 24.23757654 21.87521521 27.25649476 24.88904905 C29.14165867 26.77057047 31.02811434 28.65078684 32.91501427 30.53056717 C39.49390611 37.08497379 46.06706588 43.64507299 52.63549805 50.20996094 C58.76539147 56.33621294 64.90831003 62.44919033 71.05725557 68.55631387 C76.33236461 73.79679335 81.59787384 79.04678962 86.8560459 84.30426276 C89.99843125 87.44585322 93.14471031 90.58329547 96.30085182 93.71107101 C99.2659179 96.65007998 102.2189205 99.60068453 105.16291809 102.56079292 C106.24744109 103.6471399 107.33628163 104.72919552 108.42961693 105.80667305 C109.91728513 107.27406394 111.38885182 108.75589043 112.85725403 110.24252319 C113.6862814 111.06953924 114.51530878 111.89655529 115.3694582 112.74863243 C117 115 117 115 116.83047247 116.88820249 C115.77882113 119.56243285 114.37347035 121.00499604 112.34298229 123.04012775 C111.55272724 123.83943944 110.76247219 124.63875113 109.94827002 125.46228439 C109.07066608 126.3345604 108.19306214 127.20683642 107.28886414 128.10554504 C106.36386559 129.03663469 105.43886704 129.96772435 104.48583823 130.92702883 C101.91442439 133.51488598 99.33367977 136.09325999 96.7513119 138.6701802 C93.96945478 141.4493726 91.19620839 144.23713461 88.42181396 147.02377319 C82.98415049 152.4825148 77.53823225 157.93294846 72.08913001 163.38026927 C67.66229655 167.80579657 63.23802206 172.23386619 58.81556129 176.66376305 C57.54307896 177.9383445 56.27059587 179.21292519 54.99811202 180.48750514 C54.36483007 181.12183062 53.73154811 181.75615611 53.07907579 182.40970358 C41.09604214 194.41164839 29.10303719 206.40359134 17.10713653 218.39267351 C6.12210011 229.37213081 -4.84966685 240.36474106 -15.81535194 251.36352245 C-27.06538616 262.64724835 -38.32462853 273.92171022 -49.59383553 285.18628901 C-55.92440861 291.51461321 -62.25114898 297.84666236 -68.56817055 304.18851662 C-73.94462998 309.58593054 -79.32962884 314.97463816 -84.72605029 320.35209677 C-87.48121788 323.09807124 -90.23213247 325.84798707 -92.97241783 328.60881996 C-95.93755504 331.59594487 -98.92151836 334.56350106 -101.90791321 337.52937317 C-102.77882499 338.41280279 -103.64973676 339.29623242 -104.54703981 340.20643264 C-105.3451181 340.99270559 -106.14319639 341.77897854 -106.96545887 342.58907795 C-107.65297004 343.2768615 -108.3404812 343.96464505 -109.04882604 344.67327052 C-111 346 -111 346 -113.1109246 345.83047247 C-115.89508693 344.60650324 -117.62584353 342.75890937 -119.77766418 340.616745 C-120.24322887 340.15727142 -120.70879355 339.69779784 -121.18846625 339.22440082 C-122.74719703 337.68232432 -124.29499411 336.12972368 -125.84301758 334.5769043 C-126.95791043 333.46935017 -128.07342483 332.36242141 -129.18951416 331.256073 C-132.21910275 328.24872501 -135.23895533 325.23177738 -138.25649476 322.21234488 C-140.77406276 319.69465735 -143.29595441 317.18132254 -145.81774825 314.66786891 C-151.76406895 308.74078988 -157.70217003 302.80556155 -163.63549805 296.86547852 C-169.76393436 290.73039402 -175.9069954 284.61023446 -182.05725557 278.49703473 C-187.33248819 273.25244382 -192.59806228 267.99829125 -197.8560459 262.73640758 C-200.99867552 259.59170548 -204.14500543 256.45093746 -207.30085182 253.31949425 C-210.2660305 250.37648996 -213.21902298 247.42179005 -216.16291809 244.45750046 C-217.24744264 243.36954981 -218.33628315 242.28588267 -219.42961693 241.2067852 C-220.91730102 239.7371493 -222.38886754 238.25308605 -223.85725403 236.76420593 C-225.10079509 235.52173363 -225.10079509 235.52173363 -226.3694582 234.25416088 C-228 232 -228 232 -227.80652267 230.08662564 C-226.83441972 227.57161272 -225.63459583 226.26300723 -223.72617912 224.35982895 C-222.66897394 223.29458909 -222.66897394 223.29458909 -221.59041107 222.20782924 C-220.80823624 221.43507506 -220.02606142 220.66232088 -219.22018433 219.8661499 C-218.39530773 219.0394156 -217.57043114 218.2126813 -216.72055829 217.36089444 C-214.42719417 215.06537683 -212.12721447 212.7767331 -209.82432079 210.49078298 C-207.34294799 208.02440302 -204.87024189 205.5493616 -202.39649963 203.07533264 C-198.10697273 198.78764502 -193.81203624 194.50543841 -189.51345444 190.22682953 C-183.29027733 184.03246212 -177.07587893 177.82934795 -170.86368431 171.62396875 C-160.77415021 161.54588608 -150.67830134 151.47415465 -140.578125 141.40673828 C-130.78459523 131.64493322 -120.99275528 121.88144083 -111.20410156 112.11474609 C-110.60196201 111.51396011 -109.99982245 110.91317413 -109.37943624 110.29418251 C-102.80060078 103.72999914 -96.22247168 97.16510857 -89.64518929 90.59936905 C-89.06638906 90.02158721 -88.48758884 89.44380537 -87.89124922 88.84851499 C-85.57674118 86.53805966 -83.26224126 84.22759621 -80.94783188 81.91704205 C-74.18056516 75.16108172 -67.41112314 68.40731879 -60.63768728 61.65754327 C-56.38444565 57.41905058 -52.13285269 53.17890921 -47.88252883 48.93749061 C-45.43240535 46.49266764 -42.98143263 44.04871151 -40.52818871 41.60701942 C-37.86370294 38.95426421 -35.20235621 36.29839757 -32.54171753 33.64178467 C-31.77292704 32.87795337 -31.00413654 32.11412208 -30.21204937 31.32714438 C-26.12960473 27.24390104 -22.22004072 23.07088225 -18.46095765 18.68727612 C-16.59479849 16.5320283 -14.62095766 14.5076169 -12.59765625 12.5 C-11.85322266 11.75878906 -11.10878906 11.01757812 -10.34179688 10.25390625 C-9.58962891 9.51011719 -8.83746094 8.76632812 -8.0625 8 C-6.89364258 6.83791016 -6.89364258 6.83791016 -5.70117188 5.65234375 C-3.8030758 3.76589243 -1.90266851 1.88183755 0 0 Z " fill="#030303" transform="translate(370,651)"/>
<path d="M0 0 C2.76723418 1.42744392 4.61449461 3.27543309 6.81448555 5.48269272 C7.28342822 5.94907211 7.75237089 6.41545151 8.23552394 6.89596361 C9.80574489 8.46124139 11.36500012 10.03700388 12.92453194 11.61292648 C14.04761598 12.73685668 15.17136092 13.86012682 16.29571724 14.98278427 C19.34759192 18.03379713 22.3901194 21.09398083 25.43107891 24.15586782 C28.61012147 27.3536459 31.79764412 30.5429478 34.98428535 33.73315048 C41.01797923 39.776174 47.04398412 45.82680517 53.06727862 51.88019222 C59.92468667 58.77111563 66.7906006 65.65353702 73.65724993 72.53524983 C87.78286175 86.6922315 101.89773266 100.85988083 116.00558662 115.03455734 C110.92483523 121.17950707 105.38320296 126.78563222 99.73336983 132.40443039 C98.70265924 133.43321854 97.67217851 134.46223701 96.64190865 135.49146652 C94.43515011 137.69508048 92.22685193 139.89713532 90.01733017 142.09797859 C86.52254252 145.57917845 83.0316309 149.06424802 79.54127693 152.54989243 C72.13651267 159.94358851 64.72751397 167.33303472 57.31808662 174.72205734 C49.30737281 182.71073299 41.29740059 190.70014402 33.29229039 198.69443542 C29.8230919 202.1586559 26.35147095 205.62042463 22.87796748 209.08032835 C20.71950948 211.23132546 18.56312668 213.38439375 16.40730095 215.53802872 C15.40804324 216.53541525 14.40792186 217.53193736 13.4068718 218.52752495 C12.03966249 219.88750812 10.67583719 221.25089076 9.31218147 222.6144371 C8.54843366 223.37596431 7.78468584 224.13749151 6.99779415 224.9220953 C5.16082177 226.86995182 3.5599556 228.85772153 2.00558662 231.03455734 C-2.07704447 230.50125959 -3.95576272 228.44337976 -6.8033123 225.58642197 C-7.27225497 225.12004257 -7.74119764 224.65366318 -8.22435069 224.17315108 C-9.79457164 222.60787329 -11.35382687 221.0321108 -12.91335869 219.4561882 C-14.03644273 218.332258 -15.16018767 217.20898786 -16.28454399 216.08633041 C-19.33641867 213.03531755 -22.37894615 209.97513386 -25.41990566 206.91324687 C-28.59894823 203.71546879 -31.78647087 200.52616689 -34.97311211 197.3359642 C-41.00680598 191.29294069 -47.03281087 185.24230951 -53.05610538 179.18892246 C-59.91351343 172.29799905 -66.77942735 165.41557766 -73.64607668 158.53386486 C-87.7716885 144.37688319 -101.88655941 130.20923386 -115.99441338 116.03455734 C-114.45962961 112.40727995 -112.29359589 110.07528623 -109.52886772 107.29485703 C-109.07262327 106.8333759 -108.61637882 106.37189477 -108.14630878 105.89642936 C-106.61880894 104.35394745 -105.08426287 102.8186787 -103.54958916 101.28333664 C-102.45195592 100.17808107 -101.35472666 99.07242419 -100.25787163 97.96639633 C-97.27933994 94.96592858 -94.29426873 91.97205149 -91.30729342 88.97999167 C-89.44252298 87.11157866 -87.57905765 85.24187398 -85.71602821 83.37172508 C-79.21997609 76.85118808 -72.71823188 70.33638302 -66.21169853 63.82630539 C-60.13997762 57.75094305 -54.08153257 51.66255657 -48.02894032 45.56814259 C-42.83516967 40.33974212 -37.63188236 35.1209421 -32.42111766 29.90947849 C-29.3074724 26.79503835 -26.19797624 23.67670591 -23.09814644 20.5485096 C-20.18540188 17.60970746 -17.26106324 14.6829715 -14.32721901 11.76523781 C-13.25054735 10.69039008 -12.17816672 9.61122492 -11.11036491 8.527565 C-9.65610916 7.05303102 -8.18742407 5.5946071 -6.71392632 4.13933945 C-5.89428461 3.31768641 -5.07464291 2.49603338 -4.23016357 1.64948177 C-1.99441338 0.03455734 -1.99441338 0.03455734 0 0 Z " fill="#030303" transform="translate(455.9944133758545,-0.034557342529296875)"/>
</svg>
