<svg width="600" height="190" viewBox="0 0 600 190" fill="none" xmlns="http://www.w3.org/2000/svg">
<g clip-path="url(#clip0_2031_29523)">
<path d="M47.4916 49.7266C49.267 51.3206 49.9897 52.9298 50.7972 55.2734C51.0321 55.9463 51.2669 56.6191 51.5089 57.3123C51.7577 58.0428 52.0064 58.7732 52.2627 59.5258C52.5277 60.2894 52.7927 61.0529 53.0657 61.8397C53.9161 64.294 54.7592 66.7514 55.602 69.209C56.1537 70.8067 56.7058 72.4041 57.2585 74.0014C58.0854 76.3909 58.9114 78.7809 59.734 81.1723C61.1031 85.1493 62.4868 89.1186 63.9037 93.075C64.1764 93.8381 64.449 94.6012 64.7299 95.3874C65.2421 96.8175 65.7572 98.2463 66.2759 99.6735C74.2545 121.974 73.2944 145.863 64.8829 167.734C64.5964 168.488 64.3099 169.241 64.0148 170.017C63.0454 172.554 62.0647 175.085 61.0786 177.615C60.7603 178.435 60.4421 179.255 60.1142 180.1C59.8091 180.869 59.5039 181.638 59.1894 182.43C58.9172 183.12 58.645 183.811 58.3646 184.522C57.0782 187.23 56.1406 188.286 53.5117 189.258C51.9605 189.34 50.4074 189.376 48.8545 189.389C48.3834 189.394 47.9122 189.399 47.4267 189.404C45.8684 189.419 44.3102 189.427 42.7518 189.435C41.9528 189.439 41.9528 189.439 41.1376 189.444C38.319 189.459 35.5004 189.47 32.6818 189.477C29.7719 189.485 26.8624 189.511 23.9527 189.54C21.7135 189.56 19.4745 189.566 17.2353 189.568C16.1627 189.572 15.0901 189.581 14.0175 189.594C12.5156 189.613 11.0145 189.612 9.51246 189.607C8.23151 189.613 8.23151 189.613 6.92467 189.62C4.2959 189.195 3.20382 188.344 1.33775 186.289C0.523728 184.483 0.573953 183.305 0.556912 181.285C0.549226 180.542 0.541539 179.799 0.53362 179.034C0.528669 178.216 0.523718 177.398 0.518617 176.555C0.510998 175.695 0.503379 174.836 0.49553 173.951C0.430249 166.019 0.395896 158.086 0.371321 150.154C0.352895 144.293 0.318977 138.433 0.263979 132.572C0.226597 128.448 0.207276 124.325 0.201106 120.201C0.196929 117.74 0.182493 115.28 0.153355 112.819C0.122474 110.068 0.121108 107.319 0.126685 104.568C0.110902 103.759 0.0951189 102.95 0.0788574 102.117C0.127364 97.1671 0.895896 94.5831 4.09176 91.0853C4.50735 90.6627 4.92294 90.2401 5.35113 89.8047C5.99463 89.0646 6.63517 88.3214 7.27196 87.5742C7.90186 86.8688 8.53345 86.1652 9.16658 85.4634C9.69123 84.8775 9.69123 84.8775 10.2265 84.2798C11.3623 83.0126 12.5006 81.7481 13.6392 80.4839C14.4376 79.5957 15.2359 78.7074 16.0342 77.819C17.6971 75.9695 19.3613 74.1215 21.0264 72.2744C23.1614 69.9056 25.2916 67.5317 27.4208 65.1565C29.0631 63.3261 30.7084 61.499 32.3545 59.6728C33.1418 58.7984 33.928 57.9228 34.7131 57.0459C35.8064 55.8256 36.9038 54.6101 38.0023 53.3957C38.6254 52.7033 39.2485 52.0108 39.8905 51.2974C42.4815 48.7232 44.2272 48.8211 47.4916 49.7266Z" fill="#0DAA4A"/>
<path d="M173.244 107.617C175.349 109.773 176.092 111.436 176.259 114.539C176.275 115.838 176.276 117.137 176.266 118.436C176.271 119.147 176.275 119.858 176.28 120.591C176.292 122.938 176.284 125.285 176.275 127.633C176.277 129.266 176.279 130.9 176.283 132.533C176.287 135.954 176.281 139.375 176.268 142.797C176.253 147.182 176.262 151.567 176.278 155.952C176.288 159.324 176.285 162.696 176.278 166.068C176.276 167.685 176.278 169.301 176.284 170.918C176.291 173.178 176.281 175.438 176.266 177.697C176.271 178.365 176.277 179.033 176.282 179.721C176.245 182.767 176.139 184.404 174.686 187.058C172.411 189.358 170.501 189.354 167.544 189.372C166.776 189.379 166.008 189.385 165.217 189.391C164.373 189.395 163.53 189.398 162.661 189.401C161.764 189.407 160.868 189.413 159.971 189.419C157.026 189.439 154.081 189.45 151.137 189.461C150.122 189.465 149.108 189.469 148.094 189.473C143.874 189.489 139.655 189.503 135.436 189.511C129.391 189.523 123.347 189.548 117.303 189.59C113.051 189.619 108.8 189.633 104.548 189.637C102.01 189.64 99.4713 189.649 96.9327 189.673C94.5438 189.695 92.1553 189.7 89.7663 189.691C88.4745 189.691 87.1828 189.709 85.8912 189.728C79.5545 189.677 79.5545 189.677 77.0671 187.523C75.5852 185.547 75.5852 185.547 75.1462 183.19C75.7374 179.367 77.0443 176.246 78.5952 172.791C78.901 172.099 79.2067 171.406 79.5217 170.693C83.6106 161.598 88.6508 154.239 94.9832 146.953C95.4298 146.411 95.8765 145.868 96.3367 145.309C106.643 133.126 121.252 127.216 134.992 121.441C136.459 120.819 137.926 120.197 139.392 119.574C141.56 118.654 143.729 117.735 145.898 116.819C149.848 115.15 153.786 113.453 157.708 111.705C158.513 111.35 159.317 110.994 160.146 110.628C161.553 110.004 162.958 109.373 164.358 108.732C170.098 106.215 170.098 106.215 173.244 107.617Z" fill="#0EA94A"/>
<path d="M90.3009 0.742131C94.8269 4.31534 98.6618 9.17102 102.573 13.5211C103.252 14.2728 103.93 15.0243 104.609 15.7756C106.436 17.7993 108.261 19.8253 110.085 21.8519C111.998 23.977 113.914 26.1003 115.828 28.2238C119.038 31.7842 122.247 35.346 125.455 38.9088C129.165 43.0296 132.878 47.1478 136.592 51.2646C139.785 54.8044 142.977 58.3456 146.168 61.8881C148.072 64.0019 149.976 66.1152 151.882 68.2272C153.669 70.2085 155.455 72.1915 157.24 74.176C157.896 74.9049 158.553 75.6332 159.21 76.3607C160.104 77.3511 160.996 78.344 161.888 79.3371C162.389 79.8927 162.889 80.4483 163.405 81.0207C165.333 83.3179 165.366 85.1756 165.567 88.2681C165.006 90.7314 163.77 91.4269 161.873 92.7734C160.111 93.5834 158.318 94.1626 156.48 94.7216C155.79 94.9484 155.79 94.9484 155.086 95.1797C135.226 101.459 114.029 98.3217 96.0702 87.2997C91.8081 84.588 87.9761 81.5321 84.2809 77.9296C83.7419 77.4379 83.203 76.9461 82.6478 76.4395C73.0746 67.4298 66.7998 55.735 61.9146 43.0468C61.6855 42.452 61.4565 41.8572 61.2204 41.2444C58.9585 35.1641 58.9585 35.1641 58.8628 31.914C60.5125 27.9292 63.5198 25.0625 66.286 22.022C66.8144 21.436 67.3429 20.85 67.8874 20.2462C69.0019 19.0118 70.118 17.7793 71.2356 16.5484C72.9511 14.6585 74.6611 12.7628 76.3704 10.866C77.454 9.66736 78.5379 8.46902 79.6221 7.27106C80.1356 6.70209 80.6491 6.13313 81.1782 5.54692C81.6538 5.02402 82.1293 4.50112 82.6192 3.96238C83.038 3.50057 83.4567 3.03875 83.8882 2.56295C85.9588 0.459057 87.548 0.289608 90.3009 0.742131Z" fill="#0BA748"/>
<path d="M212.04 49.7265C217.228 49.6896 222.415 49.6628 227.603 49.645C229.365 49.6376 231.127 49.6275 232.889 49.6145C235.433 49.5964 237.976 49.5881 240.52 49.5816C241.298 49.5739 242.076 49.5662 242.878 49.5584C250.835 49.5572 259.165 50.0657 265.45 56.1105C270.058 61.6129 270.586 67.2147 270.417 74.4999C269.941 81.494 267.558 85.8217 262.876 90.5468C261.532 91.5362 260.381 92.1418 258.863 92.7734C259.736 95.3188 260.736 97.67 261.941 100.042C262.268 100.693 262.596 101.344 262.934 102.015C263.625 103.378 264.316 104.74 265.008 106.102C265.334 106.751 265.66 107.399 265.996 108.067C266.296 108.657 266.595 109.247 266.904 109.856C267.558 111.328 267.558 111.328 267.558 112.812C271.09 112.812 274.622 112.812 278.261 112.812C278.275 114.634 278.288 116.456 278.303 118.332C278.309 118.907 278.315 119.481 278.321 120.073C278.326 121.364 278.294 122.655 278.261 123.945C277.592 124.687 277.592 124.687 276.343 124.777C275.798 124.775 275.253 124.773 274.691 124.772C274.075 124.772 273.459 124.772 272.825 124.772C272.155 124.768 271.486 124.764 270.796 124.76C269.773 124.758 269.773 124.758 268.729 124.757C266.541 124.753 264.353 124.743 262.165 124.734C260.686 124.73 259.207 124.727 257.727 124.724C254.093 124.715 250.458 124.703 246.823 124.687C246.823 120.769 246.823 116.85 246.823 112.812C249.803 112.445 249.803 112.445 252.843 112.07C251.835 109.337 250.758 106.645 249.665 103.953C249.382 103.18 249.098 102.407 248.806 101.612C247.854 99.3292 247.042 97.5755 245.485 95.7422C242.628 94.7972 240.492 94.8851 237.458 95C237.458 100.878 237.458 106.756 237.458 112.812C239.665 112.812 241.873 112.812 244.147 112.812C244.147 116.731 244.147 120.65 244.147 124.687C233.552 124.687 222.956 124.687 212.04 124.687C212.04 120.769 212.04 116.85 212.04 112.812C215.793 112.812 219.545 112.812 223.411 112.812C223.411 95.9129 223.411 79.0132 223.411 61.6015C219.659 61.6015 215.906 61.6015 212.04 61.6015C212.04 57.6828 212.04 53.764 212.04 49.7265ZM237.458 62.3437C237.458 69.2015 237.458 76.0593 237.458 83.125C239.459 83.1862 241.459 83.2474 243.52 83.3105C244.451 83.3511 244.451 83.3511 245.401 83.3924C249.356 83.4505 251.632 82.7464 254.849 80.1562C256.976 76.4697 257.123 73.5522 256.569 69.2495C256.021 66.793 255.233 65.4804 253.512 63.8281C250.055 62.1533 246.919 62.1667 243.227 62.2509C241.323 62.2816 239.42 62.3122 237.458 62.3437Z" fill="#002E38"/>
<path d="M502.968 74.7289C504.157 74.7102 504.157 74.7102 505.369 74.6912C509.697 75.1935 512.168 77.4343 515.05 80.8983C515.712 81.6331 515.712 81.6331 516.388 82.3827C516.829 81.7092 517.271 81.0356 517.726 80.3417C520.455 76.801 523.128 75.209 527.323 74.6767C532.658 74.4868 536.797 74.8809 540.816 78.9617C546.058 85.3315 545.241 94.3574 545.192 102.375C545.189 103.308 545.186 104.24 545.183 105.201C545.175 107.491 545.163 109.78 545.15 112.07C548.02 112.315 550.89 112.56 553.846 112.812C553.864 114.652 553.877 116.492 553.888 118.332C553.893 118.857 553.899 119.382 553.905 119.923C553.911 121.264 553.881 122.605 553.846 123.945C553.177 124.687 553.177 124.687 550.522 124.772C549.337 124.772 548.152 124.767 546.966 124.76C546.344 124.759 545.721 124.758 545.08 124.757C543.083 124.753 541.086 124.743 539.089 124.734C537.738 124.73 536.388 124.727 535.037 124.724C531.719 124.715 528.401 124.703 525.084 124.687C525.084 120.769 525.084 116.85 525.084 112.812C527.291 112.812 529.498 112.812 531.772 112.812C531.696 109.967 531.611 107.122 531.522 104.277C531.501 103.477 531.48 102.678 531.459 101.854C531.462 94.1278 531.462 94.1278 528.428 87.578C525.327 87.0626 522.599 86.8794 520.025 88.9696C518.365 91.692 518.276 93.4325 518.183 96.722C518.155 97.6548 518.127 98.5876 518.098 99.5487C518.072 100.527 518.045 101.506 518.018 102.515C517.989 103.509 517.96 104.503 517.931 105.498C517.86 107.936 517.791 110.374 517.726 112.812C519.492 112.812 521.257 112.812 523.077 112.812C523.095 114.652 523.108 116.492 523.119 118.332C523.124 118.857 523.13 119.382 523.136 119.923C523.141 121.264 523.112 122.605 523.077 123.945C522.408 124.687 522.408 124.687 520.183 124.772C519.196 124.772 518.209 124.767 517.221 124.76C516.703 124.759 516.184 124.758 515.65 124.757C513.986 124.753 512.323 124.743 510.66 124.734C509.536 124.73 508.411 124.727 507.286 124.724C504.523 124.716 501.76 124.702 498.997 124.687C498.997 120.769 498.997 116.85 498.997 112.812C500.762 112.812 502.528 112.812 504.348 112.812C504.274 109.565 504.187 106.318 504.097 103.071C504.076 102.153 504.056 101.234 504.034 100.288C503.995 98.9534 503.995 98.9534 503.956 97.5918C503.935 96.7755 503.914 95.9593 503.892 95.1184C503.667 92.6445 503.197 90.6158 502.341 88.3202C499.872 86.9503 497.01 87.2205 494.314 87.578C492.242 89.2044 491.77 90.1093 490.97 92.7733C490.869 94.3049 490.804 95.8395 490.758 97.3743C490.716 98.7197 490.716 98.7197 490.673 100.092C490.647 101.029 490.621 101.967 490.594 102.932C490.55 104.351 490.55 104.351 490.506 105.798C490.435 108.136 490.367 110.474 490.301 112.812C492.508 112.812 494.716 112.812 496.99 112.812C497.008 114.652 497.021 116.492 497.032 118.332C497.037 118.857 497.043 119.382 497.049 119.923C497.054 121.264 497.025 122.605 496.99 123.945C495.686 125.391 493.714 124.783 491.979 124.791C491.37 124.789 490.761 124.788 490.134 124.786C489.513 124.787 488.892 124.787 488.252 124.788C486.936 124.789 485.62 124.787 484.304 124.784C482.283 124.78 480.261 124.784 478.24 124.789C476.965 124.788 475.69 124.787 474.415 124.786C473.501 124.788 473.501 124.788 472.569 124.791C468.304 124.773 468.304 124.773 467.558 123.945C467.51 122.067 467.497 120.21 467.517 118.332C467.52 117.805 467.523 117.277 467.526 116.734C467.534 115.426 467.546 114.119 467.558 112.812C470.649 112.812 473.739 112.812 476.923 112.812C476.923 104.485 476.923 96.1577 476.923 87.578C473.833 87.578 470.742 87.578 467.558 87.578C467.558 83.6593 467.558 79.7405 467.558 75.703C470.499 75.686 473.44 75.6712 476.381 75.6623C477.382 75.6585 478.383 75.6534 479.384 75.647C480.821 75.6381 482.257 75.6338 483.693 75.6305C484.991 75.6247 484.991 75.6247 486.315 75.6188C488.294 75.703 488.294 75.703 488.963 76.4452C488.99 78.1767 488.991 79.909 488.963 81.6405C489.359 81.2827 489.755 80.9249 490.162 80.5562C490.691 80.0874 491.22 79.6186 491.764 79.1356C492.284 78.6707 492.804 78.2057 493.34 77.7266C496.528 75.2403 499.088 74.7429 502.968 74.7289Z" fill="#002D38"/>
<path d="M435.201 74.6362C435.727 74.6288 436.254 74.6214 436.796 74.6138C441.58 74.6913 445.699 75.874 449.707 78.811C453.988 83.782 454.941 89.0441 454.915 95.7799C454.914 96.2688 454.913 96.7578 454.912 97.2616C454.908 98.8116 454.9 100.362 454.891 101.912C454.888 102.967 454.885 104.023 454.882 105.079C454.875 107.657 454.863 110.235 454.849 112.813C457.498 112.813 460.147 112.813 462.876 112.813C462.876 116.731 462.876 120.65 462.876 124.688C460.13 124.767 457.387 124.826 454.64 124.873C453.86 124.898 453.079 124.923 452.274 124.948C451.152 124.963 451.152 124.963 450.008 124.977C448.973 125.001 448.973 125.001 447.917 125.025C446.154 124.688 446.154 124.688 444.993 123.324C444.714 122.794 444.435 122.265 444.147 121.719C443.706 120.984 443.264 120.249 442.809 119.492C442.47 119.796 442.13 120.101 441.78 120.414C441.319 120.814 440.859 121.214 440.385 121.626C439.934 122.022 439.484 122.418 439.021 122.826C434.427 126.116 429.36 125.951 424.08 125.43C420.741 124.535 418.218 123.332 415.719 120.698C413.275 115.954 412.663 111.336 413.689 105.999C414.732 102.368 416.309 99.7859 419.398 97.9688C426.344 94.7508 434.101 95.5181 441.471 95.7422C441.385 94.668 441.292 93.5945 441.197 92.5212C441.146 91.9233 441.095 91.3254 441.043 90.7094C440.873 88.9462 440.873 88.9462 439.841 87.1607C437.197 85.5151 434.399 85.485 431.438 86.0938C430.193 86.887 430.193 86.887 429.431 88.3203C429.211 89.7899 428.99 91.2594 428.762 92.7734C424.348 92.7734 419.933 92.7734 415.385 92.7734C415.385 86.2336 415.553 83.8493 419.44 79.2749C424.555 75.7729 429.252 74.6851 435.201 74.6362ZM427.425 106.875C427.268 108.994 427.141 110.737 427.425 112.813C429.348 114.946 430.701 115.032 433.403 115.317C436.03 115.202 437.903 114.403 440.134 112.813C441.511 110.52 441.631 110.059 441.555 107.478C441.528 106.544 441.5 105.611 441.471 104.648C439.882 104.588 438.295 104.544 436.706 104.509C436.038 104.481 436.038 104.481 435.357 104.453C432.195 104.401 430.133 105.092 427.425 106.875Z" fill="#002E38"/>
<path d="M364.549 49.7267C364.88 55.6048 364.88 55.6048 365.218 61.6017C360.034 61.4161 360.034 61.4161 358.414 61.3342C356.205 61.2959 354.754 61.4373 352.864 62.7382C351.481 65.212 351.392 67.4934 351.338 70.3224C351.283 72.0981 351.228 73.8737 351.171 75.7032C354.923 75.7032 358.676 75.7032 362.542 75.7032C362.542 79.3771 362.542 83.0509 362.542 86.8361C358.789 86.8361 355.037 86.8361 351.171 86.8361C351.171 95.4083 351.171 103.981 351.171 112.813C354.482 112.813 357.793 112.813 361.204 112.813C361.204 116.731 361.204 120.65 361.204 124.688C350.388 124.688 339.572 124.688 328.428 124.688C328.428 120.769 328.428 116.85 328.428 112.813C331.519 112.813 334.609 112.813 337.793 112.813C337.793 104.24 337.793 95.6681 337.793 86.8361C334.923 86.8361 332.054 86.8361 329.097 86.8361C329.097 83.1622 329.097 79.4884 329.097 75.7032C331.967 75.7032 334.836 75.7032 337.793 75.7032C337.769 74.8077 337.746 73.9122 337.722 72.9896C337.703 71.7913 337.685 70.593 337.667 69.3946C337.651 68.8072 337.634 68.2198 337.616 67.6146C337.558 62.3343 338.581 58.4747 341.221 53.9943C347.5 47.3302 356.469 47.9338 364.549 49.7267Z" fill="#002E38"/>
<path d="M314.305 76.8511C319.124 80.5272 321.86 85.0151 323.077 91.289C323.408 97.1671 323.408 97.1671 323.746 103.164C313.813 103.164 303.88 103.164 293.645 103.164C294.61 109.684 294.61 109.684 298.328 113.555C301.063 114.575 303.535 114.566 306.271 113.555C308.931 112.026 308.931 112.026 309.699 106.875C314.114 106.875 318.528 106.875 323.077 106.875C322.446 113.175 322.094 115.821 318.395 120.234C311.956 125.563 304.74 125.965 296.99 125.43C291.729 124.519 287.212 122.008 283.923 117.271C279.931 110.428 278.717 103.064 279.93 95.0289C281.381 87.8112 283.912 82.0314 289.632 77.9296C296.502 73.6905 307.142 72.9522 314.305 76.8511ZM295.652 87.5781C294.291 89.9936 293.645 91.4036 293.645 94.2578C298.943 94.2578 304.241 94.2578 309.699 94.2578C309.25 89.1002 309.25 89.1002 306.354 86.0937C302.4 84.6309 299.112 84.9609 295.652 87.5781Z" fill="#002E39"/>
<path d="M590.636 77.1874C595.779 80.9816 597.863 85.5135 599.331 92.0312C599.331 95.705 599.331 99.3788 599.331 103.164C589.619 103.409 579.906 103.654 569.9 103.906C571.017 109.897 571.017 109.897 574.582 113.555C577.187 114.46 579.461 114.366 582.149 113.972C584.648 112.641 584.648 112.641 585.953 106.875C590.368 106.875 594.783 106.875 599.331 106.875C598.667 113.506 598.037 115.954 593.938 120.327C588.029 125.573 581.185 126.189 573.898 125.595C568.264 124.89 563.498 122.09 559.866 117.266C555.602 109.713 554.919 101.934 556.24 93.1792C557.801 86.531 560.815 81.4096 566.035 77.5817C572.69 73.717 583.996 72.9013 590.636 77.1874ZM571.906 87.578C570.163 90.0933 569.9 91.0124 569.9 94.2577C575.197 94.2577 580.495 94.2577 585.953 94.2577C585.215 89.1759 585.215 89.1759 582.609 86.0937C578.626 84.6206 575.414 85.0131 571.906 87.578Z" fill="#002F39"/>
<path d="M407.358 74.961C408.241 75.4508 409.124 75.9406 410.033 76.4453C410.033 80.8539 410.033 85.2625 410.033 89.8047C408.709 89.5598 407.385 89.3149 406.02 89.0625C399.248 88.3873 399.248 88.3873 393.311 91.2891C391.321 96.0162 390.957 100.217 390.844 105.391C390.822 106.107 390.799 106.824 390.775 107.562C390.72 109.312 390.677 111.062 390.635 112.813C394.609 112.813 398.582 112.813 402.675 112.813C402.675 116.731 402.675 120.65 402.675 124.688C391.418 124.688 380.16 124.688 368.562 124.688C368.562 120.769 368.562 116.85 368.562 112.813C371.431 112.813 374.301 112.813 377.257 112.813C377.257 104.485 377.257 96.1578 377.257 87.5781C374.388 87.5781 371.518 87.5781 368.562 87.5781C368.562 83.6594 368.562 79.7406 368.562 75.7031C375.405 75.7031 382.247 75.7031 389.298 75.7031C389.518 77.4176 389.739 79.132 389.966 80.8985C390.408 80.8985 390.849 80.8985 391.304 80.8985C391.801 80.3321 392.298 79.7657 392.809 79.1821C397.13 74.4969 401.528 74.3175 407.358 74.961Z" fill="#002D37"/>
<path d="M395.485 151.731C397.993 152.148 397.993 152.148 398.857 153.256C399.109 153.743 399.361 154.23 399.621 154.732C400.046 155.54 400.046 155.54 400.479 156.365C400.762 156.933 401.046 157.501 401.338 158.086C401.612 158.63 401.886 159.173 402.168 159.733C402.98 161.371 403.771 163.019 404.557 164.673C404.965 165.517 404.965 165.517 405.381 166.378C405.638 166.915 405.894 167.453 406.159 168.007C406.505 168.731 406.505 168.731 406.858 169.471C407.358 170.703 407.358 170.703 407.358 172.188C407.799 172.188 408.241 172.188 408.696 172.188C408.885 171.649 409.073 171.11 409.268 170.554C410.483 167.257 411.944 164.101 413.378 160.916C413.68 160.237 413.982 159.558 414.292 158.859C414.584 158.21 414.875 157.562 415.176 156.894C415.44 156.304 415.705 155.713 415.978 155.105C416.722 153.633 416.722 153.633 418.06 152.148C419.826 152.148 421.592 152.148 423.411 152.148C423.411 164.15 423.411 176.151 423.411 188.516C421.866 188.516 420.321 188.516 418.729 188.516C418.508 180.188 418.288 171.861 418.06 163.281C415.667 168.621 415.667 168.621 413.278 173.962C412.98 174.623 412.683 175.284 412.377 175.965C412.073 176.645 411.768 177.325 411.454 178.026C410.702 179.609 410.702 179.609 410.034 180.352C408.709 180.352 407.385 180.352 406.02 180.352C403.371 174.718 400.722 169.085 397.993 163.281C397.773 171.609 397.552 179.936 397.324 188.516C395.779 188.516 394.234 188.516 392.642 188.516C392.625 183.456 392.614 178.396 392.605 173.336C392.602 171.613 392.598 169.89 392.592 168.167C392.584 165.697 392.58 163.226 392.577 160.756C392.573 159.981 392.57 159.205 392.566 158.406C392.566 157.693 392.566 156.98 392.566 156.245C392.565 155.614 392.563 154.983 392.562 154.332C392.699 151.882 393.226 152.165 395.485 151.731Z" fill="#002A34"/>
<path d="M304.432 153.355C306.609 155.35 307.485 156.596 308.361 159.57C308.506 161.591 308.456 163.474 308.361 165.508C306.595 165.508 304.83 165.508 303.01 165.508C302.679 161.834 302.679 161.834 302.341 158.086C299.037 157.169 295.994 156.818 292.684 157.854C291.492 158.793 291.492 158.793 291.095 160.637C290.854 162.628 290.854 162.628 291.639 164.766C294.066 165.935 296.47 166.827 299.012 167.636C305.218 169.693 305.218 169.693 307.191 171.863C308.857 175.494 309.009 178.586 308.361 182.578C307.388 185.141 305.905 186.54 303.642 187.791C298.764 189.833 294.326 189.958 289.473 187.715C286.993 186.275 285.825 184.748 284.95 181.836C284.923 180.104 284.92 178.372 284.95 176.641C286.716 176.641 288.482 176.641 290.301 176.641C290.384 177.881 290.384 177.881 290.468 179.146C290.679 181.831 290.679 181.831 292.13 182.729C294.839 183.786 297.507 183.731 300.335 183.32C302.235 182.327 302.235 182.327 303.01 180.352C302.831 178.614 302.611 176.88 302.341 175.156C301.974 175.041 301.606 174.925 301.228 174.806C299.547 174.271 297.872 173.716 296.196 173.162C295.618 172.98 295.039 172.799 294.444 172.612C290.914 171.427 288.675 170.279 286.288 166.992C285.031 164.203 285.191 161.016 286.053 158.103C287.302 155.318 288.723 153.526 291.469 152.473C295.682 151.566 300.508 151.141 304.432 153.355Z" fill="#012C36"/>
<path d="M457.609 153.355C459.786 155.35 460.662 156.596 461.539 159.57C461.683 161.591 461.633 163.474 461.539 165.508C459.773 165.508 458.007 165.508 456.187 165.508C455.856 161.834 455.856 161.834 455.519 158.086C452.207 157.167 449.051 156.652 445.82 158.086C445.488 158.331 445.157 158.576 444.816 158.828C444.816 160.788 444.816 162.747 444.816 164.766C447.263 165.81 449.673 166.833 452.192 167.645C458.376 169.672 458.376 169.672 460.368 171.863C462.034 175.494 462.186 178.586 461.539 182.578C460.562 185.15 459.075 186.553 456.796 187.791C451.933 189.802 447.68 189.74 442.823 187.747C440.738 186.642 439.865 185.594 438.796 183.32C438.405 181.096 438.216 178.903 438.127 176.641C439.893 176.641 441.659 176.641 443.478 176.641C443.552 177.061 443.625 177.481 443.7 177.913C443.807 178.458 443.913 179.002 444.022 179.563C444.123 180.106 444.224 180.648 444.328 181.207C444.489 181.659 444.65 182.112 444.816 182.578C447.719 183.652 450.479 183.705 453.512 183.32C455.412 182.327 455.412 182.327 456.187 180.352C456.008 178.614 455.789 176.88 455.519 175.156C454.696 174.878 453.873 174.6 453.026 174.313C451.933 173.93 450.841 173.546 449.749 173.162C448.938 172.89 448.938 172.89 448.111 172.612C444.548 171.343 442.122 169.945 439.465 166.992C438.426 163.534 438.482 160.683 439.465 157.205C443.357 151.132 451.748 150.069 457.609 153.355Z" fill="#002C36"/>
<path d="M233.152 152.983C235.244 154.769 236.307 156.175 237.458 158.828C237.664 161.08 237.621 163.254 237.458 165.508C235.913 165.508 234.368 165.508 232.776 165.508C232.678 164.81 232.678 164.81 232.577 164.099C232.477 163.492 232.377 162.886 232.274 162.261C232.181 161.658 232.088 161.055 231.992 160.434C231.561 158.735 231.561 158.735 230.215 157.88C228.737 157.334 227.638 157.168 226.087 157.205C225.646 157.209 225.204 157.214 224.749 157.219C223.17 157.326 223.17 157.326 220.736 158.086C220.736 160.29 220.736 162.494 220.736 164.766C223.654 166.025 226.543 167.158 229.557 168.105C233.02 169.239 235.404 170.252 237.458 173.672C238.332 178.148 238.252 180.705 236.12 184.805C233.183 188.063 230.304 189.118 226.212 189.49C222.289 189.356 218.732 188.295 215.719 185.454C214.361 182.565 214.173 179.863 214.047 176.641C215.813 176.641 217.579 176.641 219.398 176.641C219.619 178.6 219.84 180.559 220.067 182.578C222.101 183.226 223.972 183.463 226.087 183.506C226.935 183.535 226.935 183.535 227.801 183.564C229.787 183.267 230.681 182.637 232.107 181.094C232.398 178.882 232.568 177.399 231.412 175.498C229.101 173.588 226.212 173.04 223.457 172.24C220.042 171.162 217.922 169.777 215.385 166.992C214.387 163.671 214.219 160.818 215.51 157.576C219.917 151.336 226.564 150.675 233.152 152.983Z" fill="#022D36"/>
<path d="M360.385 152.064C361.194 152.068 362.003 152.072 362.837 152.076C363.71 152.078 364.583 152.081 365.483 152.083C366.411 152.089 367.34 152.096 368.269 152.102C369.201 152.106 370.132 152.109 371.064 152.112C373.351 152.121 375.639 152.133 377.926 152.148C377.926 153.863 377.926 155.577 377.926 157.344C370.642 157.711 370.642 157.711 363.211 158.086C363.211 161.27 363.211 164.454 363.211 167.734C367.625 167.734 372.04 167.734 376.589 167.734C376.589 169.449 376.589 171.163 376.589 172.93C372.174 172.93 367.759 172.93 363.211 172.93C363.211 176.359 363.211 179.788 363.211 183.32C364.265 183.312 365.32 183.303 366.406 183.294C367.78 183.287 369.153 183.281 370.527 183.274C371.223 183.268 371.919 183.262 372.637 183.255C373.298 183.253 373.96 183.25 374.642 183.248C375.255 183.244 375.868 183.24 376.5 183.236C377.926 183.32 377.926 183.32 378.595 184.063C378.595 185.532 378.595 187.002 378.595 188.516C371.752 188.516 364.91 188.516 357.859 188.516C357.844 183.456 357.831 178.396 357.823 173.336C357.819 171.613 357.815 169.89 357.809 168.167C357.801 165.697 357.797 163.227 357.794 160.756C357.791 159.981 357.787 159.205 357.784 158.406C357.784 157.693 357.784 156.98 357.784 156.245C357.782 155.614 357.781 154.983 357.779 154.332C357.908 152.016 358.271 152.16 360.385 152.064Z" fill="#00262F"/>
<path d="M248.161 152.149C251.749 151.787 251.749 151.787 253.428 153.215C255.448 155.919 256.867 158.897 258.361 161.983C258.668 162.606 258.975 163.23 259.291 163.873C260.045 165.405 260.794 166.94 261.539 168.477C261.893 167.774 261.893 167.774 262.254 167.058C263.322 164.946 264.395 162.838 265.468 160.73C265.84 159.993 266.212 159.256 266.594 158.496C267.131 157.445 267.131 157.445 267.679 156.373C268.173 155.399 268.173 155.399 268.677 154.406C269.565 152.891 269.565 152.891 270.903 152.149C272.241 152.119 273.579 152.116 274.916 152.149C274.48 154.813 273.465 156.675 272.157 158.944C266.586 168.983 263.376 176.629 264.214 188.516C262.448 188.516 260.682 188.516 258.863 188.516C258.923 187.659 258.984 186.803 259.046 185.921C259.41 174.364 255.264 166.482 249.754 156.922C248.916 155.286 248.461 153.987 248.161 152.149Z" fill="#002A33"/>
<path d="M319.063 152.148C327.672 152.148 336.281 152.148 345.15 152.148C345.15 153.863 345.15 155.577 345.15 157.344C341.619 157.344 338.087 157.344 334.448 157.344C334.448 167.63 334.448 177.917 334.448 188.516C332.903 188.516 331.358 188.516 329.766 188.516C329.766 178.229 329.766 167.942 329.766 157.344C326.234 157.344 322.702 157.344 319.063 157.344C319.063 155.629 319.063 153.915 319.063 152.148Z" fill="#002933"/>
<path d="M100.334 141.016C100.776 141.261 101.217 141.505 101.672 141.758C98.4149 145.822 95.1501 149.837 91.6388 153.633C90.9766 153.388 90.3144 153.143 89.6321 152.891C93.1639 148.972 96.6956 145.053 100.334 141.016Z" fill="#0A8F3E"/>
<path d="M274.916 152.148C274.696 153.128 274.475 154.108 274.247 155.117C274.027 154.627 273.806 154.137 273.579 153.633C272.254 153.878 270.93 154.123 269.565 154.375C269.565 153.885 269.565 153.395 269.565 152.891C271.377 151.885 272.916 152.1 274.916 152.148Z" fill="#00151A"/>
<path d="M248.161 152.148C252.007 152.056 252.007 152.056 253.512 152.891C253.291 153.381 253.07 153.87 252.843 154.375C251.739 154.13 250.636 153.885 249.498 153.633C249.278 154.123 249.057 154.613 248.83 155.117C248.609 154.138 248.388 153.158 248.161 152.148Z" fill="#00161B"/>
</g>
<defs>
<clipPath id="clip0_2031_29523">
<rect width="600" height="190" fill="white"/>
</clipPath>
</defs>
</svg>
