<svg width="703" height="222" viewBox="0 0 703 222" fill="none" xmlns="http://www.w3.org/2000/svg">
<g clip-path="url(#clip0_2209_26725)">
<path d="M545.43 54.9902H517.94L510.27 97.1102H477.51L485.18 54.9902H457.69L437.34 166.72H464.84L472.51 124.61H505.26L497.59 166.72H525.09L545.43 54.9902ZM147.07 149L151.88 122.59C152.447 119.477 152.323 116.278 151.517 113.218C150.711 110.158 149.242 107.312 147.215 104.883C145.188 102.453 142.652 100.498 139.786 99.157C136.92 97.8156 133.794 97.1203 130.63 97.1202H106.07C105.434 97.1227 104.805 96.9844 104.229 96.7152C103.653 96.4459 103.143 96.0525 102.737 95.5631C102.331 95.0737 102.038 94.5004 101.879 93.8844C101.721 93.2684 101.7 92.625 101.82 92.0002L102.91 86.0002C103.09 85.0044 103.615 84.1035 104.391 83.4547C105.168 82.8059 106.148 82.4504 107.16 82.4502H159.16L164.26 55.0002H99.09C94.0329 54.9995 89.1357 56.7724 85.2511 60.0103C81.3664 63.2481 78.7403 67.7458 77.83 72.7202L73 99.1402C72.4324 102.255 72.557 105.457 73.3648 108.519C74.1727 111.58 75.6441 114.427 77.6747 116.856C79.7053 119.286 82.2455 121.239 85.1151 122.577C87.9848 123.915 91.1136 124.606 94.28 124.6H118.84C119.473 124.602 120.098 124.742 120.671 125.011C121.243 125.281 121.75 125.672 122.155 126.158C122.561 126.644 122.854 127.214 123.016 127.826C123.177 128.437 123.203 129.077 123.09 129.7L122 135.7C121.818 136.695 121.293 137.595 120.517 138.243C119.74 138.892 118.762 139.248 117.75 139.25H65.75L60.75 166.74H125.87C130.921 166.73 135.808 164.949 139.681 161.708C143.555 158.467 146.169 153.97 147.07 149ZM239.5 139.23H199.66C199.028 139.23 198.403 139.091 197.83 138.823C197.257 138.555 196.75 138.165 196.345 137.679C195.939 137.194 195.646 136.625 195.484 136.014C195.323 135.402 195.297 134.763 195.41 134.14L204.17 86.0002C204.354 85.0061 204.879 84.1075 205.655 83.4593C206.431 82.8112 207.409 82.4543 208.42 82.4502H255.74L243.17 55.0002H200.36C195.303 54.9995 190.406 56.7724 186.521 60.0103C182.636 63.2481 180.01 67.7458 179.1 72.7202L166.62 141.25C166.053 144.363 166.177 147.563 166.983 150.623C167.789 153.683 169.258 156.528 171.285 158.958C173.312 161.388 175.848 163.342 178.714 164.684C181.58 166.025 184.706 166.72 187.87 166.72H234.49L239.5 139.23ZM410.22 82.4802H434.63L439.63 54.9902H378.79L356.24 82.4802H382.73L367.39 166.72H394.88L410.22 82.4802Z" fill="black"/>
<path d="M32.86 17.73L0.359996 196.25C-0.20712 199.363 -0.0832183 202.562 0.722933 205.621C1.52909 208.681 2.99778 211.525 5.0251 213.954C7.05241 216.383 9.58878 218.337 12.4547 219.677C15.3207 221.017 18.4462 221.711 21.61 221.71H648.55C648.658 221.712 648.766 221.689 648.864 221.644C648.963 221.599 649.05 221.533 649.12 221.45L670.52 195.45C670.607 195.343 670.662 195.213 670.678 195.076C670.694 194.938 670.671 194.799 670.612 194.675C670.552 194.55 670.458 194.445 670.341 194.371C670.224 194.298 670.088 194.259 669.95 194.26H34.26C33.5162 194.273 32.7789 194.12 32.1017 193.813C31.4245 193.505 30.8245 193.05 30.3455 192.481C29.8664 191.912 29.5204 191.243 29.3326 190.523C29.1448 189.803 29.12 189.051 29.26 188.32L57.82 31.63C58.0245 30.4579 58.6403 29.3971 59.5568 28.6383C60.4733 27.8794 61.6303 27.4723 62.82 27.49H668.34C669.081 27.4839 669.813 27.6424 670.485 27.9541C671.157 28.2657 671.751 28.7227 672.225 29.2921C672.699 29.8614 673.04 30.5289 673.224 31.2462C673.408 31.9636 673.431 32.7129 673.29 33.44L654.79 135.09C654.585 136.262 653.97 137.323 653.053 138.082C652.137 138.841 650.98 139.248 649.79 139.23H576.76C576.653 139.23 576.547 139.207 576.45 139.162C576.353 139.117 576.267 139.051 576.199 138.969C576.13 138.887 576.08 138.79 576.053 138.687C576.025 138.584 576.021 138.475 576.04 138.37L578.4 125.21C578.428 125.04 578.516 124.885 578.648 124.773C578.78 124.661 578.947 124.6 579.12 124.6H628.57C628.74 124.601 628.905 124.542 629.036 124.435C629.168 124.327 629.257 124.177 629.29 124.01L634 98C634.019 97.8947 634.015 97.7865 633.987 97.683C633.96 97.5796 633.91 97.4834 633.841 97.4014C633.773 97.3193 633.687 97.2534 633.59 97.2082C633.493 97.163 633.387 97.1398 633.28 97.14H584.28C584.173 97.1402 584.067 97.117 583.97 97.0718C583.873 97.0266 583.787 96.9607 583.719 96.8786C583.65 96.7966 583.6 96.7004 583.573 96.597C583.545 96.4935 583.541 96.3853 583.56 96.28L585.92 83.12C585.948 82.9496 586.036 82.7947 586.168 82.683C586.3 82.5713 586.467 82.51 586.64 82.51H636.23C636.4 82.5128 636.566 82.455 636.698 82.347C636.83 82.239 636.919 82.0877 636.95 81.92L641.69 55.92C641.719 55.813 641.723 55.7008 641.702 55.592C641.681 55.4832 641.636 55.3805 641.569 55.2919C641.503 55.2032 641.417 55.1308 641.318 55.0803C641.22 55.0297 641.111 55.0022 641 55H564.08C563.909 55.0015 563.744 55.0621 563.613 55.1715C563.482 55.2808 563.392 55.4323 563.36 55.6L543.28 165.86C543.259 165.965 543.262 166.073 543.288 166.176C543.314 166.28 543.363 166.376 543.431 166.458C543.499 166.541 543.584 166.607 543.681 166.652C543.778 166.697 543.883 166.721 543.99 166.72H658.5C663.556 166.722 668.453 164.95 672.337 161.711C676.22 158.473 678.844 153.975 679.75 149L702.24 25.47C702.807 22.3577 702.683 19.159 701.878 16.0998C701.072 13.0407 699.604 10.1958 697.578 7.76625C695.552 5.33673 693.017 3.38189 690.153 2.0399C687.288 0.697911 684.163 0.00153691 681 1.43203e-06H54.11C49.0521 -0.00183992 44.1542 1.77212 40.2706 5.01242C36.387 8.25271 33.7643 12.7536 32.86 17.73Z" fill="black"/>
<path d="M314.56 111.15L360.74 54.9902H327.98L306.19 81.5002L293.98 54.9902H261.22L287.08 111.15L276.95 166.72H304.45L314.56 111.15Z" fill="black"/>
</g>
<defs>
<clipPath id="clip0_2209_26725">
<rect width="702.6" height="221.71" fill="white"/>
</clipPath>
</defs>
</svg>
