<svg width="127" height="24" viewBox="0 0 127 24" fill="none" xmlns="http://www.w3.org/2000/svg">
<g clip-path="url(#clip0_11168_507)">
<mask id="mask0_11168_507" style="mask-type:luminance" maskUnits="userSpaceOnUse" x="0" y="0" width="127" height="24">
<path d="M127 0H0V24H127V0Z" fill="white"/>
</mask>
<g mask="url(#mask0_11168_507)">
<path d="M13.4925 20.5649L13.2339 22.2194H15.8775L15.4161 23.7711L17.4546 23.6745L18.577 20.4327C18.577 20.4327 16.3714 20.6941 13.4925 20.5649Z" fill="#121619"/>
<path d="M16.3119 15.6455L19.1421 15.5823L18.6089 18.2838L20.6618 18.0829C20.6618 18.0829 21.4214 14.8866 21.4409 13.1387L16.6581 12.9789L16.3119 15.6455Z" fill="#121619"/>
<path d="M18.5756 5.19843L18.7624 7.33828L21.1107 7.87866L21.2543 10.5372L22.9688 10.8011C22.9688 10.8011 22.9988 9.18825 22.5583 6.32685L18.5756 5.19843Z" fill="#121619"/>
<path d="M2.92125 8.55376C2.92125 8.55376 2.66327 9.78749 2.7361 10.8486L4.80966 10.9807L4.81591 13.9043L6.97775 14.2562C6.97775 14.2562 6.82022 12.921 7.31775 8.48016L2.92125 8.55376Z" fill="#121619"/>
<path d="M15.78 4.28834L18.0916 4.75197L17.6526 1.31052C17.6526 1.31052 16.381 0.846322 13.0647 0.47998L12.9849 1.91967L15.6857 2.30799L15.78 4.28834Z" fill="#121619"/>
<path d="M16.1666 12.359C16.1666 12.359 16.3494 9.24202 16.2609 6.62599C16.2609 6.62599 14.2224 6.16807 10.2824 6.06421L9.92334 8.47568L13.488 8.68281L13.2933 12.1793L16.1666 12.359Z" fill="#121619"/>
<path d="M19.23 0.644531L19.468 1.99948L21.355 2.67197L21.7876 4.36188L23.3584 4.96502L22.4436 1.91047L19.23 0.644531Z" fill="#121619"/>
<path d="M7.23932 5.64045L9.72957 5.5423L10.5439 1.56048C10.5439 1.56048 8.70629 1.4609 5.86952 1.80927L5.30127 3.52686L7.81558 3.29803L7.23932 5.64045Z" fill="#121619"/>
<path d="M0.461256 4.3665L0 6.16711L1.51186 5.88323C1.51186 5.88323 1.15641 7.63791 1.12401 8.19654L2.66619 8.07215C2.66619 8.07215 3.17797 4.77307 3.70817 3.65179L0.461256 4.3665Z" fill="#121619"/>
<path d="M7.54932 14.9471L7.65007 17.2603L10.653 17.7514L10.5971 20.0644L13.0669 20.3132L13.6208 15.6532C13.6208 15.6532 10.9746 15.5533 7.54932 14.9471Z" fill="#121619"/>
<path d="M70.4753 19.5652C67.9583 19.5652 66.0807 18.1883 65.9241 15.2587H76.8913V14.0068C76.8913 10.3762 74.6483 7.74725 70.4233 7.74725C66.2501 7.74725 63.5898 10.3762 63.5898 14.6327C63.5898 18.8893 65.9893 21.5182 70.4753 21.5182C74.7788 21.5182 76.5522 18.9895 76.9433 17.0114H74.4917C74.1133 18.4888 73.0052 19.5652 70.4753 19.5652ZM70.4233 9.70022C72.9012 9.70022 74.4401 10.9773 74.5443 13.3807H65.9897C66.3812 10.9271 68.1801 9.70022 70.4233 9.70022Z" fill="#121619"/>
<path d="M37.8848 11.1026L35.5113 10.702C33.6333 10.389 31.9642 9.71306 31.9642 7.81006C31.9642 5.88219 33.6072 4.86819 36.1633 4.86819C38.7196 4.86819 40.4668 5.89476 40.5973 8.2483H43.1271C42.9708 4.49272 39.8148 2.74005 36.1633 2.74005C32.512 2.74005 29.4606 4.48017 29.4606 7.83517C29.4606 11.1902 32.147 12.3923 34.6508 12.8179L37.0241 13.2185C38.9933 13.5565 40.806 14.2199 40.806 16.1979C40.806 18.176 39.2148 19.3903 36.4502 19.3903C33.6856 19.3903 31.599 18.1886 31.4165 15.2589H28.8867C29.0168 19.5906 32.5643 21.5185 36.4502 21.5185C40.3361 21.5185 43.3098 19.5781 43.3098 16.1729C43.3098 12.7677 40.6363 11.566 37.8848 11.1026Z" fill="#121619"/>
<path d="M52.1731 7.7476C49.5652 7.7476 48.3654 8.77415 47.609 10.2264C47.6069 10.2304 47.6046 10.2344 47.6027 10.2384H47.2182C47.2182 10.2344 47.2179 10.2304 47.2179 10.2264V3.11554H44.8706V21.143H47.2179V14.3825C47.2179 11.2529 48.7827 9.75052 51.3909 9.75052C53.7382 9.75052 55.0422 11.0025 55.0422 13.3812V21.143H57.3896V13.0056C57.3896 9.62553 55.4334 7.7476 52.1731 7.7476Z" fill="#121619"/>
<path d="M61.8806 8.12292H59.5333V21.1426H61.8806V8.12292Z" fill="#121619"/>
<path d="M61.8779 3.11554H59.5312V5.36866H61.8779V3.11554Z" fill="#121619"/>
<path d="M94.0314 10.3512L93.6418 10.352C93.6326 10.3363 93.6233 10.3195 93.6138 10.301C92.727 8.6233 91.1623 7.74711 88.9193 7.74711C85.6589 7.74711 82.3989 10.0005 82.3989 14.6325C82.3989 19.2647 85.6589 21.518 88.9193 21.518C91.1623 21.518 92.727 20.6418 93.6138 18.9642C93.6267 18.9396 93.6388 18.9177 93.6508 18.8979H94.0306C94.0306 18.9031 94.0312 18.9085 94.0312 18.914V21.1425H96.3784V3.11505H94.0312L94.0314 10.3512ZM89.4673 19.5151C86.7289 19.5151 84.7728 17.7625 84.7728 14.6325C84.7728 11.5027 86.7289 9.75031 89.4673 9.75031C92.2058 9.75031 94.1619 11.503 94.1619 14.6325C94.1619 17.7621 92.2058 19.5151 89.4673 19.5151Z" fill="#121619"/>
<path d="M125.772 18.8184C125.772 18.5245 125.519 18.288 125.08 18.288H124.115V20.3343H124.593V19.6521H124.953C125.167 19.6521 125.285 19.7468 125.285 19.9269V20.334H125.762V19.813C125.762 19.5853 125.587 19.4056 125.344 19.4056V19.2444C125.557 19.235 125.772 19.0932 125.772 18.8184ZM124.954 19.2541H124.593V18.676H124.954C125.167 18.676 125.276 18.8086 125.276 18.9602C125.276 19.1023 125.167 19.2541 124.954 19.2541Z" fill="#121619"/>
<path d="M80.8248 3.11554H78.4775V21.143H80.8248V3.11554Z" fill="#121619"/>
<path d="M124.895 17.3215C123.715 17.3215 122.837 18.2123 122.837 19.3204C122.837 20.4385 123.715 21.3193 124.915 21.3193C126.144 21.3193 127.003 20.4004 127.003 19.311C127.003 18.2026 126.134 17.3215 124.895 17.3215ZM124.915 20.8649C123.998 20.8649 123.345 20.1923 123.345 19.3204C123.345 18.43 123.998 17.7858 124.896 17.7858C125.851 17.7858 126.495 18.4111 126.495 19.311C126.495 20.2109 125.861 20.8649 124.915 20.8649Z" fill="#121619"/>
<path d="M121.66 3.11554H119.307V21.1428H121.66V3.11554Z" fill="#121619"/>
<path d="M108.164 3.11505L101.705 19.8278V21.1425H103.891L105.341 17.2386H113.966L115.443 21.1425H117.777V19.8295L111.221 3.11505H108.164ZM106.144 15.0756L109.512 5.95449H109.719L113.138 15.0756H106.144Z" fill="#121619"/>
</g>
</g>
<defs>
<clipPath id="clip0_11168_507">
<rect width="127" height="24" fill="white"/>
</clipPath>
</defs>
</svg>
