<svg width="1016" height="200" viewBox="0 0 1016 200" fill="none" xmlns="http://www.w3.org/2000/svg">
<g clip-path="url(#clip0_4207_16629)">
<path d="M107.94 171.374L105.871 185.162H127.02L123.329 198.093L139.637 197.288L148.616 170.273C148.616 170.273 130.971 172.451 107.94 171.374Z" fill="#121619"/>
<path d="M130.495 130.379L153.137 129.853L148.871 152.365L165.294 150.691C165.294 150.691 171.371 124.055 171.527 109.489L133.265 108.158L130.495 130.379Z" fill="#121619"/>
<path d="M148.604 43.3203L150.099 61.1524L168.885 65.6556L170.034 87.8104L183.75 90.0096C183.75 90.0096 183.99 76.5688 180.466 52.7238L148.604 43.3203Z" fill="#121619"/>
<path d="M23.37 71.2813C23.37 71.2813 21.3062 81.5624 21.8888 90.4048L38.4773 91.5056L38.5273 115.869L55.822 118.802C55.822 118.802 54.5618 107.675 58.542 70.668L23.37 71.2813Z" fill="#121619"/>
<path d="M126.24 35.7363L144.733 39.5999L141.221 10.9212C141.221 10.9212 131.048 7.05285 104.518 4L103.879 15.9974L125.486 19.2334L126.24 35.7363Z" fill="#121619"/>
<path d="M129.333 102.992C129.333 102.992 130.795 77.017 130.087 55.2167C130.087 55.2167 113.779 51.4007 82.2592 50.5352L79.3867 70.6308L107.904 72.3569L106.346 101.494L129.333 102.992Z" fill="#121619"/>
<path d="M153.84 5.37109L155.744 16.6623L170.84 22.2664L174.301 36.349L186.867 41.3752L179.549 15.9206L153.84 5.37109Z" fill="#121619"/>
<path d="M57.9146 47.0041L77.8366 46.1862L84.3512 13.0043C84.3512 13.0043 69.6504 12.1745 46.9562 15.0776L42.4102 29.3908L62.5247 27.4839L57.9146 47.0041Z" fill="#121619"/>
<path d="M3.69005 36.3875L0 51.3926L12.0949 49.0269C12.0949 49.0269 9.25128 63.6492 8.99208 68.3045L21.3295 67.2679C21.3295 67.2679 25.4238 39.7756 29.6654 30.4316L3.69005 36.3875Z" fill="#121619"/>
<path d="M60.3945 124.559L61.2005 143.836L85.224 147.928L84.7768 167.203L104.535 169.277L108.966 130.443C108.966 130.443 87.7969 129.611 60.3945 124.559Z" fill="#121619"/>
<path d="M563.803 163.043C543.667 163.043 528.646 151.569 527.393 127.156H615.131V116.723C615.131 86.468 597.187 64.5605 563.387 64.5605C530.001 64.5605 508.719 86.468 508.719 121.939C508.719 157.411 527.915 179.318 563.803 179.318C598.231 179.318 612.418 158.246 615.547 141.762H595.934C592.907 154.073 584.042 163.043 563.803 163.043ZM563.387 80.8352C583.21 80.8352 595.521 91.4776 596.355 111.506H527.918C531.05 91.0592 545.441 80.8352 563.387 80.8352Z" fill="#121619"/>
<path d="M303.079 92.5216L284.091 89.1832C269.067 86.5752 255.714 80.9424 255.714 65.0841C255.714 49.0185 268.858 40.5685 289.307 40.5685C309.757 40.5685 323.735 49.1232 324.779 68.7361H345.017C343.767 37.4396 318.519 22.834 289.307 22.834C260.096 22.834 235.685 37.335 235.685 65.2933C235.685 93.252 257.176 103.269 277.207 106.816L296.193 110.154C311.947 112.971 326.448 118.499 326.448 134.983C326.448 151.467 313.719 161.586 291.602 161.586C269.485 161.586 252.792 151.572 251.332 127.158H231.094C232.135 163.255 260.515 179.321 291.602 179.321C322.689 179.321 346.479 163.151 346.479 134.774C346.479 106.398 325.091 96.3832 303.079 92.5216Z" fill="#121619"/>
<path d="M417.385 64.5634C396.522 64.5634 386.923 73.118 380.872 85.22C380.855 85.2536 380.837 85.2864 380.822 85.32H377.746C377.746 85.2864 377.743 85.2536 377.743 85.22V25.9629H358.965V176.192H377.743V119.854C377.743 93.7744 390.262 81.2544 411.127 81.2544C429.906 81.2544 440.338 91.6872 440.338 111.51V176.192H459.117V108.38C459.117 80.2128 443.467 64.5634 417.385 64.5634Z" fill="#121619"/>
<path d="M495.044 67.6914H476.266V176.189H495.044V67.6914Z" fill="#121619"/>
<path d="M495.023 25.9629H476.25V44.7389H495.023V25.9629Z" fill="#121619"/>
<path d="M752.251 86.26L749.134 86.2672C749.06 86.136 748.986 85.996 748.91 85.8416C741.816 71.8611 729.298 64.5595 711.354 64.5595C685.271 64.5595 659.191 83.3376 659.191 121.938C659.191 160.539 685.271 179.317 711.354 179.317C729.298 179.317 741.816 172.015 748.91 158.035C749.013 157.83 749.11 157.648 749.206 157.483H752.244C752.244 157.526 752.249 157.571 752.249 157.617V176.188H771.027V25.959H752.249L752.251 86.26ZM715.738 162.626C693.831 162.626 678.182 148.021 678.182 121.938C678.182 95.856 693.831 81.2528 715.738 81.2528C737.646 81.2528 753.295 95.8584 753.295 121.938C753.295 148.018 737.646 162.626 715.738 162.626Z" fill="#121619"/>
<path d="M1006.18 156.82C1006.18 154.371 1004.15 152.4 1000.64 152.4H992.92V169.453H996.744V163.768H999.624C1001.34 163.768 1002.28 164.557 1002.28 166.058V169.45H1006.1V165.109C1006.1 163.211 1004.7 161.714 1002.75 161.714V160.37C1004.46 160.292 1006.18 159.11 1006.18 156.82ZM999.632 160.451H996.744V155.634H999.632C1001.34 155.634 1002.21 156.739 1002.21 158.002C1002.21 159.186 1001.34 160.451 999.632 160.451Z" fill="#121619"/>
<path d="M646.598 25.9629H627.82V176.192H646.598V25.9629Z" fill="#121619"/>
<path d="M999.16 144.346C989.72 144.346 982.696 151.769 982.696 161.003C982.696 170.321 989.72 177.661 999.32 177.661C1009.15 177.661 1016.02 170.003 1016.02 160.925C1016.02 151.688 1009.07 144.346 999.16 144.346ZM999.32 173.874C991.984 173.874 986.76 168.269 986.76 161.003C986.76 153.583 991.984 148.215 999.168 148.215C1006.81 148.215 1011.96 153.426 1011.96 160.925C1011.96 168.424 1006.89 173.874 999.32 173.874Z" fill="#121619"/>
<path d="M973.28 25.9629H954.456V176.19H973.28V25.9629Z" fill="#121619"/>
<path d="M865.312 25.959L813.64 165.232V176.188H831.128L842.728 143.655H911.728L923.544 176.188H942.216V165.246L889.768 25.959H865.312ZM849.152 125.63L876.096 49.621H877.752L905.104 125.63H849.152Z" fill="#121619"/>
</g>
<defs>
<clipPath id="clip0_4207_16629">
<rect width="1016" height="200" fill="white"/>
</clipPath>
</defs>
</svg>
