<svg width="554" height="134" viewBox="0 0 554 134" fill="none" xmlns="http://www.w3.org/2000/svg">
<g clip-path="url(#clip0_1725_15705)">
<mask id="mask0_1725_15705" style="mask-type:luminance" maskUnits="userSpaceOnUse" x="0" y="0" width="554" height="134">
<path d="M0 0.000170708H553.333V133.333H0V0.000170708Z" fill="white"/>
</mask>
<g mask="url(#mask0_1725_15705)">
<path d="M469.586 71.8556C474.191 58.1316 486.287 48.2036 501.805 48.2036C514.281 48.2036 526.471 55.2436 532.451 67.1743C533.198 68.661 533.809 70.1556 534.197 71.8556H469.586ZM501.805 32.0823C473.795 32.0823 451.01 54.7916 451.01 82.7063C451.01 110.618 473.795 133.328 501.805 133.328C528.817 133.328 544.555 113.002 548.461 101.92H530.281C528.443 104.968 518.861 117.206 501.805 117.206C486.119 117.206 473.637 107.001 469.369 92.977C468.875 91.3583 468.493 89.689 468.226 87.977H551.99C552.579 81.9423 552.151 76.117 550.634 69.9316C546.03 51.1476 527.783 32.0823 501.805 32.0823Z" fill="black"/>
</g>
<mask id="mask1_1725_15705" style="mask-type:luminance" maskUnits="userSpaceOnUse" x="0" y="0" width="554" height="134">
<path d="M0 0.000170708H553.333V133.333H0V0.000170708Z" fill="white"/>
</mask>
<g mask="url(#mask1_1725_15705)">
<path d="M387.38 117.212C368.354 117.212 352.875 101.733 352.875 82.7063C352.875 63.6797 368.354 48.1997 387.38 48.1997C406.407 48.1997 421.886 63.6797 421.886 82.7063C421.886 101.733 406.407 117.212 387.38 117.212ZM387.38 32.0784C374.055 32.0784 361.924 37.261 352.875 45.7063V1.24102H336.752V76.425C336.752 84.5983 337.482 92.5383 338.838 97.1037C345.055 118.029 364.464 133.333 387.38 133.333C415.296 133.333 438.008 110.622 438.008 82.7063C438.008 54.789 415.296 32.0784 387.38 32.0784Z" fill="black"/>
</g>
<mask id="mask2_1725_15705" style="mask-type:luminance" maskUnits="userSpaceOnUse" x="0" y="0" width="554" height="134">
<path d="M0 0.000170708H553.333V133.333H0V0.000170708Z" fill="white"/>
</mask>
<g mask="url(#mask2_1725_15705)">
<path d="M114.773 132.064H122.857V34.4906H114.773V132.064Z" fill="black"/>
</g>
<mask id="mask3_1725_15705" style="mask-type:luminance" maskUnits="userSpaceOnUse" x="0" y="0" width="554" height="134">
<path d="M0 0.000170708H553.333V133.333H0V0.000170708Z" fill="white"/>
</mask>
<g mask="url(#mask3_1725_15705)">
<path d="M118.815 -4.6217e-05C114.732 -4.6217e-05 111.422 3.30929 111.422 7.39329C111.422 11.476 114.732 14.7866 118.815 14.7866C122.898 14.7866 126.208 11.476 126.208 7.39329C126.208 3.30929 122.898 -4.6217e-05 118.815 -4.6217e-05Z" fill="black"/>
</g>
<mask id="mask4_1725_15705" style="mask-type:luminance" maskUnits="userSpaceOnUse" x="0" y="0" width="554" height="134">
<path d="M0 0.000170708H553.333V133.333H0V0.000170708Z" fill="white"/>
</mask>
<g mask="url(#mask4_1725_15705)">
<path d="M273.243 32.1582C249.286 32.1582 236.203 45.7982 229.835 62.7689C223.467 45.7982 210.188 32.1582 186.426 32.1582C156.271 32.1582 138.975 50.9769 138.975 84.7916V132.06H147.06V85.3649C147.06 68.5142 152.175 40.2436 186.426 40.2436C214.898 40.2436 225.794 63.5596 225.794 84.3756V132.06H233.878V84.3756C233.878 63.5596 244.932 40.2436 273.243 40.2436C307.494 40.2436 312.607 68.5142 312.607 85.3649V132.06H320.692V84.7916C320.692 50.9769 303.398 32.1582 273.243 32.1582Z" fill="black"/>
</g>
<mask id="mask5_1725_15705" style="mask-type:luminance" maskUnits="userSpaceOnUse" x="0" y="0" width="554" height="134">
<path d="M0 0.000170708H553.333V133.333H0V0.000170708Z" fill="white"/>
</mask>
<g mask="url(#mask5_1725_15705)">
<g opacity="0.899994">
<mask id="mask6_1725_15705" style="mask-type:luminance" maskUnits="userSpaceOnUse" x="1" y="32" width="99" height="102">
<path d="M1.4104 32.1813H99.8378V133.317H1.4104V32.1813Z" fill="white"/>
</mask>
<g mask="url(#mask6_1725_15705)">
<path d="M51.47 77.2227C23.9807 74.3894 9.15135 70.5827 9.51135 58.5961C9.64202 54.2227 13.55 49.7214 20.2314 46.2427C36.8394 37.5961 67.2207 36.5281 94.9034 54.4427V44.9721C65.69 28.1427 34.2247 29.8347 16.494 39.0641C6.99935 44.0067 1.64735 50.8574 1.42202 58.3534C0.818019 78.4681 24.3594 82.5654 50.6407 85.2721C82.6567 88.5707 92.63 93.6294 91.6834 106.087C91.2954 111.203 87.226 115.967 80.2274 119.496C62.7114 128.333 30.1833 127.961 1.70602 110.279V119.675C19.0073 129.389 36.814 133.317 52.334 133.317C64.8074 133.317 75.8047 130.789 83.8714 126.723C93.502 121.864 99.142 114.755 99.754 106.701C101.599 82.3867 72.626 79.4014 51.47 77.2227Z" fill="black"/>
</g>
</g>
</g>
</g>
<defs>
<clipPath id="clip0_1725_15705">
<rect width="553.333" height="133.333" fill="white"/>
</clipPath>
</defs>
</svg>
