<svg width="700" height="153" viewBox="0 0 700 153" fill="none" xmlns="http://www.w3.org/2000/svg">
<g clip-path="url(#clip0_2021_29458)">
<path d="M113.74 13.1484C123.451 22.1991 131.635 34.0978 132.325 47.6436C132.388 58.7868 131.077 67.9476 123.174 76.4902C116.563 82.3206 116.563 82.3206 113.064 82.3206C114.623 77.5394 114.623 77.5394 115.558 75.6685C116.107 75.6685 116.656 75.6685 117.221 75.6685C120.467 63.9374 120.467 63.9374 118.884 52.3858C118.832 51.4597 118.781 50.5336 118.728 49.5795C117.592 40.2196 111.076 31.7525 103.832 26.0662C103.312 25.6964 102.792 25.3266 102.257 24.9456C101.519 24.3968 100.782 23.848 100.022 23.2826C97.2292 21.5958 94.6771 20.6423 91.5724 19.7161C89.7863 19.125 89.7863 19.125 88.0651 18.2545C81.7515 15.1354 73.2727 16.5942 66.5083 17.4619C65.8643 17.5413 65.2202 17.6206 64.5566 17.7023C62.9898 17.8958 61.4236 18.0941 59.8575 18.2935C59.8575 18.8423 59.8575 19.3911 59.8575 19.9565C59.2863 20.0433 58.7151 20.1301 58.1266 20.2196C55.2572 20.8919 52.811 21.9852 50.1411 23.2306C49.1948 23.6669 48.2485 24.1031 47.2736 24.5526C44.8601 25.6409 44.8601 25.6409 43.2304 27.4402C42.2321 28.1762 41.2266 28.9027 40.2168 29.6229C27.1585 39.454 19.0588 54.5399 16.6271 70.6793C15.7504 82.3117 15.8384 93.7646 19.9525 104.772C20.1351 105.286 20.3177 105.801 20.5058 106.331C25.3768 120.012 33.063 131.84 42.6954 142.635C46.2212 146.662 46.2212 146.662 46.5559 149.674C47.1046 149.674 47.6532 149.674 48.2186 149.674C48.4929 150.772 48.7673 151.869 49.0499 153C47.9525 153 46.8551 153 45.7245 153C45.7245 152.451 45.7245 151.902 45.7245 151.337C45.0815 151.028 45.0815 151.028 44.4255 150.713C41.7574 149.345 39.1769 147.847 36.5796 146.348C36.5796 145.799 36.5796 145.25 36.5796 144.685C35.8852 144.35 35.8852 144.35 35.1767 144.009C34.5423 143.683 33.9078 143.357 33.2542 143.022C32.3026 142.559 32.3026 142.559 31.3317 142.086C25.3844 137.936 21.0571 131.224 16.6271 125.56C16.1513 124.981 15.6755 124.402 15.1852 123.806C14.1331 122.234 14.1331 122.234 14.1331 119.739C13.5844 119.739 13.0357 119.739 12.4703 119.739C8.30994 111.871 4.70165 104.297 2.4941 95.625C2.24654 94.7621 1.99899 93.8992 1.74393 93.0102C-3.78657 71.521 1.64344 51.1399 12.4703 32.4293C13.019 32.4293 13.5677 32.4293 14.1331 32.4293C14.4074 31.3317 14.6817 30.2341 14.9644 29.1032C15.5131 29.1032 16.0618 29.1032 16.6271 29.1032C16.8414 28.6273 17.0558 28.1514 17.2766 27.6611C18.3843 25.6015 19.662 24.0026 21.1996 22.2432C21.9583 21.3621 21.9583 21.3621 22.7324 20.4632C24.1093 19.125 24.1093 19.125 25.772 19.125C25.772 18.5762 25.772 18.0274 25.772 17.4619C27.4566 16.0574 29.1296 14.7761 30.916 13.5122C31.4397 13.1402 31.9633 12.7682 32.5028 12.3849C37.4725 8.9484 42.6028 6.40574 48.2186 4.15759C48.7367 3.94334 49.2549 3.7291 49.7887 3.50837C70.2031 -4.63223 96.6726 -0.35917 113.74 13.1484Z" fill="#006BA0"/>
<path d="M96.4371 34.9238C101.8 38.4852 105.382 43.2204 108.076 49.0597C108.076 49.8829 108.076 50.7061 108.076 51.5542C105.582 51.5542 105.582 51.5542 103.608 49.6314C102.887 48.8939 102.167 48.1564 101.425 47.3966C94.0499 42.2129 84.7804 40.4556 75.9358 41.9495C74.4814 42.2446 73.0294 42.5523 71.5809 42.8752C69.8338 43.239 69.8338 43.239 68.1711 43.239C67.8967 43.7878 67.6224 44.3366 67.3397 44.9021C65.9582 45.4666 64.572 46.0194 63.1829 46.5651C54.6551 51.9202 49.0264 60.2485 46.7637 70.0556C45.6443 86.8493 48.9247 101.628 59.8575 114.75C63.589 119.022 63.589 119.022 68.1711 122.234C68.1711 122.782 68.1711 123.331 68.1711 123.897C68.7026 124.085 69.2342 124.274 69.7818 124.468C71.8433 125.352 73.5833 126.29 75.4974 127.431C79.096 129.47 82.8053 130.971 86.6687 132.42C87.2386 132.634 87.8085 132.849 88.3957 133.07C101.755 137.968 118.959 137.186 132.185 132.212C133.192 131.869 134.198 131.526 135.235 131.172C141.808 128.83 147.569 125.662 153.351 121.757C156.778 119.474 159.757 118.177 163.777 117.244C161.019 125.892 151.055 132.397 143.824 137.201C143.179 137.644 142.534 138.086 141.869 138.542C137.655 141.27 133.271 143.208 128.6 144.997C128.033 145.215 127.466 145.434 126.882 145.66C123.845 146.771 121.291 147.442 118.052 147.179C117.778 147.728 117.504 148.277 117.221 148.842C113.569 148.863 109.918 148.878 106.266 148.888C105.027 148.892 103.787 148.898 102.548 148.905C84.2873 149.009 84.2873 149.009 75.6532 144.685C74.7305 144.253 73.8078 143.821 72.8572 143.376C67.5014 140.837 62.629 138.139 58.0844 134.274C56.528 133.04 55.0095 132.202 53.2067 131.38C53.2067 130.832 53.2067 130.283 53.2067 129.717C52.658 129.717 52.1093 129.717 51.544 129.717C50.3781 128.35 50.3781 128.35 49.1019 126.547C47.3425 124.075 47.3425 124.075 45.3023 121.841C36.1768 112.498 30.6402 94.9215 30.7804 82.133C30.8201 79.9595 30.8884 77.7888 30.968 75.6164C31.0003 74.5694 31.0003 74.5694 31.0333 73.5013C31.3962 66.2387 33.7149 60.2592 36.9953 53.8409C37.484 52.8762 37.9727 51.9115 38.4761 50.9176C42.0526 44.1861 42.0526 44.1861 44.8932 43.239C45.5233 42.6066 46.1534 41.9742 46.8027 41.3226C49.1386 38.9929 51.4414 37.3791 54.2459 35.6514C55.1247 35.1004 56.0034 34.5495 56.9088 33.9819C69.045 27.2046 84.6676 27.7396 96.4371 34.9238Z" fill="#006CA2"/>
<path d="M159.62 24.9458C167.547 32.0043 170.581 46.369 171.259 56.5436C172.099 73.897 166.623 89.2956 155.311 102.294C153.059 104.774 150.587 106.829 147.981 108.929C147.432 109.478 146.884 110.027 146.318 110.593C145.21 111.147 144.101 111.701 142.993 112.256C142.444 112.804 141.896 113.353 141.33 113.919C127.206 120.972 112.586 123.042 97.2685 118.908C95.0168 118.145 92.8289 117.292 90.6176 116.413C88.9579 115.85 87.2963 115.292 85.6295 114.75C85.6295 114.201 85.6295 113.653 85.6295 113.087C85.144 112.862 84.6586 112.637 84.1584 112.405C75.4354 107.79 68.5738 98.2622 65.3782 89.1094C62.7615 80.2682 63.4536 71.0871 67.5216 62.793C70.4487 57.946 74.0928 55.1552 78.9787 52.386C79.5274 52.6604 80.0761 52.9348 80.6414 53.2175C80.2909 53.8993 79.9405 54.581 79.5795 55.2834C79.124 56.1794 78.6685 57.0755 78.1993 57.9988C77.746 58.8863 77.2926 59.7738 76.8256 60.6882C73.523 67.7522 73.9166 76.1041 76.1729 83.4641C77.5882 87.256 79.3887 90.2803 81.9988 93.3644C83.1354 94.7936 83.1354 94.7936 83.9083 96.5346C85.0362 98.5437 86.0277 98.8959 88.1236 99.7828C89.2674 100.457 90.4105 101.133 91.5529 101.81C101.556 107.299 111.709 107.768 122.781 105.136C128.732 103.391 133.639 100.602 138.836 97.2882C139.77 96.8669 139.77 96.8669 140.723 96.4372C142.456 95.671 142.456 95.671 142.993 93.1306C144.36 91.7264 145.748 90.3424 147.15 88.973C159.411 74.4033 163.543 56.8994 162.114 38.2501C161.679 35.2718 160.973 32.3933 160.166 29.4932C159.62 27.4404 159.62 27.4404 159.62 24.9458Z" fill="#0071A6"/>
<path d="M470.547 25.7774C473.016 25.7774 475.485 25.7774 478.029 25.7774C480.762 31.4515 482.429 36.9597 483.848 43.0835C485.489 49.9176 487.21 56.6027 489.668 63.1959C491.723 61.14 491.937 59.7697 492.681 56.9595C494.39 50.7865 496.186 44.6432 498.033 38.5101C498.316 37.5465 498.599 36.5828 498.891 35.59C499.166 34.6811 499.441 33.7721 499.725 32.8356C499.969 32.017 500.214 31.1984 500.466 30.355C501.319 28.2409 502.013 27.1659 503.801 25.7774C505.746 25.3876 505.746 25.3876 507.905 25.3616C508.616 25.3359 509.326 25.3102 510.059 25.2837C512.114 25.7774 512.114 25.7774 513.884 27.3528C516.005 30.8728 516.918 34.446 517.934 38.4061C519.306 43.6435 520.853 48.6245 522.935 53.6247C524.267 57.0228 525.261 60.5158 526.247 64.0274C529.427 53.8977 532.497 43.7832 534.894 33.4357C535.591 30.4881 536.19 28.3228 537.886 25.7774C539.656 25.5046 539.656 25.5046 541.679 25.5695C542.349 25.5824 543.019 25.5953 543.709 25.6085C545.368 25.7774 545.368 25.7774 546.2 26.6089C545.857 33.6282 543.823 40.2164 541.887 46.9292C541.548 48.1198 541.208 49.3104 540.869 50.501C539.021 56.9465 537.125 63.3745 535.028 69.7441C534.736 70.6388 534.736 70.6388 534.438 71.5515C533.623 73.9484 533.05 75.5168 531.235 77.3318C529.189 77.6403 529.189 77.6403 526.767 77.6955C525.972 77.7288 525.176 77.762 524.357 77.7962C522.09 77.3318 522.09 77.3318 520.259 75.6265C518.534 72.7954 517.621 70.0105 516.791 66.8338C516.442 65.5796 516.093 64.3258 515.742 63.0725C515.56 62.4178 515.379 61.7631 515.192 61.0887C514.183 57.5426 513.071 54.0296 511.958 50.5152C511.751 49.8521 511.543 49.189 511.329 48.5058C510.318 45.3098 509.262 42.1734 507.957 39.0818C507.352 40.9831 506.746 42.8844 506.141 44.7859C505.617 46.4336 505.092 48.0812 504.566 49.7287C503.266 53.8126 501.972 57.8981 500.699 61.9908C500.477 62.7033 500.255 63.4158 500.026 64.1498C499.607 65.4961 499.189 66.8431 498.775 68.1909C496.881 74.2579 496.881 74.2579 495.487 76.5002C493.549 77.4693 491.916 77.7475 489.772 78.0593C489.054 78.1772 488.336 78.2951 487.596 78.4166C485.511 78.1633 485.511 78.1633 483.816 76.3648C482.15 73.9547 481.383 72.0776 480.61 69.2666C480.35 68.3395 480.091 67.4123 479.823 66.457C479.556 65.4666 479.29 64.4762 479.016 63.4557C478.593 61.9235 478.593 61.9235 478.162 60.3603C477.575 58.2247 476.991 56.0885 476.413 53.9505C475.557 50.7929 474.671 47.6445 473.781 44.4964C473.239 42.5531 472.698 40.6097 472.157 38.666C471.899 37.7542 471.64 36.8423 471.374 35.9028C471.142 35.0568 470.911 34.2107 470.673 33.3391C470.467 32.5989 470.261 31.8588 470.049 31.0962C469.715 29.1035 469.715 29.1035 470.547 25.7774Z" fill="#000103"/>
<path d="M113.74 13.1483C123.451 22.1991 131.635 34.0978 132.325 47.6435C132.388 58.7867 131.077 67.9475 123.173 76.4902C116.563 82.3206 116.563 82.3206 113.064 82.3206C114.623 77.5393 114.623 77.5393 115.558 75.6684C116.107 75.6684 116.656 75.6684 117.221 75.6684C120.467 63.9374 120.467 63.9374 118.884 52.3858C118.832 51.4597 118.781 50.5336 118.728 49.5794C117.592 40.2195 111.076 31.7524 103.832 26.0662C103.312 25.6964 102.792 25.3266 102.257 24.9456C101.519 24.3968 100.782 23.8479 100.022 23.2825C97.2291 21.5958 94.677 20.6422 91.5723 19.7161C89.7862 19.1249 89.7862 19.1249 88.065 18.2544C81.728 15.1237 73.1361 16.7253 66.5083 17.4619C64.0392 12.797 61.57 8.13219 59.0261 3.32599C57.9287 3.32599 56.8313 3.32599 55.7007 3.32599C55.7007 2.77719 55.7007 2.22839 55.7007 1.66295C76.3461 -1.82671 96.8673 -0.205107 113.74 13.1483Z" fill="#A7C7D7"/>
<path d="M397.444 25.5246C398.483 25.5258 398.483 25.5258 399.544 25.5269C400.26 25.5234 400.976 25.5198 401.713 25.5161C403.234 25.5113 404.755 25.5109 406.276 25.5145C408.578 25.5171 410.88 25.4978 413.183 25.4766C427.503 25.4274 427.503 25.4274 433.967 28.2716C433.967 28.8204 433.967 29.3692 433.967 29.9346C434.464 30.1061 434.961 30.2776 435.474 30.4543C438.037 32.0659 438.664 33.8063 439.786 36.5868C440.808 41.6712 440.77 46.6477 440.774 51.814C440.784 52.7203 440.794 53.6266 440.804 54.5603C440.816 60.7433 440.825 66.8805 437.448 72.2383C432.023 77.509 426.484 77.4621 419.33 77.471C418.183 77.4752 418.183 77.4752 417.012 77.4794C415.4 77.4836 413.788 77.4856 412.176 77.4855C409.702 77.4873 407.228 77.5024 404.754 77.5181C403.187 77.5206 401.62 77.5222 400.053 77.523C399.311 77.529 398.569 77.535 397.804 77.5411C397.119 77.5386 396.433 77.536 395.727 77.5334C395.123 77.5345 394.519 77.5357 393.897 77.537C392.399 77.3314 392.399 77.3314 390.736 75.6683C390.525 73.6486 390.525 73.6486 390.521 71.0787C390.516 70.1186 390.511 69.1586 390.505 68.1694C390.509 67.1283 390.512 66.0871 390.516 65.0145C390.514 63.9503 390.512 62.8861 390.511 61.7897C390.508 59.536 390.512 57.2825 390.52 55.0289C390.529 52.1375 390.524 49.2464 390.514 46.355C390.506 43.6013 390.511 40.8477 390.516 38.0939C390.512 37.0528 390.509 36.0117 390.505 34.939C390.511 33.9789 390.516 33.0188 390.521 32.0297C390.523 31.1816 390.524 30.3336 390.525 29.4598C390.977 25.1346 393.747 25.5705 397.444 25.5246ZM399.881 34.9238C399.881 46.1742 399.881 57.4247 399.881 69.0162C403.619 69.0505 407.357 69.0848 411.208 69.1201C412.963 69.1428 412.963 69.1428 414.754 69.166C416.153 69.1722 416.153 69.1722 417.58 69.1786C418.529 69.1873 419.478 69.196 420.456 69.205C423.89 68.9651 426.88 68.3144 429.654 66.2098C432.5 62.3153 431.658 56.7041 431.681 52.1259C431.698 51.2775 431.715 50.4291 431.733 49.555C431.758 44.606 431.55 40.8797 428.979 36.5868C426.037 34.5153 423.201 34.7326 419.691 34.7614C418.134 34.7676 418.134 34.7676 416.545 34.7739C415.23 34.7891 413.914 34.8042 412.559 34.8198C408.376 34.8541 404.192 34.8884 399.881 34.9238Z" fill="#000001"/>
<path d="M339.308 25.5358C340.019 25.5252 340.73 25.5146 341.462 25.5037C342.233 25.5018 343.003 25.5 343.797 25.4981C344.591 25.4925 345.385 25.487 346.203 25.4813C347.887 25.4729 349.571 25.469 351.256 25.4692C353.818 25.4656 356.379 25.4355 358.94 25.4039C360.578 25.399 362.216 25.3957 363.854 25.3941C364.614 25.3822 365.375 25.3702 366.159 25.3579C371.12 25.3929 374.979 26.2205 379.097 29.1035C383.563 34.867 382.817 42.1255 382.423 49.06C381.483 54.3341 378.962 56.6764 374.941 59.8698C376.169 61.7935 377.399 63.7163 378.63 65.6385C378.98 66.1867 379.33 66.735 379.69 67.2999C381.296 69.9572 381.296 69.9572 383.254 72.3426C383.288 74.0053 383.29 75.6691 383.254 77.3317C380.312 77.9287 377.866 78.0748 374.941 77.3317C371.686 74.2728 369.123 70.4272 367.564 66.2311C366.63 63.9863 365.837 62.4465 364.133 60.7013C360.444 59.6437 356.881 59.7296 353.066 59.8178C352.053 59.8119 351.041 59.806 349.998 59.8C347.505 59.7902 345.011 59.8256 342.518 59.8698C342.518 65.6322 342.518 71.3947 342.518 77.3317C339.774 77.3317 337.031 77.3317 334.204 77.3317C334.166 70.8555 334.136 64.3792 334.118 57.9029C334.11 54.8958 334.098 51.8888 334.079 48.8818C334.061 45.9811 334.051 43.0806 334.047 40.1799C334.042 38.5318 334.029 36.8837 334.016 35.2356C334.016 34.2368 334.016 33.2381 334.016 32.2091C334.012 31.3265 334.008 30.4439 334.004 29.5345C334.352 25.8951 336.049 25.5688 339.308 25.5358ZM342.518 34.0926C342.518 39.8551 342.518 45.6175 342.518 51.5546C346.498 51.6118 350.477 51.6615 354.457 51.6916C355.811 51.7042 357.165 51.7212 358.519 51.7428C360.465 51.773 362.411 51.7872 364.357 51.7982C365.265 51.8175 365.265 51.8175 366.192 51.8372C369.491 51.8418 369.491 51.8418 372.412 50.461C373.847 48.1399 373.607 45.9228 373.59 43.2394C373.596 42.2103 373.603 41.1813 373.609 40.1212C373.495 37.4823 373.495 37.4823 372.219 35.8596C368.955 33.7319 365.474 33.9953 361.678 34.0114C361.129 34.0126 360.58 34.0138 360.015 34.015C358.27 34.0196 356.525 34.0301 354.78 34.0406C353.594 34.0448 352.408 34.0486 351.221 34.052C348.32 34.0605 345.419 34.0767 342.518 34.0926Z" fill="#000102"/>
<path d="M675.189 25.5041C675.878 25.5057 676.567 25.5072 677.276 25.5088C678.715 25.5144 680.154 25.5258 681.593 25.5431C683.806 25.5693 686.018 25.5772 688.231 25.5821C689.634 25.5897 691.037 25.5983 692.44 25.608C693.103 25.6116 693.767 25.6151 694.45 25.6188C699.071 25.6794 699.071 25.6794 700 26.6085C700.082 27.8536 700.108 29.1026 700.104 30.3503C700.107 31.3665 700.107 31.3665 700.111 32.4031C700 34.0922 700 34.0922 699.169 34.9237C696.872 35.0158 694.592 35.0581 692.294 35.0699C690.872 35.0891 689.45 35.1092 688.028 35.1299C685.779 35.1591 683.53 35.1835 681.28 35.1947C679.114 35.2076 676.949 35.241 674.783 35.2777C674.112 35.2761 673.441 35.2746 672.749 35.2729C669.986 35.3331 667.937 35.5505 665.516 36.9284C663.58 40.2255 663.564 43.6302 663.421 47.3965C664.499 47.3922 665.578 47.3878 666.689 47.3833C670.675 47.3683 674.662 47.3587 678.648 47.3508C680.376 47.3466 682.105 47.341 683.833 47.3338C686.311 47.3237 688.789 47.319 691.268 47.3153C692.434 47.3089 692.434 47.3089 693.624 47.3023C694.34 47.3022 695.055 47.3022 695.793 47.3021C696.743 47.2993 696.743 47.2993 697.712 47.2965C699.169 47.3965 699.169 47.3965 700 48.228C700 50.4233 700 52.6185 700 54.8802C687.929 54.8802 675.858 54.8802 663.421 54.8802C663.932 63.111 663.932 63.111 665.083 67.353C669.093 68.1324 673.033 68.3577 677.105 68.4477C677.763 68.4649 678.42 68.4822 679.097 68.5C681.18 68.554 683.264 68.6032 685.348 68.6523C686.767 68.6882 688.186 68.7245 689.605 68.7611C693.07 68.8498 696.535 68.9341 700 69.0161C700 71.7601 700 74.5041 700 77.3313C695.252 77.3932 690.505 77.4383 685.757 77.4683C684.143 77.4808 682.53 77.4978 680.917 77.5195C678.591 77.5499 676.265 77.5639 673.939 77.5749C673.224 77.5878 672.508 77.6007 671.771 77.6139C666.114 77.6155 662.269 76.5764 657.757 72.9658C653.232 67.2767 653.841 59.8566 653.6 52.9053C653.547 51.8442 653.494 50.783 653.439 49.6897C653.168 42.2773 653.731 36.7673 657.705 30.4543C662.65 25.9382 668.721 25.4019 675.189 25.5041Z" fill="#000001"/>
<path d="M573.582 25.2251C578.218 26.718 580.466 31.3853 582.571 35.4437C582.851 35.9797 583.13 36.5157 583.417 37.068C585.996 42.0728 588.402 47.1604 590.782 52.2619C592.309 55.5328 593.862 58.7815 595.509 61.994C595.815 62.5916 596.121 63.1892 596.437 63.805C597.012 64.9214 597.593 66.0351 598.18 67.1453C599.78 70.2535 600.777 73.0046 601.069 76.5001C600.238 77.3316 600.238 77.3316 597.12 77.7994C595.305 77.7831 595.305 77.7831 593.587 77.3316C591.676 75.3716 590.593 73.1379 589.43 70.6795C588.607 69.033 587.784 67.3866 586.936 65.6903C577.334 65.6903 567.732 65.6903 557.839 65.6903C555.644 69.532 553.449 73.3736 551.188 77.3316C548.636 78.6076 546.448 77.7888 543.706 77.3316C543.009 72.0672 545.469 68.31 547.862 63.8194C548.645 62.3267 549.424 60.8326 550.201 59.337C550.723 58.3526 550.723 58.3526 551.256 57.3483C552.136 55.7618 552.136 55.7618 552.019 54.049C552.568 54.049 553.117 54.049 553.682 54.049C553.682 52.9514 553.682 51.8538 553.682 50.7229C554.231 50.7229 554.779 50.7229 555.345 50.7229C555.43 50.2867 555.516 49.8504 555.604 49.4009C556.355 46.7682 557.5 44.4137 558.67 41.94C560.493 38.0803 560.493 38.0803 561.995 34.0925C562.544 34.0925 563.093 34.0925 563.658 34.0925C563.71 33.4922 563.761 32.892 563.814 32.2735C565.321 27.0555 568.488 25.3278 573.582 25.2251ZM571.972 36.5871C571.669 37.1412 571.367 37.6954 571.056 38.2663C570.638 39.0327 570.22 39.7991 569.789 40.5888C569.339 41.4163 568.889 42.2437 568.425 43.0963C567.471 44.8413 566.51 46.5824 565.542 48.3193C565.092 49.1297 564.641 49.94 564.178 50.7749C563.551 51.8956 563.551 51.8956 562.911 53.0389C561.872 54.7859 561.872 54.7859 561.995 56.5436C568.854 56.5436 575.713 56.5436 582.779 56.5436C581.613 54.0225 580.447 51.5014 579.246 48.904C578.886 48.117 578.525 47.3301 578.154 46.5192C576.429 42.8355 574.724 39.6371 571.972 36.5871Z" fill="#000102"/>
<path d="M96.437 34.9238C101.8 38.4852 105.381 43.2204 108.076 49.0597C108.076 49.8829 108.076 50.7061 108.076 51.5542C105.582 51.5542 105.582 51.5542 103.607 49.6314C102.887 48.8939 102.167 48.1564 101.425 47.3966C94.0498 42.2129 84.7803 40.4556 75.9357 41.9495C74.4813 42.2446 73.0294 42.5523 71.5809 42.8752C69.8337 43.239 69.8337 43.239 68.171 43.239C67.8967 43.7878 67.6223 44.3366 67.3397 44.9021C65.9582 45.4666 64.5719 46.0194 63.1829 46.5651C57.6196 50.0586 53.8961 54.1632 50.7126 59.8695C50.3879 60.4118 50.0631 60.9542 49.7286 61.513C46.4909 67.6576 46.3179 74.6867 45.7245 81.489C45.1758 80.3914 44.6271 79.2938 44.0617 78.1629C43.4402 78.283 42.8186 78.403 42.1782 78.5267C41.3595 78.6811 40.5407 78.8354 39.6971 78.9945C38.887 79.1488 38.0768 79.3032 37.242 79.4622C34.9169 79.826 34.9169 79.826 31.5914 79.826C31.1073 66.2149 34.6049 55.4324 42.399 44.0705C43.2221 43.7961 44.0451 43.5217 44.8931 43.239C45.5232 42.6066 46.1534 41.9742 46.8026 41.3226C49.1386 38.9929 51.4414 37.3791 54.2458 35.6514C55.1246 35.1004 56.0034 34.5495 56.9088 33.9819C69.045 27.2046 84.6675 27.7396 96.437 34.9238Z" fill="#A5C6D7"/>
<path d="M260.889 25.6665C261.489 25.6686 262.09 25.6708 262.708 25.673C263.308 25.6708 263.908 25.6687 264.526 25.6665C266.033 25.7769 266.033 25.7769 266.865 26.6085C266.937 28.1498 266.954 29.694 266.946 31.237C266.944 32.0791 266.942 32.9211 266.94 33.7886C266.932 34.8664 266.924 35.9441 266.917 37.0544C266.891 42.1738 266.891 42.1738 266.865 47.3965C276.741 47.3965 286.618 47.3965 296.793 47.3965C296.728 40.9036 296.728 40.9036 296.644 34.4109C296.639 33.6047 296.635 32.7985 296.631 31.9679C296.618 30.7268 296.618 30.7268 296.605 29.4607C296.793 27.44 296.793 27.44 298.456 25.7769C300.713 25.5046 302.823 25.6681 305.107 25.7769C306.566 27.2364 306.044 29.2889 306.046 31.2695C306.048 32.2656 306.051 33.2617 306.054 34.288C306.052 35.3725 306.05 36.4569 306.049 37.5741C306.049 38.6895 306.05 39.8049 306.051 40.9203C306.052 43.2607 306.051 45.601 306.047 47.9414C306.042 50.9474 306.045 53.9534 306.05 56.9595C306.053 59.2635 306.052 61.5675 306.05 63.8715C306.049 65.5211 306.051 67.1706 306.054 68.8202C306.05 70.3143 306.05 70.3143 306.046 71.8387C306.045 72.7206 306.045 73.6026 306.044 74.5113C305.938 76.4998 305.938 76.4998 305.107 77.3313C303.844 77.391 302.578 77.4011 301.314 77.3832C300.627 77.3757 299.94 77.3682 299.232 77.3605C298.702 77.3509 298.171 77.3412 297.625 77.3313C296.54 75.1614 296.699 73.567 296.712 71.1403C296.714 70.3341 296.716 69.528 296.718 68.6973C296.726 67.6706 296.734 66.6439 296.741 65.586C296.759 62.3275 296.776 59.069 296.793 55.7117C286.917 55.7117 277.04 55.7117 266.865 55.7117C266.865 62.8462 266.865 69.9806 266.865 77.3313C264.396 77.3313 261.926 77.3313 259.382 77.3313C257.923 75.8718 258.445 73.8193 258.444 71.8387C258.441 70.8426 258.438 69.8465 258.436 68.8202C258.437 67.7357 258.439 66.6513 258.441 65.5341C258.44 64.4187 258.439 63.3033 258.438 62.1879C258.437 59.8475 258.439 57.5072 258.443 55.1668C258.447 52.1608 258.445 49.1548 258.44 46.1487C258.437 43.8447 258.438 41.5407 258.44 39.2367C258.441 37.5871 258.438 35.9376 258.436 34.288C258.438 33.2919 258.441 32.2958 258.444 31.2695C258.444 30.3876 258.445 29.5056 258.446 28.5969C258.592 25.8348 258.592 25.8348 260.889 25.6665Z" fill="black"/>
<path d="M594.418 25.7773C600.7 25.4683 600.7 25.4683 602.319 26.8246C603.673 28.3996 604.395 29.8078 605.209 31.7149C605.653 32.7327 605.653 32.7327 606.105 33.7711C606.415 34.4946 606.725 35.218 607.044 35.9634C609.61 41.8202 612.332 47.5068 615.404 53.113C617.789 57.483 619.878 61.9536 621.853 66.5218C622.256 65.7158 622.659 64.9097 623.074 64.0793C625.447 59.3326 627.819 54.586 630.192 49.8394C630.463 49.2971 630.734 48.7548 631.014 48.1961C631.557 47.1083 632.102 46.0205 632.646 44.9329C634.11 42.0074 635.569 39.0795 637.022 36.1486C637.327 35.5349 637.631 34.9213 637.946 34.289C638.534 33.1052 639.12 31.9207 639.706 30.7356C641.712 26.7023 641.712 26.7023 642.637 25.7773C643.881 25.6959 645.13 25.6694 646.378 25.6733C647.055 25.6712 647.732 25.6691 648.43 25.6668C650.119 25.7773 650.119 25.7773 650.95 26.6088C651.433 30.4837 650.094 32.743 648.196 36.0674C645.155 41.5309 642.4 47.0975 639.727 52.7498C638.948 54.3891 638.168 56.0283 637.389 57.6674C637.012 58.4588 636.636 59.2501 636.249 60.0654C634.652 63.4202 633.046 66.7703 631.413 70.1078C631.152 70.6544 630.891 71.201 630.622 71.7641C629.302 74.4398 628.554 75.6347 626.009 77.3316C624.188 77.5233 624.188 77.5233 622.216 77.4875C621.237 77.4795 621.237 77.4795 620.239 77.4713C618.527 77.3316 618.527 77.3316 616.865 76.5001C616.865 75.9513 616.865 75.4025 616.865 74.8371C616.316 74.8371 615.767 74.8371 615.202 74.8371C614.749 73.8606 614.295 72.8841 613.828 71.878C610.689 65.1602 607.497 58.4985 603.979 51.9702C601.211 46.7966 598.513 41.5933 595.925 36.3272C595.583 35.6562 595.241 34.9852 594.889 34.2939C594.585 33.6647 594.28 33.0355 593.967 32.3872C593.692 31.8327 593.418 31.2782 593.135 30.7069C592.755 29.1034 592.755 29.1034 593.511 27.2351C593.81 26.754 594.11 26.2729 594.418 25.7773Z" fill="#000203"/>
<path d="M206.513 25.6563C207.953 25.6484 207.953 25.6484 209.422 25.6403C210.467 25.6393 211.513 25.6384 212.589 25.6375C213.655 25.6347 214.72 25.6319 215.817 25.6291C218.075 25.6241 220.333 25.6226 222.591 25.623C225.489 25.6231 228.386 25.6118 231.283 25.5975C234.041 25.586 236.799 25.5865 239.556 25.5855C240.6 25.5795 241.644 25.5735 242.719 25.5674C244.163 25.5712 244.163 25.5712 245.636 25.5751C246.911 25.5734 246.911 25.5734 248.213 25.5715C250.237 25.7771 250.237 25.7771 251.9 27.4402C252.108 30.3505 252.108 30.3505 251.9 33.2608C250.237 34.9239 250.237 34.9239 248.217 35.1127C247.39 35.104 246.563 35.0952 245.71 35.0863C244.816 35.0809 243.921 35.0756 242.999 35.07C242.061 35.0561 241.123 35.0422 240.157 35.0278C239.213 35.0203 238.269 35.0128 237.296 35.0051C234.959 34.9854 232.622 34.958 230.285 34.9239C230.287 35.4429 230.289 35.9619 230.291 36.4967C230.309 41.8782 230.321 47.2598 230.331 52.6414C230.335 54.6523 230.34 56.6631 230.348 58.674C230.358 61.5573 230.362 64.4406 230.366 67.324C230.37 68.2291 230.375 69.1343 230.379 70.0668C230.379 70.8991 230.379 71.7315 230.379 72.589C230.381 73.3257 230.383 74.0625 230.385 74.8216C230.285 76.5 230.285 76.5 229.454 77.3315C228.191 77.3912 226.925 77.4013 225.661 77.3834C224.974 77.3759 224.287 77.3684 223.579 77.3607C223.048 77.3511 222.518 77.3414 221.971 77.3315C221.167 74.9164 221.039 73.3999 221.046 70.8898C221.046 70.0909 221.046 69.292 221.046 68.4689C221.05 67.6087 221.054 66.7486 221.059 65.8623C221.06 64.9799 221.061 64.0976 221.062 63.1884C221.067 60.3671 221.078 57.5458 221.088 54.7245C221.092 52.813 221.096 50.9014 221.099 48.9899C221.109 44.3012 221.123 39.6125 221.14 34.9239C220.565 34.9282 219.99 34.9326 219.398 34.9371C216.809 34.9543 214.22 34.9651 211.631 34.9758C210.726 34.9828 209.821 34.9898 208.889 34.997C208.029 34.9996 207.169 35.0023 206.283 35.0051C205.088 35.0116 205.088 35.0116 203.869 35.0183C202.019 34.9239 202.019 34.9239 201.188 34.0923C201.106 32.8472 201.08 31.5983 201.084 30.3505C201.082 29.6731 201.079 28.9956 201.077 28.2977C201.302 24.8588 203.575 25.6673 206.513 25.6563Z" fill="#000001"/>
<path d="M78.9787 52.3857C79.5274 52.6601 80.0761 52.9345 80.6414 53.2173C80.2909 53.899 79.9405 54.5807 79.5795 55.2831C79.124 56.1792 78.6685 57.0753 78.1993 57.9985C77.5193 59.3298 77.5193 59.3298 76.8256 60.688C73.523 67.7519 73.9166 76.1038 76.1729 83.4639C77.5882 87.2557 79.3887 90.28 81.9988 93.3642C83.1354 94.7933 83.1354 94.7933 83.9083 96.5343C85.0362 98.5434 86.0277 98.8956 88.1236 99.7825C89.2674 100.457 90.4105 101.133 91.5529 101.809C95.5082 104.034 99.5394 105.31 103.919 106.435C103.645 106.983 103.371 107.532 103.088 108.098C102.814 108.098 102.539 108.098 102.257 108.098C101.982 111.665 101.708 115.232 101.425 118.907C96.7622 118.907 96.7622 118.907 93.995 117.764C91.2339 116.658 88.4594 115.67 85.6295 114.75C85.6295 114.201 85.6295 113.652 85.6295 113.087C85.144 112.862 84.6586 112.637 84.1584 112.405C75.4354 107.79 68.5738 98.2619 65.3782 89.1091C62.7615 80.268 63.4536 71.0868 67.5216 62.7928C70.4487 57.9458 74.0928 55.155 78.9787 52.3857Z" fill="#A8C8D8"/>
<path d="M318.305 25.5562C318.888 25.5604 319.471 25.5647 320.071 25.5691C320.654 25.5649 321.237 25.5606 321.838 25.5562C323.397 25.777 323.397 25.777 325.059 27.4401C325.271 29.4598 325.271 29.4598 325.275 32.0297C325.28 32.9898 325.285 33.9498 325.291 34.939C325.287 35.9801 325.284 37.0213 325.28 38.0939C325.282 39.1581 325.284 40.2223 325.285 41.3187C325.288 43.5724 325.284 45.8259 325.276 48.0795C325.267 50.9709 325.272 53.862 325.282 56.7534C325.29 59.5071 325.284 62.2607 325.28 65.0145C325.284 66.0556 325.287 67.0967 325.291 68.1694C325.285 69.1295 325.28 70.0896 325.275 71.0787C325.273 72.3508 325.273 72.3508 325.271 73.6486C325.059 75.6683 325.059 75.6683 323.397 77.3314C321.838 77.523 321.838 77.523 320.071 77.4873C319.488 77.4819 318.905 77.4766 318.305 77.471C316.746 77.3314 316.746 77.3314 315.083 76.4998C315.045 70.132 315.015 63.7642 314.997 57.3962C314.988 54.4395 314.977 51.4828 314.958 48.5261C314.936 45.1288 314.928 41.7316 314.921 38.3343C314.912 37.2698 314.904 36.2052 314.895 35.1084C314.895 34.1263 314.895 33.1442 314.894 32.1324C314.891 31.2646 314.887 30.3967 314.883 29.5026C315.128 26.9814 315.698 25.9255 318.305 25.5562Z" fill="#020508"/>
<path d="M75.6532 8.60238e-05C77.1835 -0.00956092 77.1835 -0.00956092 78.7448 -0.0194028C81.8069 0.935867 82.0462 1.25264 83.5251 3.91733C84.1111 5.19977 84.6733 6.49328 85.2137 7.7956C85.6606 8.76994 85.6606 8.76994 86.1165 9.76397C88.2488 14.5914 88.2488 14.5914 87.2921 17.462C86.4187 17.3924 85.5453 17.3227 84.6454 17.2509C83.4666 17.165 82.2878 17.0795 81.1089 16.9943C80.5372 16.9477 79.9655 16.9011 79.3764 16.853C74.8349 16.5361 71.1856 16.9422 66.5083 17.462C64.0392 12.7972 61.57 8.13237 59.0261 3.32617C57.9287 3.32617 56.8313 3.32617 55.7007 3.32617C55.7007 2.77737 55.7007 2.22856 55.7007 1.66313C57.7785 1.38066 59.8568 1.10445 61.9358 0.831608C62.5145 0.752288 63.0932 0.672969 63.6895 0.591246C67.72 0.0686645 71.5874 -0.130043 75.6532 8.60238e-05Z" fill="#5ABCE1"/>
<path d="M35.7483 56.5435C36.297 56.8179 36.8456 57.0923 37.411 57.375C36.8623 58.4726 36.3136 59.5702 35.7483 60.7011C36.6195 60.521 37.4908 60.3409 38.3885 60.1554C39.5348 59.9214 40.6812 59.6875 41.8275 59.4538C42.4014 59.3348 42.9753 59.2158 43.5666 59.0932C45.9949 58.6004 48.2278 58.2065 50.7126 58.2065C50.5519 58.6599 50.3911 59.1133 50.2255 59.5805C47.719 66.8409 46.3318 73.8325 45.7245 81.4891C45.1758 80.3915 44.6271 79.2939 44.0618 78.163C43.4402 78.2831 42.8187 78.4031 42.1783 78.5268C41.3595 78.6812 40.5408 78.8355 39.6972 78.9945C38.887 79.1489 38.0768 79.3032 37.2421 79.4623C34.9169 79.8261 34.9169 79.8261 31.5915 79.8261C31.2811 71.1002 31.7515 64.3821 35.7483 56.5435Z" fill="#52B9E0"/>
<path d="M429.81 106.435C431.182 106.435 432.554 106.435 433.967 106.435C435.887 110.825 437.808 115.215 439.786 119.739C440.575 118.161 441.364 116.583 442.176 114.958C444.307 110.696 444.307 110.696 446.437 106.435C447.809 106.435 449.181 106.435 450.594 106.435C450.594 113.295 450.594 120.155 450.594 127.223C449.497 127.223 448.399 127.223 447.268 127.223C446.857 121.872 446.857 121.872 446.437 116.413C444.791 119.98 443.145 123.547 441.449 127.223C440.626 127.223 439.803 127.223 438.955 127.223C437.292 123.897 435.63 120.57 433.967 117.244C433.692 120.537 433.418 123.83 433.135 127.223C432.038 127.223 430.941 127.223 429.81 127.223C429.81 120.363 429.81 113.503 429.81 106.435Z" fill="#063770"/>
<path d="M85.6294 98.9512C88.9548 100.614 88.9548 100.614 90.4422 101.417C94.7813 103.716 99.187 105.155 103.919 106.435C103.645 106.984 103.37 107.532 103.088 108.098C102.813 108.098 102.539 108.098 102.256 108.098C101.982 111.665 101.708 115.232 101.425 118.908C96.7621 118.908 96.7621 118.908 93.9949 117.764C91.2178 116.635 88.4989 115.707 85.6294 114.75C85.6294 109.536 85.6294 104.323 85.6294 98.9512Z" fill="#58BCE1"/>
<path d="M407.364 106.435C410.054 108.707 412.87 111.174 413.462 114.792C413.541 119.351 412.983 121.999 409.858 125.56C406.011 127.988 401.783 127.764 397.387 127.223C394.514 125.522 393.415 124.173 391.568 121.402C390.949 117.221 391.123 113.947 393.075 110.177C397.197 105.464 401.438 104.953 407.364 106.435ZM396.556 111.424C394.626 114.089 394.433 116.514 394.893 119.739C396.793 122.183 398.22 123.585 401.128 124.676C403.651 124.739 405.149 124.263 407.364 123.065C409.404 120.005 409.705 117.473 409.026 113.918C407.133 111.376 405.728 110.104 402.791 108.929C400.007 108.929 398.731 109.719 396.556 111.424Z" fill="#07386E"/>
<path d="M571.452 108.826C574.023 112.188 574.846 114.508 574.732 118.882C574.288 121.697 572.963 123.433 571.14 125.56C567.299 127.993 563.062 127.764 558.67 127.223C555.796 125.522 554.697 124.173 552.851 121.402C552.284 117.149 552.146 113.446 554.357 109.709C559.667 105.005 565.741 104.316 571.452 108.826ZM557.839 111.424C555.909 114.089 555.715 116.514 556.176 119.739C558.076 122.183 559.503 123.586 562.411 124.676C564.934 124.739 566.432 124.263 568.646 123.065C570.686 120.005 570.988 117.473 570.309 113.919C568.416 111.376 567.011 110.105 564.074 108.929C561.29 108.929 560.014 109.719 557.839 111.424Z" fill="#06376E"/>
<path d="M591.093 106.435C593.15 106.846 593.15 106.846 595.25 107.266C595.524 108.364 595.798 109.461 596.081 110.592C596.63 110.592 597.178 110.592 597.744 110.592C598.018 111.69 598.292 112.787 598.575 113.918C599.124 113.918 599.672 113.918 600.238 113.918C601.061 115.29 601.884 116.662 602.732 118.076C603.006 114.234 603.28 110.393 603.563 106.435C604.66 106.435 605.758 106.435 606.888 106.435C606.888 113.295 606.888 120.155 606.888 127.223C605.791 127.223 604.694 127.223 603.563 127.223C601.842 125.128 601.842 125.128 600.134 122.389C599.566 121.492 598.998 120.595 598.413 119.671C597.917 118.87 597.422 118.069 596.912 117.244C596.364 116.421 595.815 115.598 595.25 114.75C594.975 118.866 594.701 122.982 594.418 127.223C593.321 127.223 592.223 127.223 591.093 127.223C591.093 120.363 591.093 113.503 591.093 106.435Z" fill="#063770"/>
<path d="M328.385 106.435C329.482 106.435 330.58 106.435 331.71 106.435C331.985 111.923 332.259 117.411 332.542 123.065C337.121 124.401 337.121 124.401 339.075 122.908C340.732 120.278 340.242 117.235 340.128 114.23C340.063 111.907 340.029 109.592 340.024 107.266C340.855 106.435 340.855 106.435 342.986 106.383C343.989 106.409 343.989 106.409 345.012 106.435C345.08 108.67 345.129 110.903 345.168 113.139C345.189 113.764 345.21 114.39 345.231 115.034C345.289 119.454 344.618 122.48 342.518 126.391C340.373 127.464 338.729 127.393 336.335 127.431C335.127 127.463 335.127 127.463 333.896 127.496C331.71 127.223 331.71 127.223 330.226 126.118C328.439 123.658 328.284 121.469 328.304 118.534C328.306 117.829 328.309 117.125 328.312 116.398C328.319 115.666 328.326 114.933 328.333 114.178C328.337 113.436 328.34 112.694 328.344 111.929C328.354 110.098 328.368 108.266 328.385 106.435Z" fill="#06376E"/>
<path d="M302.613 105.603C303.162 105.603 303.71 105.603 304.276 105.603C310.497 120.451 310.497 120.451 312.589 127.223C311.217 126.948 309.846 126.674 308.432 126.391C308.158 125.568 307.884 124.745 307.601 123.897C304.583 123.622 301.565 123.348 298.456 123.065C298.182 124.437 297.907 125.809 297.625 127.223C296.253 127.223 294.881 127.223 293.468 127.223C294.973 122.454 296.675 117.789 298.508 113.139C298.722 112.588 298.936 112.037 299.156 111.469C300.093 109.119 300.805 107.411 302.613 105.603ZM302.613 113.087C301.378 116.38 301.378 116.38 300.119 119.739C302.039 119.739 303.96 119.739 305.938 119.739C304.883 116.068 304.883 116.068 302.613 113.087Z" fill="#06376E"/>
<path d="M475.534 105.603C478.028 106.435 478.028 106.435 478.998 108.079C479.299 108.785 479.599 109.491 479.909 110.219C480.403 111.374 480.403 111.374 480.907 112.552C481.243 113.363 481.579 114.174 481.925 115.01C482.444 116.211 482.444 116.211 482.973 117.438C485.51 123.452 485.51 123.452 485.51 127.223C484.413 127.223 483.316 127.223 482.185 127.223C481.774 125.165 481.774 125.165 481.354 123.065C479.863 123.115 478.374 123.189 476.885 123.273C476.056 123.311 475.226 123.35 474.372 123.39C472.082 123.665 472.082 123.665 471.085 125.599C470.907 126.134 470.729 126.67 470.546 127.223C469.449 127.223 468.351 127.223 467.221 127.223C467.735 122.793 469.187 119.076 470.91 115.01C471.3 114.063 471.3 114.063 471.697 113.098C472.828 110.389 473.896 108.06 475.534 105.603ZM475.534 113.918C474.32 116.12 473.872 117.157 473.872 119.739C475.518 119.739 477.164 119.739 478.86 119.739C478.585 118.092 478.311 116.446 478.028 114.75C477.205 114.475 476.382 114.201 475.534 113.918Z" fill="#05376E"/>
<path d="M35.7482 56.5435C36.2969 56.8179 36.8456 57.0923 37.4109 57.375C36.8622 58.4726 36.3135 59.5702 35.7482 60.7011C36.6195 60.521 37.4908 60.3409 38.3884 60.1554C39.5348 59.9214 40.6811 59.6875 41.8275 59.4538C42.4014 59.3348 42.9753 59.2158 43.5665 59.0932C45.9949 58.6004 48.2277 58.2065 50.7126 58.2065C48.3094 66.1846 48.3094 66.1846 45.7245 69.0163C45.7245 68.4675 45.7245 67.9187 45.7245 67.3532C38.9048 68.9321 38.9048 68.9321 32.4228 71.5108C30.9158 67.2631 32.4713 63.8455 34.0855 59.8695C34.6267 58.7544 35.1771 57.6435 35.7482 56.5435Z" fill="#75C0DF"/>
<path d="M499.644 106.435C504.856 106.435 510.069 106.435 515.439 106.435C515.439 107.258 515.439 108.081 515.439 108.929C513.519 108.929 511.598 108.929 509.62 108.929C509.62 114.966 509.62 121.003 509.62 127.223C508.522 127.223 507.425 127.223 506.294 127.223C506.294 121.186 506.294 115.149 506.294 108.929C504.1 108.929 501.905 108.929 499.644 108.929C499.644 108.106 499.644 107.283 499.644 106.435Z" fill="#053771"/>
<path d="M360.808 106.435C366.02 106.435 371.233 106.435 376.603 106.435C376.603 107.258 376.603 108.081 376.603 108.929C374.683 108.929 372.762 108.929 370.784 108.929C370.784 114.966 370.784 121.003 370.784 127.223C369.686 127.223 368.589 127.223 367.458 127.223C367.458 121.186 367.458 115.149 367.458 108.929C365.264 108.929 363.069 108.929 360.808 108.929C360.808 108.106 360.808 107.283 360.808 106.435Z" fill="#053771"/>
<path d="M70.665 0C74.2315 0.274402 77.7981 0.548804 81.4726 0.831522C82.6085 3.13104 83.7324 5.43516 84.85 7.74355C85.1742 8.39686 85.4984 9.05017 85.8324 9.72328C86.1351 10.353 86.4379 10.9827 86.7498 11.6316C87.0328 12.2107 87.3158 12.7899 87.6073 13.3866C88.1235 14.9674 88.1235 14.9674 87.2921 17.462C85.3696 17.7218 85.3696 17.7218 83.1353 17.462C80.5944 13.8576 78.8966 9.70314 77.134 5.67124C76.3551 3.93719 76.3551 3.93719 74.8218 1.66304C72.655 0.809209 72.655 0.809209 70.665 0.831522C70.665 0.55712 70.665 0.282717 70.665 0Z" fill="#77BEDD"/>
<path d="M64.8456 0.831519C65.8214 2.85571 66.7902 4.88273 67.7553 6.91202C68.0329 7.48601 68.3104 8.06001 68.5964 8.6514C70.6651 13.0218 70.6651 13.0218 70.6651 15.7989C71.7624 16.0733 72.8598 16.3477 73.9905 16.6304C71.5213 16.9048 69.0522 17.1792 66.5083 17.462C64.0392 12.7971 61.57 8.13228 59.0261 3.32608C57.9287 3.32608 56.8313 3.32608 55.7007 3.32608C55.7007 2.77728 55.7007 2.22848 55.7007 1.66304C58.8115 0.930946 61.6566 0.796177 64.8456 0.831519Z" fill="#2DB8E4"/>
<path d="M85.6294 98.9512C88.2157 100.245 90.6495 101.604 93.1116 103.109C92.2885 103.52 92.2885 103.52 91.4489 103.94C91.4489 108.056 91.4489 112.172 91.4489 116.413C89.5284 115.864 87.608 115.316 85.6294 114.75C85.6294 109.536 85.6294 104.323 85.6294 98.9512Z" fill="#73BDDD"/>
<path d="M532.066 106.435C533.164 106.435 534.261 106.435 535.392 106.435C535.392 113.295 535.392 120.155 535.392 127.223C534.294 127.223 533.197 127.223 532.066 127.223C532.066 120.363 532.066 113.503 532.066 106.435Z" fill="#063771"/>
<path d="M33.2541 64.0273C33.5285 64.5761 33.8028 65.125 34.0855 65.6904C38.475 65.1416 42.8646 64.5928 47.3872 64.0273C47.1128 65.6738 46.8385 67.3202 46.5558 69.0165C46.2815 68.4677 46.0071 67.9189 45.7244 67.3534C38.9048 68.9323 38.9048 68.9323 32.4228 71.511C31.7497 69.0873 31.4098 67.8015 32.3708 65.4305C32.6623 64.9675 32.9538 64.5044 33.2541 64.0273Z" fill="#69B9DA"/>
<path d="M64.8457 1.66309C66.8951 1.96531 67.8882 2.11784 69.1592 3.8103C69.4204 4.36333 69.6816 4.91635 69.9507 5.48614C70.2401 6.08371 70.5294 6.68129 70.8276 7.29697C71.2616 8.23835 71.2616 8.23835 71.7044 9.19875C72.0066 9.82956 72.3088 10.4604 72.6202 11.1103C73.3647 12.6682 74.0947 14.2329 74.8219 15.799C73.4502 15.799 72.0785 15.799 70.6652 15.799C69.6914 13.7566 68.7221 11.7122 67.7554 9.66648C67.4779 9.08552 67.2003 8.50456 66.9143 7.906C64.8457 3.51452 64.8457 3.51452 64.8457 1.66309Z" fill="#48BAE2"/>
<path d="M45.7246 74.8368C45.7246 77.032 45.7246 79.2273 45.7246 81.489C45.1759 80.3914 44.6272 79.2938 44.0619 78.1629C43.4403 78.283 42.8187 78.403 42.1783 78.5267C40.9502 78.7582 40.9502 78.7582 39.6973 78.9944C38.482 79.226 38.482 79.226 37.2422 79.4622C34.917 79.826 34.917 79.826 31.5916 79.826C31.8659 78.7283 32.1402 77.6307 32.4229 76.4999C33.8595 76.218 35.2973 75.942 36.7356 75.6683C37.5361 75.514 38.3366 75.3596 39.1614 75.2006C41.3961 74.8628 43.4697 74.7709 45.7246 74.8368Z" fill="#20B6E4"/>
<path d="M98.0997 105.603C100.02 105.877 101.941 106.152 103.919 106.435C103.645 106.983 103.37 107.532 103.088 108.098C102.813 108.098 102.539 108.098 102.256 108.098C101.982 111.665 101.708 115.232 101.425 118.907C100.053 118.907 98.6816 118.907 97.2683 118.907C97.817 118.633 98.3657 118.359 98.931 118.076C98.6567 113.96 98.3823 109.844 98.0997 105.603Z" fill="#1BADDB"/>
<path d="M46.5559 71.5109C46.2816 72.6086 46.0072 73.7062 45.7246 74.837C41.0607 75.6602 36.3968 76.4834 31.5916 77.3316C31.5916 76.234 31.5916 75.1364 31.5916 74.0055C33.9961 73.3184 35.6547 73.174 38.2424 73.174C40.0059 72.5849 41.6821 71.8703 43.3929 71.1439C44.8932 70.6794 44.8932 70.6794 46.5559 71.5109Z" fill="#3BB8E3"/>
<path d="M35.7482 56.5435C36.2969 56.8179 36.8455 57.0923 37.4109 57.375C36.8622 58.4726 36.3135 59.5702 35.7482 60.7011C36.6194 60.521 37.4907 60.3409 38.3884 60.1554C39.5347 59.9214 40.681 59.6875 41.8274 59.4538C42.4013 59.3348 42.9752 59.2158 43.5665 59.0932C45.9948 58.6004 48.2277 58.2065 50.7125 58.2065C50.4382 59.3041 50.1638 60.4017 49.8812 61.5326C48.9922 61.6082 48.9922 61.6082 48.0853 61.6852C43.6713 62.0715 39.2952 62.5144 34.9168 63.1956C34.3972 61.2727 34.3972 61.2727 34.0854 59.038C34.6341 58.2148 35.1828 57.3916 35.7482 56.5435Z" fill="#74B5D3"/>
<path d="M73.1592 0.831543C75.6532 1.66306 75.6532 1.66306 76.5469 3.05509C76.8125 3.64295 77.0781 4.23081 77.3517 4.83649C77.7897 5.78913 77.7897 5.78913 78.2366 6.76101C78.5329 7.42826 78.8292 8.0955 79.1345 8.78297C79.4405 9.45343 79.7465 10.1239 80.0617 10.8147C80.817 12.4727 81.564 14.134 82.3041 15.7989C81.481 15.7989 80.658 15.7989 79.81 15.7989C78.6952 13.7754 77.5878 11.7483 76.4846 9.71843C76.1674 9.14444 75.8502 8.57044 75.5233 7.97906C73.1592 3.6087 73.1592 3.6087 73.1592 0.831543Z" fill="#66B9DB"/>
<path d="M62.3516 0.831543C63.1746 0.831543 63.9976 0.831543 64.8456 0.831543C65.8214 2.85573 66.7903 4.88275 67.7554 6.91205C68.1717 7.77304 68.1717 7.77304 68.5965 8.65142C70.6651 13.0218 70.6651 13.0218 70.6651 15.7989C71.7625 16.0733 72.8599 16.3477 73.9905 16.6305C71.6004 16.7864 71.6004 16.7864 69.0024 16.6305C67.5581 14.4636 66.8947 13.0265 66.1446 10.6019C65.0664 7.24017 63.791 4.05388 62.3516 0.831543Z" fill="#35B2DD"/>
<path d="M96.437 104.772C96.9857 104.772 97.5344 104.772 98.0997 104.772C98.987 107.651 99.0157 110.294 98.983 113.295C98.9755 114.191 98.968 115.087 98.9603 116.011C98.9507 116.692 98.941 117.374 98.9311 118.076C98.108 118.076 97.285 118.076 96.437 118.076C96.437 113.686 96.437 109.295 96.437 104.772Z" fill="#3DB6DF"/>
<path d="M46.5559 65.6904C46.2815 66.788 46.0072 67.8856 45.7245 69.0165C45.7245 68.4677 45.7245 67.9189 45.7245 67.3535C38.9049 68.9323 38.9049 68.9323 32.4229 71.5111C32.6972 70.4135 32.9715 69.3159 33.2542 68.185C35.1589 67.7672 37.0642 67.3519 38.9698 66.9377C40.0307 66.7062 41.0917 66.4747 42.1848 66.2361C44.8932 65.6904 44.8932 65.6904 46.5559 65.6904Z" fill="#61BDE0"/>
<path d="M62.3516 7.48364C62.9003 7.48364 63.4489 7.48364 64.0143 7.48364C64.0143 8.03245 64.0143 8.58125 64.0143 9.14669C64.563 9.14669 65.1117 9.14669 65.677 9.14669C66.7744 11.6163 67.8718 14.0859 69.0024 16.6304C67.905 16.6304 66.8076 16.6304 65.677 16.6304C65.119 15.4195 64.5656 14.2064 64.0143 12.9925C63.7056 12.3172 63.397 11.6419 63.079 10.9462C62.3516 9.14669 62.3516 9.14669 62.3516 7.48364Z" fill="#1BB0DD"/>
<path d="M159.62 24.9458C162.121 27.0905 163.479 29.3388 164.608 32.4295C163.933 35.6516 163.933 35.6516 162.945 38.2501C162.671 38.2501 162.397 38.2501 162.114 38.2501C161.695 36.5013 161.28 34.7514 160.867 33.0012C160.52 31.5397 160.52 31.5397 160.165 30.0486C159.62 27.4404 159.62 27.4404 159.62 24.9458Z" fill="#014276"/>
<path d="M115.558 75.6685C116.381 75.6685 117.204 75.6685 118.052 75.6685C118.26 77.5914 118.26 77.5914 118.052 79.8261C116.353 81.4692 115.46 82.3206 113.064 82.3206C114.623 77.5394 114.623 77.5394 115.558 75.6685Z" fill="#73AFCB"/>
<path d="M62.3515 1.66295C62.3515 3.58376 62.3515 5.50458 62.3515 7.4836C61.8714 6.7976 61.3913 6.11159 60.8966 5.4048C59.9707 4.37579 59.9707 4.37579 59.0261 3.32599C57.9287 3.32599 56.8313 3.32599 55.7007 3.32599C55.7007 2.77719 55.7007 2.22838 55.7007 1.66295C58.4333 0.998122 59.6166 0.751112 62.3515 1.66295Z" fill="#13B2E3"/>
<path d="M46.5557 71.5109C46.2814 72.3341 46.007 73.1573 45.7244 74.0055C43.2553 74.0055 40.7861 74.0055 38.2422 74.0055C40.4996 71.7476 43.4974 69.9815 46.5557 71.5109Z" fill="#3FB1DB"/>
</g>
<defs>
<clipPath id="clip0_2021_29458">
<rect width="700" height="153" fill="white"/>
</clipPath>
</defs>
</svg>
