<svg width="392" height="216" viewBox="0 0 392 216" fill="none" xmlns="http://www.w3.org/2000/svg">
<g clip-path="url(#clip0_2019_29397)">
<path d="M57.0841 68.124H0V88.0278H15.9288V148.013H41.1552V88.0278H57.0841V68.124Z" fill="#6400FF"/>
<path d="M90.4459 68.124H65.2195V148.013H90.4459V68.124Z" fill="#6400FF"/>
<path d="M132.011 68.124H106.785V148.013H132.011V68.124Z" fill="#6400FF"/>
<path d="M65.2195 216.068V206.561C92.2917 206.561 115.672 196.849 134.814 177.697C153.956 158.546 163.664 135.154 163.664 108.068C163.664 80.9829 153.956 57.5908 134.814 38.4395C115.672 19.2881 92.2233 9.57564 65.2195 9.57564V0.0683594C94.8212 0.0683594 120.526 10.7384 141.514 31.7365C162.502 52.7346 173.166 78.4521 173.166 108.068C173.166 137.685 162.502 163.471 141.514 184.4C120.526 205.33 94.8895 216.068 65.2195 216.068Z" fill="#6400FF"/>
<path d="M193.402 58.0696H184.583V55.3337H205.229V58.0696H196.41V81.6669H193.402V58.0696Z" fill="#6400FF"/>
<path d="M203.588 72.0228V71.9544C203.588 66.3458 207.554 61.8315 212.886 61.8315C218.628 61.8315 221.91 66.4142 221.91 72.0912C221.921 72.4119 221.898 72.7329 221.842 73.0488H206.46C206.87 77.2894 209.878 79.6149 213.296 79.6149C214.457 79.6203 215.605 79.3792 216.666 78.9076C217.727 78.436 218.675 77.7446 219.449 76.879L221.226 78.5206C220.264 79.7029 219.041 80.6458 217.653 81.2748C216.265 81.9039 214.75 82.202 213.228 82.1457C207.964 82.1457 203.588 78.0418 203.588 72.0228ZM219.039 70.86C218.765 67.3034 216.714 64.2255 212.818 64.2255C209.399 64.2255 206.87 67.0298 206.528 70.86H219.039Z" fill="#6400FF"/>
<path d="M225.055 72.0228V71.9544C225.052 70.6243 225.312 69.3068 225.819 68.0774C226.327 66.848 227.072 65.731 228.012 64.7905C228.952 63.8499 230.069 63.1044 231.297 62.5966C232.526 62.0889 233.843 61.8289 235.173 61.8316C236.626 61.8208 238.064 62.1273 239.386 62.7298C240.708 63.3323 241.884 64.2162 242.829 65.3199L240.915 67.3718C239.411 65.7302 237.634 64.4307 235.036 64.4307C231.071 64.4307 228.063 67.7822 228.063 71.9544V72.0228C228.063 76.2635 231.139 79.615 235.241 79.615C237.702 79.615 239.616 78.3838 241.189 76.7423L243.034 78.4522C241.052 80.6409 238.728 82.2141 235.104 82.2141C232.458 82.2105 229.922 81.1572 228.05 79.2852C226.179 77.4133 225.127 74.8754 225.123 72.228C225.055 72.0912 225.055 72.0912 225.055 72.0228Z" fill="#6400FF"/>
<path d="M247 54.2395H249.871V65.6619C250.521 64.4784 251.483 63.4957 252.652 62.8205C253.821 62.1453 255.153 61.8033 256.502 61.8316C261.219 61.8316 263.954 64.9779 263.954 69.629V81.7354H261.083V70.3814C261.083 66.7563 259.1 64.4992 255.682 64.4992C252.264 64.4992 249.871 66.9615 249.871 70.5866V81.7354H247V54.2395Z" fill="#6400FF"/>
<path d="M269.423 62.2419H272.294V65.6617C272.944 64.4783 273.906 63.4956 275.075 62.8203C276.244 62.1451 277.576 61.8031 278.925 61.8315C283.643 61.8315 286.377 64.9778 286.377 69.6288V81.6668H283.506V70.3128C283.506 66.6877 281.523 64.4306 278.105 64.4306C274.687 64.4306 272.294 66.8929 272.294 70.518V81.6668H269.423V62.2419Z" fill="#6400FF"/>
<path d="M290.616 72.0229V71.9545C290.607 69.2607 291.668 66.6736 293.565 64.7624C295.463 62.8511 298.041 61.7723 300.734 61.7632C303.426 61.7542 306.012 62.8156 307.923 64.714C309.833 66.6124 310.911 69.1923 310.92 71.8861V71.9545C310.932 73.2846 310.681 74.6039 310.182 75.8368C309.683 77.0696 308.945 78.1916 308.011 79.1385C307.077 80.0854 305.966 80.8385 304.741 81.3546C303.515 81.8706 302.2 82.1395 300.871 82.1458H300.734C298.098 82.1641 295.563 81.1388 293.68 79.2936C291.797 77.4484 290.72 74.9331 290.684 72.2965C290.63 72.2162 290.606 72.1193 290.616 72.0229ZM307.912 72.0229V71.9545C307.941 70.9782 307.776 70.0059 307.427 69.094C307.077 68.1821 306.55 67.3488 305.876 66.6424C305.201 65.9361 304.394 65.3708 303.499 64.9794C302.605 64.588 301.642 64.3782 300.666 64.3624C296.427 64.3624 293.556 67.7822 293.556 71.8861V71.9545C293.556 76.1268 296.632 79.5466 300.734 79.5466C304.973 79.5466 307.912 76.1268 307.912 72.0229Z" fill="#6400FF"/>
<path d="M315.637 54.2395H318.508V81.667H315.637V54.2395Z" fill="#6400FF"/>
<path d="M323.294 72.0229V71.9545C323.289 70.6207 323.547 69.299 324.054 68.065C324.56 66.8309 325.304 65.7087 326.243 64.7624C327.183 63.816 328.299 63.0641 329.529 62.5495C330.759 62.0349 332.079 61.7677 333.412 61.7632C334.745 61.7588 336.066 62.017 337.299 62.5233C338.533 63.0296 339.654 63.774 340.6 64.714C341.546 65.654 342.298 66.7712 342.812 68.0018C343.326 69.2324 343.593 70.5523 343.598 71.8861V71.9545C343.611 74.6376 342.56 77.2165 340.677 79.1266C338.793 81.0367 336.23 82.1223 333.548 82.1458H333.412C332.105 82.1611 330.808 81.9183 329.595 81.4313C328.382 80.9443 327.278 80.2226 326.344 79.3077C325.41 78.3927 324.666 77.3025 324.155 76.0993C323.643 74.8962 323.374 73.6039 323.362 72.2965C323.308 72.2162 323.284 72.1193 323.294 72.0229ZM340.59 72.0229V71.9545C340.619 70.9782 340.454 70.0059 340.104 69.094C339.755 68.1821 339.228 67.3488 338.553 66.6424C337.879 65.9361 337.071 65.3708 336.177 64.9794C335.283 64.588 334.319 64.3782 333.343 64.3624C329.173 64.3624 326.233 67.7822 326.233 71.8861V71.9545C326.233 76.1268 329.31 79.5466 333.412 79.5466C337.65 79.5466 340.59 76.1268 340.59 72.0229Z" fill="#6400FF"/>
<path d="M347.837 85.0185L349.136 82.7614C351.284 84.3738 353.901 85.2385 356.587 85.2237C360.894 85.2237 363.629 82.8298 363.629 78.3155V76.0584C361.92 78.3155 359.595 80.1622 355.972 80.1622C354.79 80.1885 353.615 79.9808 352.514 79.5509C351.413 79.121 350.408 78.4775 349.557 77.6575C348.705 76.8374 348.024 75.857 347.553 74.7726C347.082 73.6882 346.83 72.5212 346.811 71.3389V70.9969C346.792 69.811 347.007 68.633 347.444 67.5303C347.88 66.4276 348.53 65.4218 349.355 64.5705C350.181 63.7192 351.166 63.0391 352.254 62.5692C353.343 62.0992 354.513 61.8486 355.699 61.8317H355.972C357.46 61.8086 358.93 62.1522 360.253 62.8321C361.577 63.5121 362.712 64.5074 363.56 65.7303V62.242H366.432V78.3155C366.432 81.325 365.543 83.6505 363.971 85.2237C362.262 86.9336 359.664 87.8228 356.587 87.8228C353.447 87.8386 350.383 86.8567 347.837 85.0185ZM363.766 70.9969V70.9285C363.766 66.9615 360.279 64.3624 356.587 64.3624C352.896 64.3624 349.888 66.8931 349.888 70.9285V70.9969C349.896 72.7421 350.588 74.4142 351.815 75.6546C353.042 76.8949 354.707 77.6047 356.451 77.6315H356.656C360.279 77.6315 363.766 74.964 363.766 70.9969Z" fill="#6400FF"/>
<path d="M386.804 62.2419H389.881L381.745 82.2825C380.105 86.3179 378.191 87.7543 375.251 87.7543C373.829 87.7461 372.427 87.4189 371.149 86.7967L372.106 84.4712C373.052 84.9702 374.114 85.2064 375.182 85.1552C376.892 85.1552 377.985 84.266 379.148 81.5301L370.26 62.2419H373.473L380.515 78.4522L386.804 62.2419Z" fill="#6400FF"/>
<path d="M193.471 91.8582H196.479V118.191H193.471V91.8582Z" fill="#6400FF"/>
<path d="M202.905 98.7663H205.776V102.118C206.426 100.934 207.388 99.9516 208.557 99.2764C209.726 98.6011 211.058 98.2592 212.407 98.2875C217.125 98.2875 219.859 101.434 219.859 106.085V118.191H216.988V106.837C216.988 103.212 215.005 100.955 211.587 100.955C208.169 100.955 205.776 103.417 205.776 107.042V118.191H202.905V98.7663Z" fill="#6400FF"/>
<path d="M225.328 98.7663H228.199V102.118C228.85 100.934 229.812 99.9516 230.981 99.2764C232.15 98.6011 233.481 98.2592 234.831 98.2875C239.548 98.2875 242.282 101.434 242.282 106.085V118.191H239.411V106.837C239.411 103.212 237.429 100.955 234.01 100.955C230.592 100.955 228.199 103.417 228.199 107.042V118.191H225.328V98.7663Z" fill="#6400FF"/>
<path d="M246.521 108.547V108.479C246.516 107.145 246.774 105.823 247.281 104.589C247.787 103.355 248.531 102.233 249.47 101.287C250.41 100.34 251.526 99.5882 252.756 99.0737C253.986 98.5591 255.306 98.2919 256.639 98.2874C257.972 98.2829 259.293 98.5412 260.526 99.0475C261.76 99.5538 262.881 100.298 263.827 101.238C264.773 102.178 265.525 103.295 266.039 104.526C266.553 105.757 266.82 107.076 266.825 108.41V108.479C266.837 109.809 266.586 111.128 266.087 112.361C265.587 113.594 264.85 114.716 263.916 115.663C262.982 116.61 261.871 117.363 260.645 117.879C259.42 118.395 258.105 118.664 256.775 118.67H256.639C255.332 118.685 254.035 118.443 252.822 117.955C251.609 117.468 250.505 116.747 249.571 115.832C248.637 114.917 247.893 113.827 247.382 112.624C246.87 111.42 246.601 110.128 246.589 108.821C246.535 108.74 246.511 108.643 246.521 108.547ZM263.817 108.547V108.479C263.846 107.502 263.681 106.53 263.331 105.618C262.982 104.706 262.455 103.873 261.78 103.167C261.106 102.46 260.298 101.895 259.404 101.504C258.51 101.112 257.546 100.902 256.57 100.887C252.332 100.887 249.46 104.306 249.46 108.41V108.479C249.46 112.651 252.537 116.071 256.639 116.071C260.877 116.071 263.817 112.651 263.817 108.547Z" fill="#6400FF"/>
<path d="M268.261 98.7664H271.405L277.968 114.908L284.531 98.7664H287.676L279.199 118.328H276.67L268.261 98.7664Z" fill="#6400FF"/>
<path d="M289.043 112.583V112.514C289.043 108.41 292.462 106.222 297.384 106.222C299.395 106.216 301.397 106.492 303.332 107.042V106.358C303.332 102.87 301.212 101.023 297.521 101.023C295.474 101.02 293.456 101.512 291.641 102.46L290.753 100.066C292.936 98.9737 295.354 98.4335 297.794 98.4927C300.529 98.4927 302.648 99.245 304.084 100.613C305.382 101.913 306.066 103.828 306.066 106.29V118.191H303.263V115.25C302.439 116.327 301.371 117.193 300.146 117.775C298.922 118.358 297.577 118.641 296.222 118.602C292.735 118.602 289.043 116.55 289.043 112.583ZM303.4 111.078V109.163C301.535 108.613 299.601 108.336 297.657 108.342C294.034 108.342 291.983 109.915 291.983 112.377V112.446C291.983 114.908 294.239 116.344 296.837 116.344C300.46 116.344 303.4 114.156 303.4 111.078Z" fill="#6400FF"/>
<path d="M312.356 113.061V101.297H309.621V98.7662H312.356V92.884H315.227V98.7662H321.38V101.297H315.227V112.651C315.227 115.045 316.526 115.866 318.508 115.866C319.486 115.883 320.452 115.647 321.311 115.182V117.644C320.23 118.188 319.035 118.47 317.825 118.465C314.748 118.533 312.356 116.96 312.356 113.061Z" fill="#6400FF"/>
<path d="M325.892 91.311H329.174V94.5257H325.892V91.311ZM326.029 98.7664H328.9V118.191H326.029V98.7664Z" fill="#6400FF"/>
<path d="M333.754 108.547V108.479C333.749 107.145 334.007 105.823 334.513 104.589C335.019 103.355 335.763 102.233 336.703 101.287C337.642 100.34 338.759 99.5882 339.989 99.0737C341.219 98.5591 342.538 98.2919 343.872 98.2874C346.564 98.2783 349.15 99.3398 351.06 101.238C352.006 102.178 352.758 103.295 353.272 104.526C353.786 105.757 354.053 107.076 354.058 108.41V108.479C354.07 109.809 353.819 111.128 353.319 112.361C352.82 113.594 352.083 114.716 351.149 115.663C350.215 116.61 349.104 117.363 347.878 117.879C346.653 118.395 345.338 118.664 344.008 118.67H343.872C341.236 118.688 338.7 117.663 336.818 115.818C334.935 113.973 333.858 111.457 333.822 108.821C333.774 108.738 333.751 108.643 333.754 108.547ZM351.05 108.547V108.479C351.079 107.502 350.914 106.53 350.564 105.618C350.215 104.706 349.687 103.873 349.013 103.167C348.339 102.46 347.531 101.895 346.637 101.504C345.742 101.112 344.779 100.902 343.803 100.887C339.565 100.887 336.693 104.306 336.693 108.41V108.479C336.693 112.651 339.77 116.071 343.872 116.071C348.11 116.071 351.05 112.651 351.05 108.547Z" fill="#6400FF"/>
<path d="M358.433 98.7663H361.304V102.118C361.955 100.934 362.917 99.9516 364.086 99.2764C365.255 98.6011 366.586 98.2592 367.936 98.2875C372.653 98.2875 375.387 101.434 375.387 106.085V118.191H372.584V106.837C372.584 103.212 370.67 100.955 367.184 100.955C363.697 100.955 361.373 103.417 361.373 107.042V118.191H358.501L358.433 98.7663Z" fill="#6400FF"/>
<path d="M193.471 128.793H196.479V155.126H193.471V128.793Z" fill="#6400FF"/>
<path d="M202.905 135.701H205.776V139.053C206.426 137.869 207.388 136.886 208.557 136.211C209.726 135.536 211.058 135.194 212.407 135.222C217.125 135.222 219.859 138.369 219.859 143.02V155.126H216.988V143.772C216.988 140.147 215.005 137.89 211.587 137.89C208.169 137.89 205.776 140.352 205.776 143.977V155.126H202.905V135.701Z" fill="#6400FF"/>
<path d="M223.688 152.664L225.123 150.612C227.039 152.122 229.385 152.984 231.823 153.074C234.147 153.074 235.856 151.843 235.856 149.996V149.928C235.856 147.944 233.532 147.192 231.002 146.508C227.926 145.619 224.576 144.593 224.576 141.036V140.899C224.576 137.548 227.379 135.359 231.208 135.359C233.679 135.433 236.086 136.165 238.181 137.479L236.882 139.668C235.173 138.528 233.19 137.867 231.139 137.753C228.815 137.753 227.379 138.984 227.379 140.557V140.626C227.379 142.473 229.772 143.156 232.37 143.977C235.378 144.866 238.591 146.029 238.591 149.517V149.586C238.591 153.279 235.514 155.4 231.686 155.4C228.786 155.425 225.965 154.46 223.688 152.664Z" fill="#6400FF"/>
<path d="M243.923 149.996V138.232H241.188V135.701H243.923V129.819H246.794V135.701H252.947V138.232H246.794V149.586C246.794 151.98 248.093 152.8 250.076 152.8C251.053 152.818 252.019 152.582 252.879 152.116V154.579C251.797 155.123 250.603 155.404 249.392 155.4C246.316 155.468 243.923 153.895 243.923 149.996Z" fill="#6400FF"/>
<path d="M257.459 128.246H260.741V131.46H257.459V128.246ZM257.596 135.701H260.467V155.126H257.596V135.701Z" fill="#6400FF"/>
<path d="M267.509 149.996V138.232H264.774V135.701H267.509V129.819H270.38V135.701H276.533V138.232H270.38V149.586C270.38 151.98 271.679 152.8 273.662 152.8C274.638 152.81 275.602 152.575 276.465 152.116V154.579C275.383 155.123 274.189 155.404 272.978 155.4C269.902 155.468 267.509 153.895 267.509 149.996Z" fill="#6400FF"/>
<path d="M280.635 147.739V135.701H283.506V147.055C283.506 150.68 285.489 152.937 288.907 152.937C292.188 152.937 294.718 150.475 294.718 146.85V135.701H297.589V155.126H294.718V151.706C294.061 152.884 293.097 153.861 291.93 154.536C290.762 155.21 289.434 155.556 288.086 155.537C283.369 155.537 280.635 152.39 280.635 147.739Z" fill="#6400FF"/>
<path d="M304.357 149.996V138.232H301.623V135.701H304.357V129.819H307.228V135.701H313.381V138.232H307.228V149.586C307.228 151.98 308.527 152.8 310.51 152.8C311.487 152.81 312.45 152.575 313.313 152.116V154.579C312.231 155.123 311.037 155.404 309.826 155.4C306.75 155.468 304.357 153.895 304.357 149.996Z" fill="#6400FF"/>
<path d="M316.047 145.482V145.414C316.047 139.805 320.012 135.291 325.345 135.291C331.087 135.291 334.437 139.873 334.437 145.55C334.449 145.871 334.426 146.192 334.369 146.508H318.987C319.397 150.749 322.405 153.074 325.823 153.074C326.984 153.08 328.133 152.838 329.193 152.367C330.254 151.895 331.202 151.204 331.976 150.338L333.754 151.98C332.792 153.162 331.569 154.105 330.181 154.734C328.793 155.363 327.278 155.661 325.755 155.605C320.354 155.605 316.047 151.501 316.047 145.482ZM331.498 144.319C331.224 140.763 329.173 137.685 325.277 137.685C321.858 137.685 319.329 140.489 318.987 144.319H331.498Z" fill="#6400FF"/>
</g>
<defs>
<clipPath id="clip0_2019_29397">
<rect width="392" height="216" fill="white"/>
</clipPath>
</defs>
</svg>
