<svg width="664" height="155" viewBox="0 0 664 155" fill="none" xmlns="http://www.w3.org/2000/svg">
<path d="M0 1.59755C22.6414 1.59755 45.2829 1.59755 68.6104 1.59755C72.172 7.9572 75.7336 14.3168 79.4031 20.8692C80.4206 22.6499 81.4382 24.4306 82.4867 26.2653C83.0167 27.2128 83.5467 28.1603 84.0767 29.1078C85.2549 31.1222 86.4668 32.9034 87.883 34.7448C88.1655 34.2337 88.4481 33.7225 88.7392 33.1959C90.0728 30.7876 91.411 28.3819 92.7493 25.9762C93.193 25.1733 93.6367 24.3704 94.0939 23.5432C95.0271 21.8685 95.9804 20.2047 96.9526 18.5524C98.1991 16.3963 99.2626 14.2115 100.285 11.9415C104.705 2.75627 104.705 2.75627 108.791 0.823985C113.466 -0.349125 118.221 0.00323301 122.992 0.242509C124.518 0.26843 126.044 0.288162 127.571 0.302004C131.565 0.354688 135.552 0.490647 139.543 0.644786C143.625 0.787423 147.708 0.850244 151.791 0.920028C159.786 1.0683 167.775 1.30469 175.766 1.59755C174.699 4.3192 173.523 6.84218 172.092 9.39354C171.666 10.155 171.24 10.9165 170.801 11.7011C170.34 12.5166 169.88 13.3321 169.406 14.1723C168.925 15.0281 168.444 15.8838 167.948 16.7655C164.291 23.2491 160.56 29.6875 156.795 36.1087C153.065 42.4748 149.396 48.8747 145.742 55.2848C141.929 61.9741 138.091 68.6477 134.234 75.3117C131.053 80.81 127.901 86.3203 124.838 91.8853C121.511 97.9278 118.042 103.882 114.555 109.833C110.991 115.922 107.472 122.036 103.976 128.164C103.589 128.841 103.589 128.841 103.195 129.532C101.923 131.763 100.651 133.994 99.3795 136.225C97.0924 140.237 94.8004 144.246 92.5084 148.255C91.7535 149.576 90.9987 150.897 90.2439 152.218C89.7139 153.145 89.1839 154.073 88.6539 155C88.1451 155 87.6363 155 87.1121 155C85.9437 153.275 85.9437 153.275 84.6067 150.905C84.1237 150.054 83.6407 149.204 83.1431 148.327C81.9152 146.11 80.7024 143.885 79.4994 141.654C77.3852 137.737 75.1155 133.927 72.7905 130.133C71.0912 127.341 69.4901 124.511 67.9359 121.636C65.5726 117.272 63.0628 113.007 60.5159 108.748C57.5976 103.868 54.7613 98.9626 52.0571 93.9608C46.6775 84.038 41.1343 74.195 35.3755 64.4873C30.9567 57.0343 26.6559 49.5125 22.3321 42.0041C20.3404 38.5474 18.3449 35.093 16.3493 31.6386C14.4433 28.3375 12.5403 25.0346 10.6376 21.7315C9.25084 19.3275 7.85975 16.926 6.46836 14.5246C5.61298 13.0422 4.75775 11.5597 3.9027 10.0771C3.50601 9.39509 3.10932 8.71311 2.70061 8.01046C2.34305 7.38871 1.98549 6.76697 1.61709 6.12639C1.14615 5.31255 1.14615 5.31255 0.665695 4.48228C0 3.13928 0 3.13928 0 1.59755Z" fill="#F5F5F5"/>
<path d="M11.5636 8.53561C29.1171 8.53561 46.6705 8.53561 64.7559 8.53561C68.5719 15.404 72.3879 22.2725 76.3195 29.349C78.3449 32.8771 80.3713 36.3976 82.4385 39.9002C82.9011 40.6887 83.3637 41.4772 83.8403 42.2896C84.9288 44.1443 86.0193 45.9977 87.1121 47.8498C89.3261 45.8879 90.6036 43.6702 92.0507 41.1047C92.2986 40.668 92.5464 40.2313 92.8018 39.7814C93.6068 38.3614 94.4066 36.9387 95.2066 35.5159C95.7593 34.5397 96.3125 33.5638 96.8661 32.5881C97.9745 30.6342 99.0816 28.6796 100.188 26.7244C102.346 22.9142 104.53 19.1192 106.722 15.3289C107.072 14.7212 107.422 14.1136 107.782 13.4875C110.147 9.39833 110.147 9.39833 111.01 8.53561C112.666 8.46295 114.323 8.44509 115.981 8.4481C116.499 8.44798 117.018 8.44787 117.553 8.44775C119.276 8.44829 120.999 8.4543 122.721 8.46033C123.913 8.46177 125.104 8.46286 126.296 8.46363C129.437 8.46658 132.579 8.47416 135.721 8.48268C138.925 8.49055 142.128 8.49408 145.332 8.49797C151.622 8.50624 157.912 8.51941 164.202 8.53561C149.897 34.7883 149.897 34.7883 143.28 45.9063C139.72 51.8906 136.262 57.9342 132.799 63.975C130.243 68.4206 127.64 72.8164 124.886 77.1427C124.423 76.9105 123.959 76.6783 123.481 76.4391C122.197 75.7977 120.91 75.1608 119.623 74.526C117.976 73.6926 116.346 72.8264 114.732 71.9303C94.1953 60.7168 69.8636 55.7977 47.0553 51.7644C46.2679 51.6164 45.4804 51.4685 44.6692 51.3161C42.4293 50.904 42.4293 50.904 40.2598 50.7643C37.2604 50.4493 35.3868 50.1349 33.2795 47.8844C31.8965 45.7791 30.7312 43.6361 29.5835 41.3938C28.6724 39.7244 27.761 38.0552 26.8492 36.3862C26.1404 35.0568 26.1404 35.0568 25.4173 33.7006C23.8243 30.7298 22.1519 27.8077 20.4651 24.8894C20.1801 24.3958 19.895 23.9022 19.6013 23.3936C19.0331 22.4104 18.4648 21.4274 17.8963 20.4445C16.5519 18.1175 15.2152 15.7865 13.8823 13.4529C13.4343 12.6704 12.9862 11.8879 12.5246 11.0818C11.5636 9.30647 11.5636 9.30647 11.5636 8.53561Z" fill="#045D30"/>
<path d="M427.08 60.1833C427.844 60.6921 428.607 61.2009 429.393 61.7251C429.738 61.4558 430.083 61.1865 430.438 60.909C431.137 60.3829 431.137 60.3829 431.85 59.8461C432.307 59.4973 432.763 59.1485 433.233 58.7891C438.071 55.9347 444.779 56.6858 450.208 57.0999C452.773 57.7982 454.879 58.8108 457.146 60.1833C457.957 60.6126 458.767 61.0419 459.603 61.4842C464.709 65.6826 466.987 70.6594 467.938 77.1424C468.14 80.9099 468.119 84.672 468.089 88.4434C468.086 89.5223 468.084 90.6012 468.082 91.6801C468.076 94.4973 468.061 97.3143 468.044 100.131C468.028 103.015 468.021 105.899 468.014 108.783C467.998 114.424 467.968 120.065 467.938 125.707C460.561 125.707 453.183 125.707 445.582 125.707C445.571 122.562 445.56 119.417 445.549 116.177C445.53 113.669 445.506 111.162 445.48 108.655C445.454 106.009 445.435 103.362 445.431 100.715C445.427 97.6781 445.393 94.6419 445.356 91.6052C445.359 90.656 445.362 89.7068 445.365 88.7288C445.35 87.8493 445.335 86.9698 445.32 86.0636C445.312 84.9005 445.312 84.9005 445.304 83.7138C444.982 81.6023 444.982 81.6023 443 80.3639C440.528 79.2643 439.009 79.0562 436.331 79.455C434.287 81.0503 433.359 81.977 432.848 84.5481C432.837 85.6881 432.837 85.6881 432.827 86.8512C432.812 87.7153 432.796 88.5793 432.781 89.4695C432.78 90.3979 432.779 91.3262 432.778 92.2827C432.765 93.2365 432.752 94.1903 432.739 95.173C432.708 97.7026 432.69 100.232 432.679 102.761C432.663 105.345 432.631 107.929 432.6 110.512C432.541 115.577 432.509 120.641 432.477 125.707C425.099 125.707 417.722 125.707 410.121 125.707C410.074 122.553 410.027 119.399 409.979 116.149C409.94 113.638 409.9 111.127 409.859 108.616C409.817 105.963 409.775 103.31 409.737 100.657C409.693 97.6144 409.644 94.5722 409.594 91.5299C409.581 90.5767 409.568 89.6236 409.555 88.6415C409.531 87.3221 409.531 87.3221 409.508 85.9761C409.49 84.8104 409.49 84.8104 409.472 83.6211C409.469 81.7578 409.469 81.7578 408.579 80.2258C407.05 79.7761 407.05 79.7761 405.254 79.5995C404.352 79.4728 404.352 79.4728 403.432 79.3436C401.073 79.4903 400.243 80.1261 398.557 81.7676C398.081 83.7663 398.081 83.7663 398.136 86.0636C398.121 86.9431 398.106 87.8227 398.09 88.7288C398.089 90.1526 398.089 90.1526 398.087 91.6052C398.074 92.5772 398.062 93.5492 398.049 94.5506C398.017 97.1323 398 99.7133 397.988 102.295C397.973 104.93 397.941 107.566 397.91 110.201C397.85 115.37 397.819 120.538 397.786 125.707C389.645 125.707 381.505 125.707 373.117 125.707C373.117 103.575 373.117 81.4438 373.117 58.6416C380.749 58.6416 388.381 58.6416 396.244 58.6416C396.499 59.9135 396.753 61.1854 397.015 62.4959C397.603 62.0189 398.192 61.542 398.798 61.0505C406.081 55.2919 419.326 54.9102 427.08 60.1833Z" fill="#010101"/>
<path d="M188.871 33.9736C198.538 33.9736 208.206 33.9736 218.166 33.9736C219.538 39.9202 220.897 45.8474 222.114 51.824C222.257 52.5243 222.4 53.2246 222.548 53.9461C222.849 55.4149 223.148 56.8839 223.448 58.353C223.894 60.5433 224.343 62.733 224.792 64.9227C226.778 74.6335 228.669 84.36 230.5 94.1012C232.415 84.3892 234.29 74.6809 235.848 64.9047C237.516 54.5025 239.8 44.2621 242.064 33.9736C251.476 33.9736 260.889 33.9736 270.587 33.9736C270.062 37.6479 269.486 40.958 268.577 44.5172C268.454 45.0028 268.331 45.4884 268.204 45.9888C267.797 47.5882 267.387 49.1867 266.977 50.7852C266.687 51.9218 266.398 53.0585 266.109 54.1952C265.338 57.2226 264.564 60.2491 263.79 63.2754C262.517 68.2522 261.251 73.2305 259.983 78.2085C259.512 80.0568 259.041 81.905 258.57 83.7532C256.804 90.6817 255.054 97.6136 253.332 104.553C253.148 105.294 252.964 106.034 252.775 106.798C251.958 110.091 251.145 113.385 250.336 116.681C250.059 117.8 249.782 118.92 249.505 120.04C249.274 120.979 249.043 121.919 248.806 122.886C248.231 124.936 248.231 124.936 247.46 125.707C246.348 125.778 245.232 125.797 244.117 125.794C243.407 125.794 242.697 125.794 241.966 125.794C241.194 125.79 240.423 125.786 239.628 125.782C238.448 125.78 238.448 125.78 237.246 125.779C234.724 125.774 232.203 125.765 229.681 125.755C227.976 125.751 226.271 125.748 224.566 125.744C220.377 125.736 216.188 125.723 211.998 125.707C205.133 99.235 198.357 72.7395 191.714 46.2111C191.565 45.6182 191.417 45.0252 191.263 44.4143C190.853 42.7792 190.445 41.1438 190.037 39.5082C189.81 38.5999 189.583 37.6915 189.349 36.7556C188.871 34.7445 188.871 34.7445 188.871 33.9736Z" fill="#010101"/>
<path d="M596.312 62.5052C600.906 66.1934 604.046 71.1683 606.701 76.3717C606.701 76.8805 606.701 77.3893 606.701 77.9135C605.282 79.1181 603.86 80.2306 602.365 81.3342C601.438 82.0322 600.511 82.7308 599.585 83.43C599.104 83.7917 598.622 84.1534 598.127 84.5261C595.838 86.2591 593.584 88.0352 591.331 89.8137C588.506 92.0424 585.678 94.2661 582.833 96.4685C582.336 96.8546 581.839 97.2407 581.327 97.6385C580.37 98.382 579.411 99.1232 578.45 99.8619C576.025 101.676 576.025 101.676 574.323 104.123C584.491 104.499 591.379 104.005 600.359 99.0009C600.973 98.6592 601.586 98.3176 602.218 97.9656C602.68 97.7081 603.142 97.4505 603.617 97.1851C605.19 115.816 605.19 115.816 602.77 120.36C600.242 123.001 597.031 123.973 593.596 124.936C592.586 125.352 592.586 125.352 591.557 125.776C582.712 129.022 569.855 128.463 561.218 124.936C550.555 119.427 544.859 111.968 541.036 100.663C538.629 90.3614 540.684 79.7151 545.956 70.6715C549.695 65.2505 554.546 60.8152 560.447 57.8709C561.173 57.5028 561.173 57.5028 561.913 57.1272C573.336 52.3698 586.515 55.9134 596.312 62.5052Z" fill="#020202"/>
<path d="M524.696 60.2318C530.412 64.0967 535.477 69.1273 538.091 75.6009C537.883 77.5504 537.555 78.4429 536.179 79.8539C535.69 80.2212 535.201 80.5884 534.697 80.9669C534.144 81.3888 533.591 81.8108 533.022 82.2455C532.421 82.692 531.82 83.1386 531.201 83.5987C529.938 84.558 528.675 85.5176 527.412 86.4774C526.759 86.9697 526.106 87.4621 525.433 87.9694C522.224 90.4 519.053 92.8784 515.879 95.3544C515.304 95.8009 514.729 96.2475 514.137 96.7075C511.312 98.9021 508.499 101.108 505.713 103.352C510.805 105.898 519.521 104.432 524.696 102.774C527.969 101.529 530.656 100.026 533.465 97.956C533.974 97.956 534.483 97.956 535.007 97.956C535.209 101.328 535.332 104.698 535.441 108.074C535.499 109.028 535.557 109.982 535.617 110.964C535.784 117.882 535.784 117.882 533.572 120.407C531.785 121.623 530.052 122.54 528.069 123.395C527.342 123.757 526.616 124.12 525.868 124.494C525.274 124.719 524.681 124.945 524.07 125.177C523.471 125.413 522.871 125.648 522.254 125.891C512.693 128.855 500.058 128.533 491.065 124.166C485.448 120.729 480.463 116.839 477.189 111.061C476.76 110.32 476.331 109.58 475.888 108.817C471.225 99.5886 471.057 89.264 473.817 79.3589C477.434 69.5151 483.147 62.9179 492.348 57.877C502.747 53.3908 515.044 54.5715 524.696 60.2318Z" fill="#020202"/>
<path d="M311.093 58.8372C318.574 62.991 323.862 68.6851 327.634 76.3714C327.634 76.8802 327.634 77.389 327.634 77.9132C326.215 79.1178 324.793 80.2304 323.298 81.3339C322.369 82.0328 321.44 82.7325 320.512 83.4327C320.031 83.7945 319.549 84.1563 319.053 84.5291C316.796 86.2412 314.58 88.0046 312.36 89.7652C307.75 93.4131 303.058 96.9431 298.322 100.426C297.03 101.384 295.755 102.365 294.485 103.352C294.485 103.606 294.485 103.861 294.485 104.123C304.453 104.664 311.84 104.353 320.696 99.4974C321.722 98.9804 322.75 98.4659 323.779 97.9557C324.004 101.311 324.141 104.665 324.261 108.025C324.326 108.973 324.39 109.92 324.457 110.896C324.643 117.796 324.643 117.796 322.159 120.594C318.175 123.444 313.888 125.331 309.132 126.478C308.58 126.617 308.027 126.756 307.458 126.899C296.874 128.595 286.354 127.85 277.083 122.181C275.302 120.884 273.721 119.519 272.129 117.998C271.309 117.225 271.309 117.225 270.473 116.435C263.063 108.82 261.008 99.7167 261.128 89.3647C261.816 79.5307 265.192 70.9445 272.231 63.9442C283.22 54.7874 298.205 52.483 311.093 58.8372Z" fill="#020202"/>
<path d="M37.0034 52.4746C52.6491 57.2605 67.4046 65.7807 80.9449 74.8297C81.4763 75.1846 82.0077 75.5395 82.5552 75.9051C87.9371 79.5396 92.9647 83.4312 97.7211 87.8682C99.3345 89.3717 100.991 90.7993 102.675 92.2224C105.765 94.9034 108.385 97.9115 111.01 101.039C103.814 114.288 96.5505 127.506 88.654 140.353C85.3102 139.239 84.5731 136.716 83.0167 133.753C82.325 132.472 81.6313 131.192 80.9359 129.914C80.3778 128.886 80.3778 128.886 79.8085 127.838C77.7812 124.165 75.6505 120.554 73.525 116.938C69.5474 110.153 65.616 103.343 61.7205 96.5104C57.6217 89.3243 53.5158 82.1426 49.3861 74.9743C48.9086 74.1452 48.4311 73.316 47.9391 72.4618C44.9859 67.3481 41.9951 62.2598 38.8812 57.2419C37.0034 54.1794 37.0034 54.1794 37.0034 52.4746Z" fill="#010101"/>
<path d="M610.556 58.6416C618.188 58.6416 625.82 58.6416 633.683 58.6416C633.937 60.6767 634.192 62.7118 634.454 64.8085C635.288 63.7115 635.288 63.7115 636.14 62.5923C637.994 60.4024 639.292 59.2941 642.163 58.6416C644.452 58.6416 646.742 58.6416 649.101 58.6416C649.101 66.0188 649.101 73.396 649.101 80.9967C646.557 81.2511 644.013 81.5055 641.392 81.7676C637.513 83.6716 636.002 85.4867 634.454 89.4763C634.101 92.2677 634.077 95.0422 634.059 97.8534C634.045 98.6511 634.032 99.4487 634.017 100.27C633.976 102.807 633.949 105.344 633.924 107.881C633.898 109.605 633.872 111.33 633.844 113.054C633.777 117.272 633.73 121.489 633.683 125.707C626.051 125.707 618.419 125.707 610.556 125.707C610.556 103.575 610.556 81.4438 610.556 58.6416Z" fill="#020202"/>
<path d="M331.489 58.6416C339.12 58.6416 346.752 58.6416 354.616 58.6416C354.87 60.6767 355.124 62.7118 355.387 64.8085C356.03 63.7115 356.03 63.7115 356.687 62.5923C358.57 60.0479 359.313 59.3587 362.325 58.6416C363.851 58.6416 365.377 58.6416 366.95 58.6416C366.95 66.0188 366.95 73.396 366.95 80.9967C364.661 81.5055 362.371 82.0143 360.012 82.5385C358.324 83.6839 358.324 83.6839 357.314 85.1883C356.956 85.6484 356.598 86.1085 356.23 86.5825C354.744 88.9644 354.51 91.0295 354.457 93.7648C354.442 94.4745 354.427 95.1843 354.411 95.9156C354.391 97.0611 354.391 97.0611 354.372 98.2298C354.356 99.0136 354.34 99.7974 354.323 100.605C354.273 103.11 354.227 105.616 354.182 108.122C354.149 109.819 354.115 111.517 354.081 113.215C353.998 117.379 353.922 121.543 353.845 125.707C346.467 125.707 339.09 125.707 331.489 125.707C331.489 103.575 331.489 81.4438 331.489 58.6416Z" fill="black"/>
<path d="M0 1.59755C22.6414 1.59755 45.2829 1.59755 68.6104 1.59755C72.172 7.9572 75.7336 14.3168 79.4031 20.8692C80.4206 22.6499 81.4382 24.4306 82.4867 26.2653C83.0167 27.2128 83.5467 28.1603 84.0767 29.1078C85.2549 31.1222 86.4668 32.9034 87.883 34.7448C88.1655 34.2337 88.4481 33.7225 88.7392 33.1959C90.0728 30.7876 91.411 28.3819 92.7493 25.9762C93.193 25.1733 93.6367 24.3704 94.0939 23.5432C95.0271 21.8685 95.9804 20.2047 96.9526 18.5524C98.1991 16.3963 99.2626 14.2115 100.285 11.9415C104.705 2.75627 104.705 2.75627 108.791 0.823985C113.466 -0.349125 118.221 0.00323301 122.992 0.242509C124.518 0.26843 126.044 0.288162 127.571 0.302004C131.565 0.354688 135.552 0.490647 139.543 0.644786C143.625 0.787423 147.708 0.850244 151.791 0.920028C159.786 1.0683 167.775 1.30469 175.766 1.59755C174.699 4.3192 173.523 6.84218 172.092 9.39354C171.666 10.155 171.24 10.9165 170.801 11.7011C170.34 12.5166 169.88 13.3321 169.406 14.1723C168.925 15.0281 168.444 15.8838 167.948 16.7655C164.291 23.2491 160.56 29.6875 156.795 36.1087C153.065 42.4748 149.396 48.8747 145.742 55.2848C141.929 61.9741 138.091 68.6477 134.234 75.3117C131.053 80.81 127.901 86.3203 124.838 91.8853C121.511 97.9278 118.042 103.882 114.555 109.833C110.991 115.922 107.472 122.036 103.976 128.164C103.589 128.841 103.589 128.841 103.195 129.532C101.923 131.763 100.651 133.994 99.3795 136.225C97.0924 140.237 94.8004 144.246 92.5084 148.255C91.7535 149.576 90.9987 150.897 90.2439 152.218C89.7139 153.145 89.1839 154.073 88.6539 155C88.1451 155 87.6363 155 87.1121 155C85.9437 153.275 85.9437 153.275 84.6067 150.905C84.1237 150.054 83.6407 149.204 83.1431 148.327C81.9152 146.11 80.7024 143.885 79.4994 141.654C77.3852 137.737 75.1155 133.927 72.7905 130.133C71.0912 127.341 69.4901 124.511 67.9359 121.636C65.5726 117.272 63.0628 113.007 60.5159 108.748C57.5976 103.868 54.7613 98.9626 52.0571 93.9608C46.6775 84.038 41.1343 74.195 35.3755 64.4873C30.9567 57.0343 26.6559 49.5125 22.3321 42.0041C20.3404 38.5474 18.3449 35.093 16.3493 31.6386C14.4433 28.3375 12.5403 25.0346 10.6376 21.7315C9.25084 19.3275 7.85975 16.926 6.46836 14.5246C5.61298 13.0422 4.75775 11.5597 3.9027 10.0771C3.50601 9.39509 3.10932 8.71311 2.70061 8.01046C2.34305 7.38871 1.98549 6.76697 1.61709 6.12639C1.14615 5.31255 1.14615 5.31255 0.665695 4.48228C0 3.13928 0 3.13928 0 1.59755ZM5.39632 4.68101C5.98611 8.09914 7.21835 10.5478 9.05812 13.4496C12.7048 19.3539 16.1182 25.3776 19.5082 31.4321C21.439 34.8719 23.3901 38.2916 25.4308 41.6676C28.4129 46.6011 31.2124 51.6354 34.0312 56.6633C36.0072 60.1766 38.0017 63.6715 40.087 67.1212C43.0661 72.0497 45.8625 77.0791 48.6783 82.1019C51.0575 86.332 53.4931 90.5179 56.0034 94.6714C57.4313 97.0562 58.7819 99.4759 60.1305 101.907C63.0833 107.198 66.1254 112.433 69.1886 117.661C73.3871 124.829 77.5115 132.034 81.581 139.276C81.9703 139.968 82.3596 140.661 82.7607 141.374C83.0998 141.979 83.4388 142.584 83.7881 143.207C84.8685 145.1 85.9846 146.968 87.1121 148.833C90.1582 147.818 90.4029 146.686 91.9092 143.895C92.3837 143.026 92.8582 142.157 93.3471 141.261C93.7194 140.568 93.7194 140.568 94.0993 139.86C95.3946 137.448 96.7135 135.049 98.0282 132.648C98.4166 131.936 98.4166 131.936 98.8128 131.21C100.758 127.649 102.765 124.133 104.843 120.648C112.456 107.842 119.82 94.8876 127.205 81.9485C132.35 72.9343 137.533 63.9419 142.726 54.9552C144.167 52.4607 145.607 49.9655 147.047 47.4701C147.525 46.6415 148.003 45.8129 148.495 44.9592C149.454 43.2979 150.412 41.6364 151.369 39.9749C153.604 36.0997 155.841 32.2261 158.088 28.3586C158.879 26.9978 159.668 25.6364 160.458 24.2749C161.445 22.5735 162.433 20.8731 163.424 19.1739C163.874 18.3978 164.323 17.6218 164.787 16.8222C165.177 16.1504 165.568 15.4787 165.97 14.7866C167.793 11.4669 169.465 8.07643 171.141 4.68101C163.079 4.52014 155.018 4.39693 146.955 4.32155C143.211 4.28537 139.468 4.23631 135.725 4.15763C132.111 4.08215 128.498 4.04075 124.883 4.02278C123.506 4.00997 122.128 3.98497 120.751 3.94748C113.374 3.45853 113.374 3.45853 106.863 6.15928C105.646 7.95031 104.848 9.60367 104.072 11.6188C103.473 12.693 102.862 13.7605 102.232 14.8167C101.638 15.9013 101.047 16.9874 100.458 18.0748C96.3879 25.5013 92.1512 32.8267 87.883 40.1409C83.9987 34.5995 80.7176 28.7777 77.4758 22.8446C76.49 21.0458 75.5017 19.2485 74.5126 17.4515C74.0819 16.6641 73.6511 15.8766 73.2072 15.0653C72.7079 14.1824 72.2085 13.2994 71.694 12.3897C71.3399 11.3972 71.3399 11.3972 70.9787 10.3847C69.9327 7.92822 69.0741 6.46232 67.0686 4.68101C62.4263 3.56996 57.8716 3.78286 53.1261 3.92821C51.75 3.9426 50.3739 3.95357 48.9978 3.96127C45.3848 3.99063 41.7742 4.06628 38.1621 4.1517C34.4727 4.23072 30.783 4.2658 27.093 4.30461C19.8597 4.38716 12.6282 4.51863 5.39632 4.68101Z" fill="#0D0D0D"/>
<path d="M509.567 75.6007C511.88 76.757 511.88 76.757 513.422 77.9133C512.391 80.2717 511.34 81.6628 509.335 83.2672C508.836 83.6677 508.337 84.0681 507.822 84.4807C507.301 84.8891 506.78 85.2975 506.243 85.7183C505.73 86.1327 505.218 86.5471 504.69 86.974C502.057 89.0629 499.716 90.7694 496.462 91.7889C495.282 90.6091 495.475 89.5283 495.402 87.8864C495.448 83.7376 496.891 81.0375 499.545 77.9133C502.581 75.2878 505.699 74.9923 509.567 75.6007Z" fill="#F1F1F1"/>
<path d="M579.671 76.6126C580.458 77.2565 580.458 77.2565 581.261 77.9134C581.261 80.226 581.261 80.226 580.19 81.3718C579.698 81.7648 579.206 82.1578 578.699 82.5627C578.16 82.997 577.62 83.4312 577.065 83.8786C576.209 84.5508 576.209 84.5508 575.335 85.2367C574.779 85.6848 574.223 86.133 573.65 86.5947C570.893 88.7956 568.17 90.8491 565.072 92.5599C563.895 89.0282 563.549 85.8339 565.027 82.3881C568.445 76.582 572.928 73.5998 579.671 76.6126Z" fill="#F4F4F4"/>
<path d="M297.569 75.6007C300.219 76.757 300.219 76.757 302.194 77.9133C302.194 80.2259 302.194 80.2259 300.969 81.4669C300.408 81.902 299.846 82.3371 299.267 82.7854C298.655 83.2614 298.043 83.7374 297.412 84.2278C296.764 84.7196 296.116 85.2115 295.449 85.7183C294.813 86.2161 294.177 86.714 293.521 87.2269C288.305 91.2401 288.305 91.2401 285.234 91.7889C284.754 84.2881 284.754 84.2881 286.535 80.6595C290.09 76.7209 292.057 74.9239 297.569 75.6007Z" fill="#F5F5F5"/>
<path d="M660.664 47.8496C662.543 49.054 662.543 49.054 663.748 50.933C664.182 53.9704 664.213 55.6028 662.543 58.2081C659.919 59.8905 658.325 59.9039 655.268 59.4126C652.985 57.4224 652.286 56.1836 651.799 53.1975C652.184 50.933 652.184 50.933 653.389 49.1022C655.989 47.369 657.6 47.4118 660.664 47.8496Z" fill="#6C6D6C"/>
<path d="M656.039 50.1621C657.565 50.1621 659.092 50.1621 660.664 50.1621C660.664 52.4516 660.664 54.7411 660.664 57.0999C659.392 56.0824 658.12 55.0648 656.81 54.0164C656.555 55.034 656.301 56.0515 656.039 57.0999C656.039 54.8104 656.039 52.521 656.039 50.1621Z" fill="#525352"/>
<path d="M659.123 49.3911C659.886 49.3911 660.649 49.3911 661.435 49.3911C662.977 51.7037 662.977 51.7037 662.784 54.1127C662.594 54.844 662.403 55.5754 662.206 56.3289C661.443 56.7105 661.443 56.7105 660.664 57.0998C660.013 54.4957 659.81 52.7254 660.664 50.162C660.156 49.9076 659.647 49.6532 659.123 49.3911Z" fill="#F0F1F0"/>
<path d="M656.81 54.0166C659.122 54.7875 659.122 54.7875 660.038 56.3774C660.245 56.8703 660.451 57.3631 660.664 57.8709C659.138 57.8709 657.611 57.8709 656.039 57.8709C656.293 56.599 656.548 55.3271 656.81 54.0166Z" fill="#F3F4F3"/>
</svg>
