<svg width="756" height="202" viewBox="0 0 756 202" fill="none" xmlns="http://www.w3.org/2000/svg">
<path d="M131.875 65.3964C142.367 74.528 146.416 88.0434 148.916 101.235C149.087 102.113 149.258 102.991 149.43 103.869C150.516 109.456 151.558 115.052 152.574 120.652C153.808 127.44 155.123 134.212 156.438 140.985C156.531 141.462 156.624 141.938 156.719 142.43C156.901 143.37 157.084 144.311 157.267 145.251C157.778 147.885 158.279 150.522 158.769 153.16C158.876 153.73 158.983 154.3 159.09 154.871C159.273 155.851 159.454 156.831 159.631 157.813C160.362 161.702 161.194 165.857 164.35 168.533C166.368 169.206 168.021 169.178 169.989 168.459C173.94 164.418 172.888 157.13 172.876 151.955C172.88 150.917 172.884 149.879 172.889 148.841C172.898 146.615 172.901 144.389 172.901 142.163C172.9 138.945 172.908 135.727 172.918 132.508C172.935 127.285 172.944 122.063 172.949 116.84C172.953 111.769 172.961 106.699 172.974 101.629C172.974 101.316 172.975 101.003 172.976 100.68C172.98 99.1092 172.984 97.5385 172.988 95.9678C173.021 82.9578 173.041 69.9478 173.056 56.9378C184.94 56.9378 196.823 56.9378 209.067 56.9378C209.102 70.3508 209.131 83.7638 209.148 97.1768C209.15 98.7646 209.152 100.352 209.154 101.94C209.155 102.414 209.155 102.414 209.155 102.898C209.162 107.999 209.175 113.099 209.189 118.2C209.204 123.443 209.213 128.687 209.216 133.931C209.218 137.16 209.225 140.389 209.238 143.617C209.246 145.839 209.249 148.061 209.247 150.283C209.246 151.56 209.248 152.837 209.256 154.114C209.336 167.993 206.573 180.815 196.874 191.189C189.357 198.357 179.462 201.527 169.267 201.525C168.32 201.527 167.373 201.541 166.426 201.556C159.555 201.607 153.459 200.115 147.334 197.026C146.698 196.708 146.698 196.708 146.05 196.384C142.866 194.66 140.406 192.409 137.836 189.902C137.58 189.676 137.325 189.449 137.062 189.216C133.453 185.937 131.095 181.376 129.006 177.041C128.85 176.718 128.693 176.395 128.531 176.062C126.383 171.456 124.981 166.61 123.887 161.657C123.802 161.282 123.802 161.282 123.717 160.898C122.102 153.658 120.844 146.346 119.526 139.049C118.612 134.005 117.648 128.971 116.674 123.939C116.526 123.171 116.377 122.403 116.229 121.635C116.116 121.054 116.116 121.054 116.002 120.462C115.471 117.713 114.956 114.961 114.446 112.208C114.064 110.143 113.676 108.08 113.288 106.016C113.1 105.015 112.915 104.013 112.732 103.01C112.476 101.607 112.212 100.205 111.947 98.803C111.873 98.3891 111.799 97.9752 111.723 97.5488C111.119 94.4165 110.214 91.4153 107.884 89.1401C106.079 88.3908 104.543 88.2917 102.616 88.596C100.555 89.5504 99.5675 90.9196 98.6589 92.949C98.2513 94.3058 97.9846 95.6789 97.7222 97.0702C97.6406 97.4812 97.5591 97.8923 97.4751 98.3159C97.2044 99.6917 96.9418 101.069 96.6803 102.447C96.5413 103.17 96.5413 103.17 96.3995 103.908C95.729 107.398 95.0727 110.891 94.4199 114.384C94.1406 115.878 93.8598 117.371 93.5792 118.864C93.12 121.308 92.6612 123.751 92.2028 126.195C92.1468 126.494 92.0908 126.793 92.0331 127.1C91.7627 128.542 91.4924 129.983 91.2221 131.425C84.6856 166.288 84.6856 166.288 82.0383 172.886C81.8665 173.323 81.8665 173.323 81.6911 173.77C79.2386 179.917 75.9716 185.14 71.3537 189.902C71.1124 190.173 70.8711 190.443 70.6225 190.722C64.7 197.135 55.0249 200.986 46.4292 201.467C44.9395 201.514 43.4506 201.526 41.9602 201.525C41.0406 201.527 40.1218 201.541 39.2023 201.556C28.9966 201.633 19.9638 197.933 12.3901 191.09C6.15078 184.94 2.66176 177.011 0.914025 168.533C0.845081 168.22 0.776143 167.908 0.705111 167.585C-0.197474 162.784 0.0181945 157.898 0.0327178 153.033C0.0329413 151.983 0.03285 150.934 0.0323676 149.884C0.0319546 147.633 0.0344183 145.382 0.038889 143.13C0.0453485 139.876 0.0473895 136.621 0.0483812 133.366C0.0501092 128.084 0.0553589 122.802 0.0628612 117.52C0.070137 112.392 0.0757339 107.264 0.0790922 102.136C0.0793001 101.819 0.079506 101.503 0.0797202 101.176C0.0807531 99.5879 0.0817555 97.9994 0.0827394 96.4109C0.0909309 83.2531 0.105514 70.0955 0.122568 56.9378C12.1369 56.9378 24.1512 56.9378 36.5296 56.9378C36.5333 60.1537 36.537 63.3697 36.5408 66.6831C36.5537 76.979 36.5744 87.2748 36.6 97.5706C36.6039 99.1704 36.6078 100.77 36.6117 102.37C36.6125 102.689 36.6132 103.007 36.614 103.335C36.6263 108.489 36.633 113.643 36.6377 118.796C36.6426 124.087 36.6535 129.377 36.6699 134.667C36.6798 137.93 36.6851 141.193 36.6845 144.456C36.6845 146.695 36.6903 148.934 36.7006 151.173C36.7064 152.464 36.7088 153.754 36.706 155.045C36.7034 156.448 36.7105 157.85 36.7199 159.252C36.7169 159.656 36.7138 160.061 36.7106 160.477C36.7425 163.148 37.2298 165.376 38.5082 167.742C39.644 168.814 40.5564 168.998 42.0698 169.077C44.0055 168.994 45.0689 168.287 46.4475 166.95C48.871 163.198 49.4548 158.574 50.2811 154.262C50.4185 153.559 50.5562 152.856 50.6941 152.153C51.1223 149.963 51.5432 147.772 51.963 145.581C52.0929 144.904 52.2229 144.227 52.3529 143.551C53.0015 140.171 53.6443 136.789 54.2848 133.408C55.3826 127.612 56.4949 121.819 57.613 116.026C57.6959 115.597 57.7788 115.168 57.8641 114.726C58.0301 113.866 58.196 113.007 58.362 112.147C58.8323 109.709 59.2975 107.27 59.7571 104.829C60.0349 103.357 60.3155 101.884 60.5966 100.412C60.7245 99.7388 60.851 99.0653 60.9761 98.3915C63.1894 86.4806 67.3533 75.456 76.1024 66.831C76.3942 66.5351 76.686 66.2392 76.9866 65.9344C91.3369 52.2315 117.074 53.0312 131.875 65.3964Z" fill="#687076"/>
<path d="M552.559 5.49316C564.573 5.49316 576.588 5.49316 588.966 5.49316C589.097 27.8241 589.227 50.1551 589.362 73.1627C590.798 71.5956 592.235 70.0285 593.715 68.414C599.425 62.2004 606.982 58.3253 615.084 56.1464C615.373 56.0682 615.661 55.99 615.958 55.9095C625.301 53.5143 636.563 53.539 645.951 55.7507C646.46 55.8654 646.968 55.9802 647.492 56.0985C659.187 58.977 669.425 64.7629 678.005 73.1627C678.296 73.4336 678.587 73.7045 678.886 73.9835C692.153 86.5894 697.805 106.839 698.268 124.617C698.537 146.142 693.38 166.4 678.231 182.181C670.805 189.664 661.381 194.466 651.491 197.817C651.052 197.966 651.052 197.966 650.604 198.118C648.55 198.795 646.48 199.33 644.368 199.796C643.848 199.912 643.848 199.912 643.318 200.031C636.959 201.378 630.635 201.535 624.161 201.552C623.567 201.555 623.567 201.555 622.961 201.559C617.837 201.58 612.981 201.232 607.961 200.191C607.576 200.113 607.191 200.034 606.794 199.953C605.875 199.754 604.964 199.536 604.053 199.301C603.728 199.218 603.403 199.134 603.068 199.048C591.357 195.946 581.037 190.473 572.346 181.988C572.039 181.706 571.732 181.424 571.417 181.133C567.17 177.126 563.934 172.111 561.265 166.95C561.119 166.669 560.973 166.387 560.823 166.097C557.658 159.904 555.612 153.706 554.241 146.892C554.162 146.51 554.084 146.128 554.003 145.735C552.426 137.357 552.443 128.81 552.467 120.318C552.471 118.771 552.47 117.224 552.469 115.676C552.469 113.008 552.471 110.339 552.475 107.67C552.482 103.812 552.484 99.9533 552.485 96.0948C552.487 89.832 552.492 83.5691 552.499 77.3063C552.507 71.2292 552.512 65.152 552.516 59.0749C552.516 58.6992 552.516 58.3234 552.516 57.9363C552.517 56.0509 552.518 54.1655 552.519 52.28C552.528 36.6844 552.542 21.0888 552.559 5.49316Z" fill="#687076"/>
<path d="M478.558 55.7507C478.99 55.8421 479.422 55.9336 479.867 56.0278C485.898 57.3418 491.604 58.9802 497.157 61.6866C497.469 61.835 497.78 61.9834 498.101 62.1362C504.775 65.3478 510.489 69.5519 515.757 74.7456C516.298 75.279 516.298 75.279 516.849 75.8231C524.305 83.5547 529.286 93.699 531.981 104.03C532.057 104.304 532.132 104.579 532.209 104.863C535.197 115.949 534.919 127.481 534.872 138.859C534.864 140.981 534.864 143.103 534.862 145.225C534.859 149.225 534.849 153.224 534.837 157.224C534.821 162.642 534.815 168.059 534.808 173.477C534.797 181.986 534.773 190.495 534.751 199.004C522.737 199.004 510.723 199.004 498.344 199.004C498.214 193.65 498.083 188.296 497.949 182.779C496.773 184.216 495.598 185.652 494.387 187.132C486.392 195.532 474.63 200.847 463.057 201.421C462.141 201.443 461.225 201.454 460.308 201.459C459.969 201.461 459.631 201.464 459.282 201.466C458.567 201.47 457.852 201.472 457.137 201.474C456.068 201.478 454.999 201.49 453.93 201.502C447.98 201.539 442.261 200.905 436.561 199.103C436.234 199.002 435.906 198.901 435.569 198.796C432.375 197.779 429.336 196.506 426.322 195.047C426.082 194.934 425.842 194.821 425.595 194.705C415.778 190.036 407.312 182.365 401.391 173.282C401.237 173.049 401.083 172.817 400.924 172.577C393.287 160.925 389.503 146.871 389.439 132.997C389.437 132.602 389.434 132.207 389.432 131.8C389.428 130.968 389.426 130.137 389.424 129.305C389.42 128.063 389.408 126.822 389.396 125.58C389.296 106.677 395.147 88.4174 408.514 74.7456C408.805 74.4345 409.097 74.1233 409.397 73.8027C426.125 56.3127 455.478 50.8053 478.558 55.7507Z" fill="#687076"/>
<path d="M332.534 60.4993C332.932 60.6657 332.932 60.6657 333.338 60.8355C348.972 67.4527 360.483 79.9667 367.023 95.4439C368.816 99.878 370.043 104.498 371.019 109.174C371.079 109.454 371.138 109.735 371.2 110.024C372.422 116.316 372.619 122.712 372.593 129.101C372.592 129.87 372.593 130.639 372.593 131.408C372.593 133.469 372.589 135.53 372.583 137.59C372.578 139.754 372.578 141.918 372.577 144.082C372.574 148.167 372.568 152.252 372.56 156.337C372.549 161.866 372.545 167.395 372.54 172.924C372.533 181.617 372.517 190.311 372.503 199.004C360.488 199.004 348.474 199.004 336.096 199.004C335.965 193.781 335.835 188.557 335.7 183.175C334.133 184.873 332.566 186.57 330.951 188.319C325.672 193.463 319.664 196.777 312.674 199.078C312.395 199.173 312.116 199.267 311.829 199.364C306.126 201.153 300.335 201.575 294.399 201.533C293.332 201.527 292.265 201.533 291.198 201.541C284.593 201.55 278.697 200.519 272.433 198.386C272.179 198.3 271.924 198.214 271.662 198.125C262.198 194.908 254.162 189.794 247.057 182.779C246.835 182.566 246.613 182.352 246.385 182.132C240.021 175.924 235.621 168.056 232.415 159.827C232.259 159.427 232.259 159.427 232.1 159.019C230.105 153.769 229.009 148.335 228.062 142.811C227.987 142.402 227.912 141.993 227.835 141.572C227.13 137.326 227.13 133.106 227.147 128.812C227.148 128.426 227.149 128.039 227.149 127.641C227.222 107.103 232.96 88.466 247.403 73.4841C268.868 52.5933 305.655 48.9805 332.534 60.4993Z" fill="#687076"/>
<path d="M461.651 82.879C462.479 82.8824 463.305 82.8709 464.133 82.8584C471.936 82.8179 479.188 85.2684 485.285 90.1786C485.661 90.4571 485.661 90.4571 486.044 90.7413C493.506 96.5466 497.006 107.598 498.239 116.598C499.169 124.417 499.316 132.663 497.949 140.436C497.9 140.715 497.851 140.995 497.801 141.282C495.861 151.96 491.444 161.654 482.304 168.047C473.763 173.428 462.875 174.567 453.119 172.481C444.175 170.13 437.368 165.173 432.607 157.27C427.304 148.087 426.233 137.961 426.223 127.55C426.223 127.235 426.222 126.92 426.221 126.596C426.223 121.868 426.473 117.362 427.509 112.735C427.595 112.28 427.681 111.824 427.769 111.355C429.563 102.437 434.39 93.8633 441.825 88.4767C448.027 84.5327 454.33 82.8338 461.651 82.879Z" fill="#F1F4F8"/>
<path d="M624.631 82.858C624.918 82.8588 625.204 82.8596 625.499 82.8605C630.164 82.8882 634.468 83.2774 638.828 85.0345C639.246 85.1999 639.246 85.1999 639.672 85.3687C643.773 87.0577 646.849 89.3744 649.908 92.5533C650.2 92.842 650.492 93.1307 650.793 93.4282C655.174 97.9967 657.653 104.091 659.282 110.114C659.362 110.407 659.443 110.701 659.525 111.004C660.897 116.336 661.149 121.633 661.137 127.105C661.137 127.453 661.137 127.8 661.137 128.158C661.123 133.966 660.719 139.507 659.406 145.185C659.338 145.495 659.27 145.804 659.2 146.123C657.299 154.543 652.594 162.628 645.424 167.589C641.095 170.295 636.747 172.058 631.705 172.886C631.411 172.938 631.117 172.99 630.815 173.044C621.19 174.435 611.255 172.53 603.251 166.939C594.224 159.938 590.437 149.3 589 138.292C587.298 123.785 588.423 106.487 597.821 94.5814C604.88 86.4634 613.926 82.7866 624.631 82.858Z" fill="#F1F4F8"/>
<path d="M299.322 82.8711C300.189 82.8827 301.054 82.8792 301.921 82.8741C310.381 82.8865 318.617 85.8752 324.706 91.8267C329.1 96.3074 332.022 101.532 333.87 107.517C333.959 107.802 334.049 108.086 334.141 108.38C335.927 114.634 336.305 121.084 336.244 127.55C336.242 127.904 336.24 128.258 336.239 128.622C336.159 141.718 333.842 154.669 324.419 164.415C322.3 166.408 320.069 167.976 317.496 169.325C316.903 169.637 316.903 169.637 316.298 169.955C307.447 174.333 296.313 174.422 286.995 171.436C278.661 168.476 272.529 162.173 268.766 154.336C268.518 153.794 268.273 153.249 268.03 152.704C267.829 152.253 267.829 152.253 267.623 151.794C266.535 149.233 265.917 146.673 265.384 143.948C265.3 143.54 265.216 143.131 265.13 142.71C264.439 139.29 264.011 135.99 263.993 132.503C263.991 132.166 263.988 131.829 263.986 131.482C263.982 130.771 263.98 130.059 263.978 129.347C263.974 128.287 263.962 127.227 263.95 126.167C263.874 113.843 266.657 101.073 275.381 91.8823C282.041 85.5547 290.244 82.7392 299.322 82.8711Z" fill="#F1F4F8"/>
<path d="M715.995 56.9375C728.009 56.9375 740.024 56.9375 752.402 56.9375C752.402 103.819 752.402 150.701 752.402 199.004C740.388 199.004 728.373 199.004 715.995 199.004C715.995 152.122 715.995 105.24 715.995 56.9375Z" fill="#687076"/>
<path d="M746.862 3.21746C747.533 3.69608 748.194 4.19017 748.84 4.70144C749.124 4.91926 749.407 5.13708 749.698 5.3615C753.084 8.32829 755.393 13.2449 755.894 17.6863C756.301 25.0706 755.723 31.7297 750.77 37.6706C746.491 42.1055 740.922 43.8571 734.897 44.0447C728.543 44.0903 722.746 42.7074 717.998 38.2147C712.945 32.7075 712.073 26.4256 712.28 19.2027C712.42 16.5436 712.902 14.2635 714.016 11.8245C714.164 11.4991 714.312 11.1736 714.465 10.8383C717.038 5.77777 721.176 2.85211 726.479 1.03168C732.886 -0.82464 741.108 -0.222519 746.862 3.21746Z" fill="#687076"/>
</svg>
