<svg width="180" height="60" viewBox="0 0 180 60" fill="none" xmlns="http://www.w3.org/2000/svg">
<path d="M83.2012 37.958L79.058 22.1086L79.0339 22.0142C79.0339 21.8735 79.1203 21.8032 79.2911 21.8032H82.1946C82.3513 21.8032 82.4517 21.8816 82.498 22.0383L84.7223 31.5664C84.7383 31.6287 84.7604 31.6608 84.7926 31.6608C84.8247 31.6608 84.8468 31.6287 84.8629 31.5664L87.0169 22.0624C87.0631 21.8916 87.1656 21.8052 87.3203 21.8052H90.1534C90.3242 21.8052 90.4347 21.8836 90.4809 22.0403L92.8217 31.5684C92.8378 31.6146 92.8599 31.6427 92.892 31.6508C92.9222 31.6588 92.9463 31.6307 92.9624 31.5684L95.1163 22.0644C95.1626 21.8936 95.265 21.8072 95.4197 21.8072H98.1825C98.4015 21.8072 98.4859 21.9097 98.4397 22.1106L94.6 37.96C94.5537 38.1167 94.4432 38.1951 94.2724 38.1951H91.4876C91.3308 38.1951 91.2304 38.1167 91.1841 37.96L88.7971 27.8231C88.781 27.7608 88.7589 27.7286 88.7268 27.7286C88.6946 27.7286 88.6725 27.7608 88.6564 27.8231L86.4322 37.9359C86.4 38.1087 86.2996 38.1931 86.1288 38.1931H83.5307C83.3579 38.1931 83.2494 38.1147 83.2032 37.958H83.2012Z" fill="#1A1731"/>
<path d="M115.651 37.9579L114.948 35.6633C114.916 35.601 114.878 35.5689 114.831 35.5689H109.073C109.027 35.5689 108.986 35.601 108.956 35.6633L108.277 37.9579C108.231 38.1146 108.128 38.193 107.974 38.193H105C104.906 38.193 104.835 38.1669 104.789 38.1106C104.743 38.0564 104.735 37.974 104.765 37.8655L109.822 22.0403C109.869 21.8835 109.971 21.8052 110.126 21.8052H113.801C113.957 21.8052 114.058 21.8835 114.104 22.0403L119.162 37.8655C119.178 37.8976 119.186 37.9358 119.186 37.982C119.186 38.1227 119.099 38.193 118.928 38.193H115.955C115.798 38.193 115.697 38.1146 115.651 37.9579ZM109.893 33.0191H114.014C114.108 33.0191 114.138 32.9728 114.108 32.8784L112 25.9262C111.984 25.864 111.962 25.8358 111.93 25.8439C111.898 25.8519 111.876 25.878 111.86 25.9262L109.8 32.8784C109.784 32.9728 109.816 33.0191 109.895 33.0191H109.893Z" fill="#1A1731"/>
<path d="M129.851 38.0865C129.797 38.0323 129.769 37.9659 129.769 37.8876V31.9642C129.769 31.9019 129.761 31.8557 129.745 31.8235L124.922 22.1327C124.89 22.0704 124.876 22.0242 124.876 21.992C124.876 21.8675 124.962 21.8052 125.133 21.8052H128.083C128.24 21.8052 128.348 21.8755 128.41 22.0162L131.336 28.243C131.382 28.3374 131.43 28.3374 131.477 28.243L134.402 22.0162C134.464 21.8755 134.573 21.8052 134.73 21.8052H137.725C137.834 21.8052 137.908 21.8333 137.948 21.8876C137.987 21.9418 137.983 22.0242 137.936 22.1327L133.068 31.8235C133.052 31.8557 133.044 31.9019 133.044 31.9642V37.8876C133.044 37.9659 133.016 38.0323 132.961 38.0865C132.907 38.1408 132.841 38.1689 132.762 38.1689H130.048C129.97 38.1689 129.903 38.1428 129.849 38.0865H129.851Z" fill="#1A1731"/>
<path d="M151.19 37.958L146.367 22.1327L146.343 22.0383C146.343 21.8816 146.43 21.8032 146.6 21.8032H149.55C149.721 21.8032 149.831 21.8816 149.878 22.0383L152.992 33.4632C153.008 33.5094 153.03 33.5335 153.062 33.5335C153.094 33.5335 153.117 33.5094 153.133 33.4632L156.199 22.0383C156.245 21.8816 156.356 21.8032 156.526 21.8032H159.406C159.5 21.8032 159.57 21.8354 159.617 21.8977C159.663 21.9599 159.671 22.0383 159.641 22.1327L154.748 37.958C154.702 38.1147 154.599 38.1931 154.445 38.1931H151.495C151.338 38.1931 151.238 38.1147 151.192 37.958H151.19Z" fill="#1A1731"/>
<path d="M179.654 24.5559C179.599 24.6102 179.533 24.6383 179.455 24.6383H171.777C171.699 24.6383 171.661 24.6785 171.661 24.7548V28.3836C171.661 28.462 171.699 28.5002 171.777 28.5002H176.811C176.889 28.5002 176.955 28.5283 177.009 28.5825C177.064 28.6368 177.092 28.7031 177.092 28.7815V31.052C177.092 31.1303 177.064 31.1966 177.009 31.2509C176.955 31.3051 176.889 31.3333 176.811 31.3333H171.777C171.699 31.3333 171.661 31.3714 171.661 31.4498V35.2434C171.661 35.3217 171.699 35.3599 171.777 35.3599H179.455C179.533 35.3599 179.599 35.388 179.654 35.4423C179.708 35.4965 179.736 35.5628 179.736 35.6412V37.9117C179.736 37.9901 179.708 38.0564 179.654 38.1106C179.599 38.1649 179.533 38.193 179.455 38.193H168.639C168.56 38.193 168.494 38.1669 168.44 38.1106C168.386 38.0564 168.357 37.9901 168.357 37.9117V22.0865C168.357 22.0081 168.384 21.9418 168.44 21.8876C168.494 21.8333 168.56 21.8052 168.639 21.8052H179.455C179.533 21.8052 179.599 21.8333 179.654 21.8876C179.708 21.9418 179.736 22.0081 179.736 22.0865V24.357C179.736 24.4353 179.708 24.5017 179.654 24.5559Z" fill="#1A1731"/>
<path d="M57.3915 17.6561C56.3748 15.3615 55.756 13.8686 54.241 11.8954C53.8893 11.4373 53.594 11.0857 53.594 11.0857C52.1131 10.6115 50.8231 11.7869 51.1306 13.326C51.223 13.4406 51.3194 13.5571 51.4078 13.6736C54.896 18.1966 56.5255 23.469 56.5255 30.2182C56.5255 35.7538 53.3689 42.2278 44.4718 42.2519H44.4336C37.9114 42.2519 32.6691 37.4497 32.2432 31.0802C32.1628 29.8786 32.1467 25.5948 35.3435 20.9152C38.0762 16.8122 44.1563 11.7688 51.7595 8.46153C52.3703 8.20635 52.9912 7.9572 53.6241 7.71407C53.7467 7.66987 53.8029 7.6337 53.8049 7.60155C49.5794 6.79382 43.7444 6.63106 36.6877 8.28271C33.2438 9.04021 29.9687 10.0991 26.9507 11.4313C15.9458 16.2857 7.25154 25.3899 3.78751 35.5288C2.95366 31.5684 3.02398 27.4494 4.00452 23.5272C5.48135 17.6179 8.81277 12.5284 13.6411 8.81115C18.3268 5.20446 24.1377 3.21928 30.0068 3.21928C32.1849 3.21928 34.369 3.48853 36.4989 4.02099L36.5632 4.03706L36.6255 4.05314C37.1057 4.17771 38.6589 4.61976 40.0111 5.11404C40.0975 5.13012 40.1839 5.15423 40.2703 5.18839C40.5818 5.14419 40.9414 5.08592 41.3513 5.03367H41.3634V5.03167C42.9226 4.85284 44.526 4.73027 46.033 4.64789C45.5347 4.33645 45.0283 4.03706 44.5119 3.75375C42.2475 2.50196 39.8162 1.54152 37.2745 0.906578C29.4985 -1.03641 21.4311 0.167156 14.5573 4.29224C7.68555 8.41733 2.83109 14.9717 0.8881 22.7496C0.25919 25.2693 -0.0341677 27.8472 0.00199963 30.4131C0.216994 44.8338 10.595 56.7851 24.2884 59.4434L24.2823 59.4675C25.2488 59.6524 26.2334 59.789 27.23 59.8774C27.877 59.9457 28.6184 60 29.4703 60C29.5567 60 29.6411 60 29.7235 59.998C29.7938 59.998 29.8642 60 29.9345 60C31.0135 60 32.0764 59.9277 33.1253 59.8312C34.2545 59.7287 34.8653 59.4776 34.795 59.1722C34.7307 58.8929 33.9953 58.7703 33.5794 58.6397C32.1769 58.1997 30.9833 57.6612 29.7979 56.9258C29.5326 56.749 29.2473 56.552 28.9419 56.329C27.7604 55.4248 26.6654 54.392 25.6848 53.2588C22.1043 49.1136 20.3039 44.0201 20.3341 38.1228C20.3682 31.5845 22.5885 25.9364 26.9326 21.3331C29.6492 18.4558 33.2719 15.906 37.7245 13.7359L39.3159 12.5062C38.5202 13.1271 37.6442 13.8525 36.6476 14.7064C32.1929 18.3794 30.2319 22.4724 29.4201 26.1715C28.9741 27.9336 28.7872 29.6837 28.8957 31.3052C29.4422 39.463 36.1151 45.5994 44.4255 45.5994C44.4416 45.5994 44.4557 45.5994 44.4718 45.5994C48.6993 45.5873 52.3924 44.1667 55.1954 41.5948C58.2515 38.7939 59.865 34.8597 59.865 30.2162C59.865 25.86 59.1477 21.6325 57.3835 17.6541L57.3915 17.6561ZM16.641 38.1027C16.5968 46.6522 20.0588 52.429 22.9703 55.7664C23.0064 55.8086 23.0446 55.8508 23.0828 55.893C22.8778 55.8387 22.6729 55.7825 22.472 55.7242C22.2791 55.668 22.1203 55.6197 21.9757 55.5755C21.3548 55.3786 21.0112 55.2661 20.6134 55.1114C20.5229 55.0752 20.4205 55.035 20.312 54.9908C19.8418 54.806 19.4319 54.6352 19.0602 54.4664C15.6725 52.9313 12.6847 50.7412 10.1791 47.9583C10.0023 47.7513 9.82143 47.5383 9.63256 47.3153C7.92064 45.2839 6.9622 42.6778 6.93206 39.9733C6.91599 38.5387 7.15711 37.1282 7.64737 35.7819C9.75914 29.9932 13.7978 24.6143 19.3274 20.232C23.0928 17.2462 27.0491 14.8933 30.9974 13.2738C21.5216 19.3861 16.6993 27.7166 16.645 38.1027H16.641Z" fill="#1A1731"/>
</svg>
