<svg width="151" height="43" viewBox="0 0 151 43" fill="none" xmlns="http://www.w3.org/2000/svg">
<g clip-path="url(#clip0_1557_898)">
<path d="M127.578 34.308V31.9296H126.986C125.212 31.9296 124.666 31.7011 124.258 31.2443C123.847 30.8774 123.575 30.2821 123.575 28.7718V16.5329C123.575 15.1152 123.802 14.7484 124.074 14.4743C124.394 14.1545 124.649 13.9247 126.059 13.9247C127.674 13.9247 128.482 14.6382 129.257 16.2843L137.445 33.4386L136.126 37.0533C135.671 38.2882 134.989 39.249 133.669 39.249C132.533 39.249 131.941 38.5623 131.485 37.6015C131.122 36.9162 130.53 36.0468 129.347 36.0468C127.938 36.0468 126.982 37.189 126.982 38.5166C126.982 40.8037 128.984 42.9994 132.214 42.9994C134.579 42.9994 136.036 42.0386 137.127 40.4382C137.718 39.6588 138.128 38.6537 138.537 37.6015L146.225 16.5584C146.953 14.6369 148.136 13.8145 149.863 13.7231V11.4347H141.358V13.7218H141.585C142.904 13.7218 143.723 14.5455 143.723 15.6433C143.723 16.1459 143.587 16.7412 143.267 17.5649L139.765 26.8502L135.262 17.4265C134.852 16.6028 134.715 16.0088 134.715 15.5049C134.715 14.4998 135.353 13.7218 136.626 13.7218H136.899V11.4347H123.575C123.348 9.74158 123.348 8.46098 123.348 7.59158C123.348 6.12779 123.529 4.98425 123.893 4.16098C124.303 3.24589 125.03 2.51355 126.167 2.51355C127.61 2.51355 128.171 3.63558 128.711 4.7173C128.888 5.06667 129.06 5.41336 129.261 5.7157C129.715 6.31098 130.307 6.95195 131.489 6.95195C132.581 6.95195 133.811 6.12823 133.811 4.52648C133.811 2.88039 131.945 -0.00195312 127.213 -0.00195312C123.62 -0.00195312 120.982 1.64548 119.663 4.1153C118.843 5.67002 118.57 7.40748 118.57 10.1528V11.4347H113.705V14.1786H115.979C117.389 14.1786 117.754 14.4071 118.072 14.7282C118.344 15.0024 118.572 15.3679 118.572 16.7869V28.7718C118.572 30.2808 118.299 30.8761 117.89 31.2416C117.48 31.6985 116.935 31.9269 115.387 31.9269H114.692C113.146 31.9269 112.601 31.6985 112.191 31.2416C111.782 30.8761 111.509 30.2808 111.509 28.7718V11.4347H102.957V13.8131H103.321C104.867 13.8131 105.413 14.0416 105.822 14.4985C106.232 14.8653 106.504 15.4592 106.504 16.9696V28.7718C106.504 30.2808 106.232 30.8761 105.822 31.2416C105.413 31.6985 104.867 31.9269 103.321 31.9269H102.631C101.129 31.9269 100.584 31.6985 100.128 31.2416C99.7648 30.8761 99.4922 30.2808 99.4922 28.7718V2.2878H90.8945V4.66623H91.3034C92.8495 4.66623 93.3961 4.89467 93.805 5.35155C94.2152 5.71705 94.4865 6.31233 94.4865 7.82136V28.7731C94.4865 30.2821 94.2152 30.8774 93.805 31.2429C93.3961 31.6998 92.8495 31.9282 91.3034 31.9282H90.8945V34.3067L127.578 34.308Z" fill="#121619"/>
<path d="M108.865 0.54103C106.722 0.54103 105.006 2.32016 105.006 4.47553C105.004 4.98576 105.102 5.49135 105.295 5.96315C105.489 6.43495 105.773 6.86361 106.131 7.22439C106.49 7.58518 106.917 7.87095 107.386 8.06522C107.855 8.25949 108.358 8.35841 108.865 8.35628C111.062 8.35628 112.778 6.63091 112.778 4.47553C112.779 3.95845 112.679 3.44618 112.483 2.96819C112.287 2.49019 111.998 2.05589 111.635 1.69026C111.271 1.32462 110.839 1.03486 110.364 0.837637C109.889 0.640412 109.379 0.539612 108.865 0.54103Z" fill="#121619"/>
<path fill-rule="evenodd" clip-rule="evenodd" d="M66.8242 42.5426V40.1642H67.2331C68.7805 40.1642 69.3257 39.9357 69.736 39.4775C70.1449 39.1107 70.4175 38.5167 70.4175 37.0063V16.971C70.4175 15.4607 70.1449 14.8667 69.736 14.4999C69.3257 14.043 68.7805 13.8146 67.2331 13.8146H66.8242V11.4348H75.013V15.6434C76.3319 12.7611 79.1514 10.9766 82.5189 10.9766C88.4787 10.9766 92.1628 16.0546 92.1628 22.5503C92.1628 29.6856 88.2956 34.765 81.5634 34.765C79.3345 34.765 77.0602 34.214 75.4219 33.0262V37.005C75.4219 38.5154 75.6945 39.1093 76.0593 39.4762C76.5136 39.933 77.0601 40.1615 78.788 40.1615H79.4254V42.5399L66.8242 42.5426ZM77.1056 30.1908C78.0143 31.4714 79.2891 32.3408 81.1545 32.3408C85.1567 32.3408 86.4756 28.5434 86.4756 24.2434C86.4756 18.4801 84.3375 14.6369 80.7443 14.6369C79.0606 14.6369 77.6508 15.3236 76.6499 16.7413C75.7853 18.0689 75.2856 19.9904 75.2856 22.4146V22.8714C75.2856 25.3869 75.7399 28.2693 77.1056 30.1908Z" fill="#121619"/>
<path fill-rule="evenodd" clip-rule="evenodd" d="M0 34.3086V31.8388C2.45609 31.8388 3.8672 30.4655 5.00438 27.1719L13.7838 2.05859H15.8309L26.4303 28.5439C27.3577 30.8122 28.368 31.8361 30.192 31.8361C30.8748 31.8361 31.412 31.5324 31.6699 31.2435C32.0788 30.878 32.3514 30.2827 32.3514 28.7737V16.9715C32.3514 15.4612 32.0788 14.8672 31.6699 14.5004C31.261 14.0435 30.7145 13.8151 29.1684 13.8151H28.8036V11.4353H36.9923V15.6896C38.1295 13.0827 40.4947 10.9771 44.088 10.9771C46.1352 10.9771 48.0006 11.618 49.3663 13.0357C49.9569 13.721 50.458 14.5004 50.7761 15.6896C52.0041 13.0827 54.5057 10.9771 58.2366 10.9771C60.102 10.9771 62.0116 11.5723 63.3772 12.99C64.6053 14.3163 65.2413 16.1922 65.2413 19.1659V28.8637C65.2413 30.0986 65.3776 30.7383 65.8788 31.2422C66.4253 31.7917 67.1522 31.9275 68.1531 31.9275H68.5166V34.3059H57.4628V31.9275C58.6922 31.9275 59.2374 31.699 59.6918 31.2878C60.0566 30.8767 60.3292 30.2814 60.3292 28.7723V19.9896C60.3292 17.7469 59.9189 16.7404 59.2829 16.0551C58.5546 15.2771 57.5537 14.8659 56.3711 14.8659C54.9146 14.8659 53.5515 15.5969 52.6415 16.6947C51.7315 17.8839 51.2759 19.44 51.2759 22.5508V28.7723C51.2759 30.2814 51.503 30.8767 51.9133 31.2878C52.3235 31.699 52.9141 31.9288 54.1422 31.9288V34.3073H43.4519V31.9288C44.6813 31.9288 45.2719 31.7004 45.6808 31.2878C46.0897 30.8753 46.3182 30.2814 46.3182 28.7723V19.9896C46.3182 17.7469 45.908 16.7404 45.316 16.0551C44.5891 15.2771 43.5428 14.8659 42.3602 14.8659C40.9036 14.8659 39.5406 15.5969 38.6747 16.6947C37.766 17.8839 37.3117 19.44 37.3117 22.5508V28.7723C37.3117 30.2814 37.5389 30.8767 37.9478 31.2878C38.3567 31.699 38.9486 31.9288 40.1767 31.9288V34.3073H17.7405V31.8374C19.4696 31.8374 20.7431 31.1965 20.7431 29.5961C20.7431 29.1392 20.6068 28.4512 20.1979 27.3547L19.4242 25.3874H8.37048L8.09788 26.2568C7.7785 27.1249 7.41503 28.3598 7.41503 29.2749C7.41503 31.0594 8.46134 31.8374 10.2814 31.8374V34.3073L0 34.3086ZM9.23372 23.0103H18.4688L13.5566 10.6129L9.23372 23.0103Z" fill="#121619"/>
</g>
<defs>
<clipPath id="clip0_1557_898">
<rect width="151" height="43" fill="white"/>
</clipPath>
</defs>
</svg>
