<svg width="220" height="107" viewBox="0 0 220 107" fill="none" xmlns="http://www.w3.org/2000/svg">
<g clip-path="url(#clip0_1727_6615)">
<path d="M189.351 36.2373C189.441 34.8859 190.57 33.3257 192.617 33.3257C194.874 33.3257 195.824 34.767 195.883 36.2373H189.351ZM192.558 30.082C188.817 30.082 185.371 33.1459 185.371 37.8598C185.371 42.8449 188.905 45.7565 192.914 45.7565C196.507 45.7565 198.823 43.625 199.565 41.073L196.27 40.0827C195.794 41.4036 194.785 42.3345 192.944 42.3345C190.984 42.3345 189.351 40.9222 189.263 38.9705H199.714L199.774 37.7395C199.774 32.9951 197.071 30.082 192.558 30.082Z" fill="#121619"/>
<mask id="mask0_1727_6615" style="mask-type:luminance" maskUnits="userSpaceOnUse" x="10" y="10" width="105" height="62">
<path d="M10.0049 10H114.982V71.3611H10.0049V10Z" fill="white"/>
</mask>
<g mask="url(#mask0_1727_6615)">
<path d="M103.715 62.851C103.752 60.0322 105.765 57.9181 108.426 57.9181C111.314 57.9181 113.115 59.806 113.146 62.851H103.715ZM114.955 64.1517L114.976 63.2672C114.976 59.0839 112.392 56.3797 108.395 56.3797C105.144 56.3797 101.779 59.1637 101.779 63.824C101.779 69.0034 105.401 71.3611 108.768 71.3611C111.525 71.3611 113.768 69.9285 114.766 67.5273L114.799 67.4475L113.275 66.9139L113.246 66.9806C112.435 68.8381 110.888 69.8197 108.769 69.8197C105.732 69.8197 103.682 67.5751 103.649 64.2256H114.952L114.956 64.1488L114.955 64.1517ZM31.2521 10L9.96924 47.4332V55.63L35.9121 10H31.2521Z" fill="#121619"/>
</g>
<path d="M92.1333 42.1076V36.3758H93.9804C95.5462 36.3758 96.2033 36.5019 96.8604 36.8818C97.6433 37.356 98.0504 38.1491 98.0504 39.2874C98.0504 40.2995 97.7062 41.0607 97.0162 41.5349C96.3904 41.9786 95.7019 42.1062 94.2304 42.1062L92.1333 42.1076ZM92.1333 27.4815H93.6362C94.8576 27.4815 95.7333 27.6076 96.329 27.8933C97.0804 28.2732 97.5804 29.191 97.5804 30.2669C97.5804 32.2302 96.3904 33.1481 93.8547 33.1481H92.1333V27.4815ZM100.212 44.2942C101.558 43.3749 102.372 41.6349 102.372 39.6731C102.372 38.0578 101.839 36.76 100.869 35.8726C100.212 35.2709 99.6476 35.0186 98.3947 34.7329C99.5219 34.353 99.9904 34.0688 100.588 33.4671C101.465 32.5173 101.902 31.3138 101.902 29.858C101.902 27.9904 101.18 26.3751 99.8976 25.3949C98.8019 24.5728 97.1433 24.1914 94.5762 24.1914H87.8447V45.3063H95.5476C97.8333 45.3063 99.1162 45.0221 100.212 44.2942ZM209.533 30.1408C208.656 30.1408 207.812 30.3945 207.185 30.8368C206.59 31.279 206.306 31.7242 205.9 32.8001V30.6468H201.923V45.3049H205.9V38.2448C205.9 36.8514 206.026 36.2192 206.495 35.5551C207.059 34.7315 208.06 34.2254 209.158 34.2254L210.002 34.2892V30.1741C209.783 30.1422 209.626 30.1422 209.532 30.1422M158.198 58.9479V56.6424H156.502V71.1149H158.198V63.5676C158.198 61.526 158.555 60.4081 159.562 59.2974C160.296 58.497 161.198 58.1098 162.398 58.0779H162.999V56.3945H162.305C161.226 56.3945 160.139 56.7497 159.393 57.3471C158.866 57.7908 158.568 58.1809 158.198 58.9479Z" fill="#121619"/>
<path d="M166.462 36.5994C166.462 34.5738 167.244 33.5283 168.747 33.5283C170.187 33.5283 170.94 34.5738 170.94 36.5994V45.3067H174.917V36.4733C174.917 34.6057 175.762 33.5283 177.234 33.5283C178.737 33.5283 179.455 34.4781 179.455 36.4733V45.3067H183.431V35.7149C183.431 33.4993 183.15 32.4858 182.272 31.5041C181.458 30.6182 180.237 30.1426 178.765 30.1426C176.7 30.1426 175.352 30.9038 174.381 32.5815C173.692 30.9981 172.315 30.1426 170.437 30.1426C168.59 30.1426 167.368 30.8719 166.461 32.4843V30.6472H162.484V45.3052H166.461V36.598" fill="#121619"/>
<mask id="mask1_1727_6615" style="mask-type:luminance" maskUnits="userSpaceOnUse" x="10" y="10" width="151" height="87">
<path d="M10.0049 10H160.541V96.7521H10.0049V10Z" fill="white"/>
</mask>
<g mask="url(#mask1_1727_6615)">
<path d="M153.381 33.3247C155.638 33.3247 156.588 34.766 156.646 36.2363H150.115C150.205 34.8849 151.332 33.3247 153.381 33.3247ZM153.676 45.7555C157.269 45.7555 159.585 43.624 160.328 41.072L157.032 40.0817C156.556 41.4026 155.548 42.3335 153.706 42.3335C151.746 42.3335 150.114 40.9212 150.025 38.9695H160.478L160.536 37.7385C160.536 32.9941 157.834 30.081 153.321 30.081C149.579 30.081 146.135 33.1449 146.135 37.8588C146.135 42.8439 149.668 45.7555 153.676 45.7555ZM54.8335 10L9.96924 88.5798V96.7506L54.8335 18.1707L64.2878 34.7297L28.9221 96.7491H33.5864L54.8407 59.474L64.2878 76.0199L52.4935 96.7491H57.155L68.9521 76.017L57.1721 55.3864L68.9521 34.7297L54.8335 10Z" fill="#121619"/>
</g>
<path d="M125.905 42.8357C124.746 42.8357 124.183 42.2659 123.995 41H120.175C120.33 44.0392 122.427 45.8111 125.872 45.8111C129.252 45.8111 131.507 43.9116 131.507 41.0624C131.507 38.6887 130.223 37.3895 126.967 36.376C124.963 35.7438 124.932 35.7438 124.493 35.3943C124.243 35.2044 124.086 34.8245 124.086 34.4446C124.086 33.6529 124.712 33.1164 125.682 33.1164C126.746 33.1164 127.53 33.7486 127.53 34.636V34.8897H131.287C131.193 31.9129 129.19 30.141 125.87 30.141C122.49 30.141 120.266 32.0086 120.266 34.794C120.266 37.1068 121.675 38.5292 124.806 39.4804C126.935 40.1445 127.499 40.5578 127.499 41.4437C127.499 42.2659 126.843 42.8357 125.905 42.8357ZM139.02 42.8372C137.862 42.8372 137.299 42.2673 137.11 41.0015H133.29C133.446 44.0407 135.543 45.8126 138.987 45.8126C142.367 45.8126 144.623 43.9131 144.623 41.0638C144.623 38.6902 143.339 37.391 140.083 36.3774C138.079 35.7452 138.047 35.7452 137.609 35.3958C137.359 35.2058 137.202 34.8259 137.202 34.446C137.202 33.6543 137.827 33.1178 138.797 33.1178C139.862 33.1178 140.645 33.75 140.645 34.6374V34.8912H144.402C144.309 31.9143 142.305 30.1424 138.985 30.1424C135.605 30.1424 133.38 32.01 133.38 34.7955C133.38 37.1082 134.789 38.5307 137.92 39.4819C140.049 40.146 140.613 40.5592 140.613 41.4452C140.613 42.2673 139.956 42.8372 139.017 42.8372M170.802 82.9848C170.275 83.4285 169.976 83.8185 169.607 84.5856V82.2815H167.913V96.754H169.607V89.2067C169.607 87.1651 169.965 86.0472 170.972 84.9365C171.705 84.1346 172.606 83.7475 173.806 83.717H174.409V82.0336H173.715C172.636 82.0336 171.547 82.3888 170.802 82.9848ZM138.959 71.0121V69.6216L138.903 69.5302L138.799 69.5665C138.23 69.7651 137.633 69.8652 137.033 69.8637C135.719 69.8637 135.023 69.0271 135.023 67.4451V58.1332H138.767V56.6412H135.023V53.1684H133.33V56.6412H131.225V58.1318H133.33V67.5524C133.33 69.9667 134.65 71.3514 136.95 71.3514C137.879 71.3514 138.445 71.1948 138.906 71.031L138.957 71.0107M134.812 95.2025C134.244 95.4007 133.648 95.5011 133.047 95.4997C131.733 95.4997 131.037 94.6631 131.037 93.0797V83.7678H134.782V82.2786H131.037V78.8015H129.345V82.2743H127.239V83.7634H129.345V93.1841C129.345 95.5983 130.665 96.9831 132.966 96.9831C133.632 96.9976 134.293 96.8888 134.92 96.6626L134.972 96.6438V95.2532L134.915 95.1619L134.81 95.1967M144.57 82.0278C143.641 82.0142 142.721 82.2093 141.875 82.5991C141.029 82.9889 140.279 83.5638 139.677 84.2825V82.2743H137.982V96.7467H139.677V87.893C139.677 86.5358 139.949 85.8152 140.795 84.9292C141.606 84.0781 142.465 83.5488 144.225 83.5488L144.497 83.5532C146.157 83.6039 147.929 84.6363 147.92 87.3928V96.7453H149.617V87.3464C149.655 85.7543 149.212 84.4681 148.3 83.5256C147.389 82.5831 145.997 82.0249 144.569 82.0249M153.389 56.6354H151.7V65.4412C151.7 66.9159 151.466 67.7264 150.839 68.4326C150.113 69.2359 148.872 69.755 147.675 69.755C145.267 69.755 143.652 68.0222 143.652 65.4427L143.653 56.6368H141.96V65.4427C141.96 68.9821 144.27 71.3601 147.71 71.3601C149.306 71.3601 150.803 70.7584 151.92 69.6651C153.006 68.6356 153.389 67.5307 153.389 65.4427V56.6368M127.537 71.1078H129.233V61.7075C129.27 60.1154 128.827 58.8292 127.917 57.8867C127.007 56.9442 125.616 56.386 124.186 56.386C122.246 56.386 120.557 57.1646 119.293 58.6422V56.6339H117.599V71.1064H119.293V62.2527C119.293 60.8955 119.565 60.1748 120.41 59.2889C121.222 58.4377 122.079 57.9099 123.84 57.9099L124.113 57.9143C125.773 57.965 127.546 58.9974 127.537 61.7539V71.1078ZM154.035 88.4846C154.072 85.6658 156.085 83.5517 158.745 83.5517C161.632 83.5517 163.435 85.4396 163.465 88.4846H154.035ZM158.713 82.0133C155.462 82.0133 152.097 84.7973 152.097 89.4576C152.097 94.637 155.719 96.9947 159.085 96.9947C161.842 96.9947 164.085 95.5621 165.085 93.1609L165.117 93.0826L163.592 92.549L163.562 92.6157C162.75 94.4731 161.203 95.4548 159.085 95.4548C156.047 95.4548 153.997 93.2102 153.965 89.8607H165.267L165.272 89.7853L165.293 88.9008C165.293 84.7175 162.71 82.0133 158.713 82.0133ZM95.0717 71.1122L102.54 50.3757L100.675 50.3206L94.316 68.1498L88.206 50.3772L86.2817 50.3482L93.5503 71.1122H95.0717ZM98.336 84.8727C97.8076 85.6392 97.0401 86.2026 96.1575 86.472C95.426 86.7374 94.606 86.8447 93.3217 86.8447L90.1746 86.8244V77.5835H92.7389C94.2232 77.5835 95.1075 77.6763 96.0032 77.9257C97.9432 78.4854 99.1489 80.1225 99.1489 82.196C99.1575 83.1515 98.8732 84.0853 98.336 84.8698V84.8727ZM98.8275 77.5096C97.586 76.5047 95.806 76.0175 93.386 76.0175L88.4403 75.9958L88.4189 96.7525H90.176L90.1975 88.4136H93.6632C96.006 88.4136 97.4846 88.0322 98.6117 87.1405C100.037 86.0356 100.856 84.2245 100.856 82.1699C100.856 80.2399 100.135 78.5855 98.8275 77.5096ZM170.507 57.9201C173.393 57.9201 175.196 59.808 175.227 62.853H165.797C165.835 60.0342 167.847 57.9201 170.507 57.9201ZM176.88 67.4509L175.355 66.9173L175.325 66.984C174.513 68.8415 172.966 69.8231 170.847 69.8231C167.81 69.8231 165.76 67.5785 165.727 64.229H177.03L177.035 64.1522L177.056 63.2677C177.056 59.0844 174.472 56.3802 170.475 56.3802C167.223 56.3802 163.859 59.1642 163.859 63.8245C163.859 69.0039 167.48 71.3616 170.846 71.3616C173.603 71.3616 175.845 69.929 176.846 67.5278L176.879 67.448L176.88 67.4495V67.4509ZM121.553 82.9819C121.025 83.4256 120.727 83.8156 120.359 84.5827V82.2786H118.665V96.7511H120.36V89.2038C120.36 87.1608 120.717 86.0428 121.725 84.9336C122.459 84.1317 123.36 83.7446 124.56 83.7141H125.162V82.0307H124.467C123.389 82.0307 122.3 82.3859 121.557 82.9819M181.38 88.5977C178.795 87.951 178.087 87.3783 178.087 85.937C178.087 84.5087 179.249 83.6213 181.116 83.6213C183.08 83.6213 184.207 84.5334 184.207 86.124V86.2038H185.969L185.965 86.1211C185.839 83.5604 184.039 82.0321 181.146 82.0321C178.31 82.0321 176.329 83.6779 176.329 86.0312C176.329 87.068 176.799 88.1279 177.555 88.7964C178.282 89.4692 179.176 89.8694 180.85 90.2783C183.386 90.8873 184.329 91.634 184.329 93.0318C184.329 94.4746 183.087 95.4417 181.239 95.4417C179.173 95.4417 177.867 94.4108 177.747 92.6853L177.742 92.6099H176.01L176.02 92.6983C176.329 95.5534 178.065 97.0005 181.175 97.0005C184.11 97.0005 186.083 95.4055 186.083 93.0304C186.07 91.9968 185.666 91.008 184.955 90.2681C184.229 89.504 183.293 89.0661 181.377 88.5977M111.343 33.3237C113.599 33.3237 114.55 34.765 114.609 36.2353H108.076C108.165 34.8839 109.295 33.3237 111.343 33.3237ZM114.995 40.0807C114.519 41.4017 113.509 42.3326 111.669 42.3326C109.709 42.3326 108.076 40.9203 107.987 38.9686H118.439L118.499 37.7375C118.499 32.9931 115.796 30.0801 111.283 30.0801C107.542 30.0801 104.097 33.1439 104.097 37.8579C104.097 42.843 107.632 45.7546 111.64 45.7546C115.233 45.7546 117.549 43.6231 118.292 41.0711L114.995 40.0807ZM108.366 95.3794C105.587 95.3794 103.49 92.8984 103.49 89.6098C103.49 88.0786 103.945 86.5648 104.737 85.4556C105.64 84.2086 106.787 83.6518 108.459 83.6518C111.54 83.6518 113.61 85.921 113.61 89.2966C113.61 92.6505 111.257 95.3794 108.366 95.3794ZM113.579 84.7567C112.24 82.9224 110.52 82.0321 108.335 82.0321C104.447 82.0321 101.733 85.1105 101.733 89.5156C101.733 93.854 104.523 97.0019 108.367 97.0019C110.516 97.0019 112.179 95.9753 113.58 93.7757V96.7525H115.276V82.2801H113.58L113.579 84.7567Z" fill="#121619"/>
</g>
<defs>
<clipPath id="clip0_1727_6615">
<rect width="200" height="87" fill="white" transform="translate(10 10)"/>
</clipPath>
</defs>
</svg>
