<svg width="232" height="76" viewBox="0 0 232 76" fill="none" xmlns="http://www.w3.org/2000/svg">
<path d="M56.3062 23.6259C57.0033 24.165 57.4132 24.861 57.6219 25.7099C57.7146 26.7427 57.5634 27.6298 56.9142 28.4696C56.5518 28.8714 56.0931 29.1793 55.6612 29.502C53.0274 31.4761 51.3716 34.4518 50.8545 37.6718C50.7678 38.2995 50.7535 38.9197 50.7551 39.5521C50.7551 39.6105 50.7551 39.6689 50.7552 39.7291C50.7579 40.7169 50.8444 41.6513 51.0913 42.6111C51.1052 42.6684 51.1192 42.7256 51.1336 42.7845C51.3516 43.6622 51.6954 44.4754 52.0901 45.2878C52.1319 45.3743 52.1737 45.4607 52.2167 45.5498C52.7991 46.6852 53.5797 47.6692 54.4718 48.5763C54.5244 48.6325 54.577 48.6887 54.6312 48.7466C56.7048 50.9187 59.9495 52.1872 62.9206 52.2735C64.0334 52.2977 65.1402 52.2768 66.2271 52.0177C66.3214 51.9956 66.3214 51.9956 66.4177 51.9729C69.2226 51.2914 71.8528 49.7464 73.6029 47.4292C73.6922 47.316 73.6922 47.316 73.7832 47.2006C75.7885 44.5982 76.6154 41.1637 76.2328 37.9266C75.8823 35.4137 74.8185 32.942 73.0708 31.0808C72.9249 30.9247 72.7886 30.7638 72.6521 30.5996C72.2511 30.1428 71.7608 29.7815 71.2736 29.4208C70.4443 28.805 69.6824 28.139 69.454 27.0864C69.3557 26.0213 69.4488 25.1578 70.0878 24.2712C70.6286 23.6294 71.3102 23.1922 72.1431 23.0332C73.8599 22.917 75.0124 23.7434 76.2675 24.8272C76.5638 25.0892 76.8518 25.3596 77.1371 25.6334C77.1798 25.6742 77.2226 25.7151 77.2666 25.7572C77.8284 26.2971 78.3518 26.8506 78.8274 27.4688C78.8597 27.5104 78.8919 27.5519 78.9251 27.5947C81.3233 30.7005 82.9722 34.6099 82.9919 38.5681C82.9925 38.6404 82.993 38.7128 82.9936 38.7874C83.0111 41.8131 83.0111 41.8131 82.7458 43.07C82.7223 43.1837 82.7223 43.1837 82.6983 43.2996C82.1593 45.8376 81.2104 48.3732 79.6726 50.4882C79.6391 50.5344 79.6057 50.5806 79.5712 50.6281C78.4123 52.2199 77.102 53.7369 75.5015 54.9038C75.3657 55.0035 75.2321 55.1058 75.0987 55.2085C72.3408 57.3103 68.9063 58.5767 65.4587 58.9006C65.3756 58.9091 65.2925 58.9176 65.2069 58.9263C60.124 59.3715 55.0283 57.7857 51.1069 54.5466C47.1568 51.2423 44.5749 46.6132 44.0776 41.4663C43.8803 39.1451 44.0565 36.8379 44.6374 34.5811C44.6539 34.5169 44.6704 34.4526 44.6875 34.3864C45.622 30.8489 47.7666 27.2817 50.6303 24.9451C50.7288 24.8599 50.7288 24.8599 50.8292 24.773C51.2671 24.3986 51.7169 24.0538 52.1909 23.7263C52.2414 23.691 52.2919 23.6558 52.344 23.6195C53.5652 22.7901 55.085 22.7948 56.3062 23.6259Z" fill="#121619"/>
<path d="M15.4917 17C15.5499 17.0003 15.6082 17.0006 15.6682 17.0008C15.7301 17.0008 15.792 17.0008 15.8558 17.0008C16.0572 17.0009 16.2585 17.0015 16.4599 17.0021C16.5839 17.0022 16.7078 17.0023 16.8318 17.0023C17.2925 17.0027 17.7532 17.0038 18.2139 17.0048C19.243 17.0064 20.272 17.008 21.3322 17.0097C21.3574 21.1356 21.3825 25.2616 21.4084 29.5126C21.71 29.2307 22.0117 28.9488 22.3224 28.6584C22.525 28.5013 22.7204 28.3535 22.9318 28.2119C22.9834 28.1767 23.035 28.1415 23.0882 28.1052C23.2384 28.0036 23.3895 27.9035 23.5412 27.8042C23.6206 27.752 23.7001 27.6999 23.7819 27.6461C26.1995 26.1367 29.2371 25.8569 31.9629 26.4937C34.1298 27.0298 35.8501 28.2386 37.4044 29.8233C37.4742 29.889 37.4742 29.889 37.5454 29.9561C39.8205 32.1325 40.8814 35.6059 40.9941 38.7081C41.0463 41.226 40.7652 43.6021 39.6895 45.8985C39.6527 45.9772 39.6527 45.9772 39.6152 46.0574C38.2534 48.9096 35.718 51.3317 32.7803 52.4006C32.6588 52.4423 32.5371 52.4834 32.4152 52.5238C32.3355 52.5506 32.3355 52.5506 32.2541 52.578C31.2117 52.9042 30.1624 53.0089 29.0779 52.9994C29.02 52.9992 28.9621 52.9989 28.9025 52.9987C27.9748 52.9931 27.1016 52.9218 26.2072 52.6548C26.121 52.6305 26.121 52.6305 26.033 52.6056C24.2918 52.1059 22.6876 51.0857 21.4084 49.7815C21.3832 50.6272 21.3581 51.4729 21.3322 52.3442C19.2459 52.3442 17.1595 52.3442 15.01 52.3442C15.0083 47.854 15.0069 43.3638 15.0061 38.8736C15.006 38.3441 15.0059 37.8146 15.0058 37.2851C15.0058 37.2324 15.0058 37.1797 15.0058 37.1254C15.0054 35.4159 15.0049 33.7065 15.0042 31.997C15.0034 30.1913 15.003 28.3856 15.0028 26.5799C15.0027 25.4975 15.0024 24.4152 15.0018 23.3328C15.0014 22.5917 15.0012 21.8506 15.0013 21.1094C15.0014 20.6812 15.0013 20.2529 15.0009 19.8246C15.0005 19.4332 15.0005 19.0418 15.0008 18.6504C15.0008 18.5082 15.0007 18.3659 15.0005 18.2236C15.0002 18.0316 15.0003 17.8395 15.0006 17.6475C15.0004 17.5911 15.0002 17.5348 15 17.4767C15.0016 17.0093 15.0357 17.0009 15.4917 17ZM23.008 34.1721C22.9458 34.2346 22.8837 34.2971 22.8196 34.3614C22.1682 35.0541 21.7556 35.8442 21.456 36.7446C21.4378 36.7992 21.4196 36.8538 21.4009 36.91C20.7618 38.9629 20.9223 41.4796 21.8654 43.4135C22.6836 44.9599 23.9992 46.2549 25.6749 46.7749C25.9519 46.8546 26.2304 46.924 26.5119 46.9858C26.6144 47.0083 26.6144 47.0083 26.719 47.0313C28.5824 47.271 30.4178 46.931 31.9201 45.7432C33.47 44.4483 34.4038 42.7117 34.6408 40.683C34.7998 38.4704 34.4741 36.2321 33.0293 34.4876C32.2644 33.598 31.3972 32.9355 30.3109 32.5122C30.2637 32.4937 30.2165 32.4751 30.1678 32.456C29.4412 32.1898 28.7076 32.1246 27.9401 32.1288C27.8567 32.1291 27.7732 32.1295 27.6873 32.1299C25.8422 32.157 24.3047 32.852 23.008 34.1721Z" fill="#121619"/>
<path d="M210.442 19.0019C210.54 19.0499 210.54 19.0499 210.64 19.0988C212.385 19.9617 213.952 21.0373 215.371 22.3699C215.537 22.524 215.704 22.6706 215.879 22.8144C216.133 23.0284 216.344 23.2717 216.559 23.5246C216.699 23.6868 216.846 23.8382 217 23.9863C216.779 24.4903 216.324 24.8411 215.914 25.1928C215.63 25.437 215.367 25.6978 215.104 25.9642C214.799 26.2727 214.49 26.5662 214.16 26.8472C213.953 27.0327 213.758 27.2299 213.563 27.4279C213.154 27.8419 212.745 28.2511 212.259 28.5751C212.227 28.5414 212.194 28.5076 212.161 28.4728C211.445 27.7323 210.722 27.0455 209.889 26.439C209.806 26.3775 209.722 26.316 209.636 26.2526C206.633 24.1034 203.001 23.1494 199.334 23.7462C197.666 24.0492 196.097 24.6542 194.719 25.6478C194.674 25.6803 194.628 25.7128 194.582 25.7463C192.036 27.6061 190.425 30.233 189.866 33.329C189.385 36.5886 190.008 40.0397 191.96 42.732C193.569 44.884 195.839 46.3254 198.432 46.9899C198.493 47.0056 198.554 47.0213 198.617 47.0375C199.632 47.2834 200.647 47.3565 201.687 47.3509C201.743 47.3507 201.8 47.3505 201.859 47.3503C204.887 47.3358 207.521 46.3518 209.889 44.4779C209.997 44.3927 209.997 44.3927 210.107 44.3057C210.764 43.7775 211.411 43.22 211.983 42.5988C212.048 42.5401 212.113 42.4813 212.18 42.4208C212.398 42.4324 212.483 42.4874 212.641 42.639C212.693 42.7008 212.744 42.7626 212.798 42.8263C213.12 43.199 213.459 43.548 213.81 43.8944C214.15 44.2314 214.479 44.5687 214.788 44.9353C215.028 45.2018 215.284 45.4517 215.538 45.7042C216.609 46.7685 216.609 46.7685 216.842 47.247C215.001 49.0014 213.083 50.6222 210.835 51.831C210.734 51.8852 210.634 51.9401 210.535 51.9959C208.98 52.8664 207.21 53.351 205.464 53.6556C205.395 53.6684 205.325 53.6813 205.254 53.6945C202.881 54.1156 200.167 54.1002 197.8 53.6556C197.723 53.6412 197.645 53.6267 197.565 53.6119C193.398 52.8144 189.539 50.6939 186.897 47.3261C186.833 47.2472 186.77 47.1683 186.704 47.0869C184.344 44.1204 183.026 40.3056 183.009 36.5132C183.009 36.4344 183.008 36.3555 183.008 36.2743C183.007 36.1078 183.006 35.9414 183.006 35.775C183.005 35.5269 183.003 35.2789 183 35.0308C182.993 33.5745 183.122 32.1404 183.484 30.7262C183.505 30.6437 183.526 30.5613 183.547 30.4763C183.608 30.2376 183.671 29.9996 183.736 29.7619C183.753 29.698 183.771 29.6342 183.789 29.5683C184.45 27.2174 185.772 25.0136 187.426 23.2334C187.582 23.0643 187.731 22.8918 187.879 22.7155C190.88 19.2878 195.791 17.377 200.237 17.0382C203.766 16.8359 207.258 17.4293 210.442 19.0019Z" fill="#121619"/>
<path d="M149 18C151.231 18 153.461 18 155.759 18C156.161 19.0871 156.561 20.1698 156.934 21.2666C157.058 21.6302 157.182 21.9935 157.307 22.3568C157.333 22.4325 157.358 22.5081 157.385 22.5861C157.678 23.4415 157.976 24.2952 158.275 25.1488C158.302 25.2274 158.33 25.3059 158.358 25.3869C158.498 25.7866 158.637 26.1863 158.777 26.586C159.026 27.2976 159.274 28.0094 159.523 28.7211C159.66 29.1151 159.798 29.5091 159.935 29.9032C159.99 30.0608 160.046 30.2185 160.101 30.3761C160.128 30.4542 160.155 30.5322 160.183 30.6126C160.266 30.8491 160.348 31.0856 160.431 31.3221C160.458 31.4001 160.485 31.4782 160.513 31.5586C160.568 31.7162 160.623 31.8738 160.678 32.0315C160.816 32.4259 160.954 32.8204 161.092 33.2148C161.338 33.9205 161.584 34.6263 161.83 35.3322C162.674 37.7555 163.527 40.1757 164.383 42.5946C164.72 41.8124 164.999 41.0138 165.277 40.2087C165.788 38.7273 166.31 37.2503 166.841 35.7759C167.408 34.1975 167.971 32.6176 168.53 31.0363C168.568 30.9298 168.606 30.8232 168.643 30.7166C168.662 30.6638 168.681 30.611 168.7 30.5565C168.776 30.343 168.851 30.1294 168.927 29.9158C168.965 29.809 169.002 29.7022 169.04 29.5954C169.457 28.4183 169.875 27.2417 170.293 26.0652C170.328 25.9678 170.362 25.8704 170.398 25.77C170.538 25.3764 170.678 24.9827 170.818 24.5891C171.065 23.8943 171.312 23.1996 171.559 22.5048C171.619 22.337 171.678 22.1693 171.738 22.0016C171.967 21.3569 171.967 21.3569 172.196 20.7122C172.3 20.4197 172.404 20.1271 172.508 19.8346C172.553 19.7065 172.554 19.7065 172.6 19.5758C172.629 19.4949 172.657 19.414 172.687 19.3307C172.712 19.2617 172.736 19.1927 172.761 19.1216C172.895 18.7476 173.029 18.3738 173.163 18C175.419 18 177.675 18 180 18C179.361 19.852 179.361 19.852 179.158 20.4363C179.133 20.5085 179.108 20.5808 179.082 20.6552C178.524 22.257 177.96 23.8565 177.386 25.4524C176.944 26.6837 176.505 27.9163 176.067 29.1494C176.03 29.2518 175.994 29.3543 175.958 29.4568C175.81 29.8717 175.663 30.2865 175.515 30.7014C175.262 31.4159 175.008 32.1303 174.754 32.8448C174.736 32.8942 174.719 32.9437 174.701 32.9946C174.612 33.244 174.523 33.4934 174.435 33.7428C174.257 34.2417 174.08 34.7406 173.903 35.2395C173.885 35.289 173.867 35.3384 173.849 35.3894C173.595 36.1034 173.342 36.8174 173.088 37.5315C172.401 39.4637 171.715 41.3958 171.025 43.3271C170.691 44.2657 170.356 45.2046 170.023 46.1437C169.875 46.5603 169.727 46.9768 169.579 47.3933C169.552 47.4701 169.552 47.4701 169.524 47.5484C168.878 49.3677 168.226 51.1846 167.569 53C165.441 53 163.313 53 161.12 53C159.629 48.7266 159.629 48.7266 159.546 48.4896C159.491 48.3337 159.437 48.1779 159.383 48.022C159.246 47.6311 159.11 47.2402 158.973 46.8493C158.704 46.0774 158.434 45.3055 158.165 44.5336C157.891 43.7501 157.618 42.9666 157.344 42.183C157.231 41.8571 157.117 41.5312 157.003 41.2052C156.76 40.5089 156.517 39.8126 156.274 39.1163C156.255 39.0619 156.236 39.0075 156.217 38.9515C155.643 37.3075 155.072 35.6626 154.502 34.0172C154.085 32.8148 153.666 31.6138 153.242 30.414C152.795 29.149 152.356 27.8814 151.917 26.6135C151.441 25.2364 150.958 23.8617 150.471 22.4883C149.672 20.2313 149.672 20.2313 149.346 19.2793C149.298 19.1385 149.25 18.9979 149.201 18.8572C149.174 18.7766 149.146 18.6959 149.118 18.6128C149.095 18.5448 149.072 18.4769 149.048 18.4069C149 18.2365 149 18.2365 149 18Z" fill="#121619"/>
<path d="M106.663 28.7194C106.706 28.7533 106.75 28.7871 106.794 28.822C109.317 30.8066 110.994 33.707 111.692 36.9743C111.705 37.029 111.717 37.0837 111.729 37.1401C112.148 39.0815 112.058 41.3625 111.617 43.2868C111.604 43.3472 111.591 43.4075 111.577 43.4698C111.147 45.3802 110.286 47.1859 109.14 48.7091C109.106 48.7538 109.073 48.7985 109.039 48.8446C107.162 51.3348 104.608 52.9534 101.708 53.6458C101.657 53.659 101.606 53.6723 101.553 53.6859C99.8514 54.1165 97.6973 54.1055 96.0028 53.6458C95.9085 53.621 95.9085 53.621 95.8124 53.5957C94.9107 53.3533 94.0589 53.0359 93.2252 52.5937C93.1778 52.5689 93.1305 52.544 93.0817 52.5185C92.1148 52.0061 91.2526 51.3693 90.4644 50.5761C90.3139 50.4251 90.1596 50.2826 90.0019 50.1405C87.7426 47.9971 86.2172 44.6638 86.0185 41.4254C85.8647 37.4296 86.6456 33.736 89.2137 30.7174C89.3491 30.5633 89.4852 30.4098 89.6219 30.2571C89.6847 30.1843 89.7475 30.1115 89.8122 30.0364C94.2064 25.0776 101.614 24.7465 106.663 28.7194ZM93.8574 34.7338C93.5514 35.1247 93.3106 35.5606 93.0751 36.0031C93.0373 36.0739 92.9996 36.1448 92.9607 36.2178C92.0099 38.1343 92.004 40.6426 92.5546 42.695C92.8654 43.7035 93.3185 44.5983 93.9759 45.3909C94.0591 45.492 94.0591 45.492 94.1439 45.5952C95.3046 46.9263 96.857 47.5905 98.5328 47.6797C100.509 47.7423 102.196 47.095 103.66 45.6337C105.164 43.9327 105.651 41.7896 105.627 39.4989C105.58 37.4573 104.886 35.6611 103.559 34.1898C102.829 33.4451 101.988 32.9302 101.032 32.6041C100.923 32.5652 100.923 32.5652 100.811 32.5257C98.2666 31.7831 95.6072 32.6497 93.8574 34.7338Z" fill="#121619"/>
<path d="M122.827 26.0019C123.019 25.9963 123.204 26.0035 123.395 26.0163C123.446 26.0195 123.496 26.0227 123.548 26.026C125.819 26.1832 127.992 26.9623 129.737 28.438C129.778 28.4722 129.818 28.5063 129.86 28.5415C130.46 29.055 130.97 29.6153 131.46 30.2348C131.344 30.5046 131.191 30.6761 130.981 30.8805C130.917 30.9437 130.853 31.0068 130.787 31.0719C130.72 31.1372 130.653 31.2026 130.584 31.2699C130.05 31.7876 130.05 31.7876 129.549 32.3355C129.181 32.7647 128.774 33.1572 128.372 33.5549C128.291 33.6349 128.211 33.7148 128.13 33.7948C127.935 33.9885 127.74 34.1819 127.545 34.3752C127.214 34.1329 126.892 33.8927 126.596 33.6086C125.526 32.6478 124.243 31.9863 122.786 32.0117C122.208 32.0573 121.673 32.2407 121.203 32.5784C120.919 32.9421 120.826 33.2456 120.853 33.7081C120.926 34.0999 121.077 34.3297 121.36 34.6096C121.546 34.7351 121.729 34.85 121.923 34.9614C122.009 35.0114 122.009 35.0114 122.097 35.0624C123.008 35.5811 123.958 36.0283 124.9 36.4875C127.485 37.7504 130.472 39.3036 131.514 42.1821C132.238 44.3043 132.166 46.4987 131.21 48.5297C130.156 50.5277 128.342 51.8713 126.219 52.5627C125.126 52.8749 124.043 53.0078 122.907 52.9985C122.725 52.9972 122.542 52.9985 122.359 53C119.494 53.004 117.054 51.8731 115.032 49.8773C114.984 49.8294 114.935 49.7815 114.885 49.7322C114.555 49.4012 114.271 49.0511 114 48.6713C114.343 47.9594 114.974 47.366 115.492 46.7725C115.876 46.3322 116.254 45.8874 116.631 45.441C116.829 45.2073 117.027 44.9741 117.225 44.7409C117.298 44.6549 117.371 44.5689 117.443 44.483C117.496 44.4215 117.548 44.3599 117.602 44.2965C117.905 44.4188 118.08 44.6121 118.301 44.8483C119.511 46.089 121.33 47.0977 123.087 47.1333C123.931 47.1259 124.744 46.9425 125.353 46.3277C125.674 45.9843 125.773 45.6728 125.798 45.2047C125.766 44.4887 125.438 44.0437 124.937 43.5544C124.607 43.2794 124.265 43.0541 123.895 42.8385C123.838 42.8048 123.78 42.7711 123.721 42.7364C123.097 42.3774 122.453 42.0625 121.806 41.7485C120.68 41.2003 119.561 40.6554 118.541 39.9218C118.493 39.8878 118.445 39.8538 118.396 39.8188C116.584 38.5187 115.125 36.7899 114.685 34.5559C114.423 32.7499 114.791 30.8861 115.879 29.3956C117.382 27.5078 119.313 26.3798 121.719 26.0903C122.088 26.0516 122.457 26.0266 122.827 26.0019Z" fill="#121619"/>
<path d="M137.609 18.0071C137.693 18.0073 137.693 18.0073 137.779 18.0075C137.838 18.0074 137.897 18.0073 137.958 18.0071C138.153 18.0068 138.349 18.007 138.544 18.0073C138.679 18.0072 138.814 18.0071 138.95 18.0071C139.233 18.0069 139.517 18.0071 139.801 18.0075C140.166 18.0079 140.53 18.0077 140.895 18.0072C141.174 18.0069 141.453 18.007 141.733 18.0072C141.867 18.0073 142.002 18.0072 142.136 18.007C142.324 18.0068 142.511 18.0071 142.699 18.0075C142.755 18.0074 142.811 18.0072 142.869 18.0071C143.252 18.0087 143.252 18.0087 143.335 18.0953C143.343 18.2163 143.345 18.3376 143.344 18.4588C143.345 18.5767 143.345 18.5767 143.345 18.697C143.344 18.8274 143.344 18.8274 143.344 18.9605C143.344 19.0515 143.344 19.1425 143.344 19.2363C143.344 19.4865 143.344 19.7367 143.343 19.9869C143.343 20.2482 143.343 20.5094 143.342 20.7707C143.342 21.2657 143.342 21.7607 143.341 22.2558C143.34 22.8192 143.34 23.3826 143.339 23.946C143.338 25.1054 143.337 26.2647 143.335 27.424C143.403 27.4237 143.403 27.4237 143.471 27.4235C143.934 27.4217 144.398 27.4206 144.862 27.4197C145.035 27.4193 145.208 27.4188 145.381 27.4181C145.629 27.4172 145.878 27.4167 146.126 27.4164C146.204 27.416 146.282 27.4156 146.362 27.4152C146.434 27.4152 146.506 27.4152 146.58 27.4152C146.643 27.415 146.707 27.4148 146.772 27.4146C146.917 27.424 146.917 27.424 146.991 27.5017C146.999 27.6734 147 27.8454 147 28.0172C147 28.0711 147 28.1249 147 28.1804C147 28.3592 146.999 28.5379 146.999 28.7167C146.999 28.8403 146.999 28.964 146.998 29.0876C146.998 29.4136 146.997 29.7396 146.997 30.0657C146.996 30.4565 146.995 30.8474 146.995 31.2382C146.994 31.8325 146.993 32.4268 146.991 33.0212C145.785 33.0212 144.579 33.0212 143.335 33.0212C143.335 39.6142 143.335 46.2072 143.335 53C141.292 53 139.248 53 137.143 53C137.143 46.407 137.143 39.814 137.143 33.0212C136.109 33.0212 135.074 33.0212 134.009 33.0212C134.006 31.6468 134.006 31.6468 134.005 31.063C134.005 30.6639 134.004 30.2648 134.003 29.8657C134.003 29.5442 134.002 29.2226 134.002 28.901C134.002 28.778 134.001 28.6551 134.001 28.5321C134.001 28.3605 134 28.1888 134.001 28.0172C134 27.9193 134 27.8215 134 27.7206C134.009 27.5017 134.009 27.5017 134.084 27.424C134.31 27.4171 134.534 27.415 134.76 27.4164C134.828 27.4165 134.896 27.4166 134.965 27.4167C135.183 27.4172 135.4 27.4181 135.618 27.4191C135.765 27.4195 135.912 27.4199 136.059 27.4202C136.42 27.421 136.781 27.4224 137.143 27.424C137.143 27.376 137.143 27.328 137.142 27.2785C137.141 26.112 137.14 24.9456 137.139 23.7791C137.138 23.215 137.138 22.6509 137.137 22.0868C137.136 21.5953 137.136 21.1039 137.136 20.6124C137.136 20.352 137.135 20.0916 137.135 19.8312C137.134 19.541 137.134 19.2507 137.134 18.9605C137.134 18.8736 137.134 18.7866 137.133 18.697C137.134 18.6184 137.134 18.5398 137.134 18.4588C137.134 18.3901 137.134 18.3214 137.134 18.2506C137.152 17.9327 137.35 18.0082 137.609 18.0071Z" fill="#121619"/>
<path d="M65.6996 17.7144C66.4203 18.3122 66.8413 19.0157 66.9682 19.9059C66.9804 20.1653 66.9803 20.4244 66.9801 20.684C66.9803 20.762 66.9806 20.8401 66.9808 20.9205C66.9816 21.1818 66.9817 21.4432 66.9818 21.7045C66.9822 21.892 66.9826 22.0794 66.9831 22.2669C66.9842 22.7761 66.9847 23.2854 66.9851 23.7946C66.9853 24.1129 66.9857 24.4312 66.9861 24.7495C66.9871 25.6318 66.988 26.514 66.9883 27.3962C66.9883 27.4809 66.9883 27.4809 66.9883 27.5672C66.9884 27.652 66.9884 27.652 66.9884 27.7385C66.9884 27.8531 66.9885 27.9677 66.9885 28.0823C66.9885 28.1391 66.9885 28.1959 66.9886 28.2545C66.9889 29.1747 66.9904 30.0949 66.9923 31.0151C66.9943 31.9611 66.9954 32.9071 66.9955 33.8531C66.9956 34.3837 66.9961 34.9144 66.9976 35.445C66.999 35.9444 66.9992 36.4438 66.9984 36.9432C66.9984 37.1261 66.9987 37.309 66.9996 37.4918C67.0056 38.8848 66.9644 40.0548 65.9004 41.1356C65.1127 41.8281 64.2027 42.0178 63.1505 41.9987C62.2398 41.9382 61.438 41.5129 60.8155 40.9057C60.3527 40.3888 60.0232 39.7269 60.022 39.0499C60.0217 38.981 60.0214 38.9122 60.021 38.8412C60.0211 38.7659 60.0212 38.6906 60.0213 38.6131C60.021 38.5328 60.0208 38.4526 60.0205 38.3699C60.0198 38.1001 60.0196 37.8303 60.0195 37.5606C60.0191 37.3675 60.0187 37.1744 60.0182 36.9813C60.0171 36.4561 60.0166 35.9308 60.0162 35.4056C60.016 35.0774 60.0156 34.7493 60.0152 34.4212C60.0142 33.5122 60.0133 32.6033 60.0131 31.6943C60.013 31.6362 60.013 31.578 60.013 31.5181C60.013 31.4598 60.013 31.4015 60.0129 31.3414C60.0129 31.2232 60.0129 31.1051 60.0128 30.987C60.0128 30.8991 60.0128 30.8991 60.0128 30.8094C60.0124 29.8605 60.011 28.9115 60.009 27.9626C60.007 26.9878 60.0059 26.013 60.0058 25.0382C60.0058 24.4911 60.0053 23.944 60.0037 23.3969C60.0023 22.8821 60.0022 22.3673 60.0029 21.8525C60.003 21.6637 60.0026 21.475 60.0018 21.2863C60.0007 21.0281 60.0012 20.77 60.0021 20.5119C60.0014 20.4376 60.0007 20.3634 60 20.2869C60.0078 19.3006 60.3917 18.5805 61.0956 17.8563C62.3567 16.732 64.3505 16.7464 65.6996 17.7144Z" fill="#121619"/>
</svg>
