<svg width="127" height="79" viewBox="0 0 127 79" fill="none" xmlns="http://www.w3.org/2000/svg">
<g clip-path="url(#clip0_1557_896)">
<path d="M42.1481 33.022V45.6733H50.9474V42.818H45.5386V33.022H42.1481ZM82.1078 33.022H76.9711V45.6733H80.3728V42.0393H82.1191C85.3508 42.0393 87.1424 40.1433 87.1424 37.525C87.1424 34.9067 85.3395 33.022 82.1078 33.022ZM81.9377 39.2179H80.3615V35.8886H81.9377C82.1689 35.8696 82.4016 35.8986 82.621 35.9736C82.8404 36.0487 83.0418 36.1682 83.2124 36.3246C83.3831 36.481 83.5193 36.671 83.6124 36.8825C83.7056 37.0939 83.7537 37.3223 83.7537 37.5532C83.7537 37.7841 83.7056 38.0125 83.6124 38.224C83.5193 38.4355 83.3831 38.6254 83.2124 38.7818C83.0418 38.9383 82.8404 39.0578 82.621 39.1328C82.4016 39.2079 82.1689 39.2368 81.9377 39.2179ZM103.528 38.0216L101.838 37.4686C101.226 37.2654 100.942 37.0172 100.942 36.5319C100.942 36.0466 101.362 35.6629 102.178 35.6629C102.589 35.6486 102.999 35.7229 103.379 35.8807C103.758 36.0385 104.099 36.276 104.378 36.577L106.328 34.5456C105.782 33.9733 105.116 33.5272 104.377 33.2386C103.639 32.9501 102.845 32.826 102.054 32.8753C99.7857 32.8753 97.7106 34.1506 97.7106 36.6447C97.7106 38.7326 99.026 39.8499 100.874 40.4593L102.371 40.9671C103.21 41.238 103.618 41.4976 103.618 42.0957C103.618 42.8067 103.017 43.1001 102.008 43.1001C101.487 43.1025 100.973 42.9783 100.51 42.7384C100.048 42.4985 99.6514 42.1501 99.3548 41.7233L96.8375 43.5064C97.4567 44.2824 98.2529 44.9001 99.1601 45.3084C100.067 45.7167 101.059 45.9037 102.054 45.8539C105.455 45.8539 106.884 44.1836 106.884 41.8587C106.929 40.0756 106.068 38.8567 103.528 38.0216ZM127 35.866V33.022H117.827V45.6733H127V42.818H121.228V40.6511H125.821V37.9539H121.228V35.866H127ZM0 45.6733H9.17348V42.818H3.40179V40.6511H7.9942V37.9539H3.40179V35.866H9.17348V33.022H0V45.6733ZM31.1604 43.1001L28.6771 41.3509C28.2504 41.9555 27.6413 42.4092 26.9382 42.6459C26.235 42.8827 25.4742 42.8904 24.7664 42.6677C24.0586 42.4451 23.4404 42.0037 23.0017 41.4077C22.5629 40.8118 22.3264 40.0921 22.3264 39.3533C22.3264 38.6144 22.5629 37.8948 23.0017 37.2988C23.4404 36.7029 24.0586 36.2615 24.7664 36.0389C25.4742 35.8162 26.235 35.8239 26.9382 36.0606C27.6413 36.2974 28.2504 36.7511 28.6771 37.3557L31.1604 35.6064C30.3612 34.4818 29.2232 33.6393 27.9111 33.2011C26.599 32.7629 25.1808 32.7516 23.8618 33.1689C22.5428 33.5862 21.3914 34.4104 20.5743 35.5222C19.7572 36.634 19.3168 37.9758 19.3168 39.3533C19.3168 40.7308 19.7572 42.0725 20.5743 43.1844C21.3914 44.2962 22.5428 45.1204 23.8618 45.5377C25.1808 45.9549 26.599 45.9437 27.9111 45.5055C29.2232 45.0672 30.3612 44.2248 31.1604 43.1001ZM60.7559 29.6363H64.1577C61.9847 21.1566 57.0347 13.6393 50.0897 8.27227C43.1448 2.90524 34.6009 -0.00549214 25.8082 7.7799e-06H24.1187C32.6147 0.364882 40.7665 3.44467 47.3657 8.78286C53.965 14.1211 58.6604 21.4335 60.7559 29.6363ZM61.4589 33.022C61.7968 35.1121 61.9669 37.2248 61.9692 39.342C61.9654 41.4625 61.7948 43.5794 61.4589 45.6733H64.8607C65.5411 41.4829 65.5411 37.2113 64.8607 33.022H61.4589ZM24.1187 78.6502H25.8082C34.5906 78.65 43.1231 75.7407 50.0605 70.3809C56.998 65.021 61.9457 57.5155 64.1237 49.0477H60.7219C58.6267 57.2415 53.9351 64.5455 47.3422 69.8775C40.7493 75.2094 32.6059 78.2856 24.1187 78.6502Z" fill="#121619"/>
</g>
<defs>
<clipPath id="clip0_1557_896">
<rect width="127" height="79" fill="white"/>
</clipPath>
</defs>
</svg>
