<svg width="256" height="49" viewBox="0 0 256 49" fill="none" xmlns="http://www.w3.org/2000/svg">
<path d="M96.9961 7.5957H107.704L109.696 8.09846L111.066 8.85258L112.062 9.85809L112.809 11.3663L112.934 11.8691V13.8801L112.436 15.2627L111.688 16.2682L110.568 17.2737L112.187 18.1535L113.307 19.2847L113.805 20.2902L114.054 21.2957V23.181L113.556 24.815L112.685 25.9462L111.564 26.826L109.945 27.4544L108.078 27.8315H96.9961V7.5957Z" fill="#121619"/>
<path d="M220.512 7.5957H231.095L232.838 7.97277L234.333 8.60121L235.453 9.48103L236.325 10.4865L236.947 11.7434L237.321 13.2517V15.3884L236.947 16.8966L236.076 18.5306L235.08 19.5361L233.461 20.5416H233.087L234.831 23.181L236.698 25.9462L237.819 27.5801V27.8315H232.714L231.718 26.4489L230.846 25.0664L228.48 21.5471L224.994 21.4214V27.8315H220.512V7.5957Z" fill="#121619"/>
<path d="M117.666 7.5957H128.374L130.366 8.09846L131.86 8.85258L133.105 9.98378L133.853 11.115L134.351 12.4975L134.475 13.126V15.3884L133.977 17.2737L133.105 18.6563L132.234 19.5361L130.864 20.4159L130.242 20.5416L131.985 23.181L133.354 25.192L134.973 27.5801V27.8315H129.868L128.25 25.4434L125.635 21.5471L122.024 21.4214V27.8315H117.666V7.5957Z" fill="#121619"/>
<path d="M19.3008 7.5957H28.8882L30.8804 8.09846L32.3745 8.85258L33.6196 9.98378L34.4912 11.115L35.1138 12.8746L35.2383 13.7544V15.3884L34.9893 16.8966L33.9932 18.9076L32.8726 20.0388L31.6274 20.793L30.5068 21.2957L29.0127 21.6728L28.1411 21.7985L23.9077 21.9242L23.6587 27.8315H19.3008V7.5957Z" fill="#121619"/>
<path d="M75.082 7.5957H79.5645V15.5141H87.6577V7.5957H92.1401V27.8315H87.6577V19.7875H79.5645V27.8315H75.082V7.5957Z" fill="#121619"/>
<path d="M201.338 7.5957H216.528V11.492L216.404 11.6177H205.696V15.6397H215.159V19.6618H205.696V23.8095H216.528L216.653 23.9352V27.8315H201.338V7.5957Z" fill="#121619"/>
<path d="M138.459 7.5957H153.525V11.6177H142.817V15.6397H152.28V19.6618H142.817V23.8095H153.649L153.774 24.3122V27.8315H138.459V7.5957Z" fill="#121619"/>
<path d="M43.3315 7.46875H47.5649L49.3081 11.7421L50.9268 15.5128L53.7905 22.3L55.9072 27.3275L56.0317 27.8302H51.4248L50.9268 26.8247L49.5571 23.4311L41.0903 23.3055L40.7168 24.4367L39.3472 27.7045L39.2227 27.8302H34.7402L35.7363 25.3165L37.355 21.5458L39.7207 15.8899L41.3394 12.1192L43.0825 7.9715L43.3315 7.46875Z" fill="#121619"/>
<path d="M164.607 7.46875H168.716L169.338 8.97701L171.082 12.999L172.451 16.2669L174.319 20.666L176.809 26.5733L177.183 27.8302H172.576L170.833 23.5568V23.3055L162.366 23.4311L160.498 27.8302H156.016L156.14 27.2018L157.51 24.0596L159.875 18.4036L162.864 11.3651L164.482 7.59444L164.607 7.46875Z" fill="#121619"/>
<path d="M180.42 7.5957H184.778V16.2682L186.895 14.1315L187.766 13.126L191.75 8.85258L192.871 7.5957H198.225L197.478 8.47552L195.486 10.6122L194.116 11.9948L193.245 13.0003L190.879 15.3884L190.256 16.2682L191.626 18.1535L195.112 22.9297L196.606 24.9407L198.35 27.3287L198.599 27.8315H193.245L192 26.0719L190.256 23.6838L188.638 21.4214L187.144 19.4104L186.272 20.1645L184.902 21.5471L184.778 27.8315H180.42V7.5957Z" fill="#121619"/>
<path d="M55.1597 7.5957H71.7197V11.7434L65.7432 11.8691L65.6187 27.8315H61.2607V11.7434H55.0352V8.97827L55.1597 7.5957Z" fill="#121619"/>
<path d="M41.7124 36.8809H56.4048V38.6405L37.23 38.3891L25.4014 38.1377L18.5532 37.8864L18.1797 37.635L20.9189 37.3836L36.1094 37.0065L41.7124 36.8809Z" fill="#121619"/>
<path d="M200.715 36.8809H214.038L232.216 37.2579L236.325 37.3836L239.064 37.635L238.566 37.8864L231.843 38.1377L219.641 38.3891L200.839 38.6405L200.715 38.5148V36.8809Z" fill="#121619"/>
<path d="M122.148 11.6172H127.377L128.623 11.9943L129.619 12.8741L129.992 14.0053V15.0108L129.619 16.142L128.623 17.0218L127.502 17.3988H122.148L122.023 17.2732V11.7429L122.148 11.6172Z" fill="#F1F4F8"/>
<path d="M224.994 11.6172H230.224L231.344 11.9943L232.091 12.497L232.589 13.1254L232.838 13.8796V15.1365L232.34 16.2676L231.469 17.0218L230.348 17.3988H224.994V11.6172Z" fill="#F1F4F8"/>
<path d="M23.7832 11.6172H27.8921L29.1372 11.9943L29.8843 12.497L30.5068 13.2511L30.7559 14.0053V15.2621L30.2578 16.519L29.3862 17.2732L28.5146 17.6502L27.8921 17.7759H23.7832V11.6172Z" fill="#F1F4F8"/>
<path d="M154.646 33.6133H158.506L159.751 33.9903L160.623 34.7445L160.996 35.75L160.872 36.8812L160.374 37.6353L159.751 38.1381L158.879 38.3894L159.377 39.2692L160.747 41.0289L161.121 41.6573L160.996 41.783H160.125L158.879 40.1491L157.883 38.7665L155.393 38.6408V41.783H154.646L154.521 41.6573V34.2417L154.646 33.6133Z" fill="#121619"/>
<path d="M101.355 19.5352H107.581L108.95 20.0379L109.448 20.6663L109.697 21.2948V22.1746L109.199 23.1801L107.954 23.8086L107.332 23.9342H101.355L101.23 23.8086V19.6608L101.355 19.5352Z" fill="#F1F4F8"/>
<path d="M101.729 11.4922H105.215L107.083 11.6179L108.079 12.2463L108.577 13.1261V14.006L108.079 15.0115L107.207 15.5142L106.086 15.7656H101.355L101.23 15.6399V13.2518L101.355 11.6179L101.729 11.4922Z" fill="#F1F4F8"/>
<path d="M98.6147 33.6133H99.3618L100.607 35.1215L103.346 38.6408L104.342 39.8977L104.467 33.6133H105.338V41.6573L104.716 41.783L103.72 40.6518L99.6108 35.3729V35.1215H99.3618V41.783H98.6147L98.4902 41.6573V33.739L98.6147 33.6133Z" fill="#121619"/>
<path d="M173.199 33.6133H178.926V34.3674L178.802 34.4931L174.07 34.6188V37.1325L178.428 37.2582V38.0124H174.07V40.9032H177.308L178.926 41.0289V41.6573L177.806 41.783H173.199L173.074 41.6573V33.9903L173.199 33.6133Z" fill="#121619"/>
<path d="M80.5605 33.6133H86.4126L86.2881 34.4931H81.5566L81.4321 37.2582H85.9146V38.0124L81.5566 38.1381V40.9032L86.4126 41.0289V41.6573L85.541 41.783H80.5605V33.6133Z" fill="#121619"/>
<path d="M45.1992 13H45.4482L47.0669 16.8963L47.9385 19.033V19.4101H42.8335L42.709 19.1587L44.5767 14.6339L45.1992 13Z" fill="#F1F4F8"/>
<path d="M166.475 13L166.848 13.3771L168.716 18.0275L169.214 19.2844L169.089 19.4101H163.984L164.109 18.656L165.105 16.2679L166.475 13Z" fill="#F1F4F8"/>
<path d="M135.471 33.6133H136.342L136.467 39.2692L136.965 40.2748L137.587 40.7775L137.961 40.9032H139.704L140.451 40.5261L140.949 39.8977L141.198 39.0179L141.323 33.6133H142.194V38.6408L141.945 39.8977L141.323 40.9032L140.327 41.6573L139.206 41.9087H138.334L137.089 41.5316L136.093 40.7775L135.595 39.772L135.471 39.0179V33.6133Z" fill="#121619"/>
<path d="M192.995 33.4863H194.24L195.609 33.9891L196.356 34.4918L195.734 35.1203L194.489 34.4918L193.119 34.3661L192.123 34.8689L191.874 35.246V36.1258L192.497 36.7542L194.115 37.257L195.485 37.7597L196.232 38.2625L196.605 39.1423V40.0221L196.107 41.0276L195.236 41.6561L194.115 41.9074L192.746 41.7817L191.625 41.4047L190.629 40.7762L190.753 40.2735L191.251 40.0221L192.372 40.7762L192.746 40.9019H194.738L195.36 40.5249L195.609 40.0221V39.268L195.111 38.6395L193.119 38.0111L191.874 37.5083L191.127 36.8799L190.878 36.3772V35.1203L191.376 34.3661L191.999 33.8634L192.995 33.4863Z" fill="#121619"/>
<path d="M157.011 34.3672H158.007L159.252 34.6186L159.875 35.247L160.124 35.8754L159.875 37.0066L159.128 37.6351L158.754 37.7608H155.393V34.4929L157.011 34.3672Z" fill="#F1F4F8"/>
<path d="M61.0117 33.6133H62.0078L62.7549 35.3729L64.6226 39.8977L64.7471 40.5261L64.9961 40.4004L65.9922 37.8867L67.7354 33.739L67.8599 33.6133H68.7314L67.7354 36.127L65.3696 41.6573L65.2451 41.783H64.498L63.8755 40.5261L61.7588 35.4986L61.0117 33.6133Z" fill="#121619"/>
<path d="M117.417 33.6133H123.643V34.3674L123.394 34.4931H120.904V41.783H120.032V34.4931H118.787L117.293 34.3674L117.417 33.6133Z" fill="#121619"/>
</svg>
