<svg width="1318" height="492" viewBox="0 0 1318 492" fill="none" xmlns="http://www.w3.org/2000/svg">
<rect width="1318" height="492" rx="16" fill="#5933F2"/>
<path d="M739.707 234.707C740.098 234.317 740.098 233.683 739.707 233.293L733.343 226.929C732.953 226.538 732.319 226.538 731.929 226.929C731.538 227.319 731.538 227.953 731.929 228.343L737.586 234L731.929 239.657C731.538 240.047 731.538 240.681 731.929 241.071C732.319 241.462 732.953 241.462 733.343 241.071L739.707 234.707ZM415 235L739 235L739 233L415 233L415 235Z" fill="#B4A3F9"/>
<path d="M898.293 233.293C897.902 233.683 897.902 234.317 898.293 234.707L904.657 241.071C905.047 241.462 905.681 241.462 906.071 241.071C906.462 240.681 906.462 240.047 906.071 239.657L900.414 234L906.071 228.343C906.462 227.953 906.462 227.319 906.071 226.929C905.681 226.538 905.047 226.538 904.657 226.929L898.293 233.293ZM899 235L947 235L947 233L899 233L899 235Z" fill="#B4A3F9"/>
<mask id="path-4-inside-1_2254_35744" fill="white">
<rect x="759" y="176" width="120" height="115.714" rx="1.71429"/>
</mask>
<rect x="759" y="176" width="120" height="115.714" rx="1.71429" stroke="#DED6FC" stroke-width="5.14286" mask="url(#path-4-inside-1_2254_35744)"/>
<rect x="760.714" y="187.143" width="117.429" height="2.57143" fill="#DED6FC"/>
<rect x="759" y="232.572" width="60.8571" height="2.57143" fill="#DED6FC"/>
<rect x="765.857" y="281.43" width="33.4286" height="2.57143" fill="#DED6FC"/>
<rect x="801.857" y="279.715" width="2.57143" height="6" fill="#DED6FC"/>
<rect x="807" y="281.43" width="72" height="2.57143" fill="#DED6FC"/>
<rect x="760.714" y="273.715" width="117.429" height="2.57143" fill="#DED6FC"/>
<path d="M766.714 217.143H773.142L777.428 208.79L782.571 217.143L787.285 206.001L792 214.572L794.571 208.79L796.285 204.504L801.428 218.429L805.714 208.572L808.285 213.286L813.428 211.143" stroke="#DED6FC" stroke-width="2.57143"/>
<circle cx="767.572" cy="182.857" r="1.71429" fill="#DED6FC"/>
<circle cx="772.714" cy="182.857" r="1.71429" fill="#DED6FC"/>
<circle cx="777.858" cy="182.857" r="1.71429" fill="#DED6FC"/>
<rect x="818.143" y="189.715" width="2.57143" height="84" fill="#DED6FC"/>
<ellipse cx="862.137" cy="223.571" rx="1.96078" ry="2.14286" fill="#DED6FC"/>
<ellipse cx="849.979" cy="211.999" rx="2.35294" ry="2.57143" fill="#DED6FC"/>
<ellipse cx="861.352" cy="215.858" rx="1.96078" ry="2.14286" fill="#DED6FC"/>
<ellipse cx="855.861" cy="214.143" rx="1.96078" ry="2.14286" fill="#DED6FC"/>
<ellipse cx="856.645" cy="222.715" rx="1.96078" ry="2.14286" fill="#DED6FC"/>
<ellipse cx="862.137" cy="231.285" rx="1.96078" ry="2.14286" fill="#DED6FC"/>
<ellipse cx="867.236" cy="231.714" rx="1.56863" ry="1.71429" fill="#DED6FC"/>
<ellipse cx="856.645" cy="231.285" rx="1.96078" ry="2.14286" fill="#DED6FC"/>
<ellipse cx="851.154" cy="239" rx="1.96078" ry="2.14286" fill="#DED6FC"/>
<ellipse cx="844.096" cy="230.428" rx="1.96078" ry="2.14286" fill="#DED6FC"/>
<ellipse cx="838.997" cy="239.429" rx="2.35294" ry="2.57143" fill="#DED6FC"/>
<ellipse cx="851.154" cy="221.858" rx="1.96078" ry="2.14286" fill="#DED6FC"/>
<ellipse cx="837.43" cy="229.999" rx="2.35294" ry="2.57143" fill="#DED6FC"/>
<ellipse cx="838.997" cy="219.714" rx="2.35294" ry="2.57143" fill="#DED6FC"/>
<ellipse cx="832.723" cy="218.857" rx="2.35294" ry="2.57143" fill="#DED6FC"/>
<ellipse cx="831.156" cy="229.144" rx="2.35294" ry="2.57143" fill="#DED6FC"/>
<ellipse cx="832.723" cy="240.286" rx="2.35294" ry="2.57143" fill="#DED6FC"/>
<ellipse cx="850.371" cy="230.428" rx="1.96078" ry="2.14286" fill="#DED6FC"/>
<ellipse cx="844.88" cy="239" rx="1.96078" ry="2.14286" fill="#DED6FC"/>
<ellipse cx="837.43" cy="208.571" rx="2.35294" ry="2.57143" fill="#DED6FC"/>
<ellipse cx="852.329" cy="246.287" rx="1.56863" ry="1.71429" fill="#DED6FC"/>
<ellipse cx="857.82" cy="247.142" rx="1.56863" ry="1.71429" fill="#DED6FC"/>
<ellipse cx="848.411" cy="253.142" rx="1.56863" ry="1.71429" fill="#DED6FC"/>
<ellipse cx="842.92" cy="253.999" rx="1.56863" ry="1.71429" fill="#DED6FC"/>
<ellipse cx="837.429" cy="254.857" rx="1.56863" ry="1.71429" fill="#DED6FC"/>
<ellipse cx="853.903" cy="253.142" rx="1.56863" ry="1.71429" fill="#DED6FC"/>
<ellipse cx="859.394" cy="253.999" rx="1.56863" ry="1.71429" fill="#DED6FC"/>
<ellipse cx="835.471" cy="248.428" rx="1.96078" ry="2.14286" fill="#DED6FC"/>
<ellipse cx="840.962" cy="247.571" rx="1.96078" ry="2.14286" fill="#DED6FC"/>
<ellipse cx="846.446" cy="246.715" rx="1.96078" ry="2.14286" fill="#DED6FC"/>
<ellipse cx="863.311" cy="247.999" rx="1.56863" ry="1.71429" fill="#DED6FC"/>
<ellipse cx="867.236" cy="239.429" rx="1.56863" ry="1.71429" fill="#DED6FC"/>
<ellipse cx="843.705" cy="210.286" rx="2.35294" ry="2.57143" fill="#DED6FC"/>
<ellipse cx="845.272" cy="220.571" rx="2.35294" ry="2.57143" fill="#DED6FC"/>
<ellipse cx="862.137" cy="239" rx="1.96078" ry="2.14286" fill="#DED6FC"/>
<ellipse cx="856.645" cy="239" rx="1.96078" ry="2.14286" fill="#DED6FC"/>
<path d="M776.573 259.446L774.83 257.541L779.102 252.868L774.83 248.196L776.577 246.287L782.595 252.868L776.573 259.446ZM792.859 260.893H782.564V263.593H792.859V260.893Z" fill="#DED6FC"/>
<rect x="936" y="126" width="168" height="28" rx="14" fill="#DED6FC"/>
<path d="M945.358 145V134.948H946.702V143.824H951.714V145H945.358ZM956.175 136.404V134.948H957.547V136.404H956.175ZM953.529 145V143.922H956.231V138.756H953.529V137.678H957.491V143.922H960.193V145H953.529ZM965.605 145H964.359L961.335 137.678H962.665L965.003 143.488L967.313 137.678H968.629L965.605 145ZM973.566 145.154C971.466 145.154 970.038 143.6 970.038 141.346C970.038 139.162 971.466 137.538 973.51 137.538C975.61 137.538 976.716 139.092 976.716 141.122V141.542H971.256C971.34 143.082 972.25 144.062 973.566 144.062C974.602 144.062 975.33 143.53 975.568 142.662L976.66 143.054C976.198 144.356 975.064 145.154 973.566 145.154ZM973.51 138.616C972.376 138.616 971.564 139.33 971.326 140.576H975.442C975.414 139.54 974.826 138.616 973.51 138.616ZM992.091 134.948H993.435V145H992.091V140.394H988.255V145H986.911V134.948H988.255V139.218H992.091V134.948ZM1001.47 137.678V145H1000.21V143.992C999.785 144.608 999.071 145.154 998.035 145.154C996.481 145.154 995.585 144.076 995.585 142.522V137.678H996.845V142.256C996.845 143.292 997.293 143.992 998.371 143.992C999.281 143.992 1000.21 143.306 1000.21 142.088V137.678H1001.47ZM1004.65 140.072V145H1003.5V137.664H1004.65V138.462C1004.89 137.972 1005.34 137.538 1006.01 137.538C1006.67 137.538 1007.12 137.93 1007.37 138.546C1007.59 138.056 1008.15 137.538 1008.88 137.538C1009.92 137.538 1010.48 138.406 1010.48 139.624V145H1009.31V139.988C1009.31 139.246 1009.17 138.7 1008.53 138.7C1007.97 138.7 1007.56 139.218 1007.56 140.072V145H1006.4V139.988C1006.4 139.246 1006.25 138.7 1005.6 138.7C1005.03 138.7 1004.65 139.218 1004.65 140.072ZM1014.43 145.126C1013.07 145.126 1011.97 144.342 1011.97 143.026C1011.97 141.57 1013.16 140.954 1014.78 140.646L1016.74 140.268V139.96C1016.74 139.12 1016.22 138.63 1015.19 138.63C1014.25 138.63 1013.63 139.092 1013.38 139.904L1012.21 139.596C1012.58 138.392 1013.68 137.538 1015.24 137.538C1016.94 137.538 1017.97 138.336 1017.97 139.904V143.432C1017.97 143.992 1018.35 144.104 1018.87 143.992V145C1017.69 145.14 1016.99 144.916 1016.81 144.146C1016.34 144.72 1015.48 145.126 1014.43 145.126ZM1016.74 142.466V141.248L1015.1 141.556C1014.03 141.766 1013.24 142.088 1013.24 142.97C1013.24 143.684 1013.77 144.104 1014.61 144.104C1015.73 144.104 1016.74 143.404 1016.74 142.466ZM1020.85 145V137.678H1022.11V138.672C1022.52 138.07 1023.26 137.538 1024.3 137.538C1025.85 137.538 1026.73 138.616 1026.73 140.17V145H1025.47V140.506C1025.47 139.484 1025.04 138.714 1023.95 138.714C1023.04 138.714 1022.11 139.414 1022.11 140.632V145H1020.85ZM1035.55 141.346C1035.55 143.614 1034.15 145.154 1032.15 145.154C1030.14 145.154 1028.74 143.614 1028.74 141.346C1028.74 139.078 1030.14 137.538 1032.15 137.538C1034.15 137.538 1035.55 139.078 1035.55 141.346ZM1030.02 141.346C1030.02 143.012 1030.86 144.076 1032.15 144.076C1033.43 144.076 1034.27 143.012 1034.27 141.346C1034.27 139.666 1033.43 138.602 1032.15 138.602C1030.86 138.602 1030.02 139.666 1030.02 141.346ZM1040.12 136.404V134.948H1041.49V136.404H1040.12ZM1037.47 145V143.922H1040.18V138.756H1037.47V137.678H1041.44V143.922H1044.14V145H1037.47ZM1048.54 145.154C1046.58 145.154 1045.48 143.404 1045.48 141.346C1045.48 139.274 1046.58 137.538 1048.54 137.538C1049.54 137.538 1050.28 138.028 1050.7 138.756V134.948H1051.96V145H1050.7V143.922C1050.28 144.664 1049.54 145.154 1048.54 145.154ZM1050.73 141.108C1050.73 139.372 1049.73 138.644 1048.79 138.644C1047.48 138.644 1046.75 139.764 1046.75 141.346C1046.75 142.928 1047.48 144.048 1048.79 144.048C1049.73 144.048 1050.73 143.292 1050.73 141.612V141.108ZM1062.46 145V134.948H1064.6C1067.64 134.948 1069.41 136.908 1069.41 139.974C1069.41 143.04 1067.64 145 1064.6 145H1062.46ZM1063.78 143.838H1064.6C1066.93 143.838 1068.08 142.312 1068.08 139.974C1068.08 137.622 1066.93 136.11 1064.59 136.11H1063.78V143.838ZM1073.19 145.126C1071.84 145.126 1070.73 144.342 1070.73 143.026C1070.73 141.57 1071.92 140.954 1073.54 140.646L1075.5 140.268V139.96C1075.5 139.12 1074.99 138.63 1073.95 138.63C1073.01 138.63 1072.4 139.092 1072.14 139.904L1070.97 139.596C1071.35 138.392 1072.44 137.538 1074.01 137.538C1075.7 137.538 1076.74 138.336 1076.74 139.904V143.432C1076.74 143.992 1077.11 144.104 1077.63 143.992V145C1076.46 145.14 1075.76 144.916 1075.57 144.146C1075.1 144.72 1074.24 145.126 1073.19 145.126ZM1075.5 142.466V141.248L1073.87 141.556C1072.79 141.766 1072 142.088 1072 142.97C1072 143.684 1072.54 144.104 1073.38 144.104C1074.5 144.104 1075.5 143.404 1075.5 142.466ZM1081.01 142.648V138.756H1078.86V137.678H1081.01V135.536H1082.25V137.678H1085.62V138.756H1082.25V142.55C1082.25 143.544 1082.83 143.95 1084 143.95C1084.57 143.95 1085.14 143.852 1085.66 143.698V144.832C1085.17 144.972 1084.47 145.084 1083.8 145.084C1082.27 145.084 1081.01 144.44 1081.01 142.648ZM1089.98 145.126C1088.63 145.126 1087.52 144.342 1087.52 143.026C1087.52 141.57 1088.71 140.954 1090.33 140.646L1092.29 140.268V139.96C1092.29 139.12 1091.78 138.63 1090.74 138.63C1089.8 138.63 1089.19 139.092 1088.93 139.904L1087.76 139.596C1088.14 138.392 1089.23 137.538 1090.8 137.538C1092.49 137.538 1093.53 138.336 1093.53 139.904V143.432C1093.53 143.992 1093.9 144.104 1094.42 143.992V145C1093.25 145.14 1092.55 144.916 1092.36 144.146C1091.89 144.72 1091.03 145.126 1089.98 145.126ZM1092.29 142.466V141.248L1090.66 141.556C1089.58 141.766 1088.79 142.088 1088.79 142.97C1088.79 143.684 1089.33 144.104 1090.17 144.104C1091.29 144.104 1092.29 143.404 1092.29 142.466Z" fill="black"/>
<rect x="217" y="126" width="126" height="28" rx="14" fill="#DED6FC"/>
<path d="M231.118 134.948H232.462V145H231.118V140.394H227.282V145H225.938V134.948H227.282V139.218H231.118V134.948ZM240.493 137.678V145H239.233V143.992C238.813 144.608 238.099 145.154 237.063 145.154C235.509 145.154 234.613 144.076 234.613 142.522V137.678H235.873V142.256C235.873 143.292 236.321 143.992 237.399 143.992C238.309 143.992 239.233 143.306 239.233 142.088V137.678H240.493ZM243.679 140.072V145H242.531V137.664H243.679V138.462C243.917 137.972 244.365 137.538 245.037 137.538C245.695 137.538 246.143 137.93 246.395 138.546C246.619 138.056 247.179 137.538 247.907 137.538C248.943 137.538 249.503 138.406 249.503 139.624V145H248.341V139.988C248.341 139.246 248.201 138.7 247.557 138.7C246.997 138.7 246.591 139.218 246.591 140.072V145H245.429V139.988C245.429 139.246 245.275 138.7 244.631 138.7C244.057 138.7 243.679 139.218 243.679 140.072ZM253.46 145.126C252.102 145.126 250.996 144.342 250.996 143.026C250.996 141.57 252.186 140.954 253.81 140.646L255.77 140.268V139.96C255.77 139.12 255.252 138.63 254.216 138.63C253.278 138.63 252.662 139.092 252.41 139.904L251.234 139.596C251.612 138.392 252.704 137.538 254.272 137.538C255.966 137.538 257.002 138.336 257.002 139.904V143.432C257.002 143.992 257.38 144.104 257.898 143.992V145C256.722 145.14 256.022 144.916 255.84 144.146C255.364 144.72 254.51 145.126 253.46 145.126ZM255.77 142.466V141.248L254.132 141.556C253.054 141.766 252.27 142.088 252.27 142.97C252.27 143.684 252.802 144.104 253.642 144.104C254.762 144.104 255.77 143.404 255.77 142.466ZM259.88 145V137.678H261.14V138.672C261.546 138.07 262.288 137.538 263.324 137.538C264.878 137.538 265.76 138.616 265.76 140.17V145H264.5V140.506C264.5 139.484 264.066 138.714 262.974 138.714C262.064 138.714 261.14 139.414 261.14 140.632V145H259.88ZM274.575 141.346C274.575 143.614 273.175 145.154 271.173 145.154C269.171 145.154 267.771 143.614 267.771 141.346C267.771 139.078 269.171 137.538 271.173 137.538C273.175 137.538 274.575 139.078 274.575 141.346ZM269.045 141.346C269.045 143.012 269.885 144.076 271.173 144.076C272.461 144.076 273.301 143.012 273.301 141.346C273.301 139.666 272.461 138.602 271.173 138.602C269.885 138.602 269.045 139.666 269.045 141.346ZM279.147 136.404V134.948H280.519V136.404H279.147ZM276.501 145V143.922H279.203V138.756H276.501V137.678H280.463V143.922H283.165V145H276.501ZM287.57 145.154C285.61 145.154 284.504 143.404 284.504 141.346C284.504 139.274 285.61 137.538 287.57 137.538C288.564 137.538 289.306 138.028 289.726 138.756V134.948H290.986V145H289.726V143.922C289.306 144.664 288.564 145.154 287.57 145.154ZM289.754 141.108C289.754 139.372 288.76 138.644 287.822 138.644C286.506 138.644 285.778 139.764 285.778 141.346C285.778 142.928 286.506 144.048 287.822 144.048C288.76 144.048 289.754 143.292 289.754 141.612V141.108ZM301.489 145V134.948H303.631C306.669 134.948 308.433 136.908 308.433 139.974C308.433 143.04 306.669 145 303.631 145H301.489ZM302.805 143.838H303.631C305.955 143.838 307.103 142.312 307.103 139.974C307.103 137.622 305.955 136.11 303.617 136.11H302.805V143.838ZM312.221 145.126C310.863 145.126 309.757 144.342 309.757 143.026C309.757 141.57 310.947 140.954 312.571 140.646L314.531 140.268V139.96C314.531 139.12 314.013 138.63 312.977 138.63C312.039 138.63 311.423 139.092 311.171 139.904L309.995 139.596C310.373 138.392 311.465 137.538 313.033 137.538C314.727 137.538 315.763 138.336 315.763 139.904V143.432C315.763 143.992 316.141 144.104 316.659 143.992V145C315.483 145.14 314.783 144.916 314.601 144.146C314.125 144.72 313.271 145.126 312.221 145.126ZM314.531 142.466V141.248L312.893 141.556C311.815 141.766 311.031 142.088 311.031 142.97C311.031 143.684 311.563 144.104 312.403 144.104C313.523 144.104 314.531 143.404 314.531 142.466ZM320.042 142.648V138.756H317.886V137.678H320.042V135.536H321.274V137.678H324.648V138.756H321.274V142.55C321.274 143.544 321.862 143.95 323.024 143.95C323.598 143.95 324.172 143.852 324.69 143.698V144.832C324.2 144.972 323.5 145.084 322.828 145.084C321.302 145.084 320.042 144.44 320.042 142.648ZM329.01 145.126C327.652 145.126 326.546 144.342 326.546 143.026C326.546 141.57 327.736 140.954 329.36 140.646L331.32 140.268V139.96C331.32 139.12 330.802 138.63 329.766 138.63C328.828 138.63 328.212 139.092 327.96 139.904L326.784 139.596C327.162 138.392 328.254 137.538 329.822 137.538C331.516 137.538 332.552 138.336 332.552 139.904V143.432C332.552 143.992 332.93 144.104 333.448 143.992V145C332.272 145.14 331.572 144.916 331.39 144.146C330.914 144.72 330.06 145.126 329.01 145.126ZM331.32 142.466V141.248L329.682 141.556C328.604 141.766 327.82 142.088 327.82 142.97C327.82 143.684 328.352 144.104 329.192 144.104C330.312 144.104 331.32 143.404 331.32 142.466Z" fill="black"/>
<path d="M304.338 189.078H301.3V181.266H304.342L304.338 189.078ZM257.931 181.266H254.894V189.078H257.931V181.266ZM334.021 233.316L334.903 236.004L331.532 236.953C328.38 237.812 325.043 236.309 323.79 233.559L313.61 239.004C312.817 239.586 311.45 239.191 311.185 238.27C311.164 238.199 311.151 238.133 311.143 238.062L307.983 227.148C307.017 227.437 305.991 227.594 304.924 227.594H302.228V257.438C302.228 258.215 301.549 258.844 300.71 258.844H293.791V283.48C298.562 284.16 302.228 287.988 302.228 292.594C302.228 293.371 301.549 294 300.71 294H283.835C282.995 294 282.316 293.371 282.316 292.594C282.316 287.988 285.982 284.16 290.753 283.48V258.844H268.478V283.48C273.25 284.16 276.916 287.988 276.916 292.594C276.916 293.371 276.237 294 275.397 294H258.522C257.683 294 257.003 293.371 257.003 292.594C257.003 287.988 260.669 284.16 265.441 283.48V258.844H258.522C257.683 258.844 257.003 258.215 257.003 257.438V227.59H254.299C253.278 227.59 252.291 227.445 251.363 227.184L248.237 237.984C248.233 238.078 248.216 238.176 248.186 238.27C247.925 239.164 246.65 239.574 245.832 239.055L235.559 233.562C234.315 236.316 230.986 237.82 227.835 236.965L224.342 236.012L225.198 233.316L228.691 234.266C230.467 234.75 232.366 233.797 232.889 232.141C233.142 231.344 233.041 230.5 232.606 229.762C232.172 229.023 231.459 228.488 230.598 228.258L228.582 227.711L225.536 229.359L224 226.93L227.603 224.977C227.961 224.777 228.392 224.73 228.797 224.84L231.446 225.559C233.087 226.004 234.446 227.02 235.268 228.414C235.669 229.09 235.918 229.82 236.015 230.562L245.735 235.758L248.578 225.922C246.022 224.25 244.343 221.488 244.343 218.375C244.343 213.293 248.81 209.156 254.299 209.156H257.007V206.656C257.007 205.879 257.687 205.25 258.526 205.25H278.101V196.344H262.741C261.901 196.344 261.222 195.715 261.222 194.938V175.406C261.222 174.629 261.901 174 262.741 174H296.491C297.33 174 298.01 174.629 298.01 175.406V194.938C298.01 195.715 297.33 196.344 296.491 196.344H281.135V205.25H300.71C301.549 205.25 302.228 205.879 302.228 206.656V209.156H304.924C310.417 209.156 314.88 213.293 314.88 218.375C314.88 221.445 313.248 224.172 310.75 225.848L313.619 235.758L323.335 230.562C323.432 229.82 323.681 229.094 324.086 228.414C324.908 227.02 326.267 226.004 327.904 225.559L330.545 224.844C330.966 224.727 331.405 224.781 331.768 224.988L335.248 226.941L333.675 229.344L330.768 227.711L328.76 228.254C327.895 228.488 327.182 229.023 326.743 229.762C326.309 230.496 326.208 231.344 326.465 232.141C326.992 233.793 328.887 234.754 330.663 234.262L334.021 233.316ZM257.003 211.965H254.299C250.485 211.965 247.38 214.84 247.38 218.371C247.38 221.902 250.485 224.777 254.299 224.777H257.007L257.003 211.965ZM266.96 286.188C263.665 286.188 260.901 288.328 260.21 291.184H273.71C273.018 288.328 270.254 286.188 266.96 286.188ZM294.972 193.531V176.812H264.26V193.531H294.972ZM292.272 286.188C288.981 286.188 286.214 288.328 285.518 291.184H299.022C298.33 288.328 295.563 286.188 292.272 286.188ZM299.191 208.062H260.041V256.031H299.191V208.062ZM311.843 218.375C311.843 214.844 308.742 211.969 304.924 211.969H302.228V224.781H304.924C308.738 224.781 311.843 221.906 311.843 218.375ZM289.572 185.172C289.572 188.102 286.999 190.484 283.835 190.484H275.397C272.233 190.484 269.66 188.102 269.66 185.172C269.66 182.242 272.233 179.859 275.397 179.859H283.835C286.999 179.859 289.572 182.242 289.572 185.172ZM286.535 185.172C286.535 183.793 285.324 182.672 283.835 182.672H275.397C273.908 182.672 272.697 183.793 272.697 185.172C272.697 186.551 273.908 187.672 275.397 187.672H283.835C285.324 187.672 286.535 186.551 286.535 185.172Z" fill="#DED6FC"/>
<path d="M562 320L562 319L560 319L560 320L562 320ZM560.293 344.707C560.683 345.098 561.317 345.098 561.707 344.707L568.071 338.343C568.462 337.953 568.462 337.319 568.071 336.929C567.681 336.538 567.047 336.538 566.657 336.929L561 342.586L555.343 336.929C554.953 336.538 554.319 336.538 553.929 336.929C553.538 337.319 553.538 337.953 553.929 338.343L560.293 344.707ZM560 320L560 344L562 344L562 320L560 320Z" fill="#B4A3F9"/>
<path d="M593.707 319.293C593.317 318.902 592.683 318.902 592.293 319.293L585.929 325.657C585.538 326.047 585.538 326.681 585.929 327.071C586.319 327.462 586.953 327.462 587.343 327.071L593 321.414L598.657 327.071C599.047 327.462 599.681 327.462 600.071 327.071C600.462 326.681 600.462 326.047 600.071 325.657L593.707 319.293ZM592 344L592 345L594 345L594 344L592 344ZM592 320L592 344L594 344L594 320L592 320Z" fill="#B4A3F9"/>
<rect x="468" y="158" width="220" height="154" rx="19" fill="#382193" stroke="#5933F2" stroke-width="6"/>
<rect x="519" y="261" width="42" height="28" rx="14" fill="#CDC2FB"/>
<path d="M530.416 269.948H531.97L535.12 280H533.762L532.95 277.354H529.408L528.596 280H527.28L530.416 269.948ZM531.172 271.558L529.758 276.178H532.586L531.172 271.558ZM537.677 275.786V280H536.333V269.948H539.973C542.101 269.948 543.445 270.942 543.445 272.86C543.445 274.75 542.101 275.786 539.973 275.786H537.677ZM537.677 274.624H539.889C541.331 274.624 542.129 273.994 542.129 272.86C542.129 271.726 541.331 271.11 539.889 271.11H537.677V274.624ZM551.503 278.824V280H544.475V278.824H547.317V271.124H544.475V269.948H551.503V271.124H548.661V278.824H551.503Z" fill="black"/>
<rect x="569" y="261" width="67" height="28" rx="14" fill="#CDC2FB"/>
<path d="M580.71 269.948H581.732L582.978 277.48L584.07 269.948H585.26L583.664 280H582.53L581.2 272.202L579.87 280H578.736L577.14 269.948H578.358L579.45 277.48L580.71 269.948ZM589.777 280.154C587.677 280.154 586.249 278.6 586.249 276.346C586.249 274.162 587.677 272.538 589.721 272.538C591.821 272.538 592.927 274.092 592.927 276.122V276.542H587.467C587.551 278.082 588.461 279.062 589.777 279.062C590.813 279.062 591.541 278.53 591.779 277.662L592.871 278.054C592.409 279.356 591.275 280.154 589.777 280.154ZM589.721 273.616C588.587 273.616 587.775 274.33 587.537 275.576H591.653C591.625 274.54 591.037 273.616 589.721 273.616ZM598.381 280.154C597.387 280.154 596.645 279.664 596.225 278.922V280H594.965V269.948H596.225V273.756C596.645 273.028 597.387 272.538 598.381 272.538C600.341 272.538 601.447 274.274 601.447 276.346C601.447 278.404 600.341 280.154 598.381 280.154ZM596.197 276.108V276.612C596.197 278.292 597.191 279.048 598.129 279.048C599.445 279.048 600.173 277.928 600.173 276.346C600.173 274.764 599.445 273.644 598.129 273.644C597.191 273.644 596.197 274.372 596.197 276.108ZM614.778 280.14C612.706 280.14 611.404 278.88 611.404 276.192V269.948H612.748V276.136C612.748 278.096 613.49 278.908 614.778 278.908C616.066 278.908 616.808 278.096 616.808 276.136V269.948H618.152V276.192C618.152 278.88 616.85 280.14 614.778 280.14ZM626.687 278.824V280H619.659V278.824H622.501V271.124H619.659V269.948H626.687V271.124H623.845V278.824H626.687Z" fill="black"/>
<rect x="510" y="221" width="134" height="28" rx="14" fill="#CDC2FB"/>
<path d="M522.606 240H521.794L519.96 231.866V240H518.798V229.948H520.604L522.214 237.186L523.838 229.948H525.602V240H524.44V231.866L522.606 240ZM530.777 240.154C528.677 240.154 527.249 238.6 527.249 236.346C527.249 234.162 528.677 232.538 530.721 232.538C532.821 232.538 533.927 234.092 533.927 236.122V236.542H528.467C528.551 238.082 529.461 239.062 530.777 239.062C531.813 239.062 532.541 238.53 532.779 237.662L533.871 238.054C533.409 239.356 532.275 240.154 530.777 240.154ZM530.721 233.616C529.587 233.616 528.775 234.33 528.537 235.576H532.653C532.625 234.54 532.037 233.616 530.721 233.616ZM537.491 237.648V233.756H535.335V232.678H537.491V230.536H538.723V232.678H542.097V233.756H538.723V237.55C538.723 238.544 539.311 238.95 540.473 238.95C541.047 238.95 541.621 238.852 542.139 238.698V239.832C541.649 239.972 540.949 240.084 540.277 240.084C538.751 240.084 537.491 239.44 537.491 237.648ZM546.46 240.126C545.102 240.126 543.996 239.342 543.996 238.026C543.996 236.57 545.186 235.954 546.81 235.646L548.77 235.268V234.96C548.77 234.12 548.252 233.63 547.216 233.63C546.278 233.63 545.662 234.092 545.41 234.904L544.234 234.596C544.612 233.392 545.704 232.538 547.272 232.538C548.966 232.538 550.002 233.336 550.002 234.904V238.432C550.002 238.992 550.38 239.104 550.898 238.992V240C549.722 240.14 549.022 239.916 548.84 239.146C548.364 239.72 547.51 240.126 546.46 240.126ZM548.77 237.466V236.248L547.132 236.556C546.054 236.766 545.27 237.088 545.27 237.97C545.27 238.684 545.802 239.104 546.642 239.104C547.762 239.104 548.77 238.404 548.77 237.466ZM555.386 240.154C553.426 240.154 552.32 238.404 552.32 236.346C552.32 234.274 553.426 232.538 555.386 232.538C556.38 232.538 557.122 233.028 557.542 233.756V229.948H558.802V240H557.542V238.922C557.122 239.664 556.38 240.154 555.386 240.154ZM557.57 236.108C557.57 234.372 556.576 233.644 555.638 233.644C554.322 233.644 553.594 234.764 553.594 236.346C553.594 237.928 554.322 239.048 555.638 239.048C556.576 239.048 557.57 238.292 557.57 236.612V236.108ZM563.249 240.126C561.891 240.126 560.785 239.342 560.785 238.026C560.785 236.57 561.975 235.954 563.599 235.646L565.559 235.268V234.96C565.559 234.12 565.041 233.63 564.005 233.63C563.067 233.63 562.451 234.092 562.199 234.904L561.023 234.596C561.401 233.392 562.493 232.538 564.061 232.538C565.755 232.538 566.791 233.336 566.791 234.904V238.432C566.791 238.992 567.169 239.104 567.687 238.992V240C566.511 240.14 565.811 239.916 565.629 239.146C565.153 239.72 564.299 240.126 563.249 240.126ZM565.559 237.466V236.248L563.921 236.556C562.843 236.766 562.059 237.088 562.059 237.97C562.059 238.684 562.591 239.104 563.431 239.104C564.551 239.104 565.559 238.404 565.559 237.466ZM571.069 237.648V233.756H568.913V232.678H571.069V230.536H572.301V232.678H575.675V233.756H572.301V237.55C572.301 238.544 572.889 238.95 574.051 238.95C574.625 238.95 575.199 238.852 575.717 238.698V239.832C575.227 239.972 574.527 240.084 573.855 240.084C572.329 240.084 571.069 239.44 571.069 237.648ZM580.038 240.126C578.68 240.126 577.574 239.342 577.574 238.026C577.574 236.57 578.764 235.954 580.388 235.646L582.348 235.268V234.96C582.348 234.12 581.83 233.63 580.794 233.63C579.856 233.63 579.24 234.092 578.988 234.904L577.812 234.596C578.19 233.392 579.282 232.538 580.85 232.538C582.544 232.538 583.58 233.336 583.58 234.904V238.432C583.58 238.992 583.958 239.104 584.476 238.992V240C583.3 240.14 582.6 239.916 582.418 239.146C581.942 239.72 581.088 240.126 580.038 240.126ZM582.348 237.466V236.248L580.71 236.556C579.632 236.766 578.848 237.088 578.848 237.97C578.848 238.684 579.38 239.104 580.22 239.104C581.34 239.104 582.348 238.404 582.348 237.466ZM593.691 237.942L594.741 237.088C595.371 238.292 596.519 239.006 597.821 239.006C599.123 239.006 600.117 238.348 600.117 237.2C600.117 235.982 598.969 235.772 597.429 235.394C595.861 235.016 594.279 234.596 594.279 232.706C594.279 230.942 595.819 229.794 597.723 229.794C599.473 229.794 600.719 230.606 601.335 231.754L600.313 232.552C599.809 231.586 598.997 230.928 597.681 230.928C596.477 230.928 595.581 231.6 595.581 232.594C595.581 233.658 596.533 233.882 597.947 234.218C599.599 234.61 601.433 234.96 601.433 237.088C601.433 238.964 599.767 240.154 597.779 240.154C596.043 240.154 594.377 239.3 593.691 237.942ZM604.647 237.648V233.756H602.491V232.678H604.647V230.536H605.879V232.678H609.253V233.756H605.879V237.55C605.879 238.544 606.467 238.95 607.629 238.95C608.203 238.95 608.777 238.852 609.295 238.698V239.832C608.805 239.972 608.105 240.084 607.433 240.084C605.907 240.084 604.647 239.44 604.647 237.648ZM617.942 236.346C617.942 238.614 616.542 240.154 614.54 240.154C612.538 240.154 611.138 238.614 611.138 236.346C611.138 234.078 612.538 232.538 614.54 232.538C616.542 232.538 617.942 234.078 617.942 236.346ZM612.412 236.346C612.412 238.012 613.252 239.076 614.54 239.076C615.828 239.076 616.668 238.012 616.668 236.346C616.668 234.666 615.828 233.602 614.54 233.602C613.252 233.602 612.412 234.666 612.412 236.346ZM619.574 240V238.922H621.632V233.756H619.574V232.678H622.878V234.022C623.326 233.168 624.292 232.538 625.524 232.538C626.014 232.538 626.406 232.608 626.658 232.72V233.966C626.322 233.854 625.93 233.77 625.398 233.77C624.096 233.77 622.878 234.652 622.878 235.996V238.922H625.65V240H619.574ZM631.511 240.154C629.411 240.154 627.983 238.6 627.983 236.346C627.983 234.162 629.411 232.538 631.455 232.538C633.555 232.538 634.661 234.092 634.661 236.122V236.542H629.201C629.285 238.082 630.195 239.062 631.511 239.062C632.547 239.062 633.275 238.53 633.513 237.662L634.605 238.054C634.143 239.356 633.009 240.154 631.511 240.154ZM631.455 233.616C630.321 233.616 629.509 234.33 629.271 235.576H633.387C633.359 234.54 632.771 233.616 631.455 233.616Z" fill="black"/>
<path d="M1044.34 189.078H1041.3V181.266H1044.34L1044.34 189.078ZM997.931 181.266H994.894V189.078H997.931V181.266ZM1074.02 233.316L1074.9 236.004L1071.53 236.953C1068.38 237.812 1065.04 236.309 1063.79 233.559L1053.61 239.004C1052.82 239.586 1051.45 239.191 1051.18 238.27C1051.16 238.199 1051.15 238.133 1051.14 238.062L1047.98 227.148C1047.02 227.437 1045.99 227.594 1044.92 227.594H1042.23V257.438C1042.23 258.215 1041.55 258.844 1040.71 258.844H1033.79V283.48C1038.56 284.16 1042.23 287.988 1042.23 292.594C1042.23 293.371 1041.55 294 1040.71 294H1023.83C1023 294 1022.32 293.371 1022.32 292.594C1022.32 287.988 1025.98 284.16 1030.75 283.48V258.844H1008.48V283.48C1013.25 284.16 1016.92 287.988 1016.92 292.594C1016.92 293.371 1016.24 294 1015.4 294H998.522C997.683 294 997.003 293.371 997.003 292.594C997.003 287.988 1000.67 284.16 1005.44 283.48V258.844H998.522C997.683 258.844 997.003 258.215 997.003 257.438V227.59H994.299C993.278 227.59 992.291 227.445 991.363 227.184L988.237 237.984C988.233 238.078 988.216 238.176 988.186 238.27C987.925 239.164 986.65 239.574 985.832 239.055L975.559 233.562C974.315 236.316 970.986 237.82 967.835 236.965L964.342 236.012L965.198 233.316L968.691 234.266C970.467 234.75 972.366 233.797 972.889 232.141C973.142 231.344 973.041 230.5 972.606 229.762C972.172 229.023 971.459 228.488 970.598 228.258L968.582 227.711L965.536 229.359L964 226.93L967.603 224.977C967.961 224.777 968.392 224.73 968.797 224.84L971.446 225.559C973.087 226.004 974.446 227.02 975.268 228.414C975.669 229.09 975.918 229.82 976.015 230.562L985.735 235.758L988.578 225.922C986.022 224.25 984.343 221.488 984.343 218.375C984.343 213.293 988.81 209.156 994.299 209.156H997.007V206.656C997.007 205.879 997.687 205.25 998.526 205.25H1018.1V196.344H1002.74C1001.9 196.344 1001.22 195.715 1001.22 194.938V175.406C1001.22 174.629 1001.9 174 1002.74 174H1036.49C1037.33 174 1038.01 174.629 1038.01 175.406V194.938C1038.01 195.715 1037.33 196.344 1036.49 196.344H1021.13V205.25H1040.71C1041.55 205.25 1042.23 205.879 1042.23 206.656V209.156H1044.92C1050.42 209.156 1054.88 213.293 1054.88 218.375C1054.88 221.445 1053.25 224.172 1050.75 225.848L1053.62 235.758L1063.33 230.562C1063.43 229.82 1063.68 229.094 1064.09 228.414C1064.91 227.02 1066.27 226.004 1067.9 225.559L1070.54 224.844C1070.97 224.727 1071.41 224.781 1071.77 224.988L1075.25 226.941L1073.67 229.344L1070.77 227.711L1068.76 228.254C1067.9 228.488 1067.18 229.023 1066.74 229.762C1066.31 230.496 1066.21 231.344 1066.47 232.141C1066.99 233.793 1068.89 234.754 1070.66 234.262L1074.02 233.316ZM997.003 211.965H994.299C990.485 211.965 987.38 214.84 987.38 218.371C987.38 221.902 990.485 224.777 994.299 224.777H997.007L997.003 211.965ZM1006.96 286.188C1003.66 286.188 1000.9 288.328 1000.21 291.184H1013.71C1013.02 288.328 1010.25 286.188 1006.96 286.188ZM1034.97 193.531V176.812H1004.26V193.531H1034.97ZM1032.27 286.188C1028.98 286.188 1026.21 288.328 1025.52 291.184H1039.02C1038.33 288.328 1035.56 286.188 1032.27 286.188ZM1039.19 208.062H1000.04V256.031H1039.19V208.062ZM1051.84 218.375C1051.84 214.844 1048.74 211.969 1044.92 211.969H1042.23V224.781H1044.92C1048.74 224.781 1051.84 221.906 1051.84 218.375ZM1029.57 185.172C1029.57 188.102 1027 190.484 1023.83 190.484H1015.4C1012.23 190.484 1009.66 188.102 1009.66 185.172C1009.66 182.242 1012.23 179.859 1015.4 179.859H1023.83C1027 179.859 1029.57 182.242 1029.57 185.172ZM1026.53 185.172C1026.53 183.793 1025.32 182.672 1023.83 182.672H1015.4C1013.91 182.672 1012.7 183.793 1012.7 185.172C1012.7 186.551 1013.91 187.672 1015.4 187.672H1023.83C1025.32 187.672 1026.53 186.551 1026.53 185.172Z" fill="#DED6FC"/>
<rect x="454" y="356" width="247" height="56" rx="28" fill="#382193"/>
<g clip-path="url(#clip0_2254_35744)">
<path d="M500 388C502.206 388 504 386.206 504 384C504 381.794 502.206 380 500 380C498.142 380 496.589 381.28 496.142 383H492.414L497.981 377.433C498.576 377.785 499.26 378 500 378C502.206 378 504 376.206 504 374C504 371.794 502.206 370 500 370C498.142 370 496.589 371.28 496.142 373H483.858C483.411 371.28 481.858 370 480 370C477.794 370 476 371.794 476 374C476 376.206 477.794 378 480 378C480.74 378 481.424 377.785 482.019 377.433L487.586 383H483.858C483.411 381.28 481.858 380 480 380C477.794 380 476 381.794 476 384C476 386.206 477.794 388 480 388C481.858 388 483.411 386.72 483.858 385H487.586L482.019 390.567C481.424 390.215 480.74 390 480 390C477.794 390 476 391.794 476 394C476 396.206 477.794 398 480 398C481.858 398 483.411 396.72 483.858 395H496.142C496.589 396.72 498.142 398 500 398C502.206 398 504 396.206 504 394C504 391.794 502.206 390 500 390C499.26 390 498.576 390.215 497.981 390.567L492.414 385H496.142C496.589 386.72 498.142 388 500 388ZM500 382C501.103 382 502 382.898 502 384C502 385.102 501.103 386 500 386C498.897 386 498 385.102 498 384C498 382.898 498.897 382 500 382ZM500 372C501.103 372 502 372.898 502 374C502 375.102 501.103 376 500 376C498.897 376 498 375.102 498 374C498 372.898 498.897 372 500 372ZM480 376C478.897 376 478 375.102 478 374C478 372.898 478.897 372 480 372C481.103 372 482 372.898 482 374C482 375.102 481.103 376 480 376ZM480 386C478.897 386 478 385.102 478 384C478 382.898 478.897 382 480 382C481.103 382 482 382.898 482 384C482 385.102 481.103 386 480 386ZM480 396C478.897 396 478 395.103 478 394C478 392.897 478.897 392 480 392C481.103 392 482 392.897 482 394C482 395.103 481.103 396 480 396ZM500 392C501.103 392 502 392.897 502 394C502 395.103 501.103 396 500 396C498.897 396 498 395.103 498 394C498 392.897 498.897 392 500 392ZM496.567 391.981C496.38 392.296 496.236 392.637 496.142 393H483.858C483.764 392.637 483.62 392.296 483.433 391.981L490 385.414L496.567 391.981ZM490 382.586L483.433 376.019C483.62 375.704 483.764 375.361 483.862 375H496.138C496.236 375.361 496.38 375.704 496.567 376.019L490 382.586Z" fill="#DED6FC"/>
</g>
<path d="M527.264 390H526.336L524.24 380.704V390H522.912V378.512H524.976L526.816 386.784L528.672 378.512H530.688V390H529.36V380.704L527.264 390ZM533.466 390V378.512H535.002V388.656H540.73V390H533.466ZM552.813 390V378.512H555.261C558.733 378.512 560.749 380.752 560.749 384.256C560.749 387.76 558.733 390 555.261 390H552.813ZM554.317 388.672H555.261C557.917 388.672 559.229 386.928 559.229 384.256C559.229 381.568 557.917 379.84 555.245 379.84H554.317V388.672ZM565.399 390.144C563.847 390.144 562.583 389.248 562.583 387.744C562.583 386.08 563.943 385.376 565.799 385.024L568.039 384.592V384.24C568.039 383.28 567.447 382.72 566.263 382.72C565.191 382.72 564.487 383.248 564.199 384.176L562.855 383.824C563.287 382.448 564.535 381.472 566.327 381.472C568.263 381.472 569.447 382.384 569.447 384.176V388.208C569.447 388.848 569.879 388.976 570.471 388.848V390C569.127 390.16 568.327 389.904 568.119 389.024C567.575 389.68 566.599 390.144 565.399 390.144ZM568.039 387.104V385.712L566.167 386.064C564.935 386.304 564.039 386.672 564.039 387.68C564.039 388.496 564.647 388.976 565.607 388.976C566.887 388.976 568.039 388.176 568.039 387.104ZM574.657 387.312V382.864H572.193V381.632H574.657V379.184H576.065V381.632H579.921V382.864H576.065V387.2C576.065 388.336 576.737 388.8 578.065 388.8C578.721 388.8 579.377 388.688 579.969 388.512V389.808C579.409 389.968 578.609 390.096 577.841 390.096C576.097 390.096 574.657 389.36 574.657 387.312ZM585.226 390.144C583.674 390.144 582.41 389.248 582.41 387.744C582.41 386.08 583.77 385.376 585.626 385.024L587.866 384.592V384.24C587.866 383.28 587.274 382.72 586.09 382.72C585.018 382.72 584.314 383.248 584.026 384.176L582.682 383.824C583.114 382.448 584.362 381.472 586.154 381.472C588.09 381.472 589.274 382.384 589.274 384.176V388.208C589.274 388.848 589.706 388.976 590.298 388.848V390C588.954 390.16 588.154 389.904 587.946 389.024C587.402 389.68 586.426 390.144 585.226 390.144ZM587.866 387.104V385.712L585.994 386.064C584.762 386.304 583.866 386.672 583.866 387.68C583.866 388.496 584.474 388.976 585.434 388.976C586.714 388.976 587.866 388.176 587.866 387.104ZM605.214 378.512H606.99L610.59 390H609.038L608.11 386.976H604.062L603.134 390H601.63L605.214 378.512ZM606.078 380.352L604.462 385.632H607.694L606.078 380.352ZM612.712 390V381.632H614.152V382.768C614.616 382.08 615.464 381.472 616.648 381.472C618.424 381.472 619.432 382.704 619.432 384.48V390H617.992V384.864C617.992 383.696 617.496 382.816 616.248 382.816C615.208 382.816 614.152 383.616 614.152 385.008V390H612.712ZM624.881 390.144C623.329 390.144 622.065 389.248 622.065 387.744C622.065 386.08 623.425 385.376 625.281 385.024L627.521 384.592V384.24C627.521 383.28 626.929 382.72 625.745 382.72C624.673 382.72 623.969 383.248 623.681 384.176L622.337 383.824C622.769 382.448 624.017 381.472 625.809 381.472C627.745 381.472 628.929 382.384 628.929 384.176V388.208C628.929 388.848 629.361 388.976 629.953 388.848V390C628.609 390.16 627.809 389.904 627.601 389.024C627.057 389.68 626.081 390.144 624.881 390.144ZM627.521 387.104V385.712L625.649 386.064C624.417 386.304 623.521 386.672 623.521 387.68C623.521 388.496 624.129 388.976 625.089 388.976C626.369 388.976 627.521 388.176 627.521 387.104ZM632.347 390V388.768H635.435V379.744H632.347V378.512H636.875V388.768H639.963V390H632.347ZM645.973 390.912C645.461 392.16 644.805 392.976 643.317 392.976C642.949 392.976 642.789 392.96 642.533 392.912V391.664C642.805 391.728 642.965 391.744 643.221 391.744C643.861 391.744 644.245 391.52 644.613 390.688L645.029 389.728L641.589 381.632H643.109L645.781 388.064L648.421 381.632H649.925L645.973 390.912ZM651.711 388.176L652.895 387.392C653.391 388.368 654.559 388.976 655.823 388.976C656.911 388.976 657.871 388.528 657.871 387.68C657.871 386.736 656.975 386.608 655.359 386.32C653.839 386.032 652.239 385.712 652.239 384C652.239 382.512 653.679 381.472 655.647 381.472C657.343 381.472 658.639 382.24 659.183 383.232L658.079 384.016C657.615 383.168 656.735 382.656 655.519 382.656C654.415 382.656 653.663 383.136 653.663 383.888C653.663 384.672 654.591 384.832 655.887 385.088C657.487 385.424 659.327 385.696 659.327 387.52C659.327 389.12 657.727 390.176 655.743 390.176C654.047 390.176 652.415 389.472 651.711 388.176ZM665.112 380.176V378.512H666.68V380.176H665.112ZM662.088 390V388.768H665.176V382.864H662.088V381.632H666.616V388.768H669.704V390H662.088ZM671.538 388.176L672.722 387.392C673.218 388.368 674.386 388.976 675.65 388.976C676.738 388.976 677.698 388.528 677.698 387.68C677.698 386.736 676.802 386.608 675.186 386.32C673.666 386.032 672.066 385.712 672.066 384C672.066 382.512 673.506 381.472 675.474 381.472C677.17 381.472 678.466 382.24 679.01 383.232L677.906 384.016C677.442 383.168 676.562 382.656 675.346 382.656C674.242 382.656 673.49 383.136 673.49 383.888C673.49 384.672 674.418 384.832 675.714 385.088C677.314 385.424 679.154 385.696 679.154 387.52C679.154 389.12 677.554 390.176 675.57 390.176C673.874 390.176 672.242 389.472 671.538 388.176Z" fill="#DED6FC"/>
<g clip-path="url(#clip1_2254_35744)">
<path d="M590.898 101.193L586.424 98.5604C586.298 98.4863 586.143 98.4863 586.017 98.5603L579.992 102.102V95.0202C579.992 94.8721 579.915 94.7353 579.789 94.6613L575.313 92.0281C575.177 91.9483 575.008 92.048 575.008 92.2075V102.102L568.985 98.5603C568.859 98.4862 568.704 98.4862 568.578 98.5603L564.102 101.194C563.966 101.273 563.966 101.473 564.102 101.552L572.515 106.5L564.102 111.447C563.966 111.527 563.966 111.727 564.102 111.806L568.576 114.439C568.702 114.514 568.857 114.514 568.983 114.44L575.008 110.897V117.982C575.008 118.13 575.085 118.267 575.211 118.341L579.687 120.972C579.823 121.052 579.992 120.952 579.992 120.792V110.897L586.015 114.44C586.141 114.514 586.296 114.514 586.422 114.44L590.898 111.806C591.034 111.727 591.034 111.527 590.898 111.447L582.485 106.5L590.898 101.552C591.034 101.473 591.034 101.273 590.898 101.193ZM580.298 108.145L577.5 109.791L574.702 108.145V104.855L577.5 103.209L580.298 104.855V108.145Z" fill="white"/>
</g>
<path d="M504.072 143V131.512H506.52C509.992 131.512 512.008 133.752 512.008 137.256C512.008 140.76 509.992 143 506.52 143H504.072ZM505.576 141.672H506.52C509.176 141.672 510.488 139.928 510.488 137.256C510.488 134.568 509.176 132.84 506.504 132.84H505.576V141.672ZM516.658 143.144C515.106 143.144 513.842 142.248 513.842 140.744C513.842 139.08 515.202 138.376 517.058 138.024L519.298 137.592V137.24C519.298 136.28 518.706 135.72 517.522 135.72C516.45 135.72 515.746 136.248 515.458 137.176L514.114 136.824C514.546 135.448 515.794 134.472 517.586 134.472C519.522 134.472 520.706 135.384 520.706 137.176V141.208C520.706 141.848 521.138 141.976 521.73 141.848V143C520.386 143.16 519.586 142.904 519.378 142.024C518.834 142.68 517.858 143.144 516.658 143.144ZM519.298 140.104V138.712L517.426 139.064C516.194 139.304 515.298 139.672 515.298 140.68C515.298 141.496 515.906 141.976 516.866 141.976C518.146 141.976 519.298 141.176 519.298 140.104ZM525.915 140.312V135.864H523.451V134.632H525.915V132.184H527.323V134.632H531.179V135.864H527.323V140.2C527.323 141.336 527.995 141.8 529.323 141.8C529.979 141.8 530.635 141.688 531.227 141.512V142.808C530.667 142.968 529.867 143.096 529.099 143.096C527.355 143.096 525.915 142.36 525.915 140.312ZM536.485 143.144C534.933 143.144 533.669 142.248 533.669 140.744C533.669 139.08 535.029 138.376 536.885 138.024L539.125 137.592V137.24C539.125 136.28 538.533 135.72 537.349 135.72C536.277 135.72 535.573 136.248 535.285 137.176L533.941 136.824C534.373 135.448 535.621 134.472 537.413 134.472C539.349 134.472 540.533 135.384 540.533 137.176V141.208C540.533 141.848 540.965 141.976 541.557 141.848V143C540.213 143.16 539.413 142.904 539.205 142.024C538.661 142.68 537.685 143.144 536.485 143.144ZM539.125 140.104V138.712L537.253 139.064C536.021 139.304 535.125 139.672 535.125 140.68C535.125 141.496 535.733 141.976 536.693 141.976C537.973 141.976 539.125 141.176 539.125 140.104ZM557.833 143H556.905L554.809 133.704V143H553.481V131.512H555.545L557.385 139.784L559.241 131.512H561.257V143H559.929V133.704L557.833 143ZM566.226 143.144C564.674 143.144 563.41 142.248 563.41 140.744C563.41 139.08 564.77 138.376 566.626 138.024L568.866 137.592V137.24C568.866 136.28 568.274 135.72 567.09 135.72C566.018 135.72 565.314 136.248 565.026 137.176L563.682 136.824C564.114 135.448 565.362 134.472 567.154 134.472C569.09 134.472 570.274 135.384 570.274 137.176V141.208C570.274 141.848 570.706 141.976 571.298 141.848V143C569.954 143.16 569.154 142.904 568.946 142.024C568.402 142.68 567.426 143.144 566.226 143.144ZM568.866 140.104V138.712L566.994 139.064C565.762 139.304 564.866 139.672 564.866 140.68C564.866 141.496 565.474 141.976 566.434 141.976C567.714 141.976 568.866 141.176 568.866 140.104ZM573.884 143V134.632H575.324V135.768C575.788 135.08 576.636 134.472 577.82 134.472C579.596 134.472 580.604 135.704 580.604 137.48V143H579.164V137.864C579.164 136.696 578.668 135.816 577.42 135.816C576.38 135.816 575.324 136.616 575.324 138.008V143H573.884ZM586.054 143.144C584.502 143.144 583.238 142.248 583.238 140.744C583.238 139.08 584.598 138.376 586.454 138.024L588.694 137.592V137.24C588.694 136.28 588.102 135.72 586.918 135.72C585.846 135.72 585.142 136.248 584.854 137.176L583.51 136.824C583.942 135.448 585.19 134.472 586.982 134.472C588.918 134.472 590.102 135.384 590.102 137.176V141.208C590.102 141.848 590.534 141.976 591.126 141.848V143C589.782 143.16 588.982 142.904 588.774 142.024C588.23 142.68 587.254 143.144 586.054 143.144ZM588.694 140.104V138.712L586.822 139.064C585.59 139.304 584.694 139.672 584.694 140.68C584.694 141.496 585.302 141.976 586.262 141.976C587.542 141.976 588.694 141.176 588.694 140.104ZM600.48 142.248C600.48 144.696 598.88 146.056 596.592 146.056C594.768 146.056 593.424 145.208 592.96 143.672L594.304 143.16C594.592 144.232 595.44 144.856 596.592 144.856C598.08 144.856 599.04 144.104 599.04 142.36V141.416C598.592 142.232 597.696 142.808 596.528 142.808C594.288 142.808 592.992 140.92 592.992 138.632C592.992 136.36 594.288 134.472 596.528 134.472C597.696 134.472 598.592 135.048 599.04 135.864V134.632H600.48V142.248ZM599.056 138.504C599.056 136.632 597.952 135.736 596.816 135.736C595.296 135.736 594.448 136.872 594.448 138.632C594.448 140.392 595.296 141.544 596.816 141.544C597.952 141.544 599.056 140.648 599.056 138.808V138.504ZM607.145 143.176C604.745 143.176 603.113 141.4 603.113 138.824C603.113 136.328 604.745 134.472 607.081 134.472C609.481 134.472 610.745 136.248 610.745 138.568V139.048H604.505C604.601 140.808 605.641 141.928 607.145 141.928C608.329 141.928 609.161 141.32 609.433 140.328L610.681 140.776C610.153 142.264 608.857 143.176 607.145 143.176ZM607.081 135.704C605.785 135.704 604.857 136.52 604.585 137.944H609.289C609.257 136.76 608.585 135.704 607.081 135.704ZM614.211 137.368V143H612.899V134.616H614.211V135.528C614.483 134.968 614.995 134.472 615.763 134.472C616.515 134.472 617.027 134.92 617.315 135.624C617.571 135.064 618.211 134.472 619.043 134.472C620.227 134.472 620.867 135.464 620.867 136.856V143H619.539V137.272C619.539 136.424 619.379 135.8 618.643 135.8C618.003 135.8 617.539 136.392 617.539 137.368V143H616.211V137.272C616.211 136.424 616.035 135.8 615.299 135.8C614.643 135.8 614.211 136.392 614.211 137.368ZM626.973 143.176C624.573 143.176 622.941 141.4 622.941 138.824C622.941 136.328 624.573 134.472 626.909 134.472C629.309 134.472 630.573 136.248 630.573 138.568V139.048H624.333C624.429 140.808 625.469 141.928 626.973 141.928C628.157 141.928 628.989 141.32 629.261 140.328L630.509 140.776C629.981 142.264 628.685 143.176 626.973 143.176ZM626.909 135.704C625.613 135.704 624.685 136.52 624.413 137.944H629.117C629.085 136.76 628.413 135.704 626.909 135.704ZM633.367 143V134.632H634.807V135.768C635.271 135.08 636.119 134.472 637.303 134.472C639.079 134.472 640.087 135.704 640.087 137.48V143H638.647V137.864C638.647 136.696 638.151 135.816 636.903 135.816C635.863 135.816 634.807 136.616 634.807 138.008V143H633.367ZM644.88 140.312V135.864H642.416V134.632H644.88V132.184H646.288V134.632H650.144V135.864H646.288V140.2C646.288 141.336 646.96 141.8 648.288 141.8C648.944 141.8 649.6 141.688 650.192 141.512V142.808C649.632 142.968 648.832 143.096 648.064 143.096C646.32 143.096 644.88 142.36 644.88 140.312Z" fill="#DED6FC"/>
<g clip-path="url(#clip2_2254_35744)">
<path d="M831.898 117.193L827.424 114.56C827.298 114.486 827.143 114.486 827.017 114.56L820.992 118.102V111.02C820.992 110.872 820.915 110.735 820.789 110.661L816.313 108.028C816.177 107.948 816.008 108.048 816.008 108.208V118.102L809.985 114.56C809.859 114.486 809.704 114.486 809.578 114.56L805.102 117.194C804.966 117.273 804.966 117.473 805.102 117.552L813.515 122.5L805.102 127.447C804.966 127.527 804.966 127.727 805.102 127.806L809.576 130.439C809.702 130.514 809.857 130.514 809.983 130.44L816.008 126.897V133.982C816.008 134.13 816.085 134.267 816.211 134.341L820.687 136.972C820.823 137.052 820.992 136.952 820.992 136.792V126.897L827.015 130.44C827.141 130.514 827.296 130.514 827.422 130.44L831.898 127.806C832.034 127.727 832.034 127.527 831.898 127.447L823.485 122.5L831.898 117.552C832.034 117.473 832.034 117.273 831.898 117.193ZM821.298 124.145L818.5 125.791L815.702 124.145V120.855L818.5 119.209L821.298 120.855V124.145Z" fill="white"/>
</g>
<path d="M767.904 147.512H769.68L773.28 159H771.728L770.8 155.976H766.752L765.824 159H764.32L767.904 147.512ZM768.768 149.352L767.152 154.632H770.384L768.768 149.352ZM779.162 159.176C778.026 159.176 777.178 158.616 776.698 157.768V161.88H775.258V150.632H776.698V151.864C777.178 151.032 778.026 150.472 779.162 150.472C781.402 150.472 782.666 152.456 782.666 154.824C782.666 157.176 781.402 159.176 779.162 159.176ZM776.666 154.552V155.128C776.666 157.048 777.802 157.912 778.874 157.912C780.378 157.912 781.21 156.632 781.21 154.824C781.21 153.016 780.378 151.736 778.874 151.736C777.802 151.736 776.666 152.568 776.666 154.552ZM789.075 159.176C787.939 159.176 787.091 158.616 786.611 157.768V161.88H785.171V150.632H786.611V151.864C787.091 151.032 787.939 150.472 789.075 150.472C791.315 150.472 792.58 152.456 792.58 154.824C792.58 157.176 791.315 159.176 789.075 159.176ZM786.579 154.552V155.128C786.579 157.048 787.715 157.912 788.787 157.912C790.291 157.912 791.123 156.632 791.123 154.824C791.123 153.016 790.291 151.736 788.787 151.736C787.715 151.736 786.579 152.568 786.579 154.552ZM795.037 159V157.768H798.125V148.744H795.037V147.512H799.565V157.768H802.653V159H795.037ZM807.975 149.176V147.512H809.543V149.176H807.975ZM804.951 159V157.768H808.039V151.864H804.951V150.632H809.479V157.768H812.567V159H804.951ZM816.017 154.824C816.017 156.728 817.121 157.912 818.753 157.912C820.033 157.912 820.801 157.176 821.073 156.136L822.289 156.728C821.873 158.12 820.593 159.176 818.737 159.176C816.337 159.176 814.609 157.4 814.609 154.824C814.609 152.232 816.337 150.472 818.737 150.472C820.577 150.472 821.841 151.48 822.273 152.872L821.073 153.496C820.801 152.472 820.033 151.72 818.753 151.72C817.121 151.72 816.017 152.904 816.017 154.824ZM827.226 159.144C825.674 159.144 824.41 158.248 824.41 156.744C824.41 155.08 825.77 154.376 827.626 154.024L829.866 153.592V153.24C829.866 152.28 829.274 151.72 828.09 151.72C827.018 151.72 826.314 152.248 826.026 153.176L824.682 152.824C825.114 151.448 826.362 150.472 828.154 150.472C830.09 150.472 831.274 151.384 831.274 153.176V157.208C831.274 157.848 831.706 157.976 832.298 157.848V159C830.954 159.16 830.154 158.904 829.946 158.024C829.402 158.68 828.426 159.144 827.226 159.144ZM829.866 156.104V154.712L827.994 155.064C826.762 155.304 825.866 155.672 825.866 156.68C825.866 157.496 826.474 157.976 827.434 157.976C828.714 157.976 829.866 157.176 829.866 156.104ZM836.484 156.312V151.864H834.02V150.632H836.484V148.184H837.892V150.632H841.748V151.864H837.892V156.2C837.892 157.336 838.564 157.8 839.892 157.8C840.548 157.8 841.204 157.688 841.796 157.512V158.808C841.236 158.968 840.436 159.096 839.668 159.096C837.924 159.096 836.484 158.36 836.484 156.312ZM847.63 149.176V147.512H849.198V149.176H847.63ZM844.606 159V157.768H847.694V151.864H844.606V150.632H849.134V157.768H852.222V159H844.606ZM861.912 154.824C861.912 157.416 860.312 159.176 858.024 159.176C855.736 159.176 854.136 157.416 854.136 154.824C854.136 152.232 855.736 150.472 858.024 150.472C860.312 150.472 861.912 152.232 861.912 154.824ZM855.592 154.824C855.592 156.728 856.552 157.944 858.024 157.944C859.496 157.944 860.456 156.728 860.456 154.824C860.456 152.904 859.496 151.688 858.024 151.688C856.552 151.688 855.592 152.904 855.592 154.824ZM864.625 159V150.632H866.065V151.768C866.529 151.08 867.377 150.472 868.561 150.472C870.337 150.472 871.345 151.704 871.345 153.48V159H869.905V153.864C869.905 152.696 869.409 151.816 868.161 151.816C867.121 151.816 866.065 152.616 866.065 154.008V159H864.625Z" fill="#DED6FC"/>
<g clip-path="url(#clip3_2254_35744)">
<path d="M388.398 219.193L383.924 216.56C383.798 216.486 383.643 216.486 383.517 216.56L377.492 220.102V213.02C377.492 212.872 377.415 212.735 377.289 212.661L372.813 210.028C372.677 209.948 372.508 210.048 372.508 210.208V220.102L366.485 216.56C366.359 216.486 366.204 216.486 366.078 216.56L361.602 219.194C361.466 219.273 361.466 219.473 361.602 219.552L370.015 224.5L361.602 229.447C361.466 229.527 361.466 229.727 361.602 229.806L366.076 232.439C366.202 232.514 366.357 232.514 366.483 232.44L372.508 228.897V235.982C372.508 236.13 372.585 236.267 372.711 236.341L377.187 238.972C377.323 239.052 377.492 238.952 377.492 238.792V228.897L383.515 232.44C383.641 232.514 383.796 232.514 383.922 232.44L388.398 229.806C388.534 229.727 388.534 229.527 388.398 229.447L379.985 224.5L388.398 219.552C388.534 219.473 388.534 219.273 388.398 219.193ZM377.798 226.145L375 227.791L372.202 226.145V222.855L375 221.209L377.798 222.855V226.145Z" fill="white"/>
</g>
<path d="M353.904 249.512H355.68L359.28 261H357.728L356.8 257.976H352.752L351.824 261H350.32L353.904 249.512ZM354.768 251.352L353.152 256.632H356.384L354.768 251.352ZM368.17 260.248C368.17 262.696 366.57 264.056 364.282 264.056C362.458 264.056 361.114 263.208 360.65 261.672L361.994 261.16C362.282 262.232 363.13 262.856 364.282 262.856C365.77 262.856 366.73 262.104 366.73 260.36V259.416C366.282 260.232 365.386 260.808 364.218 260.808C361.978 260.808 360.682 258.92 360.682 256.632C360.682 254.36 361.978 252.472 364.218 252.472C365.386 252.472 366.282 253.048 366.73 253.864V252.632H368.17V260.248ZM366.746 256.504C366.746 254.632 365.642 253.736 364.506 253.736C362.986 253.736 362.138 254.872 362.138 256.632C362.138 258.392 362.986 259.544 364.506 259.544C365.642 259.544 366.746 258.648 366.746 256.808V256.504ZM374.835 261.176C372.435 261.176 370.803 259.4 370.803 256.824C370.803 254.328 372.435 252.472 374.771 252.472C377.171 252.472 378.436 254.248 378.436 256.568V257.048H372.195C372.291 258.808 373.331 259.928 374.835 259.928C376.019 259.928 376.851 259.32 377.123 258.328L378.372 258.776C377.844 260.264 376.547 261.176 374.835 261.176ZM374.771 253.704C373.475 253.704 372.547 254.52 372.275 255.944H376.979C376.947 254.76 376.275 253.704 374.771 253.704ZM381.229 261V252.632H382.669V253.768C383.133 253.08 383.981 252.472 385.165 252.472C386.941 252.472 387.949 253.704 387.949 255.48V261H386.509V255.864C386.509 254.696 386.013 253.816 384.765 253.816C383.725 253.816 382.669 254.616 382.669 256.008V261H381.229ZM392.743 258.312V253.864H390.279V252.632H392.743V250.184H394.151V252.632H398.007V253.864H394.151V258.2C394.151 259.336 394.823 259.8 396.151 259.8C396.807 259.8 397.463 259.688 398.055 259.512V260.808C397.495 260.968 396.695 261.096 395.927 261.096C394.183 261.096 392.743 260.36 392.743 258.312Z" fill="#DED6FC"/>
<g clip-path="url(#clip4_2254_35744)">
<path d="M577.002 182.75C577.636 182.75 578.268 182.813 578.89 182.938C580.853 183.314 582.659 184.27 584.074 185.682C585.489 187.095 586.448 188.899 586.827 190.863L587.152 192.55L588.84 192.85C590.544 193.143 592.075 194.068 593.128 195.44C594.181 196.812 594.678 198.53 594.521 200.252C594.363 201.975 593.562 203.574 592.277 204.732C590.993 205.89 589.319 206.521 587.59 206.5H566.377C564.648 206.521 562.974 205.89 561.689 204.732C560.405 203.574 559.604 201.975 559.446 200.252C559.288 198.53 559.785 196.812 560.838 195.44C561.891 194.068 563.423 193.143 565.127 192.85L566.802 192.55L567.127 190.863C567.568 188.57 568.796 186.505 570.6 185.023C572.403 183.541 574.668 182.737 577.002 182.75ZM577.002 180.25C574.093 180.248 571.274 181.26 569.031 183.113C566.788 184.966 565.262 187.543 564.715 190.4C562.412 190.817 560.349 192.079 558.931 193.939C557.512 195.8 556.84 198.123 557.046 200.453C557.253 202.784 558.324 204.953 560.048 206.534C561.772 208.115 564.025 208.995 566.365 209H587.615C589.954 208.995 592.207 208.115 593.931 206.534C595.655 204.953 596.726 202.784 596.933 200.453C597.139 198.123 596.467 195.8 595.049 193.939C593.63 192.079 591.567 190.817 589.265 190.4C588.794 187.942 587.596 185.682 585.827 183.913C584.057 182.143 581.797 180.946 579.34 180.475C578.569 180.329 577.786 180.253 577.002 180.25Z" fill="#CDC2FB"/>
</g>
<defs>
<clipPath id="clip0_2254_35744">
<rect width="32" height="32" fill="white" transform="translate(474 368)"/>
</clipPath>
<clipPath id="clip1_2254_35744">
<rect width="27" height="29" fill="white" transform="translate(564 92)"/>
</clipPath>
<clipPath id="clip2_2254_35744">
<rect width="27" height="29" fill="white" transform="translate(805 108)"/>
</clipPath>
<clipPath id="clip3_2254_35744">
<rect width="27" height="29" fill="white" transform="translate(361.5 210)"/>
</clipPath>
<clipPath id="clip4_2254_35744">
<rect width="40" height="40" fill="white" transform="translate(557 174)"/>
</clipPath>
</defs>
</svg>
