<svg width="524" height="629" viewBox="0 0 524 629" fill="none" xmlns="http://www.w3.org/2000/svg">
<rect width="524" height="629" rx="16" fill="#5933F2"/>
<path d="M258.707 172.707C259.098 172.317 259.098 171.683 258.707 171.293L252.343 164.929C251.953 164.538 251.319 164.538 250.929 164.929C250.538 165.319 250.538 165.953 250.929 166.343L256.586 172L250.929 177.657C250.538 178.047 250.538 178.681 250.929 179.071C251.319 179.462 251.953 179.462 252.343 179.071L258.707 172.707ZM234 173L258 173L258 171L234 171L234 173Z" fill="#B4A3F9"/>
<path d="M352.707 529.707C353.098 529.317 353.098 528.683 352.707 528.293L346.343 521.929C345.953 521.538 345.319 521.538 344.929 521.929C344.538 522.319 344.538 522.953 344.929 523.343L350.586 529L344.929 534.657C344.538 535.047 344.538 535.681 344.929 536.071C345.319 536.462 345.953 536.462 346.343 536.071L352.707 529.707ZM194 530L352 530L352 528L194 528L194 530Z" fill="#B4A3F9"/>
<path d="M126.338 127.078H123.3V119.266H126.342L126.338 127.078ZM79.9314 119.266H76.8939V127.078H79.9314V119.266ZM156.021 171.316L156.903 174.004L153.532 174.953C150.38 175.812 147.043 174.309 145.79 171.559L135.61 177.004C134.817 177.586 133.45 177.191 133.185 176.27C133.164 176.199 133.151 176.133 133.143 176.062L129.983 165.148C129.017 165.437 127.991 165.594 126.924 165.594H124.228V195.438C124.228 196.215 123.549 196.844 122.71 196.844H115.791V221.48C120.562 222.16 124.228 225.988 124.228 230.594C124.228 231.371 123.549 232 122.71 232H105.835C104.995 232 104.316 231.371 104.316 230.594C104.316 225.988 107.982 222.16 112.753 221.48V196.844H90.4783V221.48C95.2497 222.16 98.9158 225.988 98.9158 230.594C98.9158 231.371 98.2366 232 97.397 232H80.522C79.6825 232 79.0033 231.371 79.0033 230.594C79.0033 225.988 82.6694 222.16 87.4408 221.48V196.844H80.522C79.6825 196.844 79.0033 196.215 79.0033 195.438V165.59H76.2991C75.2781 165.59 74.2909 165.445 73.3628 165.184L70.2367 175.984C70.2325 176.078 70.2156 176.176 70.1861 176.27C69.9245 177.164 68.6505 177.574 67.832 177.055L57.5594 171.562C56.3148 174.316 52.9863 175.82 49.8348 174.965L46.3417 174.012L47.1981 171.316L50.6912 172.266C52.4673 172.75 54.3658 171.797 54.8889 170.141C55.142 169.344 55.0408 168.5 54.6062 167.762C54.1717 167.023 53.4588 166.488 52.5981 166.258L50.5816 165.711L47.5356 167.359L46 164.93L49.6028 162.977C49.9614 162.777 50.3917 162.73 50.7967 162.84L53.4461 163.559C55.0872 164.004 56.4456 165.02 57.2683 166.414C57.6691 167.09 57.918 167.82 58.015 168.562L67.735 173.758L70.5784 163.922C68.0219 162.25 66.3428 159.488 66.3428 156.375C66.3428 151.293 70.8105 147.156 76.2991 147.156H79.0075V144.656C79.0075 143.879 79.6867 143.25 80.5262 143.25H100.101V134.344H84.7408C83.9013 134.344 83.222 133.715 83.222 132.938V113.406C83.222 112.629 83.9013 112 84.7408 112H118.491C119.33 112 120.01 112.629 120.01 113.406V132.938C120.01 133.715 119.33 134.344 118.491 134.344H103.135V143.25H122.71C123.549 143.25 124.228 143.879 124.228 144.656V147.156H126.924C132.417 147.156 136.88 151.293 136.88 156.375C136.88 159.445 135.248 162.172 132.75 163.848L135.619 173.758L145.335 168.562C145.432 167.82 145.681 167.094 146.086 166.414C146.908 165.02 148.267 164.004 149.904 163.559L152.545 162.844C152.966 162.727 153.405 162.781 153.768 162.988L157.248 164.941L155.675 167.344L152.768 165.711L150.76 166.254C149.895 166.488 149.182 167.023 148.743 167.762C148.309 168.496 148.208 169.344 148.465 170.141C148.992 171.793 150.887 172.754 152.663 172.262L156.021 171.316ZM79.0033 149.965H76.2991C72.4853 149.965 69.3803 152.84 69.3803 156.371C69.3803 159.902 72.4853 162.777 76.2991 162.777H79.0075L79.0033 149.965ZM88.9595 224.188C85.6647 224.188 82.9014 226.328 82.2095 229.184H95.7095C95.0177 226.328 92.2544 224.188 88.9595 224.188ZM116.972 131.531V114.812H86.2595V131.531H116.972ZM114.272 224.188C110.981 224.188 108.214 226.328 107.518 229.184H121.022C120.33 226.328 117.563 224.188 114.272 224.188ZM121.191 146.062H82.0408V194.031H121.191V146.062ZM133.843 156.375C133.843 152.844 130.742 149.969 126.924 149.969H124.228V162.781H126.924C130.738 162.781 133.843 159.906 133.843 156.375ZM111.572 123.172C111.572 126.102 108.999 128.484 105.835 128.484H97.397C94.233 128.484 91.6595 126.102 91.6595 123.172C91.6595 120.242 94.233 117.859 97.397 117.859H105.835C108.999 117.859 111.572 120.242 111.572 123.172ZM108.535 123.172C108.535 121.793 107.324 120.672 105.835 120.672H97.397C95.9078 120.672 94.697 121.793 94.697 123.172C94.697 124.551 95.9078 125.672 97.397 125.672H105.835C107.324 125.672 108.535 124.551 108.535 123.172Z" fill="#DED6FC"/>
<path d="M311 259L311 258L309 258L309 259L311 259ZM309.293 283.707C309.683 284.098 310.317 284.098 310.707 283.707L317.071 277.343C317.462 276.953 317.462 276.319 317.071 275.929C316.681 275.538 316.047 275.538 315.657 275.929L310 281.586L304.343 275.929C303.953 275.538 303.319 275.538 302.929 275.929C302.538 276.319 302.538 276.953 302.929 277.343L309.293 283.707ZM309 259L309 283L311 283L311 259L309 259Z" fill="#B4A3F9"/>
<path d="M342.707 258.293C342.317 257.902 341.683 257.902 341.293 258.293L334.929 264.657C334.538 265.047 334.538 265.681 334.929 266.071C335.319 266.462 335.953 266.462 336.343 266.071L342 260.414L347.657 266.071C348.047 266.462 348.681 266.462 349.071 266.071C349.462 265.681 349.462 265.047 349.071 264.657L342.707 258.293ZM341 283L341 284L343 284L343 283L341 283ZM341 259L341 283L343 283L343 259L341 259Z" fill="#B4A3F9"/>
<path d="M426 259L426 258L424 258L424 259L426 259ZM424.293 387.707C424.683 388.098 425.317 388.098 425.707 387.707L432.071 381.343C432.462 380.953 432.462 380.319 432.071 379.929C431.681 379.538 431.047 379.538 430.657 379.929L425 385.586L419.343 379.929C418.953 379.538 418.319 379.538 417.929 379.929C417.538 380.319 417.538 380.953 417.929 381.343L424.293 387.707ZM424 259L424 387L426 387L426 259L424 259Z" fill="#B4A3F9"/>
<rect x="267" y="96" width="220" height="154" rx="19" fill="#382193" stroke="#5933F2" stroke-width="6"/>
<rect x="318" y="199" width="42" height="28" rx="14" fill="#CDC2FB"/>
<path d="M329.416 207.948H330.97L334.12 218H332.762L331.95 215.354H328.408L327.596 218H326.28L329.416 207.948ZM330.172 209.558L328.758 214.178H331.586L330.172 209.558ZM336.677 213.786V218H335.333V207.948H338.973C341.101 207.948 342.445 208.942 342.445 210.86C342.445 212.75 341.101 213.786 338.973 213.786H336.677ZM336.677 212.624H338.889C340.331 212.624 341.129 211.994 341.129 210.86C341.129 209.726 340.331 209.11 338.889 209.11H336.677V212.624ZM350.503 216.824V218H343.475V216.824H346.317V209.124H343.475V207.948H350.503V209.124H347.661V216.824H350.503Z" fill="black"/>
<rect x="368" y="199" width="67" height="28" rx="14" fill="#CDC2FB"/>
<path d="M379.71 207.948H380.732L381.978 215.48L383.07 207.948H384.26L382.664 218H381.53L380.2 210.202L378.87 218H377.736L376.14 207.948H377.358L378.45 215.48L379.71 207.948ZM388.777 218.154C386.677 218.154 385.249 216.6 385.249 214.346C385.249 212.162 386.677 210.538 388.721 210.538C390.821 210.538 391.927 212.092 391.927 214.122V214.542H386.467C386.551 216.082 387.461 217.062 388.777 217.062C389.813 217.062 390.541 216.53 390.779 215.662L391.871 216.054C391.409 217.356 390.275 218.154 388.777 218.154ZM388.721 211.616C387.587 211.616 386.775 212.33 386.537 213.576H390.653C390.625 212.54 390.037 211.616 388.721 211.616ZM397.381 218.154C396.387 218.154 395.645 217.664 395.225 216.922V218H393.965V207.948H395.225V211.756C395.645 211.028 396.387 210.538 397.381 210.538C399.341 210.538 400.447 212.274 400.447 214.346C400.447 216.404 399.341 218.154 397.381 218.154ZM395.197 214.108V214.612C395.197 216.292 396.191 217.048 397.129 217.048C398.445 217.048 399.173 215.928 399.173 214.346C399.173 212.764 398.445 211.644 397.129 211.644C396.191 211.644 395.197 212.372 395.197 214.108ZM413.778 218.14C411.706 218.14 410.404 216.88 410.404 214.192V207.948H411.748V214.136C411.748 216.096 412.49 216.908 413.778 216.908C415.066 216.908 415.808 216.096 415.808 214.136V207.948H417.152V214.192C417.152 216.88 415.85 218.14 413.778 218.14ZM425.687 216.824V218H418.659V216.824H421.501V209.124H418.659V207.948H425.687V209.124H422.845V216.824H425.687Z" fill="black"/>
<rect x="309" y="159" width="134" height="28" rx="14" fill="#CDC2FB"/>
<path d="M321.606 178H320.794L318.96 169.866V178H317.798V167.948H319.604L321.214 175.186L322.838 167.948H324.602V178H323.44V169.866L321.606 178ZM329.777 178.154C327.677 178.154 326.249 176.6 326.249 174.346C326.249 172.162 327.677 170.538 329.721 170.538C331.821 170.538 332.927 172.092 332.927 174.122V174.542H327.467C327.551 176.082 328.461 177.062 329.777 177.062C330.813 177.062 331.541 176.53 331.779 175.662L332.871 176.054C332.409 177.356 331.275 178.154 329.777 178.154ZM329.721 171.616C328.587 171.616 327.775 172.33 327.537 173.576H331.653C331.625 172.54 331.037 171.616 329.721 171.616ZM336.491 175.648V171.756H334.335V170.678H336.491V168.536H337.723V170.678H341.097V171.756H337.723V175.55C337.723 176.544 338.311 176.95 339.473 176.95C340.047 176.95 340.621 176.852 341.139 176.698V177.832C340.649 177.972 339.949 178.084 339.277 178.084C337.751 178.084 336.491 177.44 336.491 175.648ZM345.46 178.126C344.102 178.126 342.996 177.342 342.996 176.026C342.996 174.57 344.186 173.954 345.81 173.646L347.77 173.268V172.96C347.77 172.12 347.252 171.63 346.216 171.63C345.278 171.63 344.662 172.092 344.41 172.904L343.234 172.596C343.612 171.392 344.704 170.538 346.272 170.538C347.966 170.538 349.002 171.336 349.002 172.904V176.432C349.002 176.992 349.38 177.104 349.898 176.992V178C348.722 178.14 348.022 177.916 347.84 177.146C347.364 177.72 346.51 178.126 345.46 178.126ZM347.77 175.466V174.248L346.132 174.556C345.054 174.766 344.27 175.088 344.27 175.97C344.27 176.684 344.802 177.104 345.642 177.104C346.762 177.104 347.77 176.404 347.77 175.466ZM354.386 178.154C352.426 178.154 351.32 176.404 351.32 174.346C351.32 172.274 352.426 170.538 354.386 170.538C355.38 170.538 356.122 171.028 356.542 171.756V167.948H357.802V178H356.542V176.922C356.122 177.664 355.38 178.154 354.386 178.154ZM356.57 174.108C356.57 172.372 355.576 171.644 354.638 171.644C353.322 171.644 352.594 172.764 352.594 174.346C352.594 175.928 353.322 177.048 354.638 177.048C355.576 177.048 356.57 176.292 356.57 174.612V174.108ZM362.249 178.126C360.891 178.126 359.785 177.342 359.785 176.026C359.785 174.57 360.975 173.954 362.599 173.646L364.559 173.268V172.96C364.559 172.12 364.041 171.63 363.005 171.63C362.067 171.63 361.451 172.092 361.199 172.904L360.023 172.596C360.401 171.392 361.493 170.538 363.061 170.538C364.755 170.538 365.791 171.336 365.791 172.904V176.432C365.791 176.992 366.169 177.104 366.687 176.992V178C365.511 178.14 364.811 177.916 364.629 177.146C364.153 177.72 363.299 178.126 362.249 178.126ZM364.559 175.466V174.248L362.921 174.556C361.843 174.766 361.059 175.088 361.059 175.97C361.059 176.684 361.591 177.104 362.431 177.104C363.551 177.104 364.559 176.404 364.559 175.466ZM370.069 175.648V171.756H367.913V170.678H370.069V168.536H371.301V170.678H374.675V171.756H371.301V175.55C371.301 176.544 371.889 176.95 373.051 176.95C373.625 176.95 374.199 176.852 374.717 176.698V177.832C374.227 177.972 373.527 178.084 372.855 178.084C371.329 178.084 370.069 177.44 370.069 175.648ZM379.038 178.126C377.68 178.126 376.574 177.342 376.574 176.026C376.574 174.57 377.764 173.954 379.388 173.646L381.348 173.268V172.96C381.348 172.12 380.83 171.63 379.794 171.63C378.856 171.63 378.24 172.092 377.988 172.904L376.812 172.596C377.19 171.392 378.282 170.538 379.85 170.538C381.544 170.538 382.58 171.336 382.58 172.904V176.432C382.58 176.992 382.958 177.104 383.476 176.992V178C382.3 178.14 381.6 177.916 381.418 177.146C380.942 177.72 380.088 178.126 379.038 178.126ZM381.348 175.466V174.248L379.71 174.556C378.632 174.766 377.848 175.088 377.848 175.97C377.848 176.684 378.38 177.104 379.22 177.104C380.34 177.104 381.348 176.404 381.348 175.466ZM392.691 175.942L393.741 175.088C394.371 176.292 395.519 177.006 396.821 177.006C398.123 177.006 399.117 176.348 399.117 175.2C399.117 173.982 397.969 173.772 396.429 173.394C394.861 173.016 393.279 172.596 393.279 170.706C393.279 168.942 394.819 167.794 396.723 167.794C398.473 167.794 399.719 168.606 400.335 169.754L399.313 170.552C398.809 169.586 397.997 168.928 396.681 168.928C395.477 168.928 394.581 169.6 394.581 170.594C394.581 171.658 395.533 171.882 396.947 172.218C398.599 172.61 400.433 172.96 400.433 175.088C400.433 176.964 398.767 178.154 396.779 178.154C395.043 178.154 393.377 177.3 392.691 175.942ZM403.647 175.648V171.756H401.491V170.678H403.647V168.536H404.879V170.678H408.253V171.756H404.879V175.55C404.879 176.544 405.467 176.95 406.629 176.95C407.203 176.95 407.777 176.852 408.295 176.698V177.832C407.805 177.972 407.105 178.084 406.433 178.084C404.907 178.084 403.647 177.44 403.647 175.648ZM416.942 174.346C416.942 176.614 415.542 178.154 413.54 178.154C411.538 178.154 410.138 176.614 410.138 174.346C410.138 172.078 411.538 170.538 413.54 170.538C415.542 170.538 416.942 172.078 416.942 174.346ZM411.412 174.346C411.412 176.012 412.252 177.076 413.54 177.076C414.828 177.076 415.668 176.012 415.668 174.346C415.668 172.666 414.828 171.602 413.54 171.602C412.252 171.602 411.412 172.666 411.412 174.346ZM418.574 178V176.922H420.632V171.756H418.574V170.678H421.878V172.022C422.326 171.168 423.292 170.538 424.524 170.538C425.014 170.538 425.406 170.608 425.658 170.72V171.966C425.322 171.854 424.93 171.77 424.398 171.77C423.096 171.77 421.878 172.652 421.878 173.996V176.922H424.65V178H418.574ZM430.511 178.154C428.411 178.154 426.983 176.6 426.983 174.346C426.983 172.162 428.411 170.538 430.455 170.538C432.555 170.538 433.661 172.092 433.661 174.122V174.542H428.201C428.285 176.082 429.195 177.062 430.511 177.062C431.547 177.062 432.275 176.53 432.513 175.662L433.605 176.054C433.143 177.356 432.009 178.154 430.511 178.154ZM430.455 171.616C429.321 171.616 428.509 172.33 428.271 173.576H432.387C432.359 172.54 431.771 171.616 430.455 171.616Z" fill="black"/>
<path d="M147.338 484.078H144.3V476.266H147.342L147.338 484.078ZM100.931 476.266H97.8939V484.078H100.931V476.266ZM177.021 528.316L177.903 531.004L174.532 531.953C171.38 532.812 168.043 531.309 166.79 528.559L156.61 534.004C155.817 534.586 154.45 534.191 154.185 533.27C154.164 533.199 154.151 533.133 154.143 533.062L150.983 522.148C150.017 522.437 148.991 522.594 147.924 522.594H145.228V552.438C145.228 553.215 144.549 553.844 143.71 553.844H136.791V578.48C141.562 579.16 145.228 582.988 145.228 587.594C145.228 588.371 144.549 589 143.71 589H126.835C125.995 589 125.316 588.371 125.316 587.594C125.316 582.988 128.982 579.16 133.753 578.48V553.844H111.478V578.48C116.25 579.16 119.916 582.988 119.916 587.594C119.916 588.371 119.237 589 118.397 589H101.522C100.683 589 100.003 588.371 100.003 587.594C100.003 582.988 103.669 579.16 108.441 578.48V553.844H101.522C100.683 553.844 100.003 553.215 100.003 552.438V522.59H97.2991C96.2781 522.59 95.2909 522.445 94.3628 522.184L91.2367 532.984C91.2325 533.078 91.2156 533.176 91.1861 533.27C90.9245 534.164 89.6505 534.574 88.832 534.055L78.5594 528.562C77.3148 531.316 73.9863 532.82 70.8348 531.965L67.3417 531.012L68.1981 528.316L71.6912 529.266C73.4673 529.75 75.3658 528.797 75.8889 527.141C76.142 526.344 76.0408 525.5 75.6062 524.762C75.1717 524.023 74.4588 523.488 73.5981 523.258L71.5816 522.711L68.5356 524.359L67 521.93L70.6028 519.977C70.9614 519.777 71.3917 519.73 71.7967 519.84L74.4461 520.559C76.0872 521.004 77.4456 522.02 78.2683 523.414C78.6691 524.09 78.918 524.82 79.015 525.562L88.735 530.758L91.5784 520.922C89.0219 519.25 87.3428 516.488 87.3428 513.375C87.3428 508.293 91.8105 504.156 97.2991 504.156H100.007V501.656C100.007 500.879 100.687 500.25 101.526 500.25H121.101V491.344H105.741C104.901 491.344 104.222 490.715 104.222 489.938V470.406C104.222 469.629 104.901 469 105.741 469H139.491C140.33 469 141.01 469.629 141.01 470.406V489.938C141.01 490.715 140.33 491.344 139.491 491.344H124.135V500.25H143.71C144.549 500.25 145.228 500.879 145.228 501.656V504.156H147.924C153.417 504.156 157.88 508.293 157.88 513.375C157.88 516.445 156.248 519.172 153.75 520.848L156.619 530.758L166.335 525.562C166.432 524.82 166.681 524.094 167.086 523.414C167.908 522.02 169.267 521.004 170.904 520.559L173.545 519.844C173.966 519.727 174.405 519.781 174.768 519.988L178.248 521.941L176.675 524.344L173.768 522.711L171.76 523.254C170.895 523.488 170.182 524.023 169.743 524.762C169.309 525.496 169.208 526.344 169.465 527.141C169.992 528.793 171.887 529.754 173.663 529.262L177.021 528.316ZM100.003 506.965H97.2991C93.4853 506.965 90.3803 509.84 90.3803 513.371C90.3803 516.902 93.4853 519.777 97.2991 519.777H100.007L100.003 506.965ZM109.96 581.188C106.665 581.188 103.901 583.328 103.21 586.184H116.71C116.018 583.328 113.254 581.188 109.96 581.188ZM137.972 488.531V471.812H107.26V488.531H137.972ZM135.272 581.188C131.981 581.188 129.214 583.328 128.518 586.184H142.022C141.33 583.328 138.563 581.188 135.272 581.188ZM142.191 503.062H103.041V551.031H142.191V503.062ZM154.843 513.375C154.843 509.844 151.742 506.969 147.924 506.969H145.228V519.781H147.924C151.738 519.781 154.843 516.906 154.843 513.375ZM132.572 480.172C132.572 483.102 129.999 485.484 126.835 485.484H118.397C115.233 485.484 112.66 483.102 112.66 480.172C112.66 477.242 115.233 474.859 118.397 474.859H126.835C129.999 474.859 132.572 477.242 132.572 480.172ZM129.535 480.172C129.535 478.793 128.324 477.672 126.835 477.672H118.397C116.908 477.672 115.697 478.793 115.697 480.172C115.697 481.551 116.908 482.672 118.397 482.672H126.835C128.324 482.672 129.535 481.551 129.535 480.172Z" fill="#DED6FC"/>
<g clip-path="url(#clip0_2254_35870)">
<path d="M391.898 49.1935L387.424 46.5604C387.298 46.4863 387.143 46.4863 387.017 46.5603L380.992 50.1025V43.0202C380.992 42.8721 380.915 42.7353 380.789 42.6613L376.313 40.0281C376.177 39.9483 376.008 40.048 376.008 40.2075V50.1024L369.985 46.5603C369.859 46.4862 369.704 46.4862 369.578 46.5603L365.102 49.1935C364.966 49.2733 364.966 49.4727 365.102 49.5524L373.515 54.5L365.102 59.4475C364.966 59.5272 364.966 59.7266 365.102 59.8064L369.576 62.4395C369.702 62.5136 369.857 62.5136 369.983 62.4396L376.008 58.8974V65.9817C376.008 66.1298 376.085 66.2667 376.211 66.3407L380.687 68.972C380.823 69.0517 380.992 68.952 380.992 68.7925V58.8975L387.015 62.4396C387.141 62.5136 387.296 62.5136 387.422 62.4396L391.898 59.8064C392.034 59.7266 392.034 59.5272 391.898 59.4475L383.485 54.5L391.898 49.5524C392.034 49.4727 392.034 49.2733 391.898 49.1935ZM381.298 56.1454L378.5 57.7908L375.702 56.1454V52.8545L378.5 51.2091L381.298 52.8545V56.1454Z" fill="white"/>
</g>
<path d="M303.072 82V70.512H305.52C308.992 70.512 311.008 72.752 311.008 76.256C311.008 79.76 308.992 82 305.52 82H303.072ZM304.576 80.672H305.52C308.176 80.672 309.488 78.928 309.488 76.256C309.488 73.568 308.176 71.84 305.504 71.84H304.576V80.672ZM315.658 82.144C314.106 82.144 312.842 81.248 312.842 79.744C312.842 78.08 314.202 77.376 316.058 77.024L318.298 76.592V76.24C318.298 75.28 317.706 74.72 316.522 74.72C315.45 74.72 314.746 75.248 314.458 76.176L313.114 75.824C313.546 74.448 314.794 73.472 316.586 73.472C318.522 73.472 319.706 74.384 319.706 76.176V80.208C319.706 80.848 320.138 80.976 320.73 80.848V82C319.386 82.16 318.586 81.904 318.378 81.024C317.834 81.68 316.858 82.144 315.658 82.144ZM318.298 79.104V77.712L316.426 78.064C315.194 78.304 314.298 78.672 314.298 79.68C314.298 80.496 314.906 80.976 315.866 80.976C317.146 80.976 318.298 80.176 318.298 79.104ZM324.915 79.312V74.864H322.451V73.632H324.915V71.184H326.323V73.632H330.179V74.864H326.323V79.2C326.323 80.336 326.995 80.8 328.323 80.8C328.979 80.8 329.635 80.688 330.227 80.512V81.808C329.667 81.968 328.867 82.096 328.099 82.096C326.355 82.096 324.915 81.36 324.915 79.312ZM335.485 82.144C333.933 82.144 332.669 81.248 332.669 79.744C332.669 78.08 334.029 77.376 335.885 77.024L338.125 76.592V76.24C338.125 75.28 337.533 74.72 336.349 74.72C335.277 74.72 334.573 75.248 334.285 76.176L332.941 75.824C333.373 74.448 334.621 73.472 336.413 73.472C338.349 73.472 339.533 74.384 339.533 76.176V80.208C339.533 80.848 339.965 80.976 340.557 80.848V82C339.213 82.16 338.413 81.904 338.205 81.024C337.661 81.68 336.685 82.144 335.485 82.144ZM338.125 79.104V77.712L336.253 78.064C335.021 78.304 334.125 78.672 334.125 79.68C334.125 80.496 334.733 80.976 335.693 80.976C336.973 80.976 338.125 80.176 338.125 79.104ZM356.833 82H355.905L353.809 72.704V82H352.481V70.512H354.545L356.385 78.784L358.241 70.512H360.257V82H358.929V72.704L356.833 82ZM365.226 82.144C363.674 82.144 362.41 81.248 362.41 79.744C362.41 78.08 363.77 77.376 365.626 77.024L367.866 76.592V76.24C367.866 75.28 367.274 74.72 366.09 74.72C365.018 74.72 364.314 75.248 364.026 76.176L362.682 75.824C363.114 74.448 364.362 73.472 366.154 73.472C368.09 73.472 369.274 74.384 369.274 76.176V80.208C369.274 80.848 369.706 80.976 370.298 80.848V82C368.954 82.16 368.154 81.904 367.946 81.024C367.402 81.68 366.426 82.144 365.226 82.144ZM367.866 79.104V77.712L365.994 78.064C364.762 78.304 363.866 78.672 363.866 79.68C363.866 80.496 364.474 80.976 365.434 80.976C366.714 80.976 367.866 80.176 367.866 79.104ZM372.884 82V73.632H374.324V74.768C374.788 74.08 375.636 73.472 376.82 73.472C378.596 73.472 379.604 74.704 379.604 76.48V82H378.164V76.864C378.164 75.696 377.668 74.816 376.42 74.816C375.38 74.816 374.324 75.616 374.324 77.008V82H372.884ZM385.054 82.144C383.502 82.144 382.238 81.248 382.238 79.744C382.238 78.08 383.598 77.376 385.454 77.024L387.694 76.592V76.24C387.694 75.28 387.102 74.72 385.918 74.72C384.846 74.72 384.142 75.248 383.854 76.176L382.51 75.824C382.942 74.448 384.19 73.472 385.982 73.472C387.918 73.472 389.102 74.384 389.102 76.176V80.208C389.102 80.848 389.534 80.976 390.126 80.848V82C388.782 82.16 387.982 81.904 387.774 81.024C387.23 81.68 386.254 82.144 385.054 82.144ZM387.694 79.104V77.712L385.822 78.064C384.59 78.304 383.694 78.672 383.694 79.68C383.694 80.496 384.302 80.976 385.262 80.976C386.542 80.976 387.694 80.176 387.694 79.104ZM399.48 81.248C399.48 83.696 397.88 85.056 395.592 85.056C393.768 85.056 392.424 84.208 391.96 82.672L393.304 82.16C393.592 83.232 394.44 83.856 395.592 83.856C397.08 83.856 398.04 83.104 398.04 81.36V80.416C397.592 81.232 396.696 81.808 395.528 81.808C393.288 81.808 391.992 79.92 391.992 77.632C391.992 75.36 393.288 73.472 395.528 73.472C396.696 73.472 397.592 74.048 398.04 74.864V73.632H399.48V81.248ZM398.056 77.504C398.056 75.632 396.952 74.736 395.816 74.736C394.296 74.736 393.448 75.872 393.448 77.632C393.448 79.392 394.296 80.544 395.816 80.544C396.952 80.544 398.056 79.648 398.056 77.808V77.504ZM406.145 82.176C403.745 82.176 402.113 80.4 402.113 77.824C402.113 75.328 403.745 73.472 406.081 73.472C408.481 73.472 409.745 75.248 409.745 77.568V78.048H403.505C403.601 79.808 404.641 80.928 406.145 80.928C407.329 80.928 408.161 80.32 408.433 79.328L409.681 79.776C409.153 81.264 407.857 82.176 406.145 82.176ZM406.081 74.704C404.785 74.704 403.857 75.52 403.585 76.944H408.289C408.257 75.76 407.585 74.704 406.081 74.704ZM413.211 76.368V82H411.899V73.616H413.211V74.528C413.483 73.968 413.995 73.472 414.763 73.472C415.515 73.472 416.027 73.92 416.315 74.624C416.571 74.064 417.211 73.472 418.043 73.472C419.227 73.472 419.867 74.464 419.867 75.856V82H418.539V76.272C418.539 75.424 418.379 74.8 417.643 74.8C417.003 74.8 416.539 75.392 416.539 76.368V82H415.211V76.272C415.211 75.424 415.035 74.8 414.299 74.8C413.643 74.8 413.211 75.392 413.211 76.368ZM425.973 82.176C423.573 82.176 421.941 80.4 421.941 77.824C421.941 75.328 423.573 73.472 425.909 73.472C428.309 73.472 429.573 75.248 429.573 77.568V78.048H423.333C423.429 79.808 424.469 80.928 425.973 80.928C427.157 80.928 427.989 80.32 428.261 79.328L429.509 79.776C428.981 81.264 427.685 82.176 425.973 82.176ZM425.909 74.704C424.613 74.704 423.685 75.52 423.413 76.944H428.117C428.085 75.76 427.413 74.704 425.909 74.704ZM432.367 82V73.632H433.807V74.768C434.271 74.08 435.119 73.472 436.303 73.472C438.079 73.472 439.087 74.704 439.087 76.48V82H437.647V76.864C437.647 75.696 437.151 74.816 435.903 74.816C434.863 74.816 433.807 75.616 433.807 77.008V82H432.367ZM443.88 79.312V74.864H441.416V73.632H443.88V71.184H445.288V73.632H449.144V74.864H445.288V79.2C445.288 80.336 445.96 80.8 447.288 80.8C447.944 80.8 448.6 80.688 449.192 80.512V81.808C448.632 81.968 447.832 82.096 447.064 82.096C445.32 82.096 443.88 81.36 443.88 79.312Z" fill="#DED6FC"/>
<mask id="path-18-inside-1_2254_35870" fill="white">
<rect x="364" y="470" width="120" height="115.714" rx="1.71429"/>
</mask>
<rect x="364" y="470" width="120" height="115.714" rx="1.71429" stroke="#DED6FC" stroke-width="5.14286" mask="url(#path-18-inside-1_2254_35870)"/>
<rect x="365.714" y="481.143" width="117.429" height="2.57143" fill="#DED6FC"/>
<rect x="364" y="526.572" width="60.8571" height="2.57143" fill="#DED6FC"/>
<rect x="370.857" y="575.43" width="33.4286" height="2.57143" fill="#DED6FC"/>
<rect x="406.857" y="573.715" width="2.57143" height="6" fill="#DED6FC"/>
<rect x="412" y="575.43" width="72" height="2.57143" fill="#DED6FC"/>
<rect x="365.714" y="567.715" width="117.429" height="2.57143" fill="#DED6FC"/>
<path d="M371.714 511.143H378.142L382.428 502.79L387.571 511.143L392.285 500.001L397 508.572L399.571 502.79L401.285 498.504L406.428 512.429L410.714 502.572L413.285 507.286L418.428 505.143" stroke="#DED6FC" stroke-width="2.57143"/>
<circle cx="372.572" cy="476.857" r="1.71429" fill="#DED6FC"/>
<circle cx="377.714" cy="476.857" r="1.71429" fill="#DED6FC"/>
<circle cx="382.858" cy="476.857" r="1.71429" fill="#DED6FC"/>
<rect x="423.143" y="483.715" width="2.57143" height="84" fill="#DED6FC"/>
<ellipse cx="467.137" cy="517.571" rx="1.96078" ry="2.14286" fill="#DED6FC"/>
<ellipse cx="454.979" cy="505.999" rx="2.35294" ry="2.57143" fill="#DED6FC"/>
<ellipse cx="466.352" cy="509.858" rx="1.96078" ry="2.14286" fill="#DED6FC"/>
<ellipse cx="460.861" cy="508.143" rx="1.96078" ry="2.14286" fill="#DED6FC"/>
<ellipse cx="461.645" cy="516.715" rx="1.96078" ry="2.14286" fill="#DED6FC"/>
<ellipse cx="467.137" cy="525.285" rx="1.96078" ry="2.14286" fill="#DED6FC"/>
<ellipse cx="472.236" cy="525.714" rx="1.56863" ry="1.71429" fill="#DED6FC"/>
<ellipse cx="461.645" cy="525.285" rx="1.96078" ry="2.14286" fill="#DED6FC"/>
<ellipse cx="456.154" cy="533" rx="1.96078" ry="2.14286" fill="#DED6FC"/>
<ellipse cx="449.097" cy="524.428" rx="1.96078" ry="2.14286" fill="#DED6FC"/>
<ellipse cx="443.997" cy="533.429" rx="2.35294" ry="2.57143" fill="#DED6FC"/>
<ellipse cx="456.154" cy="515.858" rx="1.96078" ry="2.14286" fill="#DED6FC"/>
<ellipse cx="442.43" cy="523.999" rx="2.35294" ry="2.57143" fill="#DED6FC"/>
<ellipse cx="443.997" cy="513.714" rx="2.35294" ry="2.57143" fill="#DED6FC"/>
<ellipse cx="437.723" cy="512.857" rx="2.35294" ry="2.57143" fill="#DED6FC"/>
<ellipse cx="436.156" cy="523.144" rx="2.35294" ry="2.57143" fill="#DED6FC"/>
<ellipse cx="437.723" cy="534.286" rx="2.35294" ry="2.57143" fill="#DED6FC"/>
<ellipse cx="455.371" cy="524.428" rx="1.96078" ry="2.14286" fill="#DED6FC"/>
<ellipse cx="449.88" cy="533" rx="1.96078" ry="2.14286" fill="#DED6FC"/>
<ellipse cx="442.43" cy="502.571" rx="2.35294" ry="2.57143" fill="#DED6FC"/>
<ellipse cx="457.329" cy="540.287" rx="1.56863" ry="1.71429" fill="#DED6FC"/>
<ellipse cx="462.82" cy="541.142" rx="1.56863" ry="1.71429" fill="#DED6FC"/>
<ellipse cx="453.411" cy="547.142" rx="1.56863" ry="1.71429" fill="#DED6FC"/>
<ellipse cx="447.92" cy="547.999" rx="1.56863" ry="1.71429" fill="#DED6FC"/>
<ellipse cx="442.429" cy="548.857" rx="1.56863" ry="1.71429" fill="#DED6FC"/>
<ellipse cx="458.903" cy="547.142" rx="1.56863" ry="1.71429" fill="#DED6FC"/>
<ellipse cx="464.394" cy="547.999" rx="1.56863" ry="1.71429" fill="#DED6FC"/>
<ellipse cx="440.472" cy="542.428" rx="1.96078" ry="2.14286" fill="#DED6FC"/>
<ellipse cx="445.962" cy="541.571" rx="1.96078" ry="2.14286" fill="#DED6FC"/>
<ellipse cx="451.446" cy="540.715" rx="1.96078" ry="2.14286" fill="#DED6FC"/>
<ellipse cx="468.311" cy="541.999" rx="1.56863" ry="1.71429" fill="#DED6FC"/>
<ellipse cx="472.236" cy="533.429" rx="1.56863" ry="1.71429" fill="#DED6FC"/>
<ellipse cx="448.704" cy="504.286" rx="2.35294" ry="2.57143" fill="#DED6FC"/>
<ellipse cx="450.272" cy="514.571" rx="2.35294" ry="2.57143" fill="#DED6FC"/>
<ellipse cx="467.137" cy="533" rx="1.96078" ry="2.14286" fill="#DED6FC"/>
<ellipse cx="461.645" cy="533" rx="1.96078" ry="2.14286" fill="#DED6FC"/>
<path d="M381.573 553.446L379.83 551.541L384.102 546.868L379.83 542.196L381.577 540.287L387.595 546.868L381.573 553.446ZM397.859 554.893H387.564V557.593H397.859V554.893Z" fill="#DED6FC"/>
<g clip-path="url(#clip1_2254_35870)">
<path d="M438.898 408.193L434.424 405.56C434.298 405.486 434.143 405.486 434.017 405.56L427.992 409.102V402.02C427.992 401.872 427.915 401.735 427.789 401.661L423.313 399.028C423.177 398.948 423.008 399.048 423.008 399.208V409.102L416.985 405.56C416.859 405.486 416.704 405.486 416.578 405.56L412.102 408.194C411.966 408.273 411.966 408.473 412.102 408.552L420.515 413.5L412.102 418.447C411.966 418.527 411.966 418.727 412.102 418.806L416.576 421.439C416.702 421.514 416.857 421.514 416.983 421.44L423.008 417.897V424.982C423.008 425.13 423.085 425.267 423.211 425.341L427.687 427.972C427.823 428.052 427.992 427.952 427.992 427.792V417.897L434.015 421.44C434.141 421.514 434.296 421.514 434.422 421.44L438.898 418.806C439.034 418.727 439.034 418.527 438.898 418.447L430.485 413.5L438.898 408.552C439.034 408.473 439.034 408.273 438.898 408.193ZM428.298 415.145L425.5 416.791L422.702 415.145V411.855L425.5 410.209L428.298 411.855V415.145Z" fill="white"/>
</g>
<path d="M372.904 429.512H374.68L378.28 441H376.728L375.8 437.976H371.752L370.824 441H369.32L372.904 429.512ZM373.768 431.352L372.152 436.632H375.384L373.768 431.352ZM384.162 441.176C383.026 441.176 382.178 440.616 381.698 439.768V443.88H380.258V432.632H381.698V433.864C382.178 433.032 383.026 432.472 384.162 432.472C386.402 432.472 387.666 434.456 387.666 436.824C387.666 439.176 386.402 441.176 384.162 441.176ZM381.666 436.552V437.128C381.666 439.048 382.802 439.912 383.874 439.912C385.378 439.912 386.21 438.632 386.21 436.824C386.21 435.016 385.378 433.736 383.874 433.736C382.802 433.736 381.666 434.568 381.666 436.552ZM394.075 441.176C392.939 441.176 392.091 440.616 391.611 439.768V443.88H390.171V432.632H391.611V433.864C392.091 433.032 392.939 432.472 394.075 432.472C396.315 432.472 397.58 434.456 397.58 436.824C397.58 439.176 396.315 441.176 394.075 441.176ZM391.579 436.552V437.128C391.579 439.048 392.715 439.912 393.787 439.912C395.291 439.912 396.123 438.632 396.123 436.824C396.123 435.016 395.291 433.736 393.787 433.736C392.715 433.736 391.579 434.568 391.579 436.552ZM400.037 441V439.768H403.125V430.744H400.037V429.512H404.565V439.768H407.653V441H400.037ZM412.975 431.176V429.512H414.543V431.176H412.975ZM409.951 441V439.768H413.039V433.864H409.951V432.632H414.479V439.768H417.567V441H409.951ZM421.017 436.824C421.017 438.728 422.121 439.912 423.753 439.912C425.033 439.912 425.801 439.176 426.073 438.136L427.289 438.728C426.873 440.12 425.593 441.176 423.737 441.176C421.337 441.176 419.609 439.4 419.609 436.824C419.609 434.232 421.337 432.472 423.737 432.472C425.577 432.472 426.841 433.48 427.273 434.872L426.073 435.496C425.801 434.472 425.033 433.72 423.753 433.72C422.121 433.72 421.017 434.904 421.017 436.824ZM432.226 441.144C430.674 441.144 429.41 440.248 429.41 438.744C429.41 437.08 430.77 436.376 432.626 436.024L434.866 435.592V435.24C434.866 434.28 434.274 433.72 433.09 433.72C432.018 433.72 431.314 434.248 431.026 435.176L429.682 434.824C430.114 433.448 431.362 432.472 433.154 432.472C435.09 432.472 436.274 433.384 436.274 435.176V439.208C436.274 439.848 436.706 439.976 437.298 439.848V441C435.954 441.16 435.154 440.904 434.946 440.024C434.402 440.68 433.426 441.144 432.226 441.144ZM434.866 438.104V436.712L432.994 437.064C431.762 437.304 430.866 437.672 430.866 438.68C430.866 439.496 431.474 439.976 432.434 439.976C433.714 439.976 434.866 439.176 434.866 438.104ZM441.484 438.312V433.864H439.02V432.632H441.484V430.184H442.892V432.632H446.748V433.864H442.892V438.2C442.892 439.336 443.564 439.8 444.892 439.8C445.548 439.8 446.204 439.688 446.796 439.512V440.808C446.236 440.968 445.436 441.096 444.668 441.096C442.924 441.096 441.484 440.36 441.484 438.312ZM452.63 431.176V429.512H454.198V431.176H452.63ZM449.606 441V439.768H452.694V433.864H449.606V432.632H454.134V439.768H457.222V441H449.606ZM466.912 436.824C466.912 439.416 465.312 441.176 463.024 441.176C460.736 441.176 459.136 439.416 459.136 436.824C459.136 434.232 460.736 432.472 463.024 432.472C465.312 432.472 466.912 434.232 466.912 436.824ZM460.592 436.824C460.592 438.728 461.552 439.944 463.024 439.944C464.496 439.944 465.456 438.728 465.456 436.824C465.456 434.904 464.496 433.688 463.024 433.688C461.552 433.688 460.592 434.904 460.592 436.824ZM469.625 441V432.632H471.065V433.768C471.529 433.08 472.377 432.472 473.561 432.472C475.337 432.472 476.345 433.704 476.345 435.48V441H474.905V435.864C474.905 434.696 474.409 433.816 473.161 433.816C472.121 433.816 471.065 434.616 471.065 436.008V441H469.625Z" fill="#DED6FC"/>
<g clip-path="url(#clip2_2254_35870)">
<path d="M212.898 157.193L208.424 154.56C208.298 154.486 208.143 154.486 208.017 154.56L201.992 158.102V151.02C201.992 150.872 201.915 150.735 201.789 150.661L197.313 148.028C197.177 147.948 197.008 148.048 197.008 148.208V158.102L190.985 154.56C190.859 154.486 190.704 154.486 190.578 154.56L186.102 157.194C185.966 157.273 185.966 157.473 186.102 157.552L194.515 162.5L186.102 167.447C185.966 167.527 185.966 167.727 186.102 167.806L190.576 170.439C190.702 170.514 190.857 170.514 190.983 170.44L197.008 166.897V173.982C197.008 174.13 197.085 174.267 197.211 174.341L201.687 176.972C201.823 177.052 201.992 176.952 201.992 176.792V166.897L208.015 170.44C208.141 170.514 208.296 170.514 208.422 170.44L212.898 167.806C213.034 167.727 213.034 167.527 212.898 167.447L204.485 162.5L212.898 157.552C213.034 157.473 213.034 157.273 212.898 157.193ZM202.298 164.145L199.5 165.791L196.702 164.145V160.855L199.5 159.209L202.298 160.855V164.145Z" fill="white"/>
</g>
<path d="M175.904 178.512H177.68L181.28 190H179.728L178.8 186.976H174.752L173.824 190H172.32L175.904 178.512ZM176.768 180.352L175.152 185.632H178.384L176.768 180.352ZM190.17 189.248C190.17 191.696 188.57 193.056 186.282 193.056C184.458 193.056 183.114 192.208 182.65 190.672L183.994 190.16C184.282 191.232 185.13 191.856 186.282 191.856C187.77 191.856 188.73 191.104 188.73 189.36V188.416C188.282 189.232 187.386 189.808 186.218 189.808C183.978 189.808 182.682 187.92 182.682 185.632C182.682 183.36 183.978 181.472 186.218 181.472C187.386 181.472 188.282 182.048 188.73 182.864V181.632H190.17V189.248ZM188.746 185.504C188.746 183.632 187.642 182.736 186.506 182.736C184.986 182.736 184.138 183.872 184.138 185.632C184.138 187.392 184.986 188.544 186.506 188.544C187.642 188.544 188.746 187.648 188.746 185.808V185.504ZM196.835 190.176C194.435 190.176 192.803 188.4 192.803 185.824C192.803 183.328 194.435 181.472 196.771 181.472C199.171 181.472 200.436 183.248 200.436 185.568V186.048H194.195C194.291 187.808 195.331 188.928 196.835 188.928C198.019 188.928 198.851 188.32 199.123 187.328L200.372 187.776C199.844 189.264 198.547 190.176 196.835 190.176ZM196.771 182.704C195.475 182.704 194.547 183.52 194.275 184.944H198.979C198.947 183.76 198.275 182.704 196.771 182.704ZM203.229 190V181.632H204.669V182.768C205.133 182.08 205.981 181.472 207.165 181.472C208.941 181.472 209.949 182.704 209.949 184.48V190H208.509V184.864C208.509 183.696 208.013 182.816 206.765 182.816C205.725 182.816 204.669 183.616 204.669 185.008V190H203.229ZM214.743 187.312V182.864H212.279V181.632H214.743V179.184H216.151V181.632H220.007V182.864H216.151V187.2C216.151 188.336 216.823 188.8 218.151 188.8C218.807 188.8 219.463 188.688 220.055 188.512V189.808C219.495 189.968 218.695 190.096 217.927 190.096C216.183 190.096 214.743 189.36 214.743 187.312Z" fill="#DED6FC"/>
<g clip-path="url(#clip3_2254_35870)">
<path d="M376.002 120.75C376.636 120.75 377.268 120.813 377.89 120.938C379.853 121.314 381.659 122.27 383.074 123.682C384.489 125.095 385.448 126.899 385.827 128.863L386.152 130.55L387.84 130.85C389.544 131.143 391.075 132.068 392.128 133.44C393.181 134.812 393.678 136.53 393.521 138.252C393.363 139.975 392.562 141.574 391.277 142.732C389.993 143.89 388.319 144.521 386.59 144.5H365.377C363.648 144.521 361.974 143.89 360.689 142.732C359.405 141.574 358.604 139.975 358.446 138.252C358.288 136.53 358.785 134.812 359.838 133.44C360.891 132.068 362.423 131.143 364.127 130.85L365.802 130.55L366.127 128.863C366.568 126.57 367.796 124.505 369.6 123.023C371.403 121.541 373.668 120.737 376.002 120.75ZM376.002 118.25C373.093 118.248 370.274 119.26 368.031 121.113C365.788 122.966 364.262 125.543 363.715 128.4C361.412 128.817 359.349 130.079 357.931 131.939C356.512 133.8 355.84 136.123 356.046 138.453C356.253 140.784 357.324 142.953 359.048 144.534C360.772 146.115 363.025 146.995 365.365 147H386.615C388.954 146.995 391.207 146.115 392.931 144.534C394.655 142.953 395.726 140.784 395.933 138.453C396.139 136.123 395.467 133.8 394.049 131.939C392.63 130.079 390.567 128.817 388.265 128.4C387.794 125.942 386.596 123.682 384.827 121.913C383.057 120.143 380.797 118.946 378.34 118.475C377.569 118.329 376.786 118.253 376.002 118.25Z" fill="#CDC2FB"/>
</g>
<rect x="46" y="66" width="126" height="28" rx="14" fill="#DED6FC"/>
<path d="M60.118 74.948H61.462V85H60.118V80.394H56.282V85H54.938V74.948H56.282V79.218H60.118V74.948ZM69.4925 77.678V85H68.2325V83.992C67.8125 84.608 67.0985 85.154 66.0625 85.154C64.5085 85.154 63.6125 84.076 63.6125 82.522V77.678H64.8725V82.256C64.8725 83.292 65.3205 83.992 66.3985 83.992C67.3085 83.992 68.2325 83.306 68.2325 82.088V77.678H69.4925ZM72.6791 80.072V85H71.5311V77.664H72.6791V78.462C72.9171 77.972 73.3651 77.538 74.0371 77.538C74.6951 77.538 75.1431 77.93 75.3951 78.546C75.6191 78.056 76.1791 77.538 76.9071 77.538C77.9431 77.538 78.5031 78.406 78.5031 79.624V85H77.3411V79.988C77.3411 79.246 77.2011 78.7 76.5571 78.7C75.9971 78.7 75.5911 79.218 75.5911 80.072V85H74.4291V79.988C74.4291 79.246 74.2751 78.7 73.6311 78.7C73.0571 78.7 72.6791 79.218 72.6791 80.072ZM82.4596 85.126C81.1016 85.126 79.9956 84.342 79.9956 83.026C79.9956 81.57 81.1856 80.954 82.8096 80.646L84.7696 80.268V79.96C84.7696 79.12 84.2516 78.63 83.2156 78.63C82.2776 78.63 81.6616 79.092 81.4096 79.904L80.2336 79.596C80.6116 78.392 81.7036 77.538 83.2716 77.538C84.9656 77.538 86.0016 78.336 86.0016 79.904V83.432C86.0016 83.992 86.3796 84.104 86.8976 83.992V85C85.7216 85.14 85.0216 84.916 84.8396 84.146C84.3636 84.72 83.5096 85.126 82.4596 85.126ZM84.7696 82.466V81.248L83.1316 81.556C82.0536 81.766 81.2696 82.088 81.2696 82.97C81.2696 83.684 81.8016 84.104 82.6416 84.104C83.7616 84.104 84.7696 83.404 84.7696 82.466ZM88.8801 85V77.678H90.1401V78.672C90.5461 78.07 91.2881 77.538 92.3241 77.538C93.8781 77.538 94.7601 78.616 94.7601 80.17V85H93.5001V80.506C93.5001 79.484 93.0661 78.714 91.9741 78.714C91.0641 78.714 90.1401 79.414 90.1401 80.632V85H88.8801ZM103.575 81.346C103.575 83.614 102.175 85.154 100.173 85.154C98.1707 85.154 96.7707 83.614 96.7707 81.346C96.7707 79.078 98.1707 77.538 100.173 77.538C102.175 77.538 103.575 79.078 103.575 81.346ZM98.0447 81.346C98.0447 83.012 98.8847 84.076 100.173 84.076C101.461 84.076 102.301 83.012 102.301 81.346C102.301 79.666 101.461 78.602 100.173 78.602C98.8847 78.602 98.0447 79.666 98.0447 81.346ZM108.147 76.404V74.948H109.519V76.404H108.147ZM105.501 85V83.922H108.203V78.756H105.501V77.678H109.463V83.922H112.165V85H105.501ZM116.57 85.154C114.61 85.154 113.504 83.404 113.504 81.346C113.504 79.274 114.61 77.538 116.57 77.538C117.564 77.538 118.306 78.028 118.726 78.756V74.948H119.986V85H118.726V83.922C118.306 84.664 117.564 85.154 116.57 85.154ZM118.754 81.108C118.754 79.372 117.76 78.644 116.822 78.644C115.506 78.644 114.778 79.764 114.778 81.346C114.778 82.928 115.506 84.048 116.822 84.048C117.76 84.048 118.754 83.292 118.754 81.612V81.108ZM130.489 85V74.948H132.631C135.669 74.948 137.433 76.908 137.433 79.974C137.433 83.04 135.669 85 132.631 85H130.489ZM131.805 83.838H132.631C134.955 83.838 136.103 82.312 136.103 79.974C136.103 77.622 134.955 76.11 132.617 76.11H131.805V83.838ZM141.221 85.126C139.863 85.126 138.757 84.342 138.757 83.026C138.757 81.57 139.947 80.954 141.571 80.646L143.531 80.268V79.96C143.531 79.12 143.013 78.63 141.977 78.63C141.039 78.63 140.423 79.092 140.171 79.904L138.995 79.596C139.373 78.392 140.465 77.538 142.033 77.538C143.727 77.538 144.763 78.336 144.763 79.904V83.432C144.763 83.992 145.141 84.104 145.659 83.992V85C144.483 85.14 143.783 84.916 143.601 84.146C143.125 84.72 142.271 85.126 141.221 85.126ZM143.531 82.466V81.248L141.893 81.556C140.815 81.766 140.031 82.088 140.031 82.97C140.031 83.684 140.563 84.104 141.403 84.104C142.523 84.104 143.531 83.404 143.531 82.466ZM149.042 82.648V78.756H146.886V77.678H149.042V75.536H150.274V77.678H153.648V78.756H150.274V82.55C150.274 83.544 150.862 83.95 152.024 83.95C152.598 83.95 153.172 83.852 153.69 83.698V84.832C153.2 84.972 152.5 85.084 151.828 85.084C150.302 85.084 149.042 84.44 149.042 82.648ZM158.01 85.126C156.652 85.126 155.546 84.342 155.546 83.026C155.546 81.57 156.736 80.954 158.36 80.646L160.32 80.268V79.96C160.32 79.12 159.802 78.63 158.766 78.63C157.828 78.63 157.212 79.092 156.96 79.904L155.784 79.596C156.162 78.392 157.254 77.538 158.822 77.538C160.516 77.538 161.552 78.336 161.552 79.904V83.432C161.552 83.992 161.93 84.104 162.448 83.992V85C161.272 85.14 160.572 84.916 160.39 84.146C159.914 84.72 159.06 85.126 158.01 85.126ZM160.32 82.466V81.248L158.682 81.556C157.604 81.766 156.82 82.088 156.82 82.97C156.82 83.684 157.352 84.104 158.192 84.104C159.312 84.104 160.32 83.404 160.32 82.466Z" fill="black"/>
<rect x="40" y="421" width="168" height="28" rx="14" fill="#DED6FC"/>
<path d="M49.358 440V429.948H50.702V438.824H55.714V440H49.358ZM60.1745 431.404V429.948H61.5465V431.404H60.1745ZM57.5285 440V438.922H60.2305V433.756H57.5285V432.678H61.4905V438.922H64.1925V440H57.5285ZM69.6051 440H68.3591L65.3351 432.678H66.6651L69.0031 438.488L71.3131 432.678H72.6291L69.6051 440ZM77.5656 440.154C75.4656 440.154 74.0376 438.6 74.0376 436.346C74.0376 434.162 75.4656 432.538 77.5096 432.538C79.6096 432.538 80.7156 434.092 80.7156 436.122V436.542H75.2556C75.3396 438.082 76.2496 439.062 77.5656 439.062C78.6016 439.062 79.3296 438.53 79.5676 437.662L80.6596 438.054C80.1976 439.356 79.0636 440.154 77.5656 440.154ZM77.5096 433.616C76.3756 433.616 75.5636 434.33 75.3256 435.576H79.4416C79.4136 434.54 78.8256 433.616 77.5096 433.616ZM96.0907 429.948H97.4347V440H96.0907V435.394H92.2547V440H90.9107V429.948H92.2547V434.218H96.0907V429.948ZM105.465 432.678V440H104.205V438.992C103.785 439.608 103.071 440.154 102.035 440.154C100.481 440.154 99.5852 439.076 99.5852 437.522V432.678H100.845V437.256C100.845 438.292 101.293 438.992 102.371 438.992C103.281 438.992 104.205 438.306 104.205 437.088V432.678H105.465ZM108.652 435.072V440H107.504V432.664H108.652V433.462C108.89 432.972 109.338 432.538 110.01 432.538C110.668 432.538 111.116 432.93 111.368 433.546C111.592 433.056 112.152 432.538 112.88 432.538C113.916 432.538 114.476 433.406 114.476 434.624V440H113.314V434.988C113.314 434.246 113.174 433.7 112.53 433.7C111.97 433.7 111.564 434.218 111.564 435.072V440H110.402V434.988C110.402 434.246 110.248 433.7 109.604 433.7C109.03 433.7 108.652 434.218 108.652 435.072ZM118.432 440.126C117.074 440.126 115.968 439.342 115.968 438.026C115.968 436.57 117.158 435.954 118.782 435.646L120.742 435.268V434.96C120.742 434.12 120.224 433.63 119.188 433.63C118.25 433.63 117.634 434.092 117.382 434.904L116.206 434.596C116.584 433.392 117.676 432.538 119.244 432.538C120.938 432.538 121.974 433.336 121.974 434.904V438.432C121.974 438.992 122.352 439.104 122.87 438.992V440C121.694 440.14 120.994 439.916 120.812 439.146C120.336 439.72 119.482 440.126 118.432 440.126ZM120.742 437.466V436.248L119.104 436.556C118.026 436.766 117.242 437.088 117.242 437.97C117.242 438.684 117.774 439.104 118.614 439.104C119.734 439.104 120.742 438.404 120.742 437.466ZM124.853 440V432.678H126.113V433.672C126.519 433.07 127.261 432.538 128.297 432.538C129.851 432.538 130.733 433.616 130.733 435.17V440H129.473V435.506C129.473 434.484 129.039 433.714 127.947 433.714C127.037 433.714 126.113 434.414 126.113 435.632V440H124.853ZM139.547 436.346C139.547 438.614 138.147 440.154 136.145 440.154C134.143 440.154 132.743 438.614 132.743 436.346C132.743 434.078 134.143 432.538 136.145 432.538C138.147 432.538 139.547 434.078 139.547 436.346ZM134.017 436.346C134.017 438.012 134.857 439.076 136.145 439.076C137.433 439.076 138.273 438.012 138.273 436.346C138.273 434.666 137.433 433.602 136.145 433.602C134.857 433.602 134.017 434.666 134.017 436.346ZM144.12 431.404V429.948H145.492V431.404H144.12ZM141.474 440V438.922H144.176V433.756H141.474V432.678H145.436V438.922H148.138V440H141.474ZM152.542 440.154C150.582 440.154 149.476 438.404 149.476 436.346C149.476 434.274 150.582 432.538 152.542 432.538C153.536 432.538 154.278 433.028 154.698 433.756V429.948H155.958V440H154.698V438.922C154.278 439.664 153.536 440.154 152.542 440.154ZM154.726 436.108C154.726 434.372 153.732 433.644 152.794 433.644C151.478 433.644 150.75 434.764 150.75 436.346C150.75 437.928 151.478 439.048 152.794 439.048C153.732 439.048 154.726 438.292 154.726 436.612V436.108ZM166.461 440V429.948H168.603C171.641 429.948 173.405 431.908 173.405 434.974C173.405 438.04 171.641 440 168.603 440H166.461ZM167.777 438.838H168.603C170.927 438.838 172.075 437.312 172.075 434.974C172.075 432.622 170.927 431.11 168.589 431.11H167.777V438.838ZM177.194 440.126C175.836 440.126 174.73 439.342 174.73 438.026C174.73 436.57 175.92 435.954 177.544 435.646L179.504 435.268V434.96C179.504 434.12 178.986 433.63 177.95 433.63C177.012 433.63 176.396 434.092 176.144 434.904L174.968 434.596C175.346 433.392 176.438 432.538 178.006 432.538C179.7 432.538 180.736 433.336 180.736 434.904V438.432C180.736 438.992 181.114 439.104 181.632 438.992V440C180.456 440.14 179.756 439.916 179.574 439.146C179.098 439.72 178.244 440.126 177.194 440.126ZM179.504 437.466V436.248L177.866 436.556C176.788 436.766 176.004 437.088 176.004 437.97C176.004 438.684 176.536 439.104 177.376 439.104C178.496 439.104 179.504 438.404 179.504 437.466ZM185.015 437.648V433.756H182.859V432.678H185.015V430.536H186.247V432.678H189.621V433.756H186.247V437.55C186.247 438.544 186.835 438.95 187.997 438.95C188.571 438.95 189.145 438.852 189.663 438.698V439.832C189.173 439.972 188.473 440.084 187.801 440.084C186.275 440.084 185.015 439.44 185.015 437.648ZM193.983 440.126C192.625 440.126 191.519 439.342 191.519 438.026C191.519 436.57 192.709 435.954 194.333 435.646L196.293 435.268V434.96C196.293 434.12 195.775 433.63 194.739 433.63C193.801 433.63 193.185 434.092 192.933 434.904L191.757 434.596C192.135 433.392 193.227 432.538 194.795 432.538C196.489 432.538 197.525 433.336 197.525 434.904V438.432C197.525 438.992 197.903 439.104 198.421 438.992V440C197.245 440.14 196.545 439.916 196.363 439.146C195.887 439.72 195.033 440.126 193.983 440.126ZM196.293 437.466V436.248L194.655 436.556C193.577 436.766 192.793 437.088 192.793 437.97C192.793 438.684 193.325 439.104 194.165 439.104C195.285 439.104 196.293 438.404 196.293 437.466Z" fill="black"/>
<rect x="270" y="295" width="111" height="108" rx="16" fill="#382193"/>
<g clip-path="url(#clip4_2254_35870)">
<path d="M335.5 331C337.706 331 339.5 329.206 339.5 327C339.5 324.794 337.706 323 335.5 323C333.642 323 332.089 324.28 331.642 326H327.914L333.481 320.433C334.076 320.785 334.76 321 335.5 321C337.706 321 339.5 319.206 339.5 317C339.5 314.794 337.706 313 335.5 313C333.642 313 332.089 314.28 331.642 316H319.358C318.911 314.28 317.358 313 315.5 313C313.294 313 311.5 314.794 311.5 317C311.5 319.206 313.294 321 315.5 321C316.24 321 316.924 320.785 317.519 320.433L323.086 326H319.358C318.911 324.28 317.358 323 315.5 323C313.294 323 311.5 324.794 311.5 327C311.5 329.206 313.294 331 315.5 331C317.358 331 318.911 329.72 319.358 328H323.086L317.519 333.567C316.924 333.215 316.24 333 315.5 333C313.294 333 311.5 334.794 311.5 337C311.5 339.206 313.294 341 315.5 341C317.358 341 318.911 339.72 319.358 338H331.642C332.089 339.72 333.642 341 335.5 341C337.706 341 339.5 339.206 339.5 337C339.5 334.794 337.706 333 335.5 333C334.76 333 334.076 333.215 333.481 333.567L327.914 328H331.642C332.089 329.72 333.642 331 335.5 331ZM335.5 325C336.603 325 337.5 325.898 337.5 327C337.5 328.102 336.603 329 335.5 329C334.397 329 333.5 328.102 333.5 327C333.5 325.898 334.397 325 335.5 325ZM335.5 315C336.603 315 337.5 315.898 337.5 317C337.5 318.102 336.603 319 335.5 319C334.397 319 333.5 318.102 333.5 317C333.5 315.898 334.397 315 335.5 315ZM315.5 319C314.397 319 313.5 318.102 313.5 317C313.5 315.898 314.397 315 315.5 315C316.603 315 317.5 315.898 317.5 317C317.5 318.102 316.603 319 315.5 319ZM315.5 329C314.397 329 313.5 328.102 313.5 327C313.5 325.898 314.397 325 315.5 325C316.603 325 317.5 325.898 317.5 327C317.5 328.102 316.603 329 315.5 329ZM315.5 339C314.397 339 313.5 338.103 313.5 337C313.5 335.897 314.397 335 315.5 335C316.603 335 317.5 335.897 317.5 337C317.5 338.103 316.603 339 315.5 339ZM335.5 335C336.603 335 337.5 335.897 337.5 337C337.5 338.103 336.603 339 335.5 339C334.397 339 333.5 338.103 333.5 337C333.5 335.897 334.397 335 335.5 335ZM332.067 334.981C331.88 335.296 331.736 335.637 331.642 336H319.358C319.264 335.637 319.12 335.296 318.933 334.981L325.5 328.414L332.067 334.981ZM325.5 325.586L318.933 319.019C319.12 318.704 319.264 318.361 319.362 318H331.638C331.736 318.361 331.88 318.704 332.067 319.019L325.5 325.586Z" fill="#CDC2FB"/>
</g>
<path d="M296.226 363H295.298L293.202 353.704V363H291.874V351.512H293.938L295.778 359.784L297.634 351.512H299.65V363H298.322V353.704L296.226 363ZM302.428 363V351.512H303.964V361.656H309.692V363H302.428ZM321.775 363V351.512H324.223C327.695 351.512 329.711 353.752 329.711 357.256C329.711 360.76 327.695 363 324.223 363H321.775ZM323.279 361.672H324.223C326.879 361.672 328.191 359.928 328.191 357.256C328.191 354.568 326.879 352.84 324.207 352.84H323.279V361.672ZM334.361 363.144C332.809 363.144 331.545 362.248 331.545 360.744C331.545 359.08 332.905 358.376 334.761 358.024L337.001 357.592V357.24C337.001 356.28 336.409 355.72 335.225 355.72C334.153 355.72 333.449 356.248 333.161 357.176L331.817 356.824C332.249 355.448 333.497 354.472 335.289 354.472C337.225 354.472 338.409 355.384 338.409 357.176V361.208C338.409 361.848 338.841 361.976 339.433 361.848V363C338.089 363.16 337.289 362.904 337.081 362.024C336.537 362.68 335.561 363.144 334.361 363.144ZM337.001 360.104V358.712L335.129 359.064C333.897 359.304 333.001 359.672 333.001 360.68C333.001 361.496 333.609 361.976 334.569 361.976C335.849 361.976 337.001 361.176 337.001 360.104ZM343.619 360.312V355.864H341.155V354.632H343.619V352.184H345.027V354.632H348.883V355.864H345.027V360.2C345.027 361.336 345.699 361.8 347.027 361.8C347.683 361.8 348.339 361.688 348.931 361.512V362.808C348.371 362.968 347.571 363.096 346.803 363.096C345.059 363.096 343.619 362.36 343.619 360.312ZM354.188 363.144C352.636 363.144 351.372 362.248 351.372 360.744C351.372 359.08 352.732 358.376 354.588 358.024L356.828 357.592V357.24C356.828 356.28 356.236 355.72 355.052 355.72C353.98 355.72 353.276 356.248 352.988 357.176L351.644 356.824C352.076 355.448 353.324 354.472 355.116 354.472C357.052 354.472 358.236 355.384 358.236 357.176V361.208C358.236 361.848 358.668 361.976 359.26 361.848V363C357.916 363.16 357.116 362.904 356.908 362.024C356.364 362.68 355.388 363.144 354.188 363.144ZM356.828 360.104V358.712L354.956 359.064C353.724 359.304 352.828 359.672 352.828 360.68C352.828 361.496 353.436 361.976 354.396 361.976C355.676 361.976 356.828 361.176 356.828 360.104ZM289.909 371.512H291.685L295.285 383H293.733L292.805 379.976H288.757L287.829 383H286.325L289.909 371.512ZM290.773 373.352L289.157 378.632H292.389L290.773 373.352ZM297.407 383V374.632H298.847V375.768C299.311 375.08 300.159 374.472 301.343 374.472C303.119 374.472 304.127 375.704 304.127 377.48V383H302.687V377.864C302.687 376.696 302.191 375.816 300.943 375.816C299.903 375.816 298.847 376.616 298.847 378.008V383H297.407ZM309.577 383.144C308.025 383.144 306.761 382.248 306.761 380.744C306.761 379.08 308.121 378.376 309.977 378.024L312.217 377.592V377.24C312.217 376.28 311.625 375.72 310.441 375.72C309.369 375.72 308.665 376.248 308.377 377.176L307.033 376.824C307.465 375.448 308.713 374.472 310.505 374.472C312.441 374.472 313.625 375.384 313.625 377.176V381.208C313.625 381.848 314.057 381.976 314.649 381.848V383C313.305 383.16 312.505 382.904 312.297 382.024C311.753 382.68 310.777 383.144 309.577 383.144ZM312.217 380.104V378.712L310.345 379.064C309.113 379.304 308.217 379.672 308.217 380.68C308.217 381.496 308.825 381.976 309.785 381.976C311.065 381.976 312.217 381.176 312.217 380.104ZM317.042 383V381.768H320.13V372.744H317.042V371.512H321.57V381.768H324.658V383H317.042ZM330.668 383.912C330.156 385.16 329.5 385.976 328.012 385.976C327.644 385.976 327.484 385.96 327.228 385.912V384.664C327.5 384.728 327.66 384.744 327.916 384.744C328.556 384.744 328.94 384.52 329.308 383.688L329.724 382.728L326.284 374.632H327.804L330.476 381.064L333.116 374.632H334.62L330.668 383.912ZM336.406 381.176L337.59 380.392C338.086 381.368 339.254 381.976 340.518 381.976C341.606 381.976 342.566 381.528 342.566 380.68C342.566 379.736 341.67 379.608 340.054 379.32C338.534 379.032 336.934 378.712 336.934 377C336.934 375.512 338.374 374.472 340.342 374.472C342.038 374.472 343.334 375.24 343.878 376.232L342.774 377.016C342.31 376.168 341.43 375.656 340.214 375.656C339.11 375.656 338.358 376.136 338.358 376.888C338.358 377.672 339.286 377.832 340.582 378.088C342.182 378.424 344.022 378.696 344.022 380.52C344.022 382.12 342.422 383.176 340.438 383.176C338.742 383.176 337.11 382.472 336.406 381.176ZM349.807 373.176V371.512H351.375V373.176H349.807ZM346.783 383V381.768H349.871V375.864H346.783V374.632H351.311V381.768H354.399V383H346.783ZM356.233 381.176L357.417 380.392C357.913 381.368 359.081 381.976 360.345 381.976C361.433 381.976 362.393 381.528 362.393 380.68C362.393 379.736 361.497 379.608 359.881 379.32C358.361 379.032 356.761 378.712 356.761 377C356.761 375.512 358.201 374.472 360.169 374.472C361.865 374.472 363.161 375.24 363.705 376.232L362.601 377.016C362.137 376.168 361.257 375.656 360.041 375.656C358.937 375.656 358.185 376.136 358.185 376.888C358.185 377.672 359.113 377.832 360.409 378.088C362.009 378.424 363.849 378.696 363.849 380.52C363.849 382.12 362.249 383.176 360.265 383.176C358.569 383.176 356.937 382.472 356.233 381.176Z" fill="#DED6FC"/>
<defs>
<clipPath id="clip0_2254_35870">
<rect width="27" height="29" fill="white" transform="translate(365 40)"/>
</clipPath>
<clipPath id="clip1_2254_35870">
<rect width="27" height="29" fill="white" transform="translate(412 399)"/>
</clipPath>
<clipPath id="clip2_2254_35870">
<rect width="27" height="29" fill="white" transform="translate(186 148)"/>
</clipPath>
<clipPath id="clip3_2254_35870">
<rect width="40" height="40" fill="white" transform="translate(356 112)"/>
</clipPath>
<clipPath id="clip4_2254_35870">
<rect width="32" height="32" fill="white" transform="translate(309.5 311)"/>
</clipPath>
</defs>
</svg>
