<svg width="519" height="611" viewBox="0 0 519 611" fill="none" xmlns="http://www.w3.org/2000/svg">
<rect width="519" height="611" rx="16" fill="#5933F2"/>
<path d="M244.707 164.707C245.098 164.317 245.098 163.683 244.707 163.293L238.343 156.929C237.953 156.538 237.319 156.538 236.929 156.929C236.538 157.319 236.538 157.953 236.929 158.343L242.586 164L236.929 169.657C236.538 170.047 236.538 170.681 236.929 171.071C237.319 171.462 237.953 171.462 238.343 171.071L244.707 164.707ZM220 165L244 165L244 163L220 163L220 165Z" fill="#B4A3F9"/>
<path d="M291.707 521.707C292.098 521.317 292.098 520.683 291.707 520.293L285.343 513.929C284.953 513.538 284.319 513.538 283.929 513.929C283.538 514.319 283.538 514.953 283.929 515.343L289.586 521L283.929 526.657C283.538 527.047 283.538 527.681 283.929 528.071C284.319 528.462 284.953 528.462 285.343 528.071L291.707 521.707ZM180 522L291 522L291 520L180 520L180 522Z" fill="#B4A3F9"/>
<g clip-path="url(#clip0_2273_36904)">
<path d="M93 106.201C93.22 106.201 93.4401 106.263 93.636 106.38C94.3613 106.813 111.425 117.215 111.425 131.501L111.425 200.251C111.425 200.495 111.353 200.735 111.215 200.938L104.34 211.251C104.113 211.595 103.728 211.801 103.313 211.801H82.6875C82.275 211.801 81.8901 211.595 81.6563 211.251L74.7813 200.938C74.6472 200.735 74.575 200.495 74.575 200.251V131.501C74.575 117.215 91.6388 106.813 92.3641 106.376C92.5601 106.259 92.7801 106.201 93 106.201ZM108.95 137.138V131.501C108.95 120.085 96.0457 110.914 93 108.906C89.9544 110.914 77.05 120.085 77.05 131.501V137.138H108.95ZM108.95 194.613H77.05V199.876L83.3475 209.326H84.8875V203.688C84.8875 203.004 85.441 202.451 86.125 202.451H99.875C100.559 202.451 101.113 203.004 101.113 203.688V209.326H102.649L108.95 199.876V194.613ZM98.6376 204.926H87.3626V209.326H98.6376V204.926ZM87.8438 123.388H98.1563C98.8404 123.388 99.3938 123.942 99.3938 124.626V126.826H103.313V129.301H99.3938V131.501C99.3938 132.185 98.8404 132.738 98.1563 132.738H87.8438C87.1597 132.738 86.6063 132.185 86.6063 131.501V129.301H82.6875V126.822H86.6063V124.626C86.6063 123.942 87.1597 123.388 87.8438 123.388ZM96.9188 125.863H89.0813V130.263H96.9188V125.863Z" fill="#DED6FC"/>
</g>
<path d="M349 251L349 250L347 250L347 251L349 251ZM347.293 275.707C347.683 276.098 348.317 276.098 348.707 275.707L355.071 269.343C355.462 268.953 355.462 268.319 355.071 267.929C354.681 267.538 354.047 267.538 353.657 267.929L348 273.586L342.343 267.929C341.953 267.538 341.319 267.538 340.929 267.929C340.538 268.319 340.538 268.953 340.929 269.343L347.293 275.707ZM347 251L347 275L349 275L349 251L347 251Z" fill="#B4A3F9"/>
<path d="M380.707 250.293C380.317 249.902 379.683 249.902 379.293 250.293L372.929 256.657C372.538 257.047 372.538 257.681 372.929 258.071C373.319 258.462 373.953 258.462 374.343 258.071L380 252.414L385.657 258.071C386.047 258.462 386.681 258.462 387.071 258.071C387.462 257.681 387.462 257.047 387.071 256.657L380.707 250.293ZM379 275L379 276L381 276L381 275L379 275ZM379 251L379 275L381 275L381 251L379 251Z" fill="#B4A3F9"/>
<path d="M364 355L364 354L362 354L362 355L364 355ZM362.293 379.707C362.683 380.098 363.317 380.098 363.707 379.707L370.071 373.343C370.462 372.953 370.462 372.319 370.071 371.929C369.681 371.538 369.047 371.538 368.657 371.929L363 377.586L357.343 371.929C356.953 371.538 356.319 371.538 355.929 371.929C355.538 372.319 355.538 372.953 355.929 373.343L362.293 379.707ZM362 355L362 379L364 379L364 355L362 355Z" fill="#B4A3F9"/>
<rect x="253" y="88" width="220" height="154" rx="19" fill="#382193" stroke="#5933F2" stroke-width="6"/>
<rect x="304" y="191" width="42" height="28" rx="14" fill="#CDC2FB"/>
<path d="M315.416 199.948H316.97L320.12 210H318.762L317.95 207.354H314.408L313.596 210H312.28L315.416 199.948ZM316.172 201.558L314.758 206.178H317.586L316.172 201.558ZM322.677 205.786V210H321.333V199.948H324.973C327.101 199.948 328.445 200.942 328.445 202.86C328.445 204.75 327.101 205.786 324.973 205.786H322.677ZM322.677 204.624H324.889C326.331 204.624 327.129 203.994 327.129 202.86C327.129 201.726 326.331 201.11 324.889 201.11H322.677V204.624ZM336.503 208.824V210H329.475V208.824H332.317V201.124H329.475V199.948H336.503V201.124H333.661V208.824H336.503Z" fill="black"/>
<rect x="354" y="191" width="67" height="28" rx="14" fill="#CDC2FB"/>
<path d="M365.71 199.948H366.732L367.978 207.48L369.07 199.948H370.26L368.664 210H367.53L366.2 202.202L364.87 210H363.736L362.14 199.948H363.358L364.45 207.48L365.71 199.948ZM374.777 210.154C372.677 210.154 371.249 208.6 371.249 206.346C371.249 204.162 372.677 202.538 374.721 202.538C376.821 202.538 377.927 204.092 377.927 206.122V206.542H372.467C372.551 208.082 373.461 209.062 374.777 209.062C375.813 209.062 376.541 208.53 376.779 207.662L377.871 208.054C377.409 209.356 376.275 210.154 374.777 210.154ZM374.721 203.616C373.587 203.616 372.775 204.33 372.537 205.576H376.653C376.625 204.54 376.037 203.616 374.721 203.616ZM383.381 210.154C382.387 210.154 381.645 209.664 381.225 208.922V210H379.965V199.948H381.225V203.756C381.645 203.028 382.387 202.538 383.381 202.538C385.341 202.538 386.447 204.274 386.447 206.346C386.447 208.404 385.341 210.154 383.381 210.154ZM381.197 206.108V206.612C381.197 208.292 382.191 209.048 383.129 209.048C384.445 209.048 385.173 207.928 385.173 206.346C385.173 204.764 384.445 203.644 383.129 203.644C382.191 203.644 381.197 204.372 381.197 206.108ZM399.778 210.14C397.706 210.14 396.404 208.88 396.404 206.192V199.948H397.748V206.136C397.748 208.096 398.49 208.908 399.778 208.908C401.066 208.908 401.808 208.096 401.808 206.136V199.948H403.152V206.192C403.152 208.88 401.85 210.14 399.778 210.14ZM411.687 208.824V210H404.659V208.824H407.501V201.124H404.659V199.948H411.687V201.124H408.845V208.824H411.687Z" fill="black"/>
<rect x="295" y="151" width="134" height="28" rx="14" fill="#CDC2FB"/>
<path d="M307.606 170H306.794L304.96 161.866V170H303.798V159.948H305.604L307.214 167.186L308.838 159.948H310.602V170H309.44V161.866L307.606 170ZM315.777 170.154C313.677 170.154 312.249 168.6 312.249 166.346C312.249 164.162 313.677 162.538 315.721 162.538C317.821 162.538 318.927 164.092 318.927 166.122V166.542H313.467C313.551 168.082 314.461 169.062 315.777 169.062C316.813 169.062 317.541 168.53 317.779 167.662L318.871 168.054C318.409 169.356 317.275 170.154 315.777 170.154ZM315.721 163.616C314.587 163.616 313.775 164.33 313.537 165.576H317.653C317.625 164.54 317.037 163.616 315.721 163.616ZM322.491 167.648V163.756H320.335V162.678H322.491V160.536H323.723V162.678H327.097V163.756H323.723V167.55C323.723 168.544 324.311 168.95 325.473 168.95C326.047 168.95 326.621 168.852 327.139 168.698V169.832C326.649 169.972 325.949 170.084 325.277 170.084C323.751 170.084 322.491 169.44 322.491 167.648ZM331.46 170.126C330.102 170.126 328.996 169.342 328.996 168.026C328.996 166.57 330.186 165.954 331.81 165.646L333.77 165.268V164.96C333.77 164.12 333.252 163.63 332.216 163.63C331.278 163.63 330.662 164.092 330.41 164.904L329.234 164.596C329.612 163.392 330.704 162.538 332.272 162.538C333.966 162.538 335.002 163.336 335.002 164.904V168.432C335.002 168.992 335.38 169.104 335.898 168.992V170C334.722 170.14 334.022 169.916 333.84 169.146C333.364 169.72 332.51 170.126 331.46 170.126ZM333.77 167.466V166.248L332.132 166.556C331.054 166.766 330.27 167.088 330.27 167.97C330.27 168.684 330.802 169.104 331.642 169.104C332.762 169.104 333.77 168.404 333.77 167.466ZM340.386 170.154C338.426 170.154 337.32 168.404 337.32 166.346C337.32 164.274 338.426 162.538 340.386 162.538C341.38 162.538 342.122 163.028 342.542 163.756V159.948H343.802V170H342.542V168.922C342.122 169.664 341.38 170.154 340.386 170.154ZM342.57 166.108C342.57 164.372 341.576 163.644 340.638 163.644C339.322 163.644 338.594 164.764 338.594 166.346C338.594 167.928 339.322 169.048 340.638 169.048C341.576 169.048 342.57 168.292 342.57 166.612V166.108ZM348.249 170.126C346.891 170.126 345.785 169.342 345.785 168.026C345.785 166.57 346.975 165.954 348.599 165.646L350.559 165.268V164.96C350.559 164.12 350.041 163.63 349.005 163.63C348.067 163.63 347.451 164.092 347.199 164.904L346.023 164.596C346.401 163.392 347.493 162.538 349.061 162.538C350.755 162.538 351.791 163.336 351.791 164.904V168.432C351.791 168.992 352.169 169.104 352.687 168.992V170C351.511 170.14 350.811 169.916 350.629 169.146C350.153 169.72 349.299 170.126 348.249 170.126ZM350.559 167.466V166.248L348.921 166.556C347.843 166.766 347.059 167.088 347.059 167.97C347.059 168.684 347.591 169.104 348.431 169.104C349.551 169.104 350.559 168.404 350.559 167.466ZM356.069 167.648V163.756H353.913V162.678H356.069V160.536H357.301V162.678H360.675V163.756H357.301V167.55C357.301 168.544 357.889 168.95 359.051 168.95C359.625 168.95 360.199 168.852 360.717 168.698V169.832C360.227 169.972 359.527 170.084 358.855 170.084C357.329 170.084 356.069 169.44 356.069 167.648ZM365.038 170.126C363.68 170.126 362.574 169.342 362.574 168.026C362.574 166.57 363.764 165.954 365.388 165.646L367.348 165.268V164.96C367.348 164.12 366.83 163.63 365.794 163.63C364.856 163.63 364.24 164.092 363.988 164.904L362.812 164.596C363.19 163.392 364.282 162.538 365.85 162.538C367.544 162.538 368.58 163.336 368.58 164.904V168.432C368.58 168.992 368.958 169.104 369.476 168.992V170C368.3 170.14 367.6 169.916 367.418 169.146C366.942 169.72 366.088 170.126 365.038 170.126ZM367.348 167.466V166.248L365.71 166.556C364.632 166.766 363.848 167.088 363.848 167.97C363.848 168.684 364.38 169.104 365.22 169.104C366.34 169.104 367.348 168.404 367.348 167.466ZM378.691 167.942L379.741 167.088C380.371 168.292 381.519 169.006 382.821 169.006C384.123 169.006 385.117 168.348 385.117 167.2C385.117 165.982 383.969 165.772 382.429 165.394C380.861 165.016 379.279 164.596 379.279 162.706C379.279 160.942 380.819 159.794 382.723 159.794C384.473 159.794 385.719 160.606 386.335 161.754L385.313 162.552C384.809 161.586 383.997 160.928 382.681 160.928C381.477 160.928 380.581 161.6 380.581 162.594C380.581 163.658 381.533 163.882 382.947 164.218C384.599 164.61 386.433 164.96 386.433 167.088C386.433 168.964 384.767 170.154 382.779 170.154C381.043 170.154 379.377 169.3 378.691 167.942ZM389.647 167.648V163.756H387.491V162.678H389.647V160.536H390.879V162.678H394.253V163.756H390.879V167.55C390.879 168.544 391.467 168.95 392.629 168.95C393.203 168.95 393.777 168.852 394.295 168.698V169.832C393.805 169.972 393.105 170.084 392.433 170.084C390.907 170.084 389.647 169.44 389.647 167.648ZM402.942 166.346C402.942 168.614 401.542 170.154 399.54 170.154C397.538 170.154 396.138 168.614 396.138 166.346C396.138 164.078 397.538 162.538 399.54 162.538C401.542 162.538 402.942 164.078 402.942 166.346ZM397.412 166.346C397.412 168.012 398.252 169.076 399.54 169.076C400.828 169.076 401.668 168.012 401.668 166.346C401.668 164.666 400.828 163.602 399.54 163.602C398.252 163.602 397.412 164.666 397.412 166.346ZM404.574 170V168.922H406.632V163.756H404.574V162.678H407.878V164.022C408.326 163.168 409.292 162.538 410.524 162.538C411.014 162.538 411.406 162.608 411.658 162.72V163.966C411.322 163.854 410.93 163.77 410.398 163.77C409.096 163.77 407.878 164.652 407.878 165.996V168.922H410.65V170H404.574ZM416.511 170.154C414.411 170.154 412.983 168.6 412.983 166.346C412.983 164.162 414.411 162.538 416.455 162.538C418.555 162.538 419.661 164.092 419.661 166.122V166.542H414.201C414.285 168.082 415.195 169.062 416.511 169.062C417.547 169.062 418.275 168.53 418.513 167.662L419.605 168.054C419.143 169.356 418.009 170.154 416.511 170.154ZM416.455 163.616C415.321 163.616 414.509 164.33 414.271 165.576H418.387C418.359 164.54 417.771 163.616 416.455 163.616Z" fill="black"/>
<g clip-path="url(#clip1_2273_36904)">
<path d="M377.898 41.1935L373.424 38.5604C373.298 38.4863 373.143 38.4863 373.017 38.5603L366.992 42.1025V35.0202C366.992 34.8721 366.915 34.7353 366.789 34.6613L362.313 32.0281C362.177 31.9483 362.008 32.048 362.008 32.2075V42.1024L355.985 38.5603C355.859 38.4862 355.704 38.4862 355.578 38.5603L351.102 41.1935C350.966 41.2733 350.966 41.4727 351.102 41.5524L359.515 46.5L351.102 51.4475C350.966 51.5272 350.966 51.7266 351.102 51.8064L355.576 54.4395C355.702 54.5136 355.857 54.5136 355.983 54.4396L362.008 50.8974V57.9817C362.008 58.1298 362.085 58.2667 362.211 58.3407L366.687 60.972C366.823 61.0517 366.992 60.952 366.992 60.7925V50.8975L373.015 54.4396C373.141 54.5136 373.296 54.5136 373.422 54.4396L377.898 51.8064C378.034 51.7266 378.034 51.5272 377.898 51.4475L369.485 46.5L377.898 41.5524C378.034 41.4727 378.034 41.2733 377.898 41.1935ZM367.298 48.1454L364.5 49.7908L361.702 48.1454V44.8545L364.5 43.2091L367.298 44.8545V48.1454Z" fill="white"/>
</g>
<path d="M289.072 74V62.512H291.52C294.992 62.512 297.008 64.752 297.008 68.256C297.008 71.76 294.992 74 291.52 74H289.072ZM290.576 72.672H291.52C294.176 72.672 295.488 70.928 295.488 68.256C295.488 65.568 294.176 63.84 291.504 63.84H290.576V72.672ZM301.658 74.144C300.106 74.144 298.842 73.248 298.842 71.744C298.842 70.08 300.202 69.376 302.058 69.024L304.298 68.592V68.24C304.298 67.28 303.706 66.72 302.522 66.72C301.45 66.72 300.746 67.248 300.458 68.176L299.114 67.824C299.546 66.448 300.794 65.472 302.586 65.472C304.522 65.472 305.706 66.384 305.706 68.176V72.208C305.706 72.848 306.138 72.976 306.73 72.848V74C305.386 74.16 304.586 73.904 304.378 73.024C303.834 73.68 302.858 74.144 301.658 74.144ZM304.298 71.104V69.712L302.426 70.064C301.194 70.304 300.298 70.672 300.298 71.68C300.298 72.496 300.906 72.976 301.866 72.976C303.146 72.976 304.298 72.176 304.298 71.104ZM310.915 71.312V66.864H308.451V65.632H310.915V63.184H312.323V65.632H316.179V66.864H312.323V71.2C312.323 72.336 312.995 72.8 314.323 72.8C314.979 72.8 315.635 72.688 316.227 72.512V73.808C315.667 73.968 314.867 74.096 314.099 74.096C312.355 74.096 310.915 73.36 310.915 71.312ZM321.485 74.144C319.933 74.144 318.669 73.248 318.669 71.744C318.669 70.08 320.029 69.376 321.885 69.024L324.125 68.592V68.24C324.125 67.28 323.533 66.72 322.349 66.72C321.277 66.72 320.573 67.248 320.285 68.176L318.941 67.824C319.373 66.448 320.621 65.472 322.413 65.472C324.349 65.472 325.533 66.384 325.533 68.176V72.208C325.533 72.848 325.965 72.976 326.557 72.848V74C325.213 74.16 324.413 73.904 324.205 73.024C323.661 73.68 322.685 74.144 321.485 74.144ZM324.125 71.104V69.712L322.253 70.064C321.021 70.304 320.125 70.672 320.125 71.68C320.125 72.496 320.733 72.976 321.693 72.976C322.973 72.976 324.125 72.176 324.125 71.104ZM342.833 74H341.905L339.809 64.704V74H338.481V62.512H340.545L342.385 70.784L344.241 62.512H346.257V74H344.929V64.704L342.833 74ZM351.226 74.144C349.674 74.144 348.41 73.248 348.41 71.744C348.41 70.08 349.77 69.376 351.626 69.024L353.866 68.592V68.24C353.866 67.28 353.274 66.72 352.09 66.72C351.018 66.72 350.314 67.248 350.026 68.176L348.682 67.824C349.114 66.448 350.362 65.472 352.154 65.472C354.09 65.472 355.274 66.384 355.274 68.176V72.208C355.274 72.848 355.706 72.976 356.298 72.848V74C354.954 74.16 354.154 73.904 353.946 73.024C353.402 73.68 352.426 74.144 351.226 74.144ZM353.866 71.104V69.712L351.994 70.064C350.762 70.304 349.866 70.672 349.866 71.68C349.866 72.496 350.474 72.976 351.434 72.976C352.714 72.976 353.866 72.176 353.866 71.104ZM358.884 74V65.632H360.324V66.768C360.788 66.08 361.636 65.472 362.82 65.472C364.596 65.472 365.604 66.704 365.604 68.48V74H364.164V68.864C364.164 67.696 363.668 66.816 362.42 66.816C361.38 66.816 360.324 67.616 360.324 69.008V74H358.884ZM371.054 74.144C369.502 74.144 368.238 73.248 368.238 71.744C368.238 70.08 369.598 69.376 371.454 69.024L373.694 68.592V68.24C373.694 67.28 373.102 66.72 371.918 66.72C370.846 66.72 370.142 67.248 369.854 68.176L368.51 67.824C368.942 66.448 370.19 65.472 371.982 65.472C373.918 65.472 375.102 66.384 375.102 68.176V72.208C375.102 72.848 375.534 72.976 376.126 72.848V74C374.782 74.16 373.982 73.904 373.774 73.024C373.23 73.68 372.254 74.144 371.054 74.144ZM373.694 71.104V69.712L371.822 70.064C370.59 70.304 369.694 70.672 369.694 71.68C369.694 72.496 370.302 72.976 371.262 72.976C372.542 72.976 373.694 72.176 373.694 71.104ZM385.48 73.248C385.48 75.696 383.88 77.056 381.592 77.056C379.768 77.056 378.424 76.208 377.96 74.672L379.304 74.16C379.592 75.232 380.44 75.856 381.592 75.856C383.08 75.856 384.04 75.104 384.04 73.36V72.416C383.592 73.232 382.696 73.808 381.528 73.808C379.288 73.808 377.992 71.92 377.992 69.632C377.992 67.36 379.288 65.472 381.528 65.472C382.696 65.472 383.592 66.048 384.04 66.864V65.632H385.48V73.248ZM384.056 69.504C384.056 67.632 382.952 66.736 381.816 66.736C380.296 66.736 379.448 67.872 379.448 69.632C379.448 71.392 380.296 72.544 381.816 72.544C382.952 72.544 384.056 71.648 384.056 69.808V69.504ZM392.145 74.176C389.745 74.176 388.113 72.4 388.113 69.824C388.113 67.328 389.745 65.472 392.081 65.472C394.481 65.472 395.745 67.248 395.745 69.568V70.048H389.505C389.601 71.808 390.641 72.928 392.145 72.928C393.329 72.928 394.161 72.32 394.433 71.328L395.681 71.776C395.153 73.264 393.857 74.176 392.145 74.176ZM392.081 66.704C390.785 66.704 389.857 67.52 389.585 68.944H394.289C394.257 67.76 393.585 66.704 392.081 66.704ZM399.211 68.368V74H397.899V65.616H399.211V66.528C399.483 65.968 399.995 65.472 400.763 65.472C401.515 65.472 402.027 65.92 402.315 66.624C402.571 66.064 403.211 65.472 404.043 65.472C405.227 65.472 405.867 66.464 405.867 67.856V74H404.539V68.272C404.539 67.424 404.379 66.8 403.643 66.8C403.003 66.8 402.539 67.392 402.539 68.368V74H401.211V68.272C401.211 67.424 401.035 66.8 400.299 66.8C399.643 66.8 399.211 67.392 399.211 68.368ZM411.973 74.176C409.573 74.176 407.941 72.4 407.941 69.824C407.941 67.328 409.573 65.472 411.909 65.472C414.309 65.472 415.573 67.248 415.573 69.568V70.048H409.333C409.429 71.808 410.469 72.928 411.973 72.928C413.157 72.928 413.989 72.32 414.261 71.328L415.509 71.776C414.981 73.264 413.685 74.176 411.973 74.176ZM411.909 66.704C410.613 66.704 409.685 67.52 409.413 68.944H414.117C414.085 67.76 413.413 66.704 411.909 66.704ZM418.367 74V65.632H419.807V66.768C420.271 66.08 421.119 65.472 422.303 65.472C424.079 65.472 425.087 66.704 425.087 68.48V74H423.647V68.864C423.647 67.696 423.151 66.816 421.903 66.816C420.863 66.816 419.807 67.616 419.807 69.008V74H418.367ZM429.88 71.312V66.864H427.416V65.632H429.88V63.184H431.288V65.632H435.144V66.864H431.288V71.2C431.288 72.336 431.96 72.8 433.288 72.8C433.944 72.8 434.6 72.688 435.192 72.512V73.808C434.632 73.968 433.832 74.096 433.064 74.096C431.32 74.096 429.88 73.36 429.88 71.312Z" fill="#DED6FC"/>
<mask id="path-17-inside-1_2273_36904" fill="white">
<rect x="303" y="462" width="120" height="115.714" rx="1.71429"/>
</mask>
<rect x="303" y="462" width="120" height="115.714" rx="1.71429" stroke="#DED6FC" stroke-width="5.14286" mask="url(#path-17-inside-1_2273_36904)"/>
<rect x="304.714" y="473.143" width="117.429" height="2.57143" fill="#DED6FC"/>
<rect x="303" y="518.572" width="60.8571" height="2.57143" fill="#DED6FC"/>
<rect x="309.857" y="567.43" width="33.4286" height="2.57143" fill="#DED6FC"/>
<rect x="345.857" y="565.715" width="2.57143" height="6" fill="#DED6FC"/>
<rect x="351" y="567.43" width="72" height="2.57143" fill="#DED6FC"/>
<rect x="304.714" y="559.715" width="117.429" height="2.57143" fill="#DED6FC"/>
<path d="M310.714 503.143H317.143L321.429 494.79L326.571 503.143L331.286 492.001L336 500.572L338.571 494.79L340.286 490.504L345.429 504.429L349.714 494.572L352.286 499.286L357.429 497.143" stroke="#DED6FC" stroke-width="2.57143"/>
<circle cx="311.571" cy="468.857" r="1.71429" fill="#DED6FC"/>
<circle cx="316.714" cy="468.857" r="1.71429" fill="#DED6FC"/>
<circle cx="321.857" cy="468.857" r="1.71429" fill="#DED6FC"/>
<rect x="362.143" y="475.715" width="2.57143" height="84" fill="#DED6FC"/>
<ellipse cx="406.136" cy="509.571" rx="1.96078" ry="2.14286" fill="#DED6FC"/>
<ellipse cx="393.979" cy="497.999" rx="2.35294" ry="2.57143" fill="#DED6FC"/>
<ellipse cx="405.353" cy="501.858" rx="1.96078" ry="2.14286" fill="#DED6FC"/>
<ellipse cx="399.861" cy="500.143" rx="1.96078" ry="2.14286" fill="#DED6FC"/>
<ellipse cx="400.645" cy="508.715" rx="1.96078" ry="2.14286" fill="#DED6FC"/>
<ellipse cx="406.136" cy="517.285" rx="1.96078" ry="2.14286" fill="#DED6FC"/>
<ellipse cx="411.235" cy="517.714" rx="1.56863" ry="1.71429" fill="#DED6FC"/>
<ellipse cx="400.645" cy="517.285" rx="1.96078" ry="2.14286" fill="#DED6FC"/>
<ellipse cx="395.154" cy="525" rx="1.96078" ry="2.14286" fill="#DED6FC"/>
<ellipse cx="388.096" cy="516.428" rx="1.96078" ry="2.14286" fill="#DED6FC"/>
<ellipse cx="382.997" cy="525.429" rx="2.35294" ry="2.57143" fill="#DED6FC"/>
<ellipse cx="395.154" cy="507.858" rx="1.96078" ry="2.14286" fill="#DED6FC"/>
<ellipse cx="381.43" cy="515.999" rx="2.35294" ry="2.57143" fill="#DED6FC"/>
<ellipse cx="382.997" cy="505.714" rx="2.35294" ry="2.57143" fill="#DED6FC"/>
<ellipse cx="376.722" cy="504.857" rx="2.35294" ry="2.57143" fill="#DED6FC"/>
<ellipse cx="375.155" cy="515.144" rx="2.35294" ry="2.57143" fill="#DED6FC"/>
<ellipse cx="376.722" cy="526.286" rx="2.35294" ry="2.57143" fill="#DED6FC"/>
<ellipse cx="394.37" cy="516.428" rx="1.96078" ry="2.14286" fill="#DED6FC"/>
<ellipse cx="388.879" cy="525" rx="1.96078" ry="2.14286" fill="#DED6FC"/>
<ellipse cx="381.43" cy="494.571" rx="2.35294" ry="2.57143" fill="#DED6FC"/>
<ellipse cx="396.329" cy="532.287" rx="1.56863" ry="1.71429" fill="#DED6FC"/>
<ellipse cx="401.82" cy="533.142" rx="1.56863" ry="1.71429" fill="#DED6FC"/>
<ellipse cx="392.411" cy="539.142" rx="1.56863" ry="1.71429" fill="#DED6FC"/>
<ellipse cx="386.92" cy="539.999" rx="1.56863" ry="1.71429" fill="#DED6FC"/>
<ellipse cx="381.429" cy="540.857" rx="1.56863" ry="1.71429" fill="#DED6FC"/>
<ellipse cx="397.902" cy="539.142" rx="1.56863" ry="1.71429" fill="#DED6FC"/>
<ellipse cx="403.393" cy="539.999" rx="1.56863" ry="1.71429" fill="#DED6FC"/>
<ellipse cx="379.471" cy="534.428" rx="1.96078" ry="2.14286" fill="#DED6FC"/>
<ellipse cx="384.962" cy="533.571" rx="1.96078" ry="2.14286" fill="#DED6FC"/>
<ellipse cx="390.446" cy="532.715" rx="1.96078" ry="2.14286" fill="#DED6FC"/>
<ellipse cx="407.311" cy="533.999" rx="1.56863" ry="1.71429" fill="#DED6FC"/>
<ellipse cx="411.235" cy="525.429" rx="1.56863" ry="1.71429" fill="#DED6FC"/>
<ellipse cx="387.704" cy="496.286" rx="2.35294" ry="2.57143" fill="#DED6FC"/>
<ellipse cx="389.271" cy="506.571" rx="2.35294" ry="2.57143" fill="#DED6FC"/>
<ellipse cx="406.136" cy="525" rx="1.96078" ry="2.14286" fill="#DED6FC"/>
<ellipse cx="400.645" cy="525" rx="1.96078" ry="2.14286" fill="#DED6FC"/>
<path d="M320.573 545.446L318.83 543.541L323.102 538.868L318.83 534.196L320.577 532.287L326.596 538.868L320.573 545.446ZM336.859 546.893H326.565V549.593H336.859V546.893Z" fill="#DED6FC"/>
<g clip-path="url(#clip2_2273_36904)">
<path d="M377.898 400.193L373.424 397.56C373.298 397.486 373.143 397.486 373.017 397.56L366.992 401.102V394.02C366.992 393.872 366.915 393.735 366.789 393.661L362.313 391.028C362.177 390.948 362.008 391.048 362.008 391.208V401.102L355.985 397.56C355.859 397.486 355.704 397.486 355.578 397.56L351.102 400.194C350.966 400.273 350.966 400.473 351.102 400.552L359.515 405.5L351.102 410.447C350.966 410.527 350.966 410.727 351.102 410.806L355.576 413.439C355.702 413.514 355.857 413.514 355.983 413.44L362.008 409.897V416.982C362.008 417.13 362.085 417.267 362.211 417.341L366.687 419.972C366.823 420.052 366.992 419.952 366.992 419.792V409.897L373.015 413.44C373.141 413.514 373.296 413.514 373.422 413.44L377.898 410.806C378.034 410.727 378.034 410.527 377.898 410.447L369.485 405.5L377.898 400.552C378.034 400.473 378.034 400.273 377.898 400.193ZM367.298 407.145L364.5 408.791L361.702 407.145V403.855L364.5 402.209L367.298 403.855V407.145Z" fill="white"/>
</g>
<path d="M311.904 421.512H313.68L317.28 433H315.728L314.8 429.976H310.752L309.824 433H308.32L311.904 421.512ZM312.768 423.352L311.152 428.632H314.384L312.768 423.352ZM323.162 433.176C322.026 433.176 321.178 432.616 320.698 431.768V435.88H319.258V424.632H320.698V425.864C321.178 425.032 322.026 424.472 323.162 424.472C325.402 424.472 326.666 426.456 326.666 428.824C326.666 431.176 325.402 433.176 323.162 433.176ZM320.666 428.552V429.128C320.666 431.048 321.802 431.912 322.874 431.912C324.378 431.912 325.21 430.632 325.21 428.824C325.21 427.016 324.378 425.736 322.874 425.736C321.802 425.736 320.666 426.568 320.666 428.552ZM333.075 433.176C331.939 433.176 331.091 432.616 330.611 431.768V435.88H329.171V424.632H330.611V425.864C331.091 425.032 331.939 424.472 333.075 424.472C335.315 424.472 336.58 426.456 336.58 428.824C336.58 431.176 335.315 433.176 333.075 433.176ZM330.579 428.552V429.128C330.579 431.048 331.715 431.912 332.787 431.912C334.291 431.912 335.123 430.632 335.123 428.824C335.123 427.016 334.291 425.736 332.787 425.736C331.715 425.736 330.579 426.568 330.579 428.552ZM339.037 433V431.768H342.125V422.744H339.037V421.512H343.565V431.768H346.653V433H339.037ZM351.975 423.176V421.512H353.543V423.176H351.975ZM348.951 433V431.768H352.039V425.864H348.951V424.632H353.479V431.768H356.567V433H348.951ZM360.017 428.824C360.017 430.728 361.121 431.912 362.753 431.912C364.033 431.912 364.801 431.176 365.073 430.136L366.289 430.728C365.873 432.12 364.593 433.176 362.737 433.176C360.337 433.176 358.609 431.4 358.609 428.824C358.609 426.232 360.337 424.472 362.737 424.472C364.577 424.472 365.841 425.48 366.273 426.872L365.073 427.496C364.801 426.472 364.033 425.72 362.753 425.72C361.121 425.72 360.017 426.904 360.017 428.824ZM371.226 433.144C369.674 433.144 368.41 432.248 368.41 430.744C368.41 429.08 369.77 428.376 371.626 428.024L373.866 427.592V427.24C373.866 426.28 373.274 425.72 372.09 425.72C371.018 425.72 370.314 426.248 370.026 427.176L368.682 426.824C369.114 425.448 370.362 424.472 372.154 424.472C374.09 424.472 375.274 425.384 375.274 427.176V431.208C375.274 431.848 375.706 431.976 376.298 431.848V433C374.954 433.16 374.154 432.904 373.946 432.024C373.402 432.68 372.426 433.144 371.226 433.144ZM373.866 430.104V428.712L371.994 429.064C370.762 429.304 369.866 429.672 369.866 430.68C369.866 431.496 370.474 431.976 371.434 431.976C372.714 431.976 373.866 431.176 373.866 430.104ZM380.484 430.312V425.864H378.02V424.632H380.484V422.184H381.892V424.632H385.748V425.864H381.892V430.2C381.892 431.336 382.564 431.8 383.892 431.8C384.548 431.8 385.204 431.688 385.796 431.512V432.808C385.236 432.968 384.436 433.096 383.668 433.096C381.924 433.096 380.484 432.36 380.484 430.312ZM391.63 423.176V421.512H393.198V423.176H391.63ZM388.606 433V431.768H391.694V425.864H388.606V424.632H393.134V431.768H396.222V433H388.606ZM405.912 428.824C405.912 431.416 404.312 433.176 402.024 433.176C399.736 433.176 398.136 431.416 398.136 428.824C398.136 426.232 399.736 424.472 402.024 424.472C404.312 424.472 405.912 426.232 405.912 428.824ZM399.592 428.824C399.592 430.728 400.552 431.944 402.024 431.944C403.496 431.944 404.456 430.728 404.456 428.824C404.456 426.904 403.496 425.688 402.024 425.688C400.552 425.688 399.592 426.904 399.592 428.824ZM408.625 433V424.632H410.065V425.768C410.529 425.08 411.377 424.472 412.561 424.472C414.337 424.472 415.345 425.704 415.345 427.48V433H413.905V427.864C413.905 426.696 413.409 425.816 412.161 425.816C411.121 425.816 410.065 426.616 410.065 428.008V433H408.625Z" fill="#DED6FC"/>
<g clip-path="url(#clip3_2273_36904)">
<path d="M198.898 149.193L194.424 146.56C194.298 146.486 194.143 146.486 194.017 146.56L187.992 150.102V143.02C187.992 142.872 187.915 142.735 187.789 142.661L183.313 140.028C183.177 139.948 183.008 140.048 183.008 140.208V150.102L176.985 146.56C176.859 146.486 176.704 146.486 176.578 146.56L172.102 149.194C171.966 149.273 171.966 149.473 172.102 149.552L180.515 154.5L172.102 159.447C171.966 159.527 171.966 159.727 172.102 159.806L176.576 162.439C176.702 162.514 176.857 162.514 176.983 162.44L183.008 158.897V165.982C183.008 166.13 183.085 166.267 183.211 166.341L187.687 168.972C187.823 169.052 187.992 168.952 187.992 168.792V158.897L194.015 162.44C194.141 162.514 194.296 162.514 194.422 162.44L198.898 159.806C199.034 159.727 199.034 159.527 198.898 159.447L190.485 154.5L198.898 149.552C199.034 149.473 199.034 149.273 198.898 149.193ZM188.298 156.145L185.5 157.791L182.702 156.145V152.855L185.5 151.209L188.298 152.855V156.145Z" fill="white"/>
</g>
<path d="M161.904 170.512H163.68L167.28 182H165.728L164.8 178.976H160.752L159.824 182H158.32L161.904 170.512ZM162.768 172.352L161.152 177.632H164.384L162.768 172.352ZM176.17 181.248C176.17 183.696 174.57 185.056 172.282 185.056C170.458 185.056 169.114 184.208 168.65 182.672L169.994 182.16C170.282 183.232 171.13 183.856 172.282 183.856C173.77 183.856 174.73 183.104 174.73 181.36V180.416C174.282 181.232 173.386 181.808 172.218 181.808C169.978 181.808 168.682 179.92 168.682 177.632C168.682 175.36 169.978 173.472 172.218 173.472C173.386 173.472 174.282 174.048 174.73 174.864V173.632H176.17V181.248ZM174.746 177.504C174.746 175.632 173.642 174.736 172.506 174.736C170.986 174.736 170.138 175.872 170.138 177.632C170.138 179.392 170.986 180.544 172.506 180.544C173.642 180.544 174.746 179.648 174.746 177.808V177.504ZM182.835 182.176C180.435 182.176 178.803 180.4 178.803 177.824C178.803 175.328 180.435 173.472 182.771 173.472C185.171 173.472 186.436 175.248 186.436 177.568V178.048H180.195C180.291 179.808 181.331 180.928 182.835 180.928C184.019 180.928 184.851 180.32 185.123 179.328L186.372 179.776C185.844 181.264 184.547 182.176 182.835 182.176ZM182.771 174.704C181.475 174.704 180.547 175.52 180.275 176.944H184.979C184.947 175.76 184.275 174.704 182.771 174.704ZM189.229 182V173.632H190.669V174.768C191.133 174.08 191.981 173.472 193.165 173.472C194.941 173.472 195.949 174.704 195.949 176.48V182H194.509V176.864C194.509 175.696 194.013 174.816 192.765 174.816C191.725 174.816 190.669 175.616 190.669 177.008V182H189.229ZM200.743 179.312V174.864H198.279V173.632H200.743V171.184H202.151V173.632H206.007V174.864H202.151V179.2C202.151 180.336 202.823 180.8 204.151 180.8C204.807 180.8 205.463 180.688 206.055 180.512V181.808C205.495 181.968 204.695 182.096 203.927 182.096C202.183 182.096 200.743 181.36 200.743 179.312Z" fill="#DED6FC"/>
<g clip-path="url(#clip4_2273_36904)">
<path d="M362.002 112.75C362.636 112.75 363.268 112.813 363.89 112.938C365.853 113.314 367.659 114.27 369.074 115.682C370.489 117.095 371.448 118.899 371.827 120.863L372.152 122.55L373.84 122.85C375.544 123.143 377.075 124.068 378.128 125.44C379.181 126.812 379.678 128.53 379.521 130.252C379.363 131.975 378.562 133.574 377.277 134.732C375.993 135.89 374.319 136.521 372.59 136.5H351.377C349.648 136.521 347.974 135.89 346.689 134.732C345.405 133.574 344.604 131.975 344.446 130.252C344.288 128.53 344.785 126.812 345.838 125.44C346.891 124.068 348.423 123.143 350.127 122.85L351.802 122.55L352.127 120.863C352.568 118.57 353.796 116.505 355.6 115.023C357.403 113.541 359.668 112.737 362.002 112.75ZM362.002 110.25C359.093 110.248 356.274 111.26 354.031 113.113C351.788 114.966 350.262 117.543 349.715 120.4C347.412 120.817 345.349 122.079 343.931 123.939C342.512 125.8 341.84 128.123 342.046 130.453C342.253 132.784 343.324 134.953 345.048 136.534C346.772 138.115 349.025 138.995 351.365 139H372.615C374.954 138.995 377.207 138.115 378.931 136.534C380.655 134.953 381.726 132.784 381.933 130.453C382.139 128.123 381.467 125.8 380.049 123.939C378.63 122.079 376.567 120.817 374.265 120.4C373.794 117.942 372.596 115.682 370.827 113.913C369.057 112.143 366.797 110.946 364.34 110.475C363.569 110.329 362.786 110.253 362.002 110.25Z" fill="#CDC2FB"/>
</g>
<rect x="43" y="56" width="100" height="28" rx="14" fill="#DED6FC"/>
<path d="M53.282 70.786V75H51.938V64.948H55.466C57.594 64.948 58.938 65.942 58.938 67.86C58.938 69.428 58.014 70.408 56.488 70.702L59.288 75H57.748L55.046 70.786H53.282ZM53.282 69.624H55.382C56.824 69.624 57.622 68.994 57.622 67.86C57.622 66.726 56.824 66.11 55.382 66.11H53.282V69.624ZM66.9965 71.346C66.9965 73.614 65.5965 75.154 63.5945 75.154C61.5925 75.154 60.1925 73.614 60.1925 71.346C60.1925 69.078 61.5925 67.538 63.5945 67.538C65.5965 67.538 66.9965 69.078 66.9965 71.346ZM61.4665 71.346C61.4665 73.012 62.3065 74.076 63.5945 74.076C64.8825 74.076 65.7225 73.012 65.7225 71.346C65.7225 69.666 64.8825 68.602 63.5945 68.602C62.3065 68.602 61.4665 69.666 61.4665 71.346ZM72.3811 75.154C71.3871 75.154 70.6451 74.664 70.2251 73.922V75H68.9651V64.948H70.2251V68.756C70.6451 68.028 71.3871 67.538 72.3811 67.538C74.3411 67.538 75.4471 69.274 75.4471 71.346C75.4471 73.404 74.3411 75.154 72.3811 75.154ZM70.1971 71.108V71.612C70.1971 73.292 71.1911 74.048 72.1291 74.048C73.4451 74.048 74.1731 72.928 74.1731 71.346C74.1731 69.764 73.4451 68.644 72.1291 68.644C71.1911 68.644 70.1971 69.372 70.1971 71.108ZM83.7856 71.346C83.7856 73.614 82.3856 75.154 80.3836 75.154C78.3816 75.154 76.9816 73.614 76.9816 71.346C76.9816 69.078 78.3816 67.538 80.3836 67.538C82.3856 67.538 83.7856 69.078 83.7856 71.346ZM78.2556 71.346C78.2556 73.012 79.0956 74.076 80.3836 74.076C81.6716 74.076 82.5116 73.012 82.5116 71.346C82.5116 69.666 81.6716 68.602 80.3836 68.602C79.0956 68.602 78.2556 69.666 78.2556 71.346ZM87.2801 72.648V68.756H85.1241V67.678H87.2801V65.536H88.5121V67.678H91.8861V68.756H88.5121V72.55C88.5121 73.544 89.1001 73.95 90.2621 73.95C90.8361 73.95 91.4101 73.852 91.9281 73.698V74.832C91.4381 74.972 90.7381 75.084 90.0661 75.084C88.5401 75.084 87.2801 74.44 87.2801 72.648ZM102.305 75V64.948H104.447C107.485 64.948 109.249 66.908 109.249 69.974C109.249 73.04 107.485 75 104.447 75H102.305ZM103.621 73.838H104.447C106.771 73.838 107.919 72.312 107.919 69.974C107.919 67.622 106.771 66.11 104.433 66.11H103.621V73.838ZM113.038 75.126C111.68 75.126 110.574 74.342 110.574 73.026C110.574 71.57 111.764 70.954 113.388 70.646L115.348 70.268V69.96C115.348 69.12 114.83 68.63 113.794 68.63C112.856 68.63 112.24 69.092 111.988 69.904L110.812 69.596C111.19 68.392 112.282 67.538 113.85 67.538C115.544 67.538 116.58 68.336 116.58 69.904V73.432C116.58 73.992 116.958 74.104 117.476 73.992V75C116.3 75.14 115.6 74.916 115.418 74.146C114.942 74.72 114.088 75.126 113.038 75.126ZM115.348 72.466V71.248L113.71 71.556C112.632 71.766 111.848 72.088 111.848 72.97C111.848 73.684 112.38 74.104 113.22 74.104C114.34 74.104 115.348 73.404 115.348 72.466ZM120.858 72.648V68.756H118.702V67.678H120.858V65.536H122.09V67.678H125.464V68.756H122.09V72.55C122.09 73.544 122.678 73.95 123.84 73.95C124.414 73.95 124.988 73.852 125.506 73.698V74.832C125.016 74.972 124.316 75.084 123.644 75.084C122.118 75.084 120.858 74.44 120.858 72.648ZM129.827 75.126C128.469 75.126 127.363 74.342 127.363 73.026C127.363 71.57 128.553 70.954 130.177 70.646L132.137 70.268V69.96C132.137 69.12 131.619 68.63 130.583 68.63C129.645 68.63 129.029 69.092 128.777 69.904L127.601 69.596C127.979 68.392 129.071 67.538 130.639 67.538C132.333 67.538 133.369 68.336 133.369 69.904V73.432C133.369 73.992 133.747 74.104 134.265 73.992V75C133.089 75.14 132.389 74.916 132.207 74.146C131.731 74.72 130.877 75.126 129.827 75.126ZM132.137 72.466V71.248L130.499 71.556C129.421 71.766 128.637 72.088 128.637 72.97C128.637 73.684 129.169 74.104 130.009 74.104C131.129 74.104 132.137 73.404 132.137 72.466Z" fill="black"/>
<rect x="35" y="415" width="142" height="28" rx="14" fill="#DED6FC"/>
<path d="M44.358 434V423.948H45.702V432.824H50.714V434H44.358ZM55.1745 425.404V423.948H56.5465V425.404H55.1745ZM52.5285 434V432.922H55.2305V427.756H52.5285V426.678H56.4905V432.922H59.1925V434H52.5285ZM64.6051 434H63.3591L60.3351 426.678H61.6651L64.0031 432.488L66.3131 426.678H67.6291L64.6051 434ZM72.5656 434.154C70.4656 434.154 69.0376 432.6 69.0376 430.346C69.0376 428.162 70.4656 426.538 72.5096 426.538C74.6096 426.538 75.7156 428.092 75.7156 430.122V430.542H70.2556C70.3396 432.082 71.2496 433.062 72.5656 433.062C73.6016 433.062 74.3296 432.53 74.5676 431.662L75.6596 432.054C75.1976 433.356 74.0636 434.154 72.5656 434.154ZM72.5096 427.616C71.3756 427.616 70.5636 428.33 70.3256 429.576H74.4416C74.4136 428.54 73.8256 427.616 72.5096 427.616ZM87.2547 429.786V434H85.9107V423.948H89.4387C91.5667 423.948 92.9107 424.942 92.9107 426.86C92.9107 428.428 91.9867 429.408 90.4607 429.702L93.2607 434H91.7207L89.0187 429.786H87.2547ZM87.2547 428.624H89.3547C90.7967 428.624 91.5947 427.994 91.5947 426.86C91.5947 425.726 90.7967 425.11 89.3547 425.11H87.2547V428.624ZM100.969 430.346C100.969 432.614 99.5692 434.154 97.5672 434.154C95.5652 434.154 94.1652 432.614 94.1652 430.346C94.1652 428.078 95.5652 426.538 97.5672 426.538C99.5692 426.538 100.969 428.078 100.969 430.346ZM95.4392 430.346C95.4392 432.012 96.2792 433.076 97.5672 433.076C98.8552 433.076 99.6952 432.012 99.6952 430.346C99.6952 428.666 98.8552 427.602 97.5672 427.602C96.2792 427.602 95.4392 428.666 95.4392 430.346ZM106.354 434.154C105.36 434.154 104.618 433.664 104.198 432.922V434H102.938V423.948H104.198V427.756C104.618 427.028 105.36 426.538 106.354 426.538C108.314 426.538 109.42 428.274 109.42 430.346C109.42 432.404 108.314 434.154 106.354 434.154ZM104.17 430.108V430.612C104.17 432.292 105.164 433.048 106.102 433.048C107.418 433.048 108.146 431.928 108.146 430.346C108.146 428.764 107.418 427.644 106.102 427.644C105.164 427.644 104.17 428.372 104.17 430.108ZM117.758 430.346C117.758 432.614 116.358 434.154 114.356 434.154C112.354 434.154 110.954 432.614 110.954 430.346C110.954 428.078 112.354 426.538 114.356 426.538C116.358 426.538 117.758 428.078 117.758 430.346ZM112.228 430.346C112.228 432.012 113.068 433.076 114.356 433.076C115.644 433.076 116.484 432.012 116.484 430.346C116.484 428.666 115.644 427.602 114.356 427.602C113.068 427.602 112.228 428.666 112.228 430.346ZM121.253 431.648V427.756H119.097V426.678H121.253V424.536H122.485V426.678H125.859V427.756H122.485V431.55C122.485 432.544 123.073 432.95 124.235 432.95C124.809 432.95 125.383 432.852 125.901 432.698V433.832C125.411 433.972 124.711 434.084 124.039 434.084C122.513 434.084 121.253 433.44 121.253 431.648ZM136.278 434V423.948H138.42C141.458 423.948 143.222 425.908 143.222 428.974C143.222 432.04 141.458 434 138.42 434H136.278ZM137.594 432.838H138.42C140.744 432.838 141.892 431.312 141.892 428.974C141.892 426.622 140.744 425.11 138.406 425.11H137.594V432.838ZM147.01 434.126C145.652 434.126 144.546 433.342 144.546 432.026C144.546 430.57 145.736 429.954 147.36 429.646L149.32 429.268V428.96C149.32 428.12 148.802 427.63 147.766 427.63C146.828 427.63 146.212 428.092 145.96 428.904L144.784 428.596C145.162 427.392 146.254 426.538 147.822 426.538C149.516 426.538 150.552 427.336 150.552 428.904V432.432C150.552 432.992 150.93 433.104 151.448 432.992V434C150.272 434.14 149.572 433.916 149.39 433.146C148.914 433.72 148.06 434.126 147.01 434.126ZM149.32 431.466V430.248L147.682 430.556C146.604 430.766 145.82 431.088 145.82 431.97C145.82 432.684 146.352 433.104 147.192 433.104C148.312 433.104 149.32 432.404 149.32 431.466ZM154.831 431.648V427.756H152.675V426.678H154.831V424.536H156.063V426.678H159.437V427.756H156.063V431.55C156.063 432.544 156.651 432.95 157.813 432.95C158.387 432.95 158.961 432.852 159.479 432.698V433.832C158.989 433.972 158.289 434.084 157.617 434.084C156.091 434.084 154.831 433.44 154.831 431.648ZM163.799 434.126C162.441 434.126 161.335 433.342 161.335 432.026C161.335 430.57 162.525 429.954 164.149 429.646L166.109 429.268V428.96C166.109 428.12 165.591 427.63 164.555 427.63C163.617 427.63 163.001 428.092 162.749 428.904L161.573 428.596C161.951 427.392 163.043 426.538 164.611 426.538C166.305 426.538 167.341 427.336 167.341 428.904V432.432C167.341 432.992 167.719 433.104 168.237 432.992V434C167.061 434.14 166.361 433.916 166.179 433.146C165.703 433.72 164.849 434.126 163.799 434.126ZM166.109 431.466V430.248L164.471 430.556C163.393 430.766 162.609 431.088 162.609 431.97C162.609 432.684 163.141 433.104 163.981 433.104C165.101 433.104 166.109 432.404 166.109 431.466Z" fill="black"/>
<rect x="240" y="287" width="247" height="56" rx="28" fill="#382193"/>
<g clip-path="url(#clip5_2273_36904)">
<path d="M286 319C288.206 319 290 317.206 290 315C290 312.794 288.206 311 286 311C284.142 311 282.589 312.28 282.142 314H278.414L283.981 308.433C284.576 308.785 285.26 309 286 309C288.206 309 290 307.206 290 305C290 302.794 288.206 301 286 301C284.142 301 282.589 302.28 282.142 304H269.858C269.411 302.28 267.858 301 266 301C263.794 301 262 302.794 262 305C262 307.206 263.794 309 266 309C266.74 309 267.424 308.785 268.019 308.433L273.586 314H269.858C269.411 312.28 267.858 311 266 311C263.794 311 262 312.794 262 315C262 317.206 263.794 319 266 319C267.858 319 269.411 317.72 269.858 316H273.586L268.019 321.567C267.424 321.215 266.74 321 266 321C263.794 321 262 322.794 262 325C262 327.206 263.794 329 266 329C267.858 329 269.411 327.72 269.858 326H282.142C282.589 327.72 284.142 329 286 329C288.206 329 290 327.206 290 325C290 322.794 288.206 321 286 321C285.26 321 284.576 321.215 283.981 321.567L278.414 316H282.142C282.589 317.72 284.142 319 286 319ZM286 313C287.103 313 288 313.898 288 315C288 316.102 287.103 317 286 317C284.897 317 284 316.102 284 315C284 313.898 284.897 313 286 313ZM286 303C287.103 303 288 303.898 288 305C288 306.102 287.103 307 286 307C284.897 307 284 306.102 284 305C284 303.898 284.897 303 286 303ZM266 307C264.897 307 264 306.102 264 305C264 303.898 264.897 303 266 303C267.103 303 268 303.898 268 305C268 306.102 267.103 307 266 307ZM266 317C264.897 317 264 316.102 264 315C264 313.898 264.897 313 266 313C267.103 313 268 313.898 268 315C268 316.102 267.103 317 266 317ZM266 327C264.897 327 264 326.103 264 325C264 323.897 264.897 323 266 323C267.103 323 268 323.897 268 325C268 326.103 267.103 327 266 327ZM286 323C287.103 323 288 323.897 288 325C288 326.103 287.103 327 286 327C284.897 327 284 326.103 284 325C284 323.897 284.897 323 286 323ZM282.567 322.981C282.38 323.296 282.236 323.637 282.142 324H269.858C269.764 323.637 269.62 323.296 269.433 322.981L276 316.414L282.567 322.981ZM276 313.586L269.433 307.019C269.62 306.704 269.764 306.361 269.862 306H282.138C282.236 306.361 282.38 306.704 282.567 307.019L276 313.586Z" fill="#DED6FC"/>
</g>
<path d="M313.264 321H312.336L310.24 311.704V321H308.912V309.512H310.976L312.816 317.784L314.672 309.512H316.688V321H315.36V311.704L313.264 321ZM319.466 321V309.512H321.002V319.656H326.73V321H319.466ZM338.813 321V309.512H341.261C344.733 309.512 346.749 311.752 346.749 315.256C346.749 318.76 344.733 321 341.261 321H338.813ZM340.317 319.672H341.261C343.917 319.672 345.229 317.928 345.229 315.256C345.229 312.568 343.917 310.84 341.245 310.84H340.317V319.672ZM351.399 321.144C349.847 321.144 348.583 320.248 348.583 318.744C348.583 317.08 349.943 316.376 351.799 316.024L354.039 315.592V315.24C354.039 314.28 353.447 313.72 352.263 313.72C351.191 313.72 350.487 314.248 350.199 315.176L348.855 314.824C349.287 313.448 350.535 312.472 352.327 312.472C354.263 312.472 355.447 313.384 355.447 315.176V319.208C355.447 319.848 355.879 319.976 356.471 319.848V321C355.127 321.16 354.327 320.904 354.119 320.024C353.575 320.68 352.599 321.144 351.399 321.144ZM354.039 318.104V316.712L352.167 317.064C350.935 317.304 350.039 317.672 350.039 318.68C350.039 319.496 350.647 319.976 351.607 319.976C352.887 319.976 354.039 319.176 354.039 318.104ZM360.657 318.312V313.864H358.193V312.632H360.657V310.184H362.065V312.632H365.921V313.864H362.065V318.2C362.065 319.336 362.737 319.8 364.065 319.8C364.721 319.8 365.377 319.688 365.969 319.512V320.808C365.409 320.968 364.609 321.096 363.841 321.096C362.097 321.096 360.657 320.36 360.657 318.312ZM371.226 321.144C369.674 321.144 368.41 320.248 368.41 318.744C368.41 317.08 369.77 316.376 371.626 316.024L373.866 315.592V315.24C373.866 314.28 373.274 313.72 372.09 313.72C371.018 313.72 370.314 314.248 370.026 315.176L368.682 314.824C369.114 313.448 370.362 312.472 372.154 312.472C374.09 312.472 375.274 313.384 375.274 315.176V319.208C375.274 319.848 375.706 319.976 376.298 319.848V321C374.954 321.16 374.154 320.904 373.946 320.024C373.402 320.68 372.426 321.144 371.226 321.144ZM373.866 318.104V316.712L371.994 317.064C370.762 317.304 369.866 317.672 369.866 318.68C369.866 319.496 370.474 319.976 371.434 319.976C372.714 319.976 373.866 319.176 373.866 318.104ZM391.214 309.512H392.99L396.59 321H395.038L394.11 317.976H390.062L389.134 321H387.63L391.214 309.512ZM392.078 311.352L390.462 316.632H393.694L392.078 311.352ZM398.712 321V312.632H400.152V313.768C400.616 313.08 401.464 312.472 402.648 312.472C404.424 312.472 405.432 313.704 405.432 315.48V321H403.992V315.864C403.992 314.696 403.496 313.816 402.248 313.816C401.208 313.816 400.152 314.616 400.152 316.008V321H398.712ZM410.881 321.144C409.329 321.144 408.065 320.248 408.065 318.744C408.065 317.08 409.425 316.376 411.281 316.024L413.521 315.592V315.24C413.521 314.28 412.929 313.72 411.745 313.72C410.673 313.72 409.969 314.248 409.681 315.176L408.337 314.824C408.769 313.448 410.017 312.472 411.809 312.472C413.745 312.472 414.929 313.384 414.929 315.176V319.208C414.929 319.848 415.361 319.976 415.953 319.848V321C414.609 321.16 413.809 320.904 413.601 320.024C413.057 320.68 412.081 321.144 410.881 321.144ZM413.521 318.104V316.712L411.649 317.064C410.417 317.304 409.521 317.672 409.521 318.68C409.521 319.496 410.129 319.976 411.089 319.976C412.369 319.976 413.521 319.176 413.521 318.104ZM418.347 321V319.768H421.435V310.744H418.347V309.512H422.875V319.768H425.963V321H418.347ZM431.973 321.912C431.461 323.16 430.805 323.976 429.317 323.976C428.949 323.976 428.789 323.96 428.533 323.912V322.664C428.805 322.728 428.965 322.744 429.221 322.744C429.861 322.744 430.245 322.52 430.613 321.688L431.029 320.728L427.589 312.632H429.109L431.781 319.064L434.421 312.632H435.925L431.973 321.912ZM437.711 319.176L438.895 318.392C439.391 319.368 440.559 319.976 441.823 319.976C442.911 319.976 443.871 319.528 443.871 318.68C443.871 317.736 442.975 317.608 441.359 317.32C439.839 317.032 438.239 316.712 438.239 315C438.239 313.512 439.679 312.472 441.647 312.472C443.343 312.472 444.639 313.24 445.183 314.232L444.079 315.016C443.615 314.168 442.735 313.656 441.519 313.656C440.415 313.656 439.663 314.136 439.663 314.888C439.663 315.672 440.591 315.832 441.887 316.088C443.487 316.424 445.327 316.696 445.327 318.52C445.327 320.12 443.727 321.176 441.743 321.176C440.047 321.176 438.415 320.472 437.711 319.176ZM451.112 311.176V309.512H452.68V311.176H451.112ZM448.088 321V319.768H451.176V313.864H448.088V312.632H452.616V319.768H455.704V321H448.088ZM457.538 319.176L458.722 318.392C459.218 319.368 460.386 319.976 461.65 319.976C462.738 319.976 463.698 319.528 463.698 318.68C463.698 317.736 462.802 317.608 461.186 317.32C459.666 317.032 458.066 316.712 458.066 315C458.066 313.512 459.506 312.472 461.474 312.472C463.17 312.472 464.466 313.24 465.01 314.232L463.906 315.016C463.442 314.168 462.562 313.656 461.346 313.656C460.242 313.656 459.49 314.136 459.49 314.888C459.49 315.672 460.418 315.832 461.714 316.088C463.314 316.424 465.154 316.696 465.154 318.52C465.154 320.12 463.554 321.176 461.57 321.176C459.874 321.176 458.242 320.472 457.538 319.176Z" fill="#DED6FC"/>
<g clip-path="url(#clip6_2273_36904)">
<g clip-path="url(#clip7_2273_36904)">
<path d="M116.866 574.551L115.632 572.41L128.337 565.078L119.812 550.3C119.568 549.88 119.595 549.358 119.877 548.959L132.152 531.847C138.972 522.346 142.575 511.15 142.575 499.463V477.789C142.575 476.665 141.994 475.658 141.021 475.098C140.045 474.537 138.893 474.541 137.921 475.098L119.142 485.94C109.018 491.783 101.122 500.501 96.3028 511.154L87.6231 530.342C87.4203 530.785 86.9803 531.07 86.4956 531.07H69.425V545.783H66.95V529.83C66.95 529.145 67.5034 528.592 68.1875 528.592H85.6946L94.0443 510.133C99.0768 499.005 107.33 489.896 117.904 483.795L136.683 472.953C138.422 471.945 140.509 471.945 142.255 472.953C144.008 473.96 145.05 475.768 145.05 477.789V499.466C145.05 511.673 141.282 523.37 134.16 533.295L122.349 549.757L131.097 564.913C131.262 565.195 131.307 565.535 131.221 565.848C131.138 566.167 130.929 566.435 130.643 566.6L116.866 574.551ZM118.887 524.388C116.983 524.388 115.106 523.89 113.415 522.91C108.172 519.885 106.371 513.158 109.396 507.912C112.425 502.67 119.162 500.875 124.394 503.894C126.934 505.361 128.753 507.73 129.509 510.559C130.269 513.391 129.877 516.351 128.412 518.891C126.948 521.432 124.58 523.247 121.751 524.006C120.802 524.264 119.839 524.388 118.887 524.388ZM118.922 504.904C115.982 504.904 113.116 506.43 111.541 509.153C109.197 513.213 110.596 518.424 114.652 520.768C116.622 521.906 118.911 522.205 121.108 521.621C123.301 521.033 125.137 519.624 126.271 517.657C127.405 515.691 127.708 513.398 127.12 511.205C126.532 509.012 125.126 507.176 123.16 506.042C121.823 505.272 120.362 504.904 118.922 504.904ZM88.6784 577.666C92.7415 575.61 97.1175 573.128 98.7537 570.289L98.9049 570.021C100.362 567.501 100.751 564.559 99.9946 561.743C99.2418 558.928 97.4337 556.573 94.9106 555.119C89.6925 552.108 83.01 553.902 80.0021 559.11L79.8509 559.378C78.2112 562.211 78.249 567.24 78.5 571.784C78.5378 572.468 79.1084 572.96 79.8028 572.953C80.4834 572.915 81.0093 572.331 80.9681 571.65C80.8409 569.337 80.5006 563.194 81.989 560.612L82.1403 560.344C84.4675 556.315 89.6409 554.937 93.6696 557.261C95.6187 558.388 97.0143 560.203 97.5987 562.383C98.1796 564.559 97.884 566.831 96.7531 568.783L96.5984 569.051C95.11 571.63 89.6168 574.407 87.5509 575.452C86.9425 575.761 86.695 576.507 87.0043 577.112C87.2209 577.545 87.6574 577.793 88.1112 577.793C88.3106 577.8 88.4996 577.759 88.6784 577.666Z" fill="#DED6FC"/>
</g>
</g>
<defs>
<clipPath id="clip0_2273_36904">
<rect width="110" height="110" fill="white" transform="matrix(-1 0 0 -1 148 214)"/>
</clipPath>
<clipPath id="clip1_2273_36904">
<rect width="27" height="29" fill="white" transform="translate(351 32)"/>
</clipPath>
<clipPath id="clip2_2273_36904">
<rect width="27" height="29" fill="white" transform="translate(351 391)"/>
</clipPath>
<clipPath id="clip3_2273_36904">
<rect width="27" height="29" fill="white" transform="translate(172 140)"/>
</clipPath>
<clipPath id="clip4_2273_36904">
<rect width="40" height="40" fill="white" transform="translate(342 104)"/>
</clipPath>
<clipPath id="clip5_2273_36904">
<rect width="32" height="32" fill="white" transform="translate(260 299)"/>
</clipPath>
<clipPath id="clip6_2273_36904">
<rect width="120" height="120" fill="white" transform="translate(46 465)"/>
</clipPath>
<clipPath id="clip7_2273_36904">
<rect width="110" height="110" fill="white" transform="translate(51 470)"/>
</clipPath>
</defs>
</svg>
