<svg width="519" height="611" viewBox="0 0 519 611" fill="none" xmlns="http://www.w3.org/2000/svg">
<rect width="519" height="611" rx="16" fill="#5933F2"/>
<path d="M244.707 164.707C245.098 164.317 245.098 163.683 244.707 163.293L238.343 156.929C237.953 156.538 237.319 156.538 236.929 156.929C236.538 157.319 236.538 157.953 236.929 158.343L242.586 164L236.929 169.657C236.538 170.047 236.538 170.681 236.929 171.071C237.319 171.462 237.953 171.462 238.343 171.071L244.707 164.707ZM220 165L244 165L244 163L220 163L220 165Z" fill="#B4A3F9"/>
<path d="M291.707 521.707C292.098 521.317 292.098 520.683 291.707 520.293L285.343 513.929C284.953 513.538 284.319 513.538 283.929 513.929C283.538 514.319 283.538 514.953 283.929 515.343L289.586 521L283.929 526.657C283.538 527.047 283.538 527.681 283.929 528.071C284.319 528.462 284.953 528.462 285.343 528.071L291.707 521.707ZM180 522L291 522L291 520L180 520L180 522Z" fill="#B4A3F9"/>
<g clip-path="url(#clip0_2002_37557)">
<path d="M137.69 208.366H127.377C126.693 208.366 126.14 207.812 126.14 207.128V194.616H59.8646V207.128C59.8646 207.812 59.3112 208.366 58.6271 208.366H48.3146C47.6306 208.366 47.0771 207.812 47.0771 207.128V193.378C47.0771 193.299 47.084 193.22 47.0978 193.148C45.0078 191.677 43.6396 189.246 43.6396 186.503V159.003C43.6396 154.847 46.7815 151.41 50.8137 150.946L60.1431 119.85C60.7412 117.856 62.5425 116.516 64.6221 116.516H121.382C123.462 116.516 125.263 117.856 125.861 119.847L135.191 150.942C139.226 151.406 142.368 154.844 142.368 159V186.5C142.368 189.243 141 191.673 138.907 193.144C138.92 193.217 138.931 193.296 138.931 193.375V207.125C138.927 207.812 138.374 208.366 137.69 208.366ZM128.615 205.891H136.449V194.313C135.751 194.512 135.012 194.619 134.249 194.619H128.611L128.615 205.891ZM49.5521 205.891H57.3896V194.616H51.7521C50.989 194.616 50.25 194.509 49.5521 194.31V205.891ZM127.377 192.141H134.252C137.36 192.141 139.89 189.614 139.89 186.503V159.003C139.89 155.903 137.377 153.379 134.28 153.366C134.252 153.362 134.238 153.366 134.221 153.366H51.7796C51.7659 153.366 51.7418 153.366 51.7246 153.366C48.6309 153.379 46.1146 155.903 46.1146 159.003V186.503C46.1146 189.611 48.6446 192.141 51.7521 192.141H127.377ZM53.4159 150.891H132.592L125.081 125.866H60.9234L53.4159 150.891ZM61.6659 123.391H124.338L123.489 120.558C123.211 119.633 122.345 118.987 121.382 118.987H64.6221C63.6425 118.987 62.7968 119.62 62.515 120.558L61.6659 123.391ZM123.94 177.428C119.464 177.428 115.827 173.788 115.827 169.316C115.827 164.843 119.467 161.203 123.94 161.203C128.412 161.203 132.052 164.84 132.052 169.316C132.052 173.791 128.415 177.428 123.94 177.428ZM123.94 163.678C120.832 163.678 118.302 166.205 118.302 169.316C118.302 172.427 120.829 174.953 123.94 174.953C127.051 174.953 129.577 172.427 129.577 169.316C129.577 166.205 127.047 163.678 123.94 163.678ZM62.0646 177.428C57.5925 177.428 53.9521 173.788 53.9521 169.316C53.9521 164.843 57.5925 161.203 62.0646 161.203C66.5368 161.203 70.1771 164.84 70.1771 169.316C70.1771 173.791 66.5368 177.428 62.0646 177.428ZM62.0646 163.678C58.9571 163.678 56.4271 166.205 56.4271 169.316C56.4271 172.427 58.9571 174.953 62.0646 174.953C65.1721 174.953 67.7022 172.423 67.7022 169.316C67.7022 166.208 65.1721 163.678 62.0646 163.678ZM113.627 146.491C113.256 146.491 112.885 146.322 112.641 145.999L102.328 132.373C101.916 131.826 102.022 131.053 102.569 130.64C103.102 130.228 103.882 130.327 104.301 130.881L114.614 144.507C115.026 145.054 114.92 145.827 114.373 146.24C114.15 146.408 113.888 146.491 113.627 146.491ZM117.065 140.234C116.69 140.234 116.315 140.062 116.075 139.736L109.2 130.523C108.791 129.977 108.901 129.2 109.451 128.791C109.994 128.385 110.771 128.492 111.18 129.042L118.055 138.254C118.464 138.801 118.354 139.578 117.804 139.987C117.58 140.155 117.322 140.234 117.065 140.234ZM141.127 187.741H44.8771V185.266H141.127V187.741ZM110.19 173.991H75.8146V171.516H110.19V173.991ZM110.19 167.116H75.8146V164.641H110.19V167.116ZM138.927 145.253H136.452V134.941H138.931L138.927 145.253ZM49.5521 145.253H47.0771V134.941H49.5521V145.253Z" fill="#DED6FC"/>
</g>
<path d="M349 251L349 250L347 250L347 251L349 251ZM347.293 275.707C347.683 276.098 348.317 276.098 348.707 275.707L355.071 269.343C355.462 268.953 355.462 268.319 355.071 267.929C354.681 267.538 354.047 267.538 353.657 267.929L348 273.586L342.343 267.929C341.953 267.538 341.319 267.538 340.929 267.929C340.538 268.319 340.538 268.953 340.929 269.343L347.293 275.707ZM347 251L347 275L349 275L349 251L347 251Z" fill="#B4A3F9"/>
<path d="M380.707 250.293C380.317 249.902 379.683 249.902 379.293 250.293L372.929 256.657C372.538 257.047 372.538 257.681 372.929 258.071C373.319 258.462 373.953 258.462 374.343 258.071L380 252.414L385.657 258.071C386.047 258.462 386.681 258.462 387.071 258.071C387.462 257.681 387.462 257.047 387.071 256.657L380.707 250.293ZM379 275L379 276L381 276L381 275L379 275ZM379 251L379 275L381 275L381 251L379 251Z" fill="#B4A3F9"/>
<path d="M364 355L364 354L362 354L362 355L364 355ZM362.293 379.707C362.683 380.098 363.317 380.098 363.707 379.707L370.071 373.343C370.462 372.953 370.462 372.319 370.071 371.929C369.681 371.538 369.047 371.538 368.657 371.929L363 377.586L357.343 371.929C356.953 371.538 356.319 371.538 355.929 371.929C355.538 372.319 355.538 372.953 355.929 373.343L362.293 379.707ZM362 355L362 379L364 379L364 355L362 355Z" fill="#B4A3F9"/>
<rect x="253" y="88" width="220" height="154" rx="19" fill="#382193" stroke="#5933F2" stroke-width="6"/>
<rect x="304" y="191" width="42" height="28" rx="14" fill="#CDC2FB"/>
<path d="M315.416 199.948H316.97L320.12 210H318.762L317.95 207.354H314.408L313.596 210H312.28L315.416 199.948ZM316.172 201.558L314.758 206.178H317.586L316.172 201.558ZM322.677 205.786V210H321.333V199.948H324.973C327.101 199.948 328.445 200.942 328.445 202.86C328.445 204.75 327.101 205.786 324.973 205.786H322.677ZM322.677 204.624H324.889C326.331 204.624 327.129 203.994 327.129 202.86C327.129 201.726 326.331 201.11 324.889 201.11H322.677V204.624ZM336.503 208.824V210H329.475V208.824H332.317V201.124H329.475V199.948H336.503V201.124H333.661V208.824H336.503Z" fill="black"/>
<rect x="354" y="191" width="67" height="28" rx="14" fill="#CDC2FB"/>
<path d="M365.71 199.948H366.732L367.978 207.48L369.07 199.948H370.26L368.664 210H367.53L366.2 202.202L364.87 210H363.736L362.14 199.948H363.358L364.45 207.48L365.71 199.948ZM374.777 210.154C372.677 210.154 371.249 208.6 371.249 206.346C371.249 204.162 372.677 202.538 374.721 202.538C376.821 202.538 377.927 204.092 377.927 206.122V206.542H372.467C372.551 208.082 373.461 209.062 374.777 209.062C375.813 209.062 376.541 208.53 376.779 207.662L377.871 208.054C377.409 209.356 376.275 210.154 374.777 210.154ZM374.721 203.616C373.587 203.616 372.775 204.33 372.537 205.576H376.653C376.625 204.54 376.037 203.616 374.721 203.616ZM383.381 210.154C382.387 210.154 381.645 209.664 381.225 208.922V210H379.965V199.948H381.225V203.756C381.645 203.028 382.387 202.538 383.381 202.538C385.341 202.538 386.447 204.274 386.447 206.346C386.447 208.404 385.341 210.154 383.381 210.154ZM381.197 206.108V206.612C381.197 208.292 382.191 209.048 383.129 209.048C384.445 209.048 385.173 207.928 385.173 206.346C385.173 204.764 384.445 203.644 383.129 203.644C382.191 203.644 381.197 204.372 381.197 206.108ZM399.778 210.14C397.706 210.14 396.404 208.88 396.404 206.192V199.948H397.748V206.136C397.748 208.096 398.49 208.908 399.778 208.908C401.066 208.908 401.808 208.096 401.808 206.136V199.948H403.152V206.192C403.152 208.88 401.85 210.14 399.778 210.14ZM411.687 208.824V210H404.659V208.824H407.501V201.124H404.659V199.948H411.687V201.124H408.845V208.824H411.687Z" fill="black"/>
<rect x="295" y="151" width="134" height="28" rx="14" fill="#CDC2FB"/>
<path d="M307.606 170H306.794L304.96 161.866V170H303.798V159.948H305.604L307.214 167.186L308.838 159.948H310.602V170H309.44V161.866L307.606 170ZM315.777 170.154C313.677 170.154 312.249 168.6 312.249 166.346C312.249 164.162 313.677 162.538 315.721 162.538C317.821 162.538 318.927 164.092 318.927 166.122V166.542H313.467C313.551 168.082 314.461 169.062 315.777 169.062C316.813 169.062 317.541 168.53 317.779 167.662L318.871 168.054C318.409 169.356 317.275 170.154 315.777 170.154ZM315.721 163.616C314.587 163.616 313.775 164.33 313.537 165.576H317.653C317.625 164.54 317.037 163.616 315.721 163.616ZM322.491 167.648V163.756H320.335V162.678H322.491V160.536H323.723V162.678H327.097V163.756H323.723V167.55C323.723 168.544 324.311 168.95 325.473 168.95C326.047 168.95 326.621 168.852 327.139 168.698V169.832C326.649 169.972 325.949 170.084 325.277 170.084C323.751 170.084 322.491 169.44 322.491 167.648ZM331.46 170.126C330.102 170.126 328.996 169.342 328.996 168.026C328.996 166.57 330.186 165.954 331.81 165.646L333.77 165.268V164.96C333.77 164.12 333.252 163.63 332.216 163.63C331.278 163.63 330.662 164.092 330.41 164.904L329.234 164.596C329.612 163.392 330.704 162.538 332.272 162.538C333.966 162.538 335.002 163.336 335.002 164.904V168.432C335.002 168.992 335.38 169.104 335.898 168.992V170C334.722 170.14 334.022 169.916 333.84 169.146C333.364 169.72 332.51 170.126 331.46 170.126ZM333.77 167.466V166.248L332.132 166.556C331.054 166.766 330.27 167.088 330.27 167.97C330.27 168.684 330.802 169.104 331.642 169.104C332.762 169.104 333.77 168.404 333.77 167.466ZM340.386 170.154C338.426 170.154 337.32 168.404 337.32 166.346C337.32 164.274 338.426 162.538 340.386 162.538C341.38 162.538 342.122 163.028 342.542 163.756V159.948H343.802V170H342.542V168.922C342.122 169.664 341.38 170.154 340.386 170.154ZM342.57 166.108C342.57 164.372 341.576 163.644 340.638 163.644C339.322 163.644 338.594 164.764 338.594 166.346C338.594 167.928 339.322 169.048 340.638 169.048C341.576 169.048 342.57 168.292 342.57 166.612V166.108ZM348.249 170.126C346.891 170.126 345.785 169.342 345.785 168.026C345.785 166.57 346.975 165.954 348.599 165.646L350.559 165.268V164.96C350.559 164.12 350.041 163.63 349.005 163.63C348.067 163.63 347.451 164.092 347.199 164.904L346.023 164.596C346.401 163.392 347.493 162.538 349.061 162.538C350.755 162.538 351.791 163.336 351.791 164.904V168.432C351.791 168.992 352.169 169.104 352.687 168.992V170C351.511 170.14 350.811 169.916 350.629 169.146C350.153 169.72 349.299 170.126 348.249 170.126ZM350.559 167.466V166.248L348.921 166.556C347.843 166.766 347.059 167.088 347.059 167.97C347.059 168.684 347.591 169.104 348.431 169.104C349.551 169.104 350.559 168.404 350.559 167.466ZM356.069 167.648V163.756H353.913V162.678H356.069V160.536H357.301V162.678H360.675V163.756H357.301V167.55C357.301 168.544 357.889 168.95 359.051 168.95C359.625 168.95 360.199 168.852 360.717 168.698V169.832C360.227 169.972 359.527 170.084 358.855 170.084C357.329 170.084 356.069 169.44 356.069 167.648ZM365.038 170.126C363.68 170.126 362.574 169.342 362.574 168.026C362.574 166.57 363.764 165.954 365.388 165.646L367.348 165.268V164.96C367.348 164.12 366.83 163.63 365.794 163.63C364.856 163.63 364.24 164.092 363.988 164.904L362.812 164.596C363.19 163.392 364.282 162.538 365.85 162.538C367.544 162.538 368.58 163.336 368.58 164.904V168.432C368.58 168.992 368.958 169.104 369.476 168.992V170C368.3 170.14 367.6 169.916 367.418 169.146C366.942 169.72 366.088 170.126 365.038 170.126ZM367.348 167.466V166.248L365.71 166.556C364.632 166.766 363.848 167.088 363.848 167.97C363.848 168.684 364.38 169.104 365.22 169.104C366.34 169.104 367.348 168.404 367.348 167.466ZM378.691 167.942L379.741 167.088C380.371 168.292 381.519 169.006 382.821 169.006C384.123 169.006 385.117 168.348 385.117 167.2C385.117 165.982 383.969 165.772 382.429 165.394C380.861 165.016 379.279 164.596 379.279 162.706C379.279 160.942 380.819 159.794 382.723 159.794C384.473 159.794 385.719 160.606 386.335 161.754L385.313 162.552C384.809 161.586 383.997 160.928 382.681 160.928C381.477 160.928 380.581 161.6 380.581 162.594C380.581 163.658 381.533 163.882 382.947 164.218C384.599 164.61 386.433 164.96 386.433 167.088C386.433 168.964 384.767 170.154 382.779 170.154C381.043 170.154 379.377 169.3 378.691 167.942ZM389.647 167.648V163.756H387.491V162.678H389.647V160.536H390.879V162.678H394.253V163.756H390.879V167.55C390.879 168.544 391.467 168.95 392.629 168.95C393.203 168.95 393.777 168.852 394.295 168.698V169.832C393.805 169.972 393.105 170.084 392.433 170.084C390.907 170.084 389.647 169.44 389.647 167.648ZM402.942 166.346C402.942 168.614 401.542 170.154 399.54 170.154C397.538 170.154 396.138 168.614 396.138 166.346C396.138 164.078 397.538 162.538 399.54 162.538C401.542 162.538 402.942 164.078 402.942 166.346ZM397.412 166.346C397.412 168.012 398.252 169.076 399.54 169.076C400.828 169.076 401.668 168.012 401.668 166.346C401.668 164.666 400.828 163.602 399.54 163.602C398.252 163.602 397.412 164.666 397.412 166.346ZM404.574 170V168.922H406.632V163.756H404.574V162.678H407.878V164.022C408.326 163.168 409.292 162.538 410.524 162.538C411.014 162.538 411.406 162.608 411.658 162.72V163.966C411.322 163.854 410.93 163.77 410.398 163.77C409.096 163.77 407.878 164.652 407.878 165.996V168.922H410.65V170H404.574ZM416.511 170.154C414.411 170.154 412.983 168.6 412.983 166.346C412.983 164.162 414.411 162.538 416.455 162.538C418.555 162.538 419.661 164.092 419.661 166.122V166.542H414.201C414.285 168.082 415.195 169.062 416.511 169.062C417.547 169.062 418.275 168.53 418.513 167.662L419.605 168.054C419.143 169.356 418.009 170.154 416.511 170.154ZM416.455 163.616C415.321 163.616 414.509 164.33 414.271 165.576H418.387C418.359 164.54 417.771 163.616 416.455 163.616Z" fill="black"/>
<g clip-path="url(#clip1_2002_37557)">
<path d="M377.898 41.1935L373.424 38.5604C373.298 38.4863 373.143 38.4863 373.017 38.5603L366.992 42.1025V35.0202C366.992 34.8721 366.915 34.7353 366.789 34.6613L362.313 32.0281C362.177 31.9483 362.008 32.048 362.008 32.2075V42.1024L355.985 38.5603C355.859 38.4862 355.704 38.4862 355.578 38.5603L351.102 41.1935C350.966 41.2733 350.966 41.4727 351.102 41.5524L359.515 46.5L351.102 51.4475C350.966 51.5272 350.966 51.7266 351.102 51.8064L355.576 54.4395C355.702 54.5136 355.857 54.5136 355.983 54.4396L362.008 50.8974V57.9817C362.008 58.1298 362.085 58.2667 362.211 58.3407L366.687 60.972C366.823 61.0517 366.992 60.952 366.992 60.7925V50.8975L373.015 54.4396C373.141 54.5136 373.296 54.5136 373.422 54.4396L377.898 51.8064C378.034 51.7266 378.034 51.5272 377.898 51.4475L369.485 46.5L377.898 41.5524C378.034 41.4727 378.034 41.2733 377.898 41.1935ZM367.298 48.1454L364.5 49.7908L361.702 48.1454V44.8545L364.5 43.2091L367.298 44.8545V48.1454Z" fill="white"/>
</g>
<path d="M289.072 74V62.512H291.52C294.992 62.512 297.008 64.752 297.008 68.256C297.008 71.76 294.992 74 291.52 74H289.072ZM290.576 72.672H291.52C294.176 72.672 295.488 70.928 295.488 68.256C295.488 65.568 294.176 63.84 291.504 63.84H290.576V72.672ZM301.658 74.144C300.106 74.144 298.842 73.248 298.842 71.744C298.842 70.08 300.202 69.376 302.058 69.024L304.298 68.592V68.24C304.298 67.28 303.706 66.72 302.522 66.72C301.45 66.72 300.746 67.248 300.458 68.176L299.114 67.824C299.546 66.448 300.794 65.472 302.586 65.472C304.522 65.472 305.706 66.384 305.706 68.176V72.208C305.706 72.848 306.138 72.976 306.73 72.848V74C305.386 74.16 304.586 73.904 304.378 73.024C303.834 73.68 302.858 74.144 301.658 74.144ZM304.298 71.104V69.712L302.426 70.064C301.194 70.304 300.298 70.672 300.298 71.68C300.298 72.496 300.906 72.976 301.866 72.976C303.146 72.976 304.298 72.176 304.298 71.104ZM310.915 71.312V66.864H308.451V65.632H310.915V63.184H312.323V65.632H316.179V66.864H312.323V71.2C312.323 72.336 312.995 72.8 314.323 72.8C314.979 72.8 315.635 72.688 316.227 72.512V73.808C315.667 73.968 314.867 74.096 314.099 74.096C312.355 74.096 310.915 73.36 310.915 71.312ZM321.485 74.144C319.933 74.144 318.669 73.248 318.669 71.744C318.669 70.08 320.029 69.376 321.885 69.024L324.125 68.592V68.24C324.125 67.28 323.533 66.72 322.349 66.72C321.277 66.72 320.573 67.248 320.285 68.176L318.941 67.824C319.373 66.448 320.621 65.472 322.413 65.472C324.349 65.472 325.533 66.384 325.533 68.176V72.208C325.533 72.848 325.965 72.976 326.557 72.848V74C325.213 74.16 324.413 73.904 324.205 73.024C323.661 73.68 322.685 74.144 321.485 74.144ZM324.125 71.104V69.712L322.253 70.064C321.021 70.304 320.125 70.672 320.125 71.68C320.125 72.496 320.733 72.976 321.693 72.976C322.973 72.976 324.125 72.176 324.125 71.104ZM342.833 74H341.905L339.809 64.704V74H338.481V62.512H340.545L342.385 70.784L344.241 62.512H346.257V74H344.929V64.704L342.833 74ZM351.226 74.144C349.674 74.144 348.41 73.248 348.41 71.744C348.41 70.08 349.77 69.376 351.626 69.024L353.866 68.592V68.24C353.866 67.28 353.274 66.72 352.09 66.72C351.018 66.72 350.314 67.248 350.026 68.176L348.682 67.824C349.114 66.448 350.362 65.472 352.154 65.472C354.09 65.472 355.274 66.384 355.274 68.176V72.208C355.274 72.848 355.706 72.976 356.298 72.848V74C354.954 74.16 354.154 73.904 353.946 73.024C353.402 73.68 352.426 74.144 351.226 74.144ZM353.866 71.104V69.712L351.994 70.064C350.762 70.304 349.866 70.672 349.866 71.68C349.866 72.496 350.474 72.976 351.434 72.976C352.714 72.976 353.866 72.176 353.866 71.104ZM358.884 74V65.632H360.324V66.768C360.788 66.08 361.636 65.472 362.82 65.472C364.596 65.472 365.604 66.704 365.604 68.48V74H364.164V68.864C364.164 67.696 363.668 66.816 362.42 66.816C361.38 66.816 360.324 67.616 360.324 69.008V74H358.884ZM371.054 74.144C369.502 74.144 368.238 73.248 368.238 71.744C368.238 70.08 369.598 69.376 371.454 69.024L373.694 68.592V68.24C373.694 67.28 373.102 66.72 371.918 66.72C370.846 66.72 370.142 67.248 369.854 68.176L368.51 67.824C368.942 66.448 370.19 65.472 371.982 65.472C373.918 65.472 375.102 66.384 375.102 68.176V72.208C375.102 72.848 375.534 72.976 376.126 72.848V74C374.782 74.16 373.982 73.904 373.774 73.024C373.23 73.68 372.254 74.144 371.054 74.144ZM373.694 71.104V69.712L371.822 70.064C370.59 70.304 369.694 70.672 369.694 71.68C369.694 72.496 370.302 72.976 371.262 72.976C372.542 72.976 373.694 72.176 373.694 71.104ZM385.48 73.248C385.48 75.696 383.88 77.056 381.592 77.056C379.768 77.056 378.424 76.208 377.96 74.672L379.304 74.16C379.592 75.232 380.44 75.856 381.592 75.856C383.08 75.856 384.04 75.104 384.04 73.36V72.416C383.592 73.232 382.696 73.808 381.528 73.808C379.288 73.808 377.992 71.92 377.992 69.632C377.992 67.36 379.288 65.472 381.528 65.472C382.696 65.472 383.592 66.048 384.04 66.864V65.632H385.48V73.248ZM384.056 69.504C384.056 67.632 382.952 66.736 381.816 66.736C380.296 66.736 379.448 67.872 379.448 69.632C379.448 71.392 380.296 72.544 381.816 72.544C382.952 72.544 384.056 71.648 384.056 69.808V69.504ZM392.145 74.176C389.745 74.176 388.113 72.4 388.113 69.824C388.113 67.328 389.745 65.472 392.081 65.472C394.481 65.472 395.745 67.248 395.745 69.568V70.048H389.505C389.601 71.808 390.641 72.928 392.145 72.928C393.329 72.928 394.161 72.32 394.433 71.328L395.681 71.776C395.153 73.264 393.857 74.176 392.145 74.176ZM392.081 66.704C390.785 66.704 389.857 67.52 389.585 68.944H394.289C394.257 67.76 393.585 66.704 392.081 66.704ZM399.211 68.368V74H397.899V65.616H399.211V66.528C399.483 65.968 399.995 65.472 400.763 65.472C401.515 65.472 402.027 65.92 402.315 66.624C402.571 66.064 403.211 65.472 404.043 65.472C405.227 65.472 405.867 66.464 405.867 67.856V74H404.539V68.272C404.539 67.424 404.379 66.8 403.643 66.8C403.003 66.8 402.539 67.392 402.539 68.368V74H401.211V68.272C401.211 67.424 401.035 66.8 400.299 66.8C399.643 66.8 399.211 67.392 399.211 68.368ZM411.973 74.176C409.573 74.176 407.941 72.4 407.941 69.824C407.941 67.328 409.573 65.472 411.909 65.472C414.309 65.472 415.573 67.248 415.573 69.568V70.048H409.333C409.429 71.808 410.469 72.928 411.973 72.928C413.157 72.928 413.989 72.32 414.261 71.328L415.509 71.776C414.981 73.264 413.685 74.176 411.973 74.176ZM411.909 66.704C410.613 66.704 409.685 67.52 409.413 68.944H414.117C414.085 67.76 413.413 66.704 411.909 66.704ZM418.367 74V65.632H419.807V66.768C420.271 66.08 421.119 65.472 422.303 65.472C424.079 65.472 425.087 66.704 425.087 68.48V74H423.647V68.864C423.647 67.696 423.151 66.816 421.903 66.816C420.863 66.816 419.807 67.616 419.807 69.008V74H418.367ZM429.88 71.312V66.864H427.416V65.632H429.88V63.184H431.288V65.632H435.144V66.864H431.288V71.2C431.288 72.336 431.96 72.8 433.288 72.8C433.944 72.8 434.6 72.688 435.192 72.512V73.808C434.632 73.968 433.832 74.096 433.064 74.096C431.32 74.096 429.88 73.36 429.88 71.312Z" fill="#DED6FC"/>
<mask id="path-17-inside-1_2002_37557" fill="white">
<rect x="303" y="462" width="120" height="115.714" rx="1.71429"/>
</mask>
<rect x="303" y="462" width="120" height="115.714" rx="1.71429" stroke="#DED6FC" stroke-width="5.14286" mask="url(#path-17-inside-1_2002_37557)"/>
<rect x="304.714" y="473.143" width="117.429" height="2.57143" fill="#DED6FC"/>
<rect x="303" y="518.572" width="60.8571" height="2.57143" fill="#DED6FC"/>
<rect x="309.857" y="567.43" width="33.4286" height="2.57143" fill="#DED6FC"/>
<rect x="345.857" y="565.715" width="2.57143" height="6" fill="#DED6FC"/>
<rect x="351" y="567.43" width="72" height="2.57143" fill="#DED6FC"/>
<rect x="304.714" y="559.715" width="117.429" height="2.57143" fill="#DED6FC"/>
<path d="M310.714 503.143H317.143L321.429 494.79L326.571 503.143L331.286 492.001L336 500.572L338.571 494.79L340.286 490.504L345.429 504.429L349.714 494.572L352.286 499.286L357.429 497.143" stroke="#DED6FC" stroke-width="2.57143"/>
<circle cx="311.571" cy="468.857" r="1.71429" fill="#DED6FC"/>
<circle cx="316.714" cy="468.857" r="1.71429" fill="#DED6FC"/>
<circle cx="321.857" cy="468.857" r="1.71429" fill="#DED6FC"/>
<rect x="362.143" y="475.715" width="2.57143" height="84" fill="#DED6FC"/>
<ellipse cx="406.136" cy="509.571" rx="1.96078" ry="2.14286" fill="#DED6FC"/>
<ellipse cx="393.979" cy="497.999" rx="2.35294" ry="2.57143" fill="#DED6FC"/>
<ellipse cx="405.352" cy="501.858" rx="1.96078" ry="2.14286" fill="#DED6FC"/>
<ellipse cx="399.861" cy="500.143" rx="1.96078" ry="2.14286" fill="#DED6FC"/>
<ellipse cx="400.645" cy="508.715" rx="1.96078" ry="2.14286" fill="#DED6FC"/>
<ellipse cx="406.136" cy="517.285" rx="1.96078" ry="2.14286" fill="#DED6FC"/>
<ellipse cx="411.235" cy="517.714" rx="1.56863" ry="1.71429" fill="#DED6FC"/>
<ellipse cx="400.645" cy="517.285" rx="1.96078" ry="2.14286" fill="#DED6FC"/>
<ellipse cx="395.154" cy="525" rx="1.96078" ry="2.14286" fill="#DED6FC"/>
<ellipse cx="388.096" cy="516.428" rx="1.96078" ry="2.14286" fill="#DED6FC"/>
<ellipse cx="382.996" cy="525.429" rx="2.35294" ry="2.57143" fill="#DED6FC"/>
<ellipse cx="395.154" cy="507.858" rx="1.96078" ry="2.14286" fill="#DED6FC"/>
<ellipse cx="381.43" cy="515.999" rx="2.35294" ry="2.57143" fill="#DED6FC"/>
<ellipse cx="382.996" cy="505.714" rx="2.35294" ry="2.57143" fill="#DED6FC"/>
<ellipse cx="376.722" cy="504.857" rx="2.35294" ry="2.57143" fill="#DED6FC"/>
<ellipse cx="375.155" cy="515.144" rx="2.35294" ry="2.57143" fill="#DED6FC"/>
<ellipse cx="376.722" cy="526.286" rx="2.35294" ry="2.57143" fill="#DED6FC"/>
<ellipse cx="394.37" cy="516.428" rx="1.96078" ry="2.14286" fill="#DED6FC"/>
<ellipse cx="388.879" cy="525" rx="1.96078" ry="2.14286" fill="#DED6FC"/>
<ellipse cx="381.43" cy="494.571" rx="2.35294" ry="2.57143" fill="#DED6FC"/>
<ellipse cx="396.328" cy="532.287" rx="1.56863" ry="1.71429" fill="#DED6FC"/>
<ellipse cx="401.82" cy="533.142" rx="1.56863" ry="1.71429" fill="#DED6FC"/>
<ellipse cx="392.411" cy="539.142" rx="1.56863" ry="1.71429" fill="#DED6FC"/>
<ellipse cx="386.92" cy="539.999" rx="1.56863" ry="1.71429" fill="#DED6FC"/>
<ellipse cx="381.429" cy="540.857" rx="1.56863" ry="1.71429" fill="#DED6FC"/>
<ellipse cx="397.902" cy="539.142" rx="1.56863" ry="1.71429" fill="#DED6FC"/>
<ellipse cx="403.393" cy="539.999" rx="1.56863" ry="1.71429" fill="#DED6FC"/>
<ellipse cx="379.471" cy="534.428" rx="1.96078" ry="2.14286" fill="#DED6FC"/>
<ellipse cx="384.962" cy="533.571" rx="1.96078" ry="2.14286" fill="#DED6FC"/>
<ellipse cx="390.446" cy="532.715" rx="1.96078" ry="2.14286" fill="#DED6FC"/>
<ellipse cx="407.311" cy="533.999" rx="1.56863" ry="1.71429" fill="#DED6FC"/>
<ellipse cx="411.235" cy="525.429" rx="1.56863" ry="1.71429" fill="#DED6FC"/>
<ellipse cx="387.704" cy="496.286" rx="2.35294" ry="2.57143" fill="#DED6FC"/>
<ellipse cx="389.271" cy="506.571" rx="2.35294" ry="2.57143" fill="#DED6FC"/>
<ellipse cx="406.136" cy="525" rx="1.96078" ry="2.14286" fill="#DED6FC"/>
<ellipse cx="400.645" cy="525" rx="1.96078" ry="2.14286" fill="#DED6FC"/>
<path d="M320.574 545.446L318.831 543.541L323.103 538.868L318.831 534.196L320.577 532.287L326.596 538.868L320.574 545.446ZM336.859 546.893H326.565V549.593H336.859V546.893Z" fill="#DED6FC"/>
<g clip-path="url(#clip2_2002_37557)">
<path d="M377.898 400.193L373.424 397.56C373.298 397.486 373.143 397.486 373.017 397.56L366.992 401.102V394.02C366.992 393.872 366.915 393.735 366.789 393.661L362.313 391.028C362.177 390.948 362.008 391.048 362.008 391.208V401.102L355.985 397.56C355.859 397.486 355.704 397.486 355.578 397.56L351.102 400.194C350.966 400.273 350.966 400.473 351.102 400.552L359.515 405.5L351.102 410.447C350.966 410.527 350.966 410.727 351.102 410.806L355.576 413.439C355.702 413.514 355.857 413.514 355.983 413.44L362.008 409.897V416.982C362.008 417.13 362.085 417.267 362.211 417.341L366.687 419.972C366.823 420.052 366.992 419.952 366.992 419.792V409.897L373.015 413.44C373.141 413.514 373.296 413.514 373.422 413.44L377.898 410.806C378.034 410.727 378.034 410.527 377.898 410.447L369.485 405.5L377.898 400.552C378.034 400.473 378.034 400.273 377.898 400.193ZM367.298 407.145L364.5 408.791L361.702 407.145V403.855L364.5 402.209L367.298 403.855V407.145Z" fill="white"/>
</g>
<path d="M311.904 421.512H313.68L317.28 433H315.728L314.8 429.976H310.752L309.824 433H308.32L311.904 421.512ZM312.768 423.352L311.152 428.632H314.384L312.768 423.352ZM323.162 433.176C322.026 433.176 321.178 432.616 320.698 431.768V435.88H319.258V424.632H320.698V425.864C321.178 425.032 322.026 424.472 323.162 424.472C325.402 424.472 326.666 426.456 326.666 428.824C326.666 431.176 325.402 433.176 323.162 433.176ZM320.666 428.552V429.128C320.666 431.048 321.802 431.912 322.874 431.912C324.378 431.912 325.21 430.632 325.21 428.824C325.21 427.016 324.378 425.736 322.874 425.736C321.802 425.736 320.666 426.568 320.666 428.552ZM333.075 433.176C331.939 433.176 331.091 432.616 330.611 431.768V435.88H329.171V424.632H330.611V425.864C331.091 425.032 331.939 424.472 333.075 424.472C335.315 424.472 336.58 426.456 336.58 428.824C336.58 431.176 335.315 433.176 333.075 433.176ZM330.579 428.552V429.128C330.579 431.048 331.715 431.912 332.787 431.912C334.291 431.912 335.123 430.632 335.123 428.824C335.123 427.016 334.291 425.736 332.787 425.736C331.715 425.736 330.579 426.568 330.579 428.552ZM339.037 433V431.768H342.125V422.744H339.037V421.512H343.565V431.768H346.653V433H339.037ZM351.975 423.176V421.512H353.543V423.176H351.975ZM348.951 433V431.768H352.039V425.864H348.951V424.632H353.479V431.768H356.567V433H348.951ZM360.017 428.824C360.017 430.728 361.121 431.912 362.753 431.912C364.033 431.912 364.801 431.176 365.073 430.136L366.289 430.728C365.873 432.12 364.593 433.176 362.737 433.176C360.337 433.176 358.609 431.4 358.609 428.824C358.609 426.232 360.337 424.472 362.737 424.472C364.577 424.472 365.841 425.48 366.273 426.872L365.073 427.496C364.801 426.472 364.033 425.72 362.753 425.72C361.121 425.72 360.017 426.904 360.017 428.824ZM371.226 433.144C369.674 433.144 368.41 432.248 368.41 430.744C368.41 429.08 369.77 428.376 371.626 428.024L373.866 427.592V427.24C373.866 426.28 373.274 425.72 372.09 425.72C371.018 425.72 370.314 426.248 370.026 427.176L368.682 426.824C369.114 425.448 370.362 424.472 372.154 424.472C374.09 424.472 375.274 425.384 375.274 427.176V431.208C375.274 431.848 375.706 431.976 376.298 431.848V433C374.954 433.16 374.154 432.904 373.946 432.024C373.402 432.68 372.426 433.144 371.226 433.144ZM373.866 430.104V428.712L371.994 429.064C370.762 429.304 369.866 429.672 369.866 430.68C369.866 431.496 370.474 431.976 371.434 431.976C372.714 431.976 373.866 431.176 373.866 430.104ZM380.484 430.312V425.864H378.02V424.632H380.484V422.184H381.892V424.632H385.748V425.864H381.892V430.2C381.892 431.336 382.564 431.8 383.892 431.8C384.548 431.8 385.204 431.688 385.796 431.512V432.808C385.236 432.968 384.436 433.096 383.668 433.096C381.924 433.096 380.484 432.36 380.484 430.312ZM391.63 423.176V421.512H393.198V423.176H391.63ZM388.606 433V431.768H391.694V425.864H388.606V424.632H393.134V431.768H396.222V433H388.606ZM405.912 428.824C405.912 431.416 404.312 433.176 402.024 433.176C399.736 433.176 398.136 431.416 398.136 428.824C398.136 426.232 399.736 424.472 402.024 424.472C404.312 424.472 405.912 426.232 405.912 428.824ZM399.592 428.824C399.592 430.728 400.552 431.944 402.024 431.944C403.496 431.944 404.456 430.728 404.456 428.824C404.456 426.904 403.496 425.688 402.024 425.688C400.552 425.688 399.592 426.904 399.592 428.824ZM408.625 433V424.632H410.065V425.768C410.529 425.08 411.377 424.472 412.561 424.472C414.337 424.472 415.345 425.704 415.345 427.48V433H413.905V427.864C413.905 426.696 413.409 425.816 412.161 425.816C411.121 425.816 410.065 426.616 410.065 428.008V433H408.625Z" fill="#DED6FC"/>
<g clip-path="url(#clip3_2002_37557)">
<path d="M198.898 149.193L194.424 146.56C194.298 146.486 194.143 146.486 194.017 146.56L187.992 150.102V143.02C187.992 142.872 187.915 142.735 187.789 142.661L183.313 140.028C183.177 139.948 183.008 140.048 183.008 140.208V150.102L176.985 146.56C176.859 146.486 176.704 146.486 176.578 146.56L172.102 149.194C171.966 149.273 171.966 149.473 172.102 149.552L180.515 154.5L172.102 159.447C171.966 159.527 171.966 159.727 172.102 159.806L176.576 162.439C176.702 162.514 176.857 162.514 176.983 162.44L183.008 158.897V165.982C183.008 166.13 183.085 166.267 183.211 166.341L187.687 168.972C187.823 169.052 187.992 168.952 187.992 168.792V158.897L194.015 162.44C194.141 162.514 194.296 162.514 194.422 162.44L198.898 159.806C199.034 159.727 199.034 159.527 198.898 159.447L190.485 154.5L198.898 149.552C199.034 149.473 199.034 149.273 198.898 149.193ZM188.298 156.145L185.5 157.791L182.702 156.145V152.855L185.5 151.209L188.298 152.855V156.145Z" fill="white"/>
</g>
<path d="M161.904 170.512H163.68L167.28 182H165.728L164.8 178.976H160.752L159.824 182H158.32L161.904 170.512ZM162.768 172.352L161.152 177.632H164.384L162.768 172.352ZM176.17 181.248C176.17 183.696 174.57 185.056 172.282 185.056C170.458 185.056 169.114 184.208 168.65 182.672L169.994 182.16C170.282 183.232 171.13 183.856 172.282 183.856C173.77 183.856 174.73 183.104 174.73 181.36V180.416C174.282 181.232 173.386 181.808 172.218 181.808C169.978 181.808 168.682 179.92 168.682 177.632C168.682 175.36 169.978 173.472 172.218 173.472C173.386 173.472 174.282 174.048 174.73 174.864V173.632H176.17V181.248ZM174.746 177.504C174.746 175.632 173.642 174.736 172.506 174.736C170.986 174.736 170.138 175.872 170.138 177.632C170.138 179.392 170.986 180.544 172.506 180.544C173.642 180.544 174.746 179.648 174.746 177.808V177.504ZM182.835 182.176C180.435 182.176 178.803 180.4 178.803 177.824C178.803 175.328 180.435 173.472 182.771 173.472C185.171 173.472 186.436 175.248 186.436 177.568V178.048H180.195C180.291 179.808 181.331 180.928 182.835 180.928C184.019 180.928 184.851 180.32 185.123 179.328L186.372 179.776C185.844 181.264 184.547 182.176 182.835 182.176ZM182.771 174.704C181.475 174.704 180.547 175.52 180.275 176.944H184.979C184.947 175.76 184.275 174.704 182.771 174.704ZM189.229 182V173.632H190.669V174.768C191.133 174.08 191.981 173.472 193.165 173.472C194.941 173.472 195.949 174.704 195.949 176.48V182H194.509V176.864C194.509 175.696 194.013 174.816 192.765 174.816C191.725 174.816 190.669 175.616 190.669 177.008V182H189.229ZM200.743 179.312V174.864H198.279V173.632H200.743V171.184H202.151V173.632H206.007V174.864H202.151V179.2C202.151 180.336 202.823 180.8 204.151 180.8C204.807 180.8 205.463 180.688 206.055 180.512V181.808C205.495 181.968 204.695 182.096 203.927 182.096C202.183 182.096 200.743 181.36 200.743 179.312Z" fill="#DED6FC"/>
<g clip-path="url(#clip4_2002_37557)">
<path d="M362.002 112.75C362.636 112.75 363.268 112.813 363.89 112.938C365.853 113.314 367.659 114.27 369.074 115.682C370.489 117.095 371.448 118.899 371.827 120.863L372.152 122.55L373.84 122.85C375.544 123.143 377.075 124.068 378.128 125.44C379.181 126.812 379.678 128.53 379.521 130.252C379.363 131.975 378.562 133.574 377.277 134.732C375.993 135.89 374.319 136.521 372.59 136.5H351.377C349.648 136.521 347.974 135.89 346.689 134.732C345.405 133.574 344.604 131.975 344.446 130.252C344.288 128.53 344.785 126.812 345.838 125.44C346.891 124.068 348.423 123.143 350.127 122.85L351.802 122.55L352.127 120.863C352.568 118.57 353.796 116.505 355.6 115.023C357.403 113.541 359.668 112.737 362.002 112.75ZM362.002 110.25C359.093 110.248 356.274 111.26 354.031 113.113C351.788 114.966 350.262 117.543 349.715 120.4C347.412 120.817 345.349 122.079 343.931 123.939C342.512 125.8 341.84 128.123 342.046 130.453C342.253 132.784 343.324 134.953 345.048 136.534C346.772 138.115 349.025 138.995 351.365 139H372.615C374.954 138.995 377.207 138.115 378.931 136.534C380.655 134.953 381.726 132.784 381.933 130.453C382.139 128.123 381.467 125.8 380.049 123.939C378.63 122.079 376.567 120.817 374.265 120.4C373.794 117.942 372.596 115.682 370.827 113.913C369.057 112.143 366.797 110.946 364.34 110.475C363.569 110.329 362.786 110.253 362.002 110.25Z" fill="#CDC2FB"/>
</g>
<rect x="56" y="56" width="75" height="28" rx="14" fill="#DED6FC"/>
<path d="M67.416 64.948H68.97L72.12 75H70.762L69.95 72.354H66.408L65.596 75H64.28L67.416 64.948ZM68.172 66.558L66.758 71.178H69.586L68.172 66.558ZM77.3365 75H75.8525L72.6745 64.948H74.0745L76.6085 73.264L79.1565 64.948H80.5145L77.3365 75ZM90.1216 75V64.948H92.2636C95.3016 64.948 97.0656 66.908 97.0656 69.974C97.0656 73.04 95.3016 75 92.2636 75H90.1216ZM91.4376 73.838H92.2636C94.5876 73.838 95.7356 72.312 95.7356 69.974C95.7356 67.622 94.5876 66.11 92.2496 66.11H91.4376V73.838ZM100.854 75.126C99.4961 75.126 98.3901 74.342 98.3901 73.026C98.3901 71.57 99.5801 70.954 101.204 70.646L103.164 70.268V69.96C103.164 69.12 102.646 68.63 101.61 68.63C100.672 68.63 100.056 69.092 99.8041 69.904L98.6281 69.596C99.0061 68.392 100.098 67.538 101.666 67.538C103.36 67.538 104.396 68.336 104.396 69.904V73.432C104.396 73.992 104.774 74.104 105.292 73.992V75C104.116 75.14 103.416 74.916 103.234 74.146C102.758 74.72 101.904 75.126 100.854 75.126ZM103.164 72.466V71.248L101.526 71.556C100.448 71.766 99.6641 72.088 99.6641 72.97C99.6641 73.684 100.196 74.104 101.036 74.104C102.156 74.104 103.164 73.404 103.164 72.466ZM108.675 72.648V68.756H106.519V67.678H108.675V65.536H109.907V67.678H113.281V68.756H109.907V72.55C109.907 73.544 110.495 73.95 111.657 73.95C112.231 73.95 112.805 73.852 113.323 73.698V74.832C112.833 74.972 112.133 75.084 111.461 75.084C109.935 75.084 108.675 74.44 108.675 72.648ZM117.643 75.126C116.285 75.126 115.179 74.342 115.179 73.026C115.179 71.57 116.369 70.954 117.993 70.646L119.953 70.268V69.96C119.953 69.12 119.435 68.63 118.399 68.63C117.461 68.63 116.845 69.092 116.593 69.904L115.417 69.596C115.795 68.392 116.887 67.538 118.455 67.538C120.149 67.538 121.185 68.336 121.185 69.904V73.432C121.185 73.992 121.563 74.104 122.081 73.992V75C120.905 75.14 120.205 74.916 120.023 74.146C119.547 74.72 118.693 75.126 117.643 75.126ZM119.953 72.466V71.248L118.315 71.556C117.237 71.766 116.453 72.088 116.453 72.97C116.453 73.684 116.985 74.104 117.825 74.104C118.945 74.104 119.953 73.404 119.953 72.466Z" fill="black"/>
<rect x="42" y="415" width="117" height="28" rx="14" fill="#DED6FC"/>
<path d="M51.358 434V423.948H52.702V432.824H57.714V434H51.358ZM62.1745 425.404V423.948H63.5465V425.404H62.1745ZM59.5285 434V432.922H62.2305V427.756H59.5285V426.678H63.4905V432.922H66.1925V434H59.5285ZM71.6051 434H70.3591L67.3351 426.678H68.6651L71.0031 432.488L73.3131 426.678H74.6291L71.6051 434ZM79.5656 434.154C77.4656 434.154 76.0376 432.6 76.0376 430.346C76.0376 428.162 77.4656 426.538 79.5096 426.538C81.6096 426.538 82.7156 428.092 82.7156 430.122V430.542H77.2556C77.3396 432.082 78.2496 433.062 79.5656 433.062C80.6016 433.062 81.3296 432.53 81.5676 431.662L82.6596 432.054C82.1976 433.356 81.0636 434.154 79.5656 434.154ZM79.5096 427.616C78.3756 427.616 77.5636 428.33 77.3256 429.576H81.4416C81.4136 428.54 80.8256 427.616 79.5096 427.616ZM95.3887 423.948H96.9427L100.093 434H98.7347L97.9227 431.354H94.3807L93.5687 434H92.2527L95.3887 423.948ZM96.1447 425.558L94.7307 430.178H97.5587L96.1447 425.558ZM105.309 434H103.825L100.647 423.948H102.047L104.581 432.264L107.129 423.948H108.487L105.309 434ZM118.094 434V423.948H120.236C123.274 423.948 125.038 425.908 125.038 428.974C125.038 432.04 123.274 434 120.236 434H118.094ZM119.41 432.838H120.236C122.56 432.838 123.708 431.312 123.708 428.974C123.708 426.622 122.56 425.11 120.222 425.11H119.41V432.838ZM128.827 434.126C127.469 434.126 126.363 433.342 126.363 432.026C126.363 430.57 127.553 429.954 129.177 429.646L131.137 429.268V428.96C131.137 428.12 130.619 427.63 129.583 427.63C128.645 427.63 128.029 428.092 127.777 428.904L126.601 428.596C126.979 427.392 128.071 426.538 129.639 426.538C131.333 426.538 132.369 427.336 132.369 428.904V432.432C132.369 432.992 132.747 433.104 133.265 432.992V434C132.089 434.14 131.389 433.916 131.207 433.146C130.731 433.72 129.877 434.126 128.827 434.126ZM131.137 431.466V430.248L129.499 430.556C128.421 430.766 127.637 431.088 127.637 431.97C127.637 432.684 128.169 433.104 129.009 433.104C130.129 433.104 131.137 432.404 131.137 431.466ZM136.647 431.648V427.756H134.491V426.678H136.647V424.536H137.879V426.678H141.253V427.756H137.879V431.55C137.879 432.544 138.467 432.95 139.629 432.95C140.203 432.95 140.777 432.852 141.295 432.698V433.832C140.805 433.972 140.105 434.084 139.433 434.084C137.907 434.084 136.647 433.44 136.647 431.648ZM145.616 434.126C144.258 434.126 143.152 433.342 143.152 432.026C143.152 430.57 144.342 429.954 145.966 429.646L147.926 429.268V428.96C147.926 428.12 147.408 427.63 146.372 427.63C145.434 427.63 144.818 428.092 144.566 428.904L143.39 428.596C143.768 427.392 144.86 426.538 146.428 426.538C148.122 426.538 149.158 427.336 149.158 428.904V432.432C149.158 432.992 149.536 433.104 150.054 432.992V434C148.878 434.14 148.178 433.916 147.996 433.146C147.52 433.72 146.666 434.126 145.616 434.126ZM147.926 431.466V430.248L146.288 430.556C145.21 430.766 144.426 431.088 144.426 431.97C144.426 432.684 144.958 433.104 145.798 433.104C146.918 433.104 147.926 432.404 147.926 431.466Z" fill="black"/>
<rect x="240" y="287" width="247" height="56" rx="28" fill="#382193"/>
<g clip-path="url(#clip5_2002_37557)">
<path d="M286 319C288.206 319 290 317.206 290 315C290 312.794 288.206 311 286 311C284.142 311 282.589 312.28 282.142 314H278.414L283.981 308.433C284.576 308.785 285.26 309 286 309C288.206 309 290 307.206 290 305C290 302.794 288.206 301 286 301C284.142 301 282.589 302.28 282.142 304H269.858C269.411 302.28 267.858 301 266 301C263.794 301 262 302.794 262 305C262 307.206 263.794 309 266 309C266.74 309 267.424 308.785 268.019 308.433L273.586 314H269.858C269.411 312.28 267.858 311 266 311C263.794 311 262 312.794 262 315C262 317.206 263.794 319 266 319C267.858 319 269.411 317.72 269.858 316H273.586L268.019 321.567C267.424 321.215 266.74 321 266 321C263.794 321 262 322.794 262 325C262 327.206 263.794 329 266 329C267.858 329 269.411 327.72 269.858 326H282.142C282.589 327.72 284.142 329 286 329C288.206 329 290 327.206 290 325C290 322.794 288.206 321 286 321C285.26 321 284.576 321.215 283.981 321.567L278.414 316H282.142C282.589 317.72 284.142 319 286 319ZM286 313C287.103 313 288 313.898 288 315C288 316.102 287.103 317 286 317C284.897 317 284 316.102 284 315C284 313.898 284.897 313 286 313ZM286 303C287.103 303 288 303.898 288 305C288 306.102 287.103 307 286 307C284.897 307 284 306.102 284 305C284 303.898 284.897 303 286 303ZM266 307C264.897 307 264 306.102 264 305C264 303.898 264.897 303 266 303C267.103 303 268 303.898 268 305C268 306.102 267.103 307 266 307ZM266 317C264.897 317 264 316.102 264 315C264 313.898 264.897 313 266 313C267.103 313 268 313.898 268 315C268 316.102 267.103 317 266 317ZM266 327C264.897 327 264 326.103 264 325C264 323.897 264.897 323 266 323C267.103 323 268 323.897 268 325C268 326.103 267.103 327 266 327ZM286 323C287.103 323 288 323.897 288 325C288 326.103 287.103 327 286 327C284.897 327 284 326.103 284 325C284 323.897 284.897 323 286 323ZM282.567 322.981C282.38 323.296 282.236 323.637 282.142 324H269.858C269.764 323.637 269.62 323.296 269.433 322.981L276 316.414L282.567 322.981ZM276 313.586L269.433 307.019C269.62 306.704 269.764 306.361 269.862 306H282.138C282.236 306.361 282.38 306.704 282.567 307.019L276 313.586Z" fill="#DED6FC"/>
</g>
<path d="M313.264 321H312.336L310.24 311.704V321H308.912V309.512H310.976L312.816 317.784L314.672 309.512H316.688V321H315.36V311.704L313.264 321ZM319.466 321V309.512H321.002V319.656H326.73V321H319.466ZM338.813 321V309.512H341.261C344.733 309.512 346.749 311.752 346.749 315.256C346.749 318.76 344.733 321 341.261 321H338.813ZM340.317 319.672H341.261C343.917 319.672 345.229 317.928 345.229 315.256C345.229 312.568 343.917 310.84 341.245 310.84H340.317V319.672ZM351.399 321.144C349.847 321.144 348.583 320.248 348.583 318.744C348.583 317.08 349.943 316.376 351.799 316.024L354.039 315.592V315.24C354.039 314.28 353.447 313.72 352.263 313.72C351.191 313.72 350.487 314.248 350.199 315.176L348.855 314.824C349.287 313.448 350.535 312.472 352.327 312.472C354.263 312.472 355.447 313.384 355.447 315.176V319.208C355.447 319.848 355.879 319.976 356.471 319.848V321C355.127 321.16 354.327 320.904 354.119 320.024C353.575 320.68 352.599 321.144 351.399 321.144ZM354.039 318.104V316.712L352.167 317.064C350.935 317.304 350.039 317.672 350.039 318.68C350.039 319.496 350.647 319.976 351.607 319.976C352.887 319.976 354.039 319.176 354.039 318.104ZM360.657 318.312V313.864H358.193V312.632H360.657V310.184H362.065V312.632H365.921V313.864H362.065V318.2C362.065 319.336 362.737 319.8 364.065 319.8C364.721 319.8 365.377 319.688 365.969 319.512V320.808C365.409 320.968 364.609 321.096 363.841 321.096C362.097 321.096 360.657 320.36 360.657 318.312ZM371.226 321.144C369.674 321.144 368.41 320.248 368.41 318.744C368.41 317.08 369.77 316.376 371.626 316.024L373.866 315.592V315.24C373.866 314.28 373.274 313.72 372.09 313.72C371.018 313.72 370.314 314.248 370.026 315.176L368.682 314.824C369.114 313.448 370.362 312.472 372.154 312.472C374.09 312.472 375.274 313.384 375.274 315.176V319.208C375.274 319.848 375.706 319.976 376.298 319.848V321C374.954 321.16 374.154 320.904 373.946 320.024C373.402 320.68 372.426 321.144 371.226 321.144ZM373.866 318.104V316.712L371.994 317.064C370.762 317.304 369.866 317.672 369.866 318.68C369.866 319.496 370.474 319.976 371.434 319.976C372.714 319.976 373.866 319.176 373.866 318.104ZM391.214 309.512H392.99L396.59 321H395.038L394.11 317.976H390.062L389.134 321H387.63L391.214 309.512ZM392.078 311.352L390.462 316.632H393.694L392.078 311.352ZM398.712 321V312.632H400.152V313.768C400.616 313.08 401.464 312.472 402.648 312.472C404.424 312.472 405.432 313.704 405.432 315.48V321H403.992V315.864C403.992 314.696 403.496 313.816 402.248 313.816C401.208 313.816 400.152 314.616 400.152 316.008V321H398.712ZM410.881 321.144C409.329 321.144 408.065 320.248 408.065 318.744C408.065 317.08 409.425 316.376 411.281 316.024L413.521 315.592V315.24C413.521 314.28 412.929 313.72 411.745 313.72C410.673 313.72 409.969 314.248 409.681 315.176L408.337 314.824C408.769 313.448 410.017 312.472 411.809 312.472C413.745 312.472 414.929 313.384 414.929 315.176V319.208C414.929 319.848 415.361 319.976 415.953 319.848V321C414.609 321.16 413.809 320.904 413.601 320.024C413.057 320.68 412.081 321.144 410.881 321.144ZM413.521 318.104V316.712L411.649 317.064C410.417 317.304 409.521 317.672 409.521 318.68C409.521 319.496 410.129 319.976 411.089 319.976C412.369 319.976 413.521 319.176 413.521 318.104ZM418.347 321V319.768H421.435V310.744H418.347V309.512H422.875V319.768H425.963V321H418.347ZM431.973 321.912C431.461 323.16 430.805 323.976 429.317 323.976C428.949 323.976 428.789 323.96 428.533 323.912V322.664C428.805 322.728 428.965 322.744 429.221 322.744C429.861 322.744 430.245 322.52 430.613 321.688L431.029 320.728L427.589 312.632H429.109L431.781 319.064L434.421 312.632H435.925L431.973 321.912ZM437.711 319.176L438.895 318.392C439.391 319.368 440.559 319.976 441.823 319.976C442.911 319.976 443.871 319.528 443.871 318.68C443.871 317.736 442.975 317.608 441.359 317.32C439.839 317.032 438.239 316.712 438.239 315C438.239 313.512 439.679 312.472 441.647 312.472C443.343 312.472 444.639 313.24 445.183 314.232L444.079 315.016C443.615 314.168 442.735 313.656 441.519 313.656C440.415 313.656 439.663 314.136 439.663 314.888C439.663 315.672 440.591 315.832 441.887 316.088C443.487 316.424 445.327 316.696 445.327 318.52C445.327 320.12 443.727 321.176 441.743 321.176C440.047 321.176 438.415 320.472 437.711 319.176ZM451.112 311.176V309.512H452.68V311.176H451.112ZM448.088 321V319.768H451.176V313.864H448.088V312.632H452.616V319.768H455.704V321H448.088ZM457.538 319.176L458.722 318.392C459.218 319.368 460.386 319.976 461.65 319.976C462.738 319.976 463.698 319.528 463.698 318.68C463.698 317.736 462.802 317.608 461.186 317.32C459.666 317.032 458.066 316.712 458.066 315C458.066 313.512 459.506 312.472 461.474 312.472C463.17 312.472 464.466 313.24 465.01 314.232L463.906 315.016C463.442 314.168 462.562 313.656 461.346 313.656C460.242 313.656 459.49 314.136 459.49 314.888C459.49 315.672 460.418 315.832 461.714 316.088C463.314 316.424 465.154 316.696 465.154 318.52C465.154 320.12 463.554 321.176 461.57 321.176C459.874 321.176 458.242 320.472 457.538 319.176Z" fill="#DED6FC"/>
<g clip-path="url(#clip6_2002_37557)">
<path d="M68.5001 571.35C74.9913 571.35 80.3538 566.415 81.0288 560.1H127.221C127.896 566.415 133.259 571.35 139.75 571.35C146.241 571.35 151.604 566.415 152.279 560.1H154.75C159.629 560.1 163.6 556.129 163.6 551.25V525C163.6 524.745 163.529 524.509 163.409 524.307L148.263 498.075C148.023 497.659 147.576 497.4 147.093 497.4H118.596V480C118.596 479.254 117.993 478.65 117.246 478.65H49.7463C49.0001 478.65 48.3963 479.254 48.3963 480V558.75C48.3963 559.497 49.0001 560.1 49.7463 560.1H55.9676C56.6463 566.415 62.0088 571.35 68.5001 571.35ZM68.5001 548.85C73.9601 548.85 78.4001 553.29 78.4001 558.75C78.4001 564.21 73.9601 568.65 68.5001 568.65C63.0401 568.65 58.6001 564.21 58.6001 558.75C58.6001 553.29 63.0401 548.85 68.5001 548.85ZM139.75 548.85C145.21 548.85 149.65 553.29 149.65 558.75C149.65 564.21 145.21 568.65 139.75 568.65C134.29 568.65 129.85 564.21 129.85 558.75C129.85 553.29 134.29 548.85 139.75 548.85ZM55.9713 557.4H51.1001V481.35H115.9V557.4H81.0288C80.3538 551.085 74.9951 546.15 68.5001 546.15C62.0051 546.15 56.6463 551.085 55.9713 557.4ZM127.221 557.4H118.6V526.35H160.9V551.25C160.9 554.64 158.14 557.4 154.75 557.4H152.279C151.604 551.085 146.241 546.15 139.75 546.15C133.259 546.15 127.896 551.085 127.221 557.4ZM127.15 523.65H118.6V500.1H127.15V523.65ZM159.91 523.65H129.85V500.1H146.313L159.91 523.65ZM124.75 533.85H132.25V531.15H124.75V533.85ZM57.2501 526.35H87.2501V523.65H57.2501V526.35ZM57.2501 515.1H94.7501V512.4H57.2501V515.1ZM57.2501 503.85H102.25V501.15H57.2501V503.85ZM57.2501 492.6H109.75V489.9H57.2501V492.6Z" fill="#DED6FC"/>
</g>
<defs>
<clipPath id="clip0_2002_37557">
<rect width="110" height="110" fill="white" transform="translate(38 104)"/>
</clipPath>
<clipPath id="clip1_2002_37557">
<rect width="27" height="29" fill="white" transform="translate(351 32)"/>
</clipPath>
<clipPath id="clip2_2002_37557">
<rect width="27" height="29" fill="white" transform="translate(351 391)"/>
</clipPath>
<clipPath id="clip3_2002_37557">
<rect width="27" height="29" fill="white" transform="translate(172 140)"/>
</clipPath>
<clipPath id="clip4_2002_37557">
<rect width="40" height="40" fill="white" transform="translate(342 104)"/>
</clipPath>
<clipPath id="clip5_2002_37557">
<rect width="32" height="32" fill="white" transform="translate(260 299)"/>
</clipPath>
<clipPath id="clip6_2002_37557">
<rect width="120" height="120" fill="white" transform="matrix(-1 0 0 1 166 465)"/>
</clipPath>
</defs>
</svg>
