<?xml version="1.0" encoding="UTF-8"?>
<svg id="Layer_1" data-name="Layer 1" xmlns="http://www.w3.org/2000/svg" viewBox="0 0 998.21 113.46">
  <defs>
    <style>
      .cls-1 {
        fill: #1c0f30;
      }
    </style>
  </defs>
  <path class="cls-1" d="M884.27,25.85c-10.69,0-17.04,1.61-20.6,5.21-2.81,2.85-4.03,7.09-3.95,13.77v.79l11.57.31v-1.68c0-6.55,3.28-8.77,12.98-8.77s13.07,1.98,13.07,8.85v.25c0,6.26-2.3,8.75-15.2,10.28-19.91,2.33-22.92,5.88-22.92,16.88v14.17h49.94v-9.7c-3.74.07-8.67.07-14.34.07h-24.11v-3.54c0-5.85,2.15-7.15,14.35-8.68,19.02-2.03,23.94-6.04,23.94-19.49v-.34c0-13.92-6.01-18.39-24.72-18.39Z"/>
  <path class="cls-1" d="M944.66,25.85c-20.75,0-27.42,7.13-27.42,29.35v2.78c0,22.03,6.66,29.1,27.42,29.1s27.16-5.35,27.16-19.74v-.34c0-13.96-6.31-19.66-21.76-19.66-10.94,0-16.94,2.32-20.06,7.76l-.93,1.63v-1.88c0-14.87,3.79-19.64,15.6-19.64,9.89,0,13.43,1.75,13.65,6.9l11.75-.31c-.03-5.27-1.08-8.69-3.4-11.02-3.44-3.47-10.02-4.95-22-4.95ZM929.23,66.68c0-8.77,6.26-10.54,16.35-10.54,10.59,0,14.16,2.7,14.16,10.71v.34c0,8.91-5.08,10.54-15.09,10.54s-15.43-1.75-15.43-10.7v-.34Z"/>
  <path class="cls-1" d="M945.95,112.94h.47c22.05.01,34.05-3.14,41.43-10.87,7.35-7.7,10.35-20.2,10.35-43.14v-4.42c0-22.95-3-35.45-10.35-43.14-7.38-7.73-19.39-10.88-41.43-10.88h-61.72c-22.05,0-34.05,3.15-41.44,10.88-7.35,7.7-10.35,20.2-10.35,43.14v4.42c0,22.95,3,35.45,10.35,43.14,7.38,7.73,19.39,10.88,41.44,10.88l.98-.02v.02h60.27ZM885.15,103.42c-.21-.01-.33-.02-.45-.02-34.21,0-41.13-7.71-41.13-45.86v-1.65c0-38.14,6.92-45.85,41.13-45.85h61.72c34.21,0,41.13,7.71,41.13,45.85v1.65c0,38.14-6.92,45.86-41.13,45.86-.12,0-.24,0-.36.01l-.53.03v-.03h-59.85v.03l-.53-.02Z"/>
  <g>
    <path class="cls-1" d="M87.83,2.22h-53.76C26.68,26.59,7.7,87.78,0,111.24h34.38l3.8-14.69h43.8l3.8,14.69h35.66c-7.63-23.76-26.61-85.87-33.61-109.02ZM44.83,70.93l1.09-4.61c2.14-8.27,4.19-16.55,6.16-24.56.92-3.75,1.81-7.38,2.69-10.84l.28-1.19h9.56l.3,1.17c3.25,12.8,6.27,24.54,8.99,34.9l1.28,5.13h-30.36Z"/>
    <path class="cls-1" d="M181.41,0c-44.08,0-57.52,12.66-57.52,54.2v5.06c0,41.54,13.44,54.2,57.52,54.2,25.39,0,38.95-3.25,46.8-11.23,6.74-6.85,9.6-17.5,9.48-35.43l-32.13-.58c-.26,13.55-4.11,19.25-24.14,19.25s-24.15-5.31-24.15-28.42v-.63c0-22.98,4.52-28.26,24.15-28.26,20.88,0,23.65,5.55,23.83,19.09l32.13-.58c.13-18.35-2.67-29.11-9.3-35.84-7.67-7.79-20.75-10.83-46.66-10.83Z"/>
    <path class="cls-1" d="M285.85,111.25h32.51c-.13-6.47-.13-13.22-.13-22.29V30.84h15.47c6.12,0,13.64,0,22.45.13V2.21h-108.09v28.76c11.88-.14,21.04-.14,27.19-.14h10.73v58.28c0,9.06,0,15.8-.12,22.13Z"/>
    <path class="cls-1" d="M477.85,43.67c-.03-4.61-.06-8.73-.06-12.06v-11.53c0-6.88,0-12.92.11-17.86h-32.47c.11,4.58.11,10.57.11,17.39v41.86c0,20.52-5.52,23.99-22.1,23.99-18.91,0-22.1-5.99-22.1-23.99V19.93c0-6.91,0-12.98.11-17.71h-32.49c.11,4.88.11,10.62.11,17.71v11.53c0,3.32-.02,7.41-.06,12.03-.03,5.94-.09,12.76-.09,19.88,0,39.79,11.22,50.1,54.53,50.1s54.51-10.31,54.51-50.1c0-7.01-.05-13.76-.09-19.69Z"/>
    <path class="cls-1" d="M477.85,43.67c-.03-4.61-.06-8.73-.06-12.06v-11.53c0-6.88,0-12.92.11-17.86h-32.47c.11,4.58.11,10.57.11,17.39v41.86c0,20.52-5.52,23.99-22.1,23.99-18.91,0-22.1-5.99-22.1-23.99V19.93c0-6.91,0-12.98.11-17.71h-32.49c.11,4.88.11,10.62.11,17.71v11.53c0,3.32-.02,7.41-.06,12.03-.03,5.94-.09,12.76-.09,19.88,0,39.79,11.22,50.1,54.53,50.1s54.51-10.31,54.51-50.1c0-7.01-.05-13.76-.09-19.69Z"/>
    <path class="cls-1" d="M569.51,2.22h-53.76c-7.4,24.37-26.37,85.56-34.07,109.02h34.38l3.79-14.69h43.81l3.8,14.69h35.66c-7.66-23.85-26.62-85.92-33.61-109.02ZM526.52,70.93l1.08-4.61c2.16-8.26,4.19-16.52,6.16-24.51.92-3.77,1.83-7.41,2.69-10.89l.3-1.19h9.56l.3,1.17c3.24,12.8,6.27,24.54,8.99,34.9l1.28,5.13h-30.36Z"/>
    <path class="cls-1" d="M633.09,111.25h32.51c-.13-6.47-.13-13.22-.13-22.29V30.84h15.47c6.12,0,13.64,0,22.45.13V2.21h-108.09v28.76c11.88-.14,21.04-.14,27.19-.14h10.73v58.28c0,9.06,0,15.8-.12,22.13Z"/>
    <path class="cls-1" d="M753.62,85.46h-5.21v-17.5h6.79c11.53,0,34.77,0,44.08.14v-24.18h-50.87v-15.92h3.63c17.13,0,42.61,0,54.51.14V2.22h-90.5c.11,5.27.11,11.04.11,18.18v68.71c0,9.13,0,15.92-.13,22.13h92.41v-25.92c-13.15.14-38.1.14-54.83.14Z"/>
    <path class="cls-1" d="M753.62,85.46h-5.21v-17.5h6.79c11.53,0,34.77,0,44.08.14v-24.18h-50.87v-15.92h3.63c17.13,0,42.61,0,54.51.14V2.22h-90.5c.11,5.27.11,11.04.11,18.18v68.71c0,9.13,0,15.92-.13,22.13h92.41v-25.92c-13.15.14-38.1.14-54.83.14Z"/>
  </g>
</svg>