<svg width="1584" height="320" viewBox="0 0 1584 320" fill="none" xmlns="http://www.w3.org/2000/svg">
<rect width="1584" height="320" fill="#393939"/>
<g clip-path="url(#clip0_2474_22991)">
<rect width="1584" height="320" fill="#271863"/>
<path d="M1539.51 241.5L1260.01 80.25L1260.01 402.75L1539.51 564L1539.51 241.5Z" fill="#4528B9"/>
<path d="M1819 80.25L1539.5 241.5L1539.5 564L1819 402.75L1819 80.25Z" fill="#382193"/>
<path d="M1819 80.25L1539.5 -81L1260 80.25L1539.5 241.5L1819 80.25Z" fill="#512EDB"/>
<path d="M44.5078 379.5L-234.992 218.25L-234.992 540.75L44.5078 702L44.5078 379.5Z" fill="#4528B9"/>
<path d="M324 218.25L44.5 379.5L44.5 702L324 540.75L324 218.25Z" fill="#382193"/>
<path d="M324 218.25L44.5 57L-235 218.25L44.5 379.5L324 218.25Z" fill="#512EDB"/>
</g>
<defs>
<clipPath id="clip0_2474_22991">
<rect width="1584" height="320" fill="white"/>
</clipPath>
</defs>
</svg>
