<svg width="1080" height="612" viewBox="0 0 1080 612" fill="none" xmlns="http://www.w3.org/2000/svg">
<rect width="1080" height="612" fill="#382193"/>
<rect x="308" y="74" width="220" height="220" rx="41.25" fill="#5933F2"/>
<g clip-path="url(#clip0_2474_23005)">
<path d="M488.585 156.553L465.013 142.933C464.35 142.55 463.533 142.55 462.869 142.933L431.131 161.254V124.622C431.131 123.856 430.722 123.148 430.059 122.765L406.477 109.145C405.762 108.733 404.869 109.248 404.869 110.073V161.254L373.141 142.933C372.478 142.55 371.66 142.55 370.997 142.933L347.415 156.553C346.701 156.965 346.701 157.997 347.415 158.409L391.738 184L347.415 209.59C346.7 210.003 346.7 211.034 347.415 211.447L370.986 225.066C371.65 225.45 372.467 225.45 373.131 225.067L404.869 206.745V243.388C404.869 244.154 405.278 244.862 405.941 245.245L429.523 258.855C430.237 259.267 431.131 258.752 431.131 257.927V206.746L462.858 225.067C463.522 225.45 464.339 225.45 465.003 225.067L488.585 211.447C489.299 211.034 489.299 210.003 488.585 209.59L444.261 184L488.585 158.409C489.299 157.997 489.3 156.965 488.585 156.553ZM432.738 192.511L418 201.021L403.261 192.511V175.489L418 166.978L432.738 175.489V192.511Z" fill="white"/>
</g>
<rect x="552" y="74" width="220" height="220" rx="40" fill="#198038"/>
<g clip-path="url(#clip1_2474_23005)">
<path d="M664.344 174.625H680.75V165.25H671.375V160.562H662V165.488C659.156 166.07 656.629 167.687 654.91 170.026C653.19 172.365 652.399 175.258 652.691 178.147C652.983 181.035 654.336 183.712 656.489 185.659C658.642 187.607 661.441 188.686 664.344 188.688H669.031C669.653 188.688 670.249 188.934 670.689 189.374C671.128 189.814 671.375 190.41 671.375 191.031C671.375 191.653 671.128 192.249 670.689 192.689C670.249 193.128 669.653 193.375 669.031 193.375H652.625V202.75H662V207.438H671.375V202.512C674.219 201.93 676.746 200.313 678.465 197.974C680.185 195.635 680.976 192.742 680.684 189.853C680.392 186.965 679.039 184.288 676.886 182.341C674.733 180.393 671.934 179.314 669.031 179.312H664.344C663.722 179.312 663.126 179.066 662.686 178.626C662.247 178.186 662 177.59 662 176.969C662 176.347 662.247 175.751 662.686 175.311C663.126 174.872 663.722 174.625 664.344 174.625Z" fill="white"/>
<path d="M722.938 169.938H713.469C713.334 166.234 712.44 162.598 710.844 159.254C709.248 155.91 706.982 152.93 704.188 150.496V132.438C704.188 131.567 703.945 130.714 703.487 129.973C703.03 129.233 702.375 128.634 701.596 128.245C700.818 127.856 699.946 127.691 699.079 127.769C698.212 127.847 697.384 128.165 696.688 128.688L679.187 141.813H657.312C631.487 141.813 612.953 157.006 610.679 179.312H610.438C609.195 179.311 608.003 178.817 607.124 177.938C606.245 177.059 605.751 175.868 605.75 174.625V165.25H596.375V174.625C596.379 178.353 597.862 181.928 600.498 184.564C603.135 187.201 606.709 188.683 610.438 188.688H610.766C611.446 194.834 613.444 200.761 616.623 206.065C619.802 211.369 624.088 215.925 629.188 219.422V235.562C629.188 236.806 629.681 237.998 630.56 238.877C631.44 239.756 632.632 240.25 633.875 240.25H652.625C653.868 240.25 655.06 239.756 655.94 238.877C656.819 237.998 657.312 236.806 657.312 235.562V226.188H671.375V235.562C671.375 236.806 671.869 237.998 672.748 238.877C673.627 239.756 674.819 240.25 676.062 240.25H694.812C696.056 240.25 697.248 239.756 698.127 238.877C699.006 237.998 699.5 236.806 699.5 235.562V219.799C702.886 218.194 705.847 215.814 708.142 212.852C710.438 209.89 712.003 206.429 712.713 202.75H722.938C724.181 202.75 725.373 202.256 726.252 201.377C727.131 200.498 727.625 199.306 727.625 198.062V174.625C727.625 173.382 727.131 172.19 726.252 171.31C725.373 170.431 724.181 169.938 722.938 169.938ZM718.25 193.375H704.769C703.338 206.279 700.909 209.713 690.125 213.603V230.875H680.75V216.812H647.938V230.875H638.562V213.896C632.918 211.211 628.157 206.973 624.836 201.677C621.515 196.382 619.772 190.25 619.812 184C619.812 161.334 638.647 151.188 657.312 151.188H682.313L694.812 141.813V154.827C706.148 163.542 703.778 169.761 704.273 179.312H718.25V193.375Z" fill="white"/>
</g>
<rect x="552" y="318" width="220" height="220" rx="40" fill="#5933F2"/>
<g clip-path="url(#clip2_2474_23005)">
<path d="M699.5 432.688L708.463 450.045L727.625 452.83L713.562 465.5L717.177 484.25L699.5 473.703L681.823 484.25L685.438 465.5L671.375 452.83L691.063 450.045L699.5 432.688Z" fill="white"/>
<path d="M643.25 428H615.125V437.375H643.25V428Z" fill="white"/>
<path d="M662 409.25H615.125V418.625H662V409.25Z" fill="white"/>
<path d="M662 390.5H615.125V399.875H662V390.5Z" fill="white"/>
<path d="M662 474.875H605.75V381.125H718.25V428H727.625V381.125C727.625 378.639 726.637 376.254 724.879 374.496C723.121 372.738 720.736 371.75 718.25 371.75H605.75C603.264 371.75 600.879 372.738 599.121 374.496C597.363 376.254 596.375 378.639 596.375 381.125V474.875C596.375 477.361 597.363 479.746 599.121 481.504C600.879 483.262 603.264 484.25 605.75 484.25H662V474.875Z" fill="white"/>
</g>
<rect x="308" y="318" width="220" height="220" rx="40" fill="#5933F2"/>
<g clip-path="url(#clip3_2474_23005)">
<path d="M408.625 456.125V418.625H446.125V381.125H483.625V371.75H436.75V409.25H399.25V446.75H361.75V362.375H352.375V484.25C352.378 486.735 353.367 489.118 355.124 490.876C356.882 492.633 359.265 493.622 361.75 493.625H483.625V484.25H361.75V456.125H408.625Z" fill="white"/>
</g>
<defs>
<clipPath id="clip0_2474_23005">
<rect width="142.242" height="150" fill="white" transform="translate(346.879 109)"/>
</clipPath>
<clipPath id="clip1_2474_23005">
<rect width="150" height="150" fill="white" transform="translate(587 109)"/>
</clipPath>
<clipPath id="clip2_2474_23005">
<rect width="150" height="150" fill="white" transform="translate(587 353)"/>
</clipPath>
<clipPath id="clip3_2474_23005">
<rect width="150" height="150" fill="white" transform="translate(343 353)"/>
</clipPath>
</defs>
</svg>
