<svg width="1220" height="686" viewBox="0 0 1220 686" fill="none" xmlns="http://www.w3.org/2000/svg">
<g clip-path="url(#clip0_4584_19380)">
<rect width="1220" height="686" fill="#382193"/>
<path d="M281.268 -85.9727V702.218L-88 850.064" stroke="#412B98" stroke-width="2.76032" stroke-linecap="round" stroke-linejoin="round"/>
<path d="M341.075 -85.9727V702.218L-88 916.943" stroke="#412B98" stroke-width="2.76032" stroke-linecap="round" stroke-linejoin="round"/>
<path d="M400.883 -85.9727V702.218L-88 1028.38" stroke="#412B98" stroke-width="2.76032" stroke-linecap="round" stroke-linejoin="round"/>
<path d="M460.697 -85.9727V702.218L-87.7148 1250.86" stroke="#412B98" stroke-width="2.76032" stroke-linecap="round" stroke-linejoin="round"/>
<path d="M520.512 -85.9727V702.218L246.07 1250.86" stroke="#412B98" stroke-width="2.76032" stroke-linecap="round" stroke-linejoin="round"/>
<path d="M580.316 -85.9727V702.218L579.848 1250.86" stroke="#412B98" stroke-width="2.76032" stroke-linecap="round" stroke-linejoin="round"/>
<path d="M640.133 -85.9727V702.218L913.628 1250.86" stroke="#412B98" stroke-width="2.76032" stroke-linecap="round" stroke-linejoin="round"/>
<path d="M699.938 -85.9727V702.218L1247.4 1250.86" stroke="#412B98" stroke-width="2.76032" stroke-linecap="round" stroke-linejoin="round"/>
<path d="M759.75 -85.9727V702.218L1248.84 1028.89" stroke="#412B98" stroke-width="2.76032" stroke-linecap="round" stroke-linejoin="round"/>
<path d="M819.551 -85.9727V702.218L1248.84 917.229" stroke="#412B98" stroke-width="2.76032" stroke-linecap="round" stroke-linejoin="round"/>
<path d="M879.371 -85.9727V702.218L1248.85 850.25" stroke="#412B98" stroke-width="2.76032" stroke-linecap="round" stroke-linejoin="round"/>
<path d="M939.168 -85.9727V702.218L1248.83 805.602" stroke="#412B98" stroke-width="2.76032" stroke-linecap="round" stroke-linejoin="round"/>
<path d="M998.969 -85.9727V702.218L1248.82 773.716" stroke="#412B98" stroke-width="2.76032" stroke-linecap="round" stroke-linejoin="round"/>
<path d="M1058.78 -85.9727V702.218L1248.83 749.802" stroke="#412B98" stroke-width="2.76032" stroke-linecap="round" stroke-linejoin="round"/>
<path d="M1118.6 -85.9727V702.218L1248.84 731.202" stroke="#412B98" stroke-width="2.76032" stroke-linecap="round" stroke-linejoin="round"/>
<path d="M1178.41 -85.9727V702.218L1248.84 716.326" stroke="#412B98" stroke-width="2.76032" stroke-linecap="round" stroke-linejoin="round"/>
<path d="M-88 773.619L161.648 702.218V-85.9727" stroke="#412B98" stroke-width="2.76032" stroke-linecap="round" stroke-linejoin="round"/>
<path d="M221.456 -85.9727V702.218L-88 805.474" stroke="#412B98" stroke-width="2.76032" stroke-linecap="round" stroke-linejoin="round"/>
<path d="M101.842 -85.9727V702.218L-88 749.732" stroke="#412B98" stroke-width="2.76032" stroke-linecap="round" stroke-linejoin="round"/>
<path d="M42.0261 -85.9727V702.218L-88 731.142" stroke="#412B98" stroke-width="2.76032" stroke-linecap="round" stroke-linejoin="round"/>
<path d="M-88 642.414H1248.84" stroke="#412B98" stroke-width="2.76032" stroke-linecap="round" stroke-linejoin="round"/>
<path d="M-88 582.6H1248.84" stroke="#412B98" stroke-width="2.76032" stroke-linecap="round" stroke-linejoin="round"/>
<path d="M-88 522.795H1248.84" stroke="#412B98" stroke-width="2.76032" stroke-linecap="round" stroke-linejoin="round"/>
<path d="M-88 462.984H1248.84" stroke="#412B98" stroke-width="2.76032" stroke-linecap="round" stroke-linejoin="round"/>
<path d="M-88 403.172H1248.84" stroke="#412B98" stroke-width="2.76032" stroke-linecap="round" stroke-linejoin="round"/>
<path d="M-88 343.363H1248.84" stroke="#412B98" stroke-width="2.76032" stroke-linecap="round" stroke-linejoin="round"/>
<path d="M-88 283.555H1248.84" stroke="#412B98" stroke-width="2.76032" stroke-linecap="round" stroke-linejoin="round"/>
<path d="M-88 223.744H1248.84" stroke="#412B98" stroke-width="2.76032" stroke-linecap="round" stroke-linejoin="round"/>
<path d="M-88 163.935H1248.84" stroke="#412B98" stroke-width="2.76032" stroke-linecap="round" stroke-linejoin="round"/>
<path d="M-88 104.127H1248.84" stroke="#412B98" stroke-width="2.76032" stroke-linecap="round" stroke-linejoin="round"/>
<path d="M-88 44.3124H1248.84" stroke="#412B98" stroke-width="2.76032" stroke-linecap="round" stroke-linejoin="round"/>
<rect opacity="0.4" x="938.391" y="-396" width="179.419" height="677.485" fill="#5039AA"/>
<rect opacity="0.4" x="-474" y="-225.766" width="179.204" height="2217.51" transform="rotate(-60 -474 -225.766)" fill="#5039AA"/>
<path opacity="0.4" d="M2156.08 -11.1925L410.412 998.786C408.625 999.82 406.55 1000.25 404.499 1000L124.286 966.737C119.722 966.195 118.479 960.152 122.459 957.853L1958.44 -102.651L2156.08 -11.1925Z" fill="#5039AA"/>
<g clip-path="url(#clip1_4584_19380)">
<path d="M1492.15 361.88L1330.32 268.428C1326.06 265.967 1320.8 265.966 1316.54 268.428L1117.8 383.17V153.712C1117.8 148.791 1115.18 144.244 1110.92 141.783L949.066 48.3295C944.475 45.6786 938.736 48.9921 938.736 54.2939V383.17L740.015 268.438C735.753 265.977 730.502 265.977 726.24 268.438L564.386 361.88C559.794 364.531 559.794 371.158 564.386 373.809L849.2 538.247L564.385 702.686C559.793 705.337 559.793 711.964 564.385 714.614L726.228 808.062C730.49 810.523 735.741 810.523 740.004 808.062L938.735 693.325V922.815C938.735 927.737 941.361 932.284 945.623 934.745L1107.47 1028.17C1112.07 1030.82 1117.8 1027.5 1117.8 1022.2V693.325L1316.53 808.062C1320.8 810.523 1326.05 810.523 1330.31 808.062L1492.15 714.614C1496.74 711.964 1496.74 705.337 1492.15 702.686L1207.34 538.247L1492.15 373.809C1496.75 371.158 1496.75 364.531 1492.15 361.88ZM1117.8 589.94L1028.27 641.633L938.734 589.94V486.555L1028.27 434.862L1117.8 486.555V589.94Z" fill="#5039AA"/>
<rect x="1135" y="438" width="307" height="387" fill="#5039AA"/>
</g>
<path d="M1028.18 434.879L938.652 486.57L1028.6 538.27L1117.71 486.564L1028.18 434.879Z" fill="#5B44B9"/>
<path d="M1117.45 589.915L1028.7 641.863L939.23 589.551V487.702C939.338 487.766 939.454 487.837 939.582 487.912C940.262 488.312 941.238 488.876 942.465 489.582C944.92 490.994 948.389 492.973 952.535 495.331C960.827 500.048 971.831 506.285 982.854 512.543C993.879 518.801 1004.92 525.081 1013.3 529.883C1017.48 532.284 1021 534.315 1023.52 535.789C1024.78 536.526 1025.78 537.123 1026.49 537.557C1026.85 537.774 1027.12 537.948 1027.32 538.078C1027.42 538.143 1027.5 538.195 1027.56 538.234C1027.62 538.28 1027.63 538.291 1027.62 538.278L1028.01 538.68L1028.35 538.259C1028.35 538.255 1028.36 538.249 1028.37 538.241C1028.4 538.216 1028.45 538.181 1028.51 538.135C1028.64 538.043 1028.83 537.919 1029.07 537.764C1029.56 537.454 1030.25 537.028 1031.12 536.498C1032.88 535.438 1035.36 533.967 1038.42 532.181C1044.52 528.609 1052.89 523.779 1062.14 518.462C1080.35 508.005 1102 495.664 1116.73 487.297L1117.45 589.915Z" fill="#382193" stroke="#382193"/>
<g clip-path="url(#clip2_4584_19380)">
<g clip-path="url(#clip3_4584_19380)">
<path d="M284.345 520.472C284.436 519.109 285.577 517.534 287.647 517.534C289.929 517.534 290.889 518.989 290.949 520.472H284.345ZM287.587 514.262C283.804 514.262 280.32 517.353 280.32 522.109C280.32 527.139 283.894 530.076 287.947 530.076C291.58 530.076 293.921 527.926 294.672 525.351L291.34 524.352C290.859 525.685 289.839 526.624 287.977 526.624C285.996 526.624 284.345 525.199 284.255 523.23H294.823L294.883 521.988C294.883 517.201 292.15 514.262 287.587 514.262Z" fill="white"/>
<mask id="mask0_4584_19380" style="mask-type:luminance" maskUnits="userSpaceOnUse" x="103" y="494" width="107" height="62">
<path d="M103 494H209.144V555.91H103V494Z" fill="white"/>
</mask>
<g mask="url(#mask0_4584_19380)">
<path d="M197.752 547.324C197.79 544.48 199.825 542.347 202.516 542.347C205.435 542.347 207.257 544.251 207.288 547.324H197.752ZM209.117 548.636L209.139 547.743C209.139 543.523 206.526 540.794 202.484 540.794C199.197 540.794 195.795 543.603 195.795 548.305C195.795 553.531 199.457 555.91 202.861 555.91C205.649 555.91 207.917 554.464 208.926 552.042L208.96 551.961L207.418 551.423L207.39 551.49C206.569 553.364 205.005 554.355 202.863 554.355C199.792 554.355 197.719 552.09 197.686 548.71H209.114L209.119 548.633L209.117 548.636ZM124.484 494L102.965 531.768V540.038L129.196 494H124.484Z" fill="white"/>
</g>
<path d="M186.043 526.395V520.612H187.911C189.494 520.612 190.158 520.739 190.823 521.122C191.614 521.601 192.026 522.401 192.026 523.549C192.026 524.57 191.678 525.338 190.98 525.817C190.348 526.265 189.651 526.393 188.164 526.393L186.043 526.395ZM186.043 511.638H187.563C188.798 511.638 189.683 511.765 190.286 512.053C191.045 512.437 191.551 513.363 191.551 514.448C191.551 516.429 190.348 517.355 187.784 517.355H186.043V511.638ZM194.212 528.601C195.572 527.673 196.396 525.918 196.396 523.938C196.396 522.309 195.857 520.999 194.876 520.104C194.212 519.497 193.641 519.242 192.374 518.954C193.514 518.571 193.988 518.284 194.591 517.677C195.478 516.719 195.92 515.504 195.92 514.036C195.92 512.151 195.191 510.522 193.894 509.533C192.786 508.703 191.109 508.318 188.513 508.318H181.707V529.622H189.495C191.807 529.622 193.104 529.335 194.212 528.601ZM304.748 514.321C303.861 514.321 303.007 514.577 302.373 515.023C301.772 515.469 301.485 515.918 301.074 517.004V514.831H297.053V529.621H301.074V522.497C301.074 521.091 301.202 520.454 301.675 519.784C302.246 518.953 303.258 518.442 304.368 518.442L305.221 518.506V514.355C305 514.322 304.842 514.322 304.746 514.322M252.842 543.386V541.059H251.127V555.661H252.842V548.047C252.842 545.987 253.203 544.859 254.221 543.738C254.963 542.931 255.875 542.54 257.088 542.508H257.696V540.809H256.994C255.904 540.809 254.805 541.168 254.051 541.77C253.518 542.218 253.216 542.612 252.842 543.386Z" fill="white"/>
<path d="M261.199 520.837C261.199 518.793 261.989 517.738 263.508 517.738C264.964 517.738 265.725 518.793 265.725 520.837V529.622H269.747V520.71C269.747 518.825 270.602 517.738 272.09 517.738C273.609 517.738 274.336 518.697 274.336 520.71V529.622H278.356V519.944C278.356 517.709 278.071 516.686 277.184 515.696C276.361 514.802 275.126 514.322 273.638 514.322C271.549 514.322 270.187 515.09 269.205 516.783C268.509 515.185 267.116 514.322 265.217 514.322C263.349 514.322 262.114 515.058 261.197 516.685V514.831H257.176V529.62H261.197V520.835" fill="white"/>
<mask id="mask1_4584_19380" style="mask-type:luminance" maskUnits="userSpaceOnUse" x="103" y="494" width="153" height="88">
<path d="M103 494H255.208V581.528H103V494Z" fill="white"/>
</mask>
<g mask="url(#mask1_4584_19380)">
<path d="M247.97 517.533C250.252 517.533 251.213 518.987 251.272 520.471H244.668C244.759 519.107 245.898 517.533 247.97 517.533ZM248.269 530.075C251.902 530.075 254.243 527.925 254.994 525.35L251.662 524.351C251.181 525.683 250.161 526.623 248.299 526.623C246.317 526.623 244.666 525.198 244.577 523.229H255.146L255.205 521.986C255.205 517.2 252.472 514.261 247.909 514.261C244.126 514.261 240.644 517.352 240.644 522.108C240.644 527.138 244.216 530.075 248.269 530.075ZM148.328 494L102.965 573.282V581.526L148.328 502.244L157.887 518.951L122.128 581.525H126.844L148.335 543.916L157.887 560.61L145.962 581.525H150.675L162.603 560.607L150.692 539.792L162.603 518.951L148.328 494Z" fill="white"/>
</g>
<path d="M220.192 527.129C219.021 527.129 218.451 526.555 218.261 525.277H214.398C214.556 528.344 216.676 530.131 220.159 530.131C223.576 530.131 225.857 528.215 225.857 525.34C225.857 522.945 224.559 521.635 221.267 520.612C219.24 519.974 219.208 519.974 218.765 519.622C218.512 519.43 218.353 519.047 218.353 518.663C218.353 517.865 218.986 517.323 219.967 517.323C221.043 517.323 221.836 517.961 221.836 518.856V519.112H225.635C225.539 516.109 223.514 514.321 220.157 514.321C216.74 514.321 214.491 516.206 214.491 519.016C214.491 521.349 215.915 522.784 219.081 523.744C221.233 524.414 221.804 524.831 221.804 525.725C221.804 526.555 221.141 527.129 220.192 527.129ZM233.453 527.131C232.282 527.131 231.713 526.556 231.522 525.279H227.66C227.817 528.345 229.938 530.133 233.42 530.133C236.838 530.133 239.119 528.216 239.119 525.342C239.119 522.947 237.82 521.636 234.528 520.613C232.502 519.976 232.47 519.976 232.026 519.623C231.774 519.431 231.615 519.048 231.615 518.665C231.615 517.866 232.247 517.325 233.228 517.325C234.304 517.325 235.096 517.963 235.096 518.858V519.114H238.895C238.801 516.11 236.774 514.323 233.417 514.323C230 514.323 227.751 516.207 227.751 519.017C227.751 521.351 229.175 522.786 232.341 523.746C234.493 524.416 235.064 524.833 235.064 525.726C235.064 526.556 234.4 527.131 233.451 527.131M265.588 567.637C265.055 568.085 264.753 568.479 264.38 569.253V566.928H262.667V581.53H264.38V573.915C264.38 571.855 264.742 570.727 265.76 569.607C266.501 568.798 267.412 568.407 268.626 568.376H269.235V566.678H268.533C267.443 566.678 266.342 567.036 265.588 567.637ZM233.391 555.558V554.155L233.335 554.063L233.23 554.099C232.655 554.3 232.051 554.401 231.444 554.399C230.115 554.399 229.412 553.555 229.412 551.959V542.564H233.198V541.058H229.412V537.555H227.7V541.058H225.571V542.562H227.7V552.067C227.7 554.503 229.035 555.9 231.36 555.9C232.299 555.9 232.871 555.742 233.338 555.577L233.39 555.556M229.198 579.964C228.624 580.164 228.021 580.266 227.414 580.264C226.085 580.264 225.382 579.42 225.382 577.823V568.427H229.168V566.925H225.382V563.417H223.67V566.921H221.541V568.423H223.67V577.928C223.67 580.364 225.005 581.761 227.332 581.761C228.005 581.775 228.674 581.666 229.308 581.438L229.36 581.419V580.016L229.302 579.923L229.197 579.959M239.065 566.672C238.126 566.658 237.195 566.855 236.34 567.248C235.485 567.642 234.726 568.222 234.118 568.947V566.921H232.403V581.522H234.118V572.59C234.118 571.22 234.392 570.493 235.247 569.599C236.068 568.741 236.936 568.207 238.716 568.207L238.991 568.211C240.67 568.262 242.461 569.304 242.452 572.085V581.521H244.168V572.038C244.206 570.432 243.758 569.134 242.837 568.183C241.915 567.232 240.508 566.669 239.064 566.669M247.982 541.052H246.274V549.937C246.274 551.425 246.037 552.243 245.403 552.955C244.67 553.766 243.414 554.289 242.204 554.289C239.77 554.289 238.136 552.541 238.136 549.939L238.138 541.054H236.426V549.939C236.426 553.51 238.762 555.909 242.24 555.909C243.853 555.909 245.367 555.302 246.497 554.199C247.595 553.16 247.982 552.045 247.982 549.939V541.054M221.843 555.654H223.558V546.17C223.595 544.564 223.147 543.266 222.227 542.315C221.307 541.364 219.9 540.801 218.454 540.801C216.493 540.801 214.785 541.586 213.507 543.077V541.051H211.794V555.653H213.507V546.72C213.507 545.351 213.782 544.624 214.637 543.73C215.457 542.871 216.324 542.338 218.105 542.338L218.381 542.343C220.059 542.394 221.852 543.436 221.843 546.217V555.654ZM248.635 573.186C248.672 570.342 250.707 568.209 253.397 568.209C256.316 568.209 258.139 570.114 258.169 573.186H248.635ZM253.365 566.657C250.078 566.657 246.676 569.466 246.676 574.168C246.676 579.394 250.338 581.773 253.741 581.773C256.528 581.773 258.796 580.327 259.807 577.905L259.841 577.826L258.298 577.287L258.268 577.354C257.447 579.228 255.883 580.219 253.741 580.219C250.67 580.219 248.597 577.954 248.564 574.575H259.992L259.997 574.499L260.018 573.606C260.018 569.386 257.407 566.657 253.365 566.657ZM189.017 555.659L196.568 534.737L194.682 534.681L188.252 552.67L182.075 534.738L180.129 534.709L187.478 555.659H189.017ZM192.317 569.542C191.783 570.316 191.007 570.884 190.114 571.156C189.375 571.424 188.546 571.532 187.247 571.532L184.065 571.511V562.188H186.658C188.159 562.188 189.053 562.282 189.958 562.533C191.92 563.098 193.139 564.75 193.139 566.842C193.148 567.806 192.86 568.748 192.317 569.539V569.542ZM192.814 562.113C191.559 561.099 189.759 560.608 187.312 560.608L182.311 560.586L182.29 581.528H184.066L184.088 573.115H187.592C189.961 573.115 191.456 572.73 192.596 571.83C194.037 570.716 194.865 568.888 194.865 566.815C194.865 564.868 194.136 563.199 192.814 562.113ZM265.29 542.349C268.208 542.349 270.031 544.253 270.063 547.326H260.528C260.566 544.482 262.601 542.349 265.29 542.349ZM271.734 551.965L270.191 551.426L270.161 551.494C269.341 553.368 267.776 554.358 265.634 554.358C262.563 554.358 260.491 552.093 260.457 548.714H271.886L271.89 548.636L271.912 547.744C271.912 543.523 269.299 540.795 265.257 540.795C261.97 540.795 258.568 543.604 258.568 548.306C258.568 553.532 262.23 555.91 265.633 555.91C268.421 555.91 270.687 554.465 271.699 552.042L271.733 551.962L271.734 551.963V551.965ZM215.792 567.635C215.258 568.082 214.957 568.476 214.585 569.25V566.925H212.872V581.527H214.586V573.912C214.586 571.851 214.947 570.723 215.966 569.604C216.708 568.795 217.619 568.404 218.833 568.373H219.441V566.675H218.739C217.648 566.675 216.548 567.033 215.797 567.635M276.284 573.301C273.67 572.648 272.955 572.07 272.955 570.616C272.955 569.175 274.129 568.28 276.017 568.28C278.003 568.28 279.143 569.2 279.143 570.805V570.885H280.924L280.919 570.802C280.792 568.218 278.972 566.676 276.047 566.676C273.18 566.676 271.177 568.337 271.177 570.711C271.177 571.757 271.652 572.827 272.416 573.501C273.151 574.18 274.055 574.584 275.748 574.996C278.312 575.611 279.265 576.364 279.265 577.774C279.265 579.23 278.01 580.206 276.141 580.206C274.052 580.206 272.732 579.166 272.611 577.425L272.605 577.349H270.854L270.865 577.438C271.177 580.318 272.932 581.778 276.076 581.778C279.044 581.778 281.039 580.169 281.039 577.773C281.026 576.73 280.617 575.732 279.898 574.986C279.164 574.215 278.218 573.773 276.281 573.301M205.469 517.532C207.75 517.532 208.712 518.987 208.771 520.47H202.165C202.255 519.107 203.397 517.532 205.469 517.532ZM209.161 524.35C208.68 525.683 207.659 526.622 205.798 526.622C203.816 526.622 202.165 525.197 202.076 523.228H212.643L212.704 521.986C212.704 517.199 209.971 514.26 205.408 514.26C201.625 514.26 198.143 517.351 198.143 522.107C198.143 527.137 201.716 530.074 205.769 530.074C209.402 530.074 211.743 527.924 212.495 525.349L209.161 524.35ZM202.459 580.143C199.649 580.143 197.529 577.64 197.529 574.322C197.529 572.777 197.988 571.249 198.79 570.13C199.703 568.872 200.862 568.31 202.552 568.31C205.668 568.31 207.761 570.6 207.761 574.006C207.761 577.39 205.382 580.143 202.459 580.143ZM207.729 569.425C206.376 567.575 204.637 566.676 202.427 566.676C198.496 566.676 195.752 569.782 195.752 574.227C195.752 578.604 198.573 581.78 202.46 581.78C204.632 581.78 206.314 580.744 207.731 578.525V581.528H209.445V566.926H207.731L207.729 569.425Z" fill="white"/>
</g>
<g clip-path="url(#clip4_4584_19380)">
<path d="M426.503 530.691V544.748H436.28V541.576H430.27V530.691H426.503ZM470.903 530.691H465.195V544.748H468.975V540.71H470.915C474.506 540.71 476.497 538.604 476.497 535.694C476.497 532.785 474.494 530.691 470.903 530.691ZM470.714 537.575H468.962V533.876H470.714C470.971 533.855 471.229 533.887 471.473 533.971C471.717 534.054 471.941 534.187 472.13 534.361C472.32 534.534 472.471 534.746 472.575 534.98C472.678 535.215 472.732 535.469 472.732 535.726C472.732 535.982 472.678 536.236 472.575 536.471C472.471 536.706 472.32 536.917 472.13 537.091C471.941 537.265 471.717 537.398 471.473 537.481C471.229 537.564 470.971 537.596 470.714 537.575ZM494.703 536.246L492.825 535.632C492.145 535.406 491.83 535.13 491.83 534.591C491.83 534.052 492.296 533.625 493.203 533.625C493.66 533.61 494.115 533.692 494.537 533.867C494.959 534.043 495.338 534.307 495.648 534.641L497.815 532.384C497.207 531.748 496.467 531.252 495.646 530.932C494.826 530.611 493.945 530.473 493.065 530.528C490.545 530.528 488.239 531.945 488.239 534.716C488.239 537.036 489.701 538.278 491.754 538.955L493.418 539.519C494.35 539.82 494.803 540.108 494.803 540.773C494.803 541.563 494.136 541.889 493.014 541.889C492.435 541.892 491.864 541.754 491.35 541.487C490.836 541.221 490.396 540.833 490.066 540.359L487.269 542.34C487.957 543.203 488.842 543.889 489.85 544.343C490.858 544.796 491.96 545.004 493.065 544.949C496.845 544.949 498.432 543.093 498.432 540.51C498.482 538.528 497.525 537.174 494.703 536.246ZM520.783 533.851V530.691H510.59V544.748H520.783V541.576H514.37V539.168H519.473V536.171H514.37V533.851H520.783ZM379.672 544.748H389.865V541.576H383.452V539.168H388.554V536.171H383.452V533.851H389.865V530.691H379.672V544.748ZM414.294 541.889L411.535 539.945C411.061 540.617 410.384 541.121 409.603 541.384C408.822 541.647 407.977 541.656 407.19 541.409C406.404 541.161 405.717 540.671 405.229 540.009C404.742 539.346 404.479 538.547 404.479 537.726C404.479 536.905 404.742 536.105 405.229 535.443C405.717 534.781 406.404 534.291 407.19 534.043C407.977 533.796 408.822 533.804 409.603 534.067C410.384 534.33 411.061 534.835 411.535 535.506L414.294 533.563C413.407 532.313 412.142 531.377 410.684 530.89C409.226 530.403 407.651 530.391 406.185 530.854C404.719 531.318 403.44 532.234 402.532 533.469C401.624 534.704 401.135 536.195 401.135 537.726C401.135 539.256 401.624 540.747 402.532 541.983C403.44 543.218 404.719 544.134 406.185 544.597C407.651 545.061 409.226 545.049 410.684 544.562C412.142 544.075 413.407 543.139 414.294 541.889ZM447.178 526.929H450.958C448.544 517.507 443.044 509.155 435.327 503.191C427.61 497.228 418.117 493.994 408.348 494H406.47C415.91 494.405 424.968 497.827 432.3 503.759C439.633 509.69 444.85 517.815 447.178 526.929ZM447.96 530.691C448.335 533.013 448.524 535.361 448.527 537.713C448.522 540.069 448.333 542.422 447.96 544.748H451.739C452.495 540.092 452.495 535.346 451.739 530.691H447.96ZM406.47 581.389H408.348C418.106 581.389 427.586 578.156 435.295 572.201C443.003 566.246 448.5 557.906 450.92 548.497H447.141C444.813 557.602 439.6 565.717 432.274 571.642C424.949 577.566 415.901 580.984 406.47 581.389Z" fill="white"/>
</g>
<g clip-path="url(#clip5_4584_19380)">
<path d="M736.974 552.12V549.478H736.317C734.345 549.478 733.739 549.224 733.285 548.716C732.829 548.308 732.526 547.647 732.526 545.969V532.37C732.526 530.795 732.779 530.387 733.081 530.083C733.436 529.727 733.72 529.472 735.286 529.472C737.081 529.472 737.978 530.265 738.839 532.094L747.938 551.154L746.472 555.171C745.966 556.543 745.209 557.61 743.742 557.61C742.48 557.61 741.822 556.847 741.316 555.78C740.912 555.018 740.254 554.052 738.94 554.052C737.374 554.052 736.312 555.321 736.312 556.796C736.312 559.338 738.536 561.777 742.125 561.777C744.753 561.777 746.371 560.71 747.585 558.932C748.241 558.066 748.697 556.949 749.151 555.78L757.693 532.398C758.502 530.263 759.816 529.35 761.736 529.248V526.705H752.285V529.247H752.538C754.003 529.247 754.913 530.162 754.913 531.382C754.913 531.94 754.762 532.602 754.407 533.517L750.515 543.834L745.512 533.363C745.056 532.448 744.905 531.788 744.905 531.228C744.905 530.111 745.613 529.247 747.028 529.247H747.331V526.705H732.526C732.274 524.824 732.274 523.401 732.274 522.435C732.274 520.809 732.476 519.538 732.879 518.624C733.335 517.607 734.143 516.793 735.407 516.793C737.01 516.793 737.634 518.04 738.234 519.242C738.43 519.63 738.621 520.015 738.844 520.351C739.349 521.012 740.006 521.725 741.32 521.725C742.533 521.725 743.899 520.809 743.899 519.03C743.899 517.201 741.827 513.998 736.569 513.998C732.577 513.998 729.646 515.829 728.18 518.573C727.269 520.3 726.966 522.231 726.966 525.281V526.705H721.56V529.754H724.087C725.653 529.754 726.059 530.008 726.412 530.365C726.715 530.67 726.967 531.076 726.967 532.652V545.969C726.967 547.646 726.664 548.307 726.21 548.713C725.754 549.221 725.148 549.475 723.429 549.475H722.657C720.939 549.475 720.333 549.221 719.877 548.713C719.423 548.307 719.12 547.646 719.12 545.969V526.705H709.618V529.348H710.022C711.739 529.348 712.347 529.602 712.801 530.11C713.257 530.517 713.558 531.177 713.558 532.855V545.969C713.558 547.646 713.257 548.307 712.801 548.713C712.347 549.221 711.739 549.475 710.022 549.475H709.255C707.587 549.475 706.981 549.221 706.475 548.713C706.071 548.307 705.768 547.646 705.768 545.969V516.542H696.215V519.185H696.669C698.387 519.185 698.994 519.439 699.449 519.946C699.904 520.352 700.206 521.014 700.206 522.691V545.97C700.206 547.647 699.904 548.308 699.449 548.715C698.994 549.222 698.387 549.476 696.669 549.476H696.215V552.119L736.974 552.12Z" fill="white"/>
<path d="M716.19 514.602C713.809 514.602 711.902 516.578 711.902 518.973C711.9 519.54 712.009 520.102 712.224 520.626C712.439 521.15 712.754 521.627 713.153 522.028C713.552 522.428 714.025 522.746 714.547 522.962C715.068 523.178 715.627 523.288 716.19 523.285C718.631 523.285 720.538 521.368 720.538 518.973C720.539 518.399 720.428 517.83 720.21 517.298C719.992 516.767 719.672 516.285 719.268 515.878C718.864 515.472 718.384 515.15 717.856 514.931C717.328 514.712 716.762 514.6 716.19 514.602Z" fill="white"/>
<path fill-rule="evenodd" clip-rule="evenodd" d="M669.48 561.269V558.626H669.935C671.654 558.626 672.26 558.372 672.716 557.863C673.17 557.455 673.473 556.795 673.473 555.117V532.856C673.473 531.178 673.17 530.518 672.716 530.11C672.26 529.602 671.654 529.349 669.935 529.349H669.48V526.704H678.579V531.381C680.045 528.178 683.177 526.195 686.919 526.195C693.541 526.195 697.634 531.838 697.634 539.055C697.634 546.983 693.338 552.627 685.857 552.627C683.381 552.627 680.854 552.015 679.033 550.695V555.116C679.033 556.794 679.336 557.454 679.742 557.862C680.246 558.369 680.854 558.623 682.774 558.623H683.482V561.266L669.48 561.269ZM680.904 547.545C681.914 548.967 683.33 549.933 685.403 549.933C689.85 549.933 691.315 545.714 691.315 540.936C691.315 534.533 688.94 530.262 684.947 530.262C683.076 530.262 681.51 531.025 680.398 532.601C679.437 534.076 678.882 536.211 678.882 538.904V539.412C678.882 542.207 679.387 545.409 680.904 547.545Z" fill="white"/>
<path fill-rule="evenodd" clip-rule="evenodd" d="M595.227 552.12V549.376C597.956 549.376 599.523 547.85 600.787 544.191L610.542 516.287H612.817L624.594 545.715C625.624 548.236 626.747 549.373 628.773 549.373C629.532 549.373 630.129 549.036 630.415 548.715C630.87 548.309 631.173 547.647 631.173 545.971V532.857C631.173 531.179 630.87 530.519 630.415 530.111C629.961 529.604 629.354 529.35 627.636 529.35H627.231V526.706H636.329V531.433C637.593 528.536 640.221 526.197 644.213 526.197C646.488 526.197 648.561 526.909 650.078 528.484C650.734 529.245 651.291 530.111 651.644 531.433C653.009 528.536 655.788 526.197 659.934 526.197C662.007 526.197 664.128 526.858 665.646 528.433C667.01 529.907 667.717 531.991 667.717 535.295V546.071C667.717 547.443 667.868 548.153 668.425 548.713C669.032 549.324 669.84 549.475 670.952 549.475H671.356V552.117H659.074V549.475C660.44 549.475 661.046 549.221 661.551 548.764C661.956 548.307 662.259 547.646 662.259 545.969V536.21C662.259 533.719 661.803 532.6 661.096 531.839C660.287 530.974 659.175 530.517 657.861 530.517C656.243 530.517 654.728 531.33 653.717 532.549C652.706 533.871 652.2 535.6 652.2 539.056V545.969C652.2 547.646 652.452 548.307 652.908 548.764C653.364 549.221 654.02 549.476 655.385 549.476V552.119H643.506V549.476C644.872 549.476 645.529 549.222 645.983 548.764C646.437 548.306 646.691 547.646 646.691 545.969V536.21C646.691 533.719 646.235 532.6 645.578 531.839C644.77 530.974 643.607 530.517 642.293 530.517C640.675 530.517 639.161 531.33 638.198 532.549C637.189 533.871 636.684 535.6 636.684 539.056V545.969C636.684 547.646 636.936 548.307 637.391 548.764C637.845 549.221 638.503 549.476 639.867 549.476V552.119H614.938V549.375C616.86 549.375 618.274 548.663 618.274 546.884C618.274 546.377 618.123 545.612 617.669 544.394L616.809 542.208H604.527L604.224 543.174C603.869 544.139 603.465 545.511 603.465 546.527C603.465 548.51 604.628 549.375 606.65 549.375V552.119L595.227 552.12ZM605.486 539.567H615.747L610.289 525.792L605.486 539.567Z" fill="white"/>
</g>
</g>
<path d="M116.4 283H103.8V211.2H151.7V222.4H116.4V241.9H146V253.1H116.4V283ZM202.334 256.8C202.334 273.1 191.834 284.1 177.034 284.1C162.234 284.1 151.734 273.1 151.734 256.8C151.734 240.5 162.234 229.5 177.034 229.5C191.834 229.5 202.334 240.5 202.334 256.8ZM163.834 256.8C163.834 267.5 168.934 274 177.034 274C185.134 274 190.234 267.5 190.234 256.8C190.234 246.1 185.134 239.6 177.034 239.6C168.934 239.6 163.834 246.1 163.834 256.8ZM239.048 283L226.648 264.8L214.348 283H201.348L219.848 255.8L202.648 230.5H216.248L227.048 246.9L238.048 230.5H251.148L233.948 255.8L252.548 283H239.048ZM303.543 277.7C303.543 293.2 292.943 302.1 277.943 302.1C265.843 302.1 257.343 297 254.043 286.8L265.243 282.8C266.843 288.7 271.343 292.4 277.943 292.4C286.043 292.4 291.543 288.4 291.543 278.8V275.1C288.743 278.8 283.443 281.7 276.743 281.7C262.343 281.7 253.743 270 253.743 255.6C253.743 241.2 262.343 229.5 276.743 229.5C283.343 229.5 288.743 232.4 291.543 236.1V230.5H303.543V277.7ZM291.743 255.1C291.743 245.5 286.543 240 279.043 240C270.743 240 265.843 245.8 265.843 255.6C265.843 265.3 270.743 271.2 279.043 271.2C286.543 271.2 291.743 265.7 291.743 256.3V255.1ZM325.218 211.2V283H313.218V211.2H325.218ZM382.127 256.8C382.127 273.1 371.627 284.1 356.827 284.1C342.027 284.1 331.527 273.1 331.527 256.8C331.527 240.5 342.027 229.5 356.827 229.5C371.627 229.5 382.127 240.5 382.127 256.8ZM343.627 256.8C343.627 267.5 348.727 274 356.827 274C364.927 274 370.027 267.5 370.027 256.8C370.027 246.1 364.927 239.6 356.827 239.6C348.727 239.6 343.627 246.1 343.627 256.8ZM414.398 283H402.298L383.098 230.5H395.698L408.498 268.6L421.198 230.5H433.598L414.398 283ZM460.008 284.1C445.008 284.1 434.508 273 434.508 256.8C434.508 241.4 444.908 229.5 459.508 229.5C474.708 229.5 482.808 241 482.808 255.4V259.4H446.008C446.908 268.4 452.308 273.9 460.008 273.9C465.908 273.9 470.608 270.9 472.208 265.5L482.508 269.4C478.808 278.6 470.508 284.1 460.008 284.1ZM459.408 239.6C453.208 239.6 448.408 243.3 446.608 250.4H470.708C470.608 244.6 467.008 239.6 459.408 239.6ZM536.217 230.4V242.4C534.717 242.2 533.517 242.1 531.817 242.1C524.217 242.1 518.417 247 518.417 255.4V283H506.417V230.5H518.417V238.3C520.717 233.4 526.117 230.2 532.817 230.2C534.217 230.2 535.317 230.3 536.217 230.4ZM555.938 283.9C545.938 283.9 538.238 277.8 538.238 268.4C538.238 258.4 545.738 254 555.838 251.9L570.338 248.9V248C570.338 243 567.738 239.9 561.338 239.9C555.638 239.9 552.638 242.5 551.238 247.6L539.938 245C542.538 236.3 550.238 229.5 561.838 229.5C574.438 229.5 582.038 235.5 582.038 247.6V270.2C582.038 273.2 583.338 274.1 586.638 273.7V283C577.938 284 573.338 282.3 571.538 278C568.238 281.7 562.738 283.9 555.938 283.9ZM570.338 264.5V258.1L559.038 260.5C553.938 261.6 550.138 263.2 550.138 267.9C550.138 272 553.138 274.3 557.738 274.3C564.138 274.3 570.338 270.9 570.338 264.5ZM593.963 223.5V211.2H606.363V223.5H593.963ZM606.163 230.5V283H594.163V230.5H606.163ZM612.273 273L621.273 265.8C624.373 270.9 630.373 274.3 636.473 274.3C641.573 274.3 646.273 272.5 646.273 267.8C646.273 263.3 641.873 262.8 633.573 261.1C625.273 259.4 615.773 257.3 615.773 246.1C615.773 236.5 624.173 229.5 636.273 229.5C645.473 229.5 653.673 233.6 657.473 239.4L649.373 246.7C646.373 242 641.373 239.3 635.573 239.3C630.673 239.3 627.473 241.5 627.473 245C627.473 248.8 631.273 249.5 637.873 250.9C646.773 252.8 657.973 254.7 657.973 266.7C657.973 277.3 648.273 284.1 636.373 284.1C626.673 284.1 616.973 280.2 612.273 273ZM688.387 284.1C673.387 284.1 662.887 273 662.887 256.8C662.887 241.4 673.287 229.5 687.887 229.5C703.087 229.5 711.187 241 711.187 255.4V259.4H674.387C675.287 268.4 680.687 273.9 688.387 273.9C694.287 273.9 698.987 270.9 700.587 265.5L710.887 269.4C707.187 278.6 698.887 284.1 688.387 284.1ZM687.787 239.6C681.587 239.6 676.787 243.3 674.987 250.4H699.087C698.987 244.6 695.387 239.6 687.787 239.6ZM713.691 273L722.691 265.8C725.791 270.9 731.791 274.3 737.891 274.3C742.991 274.3 747.691 272.5 747.691 267.8C747.691 263.3 743.291 262.8 734.991 261.1C726.691 259.4 717.191 257.3 717.191 246.1C717.191 236.5 725.591 229.5 737.691 229.5C746.891 229.5 755.091 233.6 758.891 239.4L750.791 246.7C747.791 242 742.791 239.3 736.991 239.3C732.091 239.3 728.891 241.5 728.891 245C728.891 248.8 732.691 249.5 739.291 250.9C748.191 252.8 759.391 254.7 759.391 266.7C759.391 277.3 749.691 284.1 737.791 284.1C728.091 284.1 718.391 280.2 713.691 273ZM97 389.3L106.4 381.3C110.5 388.2 115.7 392 122.6 393.1V371.1C111.7 369 100.6 365.7 100.6 351.6C100.6 339.7 110 331.8 122.6 330.4V320.8H132.1V330.4C142.2 331.7 150.5 336.5 154.4 343.3L145.7 351.5C142.5 346 137.9 342.3 132.1 341V361.4C143.1 363.5 154.6 366.8 154.6 381.6C154.6 394 144.8 402.1 132.1 403.8V413.6H122.6V403.9C111.3 402.7 101.9 397.4 97 389.3ZM112.2 350.7C112.2 356 116.6 358.1 122.6 359.6V340.7C116.4 341.8 112.2 345.2 112.2 350.7ZM142.9 382.5C142.9 376.8 138.3 374.5 132.1 373V393C138.3 392 142.9 388.8 142.9 382.5ZM211.659 403H199.959V385.5H166.059V375.5L195.659 331.2H211.859V374.9H225.059V385.5H211.659V403ZM178.859 374.9H199.759V343.5L178.859 374.9ZM231.494 367.1C231.494 345.2 241.894 330.1 259.694 330.1C277.494 330.1 287.894 345.2 287.894 367.1C287.894 389 277.494 404.1 259.694 404.1C241.894 404.1 231.494 389 231.494 367.1ZM244.294 367.1C244.294 382.2 249.094 393 259.694 393C270.294 393 275.094 382.2 275.094 367.1C275.094 352 270.294 341.2 259.694 341.2C249.094 341.2 244.294 352 244.294 367.1ZM341.177 403H330.777L311.977 347.5V403H300.077V331.2H317.677L336.177 386.2L354.677 331.2H371.877V403H359.977V347.5L341.177 403ZM399.734 389L409.534 380.9C414.534 388.7 422.034 393.2 430.234 393.2C438.334 393.2 444.434 389.5 444.434 382.6C444.434 375.3 436.934 374.3 426.234 371.7C415.434 369.1 403.834 365.9 403.834 351.9C403.834 338.6 415.234 330.1 429.734 330.1C442.034 330.1 451.634 335.9 456.434 343.4L447.034 351.5C443.034 345.3 437.734 341 429.334 341C421.634 341 416.334 344.9 416.334 350.6C416.334 356.9 421.834 358.2 431.534 360.4C443.134 363 457.034 365.7 457.034 381.3C457.034 395.4 444.634 404.1 429.834 404.1C417.534 404.1 405.334 398.2 399.734 389ZM488.695 404.1C473.695 404.1 463.195 393 463.195 376.8C463.195 361.4 473.595 349.5 488.195 349.5C503.395 349.5 511.495 361 511.495 375.4V379.4H474.695C475.595 388.4 480.995 393.9 488.695 393.9C494.595 393.9 499.295 390.9 500.895 385.5L511.195 389.4C507.495 398.6 499.195 404.1 488.695 404.1ZM488.095 359.6C481.895 359.6 477.095 363.3 475.295 370.4H499.395C499.295 364.6 495.695 359.6 488.095 359.6ZM550.299 350.4V362.4C548.799 362.2 547.599 362.1 545.899 362.1C538.299 362.1 532.499 367 532.499 375.4V403H520.499V350.5H532.499V358.3C534.799 353.4 540.199 350.2 546.899 350.2C548.299 350.2 549.399 350.3 550.299 350.4ZM558.385 343.5V331.2H570.785V343.5H558.385ZM570.585 350.5V403H558.585V350.5H570.585ZM605.395 404.1C590.395 404.1 579.895 393 579.895 376.8C579.895 361.4 590.295 349.5 604.895 349.5C620.095 349.5 628.195 361 628.195 375.4V379.4H591.395C592.295 388.4 597.695 393.9 605.395 393.9C611.295 393.9 615.995 390.9 617.595 385.5L627.895 389.4C624.195 398.6 615.895 404.1 605.395 404.1ZM604.795 359.6C598.595 359.6 593.795 363.3 591.995 370.4H616.095C615.995 364.6 612.395 359.6 604.795 359.6ZM631.698 393L640.698 385.8C643.798 390.9 649.798 394.3 655.898 394.3C660.998 394.3 665.698 392.5 665.698 387.8C665.698 383.3 661.298 382.8 652.998 381.1C644.698 379.4 635.198 377.3 635.198 366.1C635.198 356.5 643.598 349.5 655.698 349.5C664.898 349.5 673.098 353.6 676.898 359.4L668.798 366.7C665.798 362 660.798 359.3 654.998 359.3C650.098 359.3 646.898 361.5 646.898 365C646.898 368.8 650.698 369.5 657.298 370.9C666.198 372.8 677.398 374.7 677.398 386.7C677.398 397.3 667.698 404.1 655.798 404.1C646.098 404.1 636.398 400.2 631.698 393ZM706.718 403V331.2H735.218C750.618 331.2 758.818 337.9 758.818 350.1C758.818 359 753.618 363.6 748.618 365.6C756.118 368 761.118 374.2 761.118 383C761.118 395.6 751.818 403 737.018 403H706.718ZM719.018 360.9H734.018C742.218 360.9 746.718 357.7 746.718 351.4C746.718 345.1 742.218 342 734.018 342H719.018V360.9ZM719.018 371.7V392.2H736.318C744.418 392.2 748.818 388 748.818 381.9C748.818 375.9 744.418 371.7 736.318 371.7H719.018Z" fill="white"/>
<g clip-path="url(#clip6_4584_19380)">
<path d="M149.652 136.048H153.885C153.86 134.838 153.86 133.603 153.86 131.947V127.276H155.898C157.936 127.276 162.57 127.276 164.702 127.303V123.844H153.86V117.479H157.843C161.089 117.479 163.913 117.479 166.105 117.507V113.951H149.653C149.677 115.053 149.677 116.265 149.677 117.764V131.947C149.677 133.617 149.677 134.863 149.652 136.048Z" fill="white"/>
<path d="M179.4 113.504C171.04 113.504 168.492 116.068 168.492 124.488V125.511C168.492 133.931 171.04 136.495 179.4 136.495C187.761 136.495 190.308 133.931 190.308 125.511V124.488C190.308 116.068 187.761 113.504 179.4 113.504ZM185.999 125.128C185.999 131.23 184.641 132.808 179.4 132.808C174.159 132.808 172.802 131.23 172.802 125.128V124.871C172.802 118.867 174.223 117.222 179.4 117.222C184.641 117.222 185.999 118.798 185.999 124.871V125.128Z" fill="white"/>
<path d="M179.4 113.504C171.04 113.504 168.492 116.068 168.492 124.488V125.511C168.492 133.931 171.04 136.495 179.4 136.495C187.761 136.495 190.308 133.931 190.308 125.511V124.488C190.308 116.068 187.761 113.504 179.4 113.504ZM185.999 125.128C185.999 131.23 184.641 132.808 179.4 132.808C174.159 132.808 172.802 131.23 172.802 125.128V124.871C172.802 118.867 174.223 117.222 179.4 117.222C184.641 117.222 185.999 118.798 185.999 124.871V125.128Z" fill="white"/>
<path d="M208.493 136.048H213.686C211.911 133.656 209.397 130.058 206.021 125.082L205.902 124.906L206.019 124.728C208.454 121.045 211.206 116.908 213.345 113.951H208.369L205.401 118.67L204.86 119.619C204.189 120.797 203.495 122.016 202.789 123.179L202.511 123.638L202.245 123.172C201.656 122.137 201.049 121.108 200.462 120.114C200.16 119.602 199.861 119.096 199.569 118.597L196.576 113.951H191.395C193.776 117.35 197.241 122.635 198.67 124.826L198.784 125L198.67 125.174C196.606 128.324 193.624 132.753 191.246 136.048H196.192L199.159 131.329L199.666 130.47C200.423 129.183 201.206 127.853 201.962 126.596L202.232 126.149L203.138 127.649C203.904 128.919 204.696 130.233 205.496 131.488L208.493 136.048Z" fill="white"/>
<path d="M225.35 113.504C217.237 113.504 214.633 116.173 214.633 124.488V125.513C214.633 133.828 217.245 136.497 225.382 136.497C233.816 136.497 235.876 134.724 235.876 127.466C235.876 126.742 235.876 125.686 235.899 124.709H224.103V127.789H231.852V128.138C231.865 129.746 231.715 130.981 230.939 131.768C229.999 132.719 228.225 132.905 225.478 132.905C220.287 132.905 218.944 131.306 218.944 125.128V124.872C218.944 118.868 220.355 117.224 225.509 117.224C230.279 117.224 231.633 118.01 231.72 120.996L235.845 120.912C235.834 118.344 235.339 116.697 234.255 115.597C232.809 114.13 230.146 113.504 225.35 113.504Z" fill="white"/>
<path d="M249.102 132.328H243.873V117.699C243.873 116.19 243.873 115.062 243.899 113.949H239.668C239.69 115.068 239.69 116.235 239.69 117.794V131.881C239.69 133.587 239.69 134.858 239.668 136.046H255.359V132.3C252.976 132.328 251.255 132.328 249.102 132.328Z" fill="white"/>
<path d="M249.102 132.328H243.873V117.699C243.873 116.19 243.873 115.062 243.899 113.949H239.668C239.69 115.068 239.69 116.235 239.69 117.794V131.881C239.69 133.587 239.69 134.858 239.668 136.046H255.359V132.3C252.976 132.328 251.255 132.328 249.102 132.328Z" fill="white"/>
<path d="M268.31 113.504C259.95 113.504 257.402 116.068 257.402 124.488V125.511C257.402 133.931 259.95 136.495 268.31 136.495C276.671 136.495 279.218 133.931 279.218 125.511V124.488C279.218 116.068 276.671 113.504 268.31 113.504ZM274.909 125.128C274.909 131.23 273.551 132.808 268.31 132.808C263.069 132.808 261.712 131.23 261.712 125.128V124.871C261.712 118.867 263.133 117.222 268.31 117.222C273.551 117.222 274.909 118.798 274.909 124.871V125.128Z" fill="white"/>
<path d="M288.209 136.048H295.377C297.017 131.283 301.526 118.676 303.278 113.951H298.828L295.455 124.203C294.384 127.545 293.571 130.13 292.97 132.103L292.902 132.328H290.969L290.9 132.105C290.668 131.35 290.414 130.535 290.148 129.683C289.624 128.003 289.03 126.099 288.476 124.259L285.168 113.951H280.496C282.261 118.727 286.614 131.232 288.209 136.048Z" fill="white"/>
<path d="M306.262 136.048H323.607V132.556C320.974 132.584 316.231 132.584 313.049 132.584H310.47V126.443H313.241C315.708 126.443 319.746 126.443 321.694 126.47V123.14H310.47V117.415H312.89C315.829 117.415 320.658 117.415 323.033 117.443V113.951H306.262C306.286 115.053 306.286 116.265 306.286 117.764V131.947C306.286 133.631 306.286 134.888 306.262 136.048Z" fill="white"/>
<path d="M141.628 117.667L135.396 114.054C135.219 113.952 135.002 113.952 134.825 114.054L126.36 118.963V109.148C126.36 108.943 126.251 108.754 126.075 108.652L119.842 105.039C119.652 104.929 119.415 105.066 119.415 105.287V118.96L110.949 114.054C110.773 113.952 110.555 113.952 110.379 114.054L104.147 117.667C103.956 117.777 103.956 118.053 104.147 118.163L115.941 125L104.147 131.837C103.956 131.947 103.956 132.223 104.147 132.333L110.379 135.946C110.555 136.048 110.773 136.048 110.949 135.946L119.415 131.039V140.855C119.415 141.059 119.523 141.249 119.7 141.351L125.932 144.961C126.122 145.071 126.36 144.934 126.36 144.713V131.039L134.825 135.946C135.002 136.048 135.219 136.048 135.396 135.946L141.628 132.333C141.818 132.223 141.818 131.947 141.628 131.837L129.831 125L141.628 118.163C141.818 118.053 141.818 117.777 141.628 117.667ZM126.83 127.288L122.886 129.573L118.944 127.288V122.715L122.886 120.429L126.83 122.715V127.288Z" fill="white"/>
</g>
</g>
<defs>
<clipPath id="clip0_4584_19380">
<rect width="1220" height="686" fill="white"/>
</clipPath>
<clipPath id="clip1_4584_19380">
<rect width="934.655" height="981.704" fill="white" transform="translate(560.875 47.4062)"/>
</clipPath>
<clipPath id="clip2_4584_19380">
<rect width="660" height="87.7778" fill="white" transform="translate(103 494)"/>
</clipPath>
<clipPath id="clip3_4584_19380">
<rect width="202.222" height="87.7778" fill="white" transform="translate(103 494)"/>
</clipPath>
<clipPath id="clip4_4584_19380">
<rect width="141.111" height="87.7778" fill="white" transform="translate(379.668 494)"/>
</clipPath>
<clipPath id="clip5_4584_19380">
<rect width="167.778" height="47.7778" fill="white" transform="translate(595.223 514)"/>
</clipPath>
<clipPath id="clip6_4584_19380">
<rect width="219.608" height="40" fill="white" transform="translate(104 105)"/>
</clipPath>
</defs>
</svg>
