<svg width="1080" height="612" viewBox="0 0 1080 612" fill="none" xmlns="http://www.w3.org/2000/svg">
<rect width="1080" height="612" fill="#382193"/>
<rect x="308" y="74" width="220" height="220" rx="41.25" fill="#5933F2"/>
<g clip-path="url(#clip0_1057_1206)">
<path d="M488.585 156.554L465.013 142.934C464.35 142.551 463.533 142.551 462.869 142.934L431.131 161.255V124.623C431.131 123.857 430.722 123.149 430.059 122.766L406.477 109.146C405.762 108.734 404.869 109.249 404.869 110.074V161.255L373.141 142.934C372.478 142.551 371.66 142.551 370.997 142.934L347.415 156.554C346.701 156.966 346.701 157.998 347.415 158.41L391.738 184.001L347.415 209.591C346.7 210.004 346.7 211.035 347.415 211.448L370.986 225.067C371.65 225.451 372.467 225.451 373.131 225.068L404.869 206.746V243.389C404.869 244.155 405.278 244.863 405.941 245.246L429.523 258.856C430.237 259.268 431.131 258.753 431.131 257.928V206.746L462.859 225.068C463.522 225.451 464.339 225.451 465.003 225.068L488.585 211.448C489.299 211.035 489.299 210.004 488.585 209.591L444.261 184.001L488.585 158.41C489.299 157.998 489.3 156.966 488.585 156.554ZM432.738 192.512L418 201.022L403.261 192.512V175.49L418 166.979L432.738 175.49V192.512Z" fill="white"/>
</g>
<rect x="552" y="74" width="220" height="220" rx="40" fill="#198038"/>
<g clip-path="url(#clip1_1057_1206)">
<path d="M605.75 155.875H624.5C629.678 155.875 633.875 151.678 633.875 146.5V127.75C633.875 122.572 629.678 118.375 624.5 118.375H605.75C600.572 118.375 596.375 122.572 596.375 127.75V146.5C596.375 151.678 600.572 155.875 605.75 155.875ZM605.75 127.75H624.5V146.5H605.75V127.75Z" fill="white"/>
<path d="M718.25 212.125H699.5C694.322 212.125 690.125 216.322 690.125 221.5V240.25C690.125 245.428 694.322 249.625 699.5 249.625H718.25C723.428 249.625 727.625 245.428 727.625 240.25V221.5C727.625 216.322 723.428 212.125 718.25 212.125ZM718.25 240.25H699.5V221.5H718.25V240.25Z" fill="white"/>
<path d="M687.378 167.997L680.75 174.625L708.875 202.75L737 174.625L730.372 167.997L713.562 184.806V141.812C713.562 136.635 709.365 132.438 704.188 132.438H643.25V141.812H704.188V184.806L687.378 167.997Z" fill="white"/>
<path d="M619.812 183.194L636.622 200.003L643.25 193.375L615.125 165.25L587 193.375L593.628 200.003L610.438 183.194V226.188C610.438 231.365 614.635 235.562 619.812 235.562H680.75V226.188H619.812V183.194Z" fill="white"/>
</g>
<rect x="552" y="318" width="220" height="220" rx="40" fill="#5933F2"/>
<g clip-path="url(#clip2_1057_1206)">
<path d="M713.562 488.938H647.938C642.781 488.938 638.562 484.719 638.562 479.562V460.812H647.938V479.562H713.562V413.938H694.812V404.562H713.562C718.719 404.562 722.938 408.781 722.938 413.938V479.562C722.938 484.719 718.719 488.938 713.562 488.938Z" fill="white"/>
<path d="M676.062 451.438H647.938C642.781 451.438 638.562 447.219 638.562 442.062V413.938C638.562 408.781 642.781 404.562 647.938 404.562H676.062C681.219 404.562 685.438 408.781 685.438 413.938V442.062C685.438 447.219 681.219 451.438 676.062 451.438ZM647.938 413.938V442.062H676.062V413.938H647.938Z" fill="white"/>
<path d="M610.438 367.062H676.062C681.219 367.062 685.438 371.281 685.438 376.438V395.188H676.062V376.438H610.438V442.062H629.188V451.438H610.438C605.281 451.438 601.062 447.219 601.062 442.062V376.438C601.062 371.281 605.281 367.062 610.438 367.062Z" fill="white"/>
</g>
<rect x="308" y="318" width="220" height="220" rx="40" fill="#5933F2"/>
<g clip-path="url(#clip3_1057_1206)">
<path d="M441.438 409.25V399.875H422.688V385.812H413.312V399.875H403.938C401.452 399.877 399.069 400.866 397.311 402.624C395.554 404.381 394.565 406.764 394.562 409.25V423.312C394.565 425.798 395.554 428.181 397.311 429.939C399.069 431.697 401.452 432.685 403.938 432.688H432.062V446.75H394.562V456.125H413.312V470.188H422.688V456.125H432.062C434.548 456.122 436.931 455.134 438.688 453.376C440.446 451.618 441.435 449.236 441.438 446.75V432.688C441.435 430.202 440.447 427.819 438.689 426.061C436.931 424.304 434.548 423.315 432.062 423.312H403.938V409.25H441.438Z" fill="white"/>
<path d="M418 371.75C429.125 371.75 440.001 375.049 449.251 381.23C458.501 387.411 465.711 396.196 469.968 406.474C474.226 416.752 475.34 428.062 473.169 438.974C470.999 449.885 465.641 459.908 457.775 467.775C449.908 475.641 439.885 480.999 428.974 483.169C418.062 485.34 406.752 484.226 396.474 479.968C386.196 475.711 377.411 468.501 371.23 459.251C365.049 450.001 361.75 439.125 361.75 428C361.794 413.095 367.734 398.813 378.273 388.273C388.813 377.734 403.095 371.794 418 371.75ZM418 362.375C405.021 362.375 392.333 366.224 381.541 373.435C370.749 380.646 362.337 390.895 357.37 402.886C352.403 414.878 351.104 428.073 353.636 440.803C356.168 453.533 362.418 465.226 371.596 474.404C380.774 483.582 392.467 489.832 405.197 492.364C417.927 494.896 431.122 493.597 443.114 488.63C455.105 483.663 465.354 475.251 472.565 464.459C479.776 453.667 483.625 440.979 483.625 428C483.574 410.611 476.644 393.948 464.348 381.652C452.052 369.356 435.389 362.426 418 362.375Z" fill="white"/>
</g>
<defs>
<clipPath id="clip0_1057_1206">
<rect width="142.242" height="150" fill="white" transform="translate(346.879 109)"/>
</clipPath>
<clipPath id="clip1_1057_1206">
<rect width="150" height="150" fill="white" transform="translate(587 109)"/>
</clipPath>
<clipPath id="clip2_1057_1206">
<rect width="150" height="150" fill="white" transform="translate(587 353)"/>
</clipPath>
<clipPath id="clip3_1057_1206">
<rect width="150" height="150" fill="white" transform="translate(343 353)"/>
</clipPath>
</defs>
</svg>
