<svg width="234" height="234" viewBox="0 0 234 234" fill="none" xmlns="http://www.w3.org/2000/svg">
<path d="M225.294 73.5355L188.97 52.5615C187.941 51.9674 186.673 51.9675 185.644 52.5617L136.303 81.0599V24.0789C136.303 22.8911 135.669 21.7935 134.641 21.1995L98.3161 0.225225C97.2078 -0.414675 95.8224 0.385125 95.8224 1.66493V81.0432L46.4808 52.5609C45.4521 51.9671 44.1847 51.9671 43.156 52.5611L6.83122 73.5356C5.72303 74.1755 5.72303 75.7751 6.83122 76.415L75.5736 116.104L6.83122 155.794C5.72293 156.434 5.72293 158.033 6.83122 158.673L43.156 179.648C44.1847 180.242 45.4521 180.242 46.4808 179.648L95.8224 151.165V208.146C95.8224 209.334 96.4564 210.432 97.4856 211.026L133.81 231.985C134.918 232.624 136.303 231.824 136.303 230.545V151.165L185.644 179.648C186.673 180.241 187.941 180.241 188.969 179.647L225.294 158.673C226.402 158.033 226.402 156.433 225.294 155.794L156.535 116.104L225.294 76.4148C226.402 75.775 226.402 74.1755 225.294 73.5355ZM139.046 129.387L116.054 142.654L93.0792 129.387V102.838L116.054 89.5716L139.046 102.838V129.387Z" fill="white" style="fill:white;fill-opacity:1;"/>
</svg>
