<?xml version="1.0" encoding="UTF-8"?>
<svg id="Layer_1" data-name="Layer 1" xmlns="http://www.w3.org/2000/svg" viewBox="0 0 132.7012 139.9389">
  <defs>
    <style>
      .cls-1 {
        fill: #fff;
      }
    </style>
  </defs>
  <path class="cls-1" d="M132.2015,44.363l-21.9907-12.706c-.6188-.3576-1.3815-.3577-2.0005-.0004l-29.6097,17.0926V14.5737c0-.7144-.3811-1.3746-.9997-1.7319L55.6007.1355c-.6667-.385-1.5001.0961-1.5001.8659v47.7477l-29.5998-17.0925c-.6189-.3574-1.3815-.3574-2.0004,0L.5002,44.3631c-.6665.385-.6665,1.3471.0001,1.732l41.3503,23.8741L.5,93.8434c-.6665.3848-.6667,1.3468-.0003,1.7319l21.9907,12.706c.6188.3576,1.3815.3577,2.0005.0004l29.6096-17.0925v34.1851c0,.7146.3813,1.375,1.0003,1.7322l21.9999,12.6971c.6667.3848,1.4999-.0964,1.4999-.8661v-47.7482l29.5998,17.0924c.6189.3574,1.3815.3574,2.0004,0l22.0002-12.7063c.6665-.385.6665-1.3471-.0001-1.732l-41.3503-23.8741,41.3506-23.8743c.6665-.3848.6667-1.3468.0003-1.7319ZM80.1006,77.9092l-13.75,7.94-13.75-7.94v-15.88l13.75-7.94,13.75,7.94v15.88Z"/>
</svg>